<?xml version="1.0" encoding="UTF-8"?>
<svg xmlns="http://www.w3.org/2000/svg" viewBox="0 0 64 64" width="512" height="512"><g id="Layer_32" data-name="Layer 32"><path d="M54.093,50.65c-5.385,9.383-16.514,13.06-24.859,8.213S18.49,42.48,23.875,33.1C35.677,12.531,59,7,59,7S65.9,30.083,54.093,50.65Z" style="fill:#e2734d"/><path d="M37,42c0,10.493-7.611,19-17,19S3,52.493,3,42C3,19,20,3,20,3S37,19,37,42Z" style="fill:#f98658"/><path d="M59.954,6.714a1,1,0,0,0-1.189-.687,63.863,63.863,0,0,0-25.77,14.189A63.961,63.961,0,0,0,20.686,2.272a1,1,0,0,0-1.372,0C19.142,2.435,2,18.836,2,42,2,52.676,9.573,61.4,19.06,61.947A8.639,8.639,0,0,0,20,62a16.488,16.488,0,0,0,8.53-2.4c.068.041.133.083.2.123A16.9,16.9,0,0,0,37.25,62a18.379,18.379,0,0,0,4.769-.638A21.625,21.625,0,0,0,54.96,51.147C66.839,30.448,60.024,6.949,59.954,6.714ZM4,42c0-12.082,4.856-22.262,9.33-29.081-.77,1.726-1.543,3.632-2.274,5.716l1.887.662a72.146,72.146,0,0,1,3.871-9.034,130.865,130.865,0,0,0-3.628,24.684l2,.106A123.927,123.927,0,0,1,20,6.215a116.023,116.023,0,0,1,3.353,14.942l1.975-.314A120.634,120.634,0,0,0,22.32,7.03C27.125,12.79,36,25.643,36,42a18.554,18.554,0,0,1-7.674,15.341C31.18,53.67,33,48.157,33,42a70.328,70.328,0,0,0-3.7-22.317l-1.9.634A68.346,68.346,0,0,1,31,42c0,7.656-2.941,14.193-7.068,16.791C25.944,54.988,27,48.363,27,42a135.383,135.383,0,0,0-.969-16.12l-1.986.24A133.233,133.233,0,0,1,25,42c0,11.152-2.912,18-5,18s-5-6.848-5-18q0-1,.015-1.985l-2-.03Q13,40.983,13,42c0,6.359,1.055,12.98,3.065,16.784-2.371-1.5-4.4-4.33-5.689-8.106l-1.894.644A20.652,20.652,0,0,0,11.6,57.29,18.568,18.568,0,0,1,4,42Zm49.226,8.151A19.621,19.621,0,0,1,41.5,59.43a16.681,16.681,0,0,1-3.153.527C42.943,58.138,47.4,54,50.516,48.566a72.841,72.841,0,0,0,8.162-21.853l-1.96-.4A70.89,70.89,0,0,1,48.782,47.57c-3.241,5.65-7.966,9.769-12.637,11.021a10.44,10.44,0,0,1-2.364.356c3.5-2.19,7.811-7.221,11.4-13.478a140.114,140.114,0,0,0,7.408-14.91l-1.841-.783a138.009,138.009,0,0,1-7.3,14.7c-4.774,8.319-9.785,12.868-12.422,13.575a3.1,3.1,0,0,1-.428.081A20.734,20.734,0,0,0,38,42a51.354,51.354,0,0,0-4.151-19.844,60.783,60.783,0,0,1,14.526-9.983c-1.679,1.21-3.477,2.61-5.336,4.217L44.346,17.9a73.906,73.906,0,0,1,8.292-6.219,133.716,133.716,0,0,0-14.33,17.754l1.655,1.124A127.952,127.952,0,0,1,57.391,9.8,118.866,118.866,0,0,1,52.682,24.98l1.869.712a124.434,124.434,0,0,0,4.443-14.009C60.312,19.278,61.656,35.461,53.226,50.151Z"/><rect x="34.784" y="27.783" width="23.423" height="2" transform="translate(-1.61 54.784) rotate(-60.15)"/><path d="M9,42a67.045,67.045,0,0,1,1.251-12.809l-1.962-.382A69.008,69.008,0,0,0,7,42c0,.688.023,1.383.068,2.066l2-.132C9.021,43.3,9,42.653,9,42Z"/><rect x="19" y="16" width="2" height="36"/></g></svg>
