<svg id="Capa_1" enable-background="new 0 0 499.753 499.753" height="512" viewBox="0 0 499.753 499.753" width="512" xmlns="http://www.w3.org/2000/svg"><g><path d="m415.893 288.675-73.76-58.33-16.2-170.77-1.435-20.911h-53.641l-3.254 20.911-16.21 170.77-73.75 58.33c-6.9 5.46-10.46 14.12-9.38 22.85l20.24 165c1.55 12.65 12.29 22.15 25.03 22.15h166.47c12.74 0 23.48-9.5 25.03-22.15l20.24-165c1.07-8.73-2.48-17.39-9.38-22.85z" fill="#fff9e4"/><path d="m240.233 489.145-20.24-165c-1.08-8.73 2.48-17.39 9.38-22.85l57.004-45.085c10.697-8.46 17.475-20.922 18.763-34.5l14.192-149.515 3.254-20.911h2.776l-.866-12.62h-53.641l-3.254 20.911-16.21 170.77-73.75 58.33c-6.9 5.46-10.46 14.12-9.38 22.85l20.24 165c1.55 12.65 12.29 22.15 25.03 22.15h29.908c-1.65-2.859-2.782-6.07-3.206-9.53z" fill="#fdf5cb"/><path d="m325.933 59.575-1.125-16.395-53.117-1.176-4.088 17.571-2.88 30.33 64.1.11z" fill="#fdf5cb"/><path d="m317.642 90.015 1.691-17.82 3.254-20.911h2.777l-.556-8.104-53.117-1.176-4.088 17.571-2.879 30.33z" fill="#fcf0b6"/><path d="m270.873 11.699-3.048 17.643c-.297 1.72-1.23 3.265-2.613 4.328l-6.657 5.119c-2.103 1.617-3.336 4.12-3.336 6.773v5.472c0 4.718 3.825 8.543 8.543 8.543h66.009c4.718 0 8.543-3.825 8.543-8.543v-5.472c0-2.653-1.233-5.156-3.336-6.773l-6.657-5.119c-1.383-1.064-2.316-2.609-2.613-4.328l-3.048-17.643c-1.167-6.76-7.032-11.699-13.892-11.699h-24.001c-6.861 0-12.726 4.939-13.894 11.699z" fill="#be8f7d"/><g id="XMLID_247_"><g><path d="m415.893 288.675c6.9 5.46 10.45 14.12 9.38 22.85l-20.24 165c-1.55 12.65-12.29 22.15-25.03 22.15h-166.47c-12.74 0-23.48-9.5-25.03-22.15l-20.24-165c-1.08-8.73 2.48-17.39 9.38-22.85l73.75-58.33 4.24-44.63h80.78l1.47-.14 4.25 44.77z" fill="#fbe88c"/></g></g><path d="m240.233 489.145-20.24-165c-1.08-8.73 2.48-17.39 9.38-22.85l57.004-45.085c10.697-8.46 17.475-20.922 18.763-34.5l3.417-35.995h-52.925l-4.24 44.63-73.75 58.33c-6.9 5.46-10.46 14.12-9.38 22.85l20.24 165c1.55 12.65 12.29 22.15 25.03 22.15h29.907.001c-1.651-2.859-2.783-6.07-3.207-9.53z" fill="#fbe372"/><path d="m362.257 451.246h-130.98c-11.02 0-19.953-8.933-19.953-19.953v-95.761c0-11.02 8.933-19.953 19.953-19.953h130.98c11.02 0 19.953 8.933 19.953 19.953v95.761c0 11.02-8.933 19.953-19.953 19.953z" fill="#fcf1de"/><path d="m219.874 319.156c-5.165 3.606-8.55 9.599-8.55 16.376v95.761c0 11.02 8.933 19.953 19.953 19.953h4.307l-15.591-127.102c-.206-1.667-.242-3.346-.119-4.988z" fill="#f6e2c4"/><path d="m190.377 485.188 23.535-41.101c6.734-11.761 7.75-25.947 2.76-38.547-8.344-21.069-31.173-32.518-53.049-26.606l-16.575 4.479-16.575-4.479c-21.876-5.912-44.705 5.538-53.049 26.606-4.99 12.6-3.975 26.787 2.76 38.547l23.535 41.101c7.008 12.238 21.816 17.645 35.061 12.8l4.93-1.803c2.156-.789 4.521-.789 6.677 0l4.93 1.803c13.244 4.844 28.052-.562 35.06-12.8z" fill="#e5827f"/><g><path d="m136.778 485.188-23.535-41.101c-6.734-11.761-7.75-25.947-2.76-38.547 4.734-11.953 14.133-20.805 25.372-25.152l-5.383-1.455c-21.876-5.912-44.705 5.538-53.049 26.606-4.99 12.6-3.975 26.787 2.76 38.547l23.535 41.101c7.008 12.238 21.816 17.645 35.061 12.8l4.93-1.803c1.052-.385 2.154-.579 3.258-.588-4.117-2.476-7.662-5.995-10.189-10.408z" fill="#de6a66"/></g><path d="m101.754 330.683h14.2c17.172 0 31.094 13.921 31.094 31.094v21.637h-21.637c-17.172 0-31.094-13.921-31.094-31.094v-14.2c0-4.108 3.33-7.437 7.437-7.437z" fill="#b8de9c"/></g></svg>