<svg width="256" height="256" viewBox="0 0 256 256" fill="none" xmlns="http://www.w3.org/2000/svg">
<path d="M134.363 14.9963C129.741 10.8813 122.576 10.9533 118.076 15.1613C69.0471 61.0023 71.3251 97.5513 71.3251 97.5513L71.4981 97.5493C71.4111 99.2293 71.3781 100.925 71.4051 102.637C71.9681 138.312 97.5861 167.004 128.623 166.722C159.661 166.44 184.365 137.291 183.801 101.615C183.774 99.9033 183.688 98.2073 183.548 96.5303L183.721 96.5283C183.721 96.5283 184.844 59.9403 134.363 14.9963Z" fill="#CCC033"/>
<path d="M101.404 102.639C101.377 100.927 101.409 99.2302 101.497 97.5512L101.324 97.5532C101.324 97.5532 99.2571 64.3742 141.467 21.5932C139.219 19.4172 136.856 17.2182 134.363 14.9982C129.741 10.8832 122.576 10.9552 118.076 15.1632C69.0471 61.0042 71.3251 97.5532 71.3251 97.5532L71.4981 97.5512C71.4111 99.2312 71.3781 100.927 71.4051 102.639C71.9681 138.314 97.5861 167.006 128.623 166.724C133.66 166.678 138.528 165.868 143.15 164.397C119.495 156.902 101.87 132.162 101.404 102.639Z" fill="#99AF17"/>
<path d="M131.803 32.7485C128.815 30.0875 124.183 30.1345 121.273 32.8545C89.5748 62.4925 91.0478 86.1225 91.0478 86.1225L91.1598 86.1215C91.1038 87.2075 91.0828 88.3045 91.0998 89.4115C91.4638 112.476 108.026 131.026 128.093 130.843C148.16 130.661 164.131 111.815 163.767 88.7505C163.75 87.6435 163.694 86.5475 163.603 85.4625L163.715 85.4615C163.715 85.4615 164.441 61.8065 131.803 32.7485Z" fill="#EACF32"/>
<path d="M121.099 89.4105C121.082 88.3035 121.103 87.2065 121.159 86.1205L121.047 86.1215C121.047 86.1215 119.889 67.4905 141.82 42.5665C138.889 39.3845 135.571 36.1025 131.803 32.7485C128.814 30.0875 124.182 30.1345 121.273 32.8545C89.5748 62.4925 91.0478 86.1225 91.0478 86.1225L91.1598 86.1215C91.1038 87.2075 91.0828 88.3045 91.0998 89.4115C91.4638 112.476 108.027 131.026 128.093 130.844C133.341 130.796 138.303 129.462 142.772 127.12C130.226 120.603 121.365 106.209 121.099 89.4105Z" fill="#CCC033"/>
<path d="M149.586 244.041H105.532C99.7481 244.041 95.0591 239.352 95.0591 233.568V184.041H160.059V233.568C160.059 239.352 155.37 244.041 149.586 244.041Z" fill="#CCC033"/>
<path d="M125.059 233.568V184.041H95.0591V233.568C95.0591 239.352 99.7481 244.041 105.532 244.041H135.532C129.748 244.041 125.059 239.352 125.059 233.568Z" fill="#99AF17"/>
<path d="M172.915 52.9327C176.624 51.0107 181.084 52.0597 183.053 55.3177C204.511 90.8147 195.785 113.321 195.785 113.321L195.677 113.296C195.396 114.357 195.077 115.421 194.718 116.487C187.237 138.687 165.506 153.015 146.18 148.49C126.854 143.965 117.251 122.3 124.732 100.1C125.091 99.0347 125.484 97.9877 125.906 96.9597L125.798 96.9347C125.798 96.9347 132.409 73.9267 172.915 52.9327Z" fill="#FCDA4F"/>
<path d="M145.732 100.099C146.091 99.0337 146.483 97.9867 146.906 96.9587L146.798 96.9337C146.798 96.9337 152.379 77.5227 184.68 58.0897C184.157 57.1737 183.618 56.2517 183.053 55.3177C181.083 52.0597 176.624 51.0107 172.915 52.9327C132.409 73.9267 125.799 96.9337 125.799 96.9337L125.907 96.9587C125.484 97.9867 125.092 99.0337 124.733 100.099C117.252 122.299 126.855 143.964 146.181 148.489C152.128 149.881 158.302 149.483 164.219 147.625C146.897 141.673 138.645 121.131 145.732 100.099Z" fill="#EACF32"/>
<path d="M80.7031 52.9327C76.9941 51.0107 72.5341 52.0597 70.5651 55.3177C49.1071 90.8147 57.8331 113.321 57.8331 113.321L57.9411 113.296C58.2221 114.357 58.5411 115.421 58.9001 116.487C66.3811 138.687 88.1121 153.015 107.438 148.49C126.764 143.965 136.367 122.3 128.886 100.1C128.527 99.0347 128.134 97.9877 127.712 96.9597L127.82 96.9347C127.82 96.9347 121.209 73.9267 80.7031 52.9327Z" fill="#FCDA4F"/>
<path d="M79.8991 116.487C79.5401 115.422 79.2211 114.357 78.9401 113.296L78.8321 113.321C78.8321 113.321 70.5631 91.9817 89.9371 58.0897C87.0721 56.3667 84.0021 54.6427 80.7021 52.9327C76.9931 51.0107 72.5331 52.0597 70.5641 55.3177C49.1061 90.8147 57.8321 113.321 57.8321 113.321L57.9401 113.296C58.2211 114.357 58.5401 115.421 58.8991 116.487C66.3801 138.687 88.1111 153.015 107.437 148.49C108.454 148.252 109.437 147.956 110.399 147.626C97.0871 143.446 85.0781 131.856 79.8991 116.487Z" fill="#EACF32"/>
<path d="M78.144 81.7159C74.435 79.7939 69.975 80.8429 68.006 84.1009C46.548 119.598 55.274 142.104 55.274 142.104L55.382 142.079C55.663 143.14 55.982 144.204 56.341 145.27C63.822 167.47 85.553 181.798 104.879 177.273C124.205 172.748 133.808 151.083 126.327 128.883C125.968 127.818 125.575 126.771 125.153 125.743L125.261 125.718C125.261 125.718 118.65 102.71 78.144 81.7159Z" fill="#EACF32"/>
<path d="M177.856 81.7159C181.565 79.7939 186.025 80.8429 187.994 84.1009C209.452 119.598 200.726 142.104 200.726 142.104L200.618 142.079C200.337 143.14 200.018 144.204 199.659 145.27C192.178 167.47 170.447 181.798 151.121 177.273C131.795 172.748 122.192 151.083 129.673 128.883C130.032 127.818 130.425 126.771 130.847 125.743L130.739 125.718C130.739 125.718 137.35 102.71 177.856 81.7159Z" fill="#EACF32"/>
<path d="M75.84 145.27C75.481 144.205 75.162 143.14 74.881 142.079L74.773 142.104C74.773 142.104 66.396 120.485 86.26 86.2079C83.717 84.7059 81.018 83.2059 78.143 81.7159C74.434 79.7939 69.974 80.8429 68.005 84.1009C46.547 119.598 55.273 142.104 55.273 142.104L55.381 142.079C55.662 143.14 55.981 144.204 56.34 145.27C63.821 167.47 85.552 181.798 104.878 177.273C105.647 177.093 106.395 176.876 107.132 176.643C93.507 172.681 81.122 160.942 75.84 145.27Z" fill="#CCC033"/>
<path d="M147.673 128.882C148.032 127.817 148.424 126.77 148.847 125.742L148.739 125.717C148.739 125.717 154.574 105.416 188.857 85.5519C188.574 85.0699 188.288 84.5869 187.994 84.1009C186.024 80.8429 181.565 79.7939 177.856 81.7159C137.35 102.71 130.74 125.717 130.74 125.717L130.848 125.742C130.425 126.77 130.033 127.817 129.674 128.882C122.193 151.082 131.796 172.747 151.122 177.272C156.548 178.543 162.163 178.326 167.6 176.867C149.298 171.584 140.392 150.489 147.673 128.882Z" fill="#CCC033"/>
<path d="M140.269 70.3594C145.102 70.3594 149.019 66.4419 149.019 61.6094C149.019 56.7769 145.102 52.8594 140.269 52.8594C135.437 52.8594 131.519 56.7769 131.519 61.6094C131.519 66.4419 135.437 70.3594 140.269 70.3594Z" fill="#CCC033"/>
<path d="M188.013 115.495C192.19 114.442 196.173 116.422 197.069 119.996C206.824 158.934 191.439 178.782 191.439 178.782L191.343 178.734C190.743 179.698 190.107 180.657 189.431 181.608C175.343 201.43 149.924 210.561 132.655 202.001C115.386 193.441 112.807 170.434 126.894 150.611C127.57 149.66 128.273 148.734 128.999 147.832L128.903 147.784C128.903 147.784 142.399 126.995 188.013 115.495Z" fill="#CCC033"/>
<path d="M153.433 198.576C152.03 198.576 150.776 197.586 150.494 196.157C150.173 194.531 151.23 192.953 152.855 192.632C162.916 190.644 173.183 183.757 179.649 174.657C180.17 173.924 180.677 173.162 181.154 172.395L183.73 168.254C184.605 166.849 186.454 166.415 187.862 167.292C189.269 168.167 189.699 170.017 188.824 171.424L186.248 175.565C185.706 176.435 185.131 177.298 184.54 178.132C177.22 188.433 165.524 196.243 154.018 198.518C153.822 198.557 153.626 198.576 153.433 198.576Z" fill="#EACF32"/>
<path d="M150.894 153.612C151.57 152.661 152.273 151.735 152.999 150.833L152.903 150.785C152.903 150.785 163.517 134.442 197.716 122.721C197.513 121.822 197.301 120.916 197.07 119.996C196.174 116.422 192.191 114.442 188.014 115.495C142.399 126.995 128.903 147.785 128.903 147.785L128.999 147.833C128.273 148.734 127.57 149.66 126.894 150.612C112.806 170.434 115.385 193.442 132.654 202.002C139.392 205.341 147.37 205.977 155.432 204.347C139.277 195.321 137.148 172.953 150.894 153.612Z" fill="#99AF17"/>
<path d="M67.1042 115.495C62.9272 114.442 58.9442 116.422 58.0482 119.996C48.2932 158.934 63.6782 178.782 63.6782 178.782L63.7742 178.734C64.3742 179.698 65.0102 180.657 65.6862 181.608C79.7742 201.43 105.193 210.561 122.462 202.001C139.731 193.441 142.31 170.434 128.223 150.611C127.547 149.66 126.844 148.734 126.118 147.832L126.214 147.784C126.214 147.784 112.719 126.995 67.1042 115.495Z" fill="#CCC033"/>
<path d="M83.6872 181.608C83.0112 180.657 82.3742 179.698 81.7752 178.734L81.6792 178.782C81.6792 178.782 66.2942 158.934 76.0492 119.996C76.2112 119.35 76.4762 118.758 76.8232 118.225C73.7582 117.272 70.5232 116.357 67.1052 115.495C62.9282 114.442 58.9452 116.422 58.0492 119.996C48.2942 158.934 63.6792 178.782 63.6792 178.782L63.7752 178.734C64.3752 179.698 65.0112 180.657 65.6872 181.608C78.2682 199.31 99.8812 208.473 116.661 204.137C104.394 201.366 92.0462 193.369 83.6872 181.608Z" fill="#99AF17"/>
<path d="M113.769 197.596C118.602 197.596 122.519 193.678 122.519 188.846C122.519 184.013 118.602 180.096 113.769 180.096C108.937 180.096 105.019 184.013 105.019 188.846C105.019 193.678 108.937 197.596 113.769 197.596Z" fill="#99AF17"/>
</svg>
