<svg id="Capa_1" enable-background="new 0 0 510 510" height="512" viewBox="0 0 510 510" width="512" xmlns="http://www.w3.org/2000/svg" xmlns:xlink="http://www.w3.org/1999/xlink"><linearGradient id="lg1"><stop offset="0" stop-color="#bbec6c"/><stop offset="1" stop-color="#81b823"/></linearGradient><linearGradient id="SVGID_1_" gradientTransform="matrix(.966 .259 -.259 .966 75.346 -66.201)" gradientUnits="userSpaceOnUse" x1="301.1" x2="326.694" xlink:href="#lg1" y1="410.578" y2="410.578"/><linearGradient id="lg2"><stop offset="0" stop-color="#47a920" stop-opacity="0"/><stop offset=".242" stop-color="#459a2a" stop-opacity=".242"/><stop offset=".7001" stop-color="#417545" stop-opacity=".7"/><stop offset="1" stop-color="#3e5959"/></linearGradient><linearGradient id="SVGID_00000104699398494293304840000014473733069038081982_" gradientTransform="matrix(.966 .259 -.259 .966 75.346 -66.201)" gradientUnits="userSpaceOnUse" x1="313.897" x2="313.897" xlink:href="#lg2" y1="457.477" y2="403.689"/><linearGradient id="lg3"><stop offset="0" stop-color="#8bc727"/><stop offset="1" stop-color="#017b4e"/></linearGradient><linearGradient id="SVGID_00000077298537090667114820000010647965477278534038_" gradientTransform="matrix(.966 .259 -.259 .966 75.346 -66.201)" gradientUnits="userSpaceOnUse" x1="171.311" x2="487.651" xlink:href="#lg3" y1="150.765" y2="271.96"/><linearGradient id="lg4"><stop offset="0" stop-color="#026841" stop-opacity="0"/><stop offset=".2377" stop-color="#0a6644" stop-opacity=".238"/><stop offset=".6075" stop-color="#20614d" stop-opacity=".608"/><stop offset="1" stop-color="#3e5959"/></linearGradient><linearGradient id="SVGID_00000060026023512759297570000016439552282492310202_" gradientUnits="userSpaceOnUse" x1="310.122" x2="207.414" xlink:href="#lg4" y1="215.104" y2="245.231"/><linearGradient id="SVGID_00000100376934563078976780000003795831362172667525_" gradientTransform="matrix(.966 .259 -.259 .966 75.346 -66.201)" gradientUnits="userSpaceOnUse" x1="313.897" x2="313.897" xlink:href="#lg4" y1="317.134" y2="419.924"/><linearGradient id="SVGID_00000093895135896728879770000014280111173306016183_" gradientTransform="matrix(.966 .259 -.259 .966 75.346 -66.201)" gradientUnits="userSpaceOnUse" x1="313.897" x2="313.897" xlink:href="#lg4" y1="245.238" y2="342.529"/><linearGradient id="SVGID_00000054255689275452760100000000910713786538035623_" gradientTransform="matrix(.966 .259 -.259 .966 75.346 -66.201)" gradientUnits="userSpaceOnUse" x1="313.897" x2="313.897" xlink:href="#lg4" y1="95.969" y2="236.397"/><linearGradient id="SVGID_00000000923471592314985740000004881563310848878015_" gradientTransform="matrix(.966 .259 -.259 .966 75.346 -66.201)" gradientUnits="userSpaceOnUse" x1="313.899" x2="313.899" xlink:href="#lg4" y1="41.487" y2="111.701"/><linearGradient id="SVGID_00000091695480857275646550000012563929672144760763_" gradientTransform="matrix(.966 .259 -.259 .966 75.346 -66.201)" gradientUnits="userSpaceOnUse" x1="378.49" x2="225.798" xlink:href="#lg4" y1="187.893" y2="235.139"/><linearGradient id="SVGID_00000051379130838511102140000016108876776348132274_" gradientTransform="matrix(.966 .259 -.259 .966 75.346 -66.201)" gradientUnits="userSpaceOnUse" x1="227.929" x2="227.936" xlink:href="#lg1" y1="349.813" y2="349.816"/><linearGradient id="SVGID_00000004505024672474399650000007132440645623640498_" gradientTransform="matrix(.966 .259 -.259 .966 75.346 -66.201)" gradientUnits="userSpaceOnUse" x1="227.505" x2="227.588" xlink:href="#lg1" y1="350.961" y2="350.993"/><linearGradient id="SVGID_00000068666042561585231950000003717471730787960456_" gradientTransform="matrix(-.966 .259 .259 .966 252.018 -66.201)" gradientUnits="userSpaceOnUse" x1="155.561" x2="178.139" xlink:href="#lg1" y1="461.983" y2="461.983"/><linearGradient id="SVGID_00000109723261650523949450000010358337775213762736_" gradientTransform="matrix(-.966 .259 .259 .966 252.018 -66.201)" gradientUnits="userSpaceOnUse" x1="166.85" x2="166.85" xlink:href="#lg2" y1="503.353" y2="455.906"/><linearGradient id="SVGID_00000062179616263540864040000007868372611836031128_" gradientTransform="matrix(-.966 .259 .259 .966 252.018 -66.201)" gradientUnits="userSpaceOnUse" x1="41.069" x2="320.125" xlink:href="#lg3" y1="232.792" y2="339.703"/><linearGradient id="SVGID_00000119096879964589120140000002474382696180439710_" gradientTransform="matrix(-.966 .259 .259 .966 252.018 -66.201)" gradientUnits="userSpaceOnUse" x1="166.85" x2="166.85" xlink:href="#lg4" y1="379.552" y2="470.227"/><linearGradient id="SVGID_00000169532193865415562280000012112219293415560593_" gradientTransform="matrix(-.966 .259 .259 .966 252.018 -66.201)" gradientUnits="userSpaceOnUse" x1="166.85" x2="166.85" xlink:href="#lg4" y1="316.13" y2="401.954"/><linearGradient id="SVGID_00000020357882448229211430000015303011472966820481_" gradientTransform="matrix(-.966 .259 .259 .966 252.018 -66.201)" gradientUnits="userSpaceOnUse" x1="166.85" x2="166.85" xlink:href="#lg4" y1="184.454" y2="308.331"/><linearGradient id="SVGID_00000082344994141815839860000017746491269152000696_" gradientTransform="matrix(-.966 .259 .259 .966 252.018 -66.201)" gradientUnits="userSpaceOnUse" x1="166.851" x2="166.851" xlink:href="#lg4" y1="136.394" y2="198.332"/><linearGradient id="SVGID_00000011717068845764277820000003749624215788153742_" gradientTransform="matrix(-.966 .259 .259 .966 252.018 -66.201)" gradientUnits="userSpaceOnUse" x1="223.83" x2="89.134" xlink:href="#lg4" y1="265.543" y2="307.221"/><linearGradient id="SVGID_00000005249232775085210060000009926855636758022785_" gradientTransform="matrix(-.966 .259 .259 .966 252.018 -66.201)" gradientUnits="userSpaceOnUse" x1="91.014" x2="91.02" xlink:href="#lg1" y1="408.379" y2="408.382"/><linearGradient id="SVGID_00000176009000995302581570000005275335262860238513_" gradientTransform="matrix(-.966 .259 .259 .966 252.018 -66.201)" gradientUnits="userSpaceOnUse" x1="90.64" x2="90.713" xlink:href="#lg1" y1="409.392" y2="409.42"/><g><g><g><path d="m246.041 509.561c-6.827-1.829-10.878-8.847-9.049-15.673l45.857-171.14c1.829-6.827 8.846-10.878 15.673-9.049s10.878 8.847 9.049 15.673l-45.857 171.14c-1.829 6.826-8.846 10.878-15.673 9.049z" fill="url(#SVGID_1_)"/><path d="m298.522 313.699c-6.827-1.829-13.844 2.222-15.673 9.049l-43.413 162.02 24.722 6.624 43.413-162.02c1.829-6.827-2.222-13.844-9.049-15.673z" fill="url(#SVGID_00000104699398494293304840000014473733069038081982_)"/></g><g><path d="m502.288 140.966-.249-1.001c-7.276-29.21-37.233-47.292-63.377-37.743-.035.013-.07.025-.104.038-4.001 1.466-7.96-2.218-6.71-6.291.56-1.824 1.013-3.379 1.352-4.644 10.368-38.694-12.595-78.467-51.289-88.835s-78.467 12.595-88.835 51.289c-.339 1.265-.724 2.838-1.151 4.697-.954 4.153-6.225 5.364-8.956 2.094-.024-.028-.047-.057-.071-.085-17.866-21.342-52.851-20.661-73.757.998l-.716.742c-20.453 21.189-18.621 53.375 4.054 69.065 22.674 15.689 40.443 33.552 54.402 54.594 1.877 2.83 2.643 6.247 2.182 9.612-.014.103-.028.207-.043.31-1.396 10.189-13.004 15.503-21.537 9.763-.497-.334-.998-.663-1.502-.986-17.212-11.033-41.583-2.869-51.478 16.905l-.339.678c-9.68 19.345-1.324 41.502 18.016 47.518 10.25 3.188 19.669 7.105 28.403 11.822 10.515 5.678 16.683 17.038 15.782 28.954-.121 1.598-.238 3.188-.351 4.77-.488 6.829-8.101 10.508-13.855 6.798-.047-.03-.093-.06-.14-.09-13.257-8.498-32.029-2.21-39.651 13.021l-.261.522c-7.456 14.901-1.02 31.967 13.877 36.6 7.467 2.322 14.361 5.148 20.778 8.521 10.508 5.524 17.671 15.772 19.806 27.451 2.175 11.897 5.755 19.36 11.101 20.792 5.346 1.433 12.179-3.241 20.01-12.456 7.688-9.046 19.015-14.34 30.878-13.87 7.244.287 14.627 1.287 22.255 3.009 15.218 3.436 29.325-8.126 30.318-24.758l.035-.583c1.015-17.001-12.097-31.833-27.828-31.102-.055.003-.111.005-.166.008-6.838.336-11.591-6.656-8.6-12.814.693-1.426 1.387-2.862 2.081-4.306 5.178-10.77 16.199-17.524 28.145-17.184 9.923.282 20.038 1.599 30.509 3.963 19.757 4.461 38.072-10.55 39.361-32.143l.045-.756c1.318-22.072-15.706-41.328-36.129-40.379-.598.028-1.196.062-1.794.103-10.26.704-17.655-9.702-13.77-19.224.039-.097.079-.193.118-.29 1.283-3.145 3.654-5.721 6.695-7.233 22.61-11.243 46.929-17.828 74.41-20.079 27.484-2.251 45.164-29.209 38.046-57.785z" fill="url(#SVGID_00000077298537090667114820000010647965477278534038_)"/><path d="m502.288 140.966-.249-1.001c-7.276-29.21-37.233-47.292-63.377-37.743-.035.013-.07.025-.104.038-4.001 1.466-7.96-2.218-6.71-6.291.56-1.824 1.013-3.379 1.352-4.644 10.368-38.694-12.595-78.467-51.289-88.835s-78.467 12.595-88.835 51.289c-.339 1.265-.724 2.838-1.151 4.697-.954 4.153-6.225 5.364-8.956 2.094-.024-.028-.047-.057-.071-.085-17.866-21.342-52.851-20.661-73.757.998l-.716.742c-20.453 21.189-18.621 53.375 4.054 69.065 22.674 15.689 40.443 33.552 54.402 54.594 1.877 2.83 2.643 6.247 2.182 9.612-.014.103-.028.207-.043.31-1.396 10.189-13.004 15.503-21.537 9.763-.497-.334-.998-.663-1.502-.986-17.212-11.033-41.583-2.869-51.478 16.905l-.339.678c-9.68 19.345-1.324 41.502 18.016 47.518 10.25 3.188 19.669 7.105 28.403 11.822 10.515 5.678 16.683 17.038 15.782 28.954-.121 1.598-.238 3.188-.351 4.77-.488 6.829-8.101 10.508-13.855 6.798-.047-.03-.093-.06-.14-.09-13.257-8.498-32.029-2.21-39.651 13.021l-.261.522c-7.456 14.901-1.02 31.967 13.877 36.6 7.467 2.322 14.361 5.148 20.778 8.521 10.508 5.524 17.671 15.772 19.806 27.451 2.175 11.897 5.755 19.36 11.101 20.792 5.346 1.433 12.179-3.241 20.01-12.456 7.688-9.046 19.015-14.34 30.878-13.87 7.244.287 14.627 1.287 22.255 3.009 15.218 3.436 29.325-8.126 30.318-24.758l.035-.583c1.015-17.001-12.097-31.833-27.828-31.102-.055.003-.111.005-.166.008-6.838.336-11.591-6.656-8.6-12.814.693-1.426 1.387-2.862 2.081-4.306 5.178-10.77 16.199-17.524 28.145-17.184 9.923.282 20.038 1.599 30.509 3.963 19.757 4.461 38.072-10.55 39.361-32.143l.045-.756c1.318-22.072-15.706-41.328-36.129-40.379-.598.028-1.196.062-1.794.103-10.26.704-17.655-9.702-13.77-19.224.039-.097.079-.193.118-.29 1.283-3.145 3.654-5.721 6.695-7.233 22.61-11.243 46.929-17.828 74.41-20.079 27.484-2.251 45.164-29.209 38.046-57.785z" fill="url(#SVGID_00000060026023512759297570000016439552282492310202_)"/><path d="m502.288 140.966-.249-1.001c-7.276-29.21-37.233-47.292-63.377-37.743-.035.013-.07.025-.104.038-4.001 1.466-7.96-2.218-6.71-6.291.56-1.824 1.013-3.379 1.352-4.644 10.368-38.694-12.595-78.467-51.289-88.835s-78.467 12.595-88.835 51.289c-.339 1.265-.724 2.838-1.151 4.697-.954 4.153-6.225 5.364-8.956 2.094-.024-.028-.047-.057-.071-.085-17.866-21.342-52.851-20.661-73.757.998l-.716.742c-20.453 21.189-18.621 53.375 4.054 69.065 22.674 15.689 40.443 33.552 54.402 54.594 1.878 2.83 2.643 6.247 2.182 9.612-.014.103-.028.207-.043.31-1.396 10.189-13.004 15.503-21.537 9.763-.497-.334-.998-.663-1.502-.986-17.212-11.033-41.583-2.869-51.478 16.905l-.339.678c-9.68 19.345-1.324 41.502 18.016 47.518 10.25 3.188 19.669 7.105 28.403 11.822 10.515 5.678 16.683 17.038 15.782 28.954-.121 1.598-.238 3.188-.351 4.77-.488 6.829-8.101 10.508-13.855 6.798-.047-.03-.093-.06-.14-.09-11.91-7.635-28.261-3.324-36.988 8.674 2.875.494 5.747 1.115 8.622 1.885 30.606 8.201 53.729 30.399 64.331 57.856l.01.003c22.91-18.477 54.034-26.14 84.64-17.939 2.875.77 5.673 1.669 8.409 2.678-1.558-14.756-13.572-26.665-27.705-26.008-.055.003-.111.005-.166.008-6.838.336-11.591-6.656-8.6-12.814.693-1.426 1.387-2.862 2.081-4.306 5.178-10.77 16.2-17.524 28.145-17.184 9.923.282 20.038 1.599 30.509 3.963 19.757 4.461 38.072-10.55 39.361-32.143l.045-.756c1.318-22.072-15.706-41.328-36.129-40.379-.598.028-1.196.062-1.794.103-10.26.704-17.655-9.702-13.77-19.224.039-.097.079-.193.118-.29 1.283-3.145 3.654-5.721 6.695-7.233 22.61-11.243 46.929-17.828 74.41-20.079 27.483-2.253 45.163-29.211 38.045-57.787z" fill="url(#SVGID_00000100376934563078976780000003795831362172667525_)"/><path d="m502.288 140.966-.249-1.001c-7.276-29.21-37.233-47.292-63.377-37.743-.035.013-.07.025-.104.038-4.001 1.466-7.96-2.218-6.71-6.291.56-1.824 1.013-3.379 1.352-4.644 10.368-38.694-12.595-78.467-51.289-88.835s-78.467 12.595-88.835 51.289c-.339 1.265-.724 2.838-1.151 4.697-.954 4.153-6.225 5.364-8.956 2.094-.024-.028-.047-.057-.071-.085-17.866-21.342-52.851-20.661-73.757.998l-.716.742c-20.453 21.189-18.621 53.375 4.054 69.065 22.674 15.689 40.443 33.552 54.402 54.594 1.878 2.83 2.643 6.247 2.182 9.612-.014.103-.028.207-.043.31-1.396 10.189-13.004 15.503-21.537 9.763-.497-.334-.998-.663-1.502-.986-17.097-10.96-41.252-2.972-51.271 16.517 3.84.667 7.689 1.497 11.528 2.525 46.201 12.38 79.96 48.019 92.051 90.952l.01.003c31.938-31.136 78.994-45.121 125.195-32.741 3.835 1.028 7.58 2.233 11.236 3.573 1.067-21.887-15.858-40.882-36.143-39.939-.598.028-1.196.062-1.794.103-10.26.704-17.655-9.702-13.77-19.224.039-.097.079-.193.118-.29 1.283-3.145 3.654-5.721 6.695-7.233 22.61-11.243 46.929-17.828 74.41-20.079 27.48-2.25 45.16-29.208 38.042-57.784z" fill="url(#SVGID_00000093895135896728879770000014280111173306016183_)"/><path d="m502.288 140.966-.249-1.001c-7.276-29.21-37.233-47.292-63.377-37.743-.035.013-.07.025-.104.038-4.001 1.466-7.96-2.218-6.71-6.291.56-1.824 1.013-3.379 1.352-4.644 10.368-38.694-12.595-78.467-51.289-88.835s-78.467 12.595-88.835 51.289c-.339 1.265-.724 2.838-1.151 4.697-.954 4.153-6.225 5.364-8.956 2.094-.024-.028-.047-.057-.071-.085-17.866-21.342-52.851-20.661-73.757.998l-.716.742c-1.472 1.525-2.815 3.113-4.057 4.742.854.218 1.711.427 2.573.658 64.208 17.204 109.975 68.863 122.753 129.749l.01.003c41.509-46.339 106.974-68.193 171.181-50.989.858.23 1.701.477 2.547.714-.263-2.033-.632-4.08-1.144-6.136z" fill="url(#SVGID_00000054255689275452760100000000910713786538035623_)"/><path d="m355.801 99.931.01.003c20.62-23.02 47.155-39.989 76.508-49.137-7.208-22.847-25.553-41.647-50.409-48.307-24.854-6.66-50.139.448-67.805 16.627 20.85 22.6 35.348 50.565 41.696 80.814z" fill="url(#SVGID_00000000923471592314985740000004881563310848878015_)"/><path d="m287.679 416.389c7.688-9.046 19.015-14.34 30.878-13.87 7.244.287 14.627 1.287 22.255 3.009 15.218 3.436 29.325-8.126 30.318-24.758l.035-.583c1.015-17.001-12.097-31.833-27.828-31.102-.055.003-.111.005-.166.008-6.838.336-11.591-6.656-8.6-12.814.693-1.426 1.387-2.862 2.081-4.306 5.178-10.77 16.2-17.524 28.145-17.184 9.923.282 20.038 1.599 30.509 3.963 19.757 4.461 38.072-10.55 39.361-32.143l.045-.756c1.318-22.072-15.706-41.328-36.129-40.379-.598.028-1.196.062-1.794.103-10.26.704-17.655-9.702-13.77-19.224.039-.097.079-.193.118-.29 1.283-3.145 3.654-5.721 6.695-7.233 22.61-11.243 46.929-17.828 74.41-20.079 27.482-2.251 45.162-29.209 38.044-57.785l-.249-1.001c-7.276-29.21-37.233-47.292-63.377-37.743-.035.013-.07.025-.104.038-4.001 1.466-7.96-2.218-6.71-6.291.56-1.824 1.013-3.379 1.352-4.644 10.368-38.694-12.595-78.467-51.289-88.835l-114.24 426.355c5.346 1.433 12.178-3.241 20.01-12.456z" fill="url(#SVGID_00000091695480857275646550000012563929672144760763_)"/><g><g><path d="m204.919 330.765c.037-.051.073-.103.11-.154-.002 0-.004-.001-.006-.001-.036.05-.067.105-.104.155z" fill="url(#SVGID_00000051379130838511102140000016108876776348132274_)"/><path d="m204.919 330.765c-.437.609-.861 1.23-1.257 1.877.398-.646.819-1.27 1.257-1.877z" fill="url(#SVGID_00000004505024672474399650000007132440645623640498_)"/></g></g></g></g><g><g><path d="m233.571 509.613c6.022-1.614 9.596-7.804 7.982-13.826l-40.452-150.969c-1.614-6.022-7.804-9.596-13.826-7.982s-9.596 7.804-7.982 13.826l40.452 150.969c1.613 6.021 7.803 9.595 13.826 7.982z" fill="url(#SVGID_00000068666042561585231950000003717471730787960456_)"/><path d="m187.275 336.835c6.022-1.614 12.212 1.96 13.826 7.982l38.296 142.924-21.809 5.844-38.296-142.924c-1.613-6.022 1.961-12.212 7.983-13.826z" fill="url(#SVGID_00000109723261650523949450000010358337775213762736_)"/></g><g><path d="m7.526 184.461.22-.883c6.418-25.768 32.845-41.718 55.907-33.294.031.011.061.022.092.034 3.529 1.293 7.022-1.957 5.919-5.55-.494-1.609-.893-2.981-1.192-4.097-9.146-34.134 11.11-69.219 45.244-78.365s69.219 11.11 78.365 45.244c.299 1.116.639 2.504 1.016 4.144.841 3.663 5.491 4.732 7.901 1.847.021-.025.042-.05.063-.075 15.76-18.827 46.622-18.226 65.064.88l.632.655c18.042 18.692 16.426 47.084-3.576 60.925-20.001 13.84-35.676 29.597-47.99 48.159-1.656 2.497-2.332 5.511-1.925 8.479.013.091.025.182.038.274 1.232 8.988 11.471 13.675 18.999 8.613.439-.295.88-.585 1.325-.87 15.183-9.733 36.682-2.531 45.41 14.913l.299.598c8.539 17.065 1.168 36.611-15.893 41.917-9.042 2.812-17.35 6.268-25.055 10.429-9.275 5.009-14.716 15.03-13.922 25.542.107 1.41.21 2.812.31 4.208.431 6.024 7.146 9.269 12.222 5.996.041-.027.082-.053.123-.079 11.695-7.497 28.254-1.95 34.977 11.486l.23.46c6.577 13.144.9 28.199-12.241 32.287-6.587 2.049-12.668 4.541-18.329 7.517-9.27 4.873-15.588 13.913-17.472 24.215-1.918 10.494-5.077 17.078-9.793 18.342s-10.743-2.859-17.652-10.988c-6.782-7.98-16.774-12.65-27.238-12.235-6.39.253-12.903 1.136-19.632 2.655-13.424 3.031-25.868-7.168-26.745-21.84l-.031-.514c-.896-14.997 10.672-28.081 24.548-27.436.049.002.098.005.147.007 6.032.297 10.225-5.872 7.586-11.304-.611-1.258-1.223-2.525-1.836-3.799-4.568-9.501-14.29-15.459-24.827-15.159-8.753.249-17.677 1.411-26.913 3.496-17.428 3.935-33.585-9.306-34.722-28.355l-.04-.667c-1.163-19.471 13.855-36.457 31.87-35.62.527.025 1.055.055 1.582.091 9.051.621 15.574-8.559 12.147-16.958-.035-.085-.07-.17-.104-.256-1.132-2.774-3.224-5.047-5.906-6.381-19.945-9.918-41.398-15.727-65.64-17.712-24.245-1.987-39.841-25.768-33.562-50.976z" fill="url(#SVGID_00000062179616263540864040000007868372611836031128_)"/><path d="m7.526 184.461.22-.883c6.418-25.768 32.845-41.718 55.907-33.294.031.011.061.022.092.034 3.529 1.293 7.022-1.957 5.919-5.55-.494-1.609-.893-2.981-1.192-4.097-9.146-34.134 11.11-69.219 45.244-78.365s69.219 11.11 78.365 45.244c.299 1.116.639 2.504 1.016 4.144.841 3.663 5.491 4.732 7.901 1.847.021-.025.042-.05.063-.075 15.76-18.827 46.622-18.226 65.064.88l.632.655c18.042 18.692 16.426 47.084-3.576 60.925-20.001 13.84-35.676 29.597-47.99 48.159-1.656 2.497-2.332 5.511-1.925 8.479.012.091.025.182.037.274 1.232 8.988 11.471 13.675 18.999 8.613.439-.295.88-.585 1.325-.87 15.183-9.733 36.682-2.531 45.41 14.913l.299.598c8.539 17.065 1.168 36.611-15.893 41.917-9.042 2.812-17.35 6.268-25.056 10.429-9.275 5.009-14.716 15.03-13.922 25.542.107 1.41.21 2.812.31 4.208.431 6.024 7.146 9.269 12.222 5.996.041-.026.082-.053.123-.079 10.507-6.735 24.93-2.932 32.628 7.651-2.536.436-5.07.984-7.606 1.663-26.999 7.234-47.396 26.816-56.749 51.037l-.009.002c-20.21-16.299-47.666-23.059-74.664-15.825-2.536.68-5.004 1.472-7.418 2.362 1.374-13.017 11.972-23.522 24.44-22.943.049.002.098.005.147.007 6.032.297 10.225-5.871 7.586-11.304-.611-1.258-1.223-2.525-1.836-3.799-4.568-9.501-14.29-15.459-24.827-15.159-8.753.249-17.677 1.411-26.913 3.496-17.428 3.935-33.585-9.306-34.722-28.355l-.04-.667c-1.163-19.471 13.855-36.457 31.87-35.62.527.025 1.055.055 1.582.091 9.051.621 15.574-8.559 12.147-16.958-.035-.085-.07-.171-.104-.256-1.132-2.774-3.224-5.047-5.906-6.381-19.945-9.918-41.398-15.727-65.64-17.712-24.243-1.985-39.839-25.766-33.56-50.974z" fill="url(#SVGID_00000119096879964589120140000002474382696180439710_)"/><path d="m7.526 184.461.22-.883c6.418-25.768 32.845-41.718 55.907-33.294.031.011.061.022.092.034 3.529 1.293 7.022-1.957 5.919-5.55-.494-1.609-.893-2.981-1.192-4.097-9.146-34.134 11.11-69.219 45.244-78.365s69.219 11.11 78.365 45.244c.299 1.116.639 2.504 1.016 4.144.841 3.663 5.491 4.732 7.901 1.847.021-.025.042-.05.063-.075 15.76-18.827 46.622-18.226 65.064.88l.632.655c18.042 18.692 16.426 47.084-3.576 60.925-20.001 13.84-35.676 29.597-47.99 48.159-1.656 2.497-2.332 5.511-1.925 8.479.012.091.025.182.037.274 1.232 8.988 11.471 13.675 18.999 8.613.439-.295.88-.585 1.325-.87 15.082-9.668 36.39-2.621 45.228 14.57-3.387.589-6.783 1.32-10.169 2.228-40.756 10.921-70.536 42.359-81.202 80.232l-.009.002c-28.173-27.466-69.683-39.803-110.439-28.882-3.383.907-6.687 1.97-9.912 3.152-.941-19.307 13.989-36.063 31.884-35.231.527.025 1.055.055 1.582.091 9.051.621 15.574-8.559 12.147-16.958-.035-.085-.07-.171-.104-.256-1.132-2.774-3.224-5.047-5.906-6.381-19.945-9.918-41.398-15.727-65.64-17.712-24.244-1.986-39.84-25.767-33.561-50.975z" fill="url(#SVGID_00000169532193865415562280000012112219293415560593_)"/><path d="m7.526 184.461.22-.883c6.418-25.768 32.845-41.718 55.907-33.294.031.011.061.022.092.034 3.529 1.293 7.022-1.957 5.919-5.55-.494-1.609-.893-2.981-1.192-4.097-9.146-34.134 11.11-69.219 45.244-78.365s69.219 11.11 78.365 45.244c.299 1.116.639 2.504 1.016 4.144.841 3.663 5.491 4.732 7.901 1.847.021-.025.042-.05.063-.075 15.76-18.827 46.622-18.226 65.064.88l.632.655c1.299 1.345 2.483 2.746 3.579 4.183-.754.192-1.51.376-2.27.58-56.64 15.177-97.013 60.747-108.285 114.456l-.009.002c-36.616-40.877-94.366-60.156-151.006-44.979-.757.203-1.501.421-2.247.63.229-1.793.555-3.598 1.007-5.412z" fill="url(#SVGID_00000020357882448229211430000015303011472966820481_)"/><path d="m136.748 148.263-.009.002c-18.19-20.307-41.597-35.275-67.491-43.346 6.359-20.154 22.542-36.738 44.468-42.613 21.924-5.875 44.229.395 59.813 14.667-18.392 19.937-31.181 44.606-36.781 71.29z" fill="url(#SVGID_00000082344994141815839860000017746491269152000696_)"/><path d="m196.84 427.422c-6.782-7.98-16.774-12.65-27.238-12.235-6.39.253-12.903 1.135-19.632 2.655-13.424 3.031-25.868-7.168-26.745-21.84l-.031-.514c-.896-14.997 10.672-28.081 24.548-27.436.049.002.098.005.147.007 6.032.297 10.225-5.871 7.586-11.304-.611-1.258-1.223-2.525-1.836-3.799-4.568-9.501-14.29-15.459-24.827-15.159-8.753.249-17.677 1.411-26.913 3.496-17.428 3.935-33.585-9.306-34.722-28.355l-.04-.667c-1.163-19.471 13.855-36.457 31.87-35.62.527.025 1.055.055 1.582.091 9.051.621 15.574-8.559 12.147-16.958-.035-.085-.07-.171-.104-.256-1.132-2.774-3.224-5.047-5.906-6.381-19.945-9.918-41.398-15.727-65.64-17.712-24.243-1.985-39.839-25.766-33.56-50.975l.22-.883c6.418-25.768 32.845-41.718 55.907-33.294.031.011.061.022.092.034 3.529 1.293 7.022-1.957 5.919-5.55-.494-1.609-.893-2.981-1.192-4.097-9.146-34.134 11.11-69.219 45.244-78.365l100.776 376.105c-4.716 1.264-10.743-2.858-17.652-10.988z" fill="url(#SVGID_00000011717068845764277820000003749624215788153742_)"/><g><g><path d="m269.846 351.89c-.032-.045-.065-.091-.097-.136.002 0 .004-.001.006-.001.031.044.059.093.091.137z" fill="url(#SVGID_00000005249232775085210060000009926855636758022785_)"/><path d="m269.846 351.89c.385.537.759 1.085 1.109 1.656-.351-.57-.723-1.12-1.109-1.656z" fill="url(#SVGID_00000176009000995302581570000005275335262860238513_)"/></g></g></g></g></g></svg>