<?xml version="1.0" encoding="UTF-8"?><svg id="OBJECT" xmlns="http://www.w3.org/2000/svg" viewBox="0 0 1320.062 3000"><g><path d="M472.573,1160.178s-19.955,137.589-139.687,430.267C213.154,1883.123,6.949,2324.016,.297,2482.72c-6.652,158.705,99.777,231.874,166.294,125.446,66.518-106.428,223.642-844.146,325.641-1071.859,101.999-227.713,133.042-471.624,177.389-564.753,44.347-93.129,44.347-154.295,50.999-202.429,6.652-48.134,98.303-255.827,65.782-279.479-32.521-23.652-82.782-4.055-147.825,204.927-65.043,208.982-166.006,465.606-166.006,465.606Z" fill="#8db574"/><path d="M644.669,679.993s-91.753-94.608-77.99-198.085c13.763-103.477,57.346-180.346,57.346-180.346l9.175,64.117c-14.582-14.788,77.276-159.717,83.842-244.479,21.453-14.758,21.571,20.625,56.999,46.328,0,0,30.412-60.065,88.542-117.268C902.647,10.834,926.809,0,926.809,0l-36.701,178.319,61.933-67.17s25.232,69.379,0,141.722c-25.232,72.343-64.227,131.473-64.227,131.473l48.17-44.347s4.588,50.26-2.294,106.434c-6.881,56.173-41.289,103.477-41.289,103.477l20.644,20.695s5.753,53.217-61.351,97.564c-67.103,44.347-186.833,36.045-207.026,11.826Z" fill="#c9da6f"/><path d="M371.882,2075.99l-.175-.302c-5.658,5.048-11.062,10.41-16.321,15.943-6.848,4.965-14.317,9.609-19.757,14.274-12.964,11.117-24.525,23.172-36.204,35.595-12.475,13.27-22.253,28.221-29.695,44.356-3.924,4.895-7.843,9.779-11.826,14.508-9.427,10.522-6.973,23.435,.353,31.633,2.694,5.259,8.664,8.577,14.209,7.918,5.996,.828,12.413-1.06,17.954-7.034,12.185-13.135,25.856-25.971,37.062-39.843,3.969-4.914,5.76-10.242,5.949-15.408,3.946-5.026,7.903-10.044,11.92-15.02,17.65-21.864,37.16-43.205,52.085-67.069,10.586-16.923-12.548-31.187-25.554-19.55Z" fill="#6c9650"/><path d="M171.798,2060.759c-2.15-31.341-14.901-64.553-22.942-94.83-6.973-26.251-42.549-18.511-44.863,6.071-2.711,28.806-5.917,57.566-8.618,86.372-1.702,18.15-3.789,36.384-2.745,54.427-1.482,6.982-2.615,14.085-3.462,21.405-3.373,29.152,37.536,28.658,46.808,6.335,11.111-26.749,37.923-49.159,35.822-79.78Z" fill="#6c9650"/><path d="M270.897,1653.989c-11.203-1.74-26.218,2.721-28.346,16.094-9.219,57.947-22.485,117.684-22.332,176.518,.027,10.158,7.138,16.015,15.025,17.022,11.642,11.94,35.437,11.849,39.358-8.762,8.106-42.614,25.358-81.708,35.684-123.416,7.809-31.539-2.443-71.718-39.389-77.456Z" fill="#6c9650"/><path d="M580.924,1440.537c-3.532-8.129-13.389-11.756-21.444-12.301-25.554-1.726-47.145,32.06-62.938,48.462-10.999,11.422-27.979,25.807-37.859,41.661-10.55,6.751-19.534,15.474-25.414,27.753-12.51,26.127,24.833,48.952,39.37,23.013,9.037-16.127,29.042-17.756,45.028-23.302,14.908-5.173,28.811-12.019,39.835-23.629,18.287-19.261,34.387-56.426,23.422-81.657Z" fill="#6c9650"/><path d="M429.617,1395.197c-3.486-39.665-16.518-79.661-25.415-118.406-.01-.042-.029-.076-.04-.117-.158-2.941-.298-5.883-.575-8.806-1.274-13.449-17.616-11.966-20.169-2.621-.057-.044-.114-.088-.172-.132-9.457,27.966-12.88,58.446-18.115,87.431-5.311,29.406-10.268,58.808-14.796,88.345-1.978,12.9,5.404,22.622,14.755,26.665,5.116,4.009,11.8,5.733,19.144,3.093,32.76-11.778,48.378-41.366,45.382-75.452Z" fill="#6c9650"/><path d="M707.388,970.756c-35.974,25.685-71.157,53.18-101.562,85.392-3.186-.758-6.899,.511-7.742,4.349-.413,1.874-.892,3.727-1.38,5.577-3.632,4.107-7.243,8.236-10.706,12.505-6.569,8.1-5.683,17.678-1.228,24.689-1.18,3.9-2.276,7.829-3.158,11.831-4.088,18.551-7.352,37.409-12.56,55.68-6.934,24.325,24.599,33.713,38.022,16.029,45.813-60.351,86.897-124.803,127.888-188.478,10.528-16.354-11-39.41-27.575-27.574Z" fill="#6c9650"/><path d="M539.192,1051.534c-.703-34.759-3.722-70.985,.143-105.572,.873-7.808-6.741-17.875-14.585-19.155-31.152-5.087-42.364,18.509-43.882,45.757-2.104,37.749-2.944,76.541,2.753,113.961,.497,3.262,2.021,5.745,4.092,7.564-1.877,14.816,14.904,30.884,30.242,20.831,22.338-14.64,21.727-39.168,21.237-63.386Z" fill="#6c9650"/><path d="M608.444,800.751c-1.41-28.598-43.295-23.884-39.302,5.319,3.481,25.451,14.975,50.011,18.646,75.387,1.333,9.214,16.579,6.996,16.197-2.192-1.079-25.983,5.743-52.47,4.459-78.514Z" fill="#6c9650"/><path d="M740.488,809.459c-4.273-6.628-12.414-10.552-20.268-8.248-3.987,1.169-7.892,2.299-11.414,4.61-2.413,1.584-4.826,3.168-7.239,4.752-8.05,5.284-12.2,16.551-6.613,25.218,2.538,3.936,6.316,7.4,11.016,8.471,5.058,1.152,9.526,.384,14.203-1.858,2.608-1.252,5.216-2.501,7.824-3.753,3.736-1.791,6.665-4.674,9.685-7.445,5.618-5.154,6.959-15.307,2.806-21.748Z" fill="#6c9650"/><path d="M874.202,167.601c-23.542,24.57-46.896,49.266-69.842,74.356-2.549,2.41-5.117,4.8-7.691,7.183,2.269-22.072,2.824-44.704,3.542-65.563,.872-25.316-36.488-24.439-38.804,0-3.365,35.52-7.381,74.892-2.194,110.269,1.827,12.456,17.847,13.241,25.544,6.744,1.043-.881,2.06-1.788,3.099-2.672,2.367-.492,4.755-1.652,6.988-3.783,11.121-10.61,22.094-21.358,33.01-32.159,24.082-22.776,47.175-46.544,69.836-70.886,14.54-15.617-8.639-38.986-23.488-23.489Z" fill="#a6af2f"/><path d="M871.884,360.078c-34.663,5.802-72.062,30.403-102.057,48.24-19.627,11.671-42.67,24.678-61.682,40.525-3.401-14.386-6.584-28.896-12.294-42.826-9.181-22.402-21.921-42.698-34.736-63.157-4.974-7.943-16.99-.932-12.565,7.344,10.583,19.795,17.284,40.869,22.866,62.549,5.011,19.46,13.382,46.905,10.069,66.932-2.014,12.173,8.166,28.309,22.619,22.619,31.461-12.387,59.06-38.097,88.246-55.454,15.401-9.159,31.158-17.726,47.219-25.673,15.83-7.832,33.766-13.338,48.201-23.421,19.617-13.704,7.309-41.56-15.885-37.678Z" fill="#a6af2f"/><path d="M870.464,544.138c-45.836,13.597-86.231,41.868-122.186,72.813-8.213,7.068-17.075,14.126-24.429,22.101-7.154,7.76-9.796,19.399-18.265,25.698-15.514,11.538-52.078,10.029-61.424-8.466-4.523-8.95-19.135-2.734-16.179,6.821,5.758,18.613,18.961,30.127,37.856,34.671,27.003,6.493,41.491-13.581,64.68-22.593,24.724-9.608,42.365-34.846,62.872-51.24,27.112-21.673,57.51-38.579,86.419-57.642,11.073-7.302,4.388-26.237-9.344-22.164Z" fill="#a6af2f"/><path d="M667.265,661.929c-4.687-17.328-24.628-27.809-34.807-42.432-9.952-14.297-13.013-33.838-25.332-46.059-5.019-4.978-12.009-2.003-14.39,3.799-7.736,18.851,5.229,43.782,14.037,60.406,9.634,18.183,23.553,41.802,45.642,43.781,10.168,.911,17.269-10.552,14.85-19.495Z" fill="#a6af2f"/></g><g><path d="M733.137,1676.206s-37.209,123.553-187.297,375.763c-150.088,252.21-399.901,628.593-427.798,773.355s59.748,226.537,135.417,137.98c75.67-88.558,321.187-744.136,446.079-939.149,124.891-195.014,186.876-414.637,240.37-494.032,53.494-79.395,61.892-135.539,74.607-178.807,12.715-43.269,125.359-221.327,98.755-247.502-26.604-26.176-75.429-15.088-163.826,167.806-88.397,182.894-216.307,404.587-216.307,404.587Z" fill="#8db574"/><path d="M957.036,1259.073s-71.23-99.439-44.389-192.531c26.841-93.092,77.4-157.666,77.4-157.666l-.382,60.113c-11.355-15.576,92.861-135.994,110.527-212.896,21.718-10.601,16.968,21.894,45.958,50.351,0,0,36.163-50.958,97.375-95.483,42.189-30.688,65.855-37.315,65.855-37.315l-58.172,158.64,66.071-53.152s13.634,67.148-19.459,130.087c-33.094,62.939-77.006,111.861-77.006,111.861l50.305-34.092s-2.69,46.764-16.719,97.381c-14.029,50.617-52.107,89.313-52.107,89.313l16.108,21.831s-2.027,49.638-69.71,81.131c-67.683,31.493-176.443,7.432-191.654-17.571Z" fill="#c9da6f"/><path d="M514.966,2503.006l-.12-.301c-5.887,3.856-11.583,8.037-17.17,12.393-6.967,3.617-14.461,6.854-20.095,10.39-13.426,8.424-25.693,17.902-38.119,27.701-13.273,10.467-24.301,22.848-33.348,36.637-4.274,3.954-8.541,7.899-12.847,11.693-10.098,8.363-9.618,20.554-4.019,29.085,1.751,5.197,6.775,9.063,11.955,9.219,5.39,1.584,11.539,.731,17.446-3.992,12.988-10.384,27.299-20.288,39.49-31.483,4.318-3.966,6.693-8.611,7.576-13.326,4.312-4.071,8.633-8.134,13.004-12.15,19.203-17.646,40.041-34.556,57.018-54.411,12.04-14.08-7.236-30.35-20.772-21.454Z" fill="#6c9650"/><path d="M333.4,2461.553c2.33-29.063-4.814-61.299-8.038-90.195-2.796-25.053-36.514-22.833-42.013-.588-6.444,26.069-13.336,52.027-19.77,78.098-4.054,16.427-8.474,32.877-9.992,49.582-2.319,6.206-4.334,12.569-6.117,19.172-7.098,26.295,30.52,31.459,42.096,12.242,13.871-23.028,41.56-39.916,43.835-68.311Z" fill="#6c9650"/><path d="M480.215,2101.785c-10.044-3.135-24.439-1.102-28.229,10.881-16.419,51.924-36.798,104.935-44.735,158.96-1.37,9.328,4.353,15.681,11.454,17.688,9.047,12.558,30.901,15.742,37.33-2.639,13.291-38.002,34.496-71.518,49.7-108.384,11.498-27.878,7.605-66.166-25.52-76.506Z" fill="#6c9650"/><path d="M794.098,1948.425c-2.126-7.947-10.675-12.629-17.995-14.235-23.219-5.093-47.676,22.955-64.425,35.841-11.665,8.974-29.225,19.847-40.471,33.043-10.611,4.748-20.055,11.521-27.138,21.985-15.07,22.264,16.073,48.343,32.978,26.529,10.509-13.562,29.096-12.311,44.531-15.206,14.394-2.702,28.096-7.076,39.809-16.219,19.43-15.169,39.311-47.072,32.711-71.737Z" fill="#6c9650"/><path d="M661.438,1886.032c2.246-36.887-4.224-75.389-7.07-112.175-.003-.04-.016-.074-.02-.113,.259-2.721,.534-5.441,.681-8.162,.677-12.52-14.526-13.402-18.153-5.175-.047-.049-.093-.096-.139-.145-12.521,24.372-19.847,51.879-28.632,77.766-8.912,26.263-17.5,52.57-25.712,79.06-3.586,11.57,1.854,21.507,9.882,26.502,4.146,4.383,10.044,6.882,17.147,5.468,31.687-6.313,50.086-31.327,52.016-63.027Z" fill="#6c9650"/><path d="M974.683,1534.577c-36.547,18.637-72.617,39.044-104.948,64.437-2.82-1.133-6.403-.478-7.704,2.929-.636,1.664-1.331,3.298-2.033,4.93-3.898,3.271-7.779,6.565-11.544,10.009-7.142,6.533-7.643,15.447-4.517,22.493-1.619,3.418-3.164,6.874-4.523,10.426-6.299,16.467-11.885,33.329-19.174,49.384-9.704,21.376,17.95,34.323,32.7,19.934,50.338-49.106,96.899-102.625,143.268-155.445,11.909-13.566-4.685-37.685-21.525-29.097Z" fill="#6c9650"/><path d="M809.204,1585.629c4.128-32.002,6.33-65.668,14.627-96.885,1.873-7.048-3.734-17.333-10.757-19.585-27.896-8.946-41.428,11.172-46.562,35.975-7.114,34.361-13.212,69.853-13.12,104.983,.008,3.063,1.067,5.551,2.717,7.505-3.758,13.342,9.44,30.395,24.899,23.273,22.515-10.371,25.321-32.969,28.197-55.266Z" fill="#6c9650"/><path d="M907.205,1364.943c2.633-26.444-36.461-27.868-36.806-.514-.299,23.839,6.879,47.961,6.764,71.758-.042,8.64,14.257,8.698,15.168,.211,2.577-23.998,12.476-47.374,14.873-71.456Z" fill="#6c9650"/><path d="M1027.212,1391.066c-3.012-6.671-9.946-11.39-17.472-10.354-3.82,.526-7.56,1.026-11.11,2.664-2.433,1.123-4.865,2.245-7.297,3.368-8.114,3.745-13.471,13.517-9.533,22.24,1.789,3.961,4.781,7.66,8.948,9.288,4.484,1.752,8.691,1.661,13.292,.245,2.565-.791,5.131-1.58,7.697-2.37,3.676-1.131,6.759-3.375,9.912-5.504,5.865-3.959,8.489-13.095,5.562-19.577Z" fill="#6c9650"/><path d="M1238.08,820.264c-24.983,19.321-49.81,38.782-74.318,58.662-2.67,1.862-5.356,3.703-8.046,5.537,5.114-19.949,8.73-40.646,12.253-59.694,4.276-23.118-30.137-27.443-35.618-5.328-7.966,32.141-17.058,67.73-17.154,100.915-.034,11.685,14.563,14.604,22.52,9.698,1.079-.666,2.136-1.358,3.211-2.027,2.24-.126,4.591-.864,6.934-2.513,11.665-8.212,23.213-16.571,34.716-24.987,25.233-17.599,49.693-36.245,73.836-55.477,15.49-12.339-2.577-36.972-18.335-24.785Z" fill="#a6af2f"/><path d="M1209.523,996.62c-32.614,.566-70.32,18.013-100.302,30.266-19.618,8.018-42.555,16.793-62.182,28.729-1.146-13.672-2.076-27.428-5.404-40.998-5.352-21.824-14.259-42.203-23.213-62.742-3.475-7.974-15.467-3.188-12.542,5.016,6.997,19.623,10.254,39.887,12.401,60.553,1.927,18.551,5.843,44.891,.052,62.82-3.52,10.897,3.608,27.106,17.656,23.867,30.579-7.05,59.442-26.86,88.616-38.784,15.394-6.292,31.034-11.993,46.867-17.082,15.605-5.016,32.825-7.606,47.459-14.88,19.888-9.885,12.416-37.145-9.407-36.766Z" fill="#a6af2f"/><path d="M1182.947,1165.374c-43.939,6.187-84.9,26.591-122.152,50.058-8.509,5.36-17.612,10.622-25.458,16.932-7.632,6.14-11.655,16.461-20.294,21.08-15.825,8.461-49.179,2.055-55.219-16.205-2.923-8.836-17.189-5.137-15.788,4.04,2.73,17.875,13.268,30.257,29.988,37.023,23.895,9.668,39.95-6.769,62.472-11.857,24.013-5.424,43.671-26.168,64.746-38.4,27.862-16.172,58.085-27.515,87.239-41.044,11.166-5.182,7.63-23.481-5.533-21.627Z" fill="#a6af2f"/><path d="M980.257,1245.595c-1.923-16.549-18.788-28.908-26.123-43.728-7.172-14.49-7.299-32.846-16.928-45.756-3.924-5.259-10.748-3.487-13.73,1.511-9.69,16.241-1.211,40.906,4.591,57.374,6.346,18.013,15.879,41.604,35.883,46.454,9.208,2.232,17.3-7.315,16.307-15.856Z" fill="#a6af2f"/></g></svg>