<svg height="512pt" viewBox="-85 0 512 512" width="512pt" xmlns="http://www.w3.org/2000/svg"><path d="m152.960938 55.597656c-6.015626-31.972656-27.214844-55.597656-52.441407-55.597656-25.230469 0-46.425781 23.625-52.441406 55.597656zm0 0" fill="#fcdb67"/><path d="m79.710938 55.597656c4.703124-24.996094 18.683593-44.886718 36.621093-52.375-5.003906-2.089844-10.308593-3.222656-15.8125-3.222656-25.230469 0-46.425781 23.625-52.441406 55.597656zm0 0" fill="#e2c55c"/><path d="m118.773438 41.199219c-1.96875 0-3.910157-.800781-5.296876-2.1875-1.402343-1.402344-2.203124-3.332031-2.203124-5.3125 0-1.96875.800781-3.898438 2.203124-5.300781 1.398438-1.398438 3.328126-2.199219 5.296876-2.199219 1.980468 0 3.910156.800781 5.300781 2.199219 1.402343 1.402343 2.199219 3.332031 2.199219 5.300781 0 1.980469-.796876 3.910156-2.199219 5.3125-1.390625 1.386719-3.320313 2.1875-5.300781 2.1875zm0 0" fill="#fff"/><path d="m298.816406 54.597656h-130.101562v24.726563h130.101562c6.257813 0 11.332032-5.074219 11.332032-11.332031v-2.0625c0-6.257813-5.078126-11.332032-11.332032-11.332032zm0 0" fill="#ef5050"/><path d="m97.34375 28.851562c-1.980469 0-3.910156-.800781-5.296875-2.203124-1.402344-1.398438-2.203125-3.328126-2.203125-5.296876 0-1.980468.800781-3.910156 2.203125-5.3125 1.386719-1.390624 3.316406-2.1875 5.296875-2.1875 1.972656 0 3.910156.796876 5.300781 2.1875 1.402344 1.402344 2.199219 3.332032 2.199219 5.3125 0 1.96875-.796875 3.898438-2.199219 5.296876-1.390625 1.402343-3.328125 2.203124-5.300781 2.203124zm0 0" fill="#fff"/><path d="m155.519531 154.261719c9.199219-11.976563 14.230469-26.652344 14.230469-41.824219v-57.839844h-132.824219c-3.117187 0-5.644531 2.515625-5.644531 5.617188v52.222656c0 15.171875 5.035156 29.847656 14.234375 41.824219zm0 0" fill="#c0272d"/><path d="m77.386719 154.261719c-9.199219-11.976563-14.234375-26.652344-14.234375-41.824219v-52.222656c0-3.101563 2.527344-5.617188 5.640625-5.617188h-31.867188c-3.117187 0-5.640625 2.515625-5.640625 5.617188v52.222656c0 15.171875 5.03125 29.847656 14.230469 41.824219zm0 0" fill="#ac2328"/><path d="m19.679688 188.738281v317.644531c0 3.089844 2.535156 5.617188 5.640624 5.617188h290.789063c3.101563 0 5.640625-2.527344 5.640625-5.617188v-317.644531zm0 0" fill="#fb8276"/><path d="m51.214844 188.738281h-31.535156v205.453125l31.535156-31.40625zm0 0" fill="#e1756a"/><path d="m78.132812 335.976562-58.453124 58.214844v112.191406c0 3.089844 2.535156 5.617188 5.640624 5.617188h43.578126l88.1875-87.824219c-43.714844-6.417969-77.480469-43.238281-78.953126-88.199219zm0 0" fill="#ffd5b3"/><path d="m225.976562 188.738281-52.183593 51.96875c45.144531 1.46875 82.113281 35.097657 88.5625 78.628907l59.390625-59.148438v-71.449219zm0 0" fill="#ffd5b3"/><path d="m335.789062 153.261719h-330.148437c-3.101563 0-5.640625 2.527343-5.640625 5.617187v25.242188c0 3.089844 2.539062 5.617187 5.640625 5.617187h330.148437c3.101563 0 5.640626-2.527343 5.640626-5.617187v-25.242188c0-3.089844-2.539063-5.617187-5.640626-5.617187zm0 0" fill="#c5ccd3"/><path d="m31.640625 184.121094v-25.242188c0-3.089844 2.539063-5.617187 5.640625-5.617187h-31.640625c-3.101563 0-5.640625 2.527343-5.640625 5.617187v25.242188c0 3.089844 2.539062 5.617187 5.640625 5.617187h31.640625c-3.101562 0-5.640625-2.527343-5.640625-5.617187zm0 0" fill="#b1b7bd"/><path d="m296.496094 479.886719c0 2.832031-2.316406 5.148437-5.148438 5.148437h-34.824218c-2.832032 0-5.148438-2.316406-5.148438-5.148437v-50.367188c0-2.832031 2.316406-5.152343 5.148438-5.152343h34.824218c2.832032 0 5.148438 2.320312 5.148438 5.152343zm0 0" fill="#fff"/><path d="m267.554688 479.886719v-50.367188c0-2.832031 2.3125-5.152343 5.148437-5.152343h-16.179687c-2.832032 0-5.148438 2.320312-5.148438 5.152343v50.367188c0 2.832031 2.316406 5.148437 5.148438 5.148437h16.179687c-2.835937 0-5.148437-2.316406-5.148437-5.148437zm0 0" fill="#e5e5e5"/><path d="m263.355469 332.910156c0-50.953125-41.476563-92.261718-92.640625-92.261718-51.164063 0-92.640625 41.308593-92.640625 92.261718 0 50.957032 41.476562 92.261719 92.640625 92.261719 51.164062 0 92.640625-41.304687 92.640625-92.261719zm0 0" fill="#a2f9f9"/><path d="m113.046875 356.648438c-11-.507813-19.804687-9.570313-19.804687-20.664063v-4.808594c0-10.980469 8.617187-19.964843 19.457031-20.648437 3.417969-13.648438 9.898437-26.089844 18.652343-36.574219-1.203124-2.746094-.691406-6.0625 1.558594-8.3125 2.195313-2.195313 5.410156-2.746094 8.117188-1.652344 12.601562-11.175781 28.273437-18.980469 45.617187-21.972656-5.175781-.894531-10.5-1.367187-15.929687-1.367187-51.167969 0-92.640625 41.308593-92.640625 92.261718 0 50.957032 41.472656 92.261719 92.640625 92.261719 5.429687 0 10.753906-.46875 15.929687-1.363281-35.71875-6.164063-64.410156-32.707032-73.597656-67.160156zm0 0" fill="#91e0e0"/><path d="m170.714844 432.671875c-55.21875 0-100.140625-44.753906-100.140625-99.761719 0-55.007812 44.921875-99.761718 100.140625-99.761718s100.140625 44.753906 100.140625 99.761718c0 55.011719-44.921875 99.761719-100.140625 99.761719zm0-184.523437c-46.945313 0-85.140625 38.023437-85.140625 84.761718 0 46.738282 38.195312 84.761719 85.140625 84.761719 46.945312 0 85.140625-38.023437 85.140625-84.761719 0-46.734375-38.195313-84.761718-85.140625-84.761718zm0 0" fill="#48e5e1"/><path d="m173.765625 276.652344c11.804687.625 22.882813 4.828125 31.917969 11.765625-.316406-.539063-.699219-1.058594-1.164063-1.523438l-21.257812-21.253906c-2.925781-2.929687-7.675781-2.929687-10.605469 0-2.003906 2-2.632812 4.851563-1.898438 7.390625l-7.394531-7.390625c-2.929687-2.929687-7.675781-2.929687-10.605469 0-1.984374 1.980469-2.617187 4.800781-1.917968 7.320313l-7.320313-7.320313c-2.929687-2.929687-7.679687-2.929687-10.609375 0-2.925781 2.925781-2.925781 7.675781.003906 10.605469l8.394532 8.398437c4.367187-2.605469 9.09375-4.621093 14.054687-5.992187 4.921875-1.363282 10.074219-2.09375 15.351563-2.09375 1.023437 0 2.039062.039062 3.050781.09375zm0 0" fill="#775436"/><path d="m170.714844 391.601562c-23.4375 0-44.257813-13.816406-53.414063-34.902343h-3.285156c-11.453125 0-20.769531-9.292969-20.769531-20.714844v-4.804687c0-11.421876 9.316406-20.714844 20.769531-20.714844h3.285156c9.15625-21.085938 29.976563-34.90625 53.414063-34.90625 23.433594 0 44.257812 13.820312 53.414062 34.90625h3.285156c11.453126 0 20.773438 9.292968 20.773438 20.714844v4.804687c0 11.421875-9.320312 20.714844-20.773438 20.714844h-3.285156c-9.15625 21.085937-29.980468 34.902343-53.414062 34.902343zm0 0" fill="#ffd5b3"/><path d="m152.214844 344.238281c-4.144532 0-7.5-3.359375-7.5-7.5v-6.316406c0-4.140625 3.355468-7.5 7.5-7.5 4.144531 0 7.5 3.359375 7.5 7.5v6.316406c0 4.140625-3.355469 7.5-7.5 7.5zm0 0" fill="#775436"/><path d="m189.214844 344.238281c-4.144532 0-7.5-3.359375-7.5-7.5v-6.316406c0-4.140625 3.355468-7.5 7.5-7.5 4.144531 0 7.5 3.359375 7.5 7.5v6.316406c0 4.140625-3.355469 7.5-7.5 7.5zm0 0" fill="#775436"/><path d="m51.214844 506.382812v-143.597656l-31.535156 31.40625v112.191406c0 3.089844 2.535156 5.617188 5.640624 5.617188h31.535157c-3.101563 0-5.640625-2.527344-5.640625-5.617188zm0 0" fill="#e5bfa1"/></svg>