<svg id="Artboard_30" height="512" viewBox="0 0 64 64" width="512" xmlns="http://www.w3.org/2000/svg" data-name="Artboard 30"><rect fill="#5490f5" height="8" rx="2" width="60" x="2" y="2"/><path d="m60 2h-55v.859a4.337 4.337 0 0 0 4.337 4.341h52.663v-3.2a2 2 0 0 0 -2-2z" fill="#81b4fc"/><g fill="#3f6cb8"><path d="m31 2h2v8h-2z"/><path d="m25 2h2v8h-2z"/><path d="m19 2h2v8h-2z"/><path d="m13 2h2v8h-2z"/><path d="m7 2h2v8h-2z"/><path d="m55 2h2v8h-2z"/><path d="m49 2h2v8h-2z"/><path d="m43 2h2v8h-2z"/><path d="m37 2h2v8h-2z"/></g><path d="m57 10-.624 1.56a4.718 4.718 0 0 0 1.639 5.593 9.518 9.518 0 0 1 3.985 7.747v31.1a6 6 0 0 1 -6 6h-48a6 6 0 0 1 -6-6v-31.1a9.518 9.518 0 0 1 3.985-7.745 4.718 4.718 0 0 0 1.639-5.595l-.624-1.56z" fill="#d9d5ca"/><path d="m62 56v-31.1a9.518 9.518 0 0 0 -3.985-7.745 4.718 4.718 0 0 1 -1.639-5.593l.624-1.562h-43l.624 1.56a4.718 4.718 0 0 1 -1.639 5.593 9.518 9.518 0 0 0 -3.985 7.747v31.1a6 6 0 0 0 6 6h41a6 6 0 0 0 6-6z" fill="#f2efe0"/><path d="m2 25h60v30h-60z" fill="#5490f5"/><path d="m9 25h53v30h-53z" fill="#81b4fc"/><path d="m10.174 44.833-.164-1.633a2 2 0 0 1 2-2.2h35.979a2.005 2.005 0 0 1 2.011 2 2.005 2.005 0 0 1 -2.011 2h-24.126l-.047.277a6.873 6.873 0 0 1 -6.791 5.723 6.872 6.872 0 0 1 -6.851-6.167z" fill="#ffc239"/><path d="m11.236 41.168a3 3 0 0 1 2.764-4.168 3 3 0 0 1 6 0 3 3 0 0 1 2.829 4z" fill="#f6f8ff"/><path d="m31 30a1 1 0 0 1 1 1h2a3 3 0 1 0 -3 3 1 1 0 1 1 -1 1h-2a3 3 0 1 0 3-3 1 1 0 0 1 0-2z" fill="#f6f8ff"/><path d="m38 28a3 3 0 0 0 -3 3v4a3 3 0 0 0 6 0v-4a3 3 0 0 0 -3-3zm1 7a1 1 0 0 1 -2 0v-4a1 1 0 0 1 2 0z" fill="#f6f8ff"/><path d="m45.064 28h-2.064a1 1 0 0 0 -1 1v8a1 1 0 0 0 1 1h2.064a2.939 2.939 0 0 0 2.936-2.936v-4.128a2.939 2.939 0 0 0 -2.936-2.936zm.936 7.064a.937.937 0 0 1 -.936.936h-1.064v-6h1.064a.937.937 0 0 1 .936.936z" fill="#f6f8ff"/><path d="m54 38a1 1 0 0 0 .759-1.193l-1.783-8.024a1 1 0 0 0 -.976-.783h-1a1 1 0 0 0 -.976.783l-1.783 8.024a1 1 0 0 0 .759 1.193 1 1 0 0 0 1.193-.759l.276-1.241h2.062l.276 1.241a1 1 0 0 0 1.193.759zm-3.087-4 .587-2.64.587 2.64z" fill="#f6f8ff"/><path d="m47.989 41h-35.978a2 2 0 0 0 -1.927 1.454l.09.9a6.89 6.89 0 0 0 13.643.445l.046-.277h24.126a2.008 2.008 0 0 0 1.865-1.261 2.008 2.008 0 0 0 -1.865-1.261z" fill="#ffd55d"/><path d="m60 1h-56a3 3 0 0 0 -3 3v4a3 3 0 0 0 3 3h2.323l.372.932a3.71 3.71 0 0 1 -1.295 4.408 10.537 10.537 0 0 0 -4.4 8.56v31.1a7.008 7.008 0 0 0 7 7h48a7.008 7.008 0 0 0 7-7v-31.1a10.537 10.537 0 0 0 -4.4-8.557 3.71 3.71 0 0 1 -1.291-4.408l.368-.935h2.323a3 3 0 0 0 3-3v-4a3 3 0 0 0 -3-3zm-9 8v-6h4v6zm-42 0v-6h4v6zm6-6h4v6h-4zm6 0h4v6h-4zm6 0h4v6h-4zm6 0h4v6h-4zm6 0h4v6h-4zm6 0h4v6h-4zm-42 5v-4a1 1 0 0 1 1-1h3v6h-3a1 1 0 0 1 -1-1zm58 18v28h-58v-28zm-5 35h-48a5.006 5.006 0 0 1 -5-5h58a5.006 5.006 0 0 1 -5 5zm1.434-43.033a8.537 8.537 0 0 1 3.512 6.033h-57.892a8.537 8.537 0 0 1 3.512-6.033 5.706 5.706 0 0 0 1.987-6.778l-.076-.189h47.046l-.076.189a5.706 5.706 0 0 0 1.987 6.778zm3.566-9.967a1 1 0 0 1 -1 1h-3v-6h3a1 1 0 0 1 1 1z"/><path d="m9.015 43.3.164 1.634a7.892 7.892 0 0 0 15.51 1.066h23.3a3 3 0 1 0 0-6h-23.989a4.007 4.007 0 0 0 -3.1-3.9 4 4 0 0 0 -7.8 0 3.965 3.965 0 0 0 -3.03 4.623 2.789 2.789 0 0 0 -1.055 2.577zm38.974-1.3a1 1 0 1 1 0 2h-24.126a1 1 0 0 0 -.987.835l-.046.277a5.89 5.89 0 0 1 -11.661-.379l-.164-1.633a.982.982 0 0 1 .253-.766 1 1 0 0 1 .753-.334zm-35.989-2a2 2 0 0 1 2-2 1 1 0 0 0 1-1 2 2 0 0 1 4 0 1 1 0 0 0 1 1 2 2 0 0 1 2 2z"/><path d="m31 36a1 1 0 0 1 -1-1h-2a3 3 0 1 0 3-3 1 1 0 1 1 1-1h2a3 3 0 1 0 -3 3 1 1 0 0 1 0 2z"/><path d="m38 38a3 3 0 0 0 3-3v-4a3 3 0 0 0 -6 0v4a3 3 0 0 0 3 3zm-1-7a1 1 0 0 1 2 0v4a1 1 0 0 1 -2 0z"/><path d="m43 38h2.064a2.939 2.939 0 0 0 2.936-2.937v-4.127a2.939 2.939 0 0 0 -2.936-2.936h-2.064a1 1 0 0 0 -1 1v8a1 1 0 0 0 1 1zm1-8h1.064a.937.937 0 0 1 .936.936v4.127a.937.937 0 0 1 -.936.937h-1.064z"/><path d="m50.469 36h2.062l.493 2.217 1.952-.434-2-9a1 1 0 0 0 -.976-.783h-1a1 1 0 0 0 -.976.783l-2 9 1.952.434zm1.031-4.64.587 2.64h-1.174z"/></svg>