<svg enable-background="new 0 0 512 512" height="512" viewBox="0 0 512 512" width="512" xmlns="http://www.w3.org/2000/svg"><g id="_x33_7_Banana"><g><g><path d="m466.538 226.334c-22.049 96.041-133.12 214.38-255.367 241.686-41.007 9.195-96.372 10.422-134.937-6.359-23.811-9.167-42.502-22.434-54.806-37.492-4.809-5.918-6.049-11.741-5.258-16.378 1.922-11.548 14.116-14.301 25.462-17.976 45.227-14.727 83.847-11.754 137.277-35.509h.027c6.744-3 13.708-6.414 20.976-10.378h.055c4.074-2.202 8.203-4.569 12.47-7.129 121.256-72.699 148.232-182.862 152.444-241.108 0-.028 0-.028 0-.028.746-10.386 1.113-24.806-.33-35.124.027-.028 0-.028 0-.028-.303-2.285-.661-3.688-.964-4.046-5.148-14.865-18.883-26.288-19.131-43.19v-.028c1.899-2.313 5.368-5.395 9.139-7.68 3.111-1.927 7.432-1.459 10.268 1.349l.165.165c3.771 3.771 8.148 8.808 12.69 13.983v.028c5.946 6.744 12.112 13.681 17.342 18.03 12.956 11.391 18.68 10.672 33.665 19.407 30.913 24.94 44.263 57.091 46.493 93.536 1.403 23.289-1.707 48.284-7.68 74.269z" fill="#e5ca0a"/></g><g><g><path d="m365.927 309.245c-44.098 56.265-112.998 92.628-193.982 105.374-3.386.55-6.827 1.046-10.267 1.486h-.028c-18.223 2.395-36.996 3.606-56.21 3.606-29.013 0-58.99-2.78-89.462-8.451-.083-1.183 0-2.339.193-3.468.193-1.157.495-2.257.936-3.331 30.555 5.698 60.614 8.451 89.628 8.368h.028c33.665-.11 65.954-3.991 96.096-11.451 65.349-16.159 120.568-49.053 157.674-96.399 28.821-36.776 44.318-79.333 46.383-125.302 0 0 0 0 0-.028.441-9.607.275-19.379-.468-29.288 0-.028 0-.028 0-.055-2.312-30.335-10.157-61.88-23.591-93.977-1.431-3.386-2.918-6.799-4.459-10.212 0-.028-.028-.055-.028-.083-.743-1.706.028-3.689 1.734-4.459 1.734-.798 3.771-.028 4.542 1.706 1.486 3.248 2.89 6.497 4.267 9.745 5.56 13.185 10.185 26.261 13.901 39.226 2.698 9.442 4.9 18.8 6.634 28.105v.028c1.927 10.267 3.248 20.425 3.964 30.472v.028c4.21 58.52-11.728 112.748-47.485 158.36z" fill="#f9e109"/></g></g><g><path d="m280.511 492.739c-85.113 33.968-158.307 18.828-194.312-13.158-4.962-4.443-8.473-10.37-7.707-17.039.773-5.406 3.964-9.584 8.451-12.36 56.259-34.083 104.312-28.65 173.97-87.206 87.731-73.845 128.945-181.526 109.006-285.454v-.028c-1.356-6.927-2.635-12.751-5.368-16.956v-.028c-7.267-12.277-20.453-21.058-24.169-35.29-1.376-5.202-.743-6.441 1.459-10.377 2.861-5.074 7.413-10.017 13.433-13.681 2.945-1.817 7.13-1.597 10.24 1.376l.165.165c8.557 8.557 18.644 21.622 27.472 29.757 4.298 4.294 10.977 9.276 18.03 12.8 31.505 12.894 51.717 32.15 64.853 55.962 66.53 121.436-41.466 330.07-195.523 391.517z" fill="#f9e109"/></g><g><g><path d="m428.138 262.752c-4.68 16.626-11.369 32.868-20.067 48.612-53.265 96.344-172.126 155.445-312.76 156.491h-.028c-1.294.028-2.56.028-3.854.028-4.212 0-8.451-.055-12.69-.165-.358-1.761-.441-3.495-.248-5.175.083-.578.193-1.157.33-1.707 145.259 3.606 269.103-54.916 323.221-152.802 5.175-9.359 9.634-18.938 13.295-28.655 18.553-48.557 18.718-101.161.826-154.206v-.028c-1.954-5.808-4.129-11.644-6.524-17.452 0-.028 0-.028 0-.028-2.092-5.12-4.377-10.239-6.799-15.332-.028-.028-.028-.055-.028-.083-5.753-12.002-12.387-23.976-19.957-35.895v-.028c-1.404-2.257-2.863-4.487-4.349-6.716-.716-1.101-.743-2.477-.138-3.579 0 0 0 0 0-.028.275-.44.633-.853 1.101-1.183 1.597-1.046 3.716-.606 4.762.963 1.597 2.423 3.166 4.817 4.68 7.24 7.515 11.892 14.149 23.838 19.874 35.785v.028c2.808 5.863 5.395 11.699 7.763 17.562 21.637 53.265 25.601 106.53 11.59 156.353z" fill="#e5ca0a"/></g></g><g><path d="m395.717 34.735c-3.156 2.788-6.943 6.207-10.731 9.678-1.21 1.105-2.419 2.209-3.629 3.314-6.365 5.839-12.203 11.309-14.623 13.413-.631.632-1.052.947-1.157 1.052-.052 0-.052 0-.052 0-7.019-13.169-21.255-22.111-25.144-36.979-1.275-4.847-.975-6.012 1.473-10.363 1.262-2.157 2.682-4.155 4.261-5.944 2.204-2.48 4.792-5.079 9.153-7.732 3.1-1.915 7.434-1.456 10.257 1.368.052.053.105.105.158.158 8.701 8.703 20.824 24.36 30.034 32.035z" fill="#878787"/></g></g></g></svg>