<svg id="Layer_1" height="512" viewBox="0 0 512 512" width="512" xmlns="http://www.w3.org/2000/svg" data-name="Layer 1"><path d="m158.56 419.76c-3.59-12.97-8.19-27.82-14.1-44.33-6.29-17.6-14.07-37.08-23.66-58.2q-1.47-3.24-3-6.53c-7.73-16.64-14.62-33.28-20.75-49.67-6.6-17.65-12.33-35.01-17.3-51.75-5.85-19.73-10.65-38.6-14.58-56.08-14.48-64.56-17.08-110.21-17.08-110.21a364.365 364.365 0 0 0 -24.39 71.13 312.208 312.208 0 0 0 -6.79 44.34 291.009 291.009 0 0 0 .99 56.23 299.43 299.43 0 0 0 15.91 67.48 342.2 342.2 0 0 0 24.93 53.76 423.493 423.493 0 0 0 44.21 62.86l.02.02c23.4 27.81 44.03 46.06 50.37 53.63 10.37 12.37 15.25 21.64 17.52 27.95 0 0-1.64-22.04-12.3-60.63z" fill="#88ad40"/><path d="m126.97 398.81-.02-.02a423.493 423.493 0 0 1 -44.21-62.86 342.2 342.2 0 0 1 -24.93-53.76 299.43 299.43 0 0 1 -15.91-67.48 291.009 291.009 0 0 1 -.99-56.23 312.208 312.208 0 0 1 6.79-44.34q2.518-11.108 5.947-22.523c-4.502-30.097-5.557-48.607-5.557-48.607a364.365 364.365 0 0 0 -24.39 71.13 312.208 312.208 0 0 0 -6.79 44.34 291.009 291.009 0 0 0 .99 56.23 299.43 299.43 0 0 0 15.91 67.48 342.2 342.2 0 0 0 24.93 53.76 423.493 423.493 0 0 0 44.21 62.86l.02.02c23.4 27.81 44.03 46.06 50.37 53.63 10.37 12.37 15.25 21.64 17.52 27.95 0 0-1.136-15.211-7.624-42.463-9.522-9.527-22.408-22.647-36.266-39.117z" fill="#738e32"/><path d="m424.008 136.26s.011 0 0 .01a309.646 309.646 0 0 0 -38.939 22.31 1.621 1.621 0 0 1 -.01.215 270.565 270.565 0 0 0 -22.789 17.205h-.27l-34.115 156.25c8.19-16.38 16.938-32.1 25.958-47.08 9.72-16.14 19.763-31.41 29.8-45.71 12-17.09 24-32.79 35.452-46.9 41.6-51.28 75.811-81.58 75.811-81.58a364.862 364.862 0 0 0 -70.898 25.28z" fill="#7aaf35"/><path d="m385.07 158.58a309.731 309.731 0 0 1 38.94-22.31c-.27.87-11.72 37.09-4.91 56.29-11.45 14.11-23.45 29.81-35.45 46.9-13.33-36.01 1.1-79.92 1.41-80.86a.031.031 0 0 0 .01-.02z" fill="#709b2c"/><path d="m351.8 262.48 2.05 22.69c-9.02 14.98-17.76 30.7-25.95 47.08q3.75-8.445 7.02-16.75a405.555 405.555 0 0 0 16.88-53.02z" fill="#709b2c"/><path d="m494.91 110.98s-34.21 30.3-75.81 81.58c-11.45 14.11-23.45 29.81-35.45 46.9-10.04 14.3-20.08 29.57-29.8 45.71-9.02 14.98-17.76 30.7-25.95 47.08-.95 2.14-1.93 4.29-2.92 6.45a481.826 481.826 0 0 1 -23.6 44.6q-3.165 5.295-6.53 10.64-11.835 18.81-26.28 38.13-15.75 20.985-34.83 42.47a2.259 2.259 0 0 1 -2.47.66 22 22 0 0 1 -2.36 4.25 2.336 2.336 0 0 0 2.96 3.36c37.92-17.6 70.44-36.8 98.33-56.9a.031.031 0 0 1 .02-.01 467.437 467.437 0 0 0 57.74-48.93 404.075 404.075 0 0 0 38.24-44.18 366.784 366.784 0 0 0 35.32-57.77 346.191 346.191 0 0 0 20.42-51.84 331.457 331.457 0 0 0 9.96-42.72c6.89-41.85 3.01-69.48 3.01-69.48z" fill="#6a8e32"/><path d="m360.03 137.08a333.336 333.336 0 0 0 -7.84-43.15c-10.31-41.14-24.86-64.97-24.86-64.97s-19.21 41.5-36.82 105.28c-4.77 17.27-9.42 36.17-13.55 56.33-3.5 17.11-6.62 35.12-9.11 53.8-2.3 17.35-4.07 35.27-5.08 53.58-.13 2.42-.28 4.81-.43 7.18-1.48 23.14-3.79 43.99-6.52 62.47-2.57 17.35-5.5 32.62-8.44 45.75-8.77 39.06-17.7 59.28-17.7 59.28a2.313 2.313 0 0 0 1.59 2.57 2.259 2.259 0 0 0 2.47-.66q19.125-21.465 34.83-42.47 14.475-19.305 26.28-38.13 3.375-5.34 6.53-10.64a481.826 481.826 0 0 0 23.6-44.6c.99-2.16 1.97-4.31 2.92-6.45 2.5-5.63 4.94-11.22 7.12-16.75a386.343 386.343 0 0 0 16.98-53.02v-.01a12.617 12.617 0 0 1 .54-2.68 364.719 364.719 0 0 0 9.39-67.03c.28-5.85.385-11.57.355-17.15a342.149 342.149 0 0 0 -2.255-38.53z" fill="#43591e"/><path d="m272.31 80.27a309.911 309.911 0 0 0 -26.87 35.94 291.417 291.417 0 0 0 -25.62 50.07 299.938 299.938 0 0 0 -17.74 67.03 344.265 344.265 0 0 0 -3.33 59.1 425.225 425.225 0 0 0 9.42 76.3c7.57 35.55 17.18 61.36 19.22 71.02 3.32 15.79 3.26 26.26 2.29 32.9 0 0 8.93-20.22 17.7-59.28 2.94-13.13 5.87-28.4 8.44-45.75 2.73-18.48 5.04-39.33 6.52-62.47.15-2.37.3-4.76.43-7.18 1.01-18.31 2.78-36.23 5.08-53.58 2.49-18.68 5.61-36.69 9.11-53.8 4.13-20.16 8.78-39.06 13.55-56.33 17.61-63.78 36.82-105.28 36.82-105.28a364.018 364.018 0 0 0 -55.02 51.31z" fill="#689b2d"/><path d="m190 292.33v-.01c-3-20.54-6.055-39.67-10.775-57.43a364.165 364.165 0 0 0 -23.225-63.59v-.01c-9-18.15-18-34.19-28-48.24v-.01c-9-13.19-19-24.63-27-34.4v-.01c-29-31.45-52.725-45.64-52.725-45.64s2.508 45.65 16.988 110.21c3.93 17.48 8.683 36.35 14.533 56.08 4.97 16.74 10.677 34.1 17.277 51.75 6.13 16.39 13.009 33.03 20.738 49.67q1.531 3.285 2.995 6.53c9.59 21.12 17.367 40.6 23.657 58.2 5.91 16.51 10.508 31.36 14.1 44.33 10.66 38.59 12.3 60.63 12.3 60.63a2.32 2.32 0 0 0 4.449-.22 627.621 627.621 0 0 0 16.688-112.28v-.01a614.413 614.413 0 0 0 -2-75.55z" fill="#43591e"/><path d="m491.9 180.46a331.457 331.457 0 0 1 -9.96 42.72s-60.68 25.58-98.29 16.28c12-17.09 24-32.79 35.45-46.9.05.15.1.3.16.45 21.13 12.89 72.01-12.23 72.64-12.55z" fill="#617c2c"/><path d="m461.52 275.02a366.784 366.784 0 0 1 -35.32 57.77s-59.4 19.23-101.22 5.91c.99-2.16 1.97-4.31 2.92-6.45 8.19-16.38 16.93-32.1 25.95-47.08 44.29 16.78 107.67-10.15 107.67-10.15z" fill="#617c2c"/><path d="m387.96 376.97a467.437 467.437 0 0 1 -57.74 48.93.031.031 0 0 0 -.02.01c-.99.33-41.67 13.77-61.63 6.16q14.475-19.305 26.28-38.13c37.44 6.37 93.11-16.97 93.11-16.97z" fill="#617c2c"/><g fill="#56682b"><path d="m361.88 192.76a365.013 365.013 0 0 1 -9.44 67.03c-.87.77-46.84 41.01-90.1 45.34.15-2.37.3-4.76.43-7.18 1.01-18.31 2.78-36.23 5.08-53.58 46.92-2.15 93.25-50.78 94.03-51.61z"/><path d="m352.19 93.93a333.336 333.336 0 0 1 7.84 43.15s-44.86 47.11-83.07 53.49c4.13-20.16 8.78-39.06 13.55-56.33 24.41 3.43 60.94-39.44 61.68-40.31z"/><path d="m334.92 315.5q-3.27 8.295-7.02 16.75c-.95 2.14-1.93 4.29-2.92 6.45a481.826 481.826 0 0 1 -23.6 44.6h-.01s-32.38 29.09-53.99 30.05c2.94-13.13 5.87-28.4 8.44-45.75 36.89-9.01 79.1-52.1 79.1-52.1z"/><path d="m189.72 292.33a465.4 465.4 0 0 1 2.34 75.55v.01c-.31.84-15.06 40.99-33.5 51.87-3.59-12.97-8.19-27.82-14.1-44.33 27.87-24.88 44.74-81.34 45.26-83.1z"/></g><path d="m170.86 480.39c-2.27-6.31-7.15-15.58-17.52-27.95-6.34-7.57-26.97-25.82-50.37-53.63.93.66 32.19 22.99 55.59 20.95 10.66 38.59 12.3 60.63 12.3 60.63z" fill="#689b2d"/><path d="m178.95 234.89c-.33.89-21.95 58.16-58.15 82.34q-1.47-3.24-3-6.53c-7.73-16.64-14.62-33.28-20.75-49.67 40.44-23.97 58.41-88.76 58.68-89.73a366.614 366.614 0 0 1 23.22 63.59z" fill="#56682b"/><path d="m127.87 123.04v.01c-.27.95-17.64 62.82-48.12 86.23-5.85-19.73-10.65-38.6-14.58-56.08h.01c23.21-8.46 35.26-63.69 35.45-64.56a335.326 335.326 0 0 1 27.24 34.4z" fill="#56682b"/><path d="m120.8 317.23c9.59 21.12 17.37 40.6 23.66 58.2-38.91-3.8-81.68-36.37-85.72-39.5a342.2 342.2 0 0 1 -24.93-53.76s38.86 36.76 86.99 35.06z" fill="#689b2d"/><path d="m79.75 209.28c4.97 16.74 10.7 34.1 17.3 51.75-45.07-6.81-78.44-45.51-79.15-46.34a291.009 291.009 0 0 1 -.99-56.23h.01s25.93 38.66 62.83 50.82z" fill="#689b2d"/><path d="m48.09 42.99s2.6 45.65 17.08 110.21c-19.63-6.39-41.47-39.08-41.47-39.08a364.365 364.365 0 0 1 24.39-71.13z" fill="#689b2d"/><path d="m290.51 134.24c-4.77 17.27-9.42 36.17-13.55 56.33-26.84-28.06-31.52-74.36-31.52-74.36a309.911 309.911 0 0 1 26.87-35.94s3.88 39.12 18.2 53.97z" fill="#88ad40"/><path d="m267.85 244.37c-2.3 17.35-4.07 35.27-5.08 53.58-.13 2.42-.28 4.81-.43 7.18-43.27-21.12-60.25-71.82-60.25-71.82h-.01a299.938 299.938 0 0 1 17.74-67.03s11.07 50.61 48.03 78.09z" fill="#88ad40"/><path d="m255.81 367.6h.01c-2.57 17.35-5.5 32.62-8.44 45.75-21.94-9.34-39.2-44.64-39.2-44.64h-.01a425.225 425.225 0 0 1 -9.42-76.3c1.92 4.29 24.38 53.47 57.06 75.19z" fill="#88ad40"/><path d="m102.97 398.81c23.4 27.81 44.03 46.06 50.37 53.63 10.37 12.37 15.25 21.64 17.52 27.95 0 0-1.136-15.211-7.624-42.463-5.337-5.342-11.733-11.815-18.762-19.369-20.206-4.544-40.753-19.215-41.504-19.748z" fill="#557c22"/><path d="m66.725 304.327a149.539 149.539 0 0 1 -32.915-22.157 342.2 342.2 0 0 0 24.93 53.76 257.924 257.924 0 0 0 39.224 24.517c-5.2-7.743-10.321-15.914-15.224-24.517a353.606 353.606 0 0 1 -16.015-31.603z" fill="#557c22"/><path d="m40.036 184.4a159.532 159.532 0 0 1 -23.116-26.4h-.01a292.743 292.743 0 0 0 .99 56.46 160.131 160.131 0 0 0 27.879 24.628c-1.609-7.978-2.922-16.2-3.879-24.571a290.612 290.612 0 0 1 -1.864-30.117z" fill="#557c22"/><path d="m53.647 91.6c-4.502-30.1-5.557-48.61-5.557-48.61a364.365 364.365 0 0 0 -24.39 71.13 177.929 177.929 0 0 0 19.561 23.743q1.729-11.69 4.439-23.743 2.518-11.107 5.947-22.52z" fill="#557c22"/><path d="m143.108 141.251c-41.331-69.551-92.974-100.538-93.491-100.843a3 3 0 0 0 -4.252 1.335c-41.082 89.692-43.1 178-5.988 262.46 29.959 68.191 77.694 115.84 100.635 138.738 4.987 4.979 8.926 8.912 11.032 11.423 10.526 12.562 15.054 21.64 17 27.044a5.32 5.32 0 0 0 5.03 3.544c.1 0 .2 0 .3-.009a5.293 5.293 0 0 0 4.89-4.063c17.617-72.638 21.85-140.974 12.583-203.108-7.432-49.787-23.491-95.719-47.739-136.521zm41.8 137.406q.99 6.641 1.764 13.382c-1.793 5.855-17 53.751-40.969 78.058-5.749-15.747-12.719-33.117-21.145-51.829 14.755-10.495 28.748-27.245 41.616-49.865a267.659 267.659 0 0 0 12.081-23.99q4.029 16.787 6.651 34.244zm-9.1-43.929c-2.807 7.115-22.589 55.09-53.778 77.977-.5-1.088-1-2.174-1.506-3.271-7.33-15.773-13.891-31.576-19.777-47.181 16.518-10.545 31.185-28.622 43.615-53.821a238.779 238.779 0 0 0 11.9-28.783 365.136 365.136 0 0 1 19.538 55.079zm-37.851-90.412q7.886 13.268 14.567 27.275c-2.477 8.309-19.564 62.052-53.924 84.909-5.776-15.708-10.866-31.181-15.346-46.184 24.8-20.42 40.5-64.164 45.656-80.362q4.575 6.887 9.041 14.362zm-13.368-20.734c-2.6 8.748-18.09 57.928-43.188 80.42-4.977-17.164-9.16-33.65-12.668-49.1 9.545-4.815 18.2-16.921 25.743-36.088a213.784 213.784 0 0 0 7.709-23.865 331.5 331.5 0 0 1 22.398 28.633zm-27.249-34.048a210.942 210.942 0 0 1 -8.482 27.158c-6.52 16.537-13.89 27.529-21.49 32.13-10.68-48.6-14.612-85.969-15.818-99.982 8.255 5.681 25.858 18.919 45.79 40.694zm-51.247-34.547a829.44 829.44 0 0 0 14.99 93.161c-15.1-8.166-30.654-29.621-34.15-34.626a355.366 355.366 0 0 1 19.16-58.535zm-20.879 66.413c7.1 9.535 22.513 28.321 37.5 34.1 3.481 15.386 7.625 31.8 12.553 48.9-29.721-12.267-51.45-41.39-55.257-46.74a306.075 306.075 0 0 1 5.204-36.26zm-5.821 45.439c9.169 11.632 30.316 35.1 58 44.778 4.407 14.79 9.4 30.034 15.052 45.514-38.194-7.977-67.214-38.775-71.658-43.71a287.49 287.49 0 0 1 -1.394-46.578zm17.007 113.639a298.144 298.144 0 0 1 -14.34-57.036c11.8 11.628 38.728 34.482 72.813 40.253 6 15.961 12.7 32.131 20.2 48.268.359.774.708 1.538 1.063 2.307-41.269-.686-75.125-29.67-79.736-33.792zm8.47 21.312c-1.467-3.34-2.849-6.689-4.192-10.042 13.922 10.539 42.7 28.542 76.835 28.542.451 0 .907-.018 1.361-.024 8.4 18.62 15.346 35.9 21.071 51.559-35.38-5.555-73.136-33.513-78.892-37.908a350.072 350.072 0 0 1 -16.183-32.127zm23.792 44.928c4.393 2.952 9.81 6.4 15.96 9.944 21.32 12.272 40.686 19.5 57.614 21.528 5.135 14.477 9.2 27.449 12.39 38.68-20.686-.468-46.477-18.09-49.595-20.276a433.037 433.037 0 0 1 -36.369-49.876zm86.98 103.793c-2.277-2.717-6.1-6.533-11.392-11.816-6.867-6.854-15.988-15.966-26.178-27.184 10.64 5.6 24.7 11.382 37.394 11.382.278 0 .554-.012.831-.018 1.175 4.314 2.216 8.342 3.129 12.046 2.876 11.674 4.8 21.333 6.081 28.719a143.154 143.154 0 0 0 -9.865-13.129zm17.725 25a363.727 363.727 0 0 0 -8.067-41.821c-.951-3.866-2.041-8.081-3.274-12.6 10.753-7.514 19.963-23.533 25.876-35.867a607.045 607.045 0 0 1 -14.535 90.29zm15.691-108.166c-1.622 4.292-13.785 35.5-28.756 47.549-3.2-11.24-7.261-24.183-12.372-38.6 11.523-10.857 22.46-27.89 32.527-50.705 3.144-7.124 5.7-13.7 7.65-19.044a472.837 472.837 0 0 1 .951 60.802z" fill="#284268"/><path d="m496.59 108.5a3.007 3.007 0 0 0 -2.4-.425c-49.779 12.36-93.125 33-128.987 61.353q-.091-4.56-.3-9.112c-3.719-80.8-34.7-132.4-35.012-132.918a3 3 0 0 0 -4.38-.822c-78.491 59.846-121.856 136.824-128.886 228.794-5.676 74.251 14.009 138.728 23.469 169.713 2.056 6.736 3.681 12.058 4.356 15.264 3.374 16.028 3.094 26.167 2.265 31.849a5.322 5.322 0 0 0 .862 3.759c-.148.26-.283.467-.462.738-.2.3-.432.659-.755 1.18a5.331 5.331 0 0 0 6.778 7.659c67.854-31.5 124-70.774 166.88-116.731 34.357-36.824 60.316-77.992 77.158-122.358 28.707-75.628 20.79-135.282 20.706-135.876a3 3 0 0 0 -1.292-2.067zm-70.11 29.966a356.754 356.754 0 0 1 57.678-21.525 826.064 826.064 0 0 0 -63.58 69.226c-2.778-16.831 4.152-41.811 5.902-47.703zm-38.888 22.085a307.974 307.974 0 0 1 31.647-18.514c-3.011 11.4-8.025 34.727-3.461 50.019-10.082 12.474-20.573 26.15-31.1 40.892-8.848-30.831.98-66.033 2.914-72.399zm-22.33 16.511q7.1-5.807 14.627-11.183c-3.62 14.532-9.188 45.646.443 73.212-8.173 11.667-16.332 23.963-24.305 36.827l-1.2-13.309a366.936 366.936 0 0 0 10.435-85.549zm-114.054 232.806c2.466-11.423 4.98-24.75 7.259-39.872 15.28-4.166 32.954-14.058 52.583-29.463 6.128-4.809 11.483-9.408 15.718-13.209a473.308 473.308 0 0 1 -27.792 54.094c-3.44 3.015-28.876 24.853-47.768 28.45zm38.329-13.213a607.819 607.819 0 0 1 -55.344 72.838 363.965 363.965 0 0 0 12.576-40.685c.982-3.859 2-8.091 3.046-12.663 13.026-1.578 28.696-11.384 39.722-19.49zm-30.118-33.179c2.343-16.6 4.372-35.2 5.748-55.671 17.964-2.327 38.2-10.535 60.21-24.451a268.005 268.005 0 0 0 21.958-15.492q-4.35 16.7-10.255 33.339-2.253 6.325-4.745 12.636c-4.33 4.317-40.289 39.446-72.916 49.639zm90.913-83.9.444 4.935q-2.025 3.369-4.027 6.789 1.887-5.86 3.583-11.726zm-.6-21.414c-5.827 4.959-45.877 38-84.18 43.545.071-1.194.144-2.384.211-3.59.96-17.363 2.612-34.392 4.768-50.929 19.541-1.544 41-10.605 63.836-27a239.337 239.337 0 0 0 24.056-19.808 365.013 365.013 0 0 1 -8.69 57.78zm9.177-97.571c.473 10.275.457 20.585.01 30.913-6.092 6.165-46.513 45.57-87.569 49.6 2.3-16.575 5.1-32.619 8.208-47.963 31.5-6.366 65.959-37.594 78.136-49.466.53 5.481.949 11.113 1.216 16.914zm-2.032-24.577c-6.416 6.5-43.243 42.619-75.984 50.677 3.69-17.481 7.762-33.991 11.94-49.267.183 0 .363.018.548.018 10.6 0 23.749-6.637 39.166-19.775a213.988 213.988 0 0 0 18.043-17.439 331.048 331.048 0 0 1 6.288 35.784zm-29.248-100.271c4.61 8.893 13.911 28.849 21.246 57.436-10.211 11.747-36.116 37.174-54.373 38.222 13.465-47.901 27.598-82.729 33.127-95.658zm-7.714 2.865a830.171 830.171 0 0 0 -30.643 89.253c-9.478-14.3-13.1-40.542-13.83-46.6a356.073 356.073 0 0 1 44.473-42.653zm-49.7 48.8c1.777 11.751 6.53 35.568 17.038 47.706-4.175 15.218-8.251 31.659-11.955 49.068-20.438-24.765-25.9-60.663-26.748-67.222a306.36 306.36 0 0 1 21.665-29.553zm-26.536 37.362c2.616 14.581 10.217 45.244 30.086 66.78-3.075 15.122-5.85 30.917-8.149 47.233-29.917-24.953-41.031-65.731-42.65-72.251a287.667 287.667 0 0 1 20.713-41.762zm-24.3 51.2c4.94 15.811 17.933 48.649 45.3 69.752-2.219 16.9-3.918 34.307-4.9 52.062-.047.855-.1 1.7-.149 2.545-36.086-19.97-52.317-61.455-54.451-67.282a298.28 298.28 0 0 1 14.198-57.078zm-16.769 79.858c.279-3.638.636-7.244 1.031-10.834 7.421 16.054 24.694 46.031 55.574 61.918-1.357 20.373-3.364 38.883-5.686 55.387-28.6-21.52-48.754-63.925-51.768-70.515a350.016 350.016 0 0 1 .847-35.957zm-.159 50.882c9.032 17.021 26.8 46.05 50.1 62.3-2.286 15.183-4.81 28.534-7.28 39.942-18.034-10.114-32.5-37.8-34.218-41.2a432.363 432.363 0 0 1 -8.604-61.043zm27.872 132.4c-.729-3.466-2.306-8.631-4.488-15.779-2.833-9.279-6.593-21.612-10.3-36.307 6.9 10.16 16.87 22.174 28.386 28.009-1 4.356-1.972 8.4-2.91 12.093-2.964 11.67-5.816 21.111-8.169 28.232a142.148 142.148 0 0 0 -2.521-16.248zm2.354 40.018c.157-.266.318-.561.506-.935a5.322 5.322 0 0 0 2.8-1.655q18.06-20.263 33.668-40.944a51.751 51.751 0 0 0 14.509 1.8c10.083 0 21.076-1.914 29.9-3.942a609.931 609.931 0 0 1 -81.385 45.676zm96.094-55.911c-4.378 1.406-36.464 11.348-55.253 7.194q12.192-16.5 22.805-33.227a90.852 90.852 0 0 0 12.786.868c23.948 0 50.685-7.786 66.414-13.214a474.117 474.117 0 0 1 -46.754 38.379zm66.861-58.51q-4.588 4.918-9.392 9.729c-5.618 2.275-52.428 20.683-86.412 17.151a493.175 493.175 0 0 0 26.772-49.287 119.719 119.719 0 0 0 32.8 4.129 210.026 210.026 0 0 0 32.342-2.721c10.918-1.708 20.236-3.881 26.571-5.541q-10.643 13.608-22.683 26.54zm28.726-34.486c-7.376 2.243-57.811 16.754-95.22 6.571.484-1.067.956-2.136 1.43-3.2l.013.007c7.771-15.529 16.054-30.479 24.612-44.78a99.849 99.849 0 0 0 32.333 4.9 177.556 177.556 0 0 0 37.406-4.395 245.191 245.191 0 0 0 30.386-8.707 365.484 365.484 0 0 1 -30.962 49.604zm47.209-85.907q-5.475 14.424-12.278 28.372c-8.125 3.248-61.554 23.475-100.924 10.879 8.71-14.281 17.672-27.881 26.653-40.716a84.317 84.317 0 0 0 17.424 1.667c12.88 0 28.01-2.272 45.224-6.806a306.233 306.233 0 0 0 29.52-9.43c-1.699 5.25-3.556 10.594-5.621 16.034zm7.908-23.367c-8.55 3.42-57.352 22.08-90.653 16.511 10.463-14.7 20.9-28.341 30.933-40.788a36.077 36.077 0 0 0 15.464 2.974c18.942 0 42.339-9.4 52.708-14.018a331.128 331.128 0 0 1 -8.454 35.321zm9.683-42.494c-7.866 3.695-46.445 20.949-65.49 13.4 31.576-38.6 58.567-64.928 68.821-74.553.694 9.974 1.302 31.986-3.333 61.153z" fill="#284268"/></svg>