<svg id="Layer_1" enable-background="new 0 0 512 512" height="512" viewBox="0 0 512 512" width="512" xmlns="http://www.w3.org/2000/svg"><g id="_x33_9_Beans"><g><g><path d="m354.3 161.7c-79.9 57.7-181 57.7-260.9 0-25.7-18.6-32.3-56.1-9.7-83.9 17.9-22 49.4-28.5 73.8-14 10.3 6.1 21 10.7 31.9 13.8 22.7 6.4 46.3 6.4 68.9 0 11-3.1 21.7-7.7 32-13.8 22.9-13.6 54.5-9.7 74.5 14.9 20.8 25.6 16.3 63.7-10.5 83z" fill="#ffce29"/><g opacity=".4"><path d="m86.1 121.3c-1.6-12.4 2.1-24.8 10.4-35.1 2.8-3.4 7.7-3.9 11.2-1.2 3.4 2.8 3.9 7.7 1.2 11.2-5.6 6.9-8.1 15.1-7 23.1.6 4.3-2.5 8.3-6.8 8.9-4.4.5-8.4-2.5-9-6.9z" fill="#fff"/></g><path d="m354.3 161.7c-45.9 33.1-98.8 47.2-150.6 42.3 38.5-3.6 76.3-17.7 110.4-42.3 26.7-19.3 31.3-57.4 10.5-83-7.3-9-16.3-15.3-25.8-18.9 21.8-8.3 48.5-2.7 66.1 18.9 20.7 25.6 16.2 63.7-10.6 83z" opacity=".08"/><path d="m258 101.7c-20.9 15.1-47.3 15.1-68.2 0-6.7-4.9-8.5-14.6-2.5-21.9.6-.8 1.4-1.5 2.2-2.2 22.7 6.4 46.3 6.4 68.9 0 .8.7 1.6 1.5 2.4 2.4 5.3 6.7 4.2 16.7-2.8 21.7z" fill="#f2b816"/></g><g><path d="m507.9 204.8c-36.8 91.5-122.3 145.4-220.7 139.2-31.6-2-57.3-30.2-53-65.8 3.4-28.2 26.6-50.4 54.9-51.2 11.9-.3 23.4-2.2 34.4-5.4 22.6-6.7 42.6-19.3 58.3-36.8 7.6-8.5 14.3-18.1 19.7-28.7 12.1-23.7 40.9-37.3 71-27.2 31.2 10.7 47.7 45.3 35.4 75.9z" fill="#ffce29"/><g opacity=".4"><path d="m259.5 313.7c-7.9-9.6-11.5-22.1-9.9-35.3.5-4.3 4.4-7.4 8.8-6.9 4.3.5 7.5 4.5 6.9 8.8-1 8.8 1.2 17.1 6.4 23.3 2.8 3.4 2.3 8.4-1.1 11.2-3.3 2.7-8.3 2.3-11.1-1.1z" fill="#fff"/></g><path d="m507.9 204.8c-21.1 52.5-58.4 92.6-104.9 116.1 30.6-23.6 55.1-55.7 70.8-94.6 12.3-30.6-4.2-65.3-35.4-75.8-11-3.7-22-4.3-32-2.2 14-18.6 39.5-28.2 66-19.3 31.3 10.6 47.8 45.2 35.5 75.8z" opacity=".08"/><path d="m394.4 205.5c-9.6 23.9-32 38-57.7 36.4-8.3-.5-15-7.9-13.8-17.2.1-1 .3-2 .7-3 22.6-6.7 42.6-19.3 58.3-36.8 1.1.2 2.2.4 3.3.8 8.1 2.7 12.4 11.8 9.2 19.8z" fill="#f2b816"/></g><g><path d="m192.8 455.5c-97.8-11.8-172.1-80.4-191.7-177-6.3-31.1 14.3-63.1 49.7-68.2 28.1-4 55.6 12.6 63.7 39.8 3.4 11.4 8.2 22.1 14.1 31.8 12.3 20.1 29.7 36.1 50.6 46.7 10.2 5.2 21.2 9.1 32.8 11.6 26 5.5 46.6 29.8 44.7 61.5-1.9 32.8-31.1 57.7-63.9 53.8z" fill="#ffce29"/><g opacity=".4"><path d="m23.2 243.8c7.2-10.2 18.4-16.8 31.5-18.7 4.3-.6 8.3 2.4 9 6.7.6 4.3-2.4 8.4-6.7 9-8.8 1.3-16.2 5.6-20.8 12.2-2.5 3.6-7.5 4.4-11 1.9-3.7-2.5-4.6-7.5-2-11.1z" fill="#fff"/></g><path d="m192.8 455.5c-56.2-6.8-104.6-32.3-139.3-71.1 30.7 23.5 68.1 38.8 109.8 43.8 32.8 3.9 62-21 64-53.9.7-11.6-1.6-22.3-6.2-31.4 21.6 8.7 37.5 30.9 35.7 58.8-2 32.8-31.2 57.7-64 53.8z" opacity=".08"/><path d="m162.7 346.1c-25.6-3.1-45-21-50.1-46.3-1.6-8.1 3.7-16.5 13-17.8 1-.2 2-.2 3.1-.1 12.3 20.1 29.7 36.1 50.6 46.7.1 1.1.2 2.2.1 3.4-.5 8.5-8.2 15.1-16.7 14.1z" fill="#f2b816"/></g></g></g></svg>