<svg id="Layer_1" enable-background="new 0 0 512 512" height="512" viewBox="0 0 512 512" width="512" xmlns="http://www.w3.org/2000/svg"><g><path d="m373.987 143.697c-.207-.943-15.552-27.554-7.467-64.954.411-1.902 1.744-3.477 3.575-4.163 6.202-2.321 21.56-6.354 38.345 2.208 2.852 1.455 3.95 4.952 2.437 7.762-6.013 11.17-19.893 39.534-17.389 59.146h-19.501z" fill="#48943e"/><path d="m138.013 90.121c.207-.943 15.552-27.554 7.467-64.954-.411-1.902-1.744-3.477-3.575-4.163-6.202-2.321-21.56-6.354-38.345 2.208-2.852 1.455-3.95 4.952-2.437 7.762 6.013 11.17 19.893 39.534 17.389 59.146h19.501z" fill="#48943e"/><path d="m421.791 155.578s37.751-22.702 70.406 3.476 34.707 212.634-70.406 212.634h-83.309c-105.113 0-103.06-186.457-70.406-212.634 32.655-26.178 70.406-3.476 70.406-3.476z" fill="#64cc56"/><g><path d="m492.197 159.054c-18.099-14.51-37.761-14.001-51.696-10.667 6.892 1.852 13.952 5.185 20.79 10.667 32.655 26.178 34.707 212.634-70.406 212.634h30.905c105.114 0 103.062-186.456 70.407-212.634z" fill="#5bbd4f"/></g><path d="m380.19 371.688h-.107c-24.058 0-43.561-19.503-43.561-43.561v-162.211c0-24.058 19.503-43.561 43.561-43.561h.107c24.058 0 43.561 19.503 43.561 43.561v162.211c0 24.058-19.503 43.561-43.561 43.561z" fill="#5bbd4f"/><path d="m380.193 122.355h-.112c-5.422 0-10.609.999-15.397 2.809 16.456 6.222 28.162 22.118 28.162 40.754v162.206c0 18.637-11.705 34.532-28.162 40.754 4.788 1.811 9.975 2.809 15.397 2.809h.112c24.057 0 43.558-19.504 43.558-43.564v-162.204c0-24.06-19.502-43.564-43.558-43.564z" fill="#50a645"/><path d="m173.518 102.5s37.751-22.702 70.406 3.476 34.707 212.634-70.406 212.634h-83.309c-105.113 0-103.06-186.457-70.406-212.634s70.406-3.476 70.406-3.476z" fill="#ffd54f"/><g><path d="m243.923 105.976c-18.099-14.51-37.761-14.001-51.696-10.667 6.892 1.852 13.952 5.185 20.79 10.667 32.655 26.178 34.707 212.634-70.406 212.634h30.905c105.114.001 103.062-186.456 70.407-212.634z" fill="#ffca28"/></g><path d="m131.916 318.611h-.107c-24.058 0-43.561-19.503-43.561-43.561v-162.212c0-24.058 19.503-43.561 43.561-43.561h.107c24.058 0 43.561 19.503 43.561 43.561v162.212c0 24.058-19.502 43.561-43.561 43.561z" fill="#ffca28"/><path d="m131.919 69.277h-.112c-5.422 0-10.609.999-15.397 2.809 16.456 6.222 28.162 22.118 28.162 40.754v162.206c0 18.637-11.705 34.532-28.162 40.754 4.788 1.811 9.975 2.809 15.397 2.809h.112c24.057 0 43.558-19.504 43.558-43.564v-162.204c0-24.06-19.501-43.564-43.558-43.564z" fill="#ffb300"/><path d="m247.275 263.212c-.207-.943-15.552-27.554-7.467-64.954.411-1.902 1.744-3.477 3.575-4.163 6.202-2.321 21.56-6.354 38.345 2.208 2.852 1.455 3.95 4.952 2.437 7.762-6.013 11.17-19.893 39.534-17.389 59.146h-19.501z" fill="#48943e"/><path d="m297.654 277.889s37.751-22.702 70.406 3.476 34.707 212.635-70.406 212.635h-83.309c-105.113 0-103.06-186.457-70.406-212.634s70.406-3.476 70.406-3.476h83.309z" fill="#f44336"/><g><path d="m368.06 281.366c-18.099-14.51-37.761-14.001-51.696-10.667 6.892 1.852 13.952 5.185 20.79 10.667 32.655 26.177 34.708 212.634-70.405 212.634h30.905c105.113 0 103.061-186.457 70.406-212.634z" fill="#e53935"/></g><path d="m256.053 494h-.107c-24.058 0-43.561-19.503-43.561-43.561v-162.211c0-24.058 19.503-43.561 43.561-43.561h.107c24.058 0 43.561 19.503 43.561 43.561v162.211c0 24.058-19.503 43.561-43.561 43.561z" fill="#e53935"/><path d="m256.056 244.667h-.112c-5.422 0-10.609.999-15.397 2.809 16.456 6.222 28.162 22.118 28.162 40.754v162.206c0 18.637-11.705 34.532-28.162 40.754 4.788 1.811 9.975 2.809 15.397 2.809h.112c24.057 0 43.558-19.504 43.558-43.564v-162.205c0-24.059-19.502-43.563-43.558-43.563z" fill="#d32f2f"/></g></svg>