<svg id="Layer_1" enable-background="new 0 0 466 466" height="512" viewBox="0 0 466 466" width="512" xmlns="http://www.w3.org/2000/svg"><g><path d="m300.2 230.6c-69.6-10.2-99-25.2-99-25.2l10.8-43.4c-25.2-32.7-17-74.4-17-74.4 80.7 9.5 130.1 57.6 130.1 57.6s27.2 6 28 31.4c.8 25.5 16.8 64.2-52.9 54z" fill="#c4ff85"/><path d="m353.7 184.8c-8 4-17.2 5.2-24.7 2.7-29.9-9.7-48-19.8-48-19.8-46.9-26.1-86-80.1-86-80.1 80.7 9.5 130.1 57.6 130.1 57.6s27.2 6 28 31.4c.1 2.6.4 5.4.6 8.2z" fill="#a9fa58"/><path d="m454.4 259.3c-90.2-54.4-59.7-36-130.2-78.6-7.6-89.9 62.8-149.7 62.8-149.7 78.8 83.3 67.4 228.3 67.4 228.3z" fill="#c4ff85"/><path d="m454.4 259.3-74.2-44.8 6.8-49.4c8.6-86.5 0-134.1 0-134.1 78.8 83.3 67.4 228.3 67.4 228.3z" fill="#a9fa58"/><path d="m249.1 202-61.4 157.4c-55.9 42-100-8.9-100-8.9-58.1 14.8-64.8-58.9-64.8-58.9-48.3-36-4.7-83.5-4.7-83.5-4.2-60.2 61.2-61.4 61.2-61.4 38-43.9 69.3-16.1 78.2-6.3 1.7 1.9 2.6 3.1 2.6 3.1 2.3 0 4.6.1 6.8.3 49.5 4.1 82.1 58.2 82.1 58.2z" fill="#7e57c2"/><g fill="#673ab7"><path d="m206.3 234.5s-34.3-37.7-76.3-10.6-20.3 114 60.6 72z"/><path d="m72.4 217.1c1.7-1.5 1.8-4 .4-5.6-1.5-1.7-4-1.8-5.6-.4-.2.2-3.4 3-7.5 7.7 1.6-10.3 5.7-18.5 12.1-24.4 14.4-13.2 36.4-11.1 36.8-11 2.2.2 4.2-1.3 4.4-3.5s-1.3-4.2-3.5-4.4c-1-.1-25.9-2.7-43 13-10.5 9.6-15.7 23.7-15.6 42-14 21.7-16.9 45.1-2.2 66 .8 1.1 2 1.7 3.3 1.7 3.2 0 5.1-3.6 3.3-6.3-10.6-15.1-11.1-32.2-1.4-50.7 7.4-14.2 18.4-24 18.5-24.1z"/><path d="m94.1 203.2c-.9 2 0 4.4 2 5.3 18.1 8.2 21.7 22.4 21.8 23 .5 2.1 2.6 3.5 4.8 3s3.5-2.6 3-4.8c-.2-.8-4.4-18.7-26.3-28.5-2-.9-4.4 0-5.3 2z"/><path d="m129.5 297.3c-2-.9-4.4.1-5.3 2.1-.4.9-10.5 22.7-47.1 13.1-2.1-.6-4.3.7-4.9 2.9s.7 4.3 2.9 4.9c14.9 3.9 31.4 4.3 44.3-4.2 8.8-5.8 12-13.2 12.1-13.5.9-2.1 0-4.5-2-5.3z"/><path d="m186.2 191c-1.7 15.1-8.6 26.3-8.9 26.7-.8 1.2-2.1 1.9-3.4 1.9-3.1 0-5.1-3.4-3.4-6.1 1-1.6 22.4-35.9-10.5-70 2.3 0 5.5.1 7.7.3 18.6 15.7 20 34 18.5 47.2z"/><path d="m445.3 325s14.8 53-48.3 69.1c0 0-12.3 15.7-34.4 26.5-26.5 12.9-54.5 12.7-81.6 2.2-1-8.4-25-223.4-25.5-228.4 1.2-.7 61.4-35.2 99.1 2.6 0 0 57.2.2 68.2 36.8 0 0 31.4 12 41.1 45.4 9.8 33.5-18.6 45.8-18.6 45.8z"/></g><path d="m445.3 325c.9-23-17.1-27.6-26.4-28.4-3.2-.3-5.4-.1-5.4-.1-1.6-.8-3.2-1.4-4.8-2-36.3-13-65.1 20.8-65.1 20.8s-50.3-38.9-82.5-70.4l-5.6-50.6c1.2-.7 61.4-35.2 99.1 2.6 0 0 57.2.2 68.2 36.8 0 0 31.4 12 41.1 45.4 9.8 33.6-18.6 45.9-18.6 45.9z" fill="#7e57c2"/><path d="m420.4 333.3c-3.8 9-11.2 15.5-22 19.3-2.1.7-4.4-.4-5.1-2.5s.4-4.4 2.5-5.1c8.6-3 14.4-7.9 17.2-14.8 3.7-8.9 1.9-19.4-.2-26.5-1.1 1.8-2.4 3.6-3.7 5.5-.8 1.1-2 1.6-3.2 1.6-3.2 0-5.2-3.7-3.2-6.4 6.1-8.3 11.6-18.9 7.8-28.5-6.2-15.5-32.6-20.2-32.8-20.3-2.2-.4-3.6-2.4-3.3-4.6.4-2.2 2.5-3.6 4.6-3.3 1.3.2 31.1 5.6 38.9 25.2 2.5 6.3 2.4 13.2-.2 20.7 5.2 11.9 7.7 27.5 2.7 39.7z" fill="#673ab7"/><path d="m327.1 371.8s11.1 48.2-42.1 50.9c-1.3.1-2.6.1-4 .1-.2 0-2.3 3-6.5 6.3-21.7 16.9-39.7-8.2-39.7-8.2-44.5-11-35.3-44.3-33.9-48.7 0 0 .2-.5.2-.5-3-.7-5.7-1.6-8.2-2.6-34.3-14.5-11.6-58.4-11.6-58.4-14.9-33.4-.6-55.2 9.2-65.2 2.8-2.9 5.8-5.3 7.4-6.3.2-1.4.4-2.7.7-3.9 10-49.3 56.7-40.7 56.7-40.7 44.9-14.9 60.6 21.2 60.6 21.2s59.7 30.2 27.5 99.7c3.2 36.5-16.3 56.3-16.3 56.3z" fill="#9575cd"/><path d="m270.1 269.1c-4.9-30 31-50.9 61.7-46.3 2.2.3 7.5 2.4 7.1 4.6-.3 2.2-1.3 4-3.5 3.6-16-2.4-38.7 2.7-49.2 13.4-4.7 4.8-10.1 12.7-8.2 23.3 2.5 14.1-1.1 4.2-3.3 4.6s-4.3-1-4.6-3.2z" fill="#7e57c2"/><path d="m315.6 326c-15.6 0-29.6-11.8-30.2-12.3-1.7-1.4-1.9-4-.4-5.6 1.4-1.7 4-1.9 5.6-.4.1.1 12.3 10.4 24.9 10.4h.4c2.2 0 4 1.8 4 3.9 0 2.2-1.7 4-3.9 4.1 0-.1-.2-.1-.4-.1z" fill="#7e57c2"/><path d="m281.1 422.9c-.2 0-2.3 3-6.5 6.3-13.5-5.4-22.6-14-27.1-25.5-7.9-20.3 1.5-41.9 1.9-42.8.9-2.1 3.2-3 5.2-2 1.9 1 4.8-1.4 1.8 5.5 0 .1-4.3 10-4.3 21.7 0 17.5 9.3 28.9 25.1 35.3 1.1.3 1 .2 3.9 1.5z" fill="#7e57c2"/><path d="m201.1 372.1c.1-.2.1-.3.1-.4-.1.2-.1.3-.1.4z" fill="#ff617f"/><path d="m235.8 343.2c-.4 2.2-2.5 3.6-4.6 3.2-23-4.2-29.6 24.2-29.9 25.3-3-.7-5.7-1.6-8.2-2.6v-.1c2.8-11.7 15.2-34.8 39.5-30.4 2.1.3 3.5 2.4 3.2 4.6z" fill="#7e57c2"/><path d="m232.5 280.5c-.2 2.2-2.2 3.9-4.5 3.7-20-1.7-29.2-13.5-33.4-23.1-2.6-6-3.6-11.8-4-15.7 2.8-2.9 5.8-5.3 7.4-6.3l-.1 2.7c0 3.9 1.7 32.9 30.8 34.3 8.7.4 4 2.2 3.8 4.4z" fill="#7e57c2"/><ellipse cx="255.5" cy="310.6" fill="#7e57c2" rx="32.6" ry="51.3"/></g></svg>