<svg id="Capa_1" enable-background="new 0 0 512 512" height="512" viewBox="0 0 512 512" width="512" xmlns="http://www.w3.org/2000/svg"><g><circle cx="320.52" cy="191.48" fill="#c56e37" r="191.48"/><path d="m491.187 173.789c0 61.174-28.692 115.642-73.349 150.696-3.186 2.501-7.824.186-7.822-3.864 0-.033 0-.067 0-.1 0-2.296-.037-4.637-.109-6.967-.694-22.097-16.162-40.742-37.616-45.342-13.146-2.819-22.799-12.533-22.451-22.598.702-20.376-11.736-39.07-30.949-46.518-8.067-3.126-14.209-9.041-18.259-17.582-7.878-16.613-24.883-27.348-43.322-27.348-2.057 0-4.135.133-6.181.396-1.271.165-2.664.248-4.136.248-3.235 0-6.652-.394-9.885-1.14-11.847-2.734-16.101-12.718-17.379-16.884-6.228-20.287-24.61-33.918-45.742-33.918-1.606 0-3.233.082-4.834.245-6.755.687-13.445 1.686-20.054 2.987-12.829 25.706-20.058 54.696-20.058 85.378-.002 106.059 85.185 191.355 191.243 191.483 105.86.126 191.716-85.651 191.716-191.481 0-63.39-30.811-119.576-78.266-154.425 35.449 34.751 57.453 83.169 57.453 136.734z" fill="#a95e2c"/><path d="m309.113 224.323c-17.99-6.973-27.741-20.279-32.928-31.217-3.885-8.194-12.603-12.869-21.597-11.709-7.639.985-16.064.367-23.564-1.364-19.379-4.472-32.154-18.995-37.161-35.308-2.918-9.505-12.083-15.699-21.975-14.694-96.548 9.812-171.888 91.352-171.888 190.489 0 106.063 85.416 191.48 191.48 191.48 105.751 0 191.479-85.728 191.479-191.48 0-2.047-.032-4.087-.096-6.119-.299-9.519-6.933-17.738-16.245-19.735-26.134-5.604-44.629-26.512-43.819-49.984.31-8.97-5.318-17.115-13.686-20.359z" fill="#da8659"/><path d="m382.863 314.401c-.299-9.519-6.933-17.738-16.244-19.735-2.716-.582-5.345-1.337-7.882-2.237 2.125 3.193 3.399 6.988 3.526 11.023.064 2.032.096 4.072.096 6.119 0 105.751-85.728 191.48-191.479 191.48-28.411 0-55.335-6.138-79.537-17.152 29.102 17.827 63.375 28.101 100.137 28.101 105.751 0 191.479-85.728 191.479-191.48 0-2.047-.032-4.087-.096-6.119z" fill="#c56e37"/><g fill="#a95e2c"><path d="m126.959 256c6.911 15.796-13.977 31.22-31.22 31.22s-31.219-13.978-31.219-31.22 14.436-27.27 31.22-31.22c17.691-4.162 23.935 14.57 31.219 31.22z"/><path d="m329.886 331.515c6.911 15.796-13.977 31.22-31.22 31.22s-31.22-13.977-31.22-31.22 14.436-27.27 31.22-31.22c17.692-4.162 23.936 14.569 31.22 31.22z"/><path d="m265.366 432.911c0 11.495-13.481 20.813-24.976 20.813s-27.057-17.643-27.057-29.138 15.042-18.211 26.537-18.211 25.496 15.041 25.496 26.536z"/><path d="m239.35 252.358c0 11.495-13.481 20.813-24.976 20.813s-27.057-17.644-27.057-29.138 15.042-18.211 26.537-18.211 25.496 15.041 25.496 26.536z"/><path d="m129.041 407.935c0 11.495-13.481 20.813-24.976 20.813s-27.057-17.643-27.057-29.138 15.042-18.211 26.537-18.211 25.496 15.041 25.496 26.536z"/><path d="m200.325 342.374c0 8.621-14.273 17.691-22.894 17.691s-15.089-12.712-15.089-21.333 6.989-15.61 15.61-15.61 22.373 10.631 22.373 19.252z"/></g><g fill="#8f4e24"><path d="m283.057 81.171c6.911 15.796-13.977 31.22-31.22 31.22s-31.22-13.977-31.22-31.22 14.436-27.27 31.22-31.22c17.691-4.162 23.935 14.569 31.22 31.22z"/><path d="m471.099 156.686c6.911 15.796-13.977 31.22-31.22 31.22s-31.22-13.977-31.22-31.22 14.436-27.27 31.22-31.22c17.691-4.163 23.935 14.569 31.22 31.22z"/><path d="m408.976 240.39c0 11.495-13.481 20.813-24.976 20.813s-27.057-17.643-27.057-29.138 15.042-18.211 26.537-18.211 25.496 15.042 25.496 26.536z"/><path d="m395.447 77.528c0 11.495-13.481 20.813-24.976 20.813s-27.057-17.644-27.057-29.138 15.042-18.211 26.537-18.211 25.496 15.042 25.496 26.536z"/><path d="m345.496 168.065c0 8.621-14.273 17.691-22.894 17.691s-15.089-12.712-15.089-21.333 6.989-15.61 15.61-15.61 22.373 10.631 22.373 19.252z"/></g><circle cx="159.22" cy="446.439" fill="#a95e2c" r="12.488"/><circle cx="235.187" cy="316.358" fill="#a95e2c" r="12.488"/><circle cx="294.504" cy="398.569" fill="#a95e2c" r="12.488"/><circle cx="156.098" cy="208.13" fill="#a95e2c" r="12.488"/><circle cx="72.846" cy="326.764" fill="#a95e2c" r="12.488"/><circle cx="372.553" cy="135.285" fill="#8f4e24" r="12.488"/><circle cx="444.358" cy="243.512" fill="#8f4e24" r="12.488"/><circle cx="312.195" cy="33.301" fill="#8f4e24" r="12.488"/></g></svg>