<svg id="Filled" enable-background="new 0 0 512 512" viewBox="0 0 512 512" xmlns="http://www.w3.org/2000/svg"><circle cx="224" cy="304" fill="#452d23" r="24"/><circle cx="256" cy="304" fill="#694435" r="24"/><circle cx="288" cy="304" fill="#4d3329" r="24"/><circle cx="320" cy="304" fill="#452d23" r="24"/><circle cx="352" cy="304" fill="#694435" r="24"/><ellipse cx="384" cy="304" fill="#54382d" rx="24.5" ry="22.773"/><circle cx="416" cy="304" fill="#452d23" r="24"/><circle cx="448" cy="304" fill="#694435" r="24"/><circle cx="272" cy="272" fill="#452d23" r="24"/><ellipse cx="304" cy="272" fill="#694435" rx="24.675" ry="24.536"/><circle cx="336" cy="272" fill="#54382d" r="24"/><circle cx="352" cy="240" fill="#694435" r="24"/><circle cx="320" cy="240" fill="#452d23" r="24"/><circle cx="368" cy="272" fill="#452d23" r="24"/><circle cx="400" cy="272" fill="#694435" r="24"/><path d="m40 152h120v48h-120z" fill="#b5964b"/><path d="m136 168h-72c-22.091 0-40-17.909-40-40 0-22.091 17.909-40 40-40h72c22.091 0 40 17.909 40 40 0 22.091-17.909 40-40 40z" fill="#c7a552"/><path d="m144 88h-88c-8.837 0-16-7.163-16-16 0-8.837 7.163-16 16-16h88c8.837 0 16 7.163 16 16 0 8.837-7.163 16-16 16z" fill="#e6be5e"/><path d="m240 456h192v32h-192z" fill="#b6b9ba"/><path d="m440 456h-208c-26.51 0-48-21.49-48-48v-88h304v88c0 26.51-21.49 48-48 48z" fill="#dadcde"/><path d="m176 424h-152v-16c0-8.837 7.163-16 16-16h120c8.837 0 16 7.163 16 16z" fill="#e6be5e"/><path d="m72 24h56v32h-56z" fill="#967c3f"/><path d="m144 304c0 32 7.163 88 16 88h-120c8.837 0 16-56 16-88v-24c0-32-7.163-80-16-80h120c-8.837 0-16 48-16 80z" fill="#c7a552"/><path d="m24 424h152v64h-152z" fill="#c7a552"/><path d="m488 312h-17.376c.888-2.504 1.376-5.195 1.376-8 0-13.234-10.767-24-24-24-6.142 0-11.75 2.322-16 6.131-2.74-2.456-6.047-4.29-9.697-5.285 1.09-2.739 1.697-5.722 1.697-8.846 0-13.234-10.767-24-24-24-6.142 0-11.75 2.322-16 6.131-2.74-2.456-6.047-4.29-9.697-5.285 1.09-2.739 1.697-5.722 1.697-8.846 0-13.234-10.767-24-24-24-6.142 0-11.75 2.322-16 6.131-4.25-3.809-9.858-6.131-16-6.131-13.233 0-24 10.766-24 24 0 3.124.606 6.106 1.697 8.846-3.65.995-6.956 2.829-9.697 5.285-4.25-3.809-9.858-6.131-16-6.131-13.233 0-24 10.766-24 24 0 3.124.606 6.106 1.697 8.846-3.65.995-6.956 2.829-9.697 5.285-4.249-3.809-9.858-6.131-16-6.131-13.233 0-24 10.766-24 24 0 2.805.488 5.496 1.376 8h-17.376c-4.418 0-8 3.582-8 8v70.131c-3.579-3.208-8.123-5.355-13.137-5.954-4.773-8.9-10.863-48.408-10.863-80.177v-24c0-31.777 6.408-65.814 10.75-72.496 3.061-1.123 5.25-4.054 5.25-7.504v-32c0-1.272-.305-2.471-.833-3.539 10.292-8.81 16.833-21.882 16.833-36.461 0-16.851-8.735-31.69-21.908-40.257 3.675-4.218 5.908-9.723 5.908-15.743 0-13.234-10.767-24-24-24h-8v-24c0-4.418-3.582-8-8-8h-56c-4.418 0-8 3.582-8 8v24h-8c-13.233 0-24 10.766-24 24 0 6.02 2.233 11.525 5.908 15.743-13.173 8.567-21.908 23.406-21.908 40.257 0 14.579 6.541 27.651 16.833 36.461-.528 1.068-.833 2.267-.833 3.539v32c0 3.45 2.189 6.382 5.25 7.504 4.342 6.682 10.75 40.719 10.75 72.496v24c0 31.769-6.09 71.277-10.863 80.177-11.888 1.42-21.137 11.558-21.137 23.823v16 64c0 4.418 3.582 8 8 8h152c4.418 0 8-3.582 8-8v-51.19c9.807 16.278 27.651 27.19 48 27.19v24c0 4.418 3.582 8 8 8h192c4.418 0 8-3.582 8-8v-24c30.879 0 56-25.122 56-56v-88c0-4.418-3.582-8-8-8zm-428.814-85.424c-1.359-7.511-2.823-13.656-4.463-18.576h90.554c-1.639 4.92-3.104 11.065-4.463 18.576-2.969 16.408-4.814 36.88-4.814 53.424v24c0 16.709 1.879 39.189 4.788 57.271 1.527 9.492 3.13 16.972 4.944 22.729h-91.464c1.814-5.758 3.417-13.237 4.944-22.729 2.909-18.082 4.788-40.562 4.788-57.271v-24c0-16.544-1.845-37.016-4.814-53.424zm20.814-194.576h40v16h-40zm-24 48c-4.411 0-8-3.589-8-8s3.589-8 8-8h88c4.411 0 8 3.589 8 8s-3.589 8-8 8zm8 16h72c17.645 0 32 14.355 32 32s-14.355 32-32 32h-72c-17.645 0-32-14.355-32-32s14.355-32 32-32zm88 80v16h-104v-16zm-120 232c0-4.411 3.589-8 8-8h120c4.411 0 8 3.589 8 8v8h-136zm0 72v-48h136v48zm416-184c4.411 0 8 3.589 8 8s-3.589 8-8 8-8-3.589-8-8 3.589-8 8-8zm-32 16c-4.411 0-8-3.589-8-8s3.589-8 8-8 8 3.589 8 8-3.589 8-8 8zm-80-48c4.411 0 8 3.589 8 8s-3.589 8-8 8-8-3.589-8-8 3.589-8 8-8zm-56 40c0-4.411 3.589-8 8-8s8 3.589 8 8-3.589 8-8 8-8-3.589-8-8zm32 0c0-4.411 3.589-8 8-8s8 3.589 8 8-3.589 8-8 8-8-3.589-8-8zm32 0c0-4.411 3.589-8 8-8s8 3.589 8 8-3.589 8-8 8-8-3.589-8-8zm32 0c0-4.411 3.589-8 8-8s8 3.589 8 8-3.589 8-8 8-8-3.589-8-8zm24-40c4.411 0 8 3.589 8 8s-3.589 8-8 8-8-3.589-8-8 3.589-8 8-8zm-32 16c-4.411 0-8-3.589-8-8s3.589-8 8-8 8 3.589 8 8-3.589 8-8 8zm-16-48c4.411 0 8 3.589 8 8s-3.589 8-8 8-8-3.589-8-8 3.589-8 8-8zm-32 0c4.411 0 8 3.589 8 8s-3.589 8-8 8-8-3.589-8-8 3.589-8 8-8zm-16 32c4.411 0 8 3.589 8 8s-3.589 8-8 8-8-3.589-8-8 3.589-8 8-8zm-32 0c4.411 0 8 3.589 8 8s-3.589 8-8 8-8-3.589-8-8 3.589-8 8-8zm-16 32c4.411 0 8 3.589 8 8s-3.589 8-8 8-8-3.589-8-8 3.589-8 8-8zm-40 8c0-4.411 3.589-8 8-8s8 3.589 8 8-3.589 8-8 8-8-3.589-8-8zm208 176h-176v-16h176zm56-72c0 22.056-17.944 40-40 40h-208c-22.056 0-40-17.944-40-40v-80h288z"/></svg>