<svg id="solid" height="512" viewBox="0 0 64 64" width="512" xmlns="http://www.w3.org/2000/svg"><path d="m59.729 10.626c-.818-.61-1.185-1.653-.931-2.657.642-2.537-.947-3.624-2.394-4.089-.704-.226-1.446-.232-2.15-.019-1.087.333-2.241-.038-2.933-.943-.448-.582-1.053-1.009-1.749-1.231-1.582-.511-3.667-.023-4.42 1.88-.367.938-1.313 1.581-2.354 1.6-1.247.014-2.184.516-2.788 1.49-.592.958-.722 2.181-.347 3.271.354 1.027 1.112 1.823 2.082 2.182.306.116.628.188.988.222.804.063 1.413.68 1.439 1.466l.158 4.131c.575-.021 1.151.012 1.726.086.163-1.239.363-3.234.302-5.252-.008-.275.209-.506.485-.515.283.008.507.208.515.485.063 2.108-.147 4.18-.316 5.452.308.07.616.143.921.241.353.113.695.248 1.03.395.526-1.196 1.29-2.797 2.217-4.351.141-.237.446-.314.686-.174.237.142.314.449.173.686-.921 1.544-1.664 3.116-2.179 4.292.461.257.901.544 1.316.865l2.536-3.269c.483-.614 1.352-.775 1.978-.371.577.356 1.233.542 1.941.544h.01c1.612 0 3.114-1.229 3.496-2.863.32-1.398-.164-2.593-1.438-3.554zm-13.172-.241c-.233.025-.443-.165-.49-.404-.087-.447-.195-.866-.32-1.246-.086-.263.057-.545.319-.631.26-.089.545.057.631.318.138.419.256.879.352 1.367.052.271-.037.547-.492.596zm3.969 1.7c-.068.212-.311.405-.629.322-.267-.069-.407-.366-.323-.629.64-1.989.235-3.826.231-3.845-.061-.269.107-.536.375-.599.267-.057.536.105.599.375.02.086.475 2.114-.253 4.376zm4.871-1.216c-.501.382-1.021.897-1.547 1.533-.099.12-.45.271-.704.067-.215-.173-.243-.491-.067-.704.574-.695 1.15-1.265 1.712-1.691.219-.168.533-.125.701.095.167.22.125.533-.095.7z"/><path d="m20 18.5c-2.809 0-5.441 1.246-7.222 3.418-1.529 1.865-2.258 4.212-2.087 6.582h5.309c.276 0 .5.224.5.5s-.224.5-.5.5h-5.18c.01.056.013.113.024.169l.566 2.831h2.59c.276 0 .5.224.5.5s-.224.5-.5.5h-2.39l3.4 17h5.99c.276 0 .5.224.5.5s-.224.5-.5.5h-5.79l.6 3h2.19c.276 0 .5.224.5.5s-.224.5-.5.5h-1.99l.892 4.461c.294 1.471 1.598 2.539 3.098 2.539s2.804-1.068 3.098-2.539l3.092-15.461h-2.19c-.276 0-.5-.224-.5-.5s.224-.5.5-.5h2.39l.6-3h-4.99c-.276 0-.5-.224-.5-.5s.224-.5.5-.5h5.19l1.966-9.831c.551-2.754-.154-5.579-1.935-7.751-1.78-2.172-4.412-3.418-7.221-3.418zm-1 22h-1c-.276 0-.5-.224-.5-.5s.224-.5.5-.5h1c.276 0 .5.224.5.5s-.224.5-.5.5zm1-11h-1c-.276 0-.5-.224-.5-.5s.224-.5.5-.5h1c.276 0 .5.224.5.5s-.224.5-.5.5z"/><path d="m28.595 6.771c-.947-.323-1.601-1.188-1.664-2.2-.16-2.538-1.954-3.071-3.431-3.071-.719 0-1.409.215-1.995.621-.917.637-2.102.637-3.02 0-.586-.406-1.273-.621-1.985-.621-1.613 0-3.399 1.07-3.531 3.053-.062.984-.752 1.869-1.717 2.2-1.151.383-1.868 1.125-2.137 2.207-.264 1.062-.02 2.233.651 3.131.633.846 1.571 1.356 2.576 1.399.317.018.637-.013.98-.089.77-.18 1.527.211 1.789.938l1.375 3.78c.52-.188 1.058-.327 1.607-.429-.219-1.2-.628-3.104-1.284-4.953-.092-.26.044-.546.304-.639.259-.092.545.044.638.305.686 1.933 1.109 3.916 1.332 5.147.304-.026.609-.05.917-.05.357 0 .711.023 1.063.059.132-1.267.364-2.977.76-4.691.062-.27.329-.438.6-.375.269.062.437.331.375.6-.391 1.691-.617 3.38-.745 4.621.499.1.987.234 1.462.405l1.375-3.781c.267-.721 1.035-1.135 1.74-.941.642.158 1.305.133 1.959-.074 1.496-.476 2.525-2.063 2.392-3.692-.116-1.386-.919-2.348-2.386-2.86zm-12.206 3.668c-.077.042-.16.062-.242.062-.176 0-.347-.093-.438-.258-.216-.391-.441-.748-.669-1.062-.163-.224-.113-.536.11-.698.224-.162.536-.113.698.11.252.347.5.738.735 1.165.135.244.047.548-.194.681zm3.612.922c-.276 0-.5-.225-.5-.5.001-2.035-.921-3.617-.931-3.633-.141-.237-.062-.544.174-.686s.543-.063.685.174c.044.073 1.073 1.823 1.072 4.145 0 .277-.224.5-.5.5zm4.659-3.075c-.351.503-.68 1.136-.978 1.883-.078.195-.266.314-.464.314-.062 0-.125-.012-.185-.035-.257-.103-.382-.394-.279-.65.326-.817.692-1.519 1.086-2.084.158-.227.47-.282.696-.124s.282.47.124.696z"/><path d="m47.658 19.375c-.964-.31-1.956-.462-2.941-.462-1.819 0-3.618.521-5.189 1.534-2.084 1.346-3.536 3.415-4.11 5.79l5.193 1.668c.263.084.408.365.323.629-.068.212-.265.347-.476.347-.051 0-5.223-1.653-5.223-1.653-.008.063-.025.124-.032.188l-.336 2.951 2.538.815c.263.084.408.365.323.629-.068.212-.265.347-.476.347-.051 0-2.501-.778-2.501-.778l-2.015 17.684 5.857 1.882c.263.084.408.365.323.629-.068.212-.265.347-.476.347-.051 0-5.819-1.845-5.819-1.845l-.358 3.143 2.147.69c.263.084.408.365.323.629-.068.212-.265.347-.476.347-.051 0-2.11-.653-2.11-.653l-.53 4.648c-.174 1.534.766 2.991 2.236 3.464 1.472.47 3.083-.164 3.834-1.513l7.874-14.135-2.152-.691c-.263-.084-.408-.365-.323-.629.085-.263.368-.407.629-.322l2.343.753 1.539-2.762-4.885-1.569c-.263-.084-.408-.365-.323-.629.085-.263.367-.407.629-.322l5.075 1.63 5.007-8.989c1.403-2.519 1.601-5.501.543-8.183-1.06-2.683-3.241-4.727-5.985-5.609zm-7.245 20.836c-.068.212-.265.347-.476.347-.051 0-1.129-.338-1.129-.338-.263-.084-.408-.365-.323-.629.085-.263.368-.408.629-.322l.976.313c.263.084.407.365.323.629zm4.424-10.422c-.068.212-.265.347-.476.347-.051 0-1.129-.339-1.129-.339-.263-.084-.407-.366-.323-.629.085-.263.367-.408.629-.322l.976.314c.263.084.408.366.323.629z"/></svg>