<svg id="Layer_1" enable-background="new 0 0 511.984 511.984" height="512" viewBox="0 0 511.984 511.984" width="512" xmlns="http://www.w3.org/2000/svg"><g><path d="m411.787 21.156-.354-1.674c-.455-2.157-2.581-7.726-4.462-8.874s-1.085-4.25-3.21-3.669c-5.597 1.532-7.712-3.429-13.102-1.581-42.684 14.631-78.683 39.026-104.823 71.188-8.401 10.336-15.732 21.729-21.79 33.864-1.973 3.953-.368 8.757 3.585 10.73s2.882 29.281 4.857 25.327c.149-.299 8.135 13.865 8.287 13.567l18.287 15.946c-1.337 3.783 66.154-5.515 69.847-3.717 1.128.549 26.145-6.269 27.32-6.269 2.965 0 5.813-1.655 7.198-4.5 1.974-4.052-7.379-9.192-5.627-13.308 25.56-60.206 19.123-102.805 13.987-127.03z" fill="#91bd00"/><path d="m409.034 149.193c-1.75 4.11-3.63 8.25-5.61 12.3-1.38 2.85-4.23 4.5-7.2 4.5-1.17 0-26.19 6.82-27.32 6.27-3.69-1.8-71.18 7.5-69.84 3.72l-.5-.44c19.05-1.7 42.09-4.31 44.2-3.28 1.13.55 26.15-6.27 27.32-6.27 2.97 0 5.82-1.65 7.2-4.5 1.98-4.05 3.86-8.19 5.61-12.3 25.57-60.21 13.54-116.94 8.4-141.17l-.35-1.67c-.07-.33-.16-.66-.28-.98 5.39-1.86 10.88-3.56 16.48-5.09 2.12-.58 4.4-.26 6.28.89s3.2 3.02 3.66 5.18l.35 1.67c5.14 24.23 17.17 80.96-8.4 141.17z" fill="#80a413"/><path d="m372.444 108.064c-5.407 2.493-10.979 4.683-16.563 6.508-5.025 1.643-10.134 3.013-15.289 4.109 1.952-3.476 4.041-6.893 6.271-10.245 9.39-14.105 21.155-26.969 34.968-38.234 3.424-2.793 3.936-7.832 1.143-11.256-2.791-3.424-7.831-3.936-11.256-1.144-15.053 12.277-27.896 26.33-38.174 41.767-1.096 1.646-2.15 3.312-3.185 4.986-.339-4.118-.499-8.281-.446-12.442.057-4.418-3.479-8.045-7.897-8.102-4.393-.07-8.045 3.48-8.101 7.897-.088 6.836.301 13.692 1.154 20.376.694 5.43 1.717 10.816 3.012 16.066-4.52 10.751-7.928 21.93-10.169 33.463-.844 4.337 1.989 8.537 6.326 9.38.516.1 1.028.148 1.535.148 3.753 0 7.102-2.653 7.844-6.475 1.903-9.788 4.734-19.297 8.452-28.472 9.729-1.33 19.391-3.546 28.785-6.617 6.169-2.017 12.322-4.435 18.29-7.186 4.012-1.85 5.766-6.602 3.915-10.614-1.85-4.009-6.603-5.763-10.615-3.913z" fill="#b7db38"/><path d="m451.213 370.811c-7.168-9.806-15.104-19.069-23.589-27.533-3.128-3.121-8.193-3.113-11.313.014-3.032 3.04-40.183-20.305-37.313-17.169l-43.796 9.172c-.003-.003-18.111 16.742-18.115 16.739-2.985-3.256 4.377 77.927 1.121 80.912-3.256 2.987-3.475 8.047-.488 11.303 7.055 7.692 14.113 1.734 22.451 8.065 36.825 27.966 64.981 45.784 118.247 48.297.126.006.252.009.377.009 4.227.083 12.181 5.611 12.191 1.378l.038-1.684c.095-4.131 16.231-7.058 16.167-12.912-.308-28.104-4.797-73.899-35.978-116.591z" fill="#91bd00"/><path d="m487.044 502.473-.04 1.69c-.008 4.23-3.778 7.901-8 7.82-.12 0-.25 0-.38-.01-53.26-2.51-100.88-18.62-137.71-46.59-8.34-6.33-16.14-13.44-23.2-21.13-2.98-3.26-2.76-8.32.49-11.31 3.26-2.98-4.1-84.16-1.12-80.91.01 0 5.48-5.05 10.4-9.6.56 23.29 2.4 60.7.17 62.66-3.32 2.92-3.64 7.98-.72 11.29 6.89 7.84 14.55 15.11 22.76 21.61 36.24 28.72 83.52 45.8 136.72 49.41.13.01.25.01.38.01.14 0 .27 0 .4-.01.06 5.85-.06 10.94-.15 15.07z" fill="#80a413"/><path d="m438.943 439.949c-16.233-11.783-31.411-24.865-45.199-38.896 1.759-.207 3.538-.402 5.335-.583 6.556-.664 13.247-1.096 19.886-1.284 4.417-.125 7.896-3.807 7.771-8.224-.123-4.339-3.68-7.773-7.993-7.773-.076 0-.153.001-.23.003-7.024.199-14.104.656-21.041 1.358-5.884.593-11.587 1.328-17.032 2.182-7.63-8.701-14.811-17.752-21.424-27.054-2.561-3.602-7.558-4.444-11.155-1.885-3.602 2.56-4.445 7.555-1.886 11.156 10.095 14.199 21.424 27.856 33.676 40.591.642.667 1.305 1.321 1.953 1.984-.428 10.468.259 20.796 2.066 30.753.549 3.008 1.185 5.95 1.888 8.745.913 3.63 4.172 6.05 7.752 6.05.646 0 1.303-.079 1.958-.244 4.285-1.079 6.884-5.426 5.806-9.71-.617-2.455-1.177-5.05-1.662-7.706-.728-4.01-1.24-8.097-1.559-12.234 10.036 9.083 20.633 17.691 31.693 25.719 1.419 1.03 3.063 1.526 4.692 1.526 2.476 0 4.916-1.145 6.481-3.301 2.594-3.575 1.8-8.578-1.776-11.173z" fill="#b7db38"/><path d="m175.676 362.901c-.936-4.115 77.191-92.029 73.076-91.402l-62.251.854c1.904 1.904-17-17.885-16.624-18 4.225-1.291-11.339-8.863-12.631-13.089-1.29-4.226-5.762-6.603-9.989-5.312-8.01 2.448-16.102 5.453-24.049 8.931-43.223 18.911-70.453 51.617-86.127 74.267-4.202 6.072 6.967 12.202 4.341 16.369l-.871 1.381c-1.158 1.833.499.985 1.011 3.092.513 2.106 1.857 3.914 3.728 5.01 33.001 19.347 46.606 15.916 81.395 15.916 7.494 0 14.971-.463 22.401-1.394 5.141-.644 15.396 14.121 20.559 12.949 4.309-.977 7.008-5.263 6.031-9.572z" fill="#91bd00"/><path d="m175.674 362.903c.98 4.31-1.72 8.59-6.03 9.57-5.16 1.17-10.39 2.09-15.53 2.74-7.43.93-14.9 1.39-22.4 1.39-34.79 0-69.98-9.96-102.99-29.31-1.87-1.09-3.21-2.9-3.72-5.01-.52-2.11-.15-4.33 1.01-6.16l.87-1.38c2.62-4.17 5.99-9.52 10.2-15.59 32.62 18.85 67.34 28.55 101.66 28.55 7.5 0 14.97-.46 22.41-1.39 5.14-.64 10.36-1.57 15.52-2.74 4.31-.98 7.01-5.26 6.03-9.57-.57-2.52 28.52-36.49 50.2-62.28l15.85-.22c4.11-.63-74.01 87.28-73.08 91.4z" fill="#80a413"/><path d="m213.234 279.733c-.005 0-.01 0-.015 0-21.175.039-42.23 2.919-62.584 8.561-.867.241-1.731.493-2.596.744-.105.028-.209.057-.312.089-19.283 5.617-37.794 13.684-55.06 24.01-3.792 2.268-5.027 7.18-2.76 10.972 1.499 2.506 4.152 3.896 6.874 3.896 1.396 0 2.813-.367 4.099-1.136 12.084-7.227 24.824-13.262 38.028-18.041-.877 2.412-1.932 4.885-3.184 7.28-2.336 4.47-5.291 8.586-8.781 12.236-3.054 3.193-2.941 8.257.252 11.311 1.55 1.482 3.54 2.219 5.528 2.219 2.106 0 4.211-.828 5.782-2.47 4.53-4.737 8.365-10.081 11.398-15.884 4.101-7.845 6.193-15.358 7.241-20.406 18.275-4.859 37.136-7.346 56.103-7.38 4.418-.008 7.993-3.596 7.985-8.015-.006-4.414-3.586-7.986-7.998-7.986z" fill="#b7db38"/><path d="m326.417 170.959c-.027-.617-.126-1.229-.294-1.823-7.603-26.888-26.3-49.59-51.298-62.287-14.18-7.197-29.481-10.846-45.48-10.846-35.431 0-66.641 18.417-84.561 46.18-10.127 15.69-3.341 36.198-3.341 56.222 0 18.019 9.077 27.394 18.191 42.803 15.977 27.05 17.645 32.472 48.764 35.997.332.042 10.182 19.349 10.526 19.349h104.689c2.184 0 4.271-.892 5.78-2.47 1.51-1.577 2.309-3.703 2.212-5.884z" fill="#a09be3"/><path d="m331.604 288.203c.1 2.18-.7 4.3-2.21 5.88s-3.6 2.47-5.78 2.47h-104.69c-.34 0-.68-.02-1.01-.06-31.12-3.53-59.23-21.77-75.21-48.82-9.11-15.41-13.93-33.08-13.93-51.1 0-20.03 5.88-38.7 16.01-54.39-.91 5.45-1.36 11.01-1.36 16.66 0 55.45 45.12 100.57 100.57 100.57 18.02 0 35.69-4.82 51.1-13.93 13.51-7.98 24.83-18.99 33.21-31.9z" fill="#7c75d9"/><path d="m359.85 357.818c-.598-4.376-4.626-7.442-9.01-6.842-1.802.247-3.374 1.081-4.567 2.276l-67.899-67.899c1.183-1.182 2.014-2.736 2.269-4.518.625-4.374-2.414-8.427-6.788-9.052-.795-.114-1.589-.206-2.395-.286-3.705-.421-5.212 7.161-8.978 7.161-15.665 0-20.777 1.803-34.71 8.713-.083.038-11.282 7.851-11.35 7.911-24.65 21.669-22.013 15.52-36.115 42.42-1.123 2.143-11.962 31.279-11.962 33.73 0 30.9 5.295 58.589 27.293 77.053 17.481 14.672 40.009 23.517 64.563 23.517 27.623 0 53.371-10.974 72.494-30.892 18.105-18.807 28.076-43.552 28.076-69.678.003-4.554-.307-9.135-.921-13.614z" fill="#7c75d9"/><path d="m280.644 280.833c-.26 1.78-1.09 3.34-2.27 4.52l2.32 2.32c-1.49-.08-2.99-.11-4.49-.11-15.67 0-30.67 3.5-44.6 10.41-.09.04-.17.08-.25.12-31.67 15.8-52.92 47.49-55.46 82.71-.17 2.41-.26 4.88-.26 7.33 0 22.81 7.63 43.86 20.48 60.75-22.27-18.47-36.48-46.33-36.48-77.45 0-2.45.09-4.92.26-7.33 2.54-35.22 23.79-66.91 55.46-82.71.08-.04.16-.08.25-.12 13.93-6.91 28.93-10.41 44.6-10.41 3.77 0 7.55.21 11.26.64.8.07 1.6.17 2.39.28 4.38.63 7.42 4.68 6.79 9.05z" fill="#554cce"/><path d="m459.613 188.662c-15.623-19.333-37.502-32.996-61.599-38.469-8.026-1.832-16.326-2.761-24.67-2.761-21.037 0-41.508 5.92-59.195 17.119-13.466 8.514-24.741 19.637-33.286 32.533-9.102 13.735-10.817 29.482-13.076 46.226-.673 4.925 1.376 8.549 1.376 13.565 0 5.47 1.968 12.347 2.752 17.613.334 2.307 3.809 10.831 4.29 13.075 9.052 42.795 37.062 61.141 79.863 70.204 7.533 1.603 9.492 2.106 17.277 2.106 15.756 0 25.554.625 39.793-5.749 29.018-12.974 55.978-32.133 65.565-61.378 3.589-10.95 5.502-22.555 5.502-34.452-.001-25.279-8.735-50.008-24.592-69.632z" fill="#7c75d9"/><path d="m478.694 292.743c-9.58 29.25-31.12 53.82-60.14 66.79-14.24 6.38-29.45 9.61-45.21 9.61-7.78 0-15.55-.81-23.08-2.42-42.81-9.06-76.32-42.57-85.37-85.36-.48-2.25-.89-4.57-1.23-6.87-.78-5.27-1.18-10.73-1.18-16.2 0-5.02.34-10.06 1.01-14.98 2.29-16.99 8.44-32.95 17.77-46.82-2.06 6.31-3.57 12.85-4.47 19.55-.67 4.92-1.01 9.96-1.01 14.98 0 5.47.4 10.93 1.18 16.2.34 2.3.75 4.62 1.23 6.87 9.05 42.79 42.56 76.3 85.36 85.36 7.54 1.61 15.3 2.42 23.09 2.42 15.76 0 30.97-3.23 45.2-9.61 19.41-8.68 35.48-22.54 46.85-39.52z" fill="#554cce"/><path d="m436.026 244.349c-37.07-34.607-99.299 32.271-65.817 65.819 35.79 33.749 99.628-29.939 65.817-65.819z" fill="#554cce"/><path d="m210.302 357.684c-14.482 14.482-12.607 39.923 4.179 56.71 9.206 9.205 21.01 13.925 32.185 13.925 9.205 0 17.984-3.205 24.526-9.746 14.482-14.482 12.607-39.922-4.179-56.71-16.79-16.787-42.228-18.661-56.711-4.179z" fill="#554cce"/><g fill="#7c75d9"><path d="m231.99 166.434c3.694-29.115-31.385-39.282-51.329-18.159-.001 0-.001 0-.001 0-19.644 18.736-12.711 51.562 14.339 51.57 17.623.226 35.094-16.048 36.991-33.411z"/><path d="m403.123 285.267c-4.418 0-8.006-3.586-8.006-8.005s3.588-8.005 8.006-8.005 8.005 3.586 8.005 8.005-3.587 8.005-8.005 8.005z"/><circle cx="240.747" cy="388.129" r="8.005"/></g></g></svg>