<svg height="512pt" viewBox="-15 0 512 512.00128" width="512pt" xmlns="http://www.w3.org/2000/svg"><path d="m53.050781 135.507812c-4.25 0-7.691406-3.445312-7.691406-7.695312v-26.433594c0-38.1875 31.066406-69.253906 69.253906-69.253906s69.253907 31.066406 69.253907 69.253906c0 4.246094-3.441407 7.691406-7.691407 7.691406s-7.691406-3.445312-7.691406-7.691406c0-29.703125-24.167969-53.871094-53.871094-53.871094s-53.871093 24.167969-53.871093 53.871094v26.433594c0 4.25-3.441407 7.695312-7.691407 7.695312zm0 0" fill="#ddd"/><path d="m308.710938 512h-144.453126c-17.417968 0-31.992187-14.15625-33.695312-32.726562l-16.660156-151.027344c-1.953125-21.328125 13.691406-39.8125 33.695312-39.8125l91.210938-20.515625 86.5625 20.515625c20.003906 0 35.648437 18.484375 33.691406 39.8125l-16.65625 151.027344c-1.703125 18.570312-16.277344 32.726562-33.695312 32.726562zm0 0" fill="#f3f3f3"/><path d="m325.371094 288.433594h-30.769532c20.003907 0 35.648438 18.484375 33.691407 39.8125l-16.660157 151.027344c-1.699218 18.570312-16.273437 32.726562-33.691406 32.726562h30.769532c17.417968 0 31.992187-14.15625 33.695312-32.726562l16.660156-151.027344c1.953125-21.328125-13.691406-39.8125-33.695312-39.8125zm0 0" fill="#ddd"/><path d="m244.050781 224.277344-53.15625 10.257812v-88.683594h53.15625zm0 0" fill="#dbbaf0"/><path d="m283.023438 224.277344 41.054687-64.121094-26.480469-28.984375-53.546875 34.402344-10.257812 79.21875zm0 0" fill="#a17cef"/><path d="m121.359375 395.820312 9.207031 83.453126c1.699219 18.570312 16.273438 32.726562 33.691406 32.726562h144.453126c17.417968 0 31.992187-14.15625 33.695312-32.726562l9.203125-83.453126zm0 0" fill="#f8eedb"/><path d="m320.839844 395.820312-9.207032 83.453126c-1.699218 18.570312-16.273437 32.726562-33.691406 32.726562h30.769532c17.417968 0 31.992187-14.15625 33.695312-32.726562l9.203125-83.453126zm0 0" fill="#f8e4bf"/><path d="m244.050781 185.859375h-69.085937c-9.949219 0-18.015625-8.066406-18.015625-18.015625v-43.621094c0-36.9375 29.945312-66.882812 66.882812-66.882812h2.199219c9.949219 0 18.019531 8.066406 18.019531 18.015625zm0 0" fill="#dbbaf0"/><path d="m226.03125 57.339844h-2.199219c-6.609375 0-12.988281.972656-19.019531 2.757812 5.078125 3.1875 8.464844 8.820313 8.464844 15.257813v159.179687l30.773437-10.257812v-148.921875c0-9.949219-8.070312-18.015625-18.019531-18.015625zm0 0" fill="#b397ef"/><path d="m71.007812 158.535156h-35.910156v-24.527344c0-6.285156 5.09375-11.382812 11.382813-11.382812h13.144531c6.285156 0 11.382812 5.097656 11.382812 11.382812zm0 0" fill="#f8a501"/><path d="m447.210938 164.128906-130.265626-130.265625c-6.914062-6.914062-6.914062-18.117187 0-25.03125l3.648438-3.648437c6.910156-6.910156 18.117188-6.910156 25.03125 0l130.265625 130.269531c6.914063 6.910156 6.914063 18.117187 0 25.03125l-3.648437 3.644531c-6.910157 6.914063-18.117188 6.914063-25.03125 0zm0 0" fill="#ffadc6"/><path d="m475.890625 135.453125-130.265625-130.269531c-6.914062-6.910156-18.121094-6.910156-25.03125 0l-2.871094 2.871094 127.398438 127.398437c6.910156 6.910156 6.910156 18.117187 0 25.03125l-.777344.777344 2.867188 2.867187c6.914062 6.914063 18.121093 6.914063 25.03125 0l3.648437-3.644531c6.914063-6.914063 6.914063-18.121094 0-25.03125zm0 0" fill="#ff9ab6"/><path d="m310.65625 170.390625c-31.617188-31.621094-31.617188-82.882813 0-114.5l15.183594-15.183594 114.5 114.5-15.183594 15.183594c-31.617188 31.617187-82.878906 31.617187-114.5 0zm0 0" fill="#f8ce5e"/><path d="m325.839844 40.707031-15.183594 15.183594c-.066406.066406-.128906.140625-.195312.207031l99.109374 99.109375-15.183593 15.183594c-11.875 11.875-26.523438 19.289063-41.863281 22.242187 25.496093 4.910157 52.894531-2.503906 72.632812-22.242187l15.183594-15.183594zm0 0" fill="#f8be23"/><path d="m103.023438 215.734375c0 38.359375-60.492188 68.417969-65.359376 66.488281-21.796874-8.636718-37.664062-35.136718-37.664062-66.488281 0-31.355469 15.867188-57.855469 37.664062-66.492187 4.867188-1.929688 65.359376 28.132812 65.359376 66.492187zm0 0" fill="#f8ce5e"/><path d="m53.050781 146.277344c-5.351562 0-10.511719 1.046875-15.382812 2.976562 21.792969 8.636719 37.664062 35.125 37.664062 66.480469 0 31.351563-15.871093 57.84375-37.664062 66.476563 4.871093 1.929687 10.03125 2.976562 15.382812 2.976562 29.300781 0 53.050781-31.09375 53.050781-69.453125s-23.75-69.457031-53.050781-69.457031zm0 0" fill="#f8be23"/><g fill="#fefefe"><path d="m139.601562 349.832031h39.257813c4.25 0 7.691406-3.445312 7.691406-7.691406 0-4.25-3.441406-7.695313-7.691406-7.695313h-39.257813c-4.25 0-7.695312 3.445313-7.695312 7.695313 0 4.246094 3.445312 7.691406 7.695312 7.691406zm0 0"/><path d="m143.449219 386.699219h35.410156c4.25 0 7.691406-3.441407 7.691406-7.691407s-3.441406-7.691406-7.691406-7.691406h-35.410156c-4.25 0-7.691407 3.441406-7.691407 7.691406s3.445313 7.691407 7.691407 7.691407zm0 0"/><path d="m149.4375 423.566406h29.421875c4.25 0 7.691406-3.445312 7.691406-7.691406 0-4.25-3.441406-7.691406-7.691406-7.691406h-29.421875c-4.25 0-7.691406 3.441406-7.691406 7.691406 0 4.246094 3.445312 7.691406 7.691406 7.691406zm0 0"/><path d="m154.34375 460.433594h24.515625c4.25 0 7.691406-3.445313 7.691406-7.691406 0-4.25-3.441406-7.695313-7.691406-7.695313h-24.515625c-4.25 0-7.691406 3.445313-7.691406 7.695313 0 4.246093 3.445312 7.691406 7.691406 7.691406zm0 0"/></g><path d="m320.667969 224.277344h-168.367188c-6.980469 0-12.640625 5.660156-12.640625 12.640625v38.875c0 6.980469 5.660156 12.640625 12.640625 12.640625h168.367188c6.984375 0 12.640625-5.660156 12.640625-12.640625v-38.875c0-6.980469-5.660156-12.640625-12.640625-12.640625zm0 0" fill="#ffadc6"/><path d="m320.667969 224.277344h-30.769531c6.980468 0 12.640624 5.660156 12.640624 12.640625v38.875c0 6.980469-5.660156 12.640625-12.640624 12.640625h30.769531c6.984375 0 12.640625-5.660156 12.640625-12.640625v-38.875c0-6.980469-5.660156-12.640625-12.640625-12.640625zm0 0" fill="#ff9ab6"/></svg>