<svg id="Artboard_30" enable-background="new 0 0 64 64" height="512" viewBox="0 0 64 64" width="512" xmlns="http://www.w3.org/2000/svg"><g><path d="m4 51v4c0 2.209 1.791 4 4 4h28c2.209 0 4-1.791 4-4v-4z" fill="#77553c"/><path d="m4 47v4c0 2.209 1.791 4 4 4h28c2.209 0 4-1.791 4-4v-4z" fill="#9e7150"/><path d="m32 51h4c2.209 0 4-1.791 4-4v-28s1.629-4.446 1.629-4.446c.373-.889.467-1.861.27-2.8-.425-2.025-2.131-3.584-4.274-3.906l-9.009-1.354c-4.386-.659-8.847-.659-13.233 0l-9.009 1.354c-2.143.322-3.848 1.881-4.274 3.906-.197.938-.103 1.911.27 2.8l1.63 4.446v28c0 2.209 1.791 4 4 4h22z" fill="#e7c192"/><path d="m37.626 7.848-9.009-1.354c-4.386-.659-8.847-.659-13.233 0l-9.01 1.354c-.403.061-.783.178-1.15.32 1.942 18.266 16.488 32.766 34.776 34.629v-23.797l1.629-4.446c.373-.889.467-1.861.27-2.8-.425-2.025-2.13-3.583-4.273-3.906z" fill="#fdddb6"/><g><path d="m15.384 6.494-9.01 1.354c-2.143.322-3.848 1.881-4.274 3.906-.197.938-.103 1.911.27 2.8l1.63 4.446v28c0 2.209 1.791 4 4 4h3c-2.209 0-4-1.791-4-4v-28l-1.629-4.446c-.373-.889-.467-1.861-.27-2.8.425-2.025 2.131-3.583 4.274-3.906l9.009-1.354c1.697-.255 3.405-.409 5.116-.466-2.711-.092-5.428.062-8.116.466z" fill="#d2976a"/></g><path d="m53 41 3.414-3.414c.375-.376.884-.586 1.414-.586h4.172l-2.4 3.2c-.378.503-.97.8-1.6.8z" fill="#ffc239"/><path d="m53 41-3.414-3.414c-.375-.376-.884-.586-1.414-.586h-4.172l2.4 3.2c.378.504.97.8 1.6.8z" fill="#ffc239"/><path d="m53 48 3.414-3.414c.375-.376.884-.586 1.414-.586h4.172l-2.4 3.2c-.378.503-.97.8-1.6.8z" fill="#e29d13"/><path d="m53 48-3.414-3.414c-.375-.376-.884-.586-1.414-.586h-4.172l2.4 3.2c.378.504.97.8 1.6.8z" fill="#e29d13"/><path d="m53 34 3.414-3.414c.375-.376.884-.586 1.414-.586h4.172l-2.4 3.2c-.378.503-.97.8-1.6.8z" fill="#ffc239"/><path d="m53 34-3.414-3.414c-.375-.376-.884-.586-1.414-.586h-4.172l2.4 3.2c.378.504.97.8 1.6.8z" fill="#ffc239"/><path d="m53 27 3.414-3.414c.375-.376.884-.586 1.414-.586h4.172l-2.4 3.2c-.378.503-.97.8-1.6.8z" fill="#ffd55d"/><path d="m53 27-3.414-3.414c-.375-.376-.884-.586-1.414-.586h-4.172l2.4 3.2c.378.504.97.8 1.6.8z" fill="#ffd55d"/><path d="m53 20 3.414-3.414c.375-.376.884-.586 1.414-.586h4.172l-2.4 3.2c-.378.503-.97.8-1.6.8z" fill="#ffe078"/><path d="m53 20-3.414-3.414c-.375-.376-.884-.586-1.414-.586h-4.172l2.4 3.2c.378.504.97.8 1.6.8z" fill="#ffe078"/><path d="m51 13 .757-4.03c.143-.57.655-.97 1.243-.97.588 0 1.1.4 1.243.97l.757 4.03-2 2z" fill="#ffd55d"/><path d="m59.707 9.707-1.414-1.414-5.293 5.293-5.293-5.293-1.414 1.414 5.707 5.707v42.586h2v-42.586z" fill="#ffe693"/><g><path d="m9.172 17.561c-.844-1.247-.841-2.906.006-4.13.903-1.304 2.599-1.874 4.127-1.383l-.61 1.904c-.697-.225-1.467.031-1.873.617-.381.55-.379 1.302.006 1.87z" fill="#d2976a"/></g><g><path d="m33.578 20.039c-1.569 0-3.054-1.118-3.537-2.756l1.918-.565c.254.862 1.088 1.451 1.856 1.3.563-.106 1.052-.613 1.215-1.261l1.939.488c-.356 1.412-1.449 2.487-2.785 2.739-.201.037-.404.055-.606.055z" fill="#d2976a"/></g><g><path d="m22.283 32.439-.565-1.918c.862-.254 1.445-1.087 1.3-1.856-.106-.563-.613-1.052-1.261-1.215l.488-1.939c1.412.356 2.487 1.449 2.739 2.785.334 1.778-.852 3.598-2.701 4.143z" fill="#d2976a"/></g><g><path d="m19.492 46.459c-.726 0-1.448-.212-2.062-.637-1.303-.903-1.872-2.6-1.383-4.127l1.904.61c-.223.696.031 1.467.617 1.873.55.381 1.302.378 1.87-.006l1.121 1.656c-.62.421-1.345.631-2.067.631z" fill="#d2976a"/></g><g><path d="m32.757 39.108c-.346 0-.694-.048-1.037-.148-1.717-.5-2.859-2.197-2.717-4.037l1.994.154c-.07.901.47 1.726 1.282 1.963.687.2 1.464-.068 1.939-.664l1.562 1.248c-.76.954-1.877 1.484-3.023 1.484z" fill="#d2976a"/></g><g><path d="m30 26h2v2h-2z" fill="#d2976a"/></g><g><path d="m10 24h2v2h-2z" fill="#d2976a"/></g><g><path d="m8 40h2v2h-2z" fill="#d2976a"/></g><g><path d="m29 44h2v2h-2z" fill="#d2976a"/></g><g><path d="m21 12h2v2h-2z" fill="#d2976a"/></g><g><path d="m12.412 35.438c-.428 0-.855-.068-1.266-.207-.967-.326-1.722-1.001-2.071-1.851-.569-1.389-.034-3.101 1.303-4.163l1.244 1.565c-.71.565-.89 1.369-.697 1.838.126.309.448.576.86.715.554.188 1.175.115 1.709-.198l1.012 1.725c-.649.381-1.373.576-2.094.576z" fill="#d2976a"/></g></g></svg>