<svg id="Capa_1" enable-background="new 0 0 512 512" height="512" viewBox="0 0 512 512" width="512" xmlns="http://www.w3.org/2000/svg" xmlns:xlink="http://www.w3.org/1999/xlink"><linearGradient id="lg1"><stop offset="0" stop-color="#78a91f"/><stop offset=".1553" stop-color="#6da423"/><stop offset=".428" stop-color="#50992e"/><stop offset=".7835" stop-color="#218741"/><stop offset="1" stop-color="#017b4e"/></linearGradient><linearGradient id="SVGID_1_" gradientUnits="userSpaceOnUse" x1="246.328" x2="265.123" xlink:href="#lg1" y1="236.165" y2="351.146"/><linearGradient id="lg2"><stop offset="0" stop-color="#017b4e" stop-opacity="0"/><stop offset=".473" stop-color="#01774b" stop-opacity=".473"/><stop offset=".8807" stop-color="#016d44" stop-opacity=".881"/><stop offset="1" stop-color="#026841"/></linearGradient><linearGradient id="SVGID_00000032637154803237327710000017335285895774562713_" gradientUnits="userSpaceOnUse" x1="281.124" x2="217.737" xlink:href="#lg2" y1="299.259" y2="210.076"/><linearGradient id="SVGID_00000005955971827064174550000012719678234109062786_" gradientUnits="userSpaceOnUse" x1="446.878" x2="395.776" xlink:href="#lg2" y1="360.699" y2="297.312"/><linearGradient id="SVGID_00000117652509171734626680000017452507006660965821_" gradientUnits="userSpaceOnUse" x1="360.403" x2="326.498" xlink:href="#lg2" y1="284.026" y2="257.492"/><linearGradient id="SVGID_00000181805453616336216160000007148185986861302663_" gradientUnits="userSpaceOnUse" x1="275.957" x2="229.769" xlink:href="#lg2" y1="253.543" y2="228.483"/><linearGradient id="lg3"><stop offset="0" stop-color="#d1f19e"/><stop offset="1" stop-color="#78a91f"/></linearGradient><linearGradient id="SVGID_00000014607637729672218060000014333812798648806553_" gradientUnits="userSpaceOnUse" x1="240.84" x2="196.986" xlink:href="#lg3" y1="293.6" y2="336.718"/><linearGradient id="lg4"><stop offset="0" stop-color="#026841" stop-opacity="0"/><stop offset=".3243" stop-color="#046842" stop-opacity=".324"/><stop offset=".5509" stop-color="#0e6546" stop-opacity=".551"/><stop offset=".7476" stop-color="#1d614c" stop-opacity=".748"/><stop offset=".9263" stop-color="#335c54" stop-opacity=".926"/><stop offset="1" stop-color="#3e5959"/></linearGradient><linearGradient id="SVGID_00000106844266173830500250000015977012013778502785_" gradientUnits="userSpaceOnUse" x1="203.884" x2="161.872" xlink:href="#lg4" y1="313.261" y2="273.46"/><linearGradient id="SVGID_00000018933071343615661450000006037585430913956741_" gradientUnits="userSpaceOnUse" x1="253.85" x2="355.564" xlink:href="#lg3" y1="324.573" y2="371.744"/><linearGradient id="SVGID_00000111886743897148337930000012528097846323887017_" gradientUnits="userSpaceOnUse" x1="165.994" x2="129.878" xlink:href="#lg4" y1="318.276" y2="284.371"/><linearGradient id="SVGID_00000060743148761280547450000018402022246094736310_" gradientUnits="userSpaceOnUse" x1="300.556" x2="344.042" xlink:href="#lg4" y1="381.495" y2="401.395"/><linearGradient id="SVGID_00000033360955332627211850000000866254436821394049_" gradientUnits="userSpaceOnUse" x1="349.011" x2="386.969" xlink:href="#lg4" y1="318.191" y2="293.5"/><linearGradient id="SVGID_00000088109312153700904360000006059107010714170794_" gradientUnits="userSpaceOnUse" x1="252.39" x2="221.434" xlink:href="#lg4" y1="330.949" y2="332.423"/><linearGradient id="SVGID_00000101802679156201869470000010301968152527304107_" gradientUnits="userSpaceOnUse" x1="269.861" x2="319.244" xlink:href="#lg4" y1="277.391" y2="280.339"/><linearGradient id="SVGID_00000028304624115920912070000001600484620173310594_" gradientUnits="userSpaceOnUse" x1="263.537" x2="299.284" xlink:href="#lg4" y1="291.832" y2="245.028"/><linearGradient id="SVGID_00000039841399853284324690000005152778695355543938_" gradientUnits="userSpaceOnUse" x1="251.237" x2="251.237" xlink:href="#lg4" y1="444.189" y2="517.458"/><linearGradient id="SVGID_00000005980157292881997260000011010963134496528297_" gradientUnits="userSpaceOnUse" x1="202.096" x2="146.707" xlink:href="#lg4" y1="385.456" y2="403.919"/><linearGradient id="SVGID_00000058584836417049385310000014803200349065257900_" gradientUnits="userSpaceOnUse" x1="192.622" x2="325.292" xlink:href="#lg1" y1="79.726" y2="373.812"/><linearGradient id="SVGID_00000181051765394770814440000000965225247564889759_" gradientUnits="userSpaceOnUse" x1="304.262" x2="338.535" xlink:href="#lg2" y1="168.642" y2="251.561"/><linearGradient id="SVGID_00000030465609010702613600000013263679025915272067_" gradientUnits="userSpaceOnUse" x1="216.069" x2="208.699" xlink:href="#lg2" y1="108.749" y2="164.765"/><linearGradient id="SVGID_00000034078599827303358030000011103752148290029743_" gradientUnits="userSpaceOnUse" x1="404.324" x2="360.101" xlink:href="#lg2" y1="235.945" y2="267.884"/><linearGradient id="SVGID_00000017485331069874548170000017006966370826276993_" gradientUnits="userSpaceOnUse" x1="407.763" x2="476.555" xlink:href="#lg2" y1="203.375" y2="272.167"/><linearGradient id="SVGID_00000013165892832448730830000018221869081000381863_" gradientUnits="userSpaceOnUse" x1="180.843" x2="239.807" xlink:href="#lg2" y1="196.066" y2="233.41"/><linearGradient id="SVGID_00000099640182021061990940000012190366783217231275_" gradientUnits="userSpaceOnUse" x1="60.626" x2="37.777" xlink:href="#lg2" y1="178.95" y2="143.571"/><linearGradient id="SVGID_00000119838066482951921590000004026796426569194670_" gradientUnits="userSpaceOnUse" x1="91.754" x2="123.447" xlink:href="#lg2" y1="229.061" y2="290.974"/><linearGradient id="SVGID_00000061432117863144430630000015247052574273142206_" gradientUnits="userSpaceOnUse" x1="113.399" x2="133.299" xlink:href="#lg2" y1="93.421" y2="44.775"/><linearGradient id="SVGID_00000024704137334872906040000001412514369720840123_" gradientUnits="userSpaceOnUse" x1="395.874" x2="458.769" xlink:href="#lg2" y1="127.393" y2="145.082"/><linearGradient id="SVGID_00000020383928576695191350000006918463517434446264_" gradientUnits="userSpaceOnUse" x1="329.612" x2="373.098" xlink:href="#lg2" y1="88.159" y2="62.362"/><linearGradient id="SVGID_00000132079440008219011720000005357291188429057925_" gradientUnits="userSpaceOnUse" x1="311.909" x2="289.798" xlink:href="#lg2" y1="74.393" y2="43.437"/><g><path d="m93.142 219.221c-.665-3.251-1.014-6.618-1.014-10.066 0-27.594 22.369-49.964 49.964-49.964 7.006 0 13.671 1.447 19.723 4.051 6.035-14.866 20.61-25.354 37.643-25.354 8.32 0 16.053 2.506 22.493 6.798 10.198-23.01 33.223-39.07 60.012-39.07 28.704 0 53.088 18.436 61.998 44.107 7.646-4.751 16.663-7.502 26.327-7.502 27.594 0 49.964 22.37 49.964 49.964 0 9.612-2.72 18.585-7.424 26.204 22.838 10.27 38.749 33.203 38.749 59.867 0 36.244-29.382 65.626-65.626 65.626-25.924 0-48.331-15.036-58.993-36.859-4.361 1.243-8.959 1.923-13.718 1.923-20.316 0-37.788-12.133-45.597-29.542-11.852 17.058-31.576 28.235-53.921 28.235-11.21 0-21.76-2.817-30.991-7.772-8.767 25.928-33.277 44.601-62.165 44.601-36.244 0-65.626-29.382-65.626-65.626-.003-26.453 15.656-49.234 38.202-59.621z" fill="url(#SVGID_1_)"/><path d="m93.142 219.221c-.665-3.251-1.014-6.618-1.014-10.066 0-27.594 22.369-49.964 49.964-49.964 7.006 0 13.671 1.447 19.723 4.051 6.035-14.866 20.61-25.354 37.643-25.354 8.32 0 16.053 2.506 22.493 6.798 10.198-23.01 33.223-39.07 60.012-39.07 28.704 0 53.088 18.436 61.998 44.107 7.646-4.751 16.663-7.502 26.327-7.502 27.594 0 49.964 22.37 49.964 49.964 0 9.612-2.72 18.585-7.424 26.204 22.838 10.27 38.749 33.203 38.749 59.867 0 36.244-29.382 65.626-65.626 65.626-25.924 0-48.331-15.036-58.993-36.859-4.361 1.243-8.959 1.923-13.718 1.923-20.316 0-37.788-12.133-45.597-29.542-11.852 17.058-31.576 28.235-53.921 28.235-11.21 0-21.76-2.817-30.991-7.772-8.767 25.928-33.277 44.601-62.165 44.601-36.244 0-65.626-29.382-65.626-65.626-.003-26.453 15.656-49.234 38.202-59.621z" fill="url(#SVGID_00000032637154803237327710000017335285895774562713_)"/><path d="m345.317 328.471c0 .45.025.893.034 1.341 11.169 8.811 25.268 14.071 40.598 14.071 36.245 0 65.627-29.382 65.627-65.626 0-2.459-.137-4.886-.401-7.274-10.739-6.984-23.546-11.057-37.312-11.057-37.857-.001-68.546 30.688-68.546 68.545z" fill="url(#SVGID_00000005955971827064174550000012719678234109062786_)"/><path d="m323.697 196.047c-32.837 0-59.456 26.619-59.456 59.456 0 16.862 7.031 32.072 18.307 42.892 8.467 6.609 19.115 10.551 30.69 10.551 4.76 0 9.358-.68 13.719-1.923 1.261 2.582 2.693 5.065 4.269 7.444 29.279-3.703 51.927-28.68 51.927-58.965-.001-32.836-26.62-59.455-59.456-59.455z" fill="url(#SVGID_00000117652509171734626680000017452507006660965821_)"/><circle cx="246.06" cy="237.322" fill="url(#SVGID_00000181805453616336216160000007148185986861302663_)" r="58.473"/><path d="m149.127 227.549s70.584 45.505 70.584 175.595h68.607s-21.228-131.696-112.423-185.231z" fill="url(#SVGID_00000014607637729672218060000014333812798648806553_)"/><path d="m149.127 227.549s70.584 45.505 70.584 175.595h68.607s-21.228-131.696-112.423-185.231z" fill="url(#SVGID_00000106844266173830500250000015977012013778502785_)"/><g><path d="m380.562 256.977c-32.977 19.361-59.047 44.203-79.626 70.757 15.096-109.093 52.198-160.9 52.198-160.9l-40.38-18.942c-48.06 70.896-70.716 149.444-80.996 215.382-23.296-40.377-55.732-80.123-100.32-106.298l-36.853 13.267s85.199 54.926 96.047 208.948c1.303 18.501 16.776 32.806 35.323 32.806h46.865c18.366 0 33.718-14.04 35.283-32.339 12.646-147.933 109.313-209.415 109.313-209.415z" fill="url(#SVGID_00000018933071343615661450000006037585430913956741_)"/><path d="m131.438 256.977-36.853 13.267s33.138 21.369 60.712 74.811h65.257c-22.179-33.862-51.268-65.86-89.116-88.078z" fill="url(#SVGID_00000111886743897148337930000012528097846323887017_)"/><path d="m417.416 270.247s-55.356 35.205-87.77 116.451c-10.37 25.983-18.383 56.669-21.495 92.423-.021.176-.041.362-.052.538-1.561 18.3-16.915 32.341-35.278 32.341h-47.044s6.131-59.668 38.545-125.301c23.046-46.661 59.378-96.331 116.244-129.727z" fill="url(#SVGID_00000060743148761280547450000018402022246094736310_)"/><path d="m300.948 327.737 38.015 38.015c32.673-66.383 78.454-95.504 78.454-95.504l-36.849-13.276c-32.979 19.367-59.04 44.212-79.62 70.765z" fill="url(#SVGID_00000033360955332627211850000000866254436821394049_)"/><path d="m294.669 420.115c-.083 25.042 1.044 52.017 3.732 80.956-3.505 3.67-7.806 6.586-12.604 8.468-1.768-9.543-9.119-45.844-26.603-89.424-7.279-18.145-16.315-37.563-27.43-56.835 10.277-65.944 32.93-144.491 80.987-215.387l40.385 18.942c.001-.001-57.909 80.863-58.467 253.28z" fill="url(#SVGID_00000088109312153700904360000006059107010714170794_)"/><path d="m353.137 166.834s-37.097 51.81-52.193 160.9c-14.92 19.231-26.934 39.362-36.622 58.965-3.639 7.372-6.948 14.682-9.957 21.826-6.338-14.702-13.824-30.025-22.602-45.245 10.277-65.944 32.93-144.491 80.987-215.387z" fill="url(#SVGID_00000101802679156201869470000010301968152527304107_)"/><path d="m239.815 321.1h62.09c15.646-104.551 51.233-154.266 51.233-154.266l-40.385-18.942c-38.16 56.295-60.291 117.407-72.938 173.208z" fill="url(#SVGID_00000028304624115920912070000001600484620173310594_)"/><path d="m172.819 386.698c8.65 25.772 15.271 56.414 17.813 92.493 1.303 18.501 16.776 32.806 35.323 32.806h46.865c18.366 0 33.718-14.04 35.283-32.339 3.076-35.988 11.132-66.846 21.552-92.961h-156.836z" fill="url(#SVGID_00000039841399853284324690000005152778695355543938_)"/><path d="m259.195 420.115c17.484 43.58 24.835 79.881 26.603 89.424-4.032 1.592-8.406 2.461-12.976 2.461h-46.868c-18.549 0-34.016-14.31-35.319-32.807-10.856-154.023-96.051-208.946-96.051-208.946l36.849-13.276c44.593 26.179 77.027 65.923 100.322 106.298.003.004.01.01.01.01 11.114 19.273 20.151 38.691 27.43 56.836z" fill="url(#SVGID_00000005980157292881997260000011010963134496528297_)"/></g><g><path d="m459.886 144.661c.847-4.14 1.292-8.427 1.292-12.817 0-35.138-28.485-63.622-63.622-63.622-8.921 0-17.409 1.843-25.114 5.158-7.685-18.93-26.245-32.285-47.933-32.285-10.595 0-20.441 3.191-28.642 8.656-12.988-29.301-42.307-49.751-76.419-49.751-36.551 0-67.601 23.476-78.947 56.165-9.736-6.05-21.219-9.553-33.524-9.553-35.138 0-63.622 28.485-63.622 63.622 0 12.239 3.464 23.666 9.453 33.368-29.081 13.077-49.342 42.279-49.342 76.233 0 46.153 37.414 83.567 83.567 83.567 33.011 0 61.544-19.146 75.12-46.935 5.553 1.583 11.408 2.448 17.469 2.448 25.87 0 48.118-15.45 58.062-37.618 15.092 21.721 40.208 35.953 68.662 35.953 14.275 0 27.709-3.587 39.463-9.896 11.164 33.016 42.374 56.794 79.159 56.794 46.153 0 83.567-37.414 83.567-83.567 0-33.684-19.94-62.693-48.649-75.92z" fill="url(#SVGID_00000058584836417049385310000014803200349065257900_)"/><circle cx="306.345" cy="173.683" fill="url(#SVGID_00000181051765394770814440000000965225247564889759_)" r="83.567"/><path d="m303.013 83.562c0 2.233-.083 4.446-.269 6.638-36.88 1.561-67.577 27.027-76.976 61.301-11.59-12.211-27.978-19.831-46.144-19.831-8.768 0-17.122 1.778-24.721 4.984-11.88-14.434-19.024-32.931-19.024-53.092 0-46.144 37.417-83.562 83.572-83.562 46.154 0 83.562 37.418 83.562 83.562z" fill="url(#SVGID_00000030465609010702613600000013263679025915272067_)"/><path d="m508.536 220.578c0 46.154-37.418 83.572-83.572 83.572-36.777 0-68.012-23.77-79.178-56.783 26.262-14.082 44.128-41.802 44.128-73.688 0-9.367-1.541-18.383-4.394-26.789 11.745-6.297 25.176-9.874 39.444-9.874 46.155 0 83.572 37.407 83.572 83.562z" fill="url(#SVGID_00000034078599827303358030000011103752148290029743_)"/><path d="m508.536 220.578c0 46.154-37.418 83.572-83.572 83.572-36.777 0-68.012-23.77-79.178-56.783 26.262-14.082 44.128-41.802 44.128-73.688 0-9.367-1.541-18.383-4.394-26.789 11.745-6.297 25.176-9.874 39.444-9.874 46.155 0 83.572 37.407 83.572 83.562z" fill="url(#SVGID_00000017485331069874548170000017006966370826276993_)"/><circle cx="179.621" cy="195.293" fill="url(#SVGID_00000013165892832448730830000018221869081000381863_)" r="63.622"/><path d="m170.598 219.833c0 46.154-37.418 83.572-83.562 83.572-46.154 0-83.572-37.418-83.572-83.572 0-33.954 20.255-63.173 49.329-76.252 11.197 18.166 31.276 30.273 54.188 30.273 14.671 0 28.174-4.963 38.938-13.307 15.239 15.127 24.679 36.106 24.679 59.286z" fill="url(#SVGID_00000099640182021061990940000012190366783217231275_)"/><path d="m170.598 219.833c0 46.154-37.418 83.572-83.562 83.572-46.154 0-83.572-37.418-83.572-83.572 0-33.954 20.255-63.173 49.329-76.252 11.197 18.166 31.276 30.273 54.188 30.273 14.671 0 28.174-4.963 38.938-13.307 15.239 15.127 24.679 36.106 24.679 59.286z" fill="url(#SVGID_00000119838066482951921590000004026796426569194670_)"/><path d="m161.22 143.488c-11.187 18.218-31.297 30.366-54.24 30.366-35.143 0-63.628-28.485-63.628-63.617 0-35.143 28.485-63.628 63.628-63.628 12.293 0 23.78 3.495 33.51 9.543-2.988 8.582-4.611 17.804-4.611 27.409 0 23.512 9.708 44.759 25.341 59.927z" fill="url(#SVGID_00000061432117863144430630000015247052574273142206_)"/><path d="m461.182 131.846c0 4.384-.445 8.664-1.292 12.8-10.629-4.901-22.457-7.63-34.926-7.63-30.408 0-57.031 16.243-71.651 40.54-11.952-11.57-19.376-27.771-19.376-45.71 0-35.143 28.485-63.628 63.617-63.628 35.144 0 63.628 28.485 63.628 63.628z" fill="url(#SVGID_00000024704137334872906040000001412514369720840123_)"/><path d="m333.937 131.846c0 3.97.362 7.858 1.065 11.632-3.381.693-6.896 1.065-10.494 1.065-28.567 0-51.727-23.16-51.727-51.727s23.16-51.717 51.727-51.717c21.681 0 40.261 13.338 47.943 32.269-22.653 9.739-38.514 32.258-38.514 58.478z" fill="url(#SVGID_00000020383928576695191350000006918463517434446264_)"/><path d="m333.937 131.846c0 3.97.362 7.858 1.065 11.632-3.381.693-6.896 1.065-10.494 1.065-13.855 0-26.427-5.449-35.722-14.31 8.974-13.327 14.227-29.394 14.227-46.671 0-12.035-2.543-23.48-7.134-33.82 8.199-5.459 18.042-8.644 28.629-8.644 21.681 0 40.261 13.338 47.943 32.269-22.653 9.74-38.514 32.259-38.514 58.479z" fill="url(#SVGID_00000132079440008219011720000005357291188429057925_)"/></g></g></svg>