<svg id="Capa_1" enable-background="new 0 0 497 497" height="512" viewBox="0 0 497 497" width="512" xmlns="http://www.w3.org/2000/svg"><g><path d="m251.562 283.57c-.968.448-2.015.672-3.062.672l-15-48.992 15-19.482c3.31-1.916 7.15-3.018 11.25-3.018 12.426 0 22.5 10.074 22.5 22.5 0 21.479-12.583 39.937-30.688 48.32z" fill="#ff974f"/><path d="m245.438 283.57c-18.104-8.383-30.688-26.841-30.688-48.32 0-12.426 10.074-22.5 22.5-22.5 4.1 0 7.94 1.102 11.25 3.018v68.475c-1.047-.001-2.094-.225-3.062-.673z" fill="#ffb35c"/><path d="m251.562 426.18c-.968-.448-2.015-.672-3.062-.672l-15 48.992 15 19.482c3.31 1.916 7.15 3.018 11.25 3.018 12.426 0 22.5-10.074 22.5-22.5 0-21.479-12.583-39.937-30.688-48.32z" fill="#ff974f"/><path d="m245.438 426.18c-18.104 8.383-30.688 26.841-30.688 48.32 0 12.426 10.074 22.5 22.5 22.5 4.1 0 7.94-1.102 11.25-3.018v-68.475c-1.047.001-2.094.225-3.062.673z" fill="#ffb35c"/><path d="m251.562 70.82c-.968.448-2.015.672-3.062.672l-15-48.992 15-19.482c3.31-1.916 7.15-3.018 11.25-3.018 12.426 0 22.5 10.074 22.5 22.5 0 21.479-12.583 39.937-30.688 48.32z" fill="#ffb35c"/><path d="m245.438 70.82c-18.104-8.383-30.688-26.841-30.688-48.32 0-12.426 10.074-22.5 22.5-22.5 4.1 0 7.94 1.102 11.25 3.018v68.475c-1.047-.001-2.094-.225-3.062-.673z" fill="#ff974f"/><path d="m328.352 407.255c-1.067.016-2.107.269-3.051.723l7.742 50.649 21.968 11.045c3.814.29 7.751-.384 11.445-2.162 11.196-5.392 15.901-18.838 10.509-30.034-9.319-19.353-28.665-30.523-48.613-30.221z" fill="#ff7a41"/><path d="m322.833 409.913c-12.674 15.408-16.003 37.498-6.683 56.85 5.392 11.196 18.838 15.901 30.034 10.509 3.694-1.779 6.675-4.438 8.827-7.6l-29.71-61.694c-.944.455-1.79 1.111-2.468 1.935z" fill="#ff974f"/><path d="m174.167 87.087c-.678.824-1.524 1.48-2.467 1.934l-34.772-37.632 5.061-24.061c2.151-3.162 5.133-5.821 8.827-7.6 11.196-5.392 24.643-.686 30.034 10.509 9.319 19.352 5.991 41.442-6.683 56.85z" fill="#ffb35c"/><path d="m168.648 89.745c-19.949.303-39.294-10.868-48.614-30.22-5.392-11.196-.686-24.643 10.509-30.034 3.694-1.779 7.632-2.452 11.445-2.162l29.71 61.694c-.942.453-1.983.706-3.05.722z" fill="#ff974f"/><path d="m389.325 356.887c-.954.477-1.782 1.156-2.435 1.975l28.952 42.274 24.584.42c3.562-1.394 6.817-3.709 9.374-6.914 7.748-9.715 6.153-23.872-3.563-31.62-16.793-13.392-39.07-15.063-56.912-6.135z" fill="#ff974f"/><path d="m385.506 361.676c-4.734 19.381 1.852 40.728 18.645 54.12 9.715 7.748 23.872 6.153 31.62-3.563 2.556-3.205 4.089-6.895 4.655-10.677l-53.536-42.693c-.653.818-1.131 1.776-1.384 2.813z" fill="#ffb35c"/><path d="m111.494 135.324c-.253 1.036-.731 1.995-1.384 2.813l-47.656-18.819-5.88-23.875c.566-3.782 2.099-7.472 4.655-10.677 7.748-9.715 21.904-11.31 31.62-3.563 16.793 13.394 23.379 34.74 18.645 54.121z" fill="#ffd06a"/><path d="m107.675 140.113c-17.842 8.928-40.119 7.257-56.912-6.135-9.715-7.748-11.31-21.904-3.563-31.62 2.556-3.205 5.812-5.521 9.374-6.914l53.536 42.693c-.653.819-1.481 1.498-2.435 1.976z" fill="#ffb35c"/><path d="m422.406 285.052c-.652.844-1.104 1.815-1.337 2.836l44.426 25.526 22.332-10.289c2.604-2.801 4.533-6.299 5.445-10.296 2.765-12.115-4.814-24.177-16.929-26.943-20.94-4.78-41.735 3.381-53.937 19.166z" fill="#ff7a41"/><path d="m421.044 291.023c4.144 19.516 19.339 35.891 40.28 40.67 12.115 2.765 24.177-4.814 26.943-16.929.912-3.997.692-7.986-.439-11.639l-66.758-15.237c-.233 1.021-.248 2.092-.026 3.135z" fill="#ff974f"/><path d="m75.956 205.977c.222 1.043.207 2.114-.026 3.135l-51.102 3.722-15.656-18.959c-1.131-3.653-1.351-7.642-.439-11.639 2.765-12.115 14.828-19.694 26.943-16.929 20.941 4.779 36.136 21.154 40.28 40.67z" fill="#ffb35c"/><path d="m74.593 211.948c-12.201 15.785-32.997 23.946-53.937 19.166-12.115-2.765-19.694-14.828-16.929-26.943.912-3.997 2.841-7.496 5.445-10.296l66.758 15.237c-.233 1.021-.684 1.992-1.337 2.836z" fill="#ff974f"/><path d="m421.044 205.977c-.222 1.043-.207 2.114.026 3.135l51.102 3.722 15.656-18.959c1.131-3.653 1.351-7.642.439-11.639-2.765-12.115-14.828-19.694-26.943-16.929-20.941 4.779-36.136 21.154-40.28 40.67z" fill="#ff7a41"/><path d="m422.406 211.948c12.201 15.785 32.997 23.946 53.937 19.166 12.115-2.765 19.694-14.828 16.929-26.943-.912-3.997-2.841-7.496-5.445-10.296l-66.758 15.237c.234 1.021.685 1.992 1.337 2.836z" fill="#ff974f"/><path d="m74.593 285.052c.652.844 1.104 1.815 1.337 2.836l-44.426 25.526-22.332-10.289c-2.604-2.801-4.533-6.299-5.445-10.296-2.765-12.115 4.814-24.177 16.929-26.943 20.941-4.78 41.736 3.381 53.937 19.166z" fill="#ffb35c"/><path d="m75.956 291.023c-4.144 19.516-19.339 35.891-40.28 40.67-12.115 2.765-24.177-4.814-26.943-16.929-.912-3.997-.692-7.986.439-11.639l66.758-15.237c.233 1.021.248 2.092.026 3.135z" fill="#ff974f"/><path d="m385.506 135.324c.253 1.036.731 1.995 1.384 2.813l47.656-18.819 5.88-23.875c-.566-3.782-2.099-7.472-4.655-10.677-7.748-9.715-21.904-11.31-31.62-3.563-16.793 13.394-23.379 34.74-18.645 54.121z" fill="#ff7a41"/><path d="m389.325 140.113c17.842 8.928 40.119 7.257 56.912-6.135 9.715-7.748 11.31-21.904 3.563-31.62-2.556-3.205-5.812-5.521-9.374-6.914l-53.536 42.693c.653.819 1.481 1.498 2.435 1.976z" fill="#ff974f"/><path d="m107.675 356.887c.954.477 1.782 1.156 2.435 1.975l-28.952 42.274-24.584.42c-3.562-1.394-6.817-3.709-9.374-6.914-7.748-9.715-6.153-23.872 3.563-31.62 16.793-13.392 39.07-15.063 56.912-6.135z" fill="#ffb35c"/><path d="m111.494 361.676c4.734 19.381-1.852 40.728-18.645 54.12-9.715 7.748-23.872 6.153-31.62-3.563-2.556-3.205-4.089-6.895-4.655-10.677l53.536-42.693c.653.818 1.131 1.776 1.384 2.813z" fill="#ff974f"/><path d="m322.833 87.087c.678.824 1.524 1.48 2.467 1.934l34.772-37.632-5.061-24.061c-2.151-3.162-5.133-5.821-8.827-7.6-11.196-5.392-24.643-.686-30.034 10.509-9.319 19.352-5.991 41.442 6.683 56.85z" fill="#ff974f"/><path d="m328.352 89.745c19.949.303 39.294-10.868 48.614-30.22 5.392-11.196.686-24.643-10.509-30.034-3.694-1.779-7.632-2.452-11.445-2.162l-29.71 61.694c.942.453 1.983.706 3.05.722z" fill="#ffb35c"/><path d="m168.648 407.255c1.067.016 2.107.269 3.051.723l-7.743 50.649-21.968 11.045c-3.814.29-7.751-.384-11.445-2.162-11.196-5.392-15.901-18.838-10.509-30.034 9.32-19.353 28.666-30.523 48.614-30.221z" fill="#ffb35c"/><path d="m174.167 409.913c12.674 15.408 16.003 37.498 6.683 56.85-5.392 11.196-18.838 15.901-30.034 10.509-3.694-1.779-6.675-4.438-8.827-7.6l29.71-61.694c.944.455 1.79 1.111 2.468 1.935z" fill="#ff974f"/><path d="m251.562 319.805c-.968-.448-2.015-.672-3.062-.672l-15 48.992 15 19.482c3.31 1.916 7.15 3.018 11.25 3.018 12.426 0 22.5-10.074 22.5-22.5 0-21.479-12.583-39.937-30.688-48.32z" fill="#ff974f"/><path d="m245.438 319.805c-18.104 8.383-30.688 26.841-30.688 48.32 0 12.426 10.074 22.5 22.5 22.5 4.1 0 7.94-1.102 11.25-3.018v-68.475c-1.047.001-2.094.225-3.062.673z" fill="#ffb35c"/><path d="m306.151 290.572c-.954.477-1.782 1.156-2.435 1.975l28.945 42.278 24.584.423c3.562-1.393 6.818-3.708 9.375-6.913 7.749-9.714 6.156-23.871-3.558-31.62-16.791-13.394-39.067-15.068-56.911-6.143z" fill="#ff974f"/><path d="m302.332 295.36c-4.737 19.381 1.846 40.728 18.637 54.122 9.714 7.749 23.871 6.156 31.62-3.558 2.557-3.205 4.09-6.894 4.657-10.676l-53.529-42.701c-.654.819-1.132 1.777-1.385 2.813z" fill="#ffb35c"/><path d="m317.341 229.668c-.222 1.043-.208 2.114.025 3.135l51.101 3.737 15.662-18.954c1.132-3.653 1.353-7.642.442-11.639-2.762-12.116-14.822-19.699-26.938-16.937-20.942 4.773-36.142 21.144-40.292 40.658z" fill="#ff7a41"/><path d="m318.702 235.64c12.197 15.789 32.99 23.955 53.932 19.182 12.116-2.762 19.699-14.822 16.937-26.938-.911-3.997-2.839-7.496-5.442-10.298l-66.763 15.217c.233 1.021.684 1.993 1.336 2.837z" fill="#ff974f"/><path d="m276.708 182.94c.677.824 1.523 1.481 2.467 1.936l34.788-37.617-5.051-24.064c-2.15-3.163-5.13-5.823-8.823-7.604-11.193-5.397-24.642-.697-30.039 10.496-9.328 19.349-6.009 41.44 6.658 56.853z" fill="#ff974f"/><path d="m282.225 185.6c19.949.311 39.299-10.85 48.627-30.198 5.397-11.193.697-24.642-10.496-30.039-3.693-1.78-7.631-2.456-11.444-2.168l-29.738 61.68c.944.456 1.985.709 3.051.725z" fill="#ffb35c"/><path d="m214.841 185.565c1.067-.016 2.108-.267 3.051-.721l-7.712-50.654-21.961-11.058c-3.813-.292-7.752.379-11.446 2.156-11.199 5.385-15.912 18.829-10.527 30.028 9.307 19.358 28.646 30.54 48.595 30.249z" fill="#ffb35c"/><path d="m220.36 182.911c12.684-15.4 16.025-37.488 6.717-56.846-5.385-11.199-18.829-15.912-30.028-10.527-3.695 1.777-6.678 4.434-8.831 7.595l29.673 61.712c.945-.455 1.791-1.111 2.469-1.934z" fill="#ffd06a"/><path d="m178.311 235.566c.653-.844 1.105-1.814 1.339-2.835l-44.407-25.559-22.339 10.272c-2.606 2.799-4.538 6.296-5.453 10.292-2.774 12.113 4.796 24.181 16.909 26.955 20.937 4.796 41.738-3.349 53.951-19.125z" fill="#ff974f"/><path d="m179.678 229.596c-4.129-19.519-19.313-35.905-40.25-40.701-12.113-2.774-24.181 4.796-26.955 16.909-.915 3.996-.698 7.985.43 11.64l66.747 15.287c.234-1.02.249-2.091.028-3.135z" fill="#ffb35c"/><path d="m194.619 295.304c-.252-1.037-.729-1.995-1.381-2.815l-47.673 18.776-5.901 23.869c.563 3.783 2.092 7.474 4.645 10.681 7.739 9.722 21.894 11.33 31.617 3.591 16.805-13.376 23.409-34.717 18.693-54.102z" fill="#ffb35c"/><path d="m190.805 290.512c-17.834-8.944-40.112-7.293-56.917 6.083-9.722 7.739-11.33 21.894-3.591 31.617 2.553 3.208 5.807 5.526 9.367 6.923l53.574-42.645c-.652-.82-1.48-1.5-2.433-1.978z" fill="#ffd06a"/></g></svg>