<?xml version="1.0" encoding="UTF-8" standalone="no"?>
<svg
   xmlns:dc="http://purl.org/dc/elements/1.1/"
   xmlns:cc="http://creativecommons.org/ns#"
   xmlns:rdf="http://www.w3.org/1999/02/22-rdf-syntax-ns#"
   xmlns:svg="http://www.w3.org/2000/svg"
   xmlns="http://www.w3.org/2000/svg"
   xmlns:xlink="http://www.w3.org/1999/xlink"
   xmlns:sodipodi="http://sodipodi.sourceforge.net/DTD/sodipodi-0.dtd"
   xmlns:inkscape="http://www.inkscape.org/namespaces/inkscape"
   width="62.72453mm"
   height="64.15593mm"
   viewBox="0 0 62.72453 64.15593"
   version="1.1"
   id="svg8"
   sodipodi:docname="Hamburger bun.svg"
   inkscape:version="0.92.1 r15371">
  <title
     id="title6059">Hamburger bun with sesame</title>
  <sodipodi:namedview
     pagecolor="#ffffff"
     bordercolor="#666666"
     borderopacity="1"
     objecttolerance="10"
     gridtolerance="10"
     guidetolerance="10"
     inkscape:pageopacity="0"
     inkscape:pageshadow="2"
     inkscape:window-width="640"
     inkscape:window-height="480"
     id="namedview99"
     showgrid="false"
     inkscape:current-layer="svg8" />
  <defs
     id="defs2">
    <linearGradient
       inkscape:collect="always"
       id="linearGradient6055">
      <stop
         style="stop-color:#5f3700;stop-opacity:0.0552764"
         offset="0"
         id="stop6051" />
      <stop
         style="stop-color:#bc610c;stop-opacity:1"
         offset="1"
         id="stop6053" />
    </linearGradient>
    <filter
       inkscape:collect="always"
       style="color-interpolation-filters:sRGB"
       id="filter6039"
       x="-0.002474336"
       width="1.004949"
       y="-0.00233"
       height="1.00466">
      <feGaussianBlur
         inkscape:collect="always"
         stdDeviation="0.05673902"
         id="feGaussianBlur6041" />
    </filter>
    <radialGradient
       inkscape:collect="always"
       xlink:href="#linearGradient6055"
       id="radialGradient6057"
       cx="69.77731"
       cy="96.91682"
       fx="69.77731"
       fy="96.91682"
       r="31.36227"
       gradientTransform="matrix(1.745485,0.1945821,-0.170604,1.530391,-34.67197,-70.94491)"
       gradientUnits="userSpaceOnUse" />
  </defs>
  <metadata
     id="metadata5">
    <rdf:RDF>
      <cc:Work
         rdf:about="">
        <dc:format>image/svg+xml</dc:format>
        <dc:type
           rdf:resource="http://purl.org/dc/dcmitype/StillImage" />
        <dc:title>Hamburger bun with sesame</dc:title>
        <dc:creator>
          <cc:Agent>
            <dc:title>Krzysztof &quot;Niszczyciel Kosmosów&quot; Blachnicki</dc:title>
          </cc:Agent>
        </dc:creator>
        <dc:subject>
          <rdf:Bag>
            <rdf:li>bun;roll;fast food;junk food;bread;hamburger</rdf:li>
          </rdf:Bag>
        </dc:subject>
        <dc:description>Hamburger bun (roll) with seasame. Both the 3D effect (additional overlay object) and sesame (single path) can be easy. It can be used as the center of the flower, as that's the original meaning.</dc:description>
      </cc:Work>
    </rdf:RDF>
  </metadata>
  <path
     inkscape:connector-curvature="0"
     id="insideFlower"
     d="M 62.59343,31.28187 C 60.99733,48.47813 47.52404,64.15593 30.25382,64.15593 12.9836,64.15593 0.9879,50.38103 0.05236,31.28187 -0.88639,12.11713 10.84542,0.54587 31.3229,0.01133 48.58725,-0.43933 64.32763,12.5981 62.59343,31.28187 Z"
     style="color:#000000;clip-rule:nonzero;display:inline;overflow:visible;visibility:visible;opacity:1;isolation:auto;mix-blend-mode:normal;color-interpolation:sRGB;color-interpolation-filters:linearRGB;solid-color:#000000;solid-opacity:1;fill:#ffca53;fill-opacity:1;fill-rule:nonzero;stroke:none;stroke-width:0.4999999;stroke-linecap:round;stroke-linejoin:round;stroke-miterlimit:4;stroke-dasharray:none;stroke-dashoffset:0;stroke-opacity:1;color-rendering:auto;image-rendering:auto;shape-rendering:auto;text-rendering:auto;enable-background:accumulate"
     inkscape:label="#path4485" />
  <g
     id="layer3"
     transform="translate(-39.77077,-56.44607)"
     style="opacity:0.839;fill:url(#radialGradient6057);fill-opacity:1;stroke:none">
    <path
       id="path5578"
       d="M 102.3642,87.72794 C 100.7681,104.9242 87.29481,120.602 70.02459,120.602 52.75437,120.602 40.75867,106.8271 39.82313,87.72794 38.88438,68.5632 50.61619,56.99194 71.09367,56.4574 88.35802,56.00674 104.0984,69.04417 102.3642,87.72794 Z"
       style="color:#000000;clip-rule:nonzero;display:inline;overflow:visible;visibility:visible;opacity:0.267;isolation:auto;mix-blend-mode:normal;color-interpolation:sRGB;color-interpolation-filters:linearRGB;solid-color:#000000;solid-opacity:1;fill:url(#radialGradient6057);fill-opacity:1;fill-rule:nonzero;stroke:none;stroke-width:0.4999999;stroke-linecap:round;stroke-linejoin:round;stroke-miterlimit:4;stroke-dasharray:none;stroke-dashoffset:0;stroke-opacity:1;color-rendering:auto;image-rendering:auto;shape-rendering:auto;text-rendering:auto;enable-background:accumulate"
       inkscape:connector-curvature="0" />
  </g>
  <path
     id="use4957"
     style="color:#000000;clip-rule:nonzero;display:inline;overflow:visible;visibility:visible;opacity:0.493;isolation:auto;mix-blend-mode:normal;color-interpolation:sRGB;color-interpolation-filters:linearRGB;solid-color:#000000;solid-opacity:1;fill:#faf0d1;fill-opacity:1;fill-rule:nonzero;stroke:none;stroke-width:0.1612854;stroke-linecap:round;stroke-linejoin:round;stroke-miterlimit:4;stroke-dasharray:none;stroke-dashoffset:0;stroke-opacity:1;color-rendering:auto;image-rendering:auto;shape-rendering:auto;text-rendering:auto;enable-background:accumulate;filter:url(#filter6039)"
     d="m 14.53994,12.32528 c -0.82542,0.86507 -4.46589,1.12009 -1.86934,0.20278 0.59315,0.1666 1.63136,-1.17597 1.86934,-0.20278 z m 24.37445,34.88755 c -1.14152,-0.167 -3.13833,-1.1996 -0.7429,-0.7216 0.23963,0.1645 1.51759,0.2765 0.7429,0.7216 z M 41.6036,33.28214 c 0.23335,2.08356 -1.50237,0.81152 0,0 z M 9.43472,27.72403 c 2.03871,-1.46907 1.47546,1.04235 0,0 z m -4.81929,5.74081 c -1.27388,1.02687 -2.91202,-0.0175 -0.66819,-0.37565 0.47711,-0.58295 0.83576,0.2184 0.66819,0.37565 z m 20.84211,6.2551 c 1.06843,1.02338 0.67343,2.68275 -0.18543,0.69745 -0.20369,-0.52068 -0.45988,-0.51372 0.18543,-0.69745 z m 5.36057,-5.21288 c 0.90625,-0.76001 3.09489,-0.84634 1.1138,0.1216 -0.52542,0.0995 -1.08976,0.80913 -1.1138,-0.1216 z m -5.77484,13.40427 c -1.8518,0.1986 -1.25174,-1.5499 0,0 z m 3.20244,3.7246 c 1.29887,0.3386 1.961,1.9225 0.22784,0.7403 -0.61686,-0.3985 -0.61011,-0.2378 -0.22784,-0.7403 z m -4.80366,-8.85755 c -1.47107,-0.92208 -0.94957,-2.18476 0.18689,-0.43274 0.45058,0.24407 -0.10937,0.28916 -0.18689,0.43274 z m 9.7266,15.80995 c 0.83128,-1.6574 1.89755,-0.9655 0.37888,0.2491 l -0.37887,-0.2491 z m -10.60189,-1.0486 c 0.62886,0.7789 0.96723,2.9078 -1.5e-4,0.9695 -0.007,-0.3098 -0.78286,-1.0686 1.5e-4,-0.9695 z m 6.39152,1.9279 c -0.64031,-1.0758 0.2127,-2.5193 0.38788,-0.5273 0.38219,0.718 -0.0539,0.2635 -0.38788,0.5273 z m 17.29359,-7.0953 c 0.39898,-1.5329 1.28353,-1.0257 0.31646,0.2036 -0.0969,-0.051 -0.30429,-0.05 -0.31646,-0.2036 z M 32.36413,31.34975 c 1.76082,-0.42385 2.07047,0.88239 0.19219,0.46928 -0.61509,0.11085 0.0246,-0.25085 -0.19219,-0.46928 z m 15.92476,8.81609 c 1.38902,-0.30168 2.75872,1.04202 0.55056,0.60716 -0.65415,-0.11696 -0.75292,0.12847 -0.55056,-0.60716 z M 37.3911,58.67603 c -2.19458,1.3568 -0.46729,-1.6604 0,0 z M 55.30358,29.38284 c -1.56992,-0.91918 -0.16213,-1.86321 0,0 z m 0.92975,11.34467 c 1.25148,-0.96553 2.6649,-0.27774 0.55312,0.26623 -0.34993,0.5798 -0.78793,-0.19892 -0.55312,-0.26623 z M 40.04673,30.49789 c 0.8782,0.62653 1.72621,2.59261 0.27049,0.96969 -0.0893,-0.32135 -1.07308,-0.81328 -0.27049,-0.96969 z M 45.91606,5.76051 c 2.13945,-1.43089 1.43293,1.1876 0,0 z m 7.03765,20.19964 c -0.79472,-0.25571 -3.33386,-1.21074 -1.10106,-0.92629 0.29254,0.19644 1.97529,0.41928 1.10106,0.92629 z m -2.66509,8.1189 c 1.97048,-0.62555 -0.0511,1.24462 0,0 z m 0.91221,-23.23642 c 0.0734,0.99859 -0.94326,3.93416 -0.83348,1.46188 0.29395,-0.38534 -0.0742,-2.21976 0.83348,-1.46188 z m -4.09544,15.2369 c -1.24582,2.59538 -1.55226,-0.3188 -0.0145,-0.12374 -0.12577,0.3507 0.1455,-0.0477 0.0145,0.12374 z m 2.6309,1.80606 c -2.30388,1.43889 -0.70454,-1.02577 0,0 z M 39.88352,12.7911 c 0.23546,0.99781 -0.43589,3.04026 -0.43202,0.87275 0.11341,-0.24152 -0.18952,-1.36496 0.43202,-0.87275 z M 35.74504,2.79525 c -2.71779,-1.01963 0.3155,-1.27815 0,0 z m 5.73111,6.30596 c -0.55221,-1.6987 0.9338,-2.15563 0.46715,-0.20406 0.23582,0.43668 -0.33881,0.2929 -0.46715,0.20406 z m -27.54543,6.5777 c -1.07596,-0.90468 -0.52686,-2.83132 0.23091,-0.66414 0.29513,0.21686 0.31592,0.62545 -0.23091,0.66414 z m 13.85966,15.36933 c 0.49625,1.74069 -0.80348,1.94049 -0.43775,0.0651 l 0.43709,-0.0651 z m 5.8031,-10.7805 c 0.98539,-0.46972 4.35591,-0.71758 1.82388,0.23136 -0.50318,-0.13282 -2.22702,0.99741 -1.82388,-0.23136 z M 10.44881,16.19495 c 0.62361,1.71219 -0.54228,1.77845 -0.42972,0.0124 0.12129,-5e-4 0.33316,0.13965 0.42972,-0.0124 z M 28.6819,16.5059 c -2.27032,-0.039 -1.76216,-1.4732 0.18154,-0.50487 -0.0611,0.13052 0.046,0.46592 -0.18154,0.50487 z M 10.57978,46.15813 c -1.41842,0.3859 -2.69255,-1.2625 -0.43336,-0.622 0.39373,-0.1276 0.87028,0.066 0.43336,0.622 z m 9.32679,-23.53969 c 0.94921,1.43969 -0.1482,2.24942 -0.3942,0.37865 -0.34259,-0.27903 0.21655,-0.58891 0.3942,-0.37865 z m 0.005,18.2745 c -0.545,-1.43948 0.52837,-2.06677 0.36628,-0.20446 0.17228,0.4667 -0.23524,0.0782 -0.36628,0.20446 z M 5.39711,41.17573 c 0.26454,-2.48931 1.75746,-0.40667 0,0 z m 21.11585,18.104 c -0.87303,0.4855 -3.69424,2.0511 -1.69716,0.2506 0.3945,-0.07 1.97717,-1.4928 1.69716,-0.2506 z M 5.12887,41.63148 c -0.23272,2.45725 -1.73163,0.42522 0,0 z m 15.86284,-7.15444 c 1.38894,0.64082 1.75423,2.29103 0.0424,0.64543 -0.49302,-0.0509 -0.42826,-0.53917 -0.0424,-0.64543 z M 39.72382,25.793 c -2.01001,-2.54309 0.89757,-0.73202 0,0 z M 20.19011,49.94843 c 1.88605,1.5024 -1.34812,0.808 1.2e-4,-1e-4 z m 8.13791,-21.12458 c -0.55205,1.21737 -2.02923,1.53411 -0.5669,0.0373 0.0439,-0.43329 0.47517,-0.37605 0.5669,-0.0373 z m -1.93645,-4.91028 c 1.21361,0.74413 1.64738,2.45019 0.0311,0.75955 -0.37486,-0.46843 -0.61678,-0.36609 -0.0311,-0.75955 z m 19.62682,24.14796 c -1.15411,0.899 -2.7964,0.3379 -0.6748,-0.2813 0.68156,-0.2132 0.47397,-0.3011 0.6748,0.2813 z m 4.27889,-24.94899 c 0.99999,-0.0905 4.32077,0.1048 1.63576,0.60832 -0.33089,-0.0435 -2.59748,0.20885 -1.63576,-0.60832 z m 5.92457,11.87894 c -0.004,1.78912 -1.17456,1.28478 -0.35903,-0.14753 0.10572,0.0353 0.32188,-0.008 0.35903,0.14753 z m -13.5078,5.88734 c 1.30188,-0.13975 2.27615,1.30524 0.33339,0.5874 -0.48223,0.17163 -0.64005,-0.30901 -0.33339,-0.5874 z m 0.12341,-15.67081 c 2.30673,-0.84324 1.30127,1.26581 0,0 z m 5.24891,-6.23798 c -0.38777,1.41905 -2.02694,1.85977 -0.69758,0.16845 0.26166,-0.34346 0.36478,-0.67581 0.69758,-0.16845 z m 6.69022,15.12837 c -0.64213,-1.23334 0.47119,-2.84183 0.47642,-0.5604 0.45076,0.86895 -0.20184,0.40057 -0.47642,0.5604 z M 26.41994,16.89495 c 0.97201,2.29784 -1.13748,0.43361 0,0 z M 26.791,27.60641 c -2.0922,-1.20287 0.0979,-1.37861 0.12459,-0.16601 l -0.10479,0.0799 -0.0198,0.0861 z m 7.99969,0.10267 c 0.76591,-1.40068 1.71849,-1.15228 0.40381,0.17563 -0.0566,0.21204 -0.42121,-0.0437 -0.40381,-0.17563 z m -5.84856,-8.66576 c 0.48233,-1.62975 2.00581,-1.44133 0.569,0.0689 -0.21118,0.65239 -0.30134,-0.0908 -0.569,-0.0689 z M 15.58278,8.28579 c 0.62425,1.8897 -0.85073,1.16985 -0.22795,-0.0645 l 0.22788,0.064 z m -4.40821,29.27672 c -2.57026,-0.23359 -0.65318,-1.49244 0.1539,-0.21729 l -0.0588,0.14485 -0.0951,0.0725 z m 3.6109,-6.45382 c -0.79271,-1.9821 0.86247,-1.15671 0.21108,0.0319 l -0.21113,-0.0315 z M 5.04748,25.45301 c 0.93536,0.70719 0.72469,2.79663 -0.0722,0.99868 -0.14962,-0.31541 -0.83142,-1.20077 0.0722,-0.99868 z m 31.59003,13.3018 c 0.70882,-0.7391 2.66489,-0.7269 0.94941,0.098 -0.25539,-0.1323 -1.08416,0.85919 -0.94941,-0.098 z m 18.07815,5.83912 c -0.29024,1.5103 -2.24764,2.0008 -0.76188,0.197 0.16308,-0.4375 0.56332,-0.8758 0.76188,-0.197 z m -11.29636,7.6848 c 0.3557,-1.9026 1.45719,-1.3288 0.31491,0.2016 l -0.31488,-0.2016 z M 56.54939,28.26534 c 2.48064,0.46745 0.53025,1.41281 0,0 z m -2.38975,-9.05833 c -2.03767,-2.09059 0.85469,-1.35374 0.11716,0.0337 -0.27826,-0.23937 -0.001,0.14861 -0.11716,-0.0337 z M 44.96762,11.1074 c 1.76114,2.0836 -1.56881,0.12903 0,0 z M 32.84231,8.59536 C 31.59836,8.17006 30.49793,6.19814 32.47479,7.68004 32.87096,7.97709 33.662,8.10295 32.84231,8.59536 Z m 13.04648,24.36503 c -0.28042,1.12706 -2.02699,2.60629 -0.99082,0.57862 0.447,-0.41768 0.31953,-1.36591 0.99082,-0.57862 z M 52.74037,9.5573 c 0.89809,0.39307 3.26466,2.26744 1.00764,1.32048 -0.23379,-0.40874 -2.05338,-0.79947 -1.00764,-1.32048 z m -22.70751,30.261 c -1.71605,-0.46793 -1.55278,-2.04853 0.0581,-0.59558 0.48379,-0.001 0.24037,0.62532 -0.0581,0.59558 z m -13.34028,3.18707 c -2.03314,-0.17985 -0.72302,-1.73604 0,0 z m -1.42367,12.58216 c 2.82738,0.024 0.42949,1.5412 0,0 z m -5.41778,-2.2165 c 0.93143,-2.1297 1.05325,0.491 -9e-5,0 z m 1.83083,-22.63486 c -0.4491,-1.48311 1.0187,-2.5875 0.5389,-0.44976 0.38808,0.69143 -0.57967,0.36071 -0.5389,0.44976 z m 10.17817,-2.7444 c -0.12956,1.13379 -2.55036,3.60384 -1.26081,1.29576 0.46898,-0.17555 0.60869,-1.9746 1.26081,-1.29576 z M 9.49961,26.1911 c 1.45081,-2.86239 1.31348,0.34233 0,0 z m 25.25954,24.88173 c -0.86532,0.7553 -3.05847,1.1799 -1.0537,0.037 0.56995,-0.095 0.89173,-0.8403 1.0537,-0.037 z M 23.88327,9.57817 c -0.37965,-1.99452 0.86949,-1.97804 0.47501,-0.05 -0.13932,0.0339 -0.33529,0.17974 -0.47501,0.05 z m -6.38329,4.93629 c 0.41753,0.96046 0.49356,2.98611 -0.20373,0.917 -0.0343,-0.22602 -0.43343,-1.37755 0.20373,-0.917 z m 27.26455,-1.77141 c 1.97778,0.59838 0.5829,1.41128 -0.12467,0.15542 l 0.1247,-0.15539 z M 28.66425,10.77676 c 0.42747,1.71605 -1.02382,2.34303 -0.5444,0.23876 -0.24644,-0.41456 0.44564,-0.51989 0.5444,-0.23876 z M 16.12062,7.06501 C 14.829,8.15329 13.80961,7.40117 15.72121,6.743 c 0.43121,-0.40659 0.18754,0.23677 0.39941,0.32201 z m 12.5309,-1.8862 c -0.81485,1.67771 -0.82396,-0.82862 0,0 z m -13.2185,16.70175 c 1.15624,-0.5085 4.96183,0.69203 1.9754,0.56799 -0.57451,-0.2742 -2.32939,0.35261 -1.9754,-0.56799 z m -7.07211,1.5497 c 1.1159,0.2952 2.55741,2.05688 0.55946,0.99366 C 8.57989,24.1111 7.55169,23.89616 8.36091,23.43026 Z" />
</svg>
