<svg id="Flat" height="512" viewBox="0 0 64 64" width="512" xmlns="http://www.w3.org/2000/svg"><path d="m24.876 1a7.822 7.822 0 0 0 -7.809 7.363l-.567 9.637h5l-.639-8.307a5.143 5.143 0 0 1 4.282-5.467 1.624 1.624 0 0 0 1.357-1.6 1.624 1.624 0 0 0 -1.624-1.626z" fill="#d2d65a"/><path d="m31 25.847v-2.847a12 12 0 0 0 -12-12 12 12 0 0 0 -12 12v2.847a33.155 33.155 0 0 1 -4.378 15.94 12.815 12.815 0 0 0 -1.622 6.213c0 8.284 8.059 15 18 15s18-6.716 18-15a12.815 12.815 0 0 0 -1.622-6.213 33.155 33.155 0 0 1 -4.378-15.94z" fill="#ffa050"/><path d="m37 48a12.815 12.815 0 0 0 -1.622-6.213 33.156 33.156 0 0 1 -4.378-15.941v-2.846a11.954 11.954 0 0 0 -3.935-8.867 11.98 11.98 0 0 0 -17.065 10.867v1.846a33.156 33.156 0 0 1 -4.378 15.941 12.815 12.815 0 0 0 -1.622 6.213c0 5.849 4.026 10.9 9.887 13.377a21.335 21.335 0 0 0 5.113.623c9.941 0 18-6.716 18-15z" fill="#fa8c46"/><path d="m16 48c0-2.219.1-4.321.27-6.213.451-4.916.73-10.33.73-15.941v-2.846c0-6.627.895-12 2-12-3.682 0-6.667 5.373-6.667 12v2.846a54.766 54.766 0 0 1 -2.433 15.941 21.325 21.325 0 0 0 -.9 6.213c0 8.284 4.477 15 10 15-1.657 0-3-6.716-3-15z" fill="#fa8c46"/><path d="m17 25.846v-2.846a50.727 50.727 0 0 1 .717-9.2 11.992 11.992 0 0 0 -4.391 2.921 19.557 19.557 0 0 0 -.993 6.279v2.846a54.766 54.766 0 0 1 -2.433 15.941 21.325 21.325 0 0 0 -.9 6.213c0 8.284 4.477 15 10 15-1.657 0-3-6.716-3-15 0-2.219.1-4.321.27-6.213.451-4.916.73-10.33.73-15.941z" fill="#f5782d"/><path d="m28.1 41.787a54.766 54.766 0 0 1 -2.432-15.941v-2.846c0-6.627-2.985-12-6.667-12 1.105 0 2 5.373 2 12v2.846c0 5.611.279 11.025.73 15.941.169 1.892.269 3.994.269 6.213 0 8.284-1.343 15-3 15 5.523 0 10-6.716 10-15a21.325 21.325 0 0 0 -.9-6.213z" fill="#fa8c46"/><path d="m29 48a21.325 21.325 0 0 0 -.9-6.213 54.766 54.766 0 0 1 -2.432-15.941v-2.846c0-4.151-1.172-7.809-2.952-9.964-.239-.014-.475-.036-.716-.036a12.108 12.108 0 0 0 -1.858.158 46.907 46.907 0 0 1 .858 9.842v2.846c0 5.611.279 11.025.73 15.941.17 1.892.27 3.994.27 6.213 0 8.284-1.343 15-3 15 5.523 0 10-6.716 10-15z" fill="#f5782d"/><path d="m53.052 24-.495-2.8a12 12 0 0 0 -13.9-9.734 12 12 0 0 0 -9.734 13.9l.494 2.8a33.158 33.158 0 0 1 -1.543 16.458 12.815 12.815 0 0 0 -.519 6.4c1.438 8.158 10.545 13.376 20.33 11.646s16.561-9.74 15.122-17.9a12.818 12.818 0 0 0 -2.676-5.837 33.145 33.145 0 0 1 -7.079-14.933z" fill="#ffc855"/><path d="m47.165 59.715c-8.146 1.437-15.707-2.7-16.856-9.213a9.789 9.789 0 0 1 .4-4.911 35.922 35.922 0 0 0 1.659-17.947l-.5-2.8a9 9 0 0 1 17.732-3.129l.494 2.8a35.926 35.926 0 0 0 7.7 16.3 9.8 9.8 0 0 1 2.06 4.477c1.146 6.518-4.544 12.987-12.689 14.423z" fill="#fa8c46"/><ellipse cx="44.56" cy="44.943" fill="#ffc855" rx="8" ry="9" transform="matrix(.985 -.174 .174 .985 -7.127 8.421)"/><g fill="#fa8c46"><circle cx="43.865" cy="41.004" r="1"/><circle cx="40.273" cy="43.668" r="1"/><circle cx="40.968" cy="47.608" r="1"/><circle cx="48.152" cy="42.279" r="1"/><circle cx="48.846" cy="46.218" r="1"/><circle cx="44.56" cy="44.943" r="1"/><circle cx="45.254" cy="48.883" r="1"/></g></svg>