<svg id="Capa_1" enable-background="new 0 0 510.003 510.003" height="512" viewBox="0 0 510.003 510.003" width="512" xmlns="http://www.w3.org/2000/svg"><g><g><path d="m404.999 0h-45v45c0 24.465 11.936 47.23 31.628 61.197l62.622-22.447 6.85-58.477c-13.749-15.494-33.804-25.273-56.1-25.273z" fill="#60d64d"/><g id="XMLID_136_"><g><path d="m463.416 90.25-13.417-15.25v-15c0-33.084 26.916-60 60-60v30c-16.542 0-30 13.458-30 30v24.764z" fill="#58413c"/></g></g><path d="m207.227 302.178c-40.771-8.406-80.206 16.162-92.119 55.107-30.389-15.278-67.5-9.47-91.922 15.354-30.839 31.343-30.981 82.114 0 113.612 27.94 28.397 72.232 31.687 103.907 7.948 13.463-10.089 23.669-24.367 28.735-40.928 33.976 17.069 75.797 7.631 99.171-23.832l10-101.939-10-100.779c-28.771 12.711-48.437 41.845-47.772 75.457z" fill="#8f6d67"/><path d="m446.249 75c-35.073 0-63.75 28.719-63.75 64.444-44.594 0-80.627 37.069-79.646 82.177-15.499-3.184-32.267-1.787-47.854 5.1v202.719c10.004-13.463 15.937-30.193 15.937-48.328 0-.528-.03-1.071-.04-1.621 49.72 10.217 96.561-28.465 95.625-80.557 5.074 1.045 10.423 1.622 15.978 1.622 50.865 0 88.955-47.651 77.737-98.241 28.573-6.47 49.763-32.237 49.763-62.87 0-35.775-28.725-64.445-63.75-64.445z" fill="#6f534e"/></g></g></svg>