<svg fill="none" height="512" viewBox="0 0 128 128" width="512" xmlns="http://www.w3.org/2000/svg" xmlns:xlink="http://www.w3.org/1999/xlink"><clipPath id="clip0_1059_68"><path d="m0 0h128v128h-128z"/></clipPath><g clip-path="url(#clip0_1059_68)"><g fill="#ffd89e"><path d="m25.2357 112.762c-24.504876-12.671-30.13185-48.7428-13.6405-55.189 9.596-3.751 14.2906 4.6517 16.9893 16.4377 1.8448 8.0566 21.4341 12.3028 34.5194 11.9767 16.5268-.4119 18.3136 15.0656 13.0648 22.6286-5.7192 8.241-29.5287 15.215-50.933 4.146z"/><path d="m104.278 89.4634c-11.0961 4.1644-23.1894 2.2495-30.2195-8.2356-4.2484-8.6816 6.011-15.3638 12.1744-18.7756 6.1634-3.4119 10.3708-15.9942.2876-22.5323-6.2683-4.0644-16.8411-18.7232-3.8528-25.4928 12.9884-6.76965 34.7923 9.0065 41.2603 29.4987s-8.553 41.3732-19.65 45.5376z"/><path d="m18.796 45.8037c13.4491-8.6428 31.3965 1.6068 29.1508 14.3036-1.805 10.2056 11.4488 16.045 20.9415 7.7025 4.3687-3.8393 14.2277-31.7831-9.544-48.3926-24.9171-17.40983-51.88756 3.6005-55.62137 12.3416-3.7338077 8.7411 1.62401 22.6878 15.07307 14.0449z"/></g><path clip-rule="evenodd" d="m21.0032 76.6543c.497-.2408 1.0952-.0332 1.336.4638 2.1807 4.4998 7.9298 8.3959 14.485 11.0574 6.5246 2.6491 13.5157 3.9408 17.8682 3.4804.5492-.0581 1.0415.3401 1.0996.8893s-.34 1.0415-.8893 1.0996c-4.8016.5079-12.1399-.8996-18.8309-3.6162-6.6605-2.7042-13.0134-6.8403-15.5324-12.0383-.2408-.497-.0332-1.0951.4638-1.336z" fill="#e1ba80" fill-rule="evenodd"/><path clip-rule="evenodd" d="m96.3639 36.7107c.4877-.2591 1.0931-.0738 1.3523.4139 3.3348 6.2764 4.5628 13.7337 3.1318 20.3179-1.4376 6.6163-5.5709 12.3616-12.9037 15.0302-.519.1889-1.0928-.0787-1.2817-.5977s.0788-1.0928.5977-1.2817c6.602-2.4026 10.3209-7.5356 11.6334-13.5755 1.3193-6.072.1947-13.0487-2.9436-18.9547-.2592-.4878-.0739-1.0932.4138-1.3524z" fill="#e1ba80" fill-rule="evenodd"/><path clip-rule="evenodd" d="m38.0706 37.5147c-5.1741-1.3451-10.7657-.7673-14.2341.7257-.5073.2184-1.0956-.0158-1.3139-.5231-.2184-.5073.0158-1.0955.5231-1.3139 3.9034-1.6803 9.9526-2.2738 15.5281-.8244 5.6121 1.459 10.8833 5.0344 12.9143 11.8032.1587.529-.1415 1.0864-.6705 1.2452-.529.1587-1.0864-.1415-1.2452-.6705-1.7767-5.9215-6.3641-9.1066-11.5018-10.4422z" fill="#e1ba80" fill-rule="evenodd"/></g></svg>