<svg id="Layer_1" height="512" viewBox="0 0 512 512" width="512" xmlns="http://www.w3.org/2000/svg" data-name="Layer 1"><path d="m407.96 72.97c42.56 52.72 118.86 204.3 84.31 304.92-23.57 68.66-67.83 79.42-109.51 70.38-32.38-7.02-22.04-28.56-41.23-53.27s-67.91-52.6-67.45-85.71c1.38-99.68 54-201.71 84.43-237.13a32.19 32.19 0 0 1 49.45.81z" fill="#ed8c4a"/><path d="m239.69 182.64c17.65 98.12-14.56 208.3-37.67 248.87a32.2 32.2 0 0 1 -48.7 8.63c-51.83-43.64-155.63-177.91-140.9-283.27 10.04-71.89 51.44-90.89 94.08-89.96 33.12.73 27.09 23.84 50.64 44.44s76.69 38.7 82.55 71.29z" fill="#ed8c4a"/><path d="m183.32 440.14c-51.83-43.64-155.63-177.91-140.9-283.27 8.469-60.64 39.251-83.648 74.269-88.806a50.913 50.913 0 0 0 -10.189-1.154c-42.64-.93-84.04 18.07-94.08 89.96-14.73 105.36 89.07 239.63 140.9 283.27a32.227 32.227 0 0 0 35.766 3.879 32.471 32.471 0 0 1 -5.766-3.879z" fill="#bf7847"/><path d="m69.521 267.3a5.986 5.986 0 0 1 -4.549-2.084c-15.544-18.045-20.773-40.595-22.506-52.43a6 6 0 1 1 11.873-1.74c1.545 10.547 6.161 30.592 19.725 46.338a6 6 0 0 1 -4.543 9.916z" fill="#f4f8fc"/><path d="m47.623 196.519c-.1 0-.2 0-.308-.008a6 6 0 0 1 -5.689-6.295 51.258 51.258 0 0 1 .706-6.692 6 6 0 0 1 11.782 2.276 42.926 42.926 0 0 0 -.5 5.022 6 6 0 0 1 -5.991 5.697z" fill="#f4f8fc"/><path d="m436.212 406.268a6 6 0 0 1 -4.543-9.916c25.572-29.686 20.19-60.3 19.948-61.588a6 6 0 0 1 11.783-2.273c.294 1.512 6.872 37.433-22.639 71.693a5.991 5.991 0 0 1 -4.549 2.084z" fill="#bf7847"/></svg>