<svg clip-rule="evenodd" fill-rule="evenodd" height="512" stroke-linejoin="round" stroke-miterlimit="2" viewBox="0 0 64 64" width="512" xmlns="http://www.w3.org/2000/svg"><g id="Expanded-Flat"><path d="m13.755 47.953 5.551-5.551 3.535 3.536-5.718 5.718c.576 1.064.501 2.626-.305 4.022-1.104 1.912-3.164 2.792-4.598 1.964-1.256-.726-1.618-2.523-.945-4.243-1.971.352-3.799-.475-4.197-1.964-.428-1.599.956-3.361 3.089-3.931 1.354-.362 2.686-.157 3.588.449z" fill="#f6dda9"/><path d="m19.907 45.825c3.348 3.135 6.291 4.058 11.543-.962 5.252-5.019 8.685-6.664 13.466-8.657 11.543-4.809 14.429-19.238 5.772-26.933-9.56-8.498-22.406 1.172-24.048 10.581s-3.168 11.432-6.733 15.39c-3.566 3.958-2.687 8.066 0 10.581z" fill="#f48132"/><path d="m42.002 10c-4.119-.007-8.369 3.444-8.995 8.886-.064.548.33 1.044.879 1.107.548.064 1.044-.33 1.107-.879.495-4.296 3.753-7.119 7.005-7.114.552.001 1.001-.446 1.002-.998s-.446-1.001-.998-1.002z" fill="#ffcc6c"/></g></svg>