<svg width="193" height="96" viewBox="0 0 193 96" fill="none" xmlns="http://www.w3.org/2000/svg">
<g clip-path="url(#clip0_234_225)">
<path d="M57.4201 34.3013C53.5701 37.6213 45.0601 41.3013 47.1701 42.7913C49.2801 44.2813 49.5001 49.1913 52.3901 50.9213C55.2801 52.6513 66.3301 53.7213 72.7701 55.9213C79.2101 58.1213 81.1901 58.1913 84.7701 62.4013C88.3501 66.6113 94.7701 67.4813 99.7701 69.2313C104.77 70.9813 104.33 73.9013 107.58 78.4213C113.27 86.3513 126.58 93.0513 139.13 93.0713C142.26 93.0713 144.79 93.6513 148.13 91.0713C175.88 104.181 187.18 82.4213 187.18 82.4213C187.18 82.4213 192.74 72.7313 192.49 67.6113C192.14 60.6113 185 56.7113 175.49 48.9013C159.1 35.3913 137.38 20.6913 116.49 17.9013C95.6001 15.1113 71.4901 20.2813 67.3801 23.7813C63.8385 27.0713 60.5117 30.5852 57.4201 34.3013Z" fill="url(#paint0_linear_234_225)"/>
<path opacity="0.34" d="M103.46 66.08C104.46 63.84 105.56 60.74 104.63 58.4C103.84 56.4 100.39 54.83 98.6299 56.46C97.5798 57.608 96.5981 58.8167 95.6899 60.08C94.7294 61.2605 93.6504 62.3395 92.4699 63.3C91.3699 64.13 89.9699 64.9 88.5499 64.5C87.8075 64.2123 87.1603 63.7227 86.6814 63.0866C86.2025 62.4504 85.9111 61.6931 85.8399 60.9C85.3099 57.2 88.3199 54.23 88.9499 50.76C89.0751 49.9761 89.0357 49.1747 88.8342 48.4069C88.6328 47.639 88.2737 46.9215 87.7799 46.3C87.4499 45.9 87.3099 45.71 87.0299 45.99C86.5651 46.5824 86.2249 47.2627 86.0299 47.99C85.4999 49.49 85.3799 51.09 84.8599 52.58C84.4199 53.85 83.0099 55.69 81.4399 55.21C80.7699 55.02 80.4399 54.7 79.6899 54.55C78.9219 54.4335 78.1656 54.2494 77.4299 54C76.7029 53.7535 76.0425 53.343 75.4997 52.8002C74.9569 52.2575 74.5464 51.597 74.2999 50.87C73.8937 49.2748 73.8697 47.6062 74.2299 46C74.3996 45.1613 74.4568 44.3038 74.3999 43.45C73.9399 44.34 73.4999 45.24 73.0199 46.12C72.1715 47.7815 71.1669 49.3586 70.0199 50.83C69.1399 51.9 67.7099 53.24 66.2599 52.28C64.6299 51.21 64.8799 48.21 64.9899 46.58C65.099 45.0125 65.3027 43.453 65.5999 41.91C64.7666 43.6425 63.8108 45.3134 62.7399 46.91C61.5499 48.67 59.1999 51.5 56.9499 49.41C55.3299 47.91 55.0299 45.1 54.7399 43.03C54.4499 40.96 54.3799 38.82 53.9899 36.75C49.9899 39.29 45.5399 41.67 47.1399 42.75C49.2499 44.24 49.4699 49.15 52.3599 50.88C55.2499 52.61 66.2999 53.68 72.7399 55.88C79.1799 58.08 81.1599 58.15 84.7399 62.36C88.3199 66.57 94.7399 67.44 99.7399 69.19C100.333 69.3915 100.909 69.6423 101.46 69.94C102.205 68.6954 102.873 67.4064 103.46 66.08Z" fill="#A3003B"/>
<path d="M192.461 67.6898C192.111 60.6898 184.971 56.7898 175.461 48.9798C165.561 40.8198 153.721 32.2298 141.291 26.0898C138.411 27.6298 135.431 28.9498 132.531 30.4298C129.519 31.917 126.737 33.83 124.271 36.1098C121.919 38.3431 119.779 40.7903 117.881 43.4198C114.243 48.6161 111.042 54.1049 108.311 59.8298C108.368 60.0072 108.388 60.1943 108.371 60.3798C107.951 64.8998 106.091 68.9598 104.471 73.1198C105.376 74.9649 106.402 76.7487 107.541 78.4598C113.231 86.3898 126.541 93.0898 139.091 93.1098C142.221 93.1098 144.751 93.6898 148.091 91.1098C175.841 104.22 187.141 82.4598 187.141 82.4598C187.141 82.4598 192.711 72.8098 192.461 67.6898Z" fill="url(#paint1_linear_234_225)"/>
<path opacity="0.08" d="M111.4 53.9004C110.34 55.8604 109.317 57.8371 108.33 59.8304C108.387 60.0077 108.408 60.1949 108.39 60.3804C107.97 64.9004 106.11 68.9604 104.49 73.1204C105.16 74.2904 105.75 75.6504 106.74 77.2304C109.35 69.6404 112 61.9204 111.4 53.9004Z" fill="url(#paint2_linear_234_225)"/>
<path opacity="0.08" d="M116.401 86.3597C116.691 85.2797 117.041 84.2097 117.401 83.1497C117.761 82.0897 118.351 80.9497 118.781 79.8397C119.04 79.2054 119.166 78.5247 119.151 77.8397C118.565 78.3754 118.023 78.9573 117.531 79.5797C116.871 80.3697 116.241 81.1897 115.531 81.9797C115.094 82.6151 114.478 83.106 113.761 83.3897C112.381 83.7297 111.411 82.4997 111.181 81.2897C111.016 80.0384 111.016 78.7709 111.181 77.5197C111.391 75.1497 112.521 72.1097 111.811 69.6797C110.811 73.0797 109.681 76.4497 108.551 79.8197C110.813 82.3932 113.461 84.5995 116.401 86.3597Z" fill="url(#paint3_linear_234_225)"/>
<path opacity="0.08" d="M121.841 83.9994C122.111 82.4094 122.611 80.7494 122.231 79.1894C122.073 79.1969 121.916 79.1696 121.771 79.1094C121.33 80.7639 120.738 82.3741 120.001 83.9194C119.53 85.1618 119.133 86.4306 118.811 87.7194C119.531 88.1094 120.281 88.4894 121.031 88.8394C121.271 87.2194 121.581 85.5894 121.841 83.9994Z" fill="url(#paint4_linear_234_225)"/>
<path opacity="0.08" d="M132.071 83.6509C132.071 82.4309 131.961 81.0009 130.771 80.3509C129.151 79.4509 126.831 80.3509 125.251 80.9009C125.165 80.9151 125.077 80.9151 124.991 80.9009C124.901 81.7609 124.711 82.6209 124.561 83.4609C124.201 85.6009 123.801 87.7309 123.431 89.8609C126.083 90.9235 128.828 91.737 131.631 92.2909C131.891 89.4509 132.101 86.5409 132.071 83.6509Z" fill="url(#paint5_linear_234_225)"/>
<path opacity="0.08" d="M145.451 89.0003C145.316 89.0576 145.17 89.0876 145.024 89.0884C144.877 89.0892 144.731 89.0609 144.596 89.0051C144.46 88.9493 144.336 88.8671 144.233 88.7633C144.129 88.6595 144.047 88.5361 143.991 88.4003C143.8 87.9478 143.662 87.4746 143.581 86.9903C143.218 87.8575 142.804 88.7023 142.341 89.5203C141.919 90.4045 141.261 91.1553 140.441 91.6903C139.947 91.9606 139.367 92.0283 138.824 91.879C138.281 91.7297 137.817 91.3752 137.531 90.8903C136.971 89.6829 136.847 88.3187 137.181 87.0303C137.261 86.4703 137.391 85.9303 137.491 85.3803C137.431 85.7203 137.491 85.1403 137.491 85.0503C137.491 84.9603 137.491 84.6003 137.491 84.3803C137.498 83.8585 137.464 83.337 137.391 82.8203C137.207 83.1966 137.057 83.588 136.941 83.9903C136.471 85.4703 136.241 86.9903 135.941 88.5103C135.641 90.0303 135.431 91.5103 135.011 92.9203C136.372 93.0813 137.74 93.1681 139.111 93.1803C141.291 93.1803 143.181 93.4603 145.241 92.7703C145.291 91.4603 145.381 90.2103 145.451 89.0003Z" fill="url(#paint6_linear_234_225)"/>
<path opacity="0.08" d="M157.34 86.6506C157.34 86.0506 157.34 85.4406 157.4 84.8406C157.4 84.6806 157.4 83.9306 157.4 83.5006C157 83.5006 156.48 83.2706 156.17 83.2106C153.296 82.6298 150.486 81.769 147.78 80.6406C147.84 83.0606 148.23 85.4706 148.14 87.9006C148.14 89.0206 148.01 90.1406 147.95 91.2606L148.1 91.1506C151.352 92.7166 154.78 93.8882 158.31 94.6406C157.516 92.0559 157.187 89.3504 157.34 86.6506Z" fill="url(#paint7_linear_234_225)"/>
<path opacity="0.08" d="M178.76 87.57C178.65 87.21 178.52 86.86 178.4 86.5C178.49 87.06 178.58 87.62 178.65 88.18C178.784 89.2404 178.767 90.3143 178.6 91.37L179.24 90.95C179.173 89.8121 179.013 88.6817 178.76 87.57Z" fill="url(#paint8_linear_234_225)"/>
<path opacity="0.08" d="M166.221 91.9295C165.698 89.4317 164.889 87.0024 163.811 84.6895C163.61 86.3481 163.55 88.0207 163.631 89.6895C163.631 91.5695 163.631 93.4594 163.631 95.3394C164.878 95.396 166.128 95.3659 167.371 95.2495C166.874 94.1853 166.489 93.0727 166.221 91.9295Z" fill="url(#paint9_linear_234_225)"/>
<path d="M60.9006 22.8398C57.0506 26.1498 48.5406 29.8398 50.6506 31.3198C52.7606 32.7998 52.9706 37.7198 55.8606 39.4498C58.7506 41.1798 69.8606 42.2598 76.2506 44.4498C82.6406 46.6398 84.6606 46.7198 88.2506 50.9298C91.8406 55.1398 98.2506 56.0098 103.251 57.7598C108.251 59.5098 108.001 62.3598 111.001 66.9998C114.001 71.6398 130.231 79.3698 130.231 79.3698L141.491 81.6498L146.341 77.9998L151.681 80.9998L164.681 83.2298L174.001 82.3998L178.251 80.5598L183.641 77.8198L189.021 69.4598C189.021 69.4598 195.351 50.9998 179.001 37.5098C162.651 24.0198 140.881 9.29977 120.001 6.50977C99.1206 3.71977 75.0006 8.87977 70.8806 12.3798C67.3375 15.6534 64.0043 19.1469 60.9006 22.8398Z" fill="url(#paint10_linear_234_225)"/>
<path opacity="0.11" d="M133.73 54.1698C133.335 52.6494 133.055 51.1018 132.89 49.5398C132.809 47.7389 133.151 45.9442 133.89 44.2998C136.58 37.8998 143.35 32.9598 142.31 25.2998C141.76 21.2998 138.48 18.7098 135.41 16.4898C134.07 15.4898 132.13 13.9298 130.41 14.9598C130.021 15.1952 129.714 15.5442 129.53 15.9598C128.879 15.5091 128.331 14.9265 127.92 14.2498C127.25 13.2498 126.32 12.2498 124.92 12.4998C124.457 12.6609 124.037 12.9245 123.691 13.2708C123.345 13.6171 123.081 14.0373 122.92 14.4998C122.753 14.9123 122.523 15.2967 122.24 15.6398C121.734 16.007 121.164 16.2782 120.56 16.4398C118.19 17.4398 117.28 19.9298 116.98 22.2998C116.68 24.6698 117.26 27.5898 115.98 29.7098C115.741 28.8635 115.704 27.9732 115.87 27.1098C116.058 25.8217 115.777 24.5089 115.08 23.4098C114.727 22.9091 114.207 22.5499 113.614 22.3961C113.021 22.2423 112.392 22.3038 111.84 22.5698C110.825 23.2382 110.108 24.2741 109.84 25.4598C109.416 27.0755 108.812 28.6386 108.04 30.1198C107.48 31.1198 106.56 32.3298 105.35 32.4698C103.97 32.6398 103.43 31.0198 103.46 29.9098C103.52 28.1398 104.54 26.5198 104.85 24.7898C105.35 21.9898 104.1 18.9698 100.85 18.8698C97.5999 18.7698 95.3699 21.7598 93.7499 24.2298C92.8527 25.5579 92.0571 26.9518 91.3699 28.3998C91.3699 28.2898 91.2699 28.1298 91.2599 28.0798C91.1799 27.7398 91.1699 27.3898 91.0899 27.0798C90.9195 26.3711 90.4918 25.751 89.8899 25.3398C89.3045 25.0131 88.6453 24.8417 87.9749 24.8417C87.3046 24.8417 86.6453 25.0131 86.0599 25.3398C84.6699 26.0498 83.8299 27.4498 82.5099 28.2398C82.2301 28.4595 81.894 28.5957 81.5402 28.6329C81.1864 28.67 80.8293 28.6066 80.5099 28.4498C80.0302 27.9769 79.6345 27.4256 79.3399 26.8198C78.9993 26.2566 78.5425 25.7725 77.9999 25.3998C77.2228 25.0583 76.3782 24.8976 75.5299 24.9298C74.6599 24.8198 74.3799 23.8698 73.9599 23.2098C73.5662 22.4809 72.9344 21.9091 72.1699 21.5898C71.8716 21.4831 71.5536 21.4425 71.238 21.4706C70.9224 21.4988 70.6167 21.5951 70.3419 21.7529C70.0672 21.9108 69.8299 22.1263 69.6466 22.3848C69.4632 22.6432 69.3381 22.9383 69.2799 23.2498C69.2232 23.3162 69.176 23.3902 69.1399 23.4698C67.8199 26.0298 66.4399 28.5798 65.1999 31.1798C64.1099 33.4698 63.3199 36.0498 64.5099 38.4598C64.8137 39.263 65.3679 39.9472 66.0907 40.4111C66.8134 40.875 67.6662 41.094 68.523 41.0356C69.3798 40.9773 70.195 40.6448 70.8482 40.0873C71.5014 39.5297 71.9578 38.7768 72.1499 37.9398C73.2587 38.4165 74.4669 38.6156 75.6699 38.5198C76.2199 41.7598 78.67 44.7298 82.16 44.6598C83.0258 44.665 83.8814 44.4722 84.6613 44.0961C85.4413 43.72 86.1249 43.1706 86.66 42.4898C87.1044 41.8057 87.486 41.0828 87.7999 40.3298C88.0499 39.7998 88.3899 38.9298 89.0499 38.8098C90.6999 38.4898 91.0499 42.1898 91.4699 43.1898C91.7441 44.0049 92.2476 44.7236 92.9199 45.2598C93.2531 45.4966 93.6255 45.6726 94.0199 45.7798C94.5699 45.9398 95.1599 45.8998 95.5899 46.3198C96.0855 47.0347 96.4262 47.8454 96.5899 48.6998C96.9565 49.723 97.429 50.705 97.9999 51.6298C99.062 53.3248 100.416 54.8179 102 56.0398C103.71 57.3498 106 58.5198 108.07 57.4298C108.656 57.1195 109.167 56.6862 109.57 56.1598C109.698 56.6502 109.919 57.1117 110.22 57.5198C110.429 57.7917 110.704 58.0053 111.019 58.1401C111.334 58.2749 111.679 58.3265 112.02 58.2898C112.71 58.2898 113.37 57.7298 114.02 57.8098C115.55 57.9998 116.4 60.4598 117.02 61.6098C117.927 63.4631 118.84 65.3065 119.76 67.1398C120.48 68.5998 121.19 70.2898 122.67 71.1398C123.305 71.4773 124.019 71.6394 124.738 71.6096C125.457 71.5797 126.155 71.3589 126.76 70.9698C128.28 70.0698 129.13 68.5398 130.08 67.1098C131.03 65.6798 132.39 64.4398 133.25 62.8998C134.84 60.1598 134.39 57.0998 133.73 54.1698Z" fill="url(#paint11_linear_234_225)"/>
<path opacity="0.11" d="M182.671 63.461C182.933 61.4006 182.466 59.3134 181.351 57.561C180.351 56.201 178.451 55.071 176.771 55.901C176.244 56.2259 175.812 56.6831 175.517 57.227C175.223 57.7709 175.075 58.3826 175.091 59.001C175.026 60.1402 174.814 61.2662 174.461 62.351C173.861 63.9182 172.857 65.2984 171.551 66.351C171.386 65.3852 170.927 64.4938 170.236 63.7992C169.545 63.1046 168.656 62.6407 167.691 62.471C166.171 62.241 164.761 62.891 163.261 62.871C162.161 62.871 160.781 62.181 161.701 60.961C162.621 59.741 164.211 59.771 165.551 59.631C167.123 59.476 168.642 58.9776 170.001 58.171C171.431 57.341 172.851 56.471 174.251 55.591C175.655 54.7801 176.921 53.7505 178.001 52.541C179.851 50.321 180.491 46.761 178.261 44.541C178.152 44.4263 178.018 44.3377 177.869 44.282C177.721 44.2262 177.562 44.2048 177.404 44.2192C177.247 44.2336 177.094 44.2836 176.959 44.3653C176.823 44.447 176.707 44.5584 176.621 44.691C175.868 45.8989 174.899 46.9568 173.761 47.811C172.452 48.5146 170.946 48.761 169.481 48.511C166.574 48.1713 163.644 48.071 160.721 48.211C155.721 48.611 148.901 50.721 147.501 56.211C147.359 56.292 147.24 56.4063 147.153 56.544C147.066 56.6817 147.013 56.8386 147.001 57.001C146.851 60.6026 147.401 64.1991 148.621 67.591C149.621 70.311 151.181 73.741 154.211 74.181C154.28 74.8844 154.524 75.5592 154.92 76.1443C155.317 76.7294 155.853 77.2061 156.481 77.531C158.561 78.651 160.981 77.931 163.131 77.531C165.563 77.0515 168.043 76.8502 170.521 76.931C172.521 76.931 174.651 77.101 176.461 76.101C178.511 74.971 179.841 72.591 180.801 70.541C181.848 68.3139 182.482 65.9149 182.671 63.461Z" fill="url(#paint12_linear_234_225)"/>
<path d="M55.9001 41.9005C57.3501 35.9005 52.2901 32.8405 47.1801 31.6505C46.7471 31.3631 46.2261 31.2391 45.7101 31.3005C35.2533 32.1471 25.0626 35.0277 15.7101 39.7805C11.8601 41.7805 6.62006 44.1605 3.82006 47.5805C0.820059 51.3205 3.73006 56.4405 3.23006 60.8905C2.99523 61.3531 2.91463 61.8788 3.00006 62.3905C2.79006 65.1705 7.12006 66.3905 7.87006 63.3905L7.93006 63.1305C17.9401 52.9205 32.4401 50.7005 46.1601 49.4705C48.3801 49.2705 52.1601 49.7005 53.9501 48.1105C55.4901 46.7605 55.4801 43.6305 55.9001 41.9005Z" fill="url(#paint13_linear_234_225)"/>
<path opacity="0.23" d="M13.6402 41.9005C16.9002 40.4305 20.2402 39.1505 23.5302 37.7405C26.8501 36.3451 30.3098 35.3092 33.8502 34.6505C38.7902 33.6505 43.8502 33.1305 48.7202 32.0805C48.2102 31.9205 47.7202 31.7705 47.1802 31.6505C46.7473 31.3631 46.2262 31.2391 45.7102 31.3005C35.2535 32.1471 25.0628 35.0277 15.7102 39.7805C11.8602 41.7805 6.62023 44.1605 3.82023 47.5805L3.49023 48.0005C6.5773 45.5106 9.99276 43.458 13.6402 41.9005Z" fill="url(#paint14_linear_234_225)"/>
<path opacity="0.34" d="M55.8998 41.9C56.3525 40.271 56.2107 38.534 55.4998 37C54.6131 38.4817 53.5186 39.8287 52.2498 41C49.2229 43.6157 45.4754 45.2541 41.4998 45.7C38.8498 46.07 36.1598 46.09 33.4998 46.43C30.7514 46.7668 28.0463 47.3936 25.4298 48.3C23.1598 49.12 21.0198 50.3 18.8298 51.3C16.569 52.3833 14.2289 53.2926 11.8298 54.02C8.8367 54.9494 5.65496 55.094 2.58984 54.44C3.04666 56.5311 3.24149 58.6708 3.16984 60.81C2.9377 61.3027 2.87783 61.8592 2.99984 62.39C2.78984 65.17 7.11984 66.39 7.86984 63.39L7.92984 63.13C17.9398 52.92 32.4398 50.7 46.1598 49.47C48.3798 49.27 52.1598 49.7 53.9498 48.11C55.4898 46.76 55.4798 43.63 55.8998 41.9Z" fill="url(#paint15_linear_234_225)"/>
<path opacity="0.34" d="M55.8998 41.9004C56.2458 40.5861 56.2215 39.2018 55.8298 37.9004C54.9998 40.9404 53.9998 44.0004 51.6298 46.1304C48.3298 49.2004 43.0898 49.4804 38.8298 49.8904C34.0398 50.3404 29.1898 50.4804 24.5298 51.8204C19.9883 53.2178 15.715 55.3714 11.8898 58.1904C10.3788 59.3669 8.64842 60.2304 6.79984 60.7304C6.17934 60.8552 5.53865 60.8382 4.92565 60.6807C4.31265 60.5231 3.74319 60.229 3.25984 59.8204C3.28 60.1768 3.28 60.534 3.25984 60.8904C3.01474 61.3496 2.9236 61.8754 2.99984 62.3904C2.78984 65.1704 7.11984 66.3904 7.86984 63.3904L7.92984 63.1304C17.9398 52.9204 32.4398 50.7004 46.1598 49.4704C48.3798 49.2704 52.1598 49.7004 53.9498 48.1104C55.4898 46.7604 55.4798 43.6304 55.8998 41.9004Z" fill="url(#paint16_linear_234_225)"/>
<path d="M9.16032 58.0003C9.31745 55.7878 9.23362 53.5647 8.91032 51.3703C8.58032 49.7403 7.91032 47.8103 6.10032 47.2803C5.48515 47.0879 4.82294 47.1097 4.22178 47.3422C3.62061 47.5747 3.11601 48.0041 2.79032 48.5603C2.73032 48.6503 2.66032 48.7203 2.60032 48.8103C1.43385 50.5902 0.640175 52.588 0.267212 54.6831C-0.105751 56.7782 -0.050266 58.9272 0.430317 61.0003C1.27032 64.1903 4.96032 67.2803 7.64032 63.8903C9.00032 62.1903 9.11032 60.0003 9.16032 58.0003Z" fill="url(#paint17_linear_234_225)"/>
<path d="M8.33079 57.6194C8.45088 55.857 8.38047 54.0868 8.12079 52.3394C7.87079 51.0494 7.29079 49.4994 5.88079 49.0794C5.39382 48.9261 4.86938 48.9414 4.39217 49.1228C3.91496 49.3043 3.51285 49.6413 3.25079 50.0794C3.19536 50.1383 3.14517 50.2019 3.10079 50.2694C2.16892 51.6898 1.53511 53.2845 1.23773 54.957C0.940363 56.6295 0.985628 58.3449 1.37079 59.9994C2.00079 62.5294 5.00079 64.9994 7.12079 62.2894C8.01857 60.9046 8.44314 59.266 8.33079 57.6194Z" fill="url(#paint18_linear_234_225)"/>
<path opacity="0.29" d="M50.0707 34.5405C48.0707 33.0405 44.3707 34.3505 42.1507 34.6405C38.2207 35.1405 34.3507 35.5305 30.6407 37.0105C23.8807 39.7005 15.7107 40.6105 10.0007 45.4005C9.74803 45.5984 9.54081 45.8482 9.39308 46.133C9.24535 46.4179 9.16055 46.7312 9.14443 47.0517C9.12831 47.3722 9.18124 47.6925 9.29965 47.9907C9.41805 48.289 9.59916 48.5583 9.83071 48.7805C10.049 49.26 10.4477 49.634 10.9401 49.8212C11.4326 50.0085 11.979 49.9938 12.4607 49.7805C21.1213 46.59 29.9883 43.9907 39.0007 42.0005C42.1907 41.3005 47.4407 41.4605 50.0007 39.3705C50.3743 39.091 50.6787 38.7294 50.8907 38.3137C51.1026 37.898 51.2163 37.4393 51.223 36.9727C51.2298 36.5062 51.1294 36.0443 50.9297 35.6226C50.7299 35.201 50.436 34.8308 50.0707 34.5405Z" fill="white"/>
<path d="M187.811 47.4504C187.819 47.057 187.737 46.667 187.571 46.3104C180.383 30.8057 167.64 18.5621 151.861 12.0003C142.511 8.13956 132.858 5.05905 123.001 2.79035C113.411 0.48035 103.651 -0.71965 93.8007 0.46035C93.448 0.492549 93.1066 0.601786 92.8007 0.78035C84.1007 2.09035 75.2107 3.78035 67.8607 8.87035C64.2137 11.5538 60.9735 14.7501 58.2407 18.3603L58.0907 18.5403C57.8931 18.6914 57.718 18.8699 57.5707 19.0703C57.3907 19.3103 57.2107 19.5403 57.0207 19.7703L56.2207 20.6803C53.1507 23.9703 49.0407 26.2703 46.3407 29.8403C46.1037 30.2147 45.9705 30.6454 45.9547 31.0882C45.9389 31.531 46.0411 31.97 46.2507 32.3604C47.0307 34.0304 48.8707 34.3604 50.6307 34.3604H50.7407L50.8807 34.4203L51.3307 34.5804C51.6768 34.6994 52.031 34.793 52.3907 34.8604H52.4907H52.7307L53.0007 35.0004C54.2188 34.8516 55.4063 34.5142 56.5207 34.0004C62.4907 31.3604 65.0007 25.0003 69.0007 20.3403C79.8407 7.71035 98.0007 7.18035 113.191 9.17035C143.111 13.0804 178.091 26.9004 186.911 58.9904C188.171 63.5704 188.591 68.1803 185.711 72.2403C182.971 75.8212 179.041 78.3041 174.631 79.2403C170.188 80.193 165.635 80.5294 161.101 80.2403C157.341 80.1103 152.271 79.9404 149.791 76.9004C149.693 76.0932 149.434 75.3139 149.031 74.6081C148.627 73.9023 148.087 73.2842 147.441 72.7904C145.661 71.4004 143.181 73.5204 143.661 75.5004C143.721 75.7404 143.811 75.9604 143.881 76.1904C141.431 77.9904 137.101 77.6004 134.361 77.2904C130.992 76.8845 127.725 75.8678 124.721 74.2904C118.861 71.2904 114.431 67.8104 111.861 61.7404C110.731 59.0704 107.601 59.2004 108.221 61.9104C109.441 67.2704 109.961 72.7504 114.361 76.3904C119.191 80.3904 125.811 82.0504 131.861 83.0704C136.481 83.8404 143.791 85.5304 147.741 82.0704L147.891 81.9203C151.231 84.3503 155.891 85.1003 160.261 85.2803C168.391 85.6103 177.191 85.2804 184.181 80.5804C196.171 72.5004 193.601 58.6904 187.811 47.4504Z" fill="url(#paint19_linear_234_225)"/>
<path d="M173.88 43.1807C173.6 38.9307 170.79 34.9408 167.62 32.0408L166.38 30.8608C165.49 29.8667 164.451 29.0166 163.3 28.3407C158.61 24.8611 153.184 22.5039 147.44 21.4508C147.274 21.4308 147.106 21.4308 146.94 21.4508C146.695 21.3813 146.436 21.3681 146.185 21.4123C145.933 21.4564 145.695 21.5566 145.487 21.7055C145.28 21.8545 145.108 22.0482 144.986 22.2725C144.864 22.4967 144.793 22.7456 144.78 23.0007C144.57 24.4707 145.78 25.3807 146.85 26.1507C148.027 27.07 149.275 27.8958 150.58 28.6208C151.796 29.1185 152.931 29.7924 153.95 30.6208C154.133 30.8034 154.3 31.0007 154.45 31.2107L154.71 31.6007C155.117 32.2456 155.453 32.933 155.71 33.6508C155.753 33.7738 155.81 33.8913 155.88 34.0007C155.885 34.0873 155.885 34.1742 155.88 34.2607C155.88 36.7807 154.15 36.2607 152.24 36.4807C150.34 36.7388 148.474 37.2118 146.68 37.8907C141.11 39.9507 136.75 43.6707 135.95 49.8007C135.01 56.9507 140.95 67.8008 143.81 74.0708C145.01 76.6608 149.05 76.4508 148.34 73.7108C147.69 71.2408 144.34 62.8908 143.92 60.3908C143.4 57.0608 145.58 53.8807 147.86 51.6207C153.04 46.4907 159.16 46.1607 165.86 47.4107C169.61 48.0007 174.19 48.0008 173.88 43.1807Z" fill="url(#paint20_linear_234_225)"/>
<path d="M118.37 12.9399C114.45 12.2899 110.51 11.9399 106.55 11.6099C102.897 11.2248 99.2227 11.0745 95.5501 11.1599C92.1464 11.3425 88.8516 12.4224 86.0001 14.2899C83.3301 16.0299 79.6201 18.5499 79.8801 22.1799C79.8807 22.4339 79.9378 22.6845 80.0473 22.9136C80.1569 23.1427 80.316 23.3445 80.5133 23.5045C80.7105 23.6644 80.9409 23.7784 81.1877 23.8381C81.4346 23.8979 81.6916 23.9019 81.9401 23.8499C87.3001 23.2599 90.2701 17.9099 95.3501 16.7099C98.4701 15.9699 101.87 16.0799 105.06 16.0099C108.687 15.9299 112.313 15.9599 115.94 16.0999C116.147 16.1032 116.353 16.0728 116.55 16.0099L117.42 16.1399C117.845 16.2454 118.295 16.1866 118.678 15.9752C119.062 15.7639 119.352 15.4156 119.49 14.9999C119.609 14.5783 119.558 14.127 119.349 13.7422C119.14 13.3574 118.789 13.0695 118.37 12.9399Z" fill="url(#paint21_linear_234_225)"/>
<g opacity="0.57">
<path d="M177.46 45.78C177.504 45.6157 177.538 45.4487 177.56 45.28C177.64 44.75 176.81 44.73 176.73 45.28C176.29 48.16 173.19 49.49 170.59 49.53C169.173 49.5018 167.762 49.3276 166.38 49.01C165.689 48.8535 164.977 48.8062 164.27 48.87C163.54 48.96 162.83 49.14 162.11 49.28C159.38 49.8 156.52 50.1 154.02 51.4C152.864 51.9355 151.853 52.7394 151.07 53.7447C150.287 54.7501 149.756 55.9279 149.52 57.18C149.466 58.805 149.668 60.4284 150.12 61.99L151.23 67.51C151.255 67.5988 151.308 67.677 151.381 67.7328C151.454 67.7886 151.543 67.8188 151.635 67.8188C151.727 67.8188 151.817 67.7886 151.89 67.7328C151.963 67.677 152.016 67.5988 152.04 67.51C153.09 64.77 152.29 61.86 152.59 59.03C152.656 57.7056 153.151 56.4385 154 55.42C154.908 54.6083 156.042 54.0921 157.25 53.94C158.437 53.7633 159.605 53.4788 160.74 53.09C161.954 52.4752 163.251 52.0407 164.59 51.8C166.01 51.68 167.42 52.03 168.83 52.03C169.961 52.0237 171.08 51.8067 172.13 51.39C173.33 50.9239 174.423 50.2204 175.344 49.3217C176.265 48.423 176.995 47.3477 177.49 46.16C177.527 46.1019 177.544 46.0335 177.538 45.9651C177.533 45.8967 177.506 45.8318 177.46 45.78Z" fill="url(#paint22_linear_234_225)"/>
<path d="M177.68 50.1711C177.625 50.2983 177.562 50.4219 177.49 50.5411C176.406 51.9384 175.044 53.096 173.49 53.9411C171.795 54.5918 169.996 54.9306 168.18 54.9411C166.4 55.0611 164.62 54.9411 162.85 55.1311C162.117 55.1411 161.394 55.3078 160.73 55.62C160.066 55.9321 159.476 56.3825 159 56.9411C157.84 58.4711 158 60.5711 158.2 62.3611C158.26 62.8111 158.87 62.7411 159.01 62.3611C159.45 60.8776 160.215 59.511 161.25 58.3611C162.5 57.1811 164.09 57.1811 165.7 57.3611C167.311 57.5669 168.947 57.3958 170.48 56.8611C172.05 56.2692 173.535 55.4759 174.9 54.5011C176.427 53.4808 177.65 52.0679 178.44 50.4111C178.7 49.9211 177.9 49.6811 177.68 50.1711Z" fill="url(#paint23_linear_234_225)"/>
<path d="M179.201 59.1494C179.187 59.0615 179.167 58.9746 179.141 58.8894C179.127 58.8314 179.1 58.7773 179.063 58.7307C179.026 58.6841 178.979 58.6461 178.926 58.6195C178.872 58.5928 178.814 58.5781 178.754 58.5763C178.695 58.5746 178.636 58.5859 178.581 58.6094C178.251 58.6094 177.941 59.0094 178.241 59.2994C178.311 59.3694 178.361 59.4494 178.421 59.5194C178.664 61.2079 178.47 62.9305 177.859 64.5233C177.249 66.1161 176.24 67.5262 174.931 68.6194C172.171 71.0694 168.531 72.2694 164.931 72.9994C162.626 73.4751 160.283 73.7462 157.931 73.8094C157.83 73.8089 157.733 73.8444 157.657 73.9093C157.58 73.9743 157.53 74.0645 157.514 74.1636C157.498 74.2627 157.519 74.3641 157.571 74.4496C157.624 74.535 157.705 74.5988 157.801 74.6294C162.261 76.0021 167.027 76.0264 171.501 74.6994C173.426 74.1648 175.175 73.1297 176.571 71.6994C177.335 70.8376 177.951 69.8541 178.391 68.7894C178.917 67.6431 179.378 66.4678 179.771 65.2694C180.461 63.2494 180.561 60.8694 179.201 59.1494Z" fill="url(#paint24_linear_234_225)"/>
<path d="M168.48 66.0003C168.463 65.9331 168.428 65.8718 168.378 65.8227C168.329 65.7737 168.268 65.7386 168.2 65.7213C168.133 65.704 168.062 65.7049 167.996 65.7241C167.929 65.7433 167.868 65.7799 167.82 65.8303L167.6 66.0303C165.456 67.1928 163.166 68.0639 160.79 68.6203C158.06 69.1703 155.17 68.8303 152.4 68.7303C152.3 68.7298 152.203 68.7653 152.127 68.8303C152.05 68.8953 151.999 68.9854 151.984 69.0845C151.968 69.1836 151.988 69.2851 152.041 69.3705C152.093 69.4559 152.175 69.5197 152.27 69.5503C155.06 70.2603 158.01 70.9803 160.89 70.3103C162.272 69.9468 163.613 69.4408 164.89 68.8003C166.052 68.2807 167.125 67.5822 168.07 66.7303L168.33 66.6003C168.384 66.575 168.431 66.5381 168.469 66.4924C168.506 66.4467 168.533 66.3932 168.547 66.3358C168.562 66.2784 168.563 66.2185 168.552 66.1605C168.54 66.1025 168.516 66.0478 168.48 66.0003Z" fill="url(#paint25_linear_234_225)"/>
<path d="M138 33.3898C138.996 30.7572 139.035 27.8582 138.11 25.1998C137.08 22.1345 135.145 19.4533 132.56 17.5098C132.13 17.1898 132.68 19.0398 132.79 19.1898C134.303 21.3142 135.108 23.8616 135.09 26.4698C134.991 29.2038 134.11 31.852 132.55 34.0998C131.05 36.4598 129.29 38.6698 128.22 41.2798C127.244 43.8262 126.901 46.5715 127.22 49.2798C127.611 52.4538 128.311 55.582 129.31 58.6198C129.331 58.6987 129.374 58.77 129.435 58.8247C129.495 58.8795 129.57 58.9154 129.651 58.9282C129.732 58.9409 129.814 58.9299 129.889 58.8964C129.963 58.8629 130.026 58.8085 130.07 58.7398C131.45 56.1698 129.92 53.4098 129.23 50.8798C128.767 49.301 128.802 47.6179 129.33 46.0598C129.94 44.4427 130.815 42.9387 131.92 41.6098C134.07 38.9998 136.72 36.6398 138 33.3898Z" fill="url(#paint26_linear_234_225)"/>
<path d="M121.671 39.7899C121.715 38.9969 121.623 38.2022 121.401 37.4399C121.246 36.6205 121.246 35.7793 121.401 34.9599C121.661 33.2099 122.091 31.4699 122.401 29.7299C122.808 28.1475 122.943 26.5075 122.801 24.8799C122.709 24.1144 122.455 23.3775 122.055 22.7186C121.654 22.0597 121.118 21.4941 120.481 21.0599H120.361C120.281 20.8299 120.211 20.5999 120.111 20.3699C119.911 19.8799 119.171 20.2699 119.381 20.7699C121.811 26.5799 119.021 32.9099 118.631 38.8299C118.489 40.562 118.614 42.3056 119.001 43.9999C119.02 44.0795 119.062 44.1518 119.122 44.2077C119.182 44.2636 119.257 44.3008 119.338 44.3146C119.419 44.3284 119.502 44.3183 119.577 44.2855C119.652 44.2526 119.716 44.1985 119.761 44.1299C120.714 42.8444 121.367 41.3613 121.671 39.7899Z" fill="url(#paint27_linear_234_225)"/>
<path d="M128.581 24.2201C128.769 22.9792 128.752 21.7156 128.531 20.4801C128.091 18.4001 126.181 16.7701 126.161 14.5901C126.162 14.54 126.152 14.4903 126.133 14.4438C126.114 14.3974 126.086 14.3553 126.051 14.3201L125.961 13.4501C125.901 12.9101 125.091 13.1101 125.151 13.6401C125.631 18.1601 126.117 22.6835 126.611 27.2101C126.628 27.2807 126.664 27.3455 126.714 27.3982C126.764 27.451 126.826 27.4898 126.896 27.511C126.966 27.5321 127.039 27.5349 127.11 27.519C127.181 27.5031 127.247 27.469 127.301 27.4201C128.05 26.5125 128.497 25.3939 128.581 24.2201Z" fill="url(#paint28_linear_234_225)"/>
<path d="M124.261 60.751C123.85 59.5271 123.339 58.3396 122.731 57.201C122.231 56.131 121.191 51.881 120.791 52.871C120.481 53.651 120.881 58.231 121.851 60.721C122.442 61.951 122.885 63.2467 123.171 64.581C123.316 65.9538 123.316 67.3381 123.171 68.711C123.17 68.8113 123.206 68.9085 123.27 68.9849C123.335 69.0614 123.426 69.1121 123.525 69.1278C123.624 69.1435 123.725 69.1232 123.811 69.0706C123.896 69.018 123.96 68.9365 123.991 68.841C124.778 66.213 124.871 63.4257 124.261 60.751Z" fill="url(#paint29_linear_234_225)"/>
<path d="M114.811 45.3992C114.371 43.4492 112.961 41.9292 112.551 39.9692C112.256 37.9221 112.215 35.8463 112.431 33.7892C112.517 31.2159 112.611 28.6459 112.711 26.0792C112.713 25.9774 112.676 25.8786 112.607 25.8039C112.538 25.7291 112.442 25.6844 112.341 25.6792C112.291 25.6509 112.236 25.6351 112.179 25.633C112.122 25.631 112.066 25.6428 112.015 25.6674C111.964 25.692 111.919 25.7287 111.885 25.7743C111.852 25.8199 111.829 25.8731 111.821 25.9292C110.977 29.8759 110.512 33.8941 110.431 37.9292C110.431 41.6692 111.501 45.2492 111.971 48.9292C112.295 50.976 112.207 53.067 111.711 55.0792C111.591 55.5092 112.241 55.8592 112.461 55.4292C114.001 52.3592 115.591 48.8592 114.811 45.3992Z" fill="url(#paint30_linear_234_225)"/>
<path d="M101.471 26.0499C102.054 24.3957 102.292 22.6396 102.171 20.8899C102.351 20.3899 101.331 20.5099 101.341 20.7399C100.964 21.7951 100.464 22.8021 99.8509 23.7399C98.8877 25.0194 97.8351 26.2291 96.7009 27.3599C95.6664 28.4397 94.9711 29.7991 94.7009 31.2699C94.576 32.8639 94.6263 34.4668 94.8509 36.0499C94.9746 38.0123 94.7581 39.9813 94.2109 41.8699C94.1859 41.9735 94.2013 42.0827 94.2538 42.1754C94.3064 42.2681 94.3922 42.3374 94.4939 42.3692C94.5957 42.401 94.7057 42.3929 94.8017 42.3466C94.8977 42.3003 94.9725 42.2193 95.0109 42.1199C95.8009 40.2395 96.3194 38.2563 96.5509 36.2299C96.5542 35.2221 96.6581 34.2171 96.8609 33.2299C97.1501 32.2868 97.6112 31.4053 98.2209 30.6299C99.2809 29.0999 100.731 27.8199 101.471 26.0499Z" fill="url(#paint31_linear_234_225)"/>
<path d="M103.21 51.001C103.367 49.7974 103.444 48.5847 103.44 47.371C103.44 44.981 103.44 42.471 104.77 40.371C104.77 40.371 104.77 40.371 104.77 40.311C104.844 40.2614 104.903 40.1922 104.94 40.111C105.065 39.8017 105.08 39.4587 104.982 39.1399C104.883 38.8212 104.678 38.546 104.4 38.361C104.345 38.3277 104.283 38.3071 104.219 38.3009C104.155 38.2946 104.091 38.3028 104.03 38.3249C103.97 38.347 103.915 38.3823 103.87 38.4284C103.825 38.4745 103.791 38.53 103.77 38.591C101.897 43.0056 101.148 47.8159 101.59 52.591C101.592 52.682 101.621 52.7702 101.675 52.8437C101.729 52.9171 101.804 52.9721 101.89 53.001C103 53.331 103.11 51.681 103.21 51.001Z" fill="url(#paint32_linear_234_225)"/>
<path d="M88.4707 27.1192C88.4712 27.0189 88.4357 26.9217 88.3707 26.8453C88.3058 26.7688 88.2156 26.7182 88.1165 26.7024C88.0174 26.6867 87.916 26.707 87.8305 26.7596C87.7451 26.8122 87.6813 26.8937 87.6507 26.9892C87.4407 27.7792 86.9307 29.4692 86.9007 29.5592C86.1107 31.8892 83.5207 32.9692 82.1007 34.8592C81.3826 35.8333 80.902 36.9617 80.6971 38.1545C80.4922 39.3472 80.5688 40.5713 80.9207 41.7292C81.0507 42.1492 81.7907 42.1392 81.7507 41.6392C81.7107 40.9848 81.8497 40.3319 82.1527 39.7505C82.4558 39.1691 82.9114 38.6812 83.4707 38.3392C83.9888 37.9989 84.4682 37.6032 84.9007 37.1592C85.2933 36.6741 85.5949 36.1218 85.7907 35.5292C86.3441 34.1492 86.8841 32.7692 87.4107 31.3892C87.9808 30.0286 88.3384 28.5885 88.4707 27.1192Z" fill="url(#paint33_linear_234_225)"/>
<path d="M77.9307 27.241C76.1707 29.141 74.5107 31.341 74.5907 34.021C74.5947 34.1105 74.6265 34.1964 74.6817 34.2669C74.7369 34.3374 74.8127 34.3889 74.8986 34.4143C74.9845 34.4396 75.0762 34.4375 75.1608 34.4082C75.2454 34.3789 75.3188 34.324 75.3707 34.251C76.8168 32.2491 77.9311 30.0273 78.6707 27.671C78.8907 27.431 78.0707 26.771 77.9307 27.241Z" fill="url(#paint34_linear_234_225)"/>
<path d="M69.2204 37.8395C69.2925 36.2964 69.6308 34.7773 70.2204 33.3495C70.8344 32.1405 71.0646 30.7729 70.8804 29.4295C70.7604 28.9095 70.0004 30.0395 69.9404 30.0795C68.7763 31.0136 67.983 32.3318 67.7026 33.7978C67.4223 35.2638 67.6732 36.7817 68.4104 38.0795C68.4423 38.1869 68.5154 38.2773 68.6139 38.3307C68.7124 38.3842 68.828 38.3963 68.9354 38.3645C69.0428 38.3327 69.1332 38.2595 69.1867 38.161C69.2401 38.0626 69.2523 37.9469 69.2204 37.8395Z" fill="url(#paint35_linear_234_225)"/>
</g>
<path opacity="0.37" d="M171 39.6697C171.19 36.7797 169 34.8197 167 33.1397C161.611 28.7162 155.53 25.2125 149 22.7697C148.789 22.6973 148.56 22.6973 148.35 22.7697C147.63 22.5297 146.7 23.0197 147.01 23.9197C147.81 26.1397 150.09 26.9197 151.94 28.0797C154.089 29.448 156.055 31.0845 157.79 32.9497C158.2 33.3897 158.59 33.8297 158.97 34.2897C159.1 34.4497 159.38 34.6997 159.4 34.9197C159.42 35.1397 159.1 35.5397 158.93 35.7197C158.103 36.5339 157.063 37.0988 155.93 37.3497C153.51 38.0097 150.98 37.9597 148.62 38.8997C144.56 40.4997 141.69 44.0297 139.27 47.5097C138.544 48.456 137.895 49.4593 137.33 50.5097C136.832 51.6031 136.716 52.8322 137 53.9997C137.461 56.4554 138.13 58.8675 139 61.2097C139.953 63.8203 141.138 66.3403 142.54 68.7397C143.81 70.8997 145.54 73.1197 145.54 75.7397C145.54 76.0128 145.648 76.2748 145.842 76.468C146.035 76.6612 146.297 76.7697 146.57 76.7697C146.843 76.7697 147.105 76.6612 147.298 76.468C147.491 76.2748 147.6 76.0128 147.6 75.7397C147.88 73.1297 146.85 70.7397 145.79 68.3797C144.556 65.9194 143.761 63.263 143.44 60.5297C142.99 55.3097 144.44 48.3397 149.67 45.9897C152.328 44.7175 155.268 44.1461 158.21 44.3297C160.97 44.6197 163.68 45.6697 166.48 44.9697C167.703 44.6889 168.802 44.0219 169.617 43.0673C170.431 42.1128 170.916 40.9214 171 39.6697Z" fill="white"/>
<path opacity="0.36" d="M113.9 13.171C110.67 12.971 107.43 12.761 104.19 12.571C101.194 12.3166 98.1798 12.3501 95.1899 12.671C93.1114 12.9225 91.0861 13.5031 89.1899 14.391C87.6247 14.9534 86.139 15.7164 84.7699 16.661C84.5772 16.7091 84.4031 16.8135 84.2699 16.961C84.1299 17.111 83.9999 17.271 83.8599 17.431C83.112 18.1528 82.5316 19.0302 82.1599 20.001C82.0999 20.121 82.0199 20.241 81.9599 20.371C81.8726 20.5689 81.8348 20.7851 81.8499 21.001C81.8499 21.001 81.8499 21.101 81.8499 21.161C81.8725 21.3463 81.9363 21.5243 82.0367 21.6818C82.137 21.8392 82.2714 21.9722 82.4299 22.071C82.7817 22.2457 83.1788 22.3078 83.5671 22.2488C83.9554 22.1897 84.3161 22.0124 84.5999 21.741C85.0684 21.3409 85.5063 20.9063 85.9099 20.441C86.3899 19.951 86.9099 19.491 87.4299 19.041C89.4236 17.3568 91.6938 16.0306 94.1399 15.121C94.3104 15.0592 94.4668 14.964 94.5999 14.841L95.0699 14.761C98.0563 14.393 101.074 14.3461 104.07 14.621L113.78 15.231C115.18 15.321 115.23 13.251 113.9 13.171Z" fill="white"/>
<path opacity="0.38" d="M190.5 63.5208C190.188 61.5403 189.686 59.5946 189 57.7108C189.146 57.5945 189.254 57.4369 189.309 57.2585C189.364 57.0802 189.365 56.8893 189.31 56.7108C187.922 51.719 185.722 46.9893 182.8 42.7108C181.8 41.1308 180.68 39.5808 179.59 38.0408C179.03 37.1808 178.46 36.3208 177.87 35.4808C176.85 34.0341 175.77 32.6308 174.63 31.2708C174.22 30.7508 173.79 30.2708 173.35 29.7208C172.316 28.534 171.196 27.4244 170 26.4008C167.883 24.3615 165.616 22.483 163.22 20.7808C157.336 16.7467 150.948 13.5023 144.22 11.1308C137.354 8.68918 130.34 6.68516 123.22 5.13078C115.964 3.30256 108.574 2.05198 101.12 1.39078C88.3299 0.580778 74.3599 3.65078 65.9999 14.0008C65.4799 14.6508 64.9999 15.3208 64.5499 16.0008C64.4119 16.0193 64.2789 16.0651 64.1587 16.1354C64.0386 16.2058 63.9336 16.2994 63.8499 16.4108C61.293 19.705 58.2597 22.6001 54.8499 25.0008C53.3499 26.0608 51.3399 27.1808 50.5399 28.9208C50.3447 29.2878 50.2687 29.7065 50.3225 30.1187C50.3762 30.5309 50.5571 30.9161 50.8399 31.2208C51.091 31.4868 51.4207 31.6653 51.7807 31.7301C52.1406 31.7949 52.5119 31.7426 52.8399 31.5808C56.9799 30.9108 59.8399 27.5308 62.5699 24.5208C66.2739 20.3203 70.303 16.4182 74.6199 12.8508C78.6849 9.44363 83.5112 7.0665 88.6899 5.92078C94.033 4.87369 99.4985 4.59755 104.92 5.10078C115.92 5.96078 126.52 9.18078 137 12.3608C142.797 13.9597 148.434 16.0886 153.84 18.7208C156.47 20.0808 159.01 21.5808 161.55 23.1008C163.917 24.4089 166.171 25.9107 168.29 27.5908C169.695 28.9063 171.031 30.2949 172.29 31.7508C172.75 32.2808 173.19 32.8308 173.63 33.3708C174.93 35.0408 176.15 36.7708 177.35 38.4908C179.36 41.5347 181.161 44.7121 182.74 48.0008C184.16 51.0008 185.43 54.0008 186.56 57.1108C187.69 60.2208 188.8 63.5108 188.63 66.8808C188.3 73.4408 182.56 78.1908 176.63 79.9508C169.95 81.9508 162.52 81.3708 155.71 80.4508C153.82 80.1908 151.93 79.8608 150.06 79.4508C148.77 79.1808 148.16 81.1508 149.46 81.4508C154.182 82.4506 158.951 83.2115 163.75 83.7308C163.926 83.7615 164.107 83.7355 164.267 83.6563C164.427 83.5772 164.558 83.4492 164.64 83.2908C167.141 83.3565 169.644 83.2462 172.13 82.9608C178.73 82.1708 185.46 79.1808 188.84 73.1508C190.459 70.2181 191.043 66.8261 190.5 63.5208Z" fill="white"/>
<g opacity="0.27">
<path d="M82.72 13.2303C81.2531 13.8136 79.8708 14.5905 78.61 15.5403C77.323 16.3821 76.3139 17.586 75.71 19.0003C75.4692 19.7938 75.3215 20.6127 75.27 21.4403C75.1656 22.289 74.9951 23.1282 74.76 23.9503C74.2304 25.4307 73.9927 26.9996 74.06 28.5703C74.0723 28.6219 74.0962 28.6699 74.1298 28.7109C74.1635 28.7519 74.2059 28.7847 74.2541 28.8068C74.3022 28.829 74.3548 28.8399 74.4078 28.8388C74.4608 28.8376 74.5128 28.8245 74.56 28.8003C75.0193 28.409 75.3647 27.9012 75.56 27.3303C75.9 26.6703 76.23 26.0003 76.56 25.3303C77.2035 23.9602 77.6351 22.5002 77.84 21.0003C77.8701 20.2404 78.0467 19.4934 78.36 18.8003C78.7223 18.1717 79.1698 17.5962 79.69 17.0903C80.7368 16.026 81.8453 15.0243 83.01 14.0903C83.0561 14.0572 83.0905 14.0104 83.1085 13.9565C83.1264 13.9026 83.127 13.8445 83.11 13.7903C83.4 13.5903 83.1 13.0803 82.72 13.2303Z" fill="#A3003B"/>
<path d="M79.3102 34.0601C79.2914 34.0104 79.2588 33.9671 79.2163 33.9352C79.1738 33.9034 79.1232 33.8842 79.0702 33.8801C79.0353 33.8282 78.9863 33.7873 78.929 33.7622C78.8717 33.7371 78.8085 33.7287 78.7467 33.7381C78.6848 33.7476 78.627 33.7744 78.5798 33.8155C78.5326 33.8565 78.4981 33.9102 78.4802 33.9701C78.1302 35.5901 76.8202 36.6801 75.9202 37.9701C75.5004 38.4836 75.2111 39.091 75.0771 39.7405C74.943 40.39 74.9681 41.0624 75.1502 41.7001C75.168 41.765 75.2041 41.8235 75.2542 41.8684C75.3044 41.9133 75.3664 41.9429 75.4329 41.9534C75.4994 41.964 75.5675 41.9551 75.6291 41.9279C75.6907 41.9007 75.7432 41.8563 75.7802 41.8001C76.6802 40.4701 77.5702 39.1401 78.4202 37.8001C79.1202 36.6601 79.8802 35.4001 79.3102 34.0601Z" fill="#A3003B"/>
<path d="M91.7602 44.7402C91.7602 44.0202 91.7602 43.3002 91.7602 42.5702C92.1712 41.6043 92.4828 40.5991 92.6902 39.5702C92.8521 38.2691 92.8184 36.9512 92.5902 35.6602C92.2782 32.9835 92.6533 30.2716 93.6802 27.7802C93.8302 27.4302 93.2402 27.1602 93.0602 27.5002C92.4502 28.6302 91.7902 29.7602 91.2202 30.9102C90.8244 31.3833 90.5959 31.9738 90.5702 32.5902C90.3292 33.4864 90.2781 34.423 90.4202 35.3402C90.7282 36.6498 90.8194 38.001 90.6902 39.3402C90.5236 40.0263 90.4165 40.7256 90.3702 41.4302C90.3702 42.1502 90.4502 42.8602 90.3702 43.5802C90.2902 45.1002 89.6202 46.5202 89.7902 48.0602C89.7902 48.3402 90.1802 48.3802 90.3602 48.2402C90.8296 47.7903 91.1974 47.2452 91.4388 46.6416C91.6803 46.0379 91.7899 45.3896 91.7602 44.7402Z" fill="#A3003B"/>
<path d="M104.32 31.8801C104.44 31.2101 104.56 30.5301 104.69 29.8801C104.808 29.0649 105.04 28.2704 105.38 27.5201C105.729 26.8989 106.113 26.2979 106.53 25.7201C107.299 24.6097 107.71 23.2908 107.71 21.9401C107.613 20.5444 107.181 19.1927 106.45 18.0001C106.25 17.6001 105.65 17.9301 105.85 18.3201C105.867 18.3695 105.89 18.4166 105.92 18.4601C105.902 18.4976 105.893 18.5386 105.893 18.5801C105.893 18.6216 105.902 18.6626 105.92 18.7001C106.19 19.3383 106.368 20.0117 106.45 20.7001C106.481 21.3525 106.417 22.0061 106.26 22.6401C105.883 23.9075 105.394 25.139 104.8 26.3201C104.196 27.5556 103.824 28.8908 103.7 30.2601C103.7 30.7401 103.7 31.2601 103.7 31.7301C103.54 32.6101 103.38 33.4901 103.23 34.3701C103.17 34.7101 103.67 35.0401 103.85 34.6501V34.5701C104.181 33.7129 104.341 32.7989 104.32 31.8801Z" fill="#A3003B"/>
<path d="M108.74 44.8112C108.778 41.9431 108.442 39.0823 107.74 36.3012C107.725 36.0147 107.725 35.7277 107.74 35.4412C107.74 35.0012 107.11 34.9912 107.05 35.4412C107.05 35.6112 107.05 35.7812 107.05 35.9512C107.002 36.0287 106.984 36.1213 107 36.2112V36.3412C107 38.4112 107.75 40.4212 107.88 42.4912C107.948 43.8779 107.648 45.2578 107.01 46.4912C106.363 47.6538 105.821 48.872 105.39 50.1312C104.998 51.342 105.091 52.6578 105.65 53.8012C105.688 53.8651 105.745 53.9153 105.814 53.9446C105.882 53.9738 105.958 53.9806 106.03 53.9639C106.103 53.9472 106.168 53.9079 106.216 53.8517C106.265 53.7954 106.294 53.7252 106.3 53.6512C106.657 52.104 107.177 50.599 107.85 49.1612C108.377 47.7678 108.677 46.2993 108.74 44.8112Z" fill="#A3003B"/>
<path d="M119.14 29.0004C119.213 27.5812 118.913 26.1677 118.27 24.9004C117.685 23.3914 117.018 21.9159 116.27 20.4804C116.258 20.4512 116.241 20.4247 116.218 20.4024C116.196 20.3801 116.17 20.3624 116.14 20.3504L116.08 20.1004C116.059 20.0115 116.004 19.9347 115.926 19.8869C115.848 19.8391 115.754 19.8241 115.665 19.8454C115.577 19.8666 115.5 19.9222 115.452 20C115.404 20.0779 115.389 20.1715 115.41 20.2604C115.79 21.6704 116.11 23.1004 116.35 24.5404C116.689 26.0017 116.773 27.5104 116.6 29.0004C116.32 30.4304 115.66 31.7704 115.31 33.1804C114.959 34.6129 114.752 36.0767 114.69 37.5504C114.692 37.6248 114.717 37.6969 114.762 37.7562C114.807 37.8154 114.869 37.8588 114.941 37.88C115.012 37.9012 115.088 37.8991 115.158 37.874C115.229 37.8488 115.289 37.802 115.33 37.7404C116.13 36.3137 116.87 34.847 117.55 33.3404C118.269 31.9699 118.804 30.5107 119.14 29.0004Z" fill="#A3003B"/>
<path d="M117.4 43.9996C116.953 42.9909 116.569 41.9556 116.25 40.8996C116.239 40.8448 116.215 40.7933 116.18 40.7496V40.5996C116.166 40.5182 116.124 40.4443 116.06 40.3911C115.997 40.3378 115.917 40.3086 115.835 40.3086C115.752 40.3086 115.672 40.3378 115.609 40.3911C115.546 40.4443 115.504 40.5182 115.49 40.5996C115.38 42.8696 116.55 44.9696 116.49 47.2296C116.491 47.3117 116.522 47.3905 116.575 47.4525C116.629 47.5145 116.703 47.5556 116.784 47.5687C116.865 47.5818 116.948 47.566 117.018 47.5242C117.089 47.4823 117.142 47.417 117.17 47.3396C117.614 46.2825 117.695 45.1077 117.4 43.9996Z" fill="#A3003B"/>
<path d="M125.39 54.4898C125.58 51.7098 125.76 48.9298 125.95 46.1498C126.066 43.4283 126.374 40.7183 126.87 38.0398C127.093 36.6963 127.575 35.409 128.29 34.2498C129 33.2498 130.01 32.3998 130.81 31.4298C132.415 29.6051 133.35 27.2875 133.46 24.8598C133.48 23.6533 133.22 22.4586 132.7 21.3698C132.15 20.2298 131.16 19.3098 130.82 18.0698C130.7 17.6398 130.03 17.7998 130.15 18.2298C130.188 18.353 130.235 18.4734 130.29 18.5898C130.487 19.6516 130.803 20.688 131.23 21.6798C131.418 22.1863 131.523 22.7199 131.54 23.2598C131.502 23.9387 131.381 24.6104 131.18 25.2598C130.84 26.5798 130.51 27.9098 130.18 29.2598C130.038 29.8711 129.799 30.4554 129.47 30.9898C129.051 31.5342 128.556 32.0157 128 32.4198C126.638 33.5456 125.548 34.9655 124.814 36.5728C124.08 38.1802 123.719 39.9331 123.76 41.6998C123.76 42.9898 123.97 44.2598 124.05 45.5498C124.15 46.9998 123.87 48.4298 124.05 49.8698C124.23 51.3098 124.48 52.9998 124.7 54.5698C124.77 54.9998 125.37 54.8698 125.39 54.4898Z" fill="#A3003B"/>
<path d="M129.71 70.4707C130.04 69.1536 130.29 67.8179 130.46 66.4707C130.69 64.2207 130.25 61.5807 128.09 60.3807C128.038 60.3672 127.983 60.3672 127.93 60.3807C127.85 60.2507 127.78 60.1207 127.7 60.0007C127.46 59.6207 126.85 59.9507 127.09 60.3207C127.724 61.2309 128.192 62.2468 128.47 63.3207C128.631 64.5478 128.498 65.7957 128.08 66.9607C127.498 69.3325 127.382 71.7949 127.74 74.2107C127.758 74.2757 127.794 74.3341 127.844 74.379C127.894 74.424 127.956 74.4535 128.023 74.464C128.089 74.4746 128.157 74.4657 128.219 74.4386C128.281 74.4114 128.333 74.367 128.37 74.3107C129.018 73.1102 129.471 71.8139 129.71 70.4707Z" fill="#A3003B"/>
<path d="M133.21 52.2101C133.215 52.1803 133.215 52.1499 133.21 52.1201C133.13 50.8169 133.282 49.5099 133.66 48.2601C133.933 47.1559 133.849 45.9936 133.42 44.9401C133.392 44.8879 133.35 44.8443 133.299 44.814C133.248 44.7836 133.189 44.7676 133.13 44.7676C133.071 44.7676 133.012 44.7836 132.961 44.814C132.91 44.8443 132.868 44.8879 132.84 44.9401C132.791 44.9451 132.743 44.9601 132.7 44.9842C132.657 45.0082 132.62 45.0409 132.59 45.0801C131.851 46.0987 131.468 47.3322 131.5 48.5901C131.516 49.2021 131.634 49.8072 131.85 50.3801C132.159 50.9445 132.385 51.5508 132.52 52.1801C132.52 52.1801 132.52 52.2601 132.52 52.3001C132.54 52.3839 132.591 52.4572 132.662 52.506C132.733 52.5547 132.82 52.5756 132.905 52.5644C132.991 52.5532 133.069 52.5109 133.125 52.4455C133.182 52.3801 133.212 52.2963 133.21 52.2101Z" fill="#A3003B"/>
<path d="M149.35 30.6796C149.035 29.8454 148.478 29.1246 147.75 28.6096C146.17 27.3396 144.25 26.5596 142.65 25.2996C141.551 24.4795 140.706 23.3672 140.21 22.0896C140.075 21.499 140.004 20.8954 140 20.2896C140.006 20.2666 140.006 20.2425 140 20.2196C139.995 20.1296 139.995 20.0395 140 19.9496C140.08 19.5196 139.42 19.3096 139.34 19.7496C139.207 20.5094 139.251 21.2898 139.47 22.0296C139.844 24.064 140.843 25.9309 142.33 27.3696C143.17 28.1696 144.85 28.9996 144.58 30.3696C144.28 31.8996 142.52 32.7996 141.43 33.6996C140.34 34.5996 139.2 36.1296 139.59 37.6996C139.606 37.7652 139.641 37.8247 139.691 37.8707C139.74 37.9168 139.802 37.9475 139.869 37.9592C139.936 37.9708 140.004 37.9629 140.066 37.9363C140.129 37.9098 140.182 37.8657 140.22 37.8096C141.253 36.5452 142.649 35.6274 144.22 35.1796C145.72 34.5996 147.57 34.1096 148.73 32.9296C149.032 32.6491 149.25 32.29 149.359 31.8926C149.469 31.4952 149.465 31.0752 149.35 30.6796Z" fill="#A3003B"/>
<path d="M180.21 52.5102C180.239 52.4294 180.239 52.341 180.21 52.2602L180.26 52.2002C180.53 51.8402 179.94 51.4802 179.68 51.8302C179.13 52.5502 178.57 53.2802 177.98 53.9902C177.49 54.3602 176.98 54.7002 176.47 55.0502C175.22 55.9202 174.19 57.0502 172.7 57.5602C171.21 58.0702 169.85 58.0402 168.46 58.4302C167.73 58.6302 167.04 58.9402 166.31 59.1402C165.934 59.2346 165.548 59.285 165.16 59.2902C164.822 59.2742 164.483 59.3182 164.16 59.4202C163.51 59.7534 163.007 60.3167 162.75 61.0002C162.349 61.8329 162.082 62.724 161.96 63.6402C161.961 63.707 161.981 63.7723 162.017 63.8282C162.054 63.8842 162.106 63.9284 162.167 63.9558C162.228 63.9831 162.295 63.9924 162.361 63.9826C162.428 63.9727 162.49 63.9441 162.54 63.9002C164.46 61.7402 167.32 60.9902 169.98 60.1602C171.368 59.7667 172.709 59.2235 173.98 58.5402C175.179 57.817 176.273 56.932 177.23 55.9102C177.67 55.4602 178.08 54.9802 178.49 54.5002C179.216 53.9863 179.807 53.3033 180.21 52.5102Z" fill="#A3003B"/>
<path d="M172.55 63.2695C172.61 62.8395 171.92 62.8195 171.86 63.2695C171.8 63.7195 171.76 64.1695 171.73 64.6295C171.67 64.6392 171.614 64.6676 171.571 64.7107C171.528 64.7538 171.5 64.8094 171.49 64.8695C171.342 65.7249 171.087 66.5581 170.73 67.3495C170.333 68.0994 169.734 68.723 169 69.1495C167.515 70.0158 165.901 70.6402 164.22 70.9995C163.85 71.0795 163.89 71.6995 164.29 71.6795C166.51 71.5595 168.93 71.3895 170.66 69.8195C172.54 68.0995 172.23 65.5495 172.55 63.2695Z" fill="#A3003B"/>
<path d="M155.43 62.0007C155.43 61.0607 155.43 60.1107 155.43 59.1707C155.355 58.3455 155.518 57.5162 155.9 56.7807L156.33 56.4007C156.65 56.1407 156.27 55.7007 155.94 55.8507C155.891 55.8442 155.842 55.85 155.797 55.8675C155.751 55.8849 155.711 55.9136 155.68 55.9507C155.575 56.0613 155.481 56.1819 155.4 56.3107C154.799 56.8179 154.341 57.4727 154.07 58.2107C153.906 59.1428 153.954 60.0997 154.21 61.0107C154.268 62.0578 154.16 63.1076 153.89 64.1207C153.708 65.1881 153.611 66.2681 153.6 67.3507C153.601 67.4252 153.626 67.4972 153.671 67.5565C153.716 67.6158 153.779 67.6592 153.85 67.6804C153.921 67.7016 153.998 67.6994 154.068 67.6743C154.138 67.6492 154.198 67.6024 154.24 67.5407C155.25 66.0007 155.34 63.8807 155.43 62.0007Z" fill="#A3003B"/>
<path d="M184.28 63.7006C183.916 62.513 183.362 61.392 182.64 60.3806C182.611 60.3398 182.574 60.3057 182.53 60.2806C182.477 60.2173 182.403 60.1752 182.322 60.1624C182.241 60.1495 182.157 60.1667 182.087 60.2107C182.018 60.2548 181.966 60.3227 181.943 60.4018C181.92 60.4808 181.926 60.5657 181.96 60.6406C183.07 62.7506 182.65 65.5106 181.87 67.6406C181.02 69.9906 179.26 71.8806 178.55 74.2806C178.45 74.5906 178.87 74.8906 179.11 74.6306C181.081 72.5354 182.672 70.1124 183.81 67.4706C184.385 66.3021 184.551 64.9745 184.28 63.7006Z" fill="#A3003B"/>
</g>
</g>
<defs>
<linearGradient id="paint0_linear_234_225" x1="110.476" y1="86.1767" x2="130.154" y2="21.2849" gradientUnits="userSpaceOnUse">
<stop stop-color="#D33C4E"/>
<stop offset="1" stop-color="#FF5A72"/>
</linearGradient>
<linearGradient id="paint1_linear_234_225" x1="141.089" y1="95.4588" x2="160.768" y2="30.5669" gradientUnits="userSpaceOnUse">
<stop stop-color="#FFBFAB"/>
<stop offset="1" stop-color="#FEE6D7"/>
</linearGradient>
<linearGradient id="paint2_linear_234_225" x1="102.954" y1="83.8948" x2="122.632" y2="19.0029" gradientUnits="userSpaceOnUse">
<stop stop-color="#E6363C"/>
<stop offset="1" stop-color="#E94D4F"/>
</linearGradient>
<linearGradient id="paint3_linear_234_225" x1="111.682" y1="86.5407" x2="131.361" y2="21.6489" gradientUnits="userSpaceOnUse">
<stop stop-color="#E6363C"/>
<stop offset="1" stop-color="#E94D4F"/>
</linearGradient>
<linearGradient id="paint4_linear_234_225" x1="119.637" y1="88.9424" x2="139.316" y2="24.0506" gradientUnits="userSpaceOnUse">
<stop stop-color="#E6363C"/>
<stop offset="1" stop-color="#E94D4F"/>
</linearGradient>
<linearGradient id="paint5_linear_234_225" x1="126.929" y1="91.1553" x2="146.611" y2="26.2539" gradientUnits="userSpaceOnUse">
<stop stop-color="#E6363C"/>
<stop offset="1" stop-color="#E94D4F"/>
</linearGradient>
<linearGradient id="paint6_linear_234_225" x1="139.112" y1="94.8489" x2="158.79" y2="29.9571" gradientUnits="userSpaceOnUse">
<stop stop-color="#E6363C"/>
<stop offset="1" stop-color="#E94D4F"/>
</linearGradient>
<linearGradient id="paint7_linear_234_225" x1="149.858" y1="98.1082" x2="169.536" y2="33.2164" gradientUnits="userSpaceOnUse">
<stop stop-color="#E6363C"/>
<stop offset="1" stop-color="#E94D4F"/>
</linearGradient>
<linearGradient id="paint8_linear_234_225" x1="173.763" y1="105.357" x2="193.438" y2="40.4744" gradientUnits="userSpaceOnUse">
<stop stop-color="#E6363C"/>
<stop offset="1" stop-color="#E94D4F"/>
</linearGradient>
<linearGradient id="paint9_linear_234_225" x1="161.992" y1="101.787" x2="181.671" y2="36.895" gradientUnits="userSpaceOnUse">
<stop stop-color="#E6363C"/>
<stop offset="1" stop-color="#E94D4F"/>
</linearGradient>
<linearGradient id="paint10_linear_234_225" x1="112.423" y1="73.9648" x2="132.024" y2="9.33133" gradientUnits="userSpaceOnUse">
<stop stop-color="#FF5A72"/>
<stop offset="1" stop-color="#D33C4E"/>
</linearGradient>
<linearGradient id="paint11_linear_234_225" x1="110.361" y1="8.12314" x2="94.5836" y2="63.1839" gradientUnits="userSpaceOnUse">
<stop stop-color="#FFBFAB"/>
<stop offset="1" stop-color="#FEE6D7"/>
</linearGradient>
<linearGradient id="paint12_linear_234_225" x1="170.193" y1="42.0787" x2="159.727" y2="78.6242" gradientUnits="userSpaceOnUse">
<stop stop-color="#FFBFAB"/>
<stop offset="1" stop-color="#FEE6D7"/>
</linearGradient>
<linearGradient id="paint13_linear_234_225" x1="22.1239" y1="70.2195" x2="34.974" y2="27.8451" gradientUnits="userSpaceOnUse">
<stop stop-color="#FFBFAB"/>
<stop offset="1" stop-color="#FEE6D7"/>
</linearGradient>
<linearGradient id="paint14_linear_234_225" x1="17.3871" y1="68.783" x2="30.2372" y2="26.4086" gradientUnits="userSpaceOnUse">
<stop stop-color="#FFBFAB"/>
<stop offset="1" stop-color="#DA8276"/>
</linearGradient>
<linearGradient id="paint15_linear_234_225" x1="22.7649" y1="70.4134" x2="35.615" y2="28.039" gradientUnits="userSpaceOnUse">
<stop stop-color="#FFBFAB"/>
<stop offset="1" stop-color="#DA8276"/>
</linearGradient>
<linearGradient id="paint16_linear_234_225" x1="23.7888" y1="70.7243" x2="36.6389" y2="28.3499" gradientUnits="userSpaceOnUse">
<stop stop-color="#FFBFAB"/>
<stop offset="1" stop-color="#DA8276"/>
</linearGradient>
<linearGradient id="paint17_linear_234_225" x1="2.46686" y1="64.6761" x2="7.60922" y2="47.7187" gradientUnits="userSpaceOnUse">
<stop stop-color="#FFBFAB"/>
<stop offset="1" stop-color="#DA8276"/>
</linearGradient>
<linearGradient id="paint18_linear_234_225" x1="2.98679" y1="62.9623" x2="7.08733" y2="49.4404" gradientUnits="userSpaceOnUse">
<stop stop-color="#DA8276"/>
<stop offset="1" stop-color="#FFBFAB"/>
</linearGradient>
<linearGradient id="paint19_linear_234_225" x1="131.956" y1="5.11054" x2="111.179" y2="77.6215" gradientUnits="userSpaceOnUse">
<stop stop-color="#FFBFAB"/>
<stop offset="1" stop-color="#FEE6D7"/>
</linearGradient>
<linearGradient id="paint20_linear_234_225" x1="146.107" y1="75.8104" x2="161.389" y2="25.4165" gradientUnits="userSpaceOnUse">
<stop stop-color="#FEE6D7"/>
<stop offset="1" stop-color="#FFBFAB"/>
</linearGradient>
<linearGradient id="paint21_linear_234_225" x1="96.5014" y1="28.4665" x2="102.659" y2="8.1597" gradientUnits="userSpaceOnUse">
<stop stop-color="#FEE6D7"/>
<stop offset="1" stop-color="#FFBFAB"/>
</linearGradient>
<linearGradient id="paint22_linear_234_225" x1="157.979" y1="69.7436" x2="166.511" y2="41.6089" gradientUnits="userSpaceOnUse">
<stop stop-color="#FFBFAB"/>
<stop offset="1" stop-color="#FEE6D7"/>
</linearGradient>
<linearGradient id="paint23_linear_234_225" x1="165.263" y1="64.7119" x2="170.463" y2="47.5631" gradientUnits="userSpaceOnUse">
<stop stop-color="#FFBFAB"/>
<stop offset="1" stop-color="#FEE6D7"/>
</linearGradient>
<linearGradient id="paint24_linear_234_225" x1="166.411" y1="77.2219" x2="172.633" y2="56.7046" gradientUnits="userSpaceOnUse">
<stop stop-color="#FFBFAB"/>
<stop offset="1" stop-color="#FEE6D7"/>
</linearGradient>
<linearGradient id="paint25_linear_234_225" x1="159.074" y1="71.6121" x2="161.477" y2="63.6884" gradientUnits="userSpaceOnUse">
<stop stop-color="#FFBFAB"/>
<stop offset="1" stop-color="#FEE6D7"/>
</linearGradient>
<linearGradient id="paint26_linear_234_225" x1="125.464" y1="57.6995" x2="137.229" y2="18.9041" gradientUnits="userSpaceOnUse">
<stop stop-color="#FFBFAB"/>
<stop offset="1" stop-color="#FEE6D7"/>
</linearGradient>
<linearGradient id="paint27_linear_234_225" x1="116.509" y1="43.4682" x2="123.28" y2="21.1422" gradientUnits="userSpaceOnUse">
<stop stop-color="#FFBFAB"/>
<stop offset="1" stop-color="#FEE6D7"/>
</linearGradient>
<linearGradient id="paint28_linear_234_225" x1="124.516" y1="26.784" x2="128.407" y2="13.9511" gradientUnits="userSpaceOnUse">
<stop stop-color="#FFBFAB"/>
<stop offset="1" stop-color="#FEE6D7"/>
</linearGradient>
<linearGradient id="paint29_linear_234_225" x1="120.153" y1="68.1175" x2="124.497" y2="53.7918" gradientUnits="userSpaceOnUse">
<stop stop-color="#FFBFAB"/>
<stop offset="1" stop-color="#FEE6D7"/>
</linearGradient>
<linearGradient id="paint30_linear_234_225" x1="108.233" y1="54.4273" x2="116.567" y2="26.9433" gradientUnits="userSpaceOnUse">
<stop stop-color="#FFBFAB"/>
<stop offset="1" stop-color="#FEE6D7"/>
</linearGradient>
<linearGradient id="paint31_linear_234_225" x1="93.9296" y1="42.2219" x2="100.625" y2="20.1447" gradientUnits="userSpaceOnUse">
<stop stop-color="#FFBFAB"/>
<stop offset="1" stop-color="#FEE6D7"/>
</linearGradient>
<linearGradient id="paint32_linear_234_225" x1="101.075" y1="52.7392" x2="105.349" y2="38.6431" gradientUnits="userSpaceOnUse">
<stop stop-color="#FFBFAB"/>
<stop offset="1" stop-color="#FEE6D7"/>
</linearGradient>
<linearGradient id="paint33_linear_234_225" x1="81.7996" y1="42.1793" x2="86.6285" y2="26.2554" gradientUnits="userSpaceOnUse">
<stop stop-color="#FFBFAB"/>
<stop offset="1" stop-color="#FEE6D7"/>
</linearGradient>
<linearGradient id="paint34_linear_234_225" x1="75.3368" y1="34.5471" x2="77.6526" y2="26.9105" gradientUnits="userSpaceOnUse">
<stop stop-color="#FFBFAB"/>
<stop offset="1" stop-color="#FEE6D7"/>
</linearGradient>
<linearGradient id="paint35_linear_234_225" x1="67.8122" y1="37.9589" x2="70.4705" y2="29.1931" gradientUnits="userSpaceOnUse">
<stop stop-color="#FFBFAB"/>
<stop offset="1" stop-color="#FEE6D7"/>
</linearGradient>
<clipPath id="clip0_234_225">
<rect width="192.67" height="95.35" fill="white"/>
</clipPath>
</defs>
</svg>
