<svg height="512" viewBox="0 0 59 55" width="512" xmlns="http://www.w3.org/2000/svg"><g id="Page-1" fill="none" fill-rule="evenodd"><g id="024---Cinnamon" fill-rule="nonzero" transform="translate(-1)"><path id="Shape" d="m22.93 46.17c-.2363802 1.5958525-.892028 3.1003917-1.9 4.36-2.1995768 2.7536503-5.5065875 4.3906755-9.03 4.47-4.93 0-10.24-3.76-10.93-8.83-.40956978-2.2706911.43481386-4.5860598 2.21-6.06.51105498-.3771206 1.08254051-.6645542 1.69-.85 2.15207941-.6808986 4.50374006-.0530091 6.03 1.61l.03.03c.6196148.6976943.9643711 1.596904.97 2.53.0056289-.933096.3503852-1.8323057.97-2.53l.03-.03c.8473786-.9429777 1.9896496-1.5705216 3.24-1.78 1.5698907-.2827243 3.1872424.085512 4.48 1.02 1.7751861 1.4739402 2.6195698 3.7893089 2.21 6.06z" fill="#a56a43"/><path id="Shape" d="m48 16-31.76 23.09c-1.2655486.2098107-2.420266.8489662-3.27 1.81-.6196148.6976943-.9643711 1.596904-.97 2.53-.0056289-.933096-.3503852-1.8323057-.97-2.53-1.52752761-1.6813486-3.89301776-2.3215142-6.06-1.64l14.1-10.75h.01l20.2-15.4c2.4087844-1.7441727 5.7426887-1.4043296 7.75.79.4583692.6293515.7880027 1.342991.97 2.1z" fill="#cb8252"/><path id="Shape" d="m58 23c-1.43 2.86-6.12 5.65-8 6.99-9.07 6.47-21.09 15.59-28.97 20.54 1.007972-1.2596083 1.6636198-2.7641475 1.9-4.36.4095698-2.2706911-.4348139-4.5860598-2.21-6.06-1.2927576-.934488-2.9101093-1.3027243-4.48-1.02l31.76-23.09c2.49-1.94 5.99-3.39 8.58-1.62.5658549.3985984 1.0510763.9007856 1.43 1.48 1.87 2.77.99 5.14-.01 7.14z" fill="#cf976a"/><path id="Shape" d="m20.25 25.62c-.6051558 1.3425903-1.5580077 2.4991317-2.76 3.35-2.6174537 1.876931-5.9367998 2.4857834-9.05 1.66-4.32-1.25-8.03-5.91-7.36-10.54.20147328-2.1027743 1.5253836-3.9317602 3.46-4.78.54411907-.2033798 1.11917406-.3116255 1.7-.32 2.0227128-.0530126 3.8996901 1.0483542 4.84 2.84.0272936.0445792.0507128.0914176.07.14.3846413.7990557.4490424 1.7149822.18 2.56.2295187-.8560235.7719522-1.5947322 1.52-2.07.0511283-.0337616.104597-.0638377.16-.09.9519551-.5627514 2.060829-.8013698 3.16-.68 1.4517611.1478236 2.7806001.8808516 3.68 2.03 1.1896694 1.7498988 1.3425943 4.005541.4 5.9z" fill="#603e26"/><path id="Shape" d="m56.88 14.09c-.0925255.1041112-.192813.2010559-.3.29-2.59-1.77-6.09-.32-8.58 1.62-.1819973-.757009-.5116308-1.4706485-.97-2.1-2.0073113-2.1943296-5.3412156-2.5341727-7.75-.79l-20.2 15.4h-.01c-.54.16-1.07.32-1.58.47v-.01c1.2019923-.8508683 2.1548442-2.0074097 2.76-3.35.9425943-1.894459.7896694-4.1501012-.4-5.9-.8993999-1.1491484-2.2282389-1.8821764-3.68-2.03l33.7-12.3c3.2-1.3 7.51-1.6 8.82 2.42.94 2.9-.43 4.77-1.81 6.28z" fill="#a56a43"/><path id="Shape" d="m49.87 5.39-33.7 12.3c-1.1622214-.1316377-2.3343732.1402168-3.32.77-.7480478.4752678-1.2904813 1.2139765-1.52 2.07.2690424-.8450178.2046413-1.7609443-.18-2.56-.912258-1.8687952-2.83111593-3.0333974-4.91-2.98l36.7-14.35c2.5591883-.92387693 5.4041112.22097858 6.61 2.66.2428357.66890416.351571 1.37908142.32 2.09z" fill="#805333"/><path id="Shape" d="m19.37 46.74c-1.6290834 1.7851758-4.3363107 2.0687901-6.3.66-.4043263-.2978737-.7645512-.6513654-1.07-1.05-.3054488.3986346-.6656737.7521263-1.07 1.05-1.96503986 1.4036817-4.66853669 1.1204582-6.3-.66-.25469426-.2651659-.34333588-.6487093-.23082156-.9987417.11251433-.3500324.40803514-.6100907.76953209-.6771882.36149696-.0670976.73065771.069589.96128947.3559299.93885888 1.0244747 2.49776205 1.1795037 3.62.36.7690914-.5378374 1.2338825-1.4116446 1.25-2.35v-2.56l.03.03c.6196148.6976943.9643711 1.596904.97 2.53.0056289-.933096.3503852-1.8323057.97-2.53l.03-.03v2.56c.0161175.9383554.4809086 1.8121626 1.25 2.35 1.1222379.8195037 2.6811411.6644747 3.62-.36.2306318-.2863409.5997925-.4230275.9612895-.3559299.3614969.0670975.6570177.3271558.7695321.6771882.1125143.3500324.0238727.7335758-.2308216.9987417z" fill="#cb8252"/><path id="Shape" d="m17.04 25.29c-.6830437.4377147-1.4787706.6670508-2.29.66-1.3735261.0100929-2.6739321-.6179441-3.52-1.7-.2656915-.3462601-.4842655-.7262425-.65-1.13-.3444258.2550484-.72101192.4635157-1.12.62-.47390752.1741334-.97511782.2621839-1.48.26-1.70177455.0111659-3.25985831-.952437-4.01-2.48-.23195959-.5025791-.01257912-1.0980404.49-1.33s1.09804041-.0125791 1.33.49c.54872093 1.0882692 1.82403641 1.5949602 2.97 1.18.76219237-.2648807 1.3598147-.866192 1.62-1.63l.7-2.4c.0272936.0445792.0507128.0914176.07.14.3846413.7990557.4490424 1.7149822.18 2.56.2295187-.8560235.7719522-1.5947322 1.52-2.07.0511283-.0337616.104597-.0638377.16-.09l-.71 2.41c-.1866655.7885144.0015863 1.6190369.51 2.25.7579238.9526796 2.1024584 1.2002447 3.15.58.4618613-.2634624 1.0491348-.1194165 1.3366675.3278566s.1747642 1.041346-.2566675 1.3521434z" fill="#805333"/></g></g></svg>