<svg id="Capa_1" enable-background="new 0 0 512.003 512.003" height="512" viewBox="0 0 512.003 512.003" width="512" xmlns="http://www.w3.org/2000/svg"><g><g><path d="m95.132.551c-4.567.554-8.168 4.154-8.722 8.722-.225 1.846-5.197 45.478 19.826 70.502 17.638 17.638 44.518 20.373 59.497 20.373 6.272 0 10.46-.48 11.005-.547 4.567-.554 8.168-4.154 8.722-8.722.225-1.846 5.198-45.478-19.826-70.502-25.026-25.026-68.658-20.052-70.502-19.826z" fill="#a8d445"/></g><g><path d="m405.767 59.903c-25.025-25.025-68.656-20.053-70.502-19.826-4.567.554-8.168 4.154-8.722 8.722-.225 1.846-5.198 45.478 19.826 70.502 17.638 17.638 44.518 20.373 59.497 20.373 6.272 0 10.46-.48 11.005-.547 4.567-.554 8.168-4.154 8.722-8.722.225-1.846 5.198-45.478-19.826-70.502z" fill="#8ab03b"/></g><g><path d="m98.987 105.867c-7.808 2.77-11.892 11.344-9.122 19.151 2.182 6.149 7.964 9.989 14.137 9.989 1.664 0 3.356-.279 5.015-.867l131.985-46.819v40.683c0 8.284 6.716 15 15 15 .055 0 .109-.008.164-.008l10-71.498-10-21.387z" fill="#684135"/></g><g><path d="m414.138 9.989c-2.771-7.807-11.345-11.891-19.151-9.122l-138.821 49.244v92.885c8.208-.09 14.836-6.764 14.836-14.992v-51.325l134.014-47.539c7.808-2.769 11.892-11.344 9.122-19.151z" fill="#593628"/></g><g><path d="m240.784 113.003-8.782 10-23.277-4.559c-21.979 10.675-40.994 36.906-55.81 77.405-14.526 39.706-23.913 91.579-23.913 132.153 0 53.208 20.934 101.706 60.538 140.25 9.484 9.23 18.967 16.851 27.516 22.964l15.903-4.342 23.042 25.128.164-.172 30-213.381-30-185.447h-15.381z" fill="#774b41"/></g><g><path d="m359.089 195.85c-14.816-40.499-33.831-66.73-55.81-77.405l-23.277 4.559-8.782-10h-15.054v398.828l25.176-26.402 13.605 5.788c8.549-6.113 18.032-13.733 27.516-22.964 39.604-38.544 60.538-87.042 60.538-140.25.001-40.575-9.386-92.448-23.912-132.154z" fill="#684135"/></g><g><path d="m232.002 113.003c-8.066 0-15.839 1.837-23.274 5.447-9.108 41.028-25.726 128.131-25.726 217.553 0 41.646 17.941 105.898 34.056 155.211 18.14 12.97 32.085 19.161 32.931 19.531 1.866.816 3.855 1.228 5.849 1.249-16.872-48.089-42.836-129.623-42.836-175.991 0-95.571 20.301-191.061 27.782-223z" fill="#684135"/></g><g><path d="m262.014 510.746c.846-.37 14.791-6.562 32.931-19.531 16.115-49.312 34.056-113.565 34.056-155.211 0-89.422-16.618-176.524-25.726-217.553-7.435-3.61-15.208-5.447-23.274-5.447h-8.782c7.481 31.94 27.782 127.43 27.782 223 0 46.368-25.964 127.902-42.836 175.991 1.994-.022 3.984-.433 5.849-1.249z" fill="#593628"/></g></g></svg>