<svg id="Artboard_30" height="512" viewBox="0 0 64 64" width="512" xmlns="http://www.w3.org/2000/svg" data-name="Artboard 30"><path d="m33 35.44v-12.274a6.589 6.589 0 0 0 -2.472-5.144 16.483 16.483 0 0 1 -2.528-8.772v-1.25h-14v1.25a16.483 16.483 0 0 1 -2.528 8.772 6.589 6.589 0 0 0 -2.472 5.144v34.834a4 4 0 0 0 4 4h20z" fill="#d9d5ca"/><path d="m33 23.166a6.589 6.589 0 0 0 -2.472-5.144 16.483 16.483 0 0 1 -2.528-8.772v-1.25h-8v1.25a16.483 16.483 0 0 1 -2.528 8.772 6.589 6.589 0 0 0 -2.472 5.144v34.834a4 4 0 0 0 4 4h14z" fill="#f2efe0"/><path d="m9 28h24v26h-24z" fill="#5490f5"/><path d="m15 54h18v-18.56-7.44h-18z" fill="#81b4fc"/><circle cx="21" cy="41" fill="#d2976a" r="8"/><path d="m50.227 26.6a16 16 0 0 1 -10.227 27.369l-4-.25a15.97 15.97 0 0 1 -8.4-4.492z" fill="#d2976a"/><rect fill="#5490f5" height="6" rx="2" width="20" x="11" y="2"/><g fill="#9e7150"><path d="m17 37h2v2h-2z"/><path d="m19 40h2v2h-2z"/><path d="m21 37h2v2h-2z"/></g><path d="m40 45.94v10.06a2 2 0 0 0 2 2h11a2 2 0 0 1 2 2 2 2 0 0 1 -2 2h-29a2 2 0 0 1 -2-2 2 2 0 0 1 2-2h10a2 2 0 0 0 2-2v-6.5a1 1 0 0 0 -1.46-.882c-3.094 1.541-5.683 1.87-6.94.612-2.343-2.343.823-9.308 7.071-15.556s13.213-9.417 15.556-7.074-.822 9.308-7.071 15.556c-.807.807-1.625 1.563-2.445 2.261a2 2 0 0 0 -.711 1.523z" fill="#fcfcf9"/><ellipse cx="39" cy="38" fill="#d9d5ca" rx="11.314" ry="2" transform="matrix(.707 -.707 .707 .707 -15.447 38.707)"/></svg>