<svg id="color_copy" height="512" viewBox="0 0 256 256" width="512" xmlns="http://www.w3.org/2000/svg" data-name="color copy"><g fill="#276e04"><path d="m102.1544 236.381a2.4723 2.4723 0 0 1 -.4834-.0474 2.4993 2.4993 0 0 1 -1.9727-2.9336c2.874-14.667 7.6846-27.1558 12.3369-39.2329 5.0186-13.0293 10.208-26.5015 13.02-42.8574 6.5488-38.103 2.99-62.32 2.9531-62.5605a2.5 2.5 0 0 1 4.9434-.7559c.1543 1.0137 3.7168 25.2666-2.9687 64.1631-2.8955 16.8442-8.1748 30.5518-13.2812 43.8076-4.7861 12.4238-9.3057 24.1587-12.0967 38.3979a2.5 2.5 0 0 1 -2.4507 2.0191z"/><path d="m119.6437 185.7678a2.5 2.5 0 0 1 -1.9668-4.04c22.6143-28.9121 48.6611-34.29 49.7588-34.5049a2.5 2.5 0 0 1 .9629 4.9067c-.3574.0723-25.4277 5.376-46.7842 32.6782a2.4935 2.4935 0 0 1 -1.9707.96z"/><path d="m115.1271 195.0832a2.5 2.5 0 0 1 -2.4951-2.3789c-.66-13.6128-3.8252-23.9307-17.5449-33.2949-15.1064-10.3105-18.1475-21.9907-18.27-22.4829a2.5 2.5 0 0 1 4.8506-1.2144c.0342.1313 2.8359 10.42 16.2373 19.5674 15.38 10.4976 19.0068 22.4561 19.7207 37.1826a2.5006 2.5006 0 0 1 -2.376 2.6182q-.0611.0029-.1226.0029z"/></g><g fill="#3f9109"><path d="m82.98 142.6208s6.19-10.8029 6.3387-18.833.0854-13.309.0854-13.309a18.0373 18.0373 0 0 1 2.4243-4.3562 10.6831 10.6831 0 0 1 3.45-2.7628l3.25 3.2268s4.6367-5.9612 8.1387-6.6835 4.62 1.7136 4.62 1.7136l2.5509 6.2016.6306 2.6595s-9.1131 7.1306-8.5742 8.9476 7.3594-1.3129 9.5317-1.72a22.1392 22.1392 0 0 1 5.2789-.0633s1.0092 9.2681-1.2949 10.0305-26.3156 6.2223-33.68 18.4483z"/><path d="m83.8211 141.86s-11.4671.32-18.7289-3.111-11.9643-5.83-11.9643-5.83a18.0373 18.0373 0 0 0 -4.98.2391 10.6831 10.6831 0 0 0 -4.0072 1.8657l1.4492 4.3445s-7.4 1.5093-9.6013 4.3269-.5148 4.9-.5148 4.9l4.4252 5.0383 2.1033 1.7454s10.4345-5.0016 11.8235-3.7123-4.4428 6.0122-5.7717 7.7782a22.1392 22.1392 0 0 0 -2.4 4.7024s7.8574 5.0178 9.5632 3.2914 16.5827-19.9812 30.8069-21.1546z"/><path d="m128.807 89.83s12.8125-11.5313 18.3646-25.1979l1.7083-5.125s.8542-3.4167 2.1354-3.4167a17.5969 17.5969 0 0 0 3.8438-.8542s-1.2813-2.99.8542-2.99h5.5521l1.7083 1.2813v10.677l3.8438-6.8333a13.2375 13.2375 0 0 1 4.2708-.8542h9.8229l-.8542 8.5417-1.2812 4.2713-.8542 3.8438h-6.8333l-5.125 1.2813a2.7585 2.7585 0 0 0 1.2813 2.1354c1.2813.8542 5.9792 1.7083 5.9792 1.7083s5.125.4271 5.125 1.7083.4271 4.6979.4271 4.6979-6.4059 5.125-8.9689 5.125-8.5417-1.7083-8.5417-1.7083-15.8021-4.2708-21.7813-.4271l-8.1146 5.9792z"/><path d="m131.583 88.1124s-12.13-10.9169-17.3862-23.8554l-1.6173-4.852s-.8087-3.2346-2.0216-3.2346a16.6594 16.6594 0 0 1 -3.639-.8087s1.213-2.83-.8087-2.83h-5.2562l-1.6173 1.213v10.108l-3.639-6.4693a12.5323 12.5323 0 0 0 -4.0433-.8087h-9.3l.8087 8.0866 1.213 4.0433.8087 3.639h6.4693l4.852 1.213a2.6115 2.6115 0 0 1 -1.213 2.0216c-1.213.8087-5.6606 1.6173-5.6606 1.6173s-4.852.4043-4.852 1.6173-.4043 4.4476-.4043 4.4476 6.0649 4.852 8.4909 4.852 8.0866-1.6173 8.0866-1.6173 14.96-4.0433 20.6208-.4043l10.0048 7.53z"/><path d="m161.3767 152.8072s9.8789 6.7558 18.1866 7.8469 13.7879 1.6415 13.7879 1.6415a18.8179 18.8179 0 0 1 4.2333 3.0217 11.1454 11.1454 0 0 1 2.4617 3.8995l-3.7246 2.9929s5.6391 5.5026 5.9794 9.2175-2.3156 4.59-2.3156 4.59l-6.727 1.921-2.8308.3435s-6.3292-10.28-8.2758-9.9332.5024 7.783.6709 10.0826a23.0974 23.0974 0 0 1 -.55 5.48s-9.7263-.0352-10.2479-2.5129-3.2628-26.8922-15.0786-35.954z"/><path d="m161.4875 153.5567s.96-11.9295 5.3359-19.075 7.3946-11.7525 7.3946-11.7525a18.8179 18.8179 0 0 0 .3128-5.1917 11.1454 11.1454 0 0 0 -1.4838-4.3663l-4.6693 1.0137s-.732-7.8449-3.4065-10.4457-5.0246-1.0859-5.0246-1.0859l-5.724 4.0223-2.0472 1.985s4.0125 11.3857 2.5188 12.6812-5.7354-5.2851-7.4174-6.8623a23.0974 23.0974 0 0 0 -4.607-3.0184s-6.0892 7.5844-4.4908 9.5481 18.8571 19.4485 18.4721 34.3342z"/><path d="m129.1407 87.6253s-5.8414-26.1863-6.8856-27.9516-8.9377-7.1511-9.7872-11.24a55.3031 55.3031 0 0 1 -.9864-8.2509 6.3188 6.3188 0 0 0 1.393-1.87 10.77 10.77 0 0 0 -.0642-3.4493l5.0605.2033 6.2331 8.8672s-6.646-8.681-4.1917-14.2593a95.4806 95.4806 0 0 1 7.0869-12.387s10.7351 7.8315 10.6944 8.8436 1.4893 3.3038.6954 5.4007-5.435 11.6424-6.5135 20.824c0 0 2.8844-11.238 5.8886-12.8406s4.1618-.1369 4.1618-.1369l4.4379-4.4849 3.9029-1.2624s5.3836 4.7781 3.2288 10.47-8.3579 11.2208-8.3579 11.2208-7.6282 5.6746-9.07 11.2936-4.6675 17.7552-3.5181 21.9576z"/><path d="m83.98 141.6208s-4.9962-13.8016-2.52-19.6057 4.7226-10.7461 4.7226-10.7461l-.9521-2.6566s.8276-6.8919.1962-7.9847-7.2027-.3565-7.2027-.3565l-4.1551-1.3888-2.4815 4.7866s-4.5857-9.449-5.9239-11.0077-3.83 1.1926-3.83 1.1926-8.7258-7.7849-13.3472-8.467c0 0-2.542 8.4656 3.6925 19.0022-.2356-.1554-7.754-1.0583-8.1351 1.0569 0 0 .02 4.07 9.7581 10.8325 0 0-6.0249.4205-6.4862 2.1447s1.5885 4.7669 1.5885 4.7669-3.684-1.078-4.3808.4908-1.5442 4.3907-1.5442 4.3907l1.5039 3.3584 4.15.3713a32.4032 32.4032 0 0 1 6.0249-.4205c1.88.2257 11.4344-1.1732 15.9693.3923 5.3522 1.8476 8.3522 10.8476 8.3522 10.8476z"/><path d="m161.98 154.6208s12-5 19.9443-.6155c5.7639 3.1812 10.6178 6.1014 10.6178 6.1014l2.8622-.69s7.056 1.63 8.26 1.0973 1.1761-7.4312 1.1761-7.4312l1.9056-4.1545-4.6871-3.11s10.314-3.6987 12.0809-4.9122-.8084-4.1057-.8084-4.1057 9.0518-8.1795 10.2766-12.8967c0 0-8.4965-3.5843-20.1235 1.7029.1876-.2269 1.9657-7.9245-.1856-8.5565 0 0-4.2239-.4352-12.3285 8.9091 0 0 .2382-6.2964-1.4986-6.9679s-5.1223 1.1141-5.1223 1.1141 1.5305-3.7006-.0187-4.599-4.3814-2.0932-4.3814-2.0932l-3.6518 1.1835-.85 4.2633a33.8056 33.8056 0 0 1 -.2382 6.2964c-.4445 1.9244.994 12.6623-2.1946 16.52s-12.0352 7.9439-12.0352 7.9439z"/></g></svg>