<svg id="Capa_1" enable-background="new 0 0 512 512" viewBox="0 0 512 512" xmlns="http://www.w3.org/2000/svg"><g><g><path d="m431.131 0h-216.338c-17.069 0-30.905 13.837-30.905 30.905v51.509h278.149v-51.509c-.001-17.068-13.838-30.905-30.906-30.905z" fill="#ffee6e"/></g><g><path d="m338.414 0h-123.621c-17.069 0-30.905 13.837-30.905 30.905v51.509h123.622v-51.509c-.001-17.068 13.836-30.905 30.904-30.905z" fill="#ffdf61"/></g><g><path d="m142.68 163.681v307.112c0 22.758 18.449 41.207 41.207 41.207h278.149c22.758 0 41.207-18.449 41.207-41.207v-307.112l-180.282-41.074z" fill="#ff9b87"/></g><g><path d="m266.302 470.793v-307.112c0-10.073 1.854-20.035 5.432-29.403l-129.054 29.403v307.112c0 22.758 18.449 41.207 41.207 41.207h123.622c-22.758 0-41.207-18.449-41.207-41.207z" fill="#ff8870"/></g><g><path d="m494.543 126.824-32.507-65.013h-154.527l-67.189 50.935 25.982 50.935h236.942c-.001-12.795-2.979-25.413-8.701-36.857z" fill="#ff8870"/></g><g><path d="m151.381 126.824c-5.722 11.444-8.701 24.062-8.701 36.857h123.622c0-12.795 2.979-25.413 8.701-36.857l32.507-65.013h-123.623z" fill="#ff6c52"/></g><g><path d="m389.924 315.52c0-48.595-18.639-89.921-44.649-105.238-78.302 31.742-70.97 185.245 0 210.477 26.009-15.318 44.649-56.644 44.649-105.239z" fill="#ffee6e"/></g><g><path d="m300.641 315.52c0-48.591 18.635-89.922 44.641-105.244-6.982-4.113-14.493-6.359-22.321-6.359-36.981 0-66.961 49.966-66.961 111.603s29.98 111.603 66.962 111.603c7.827 0 15.339-2.246 22.321-6.359-26.007-15.322-44.642-56.653-44.642-105.244z" fill="#ffdf61"/></g><g><path d="m423.295 376.034c-.008 0-.016.003-.024 0-35.791-9.653-90.57 5.658-92.384 74.776l17.632 17.632c41.216-10.885 72.268-47.478 74.726-91.407.018-.326.035-.652.05-.977z" fill="#c3dc4b"/></g><g><path d="m389.79 342.554c-.325.015-.651.032-.977.05-43.929 2.458-80.522 33.51-91.407 74.726l33.481 33.481c10.885-41.216 47.478-72.268 91.407-74.726.326-.018.652-.035.977-.05h.024c.859-18.81-14.693-34.354-33.505-33.481z" fill="#b4d241"/></g><g><g><path d="m256.11 342.578c-6.429 33.614 15.574 101.89 95.604 95.581-.015-.33-.017-.656-.036-.986-2.84-50.745-43.823-91.728-94.568-94.568-.326-.018-.652-.035-.977-.05-.008 0-.016 0-.024 0 .001.007.003.015.001.023z" fill="#e1f573"/></g></g><g><path d="m350.728 438.123c-50.745-2.84-91.729-43.823-94.568-94.568-.018-.326-.035-.652-.05-.977 0-.008 0-.016 0-.024-18.809-.859-34.354 14.693-33.48 33.505.015.325.032.651.05.977 2.84 50.745 43.823 91.729 94.568 94.568 10.868.608 21.377-.533 31.294-3.138 2.525-9.615 3.66-19.791 3.173-30.307-.33-.016-.657-.018-.987-.036z" fill="#d2eb5a"/></g><g><g><path d="m179.071 343.182h-60.779v60.779h121.559z" fill="#fff2de"/></g></g><g><path d="m165.777 329.888c-15.416-15.416-40.411-15.416-55.827 0l-74.073 74.073h82.414l60.779-60.779z" fill="#ffe4c2"/></g><g><path d="m236.066 398.68h-103.688c-36.056 0-51.509 13.837-51.509 30.905 0 45.516 31.263 82.414 103.018 82.414h.67c45.516 0 82.414-36.898 82.414-82.414.001-17.068-13.836-30.905-30.905-30.905z" fill="#707789"/></g><g><path d="m101.473 429.586c0-17.069 13.837-30.905 30.905-30.905h-92.716c-17.069 0-30.905 13.837-30.905 30.905 0 45.516 36.898 82.414 82.414 82.414h92.716c-45.516 0-82.414-36.898-82.414-82.414z" fill="#636978"/></g><g><g><g><path d="m258.628 122.747c-4.142 0-7.5-3.357-7.5-7.5v-12.361c0-4.143 3.358-7.5 7.5-7.5s7.5 3.357 7.5 7.5v12.361c0 4.143-3.357 7.5-7.5 7.5z" fill="#495560"/></g><g><path d="m387.295 122.747c-4.142 0-7.5-3.357-7.5-7.5v-12.361c0-4.143 3.358-7.5 7.5-7.5s7.5 3.357 7.5 7.5v12.361c0 4.143-3.357 7.5-7.5 7.5z" fill="#495560"/></g><g><path d="m322.962 130.106c-8.667 0-16.911-3.754-22.615-10.299-2.722-3.122-2.396-7.86.726-10.581 3.122-2.723 7.86-2.398 10.582.726 2.855 3.275 6.977 5.154 11.308 5.154s8.452-1.879 11.307-5.154c2.722-3.122 7.459-3.448 10.582-.726 3.123 2.721 3.448 7.459.726 10.581-5.706 6.546-13.949 10.299-22.616 10.299z" fill="#495560"/></g></g><g><path d="m325.928 260.956c-1.919 0-3.839-.732-5.303-2.196-1.335-1.336-3.11-2.07-4.999-2.07s-3.664.734-4.999 2.07c-2.929 2.928-7.678 2.928-10.606 0-2.929-2.93-2.929-7.678 0-10.607 4.168-4.168 9.71-6.463 15.605-6.463s11.437 2.295 15.605 6.463c2.929 2.93 2.929 7.678 0 10.607-1.464 1.464-3.384 2.196-5.303 2.196z" fill="#ffc247"/></g><g><path d="m354.232 295.582c-1.919 0-3.839-.732-5.303-2.196-1.335-1.336-3.11-2.07-4.999-2.07s-3.664.734-4.999 2.07c-2.929 2.928-7.678 2.928-10.606 0-2.929-2.93-2.929-7.678 0-10.607 4.168-4.168 9.71-6.463 15.605-6.463s11.437 2.295 15.605 6.463c2.929 2.93 2.929 7.678 0 10.607-1.464 1.464-3.384 2.196-5.303 2.196z" fill="#ffc247"/></g><g><path d="m312.295 325.153c-1.919 0-3.839-.732-5.303-2.196-1.335-1.336-3.11-2.07-4.999-2.07s-3.664.734-4.999 2.07c-2.929 2.928-7.678 2.928-10.606 0-2.929-2.93-2.929-7.678 0-10.607 4.168-4.168 9.71-6.463 15.605-6.463s11.437 2.295 15.605 6.463c2.929 2.93 2.929 7.678 0 10.607-1.464 1.464-3.384 2.196-5.303 2.196z" fill="#ffc247"/></g></g></g><g/><g/><g/><g/><g/><g/><g/><g/><g/><g/><g/><g/><g/><g/><g/></svg>