<svg id="color" height="512" viewBox="0 0 256 256" width="512" xmlns="http://www.w3.org/2000/svg"><path d="m49.9566 150.8008-10.992 5.848-9.0857 6.9862c-22.9582 19.3885-1.5254 36.3268-1.5254 36.3268s16.2491 14.36 23.27 21.6557 17.2925 3.0868 17.2925 3.0868l9.5117-3.5546.4582.717 1.444-1.4282 1.9024-.7112-.4584-.717 7.22-7.14s8.1326-7.5555 4.4582-16.9909-9.8847-30.2113-9.8847-30.2113-6.3748-26.5635-33.6108-13.8673z" fill="#ffbe1d"/><path d="m52.2355 176.488c-7.3879 4.7228-8.5733 16.0661.5079 30.2726 3.7839 5.92 8.5505 11.0838 15.5415 18.1693.4028-.1327.6308-.2256.6308-.2256l9.5117-3.5546.4582.717 1.444-1.4282 1.9024-.7112-.4584-.717 7.22-7.14s.18-.1681.4691-.4781c-3.4955-9.32-6.1808-15.8141-9.965-21.7336-9.081-14.2061-19.874-17.8928-27.2622-13.1706z" fill="#ffecb6"/><path d="m87.4763 225.3843-.0749-13.7608a12.1722 12.1722 0 0 0 -18.0414 11.5324l12.458 5.8459a3.9717 3.9717 0 0 0 5.6583-3.6175z" fill="#fcdc97"/><path d="m197.9461 54.4337-11.65 4.3909-9.9062 5.7648c-25.253 16.2878-6.1671 35.8322-6.1671 35.8322s14.2756 16.3227 20.3035 24.4583 16.7537 5.2771 16.7537 5.2771l9.8884-2.3069.3628.77 1.6151-1.2316 1.9776-.4614-.3628-.77 8.0752-6.1564s9.0339-6.4512 6.5987-16.2792-5.9327-31.2292-5.9327-31.2292-2.9178-27.161-31.5562-18.0586z" fill="#ffbe1d"/><path d="m196.9153 80.201c-7.9323 3.7372-10.5612 14.8355-3.3752 30.0883 2.9944 6.3556 7.06 12.0876 13.0856 20.0105.4165-.08.6544-.1428.6544-.1428l9.8887-2.3069.3628.77 1.6151-1.2316 1.9776-.4614-.3628-.77 8.0752-6.1564s.2-.1439.5266-.4141c-2.2725-9.6906-4.1038-16.4753-7.0981-22.8309-7.1862-15.2522-17.4178-20.2919-25.3499-16.5547z" fill="#ffecb6"/><path d="m225.601 133.2094 1.6887-13.6571a12.1722 12.1722 0 0 0 -19.3706 9.126l11.6064 7.3933a3.9716 3.9716 0 0 0 6.0755-2.8622z" fill="#fcdc97"/><path d="m28.7295 66.7513 4.2751 11.6934 5.6654 9.9633c16.0349 25.4139 35.7688 6.5243 35.7688 6.5243s16.4645-14.112 24.66-20.0589 5.4441-16.7009 5.4441-16.7009l-2.2083-9.9113.7735-.355-1.2149-1.6269-.4418-1.9825-.7734.355-6.0755-8.1361s-6.361-9.0975-16.2125-6.7606-31.2874 5.6209-31.2874 5.6209-27.189 2.6474-18.3731 31.3753z" fill="#ffbe1d"/><path d="m54.4857 68.0387c3.6577 7.9691 14.7289 10.7089 30.0529 3.6754 6.3854-2.931 12.1577-6.9395 20.14-12.8858-.0755-.4173-.1356-.6558-.1356-.6558l-2.2083-9.9113.7735-.355-1.2149-1.6269-.4418-1.9825-.7734.355-6.0755-8.1361s-.1415-.2014-.4088-.5306c-9.7128 2.1758-16.5153 3.9392-22.9007 6.87-15.3244 7.0336-20.4653 17.2149-16.8074 25.1836z" fill="#ffecb6"/><path d="m107.7778 39.8834-13.64-1.8251a12.1722 12.1722 0 0 0 8.9322 19.4605l7.5088-11.5317a3.9716 3.9716 0 0 0 -2.801-6.1037z" fill="#fcdc97"/><path d="m153.4634 99.8372-10.0284-7.38-10.23-5.1681c-27.4138-12.3084-33.41 14.343-33.41 14.343s-5.915 20.8625-9.455 30.3489 4.6991 16.9259 4.6991 16.9259l7.3206 7.0366-.4482.7235 1.9124.6843 1.4639 1.4072.4483-.7235 9.5611 3.4192s10.33 4.0632 17.2468-3.3322 22.96-21.9839 22.96-21.9839 21.1905-17.24-2.0406-36.3009z" fill="#ffbe1d"/><path d="m131.2913 113.006c-7.4543-4.617-18.1938-.7778-27.0724 13.5566-3.7 5.9727-6.2925 12.5044-9.6554 21.8727.2938.3061.4759.4716.4759.4716l7.3206 7.0366-.4482.7235 1.9124.6843 1.4639 1.4072.4483-.7235 9.5611 3.4192s.2293.09.634.2164c6.8895-7.1838 11.5825-12.4148 15.2821-18.3879 8.8782-14.3337 7.532-25.6591.0777-30.2767z" fill="#ffecb6"/><path d="m102.4574 165.9344 12.374-6.0221a12.1722 12.1722 0 0 0 -18.2037-11.275l.1206 13.7608a3.9714 3.9714 0 0 0 5.7091 3.5363z" fill="#fcdc97"/><path d="m204.85 201.1065-.3657-12.4448-2.2317-11.2422c-7.1951-29.1759-31.8826-17.4795-31.8826-17.4795s-20.0769 8.1947-29.73 11.2509-10.4363 14.1291-10.4363 14.1291l-1.0326 10.1014-.8459.093.6394 1.9271-.2065 2.0206.846-.0929 3.1971 9.6379s3.1644 10.64 13.2508 11.5317 31.4615 4.5407 31.4615 4.5407 26.6351 6.0691 27.3365-23.973z" fill="#ffbe1d"/><path d="m180.8163 191.7559c-.9558-8.7162-10.5969-14.81-27.3574-12.9717-6.9837.7659-13.7261 2.7474-23.1771 5.8706-.06.42-.0782.6654-.0782.6654l-1.0326 10.1014-.8459.093.6394 1.9271-.2065 2.0206.846-.0929 3.1971 9.6379s.071.2358.22.6327c9.9032 1.0006 16.9146 1.4744 23.8987.7085 16.761-1.838 24.8523-9.8764 23.8965-18.5926z" fill="#ffecb6"/><path d="m121.362 201.6538 12.3667 6.036a12.1717 12.1717 0 0 0 -2.334-21.2846l-10.7647 8.5728a3.9715 3.9715 0 0 0 .732 6.6758z" fill="#fcdc97"/></svg>