<svg id="Capa_1" enable-background="new 0 0 504.307 504.307" height="512" viewBox="0 0 504.307 504.307" width="512" xmlns="http://www.w3.org/2000/svg"><g><path d="m468.066 237.85c3.078-5.728 4.332-12.488 3.115-19.389-1.217-6.9-4.707-12.825-9.558-17.154 2.036-6.175 2.097-13.051-.299-19.635s-6.863-11.812-12.392-15.234c.933-6.435-.201-13.217-3.704-19.285s-8.81-10.441-14.849-12.85c-.198-6.499-2.493-12.981-6.997-18.349s-10.489-8.753-16.855-10.077c-1.324-6.366-4.709-12.351-10.077-16.855s-11.85-6.798-18.35-6.996c-2.409-6.039-6.782-11.346-12.85-14.849s-12.85-4.638-19.285-3.704c-3.421-5.529-8.649-9.996-15.234-12.392-6.584-2.396-13.46-2.336-19.635-.299-4.329-4.851-10.254-8.342-17.154-9.558s-13.661.037-19.389 3.115l169.947 242.064 30-30c0-7.007-2.409-13.447-6.434-18.553z" fill="#ffd06a"/><path d="m438.066 237.85c3.078-5.728 4.332-12.488 3.115-19.389-1.217-6.9-4.707-12.825-9.558-17.154 2.036-6.175 2.097-13.051-.299-19.635s-6.863-11.812-12.392-15.234c.933-6.435-.201-13.217-3.704-19.285s-8.81-10.441-14.849-12.85c-.198-6.499-2.493-12.981-6.997-18.349s-10.489-8.753-16.855-10.077c-1.324-6.366-4.709-12.351-10.077-16.855s-11.85-6.798-18.35-6.996c-2.409-6.039-6.782-11.346-12.85-14.849s-12.85-4.638-19.285-3.704c-3.421-5.529-8.649-9.996-15.234-12.392-6.584-2.396-13.46-2.336-19.635-.299-1.889-2.491-4.098-4.652-6.543-6.444-5.106-4.026-11.546-6.434-18.553-6.434s-13.447 2.409-18.553 6.434c-5.728-3.078-12.489-4.332-19.389-3.115s-12.825 4.707-17.154 9.558c-6.175-2.036-13.051-2.097-19.635.299s-11.812 6.863-15.234 12.392c-6.435-.933-13.217.201-19.285 3.704s-10.441 8.81-12.85 14.849c-6.499.198-12.981 2.493-18.349 6.997s-8.753 10.489-10.077 16.855c-6.366 1.324-12.351 4.709-16.855 10.077s-6.798 11.849-6.997 18.349c-6.039 2.409-11.346 6.782-14.849 12.85s-4.637 12.85-3.704 19.285c-5.529 3.421-9.995 8.649-12.392 15.234s-2.336 13.46-.299 19.635c-4.851 4.33-8.342 10.254-9.558 17.154-1.217 6.9.037 13.661 3.115 19.389-4.026 5.106-6.434 11.546-6.434 18.553v30h407v-30c-.001-7.007-2.41-13.447-6.435-18.553z" fill="#ffe8b5"/><circle cx="256" cy="75.403" fill="#ffd06a" r="7.5"/><circle cx="188" cy="138.624" fill="#ffd06a" r="7.5"/><circle cx="218" cy="168.624" fill="#ffb35c" r="7.5"/><circle cx="99.249" cy="165.903" fill="#ffd06a" r="7.5"/><circle cx="412.751" cy="165.903" fill="#ffb35c" r="7.5"/><path d="m468.267 466.403h-30l30-30h21.215c5.16 0 8.804 5.099 7.091 9.965-4.11 11.671-15.231 20.035-28.306 20.035z" fill="#acd5df"/><path d="m435.733 466.403h-407c-13.075 0-24.197-8.365-28.305-20.035-1.713-4.867 1.931-9.965 7.091-9.965h458.215c-.001 16.569-13.432 30-30.001 30z" fill="#d9f5ff"/><path d="m474.5 256.403-150 150h30c80.199 0 145.698-62.939 149.796-142.118.222-4.285-3.207-7.882-7.498-7.882z" fill="#8ae7ff"/><path d="m474.5 256.403h-459.299c-4.291 0-7.72 3.596-7.498 7.882 4.099 79.179 69.597 142.118 149.796 142.118h167c82.844 0 150.001-67.157 150.001-150z" fill="#d9f5ff"/><path d="m444.5 256.403-120 120h30c66.168 0 120-53.832 120-120z" fill="#ffb35c"/><path d="m444.5 256.403h-407c0 66.168 53.832 120 120 120h167c66.168 0 120-53.832 120-120z" fill="#ffd06a"/><g fill="#ffb35c"><circle cx="157.501" cy="346.402" r="7.5"/><circle cx="187.501" cy="316.402" r="7.5"/><circle cx="99.249" cy="286.402" r="7.5"/></g><circle cx="354.499" cy="226.402" fill="#ffd06a" r="7.5"/></g></svg>