<svg id="Слой_1" enable-background="new 0 0 512 512" height="512" viewBox="0 0 512 512" width="512" xmlns="http://www.w3.org/2000/svg"><g><path d="m503.2 277.5c-4.2-10.2-10.3-18.5-13.1-22.1 18.6-24.4 17.8-45.9 13.7-59.9-3.5-12.1-10-20.6-13.5-24.5 28.4-32.4 15.3-64.3 2.8-78.7 1.6-2.3 4.3-6.4 5.1-7.8l.3-.4.2-.5c7.5-16.1.4-31.3-8.7-40.1-8-7.8-18.9-12.4-29.2-12.4-5.5 0-10.8 1.3-15.7 3.7-2.5 1.3-11.1 7-17.7 14.2-14.4-14.8-30.1-22.5-46.7-22.8-.4 0-.8 0-1.1 0-22.8 0-40.8 14-46.6 19.1-14.8-10.3-29.2-15.5-42.9-15.5-3.1 0-6.2.3-9.1.8-17.1 3-28 13.8-32.4 18.9-8.2-6.6-16-9.8-24-9.8-3.6 0-7.3.7-10.9 2-10.5 3.9-21.1 13.9-21.2 27.6 0 6.9 2.2 14.4 6.5 21.6l.1.2.1.2c1.1 1.7 6.4 8.4 11.3 13.3-11.2 11.3-16.9 23.9-17.1 37.4-.1 6.9 1.3 14 4.1 21.2l1.9 4.8 5 1.4c9.4 2.6 18.6 8.1 27.3 16.4l7.2 6.9 7.2-7c5.6-5.5 11.8-9.4 13.3-10.2 3.9-2 8.3-3 12.9-3 8.9 0 17.9 3.9 24.8 10.6 9.8 9.6 12.6 22 7.3 33.2-.4.7-2 3.2-3.1 4.8l-.4.6-4 6.1 4.3 5.8c9.2 12.4 21.2 37.6-2.2 66.2l-5.2 6.4 5 6.5c3.6 4.6 9.8 14.3 11.9 26.7l2 12 11.6-3.9c12.1-4.1 21.1-11.3 24.9-14.8 12.1 9.7 25.2 14.7 38.7 14.7 24 0 42-15.6 48.4-21.9 4.7 4.4 16.1 13.5 30.2 14h1.1c10 0 19.4-4.2 27.9-12.5 13.1-12.3 15.8-29.9 7.7-49.5zm-85.8-142.6c-5.6 0-10.2-4.6-10.2-10.2s4.6-10.2 10.2-10.2 10.2 4.6 10.2 10.2-4.6 10.2-10.2 10.2zm0 69.5c-5.6 0-10.2-4.6-10.2-10.2s4.6-10.2 10.2-10.2 10.2 4.6 10.2 10.2-4.6 10.2-10.2 10.2zm0 48.1c5.6 0 10.2 4.6 10.2 10.2s-4.6 10.2-10.2 10.2-10.2-4.6-10.2-10.2 4.6-10.2 10.2-10.2zm-67.1 0c5.6 0 10.2 4.6 10.2 10.2s-4.6 10.2-10.2 10.2-10.2-4.6-10.2-10.2 4.6-10.2 10.2-10.2zm0-68.5c5.6 0 10.2 4.6 10.2 10.2s-4.6 10.2-10.2 10.2-10.2-4.6-10.2-10.2 4.6-10.2 10.2-10.2zm0-49.1c-5.6 0-10.2-4.6-10.2-10.2s4.6-10.2 10.2-10.2 10.2 4.6 10.2 10.2c-.1 5.6-4.6 10.2-10.2 10.2zm-57-10.2c0 5.6-4.6 10.2-10.2 10.2s-10.2-4.6-10.2-10.2 4.6-10.2 10.2-10.2 10.2 4.6 10.2 10.2z" fill="#ffa300"/><path d="m495.3 255.3c28.3-39.4 9.8-71.8.3-84.2 28.9-35.4 11.3-67 2.5-78.9.1-.2.3-.4.4-.6 0 0 3.1-4.7 3.7-6 7.2-15.2 3.6-32.5-9.4-45.2-14-13.6-33.9-17.4-49.6-9.4-2.4 1.2-9.5 5.8-15.8 12-14.4-13.7-30.1-20.8-46.8-21.1-22.3-.3-40 11.5-48 18-18.2-11.9-35.8-16.5-52.5-13.6-15.5 2.7-26.3 11.4-32.1 17.4-12-8.6-23.7-10.6-35.8-6.1-14.3 5.3-23.9 17.9-23.9 31.5 0 7.7 2.4 15.7 7.1 23.7 1 1.7 5.1 6.9 9.4 11.7-10.2 11.4-15.4 23.9-15.5 37.4-.1 5.3.7 10.4 1.9 15.2h.9c5.1.1 10.1.8 15.1 2.2-2.1-5.2-3.5-11.1-3.4-17.3.2-11.5 5.6-22.4 16.2-32.2 1.5-1.4 2.3-3.3 2.3-5.4 0-2-.9-4-2.4-5.3-4.6-4.1-11-12.1-11.9-13.5-3.3-5.6-5.1-11.3-5.1-16.4 0-8.7 7.2-15.2 14.4-17.8 8.8-3.2 17.1-.8 26.9 8 1.6 1.4 3.7 2 5.7 1.8 2.1-.3 3.9-1.4 5.1-3.1.1-.1 9.7-14.1 27.7-17.3 14.1-2.5 29.7 2.3 46.2 14.3 2.9 2.1 6.9 1.8 9.4-.8.2-.2 18.5-18.3 42.1-17.8 14.7.3 28.7 7.7 41.7 22 1.4 1.6 3.5 2.5 5.6 2.4s4.1-1.1 5.4-2.8c5.5-7 14.6-13.2 16.5-14.1 11.8-6 25-.8 32.9 6.9 3.2 3.1 13 14.3 6.5 28.3-.8 1.3-3.7 5.8-5 7.5-.2.2-.4.3-.6.5-2.8 2.8-2.8 7.4 0 10.2 1.3 1.3 31 32.3-3 68.7-2.7 2.9-2.6 7.4.3 10.2 1.4 1.3 33 32.8-.6 74.6-2.2 2.8-2.1 6.7.2 9.4.3.4 31.7 36.3 7.9 59.3-6.8 6.6-14.1 9.8-21.5 9.5-14-.5-25.1-12.8-25.2-12.9-1.4-1.6-3.4-2.5-5.4-2.5-2.1 0-4.1.9-5.4 2.5-1.5 1.7-37 41.1-77 6.8-2.9-2.5-7.3-2.3-10 .5-.1.1-9.1 9.5-22.8 14.1.8 4.7 1.1 9.7.6 15 12.6-3.4 22.3-10 27.8-14.6 24.7 18.3 47.9 14.7 63.3 8.2 10.5-4.4 18.7-10.7 23.6-15.2 6.1 5.1 16.8 12 29.9 12.5 11.6.4 22.4-4.1 32.2-13.6 24.9-23.6 10.6-56.8-3-74.6z" fill="#1d2228"/><path d="m283.1 145.3c11.3 0 20.5-9.2 20.5-20.5s-9.2-20.5-20.5-20.5-20.5 9.2-20.5 20.5c0 11.2 9.2 20.5 20.5 20.5zm0-26.6c3.3 0 6 2.7 6 6s-2.7 6-6 6-6-2.7-6-6 2.7-6 6-6z" fill="#1d2228"/><path d="m350.3 145.3c11.3 0 20.5-9.2 20.5-20.5s-9.2-20.5-20.5-20.5-20.5 9.2-20.5 20.5c-.1 11.2 9.1 20.5 20.5 20.5zm0-26.6c3.3 0 6 2.7 6 6s-2.7 6-6 6-6-2.7-6-6c-.1-3.3 2.6-6 6-6z" fill="#1d2228"/><path d="m417.4 145.3c11.3 0 20.5-9.2 20.5-20.5s-9.2-20.5-20.5-20.5-20.5 9.2-20.5 20.5c0 11.2 9.2 20.5 20.5 20.5zm0-26.6c3.3 0 6 2.7 6 6s-2.7 6-6 6-6-2.7-6-6 2.7-6 6-6z" fill="#1d2228"/><path d="m350.3 214.7c11.3 0 20.5-9.2 20.5-20.5s-9.2-20.5-20.5-20.5-20.5 9.2-20.5 20.5 9.1 20.5 20.5 20.5zm0-26.5c3.3 0 6 2.7 6 6s-2.7 6-6 6-6-2.7-6-6c-.1-3.3 2.6-6 6-6z" fill="#1d2228"/><path d="m417.4 214.7c11.3 0 20.5-9.2 20.5-20.5s-9.2-20.5-20.5-20.5-20.5 9.2-20.5 20.5 9.2 20.5 20.5 20.5zm0-26.5c3.3 0 6 2.7 6 6s-2.7 6-6 6-6-2.7-6-6 2.7-6 6-6z" fill="#1d2228"/><path d="m350.3 283.2c11.3 0 20.5-9.2 20.5-20.5s-9.2-20.5-20.5-20.5-20.5 9.2-20.5 20.5c-.1 11.3 9.1 20.5 20.5 20.5zm0-26.5c3.3 0 6 2.7 6 6s-2.7 6-6 6-6-2.7-6-6c-.1-3.3 2.6-6 6-6z" fill="#1d2228"/><path d="m417.4 283.2c11.3 0 20.5-9.2 20.5-20.5s-9.2-20.5-20.5-20.5-20.5 9.2-20.5 20.5 9.2 20.5 20.5 20.5zm0-26.5c3.3 0 6 2.7 6 6s-2.7 6-6 6-6-2.7-6-6 2.7-6 6-6z" fill="#1d2228"/><path d="m314.8 412.7c-4.2-10.3-10.2-18.5-13.1-22.1 18.6-24.4 17.8-45.9 13.7-59.9-3.5-12.1-10-20.6-13.5-24.5 28.4-32.4 15.3-64.3 2.8-78.7 1.7-2.4 4.4-6.5 5.1-7.8l.3-.4.2-.5c7.5-16.1.4-31.3-8.7-40.1-8-7.8-18.9-12.4-29.2-12.4-5.5 0-10.8 1.3-15.7 3.7-2.5 1.3-11.1 7-17.6 14.2-14.4-14.8-30.2-22.5-46.9-22.8-.4 0-.8 0-1.1 0-23 0-40.8 14-46.5 19.1-14.8-10.3-29.2-15.5-42.9-15.5-3 0-6 .3-8.9.8-17.1 2.9-28.2 13.9-32.6 19-8.2-6.6-16-9.8-24-9.8-3.6 0-7.3.7-10.9 2-10.5 3.9-21.2 13.9-21.2 27.6 0 6.9 2.2 14.4 6.5 21.6l.1.2.1.2c1.1 1.7 6.4 8.4 11.3 13.3-11.1 11.2-16.8 23.8-17 37.3-.3 21.1 13.2 38.4 18.4 44.2-14.1 17.5-17.9 37.8-10.9 58.9 3.9 11.6 10.2 20.7 13.8 25.3-6.1 3.8-15 12.7-18.5 23.9-3.5 11-1.4 21.6 6 31.6 6.5 8.7 15.7 13.2 26.6 13.2 13.2 0 25.7-6.9 30.8-10.1 14.6 14.5 30.2 21.8 46.5 21.8h.3c21.3-.1 37.4-12.8 42.9-17.9 12.1 9.7 25.2 14.7 38.7 14.7 24 0 42-15.5 48.4-21.9 4.7 4.4 16.1 13.5 30.2 14h1.3c9.9 0 19.3-4.2 27.8-12.5 12.8-12.5 15.4-30.1 7.4-49.7zm-85.9-142.6c-5.6 0-10.2-4.6-10.2-10.2s4.6-10.2 10.2-10.2 10.2 4.6 10.2 10.2-4.5 10.2-10.2 10.2zm0 69.5c-5.6 0-10.2-4.6-10.2-10.2s4.6-10.2 10.2-10.2 10.2 4.6 10.2 10.2-4.5 10.2-10.2 10.2zm0 48.1c5.6 0 10.2 4.6 10.2 10.2s-4.6 10.2-10.2 10.2-10.2-4.6-10.2-10.2 4.6-10.2 10.2-10.2zm-67.1-117.6c-5.6 0-10.2-4.6-10.2-10.2s4.6-10.2 10.2-10.2 10.2 4.6 10.2 10.2-4.6 10.2-10.2 10.2zm0 69.5c-5.6 0-10.2-4.6-10.2-10.2s4.6-10.2 10.2-10.2 10.2 4.6 10.2 10.2-4.6 10.2-10.2 10.2zm0 48.1c5.6 0 10.2 4.6 10.2 10.2s-4.6 10.2-10.2 10.2-10.2-4.6-10.2-10.2 4.6-10.2 10.2-10.2zm-67.1-117.6c-5.6 0-10.2-4.6-10.2-10.2s4.6-10.2 10.2-10.2 10.2 4.6 10.2 10.2-4.6 10.2-10.2 10.2zm0 69.5c-5.6 0-10.2-4.6-10.2-10.2s4.6-10.2 10.2-10.2 10.2 4.6 10.2 10.2-4.6 10.2-10.2 10.2zm0 48.1c5.6 0 10.2 4.6 10.2 10.2s-4.6 10.2-10.2 10.2-10.2-4.6-10.2-10.2 4.6-10.2 10.2-10.2z" fill="#ffa300"/><g fill="#1d2228"><path d="m321.1 337.7c-2.4-14.3-9.2-25.3-13.9-31.4 28.9-35.4 11.3-67 2.5-78.9.1-.2.3-.4.4-.6 0 0 3.1-4.7 3.7-6 7.2-15.2 3.6-32.5-9.4-45.2-14-13.6-33.9-17.4-49.6-9.4-2.4 1.2-9.5 5.8-15.8 12-10-9.5-20.6-15.8-31.7-18.9-4.9-1.4-9.9-2.1-15.1-2.2-.3 0-.6 0-.9 0-21.8-.1-39.2 11.6-47.1 18-18.2-11.9-35.8-16.5-52.5-13.6-15.5 2.7-26.3 11.4-32.1 17.4-12-8.6-23.7-10.5-35.8-6.1-14.2 5.5-23.8 18.1-23.8 31.7 0 7.7 2.4 15.7 7.1 23.7 1 1.7 5.1 6.9 9.4 11.7-10.2 11.3-15.4 23.8-15.5 37.4-.2 19.9 10.8 36.4 17.2 44.3-23.2 31.4-11 64.7 2.3 83.1-6.1 4.8-12.7 12.6-16.1 22.1-3.1 8.8-4.6 22.3 6.2 36.7 16.9 22.5 44.3 14.9 60.1 5.8 14.7 13.8 30.5 20.7 47 20.7h.4c19.9-.1 35.4-10.5 43-16.7 24.7 18.3 47.9 14.7 63.3 8.2 10.5-4.4 18.7-10.7 23.6-15.2 6.1 5.1 16.8 12 29.9 12.5 11.6.4 22.4-4.1 32.2-13.6 24.6-23.8 10.2-56.9-3.3-74.8 9.8-13.6 14-26.4 14.9-37.8.5-5.2.2-10.2-.6-14.9zm-67.7 113.8c-1.4-1.6-3.4-2.5-5.4-2.5-2.1 0-4.1.9-5.4 2.5-1.5 1.7-37 41.1-77 6.8-2.9-2.5-7.4-2.3-10 .5-.2.2-15.7 16.5-37.4 16.6-.1 0-.2 0-.3 0-14 0-27.8-6.9-40.8-20.5-1.4-1.5-3.3-2.2-5.2-2.2-1.5 0-2.9.4-4.2 1.3-1.2.9-30 21-45.3.6-5.4-7.2-6.9-14.5-4.4-22.2 3.4-10.6 13-18.1 15.4-18.9 2.5-.6 4.5-2.5 5.2-5s.1-5.1-1.6-7c-1.5-1.6-35.3-39-3.6-75.6 2.5-2.9 2.3-7.2-.4-9.9-.2-.2-17.6-17.6-17.3-38.8.2-11.5 5.6-22.4 16.2-32.2 1.5-1.4 2.3-3.3 2.3-5.4 0-2-.9-4-2.4-5.3-4.7-4.2-11.1-12.2-11.9-13.5-3.3-5.6-5.1-11.3-5.1-16.3 0-8.7 7.2-15.2 14.4-17.8 8.8-3.2 17.1-.8 26.9 8 1.6 1.4 3.6 2 5.7 1.8s3.9-1.4 5.1-3.1c.1-.1 10-14.2 27.9-17.3 14-2.4 29.5 2.4 46 14.4 2.9 2.1 6.9 1.8 9.4-.8.2-.2 18.2-18.3 42-17.8 14.7.3 28.8 7.7 41.8 22 1.4 1.6 3.5 2.5 5.6 2.4s4.1-1.1 5.4-2.8c5.5-7.1 14.6-13.2 16.5-14.1 11.8-6 25-.8 32.9 6.9 3.2 3.1 13 14.3 6.5 28.3-.8 1.3-3.8 5.9-5 7.5-.2.1-.3.3-.5.5-2.8 2.8-2.9 7.4 0 10.3 1.3 1.3 31 32.3-3 68.7-2.7 2.9-2.6 7.4.3 10.2 1.4 1.3 33 32.8-.6 74.6-2.2 2.8-2.1 6.7.2 9.4.3.4 31.7 36.3 7.9 59.3-6.8 6.6-14 9.8-21.5 9.5-14.1-.7-25.2-13-25.3-13.1z"/><path d="m94.7 239.4c-11.3 0-20.5 9.2-20.5 20.5s9.2 20.5 20.5 20.5 20.5-9.2 20.5-20.5-9.2-20.5-20.5-20.5zm0 26.5c-3.3 0-6-2.7-6-6s2.7-6 6-6 6 2.7 6 6-2.7 6-6 6z"/><path d="m161.8 239.4c-11.3 0-20.5 9.2-20.5 20.5s9.2 20.5 20.5 20.5 20.5-9.2 20.5-20.5c.1-11.3-9.2-20.5-20.5-20.5zm0 26.5c-3.3 0-6-2.7-6-6s2.7-6 6-6 6 2.7 6 6-2.7 6-6 6z"/><path d="m208.4 259.9c0 11.3 9.2 20.5 20.5 20.5s20.5-9.2 20.5-20.5-9.2-20.5-20.5-20.5-20.5 9.2-20.5 20.5zm20.5-6c3.3 0 6 2.7 6 6s-2.7 6-6 6-6-2.7-6-6 2.7-6 6-6z"/><path d="m94.7 308.8c-11.3 0-20.5 9.2-20.5 20.5s9.2 20.5 20.5 20.5 20.5-9.2 20.5-20.5c0-11.2-9.2-20.5-20.5-20.5zm0 26.6c-3.3 0-6-2.7-6-6s2.7-6 6-6 6 2.7 6 6-2.7 6-6 6z"/><path d="m161.8 308.8c-11.3 0-20.5 9.2-20.5 20.5s9.2 20.5 20.5 20.5 20.5-9.2 20.5-20.5c.1-11.2-9.2-20.5-20.5-20.5zm0 26.6c-3.3 0-6-2.7-6-6s2.7-6 6-6 6 2.7 6 6-2.7 6-6 6z"/><path d="m228.9 349.9c11.3 0 20.5-9.2 20.5-20.5s-9.2-20.5-20.5-20.5-20.5 9.2-20.5 20.5 9.2 20.5 20.5 20.5zm0-26.5c3.3 0 6 2.7 6 6s-2.7 6-6 6-6-2.7-6-6 2.7-6 6-6z"/><path d="m94.7 377.3c-11.3 0-20.5 9.2-20.5 20.5s9.2 20.5 20.5 20.5 20.5-9.2 20.5-20.5-9.2-20.5-20.5-20.5zm0 26.6c-3.3 0-6-2.7-6-6s2.7-6 6-6 6 2.7 6 6-2.7 6-6 6z"/><path d="m161.8 377.3c-11.3 0-20.5 9.2-20.5 20.5s9.2 20.5 20.5 20.5 20.5-9.2 20.5-20.5-9.2-20.5-20.5-20.5zm0 26.6c-3.3 0-6-2.7-6-6s2.7-6 6-6 6 2.7 6 6-2.7 6-6 6z"/><path d="m228.9 377.3c-11.3 0-20.5 9.2-20.5 20.5s9.2 20.5 20.5 20.5 20.5-9.2 20.5-20.5-9.1-20.5-20.5-20.5zm0 26.6c-3.3 0-6-2.7-6-6s2.7-6 6-6 6 2.7 6 6c.1 3.3-2.6 6-6 6z"/></g></g></svg>