<svg id="Capa_1" enable-background="new 0 0 512 512" viewBox="0 0 512 512" xmlns="http://www.w3.org/2000/svg"><g><g><path d="m356.011 207.796c10.109.8 46.975 6.608 56.672 9.376 9.847-6.82 47.379-28.592 56.673-37.886 39.04-39.04 31.723-82.841 9.63-104.26-33.283-17.201-75.225 7.909-102.22 34.378z" fill="#a2e62e"/></g><g><path d="m369.556 231.994 41.036 4.895c5.531-2.709 10.976-5.731 16.312-9.07 12.297-7.697 24.592-17.443 36.171-29.022 45.49-45.49 51.717-91.052 27.456-115.314-3.44-3.44-7.309-6.267-11.544-8.456 13.25 25.636 3.129 64.73-35.911 103.77-8.687 8.687-17.777 16.342-26.969 22.875-1.218.866-2.76 1.111-4.203.723-14.118-3.795-28.808-5.574-43.587-5.164z" fill="#97d729"/></g><path d="m119.455 159.796c0 12.7 6.045 43.325 9.145 55.545-14.59 3.02-35.441.59-61.12 0-6.31-5-12.53-10.53-18.55-16.55-45.49-45.49-51.72-91.05-27.46-115.31 21.21-21.21 58.7-19.11 98.19 12.14 3.382 23.779-.205 40.065-.205 64.175z" fill="#a2e62e"/><path d="m154.53 131.081v96.74l-21.51 4.16-29.83 5.77c-6.14-2.93-12.19-6.24-18.09-9.93s-11.8-7.86-17.62-12.48c11.319-6.113 23.506-10.836 36.317-13.932 2.649-.64 4.293-3.268 3.71-5.93-2.342-10.693-3.526-21.639-3.526-32.669 0-24.11 5.64-46.92 15.68-67.19 4.93 3.9 9.88 8.25 14.84 13.07 7.299 7.081 13.979 14.571 20.029 22.391z" fill="#97d729"/><path d="m357.198 80.073 29.572 94.04-50.72 75.386-102.653 20.673-88.04-53.933-16.757-18.678c-3.01-11.07-4.62-22.72-4.62-34.75 0-72.91 59.11-132.01 132.02-132.01 31.36 0 60.16 10.93 82.81 29.19z" fill="#fe646f"/><path d="m388.02 162.811c0 12.03-1.61 23.68-4.62 34.76-13.15 48.29-53.02 85.57-102.75 94.96-7.98 1.51-16.22 2.3-24.65 2.3-8.4 0-16.63-.79-24.59-2.29-31.43-5.92-58.92-22.97-78.22-46.91-11.27-13.97-19.74-30.27-24.59-48.07 3.61-.26 7.25-.39 10.92-.39 34.6 0 68.47 11.94 95.37 33.63 6.292 5.081 12.115 10.592 17.442 16.477 1.999 2.208 5.44 2.206 7.44-.003 23.752-26.236 56.514-44.173 93.346-48.872 1.778-.227 3.297-1.365 4.012-3.009 7.005-16.112 10.891-33.894 10.891-52.583 0-31.36-10.94-60.17-29.21-82.82 30.009 24.2 49.209 61.27 49.209 102.82z" fill="#fd4755"/><circle cx="256" cy="162.812" fill="#ffc344" r="54.359"/><path d="m491.574 329.935c0-31.361-18.01-60.914-36.275-83.562-22.648-18.265-51.454-29.201-82.815-29.201-72.91 0-132.016 59.105-132.016 132.016 0 31.361 10.935 60.167 29.2 82.815 22.648 18.265 54.981 43.833 86.342 43.833 72.911 0 135.564-72.991 135.564-145.901z" fill="#fe646f"/><path d="m262.03 329.935c0-31.361-21.434-60.914-39.699-83.562-22.648-18.265-51.454-29.201-82.815-29.201-72.911 0-132.016 59.105-132.016 132.016 0 31.361 10.935 60.167 29.201 82.815 22.648 18.265 51.869 41.932 83.23 41.932 72.91 0 142.099-71.09 142.099-144z" fill="#fe646f"/><circle cx="139.516" cy="349.187" fill="#ffc344" r="54.359"/><circle cx="372.484" cy="349.187" fill="#ffc344" r="54.359"/><path d="m222.331 246.372c18.265 22.648 29.201 51.454 29.201 82.815 0 72.91-59.105 132.016-132.016 132.016-31.361 0-60.167-10.935-82.815-29.201 24.199 30.006 61.265 49.201 102.815 49.201 72.91 0 132.016-59.105 132.016-132.016-.001-41.549-19.196-78.615-49.201-102.815z" fill="#fd4755"/><path d="m455.299 246.372c18.265 22.648 29.201 51.454 29.201 82.815 0 72.91-59.105 132.016-132.016 132.016-31.361 0-60.167-10.935-82.815-29.201 24.199 30.006 61.266 49.201 102.815 49.201 72.91 0 132.016-59.105 132.016-132.016 0-41.549-19.195-78.615-49.201-102.815z" fill="#fd4755"/><path d="m201.375 349.188c0-34.109-27.75-61.859-61.859-61.859s-61.859 27.75-61.859 61.859 27.75 61.859 61.859 61.859 61.859-27.75 61.859-61.859zm-108.719 0c0-25.838 21.021-46.859 46.859-46.859s46.859 21.021 46.859 46.859-21.021 46.859-46.859 46.859-46.859-21.021-46.859-46.859z"/><path d="m150.686 370.964c1.465 1.464 3.385 2.197 5.304 2.197s3.839-.732 5.304-2.197c2.929-2.929 2.929-7.678 0-10.606l-11.17-11.17 11.17-11.17c2.929-2.929 2.929-7.678 0-10.606-2.929-2.929-7.677-2.929-10.607 0l-11.17 11.17-11.17-11.17c-2.93-2.929-7.678-2.929-10.607 0s-2.929 7.678 0 10.606l11.17 11.17-11.17 11.17c-2.929 2.929-2.929 7.678 0 10.606 1.465 1.465 3.384 2.197 5.304 2.197 1.919 0 3.839-.732 5.304-2.197l11.17-11.17z"/><path d="m372.484 287.328c-34.109 0-61.859 27.75-61.859 61.859s27.75 61.859 61.859 61.859 61.859-27.75 61.859-61.859-27.749-61.859-61.859-61.859zm0 108.719c-25.838 0-46.859-21.021-46.859-46.859s21.021-46.859 46.859-46.859 46.859 21.021 46.859 46.859-21.021 46.859-46.859 46.859z"/><path d="m394.262 327.411c-2.929-2.929-7.677-2.929-10.607 0l-11.17 11.17-11.17-11.17c-2.93-2.929-7.678-2.929-10.607 0s-2.929 7.678 0 10.606l11.17 11.17-11.17 11.17c-2.929 2.929-2.929 7.678 0 10.606 1.465 1.465 3.384 2.197 5.304 2.197 1.919 0 3.839-.732 5.304-2.197l11.17-11.17 11.17 11.17c1.465 1.464 3.385 2.197 5.304 2.197s3.839-.732 5.304-2.197c2.929-2.929 2.929-7.678 0-10.606l-11.17-11.17 11.17-11.17c2.926-2.929 2.926-7.678-.002-10.606z"/><path d="m317.859 162.812c0-34.109-27.75-61.859-61.859-61.859s-61.859 27.75-61.859 61.859 27.75 61.859 61.859 61.859 61.859-27.749 61.859-61.859zm-108.718 0c0-25.838 21.021-46.859 46.859-46.859s46.859 21.021 46.859 46.859-21.021 46.86-46.859 46.86-46.859-21.021-46.859-46.86z"/><path d="m267.17 184.589c1.465 1.464 3.385 2.197 5.304 2.197s3.839-.732 5.304-2.197c2.929-2.929 2.929-7.678 0-10.606l-11.17-11.17 11.17-11.17c2.929-2.929 2.929-7.678 0-10.606-2.929-2.929-7.677-2.929-10.607 0l-11.171 11.168-11.17-11.17c-2.93-2.929-7.678-2.929-10.607 0s-2.929 7.678 0 10.606l11.17 11.17-11.17 11.17c-2.929 2.929-2.929 7.678 0 10.606 1.465 1.465 3.384 2.197 5.304 2.197 1.919 0 3.839-.732 5.304-2.197l11.17-11.17z"/><path d="m440.774 227.557c9.602-6.848 18.852-14.706 27.604-23.458 22.668-22.668 37.164-46.661 41.922-69.384 4.697-22.433-.44-42.511-14.466-56.536-13.884-13.884-33.742-19.065-55.913-14.594-4.06.819-6.688 4.774-5.868 8.835.819 4.06 4.77 6.688 8.835 5.869 17.335-3.5 31.976.133 42.339 10.497 10.476 10.475 14.068 25.294 10.392 42.856-4.158 19.862-17.246 41.25-37.848 61.852-10.241 10.241-21.187 19.153-32.571 26.52-11.942-4.891-24.707-8.172-38.024-9.572 2.173-5.971 3.925-12.06 5.251-18.246l59.477-59.477c2.929-2.929 2.929-7.678 0-10.606-2.93-2.929-7.678-2.929-10.607 0l-45.874 45.874c.062-1.719.094-3.443.094-5.172 0-18.192-3.5-35.582-9.863-51.532 8.886-8.295 17.94-15.231 26.958-20.647 3.551-2.133 4.701-6.74 2.568-10.291-2.134-3.551-6.739-4.7-10.291-2.568-8.69 5.219-17.365 11.679-25.875 19.261-23.544-43.855-69.855-73.741-123.014-73.741-30.316 0-59.146 9.559-83.373 27.642-3.319 2.478-4.002 7.177-1.524 10.497 2.479 3.319 7.178 4.001 10.497 1.524 21.615-16.134 47.343-24.663 74.4-24.663 68.658 0 124.516 55.857 124.516 124.516 0 16.247-3.066 31.993-9.119 46.864-46.752.362-89.931 24.069-115.432 62.747-24.802-37.5-67.218-62.378-115.361-62.747-6.053-14.871-9.119-30.617-9.119-46.864 0-28.002 9.076-54.448 26.246-76.478 2.547-3.267 1.963-7.98-1.305-10.526-3.265-2.545-7.979-1.962-10.525 1.305-4.923 6.316-9.252 12.955-12.969 19.865-49.413-44.103-93.852-41.712-116.766-18.8-14.025 14.025-19.163 34.103-14.466 56.536 4.758 22.724 19.254 46.716 41.922 69.384 8.726 8.726 17.949 16.566 27.525 23.402-10.96 6.18-21.145 13.895-30.285 23.034-2.929 2.929-2.929 7.678 0 10.606 2.929 2.929 7.677 2.929 10.607 0 23.518-23.518 54.787-36.47 88.046-36.47 68.658 0 124.516 55.857 124.516 124.516s-55.857 124.516-124.516 124.516-124.515-55.857-124.515-124.515c0-21.795 5.711-43.238 16.514-62.011 2.066-3.59.831-8.175-2.759-10.241-3.59-2.064-8.175-.831-10.241 2.759-12.113 21.045-18.514 45.076-18.514 69.493 0 76.929 62.586 139.516 139.516 139.516 48.591 0 91.46-24.97 116.449-62.752 25.699 38.979 69.35 62.752 116.52 62.752 76.929 0 139.516-62.586 139.516-139.516-.001-52.138-28.75-97.688-71.227-121.631zm-386.545-34.064c-20.602-20.602-33.689-41.989-37.848-61.852-3.677-17.562-.084-32.381 10.392-42.856 21.957-21.957 61.627-12.875 99.513 22.439-6.465 16.224-9.802 33.621-9.802 51.588 0 1.729.032 3.453.094 5.172l-45.874-45.874c-2.93-2.929-7.678-2.929-10.607 0s-2.929 7.678 0 10.606l59.477 59.477c1.326 6.184 3.076 12.269 5.248 18.237-13.202 1.373-26.002 4.593-38.096 9.532-11.359-7.357-22.28-16.252-32.497-26.469zm318.255 280.21c-44.66 0-85.786-23.88-108.004-62.509 9.311-18.689 14.551-39.747 14.551-62.007 0-22.259-5.24-43.318-14.551-62.007 22.218-38.629 63.344-62.509 108.004-62.509 68.658 0 124.516 55.857 124.516 124.516s-55.857 124.516-124.516 124.516z"/></g><g/><g/><g/><g/><g/><g/><g/><g/><g/><g/><g/><g/><g/><g/><g/></svg>