<svg id="Layer_1" enable-background="new 0 0 55 55" height="512" viewBox="0 0 55 55" width="512" xmlns="http://www.w3.org/2000/svg"><g id="_x35_4"><g><path d="m51.0398216 30.0669193c-.9500122-3.4099731-3.1900024-5.6199951-5.8300171-6.2000122l-.0299683-.0099487c-.0400391-.0100098-.0800171-.0200195-.1199951-.0300293l-2.1000366-.4699707c-.0599976-.0100098-.1099854-.0200195-.1699829-.0300293-.6500244-.8200073-1.4199829-1.4500122-2.2799683-1.8599854v-.0200195l-17.8100605-9.5899658c-1.5699463-.8600464-3.2299805-1.5600586-4.9499512-2.0500488-.4800415-.1399536-.960022-.2600098-1.4500122-.3599854-.3900146-.0899658-.7999878-.1599731-1.210022-.2199707-.3800049-.0500488-.7699585-.1000366-1.1599731-.1300049-.0499878 0-.0900269-.0100098-.1400146-.0100098-.3599854-.0300293-.710022-.0400391-1.0700073-.0400391h-.1699829c-.3699951 0-.7299805.0100098-1.1000366.0500488-.0299683 0-.0699463 0-.0999756.0100098-.7700196.0699464-1.5299683.2199708-2.2600098.459961-.039978.0100098-.0700073.0200195-.1099854.0300293-.3499756.1199951-.6900024.2600098-1.0200195.4199829-.0499878.0299683-.1099854.0599976-.1599731.0800171-.3200073.1699829-.6400146.3599854-.9400024.5700073-.0499878.039978-.0900269.0699463-.1400146.1099854-.0200195.0100098-.039978.0299683-.0599976.039978-.289978.2200317-.5800171.460022-.8499756.7399902-5.2000122 5.2700195 0 11.6799927 0 11.6799927s1.4299927 2.1400146 5.5199585 5.8700562c.5900269.539978 1.2300415 1.0999756 1.9300537 1.6999512 4.5 3.8500385 9.4899902 7.1400166 14.8699951 9.6500263.1999512.0999756.3999634.1799927.5999756.2700195 1.539978.6999512 2.9699707 1.2299805 4.2399921 1.5499878.1199951.0299683.25.0599976.3699951.0899658.210022.0800171.4200439.1500244.6400146.210022 1.0999756 1.4199829 2.5200195 2.3599854 4.0999756 2.7199707l2.2600098.5100098c-.0899658-.0199585-.1699829-.0599976-.2600098-.0799561 1.7300415.4699707 3.6500244.2399902 5.5100098-.8400269 4.5499878-2.6199951 6.9899903-9.2600097 5.4500122-14.8200092zm-7.9299927-6.3099975s0 0 0-.0100098c.039978 0 .0800171 0 .1199951-.0100098-.039978.0100098-.080017.0100098-.1199951.0200196z" fill="#297004"/></g><g><g><g><path d="m34.6851807 42.5586357 5.8285446-21.1117611-17.8128853-9.5930099c-5.1731224-2.8012162-12.7630749-4.4792586-16.8860593-.3034163-5.2056384 5.272378 0 11.6793184 0 11.6793184s1.860177 2.8046284 7.4368787 7.5736523c4.508543 3.855566 9.4973698 7.1409588 14.871397 9.653368 2.5234947 1.1797562 4.7846356 1.9855385 6.5621243 2.1018486z" fill="#297a01"/></g><g><path d="m35.9609833 37.9421883-1.2800293 4.6199951c-1.7699585-.1199951-4.0299683-.9299927-6.5599976-2.1100464-5.3699951-2.5099487-10.3599854-5.789978-14.8699951-9.6499653-5.5799565-4.7700195-7.4400029-7.5700073-7.4400029-7.5700073s-5.1999512-6.4100342 0-11.6799917c2.9948745-3.0262108 7.8903718-2.9342337 11.9500122-1.75-.3300171.25-.6599731.5199585-.9599609.8300171-5.2000122 5.2799683 0 11.6799917 0 11.6799917s1.8599854 2.8099976 7.4399414 7.5799561c3.6200566 3.0900287 7.5400395 5.8099994 11.7200322 8.0500507z" fill="#297004"/></g><g><path d="m35.1561966 40.8834877-.4656219 1.6792755c-1.7780685-.1269531-4.0500927-.931324-6.5619049-2.1026039-5.3764973-2.5118141-10.371954-5.7998276-14.8735428-9.6522541-5.57408-4.7697105-7.4368153-7.5778961-7.4368153-7.5778961s-5.2071657-6.4066982 0-11.6844053c2.4977722-2.5259361 6.1243649-2.7658949 9.1866331-2.3284407-1.3123636.3810396-2.5541868 1.0443277-3.6125536 2.1026936-5.2071652 5.2777061 0 11.6843204 0 11.6843204s1.8486099 2.7940578 7.4367294 7.5637703c5.5473061 4.7648544 11.7990647 8.4514961 16.327076 10.3155403z" fill="#266004"/></g><g><g><path d="m35.0320435 42.7542915c-2.5105553-.1435852-5.2713261-2.209034-6.1840839-6.3822098-1.188488-5.5018616 1.3424206-11.9720535 5.6998501-14.4808006 3.1690788-1.8266544 6.4042435-1.056448 8.3848305 1.6065006.0440598.0440578.0881157.0879822.1101456.154068.6045151.793644 1.2115021 2.0271244 1.5624428 3.6312809 1.5829924 7.2987977-3.4674265 15.9070511-9.5731851 15.4711609z" fill="#6dad13"/></g><g><g><path d="m33.3891258 41.10075c-5.6076508-2.8028717-4.5644379-14.567667 1.7413216-18.1975365.9684181-.5585899 1.9431-.8413067 2.898407-.8413067 1.533844 0 2.9411545.7558079 3.9637184 2.1277771l.0051308.0159607c.076786.1135807.4677925.5378609.8504257 1.4415073.0511665.1317883.3297386.5773163.6173019 1.8861008 1.7692948 8.1591416-4.9966049 16.1920967-10.0763054 13.5674973z" fill="#effbe6"/></g></g></g><g><g><g><path d="m34.5293007 39.5986099c.9470711 3.4045181 3.176754 5.6222 5.814045 6.2095833l-2.2656784-.515461c-2.6372948-.5873795-4.8669777-2.7931366-5.8139725-6.2095833-2.2573471-8.1474133 4.0176582-17.2272739 10.6929474-15.7277699l2.2776794.5154591c-6.7955627-1.5265216-12.9320221 7.6894913-10.7050209 15.7277718z" fill="#5ec363"/></g></g><g><g><path d="m40.0101967 24.7766571c4.5481949-2.6259022 9.4912529-.2507305 11.0284271 5.2889366 1.5425301 5.5589752-.8992805 12.1978073-5.4474754 14.8237076-4.5640335 2.6350441-9.5150185.2644501-11.0575523-5.2945251-1.5371705-5.5396653.9125671-12.1830731 5.4766006-14.8181191z" fill="#72d561"/></g><g><path d="m41.7877235 45.1184235c-2.9869919 0-5.4537544-2.2028656-6.4383965-5.7500458-1.93713-6.9796028 2.8161888-14.8150616 8.4448814-14.8150616 2.9828568 0 5.4461784 2.1987286 6.4287491 5.7390194 1.442852 5.2022552-.8247795 11.4215355-5.0548019 13.8634949-1.1065978.6387405-2.2442054.9625931-3.3804321.9625931z" fill="#78e75a"/></g></g><g><g><g><path d="m40.8088303 27.6834927c3.2328606-1.8664913 6.7526016-.1812096 7.8452225 3.7563782 1.0979767 3.9568958-.6435928 8.6798-3.8764496 10.5462894-3.2407875 1.8710709-6.7605438.1857948-7.8585205-3.7710991-1.0926209-3.9375878.6489601-8.6604996 3.8897476-10.5315685z" fill="#5ec363"/></g></g><g><g><g><path d="m42.3541145 33.2703247c.705204-.4071503 1.4791183-.0366058 1.7174683.8223572.2383308.8588982-.1446075 1.8973541-.8498116 2.3045044-.7131424.4117317-1.4791336.0366096-1.7174644-.8222885-.2383461-.858963.1366653-1.8928414.8498077-2.3045731z" fill="#78e75a"/></g></g><g><g><path d="m38.1385269 34.8420258c.8201866-.4735374 1.8706284-.1781998 1.8560944.328022.0014267.4375076-.6802444.7658005-1.1854515.8299103-.32798.043869-.6377792-.0124397-.8657761-.1383781-.1855736-.1055527-.2919312-.2569199-.2897987-.4148788-.0006562-.201153.1917495-.4354059.4849319-.6046754z" fill="#78e75a"/></g></g><g><g><path d="m38.781002 31.4590473c.2218628-.1280937.6639099-.0921726 1.1308174.265255.5624466.4366741.781498 1.0604458.6236725 1.3530941l-.1292419.1305847c-.2218628.1280937-.6718216.0967407-1.1414185-.2703743-.5545197-.4412498-.7629547-1.0599098-.6130714-1.3479767z" fill="#78e75a"/></g></g><g><g><path d="m41.1436615 28.9080982c.2456284-.1418133.6676788.2527504.8899384 1.0537243.2222748.8010406.1055145 1.5066853-.14011 1.6484985-.2456398.1418209-.6676903-.2527428-.8899689-1.0537834-.2222557-.8009739-.1054993-1.5066204.1401405-1.6484394z" fill="#78e75a"/></g></g><g><g><path d="m46.0582542 33.8973732c.8170052-.4716988 1.8664589-.1799698 1.8640213.3234444-.020256.574955-1.2846336 1.1239853-2.0591354.6961746-.499836-.2843094-.2949028-.7367058.1951141-1.019619z" fill="#78e75a"/></g></g><g><g><path d="m45.1696243 36.4595337c.2614784-.1509628.7249222-.0378723 1.1228752.2698402.5624466.436676.7814941 1.0604439.6316109 1.3485146l-.1371689.1351585c-.2139359.1235161-.6639099.0921707-1.133503-.2749443-.5545197-.4412498-.7708817-1.0553322-.6209869-1.3434067z" fill="#78e75a"/></g></g><g><g><path d="m43.6797066 38.0475006c.2456284-.1418114.6703682.2624397.8899536 1.053791.2222786.8010406.1082077 1.5163727-.1374207 1.6581841-.2456398.1418228-.6703796-.2624283-.8926544-1.0634689-.2195892-.7913513-.1055183-1.5066872.1401215-1.6485062z" fill="#78e75a"/></g></g><g><g><path d="m41.5741692 38.3114395.1930618-.0331001c.2437286.0832138.3359871.780117.0847435 1.6306076-.1988831.6746941-.5123825 1.1020279-.7342453 1.2301216l-.2009888.037674c-.527977-.1965714-.0875549-2.4351883.6574288-2.8653031z" fill="#78e75a"/></g></g><g><g><path d="m39.6916504 37.1924706c.3644905-.2104416.6713829-.2308922.7751694-.055645.2579041.4537926-.5654106 1.5468712-1.1819115 1.9028091-1.0965652.6331024-1.0282364-.5401611-.1000404-1.4538078.166172-.1631432.3403892-.2972908.5067825-.3933563z" fill="#78e75a"/></g></g><g><g><path d="m44.4581413 28.5284481.1930618-.0330982c.5109787.1369934.124012 2.402977-.6521721 2.8511066l-.2009888.0376759c-.4911651-.1612663-.11837-2.4062348.6600991-2.8556843z" fill="#78e75a"/></g></g><g><g><path d="m46.2830391 30.6324577c1.3648338-.7879887.8570137 1.1175327-.4067459 1.8471642-1.3492432.7789879-.8544083-1.1190357.4067459-1.8471642z" fill="#78e75a"/></g></g></g></g></g><g><g><g><path d="m34.5293007 39.5986099c.9470711 3.4045181 3.176754 5.6222 5.814045 6.2095833l-2.2656784-.515461c-2.6372948-.5873795-4.8669777-2.7931366-5.8139725-6.2095833-2.2573471-8.1474133 4.0176582-17.2272739 10.6929474-15.7277699l2.2776794.5154591c-6.7955627-1.5265216-12.9320221 7.6894913-10.7050209 15.7277718z" fill="#297a01"/></g></g><g><g><path d="m40.0101967 24.7766571c4.5481949-2.6259022 9.4912529-.2507305 11.0284271 5.2889366 1.5425301 5.5589752-.8992805 12.1978073-5.4474754 14.8237076-4.5640335 2.6350441-9.5150185.2644501-11.0575523-5.2945251-1.5371705-5.5396653.9125671-12.1830731 5.4766006-14.8181191z" fill="#6dad13"/></g><g><path d="m41.7877235 45.1184235c-2.9869919 0-5.4537544-2.2028656-6.4383965-5.7500458-1.93713-6.9796028 2.8161888-14.8150616 8.4448814-14.8150616 2.9828568 0 5.4461784 2.1987286 6.4287491 5.7390194 1.442852 5.2022552-.8247795 11.4215355-5.0548019 13.8634949-1.1065978.6387405-2.2442054.9625931-3.3804321.9625931z" fill="#def7cd"/></g></g><g><g><g><path d="m40.7288475 27.3944302c3.3635101-1.941927 7.0255013-.1885338 8.1622772 3.9081879 1.1423531 4.1168118-.6695976 9.0305843-4.0331116 10.9725094-3.3717613 1.9466858-7.0337639.1933022-8.1761131-3.9235077-1.1367798-4.0967217.6751862-9.0105038 4.0469475-10.9571896z" fill="#fff"/></g><g><g><path d="m37.314827 38.1269913c-1.4130592-5.0913582 2.0548553-10.8164978 6.1955872-10.8164978 2.1733704 0 4.0369415 1.6554508 4.747776 4.2175026 1.0534286 3.7974625-.6058235 8.3395004-3.6991043 10.125618-2.8895073 1.6692314-6.1730309.3347206-7.2442589-3.5266228z" fill="#effbe6"/></g></g></g><g><g><g><path d="m42.3541145 33.2703247c.705204-.4071503 1.4791183-.0366058 1.7174683.8223572.2383308.8588982-.1446075 1.8973541-.8498116 2.3045044-.7131424.4117317-1.4791336.0366096-1.7174644-.8222885-.2383461-.858963.1366653-1.8928414.8498077-2.3045731z" fill="#cde4a7"/></g></g><g><g><path d="m38.1385269 34.8420258c.8201866-.4735374 1.8706284-.1781998 1.8560944.328022.0014267.4375076-.6802444.7658005-1.1854515.8299103-.32798.043869-.6377792-.0124397-.8657761-.1383781-.1855736-.1055527-.2919312-.2569199-.2897987-.4148788-.0006562-.201153.1917495-.4354059.4849319-.6046754z" fill="#cde4a7"/></g></g><g><g><path d="m38.781002 31.4590473c.2218628-.1280937.6639099-.0921726 1.1308174.265255.5624466.4366741.781498 1.0604458.6236725 1.3530941l-.1292419.1305847c-.2218628.1280937-.6718216.0967407-1.1414185-.2703743-.5545197-.4412498-.7629547-1.0599098-.6130714-1.3479767z" fill="#cde4a7"/></g></g><g><g><path d="m41.1436615 28.9080982c.2456284-.1418133.6676788.2527504.8899384 1.0537243.2222748.8010406.1055145 1.5066853-.14011 1.6484985-.2456398.1418209-.6676903-.2527428-.8899689-1.0537834-.2222557-.8009739-.1054993-1.5066204.1401405-1.6484394z" fill="#cde4a7"/></g></g><g><g><path d="m46.0582542 33.8973732c.8170052-.4716988 1.8664589-.1799698 1.8640213.3234444-.020256.574955-1.2846336 1.1239853-2.0591354.6961746-.499836-.2843094-.2949028-.7367058.1951141-1.019619z" fill="#cde4a7"/></g></g><g><g><path d="m45.1696243 36.4595337c.2614784-.1509628.7249222-.0378723 1.1228752.2698402.5624466.436676.7814941 1.0604439.6316109 1.3485146l-.1371689.1351585c-.2139359.1235161-.6639099.0921707-1.133503-.2749443-.5545197-.4412498-.7708817-1.0553322-.6209869-1.3434067z" fill="#cde4a7"/></g></g><g><g><path d="m43.6797066 38.0475006c.2456284-.1418114.6703682.2624397.8899536 1.053791.2222786.8010406.1082077 1.5163727-.1374207 1.6581841-.2456398.1418228-.6703796-.2624283-.8926544-1.0634689-.2195892-.7913513-.1055183-1.5066872.1401215-1.6485062z" fill="#cde4a7"/></g></g><g><g><path d="m41.5741692 38.3114395.1930618-.0331001c.2437286.0832138.3359871.780117.0847435 1.6306076-.1988831.6746941-.5123825 1.1020279-.7342453 1.2301216l-.2009888.037674c-.527977-.1965714-.0875549-2.4351883.6574288-2.8653031z" fill="#cde4a7"/></g></g><g><g><path d="m39.6916504 37.1924706c.3644905-.2104416.6713829-.2308922.7751694-.055645.2579041.4537926-.5654106 1.5468712-1.1819115 1.9028091-1.0965652.6331024-1.0282364-.5401611-.1000404-1.4538078.166172-.1631432.3403892-.2972908.5067825-.3933563z" fill="#cde4a7"/></g></g><g><g><path d="m44.4581413 28.5284481.1930618-.0330982c.5109787.1369934.124012 2.402977-.6521721 2.8511066l-.2009888.0376759c-.4911651-.1612663-.11837-2.4062348.6600991-2.8556843z" fill="#cde4a7"/></g></g><g><g><path d="m46.2830391 30.6324577c1.3648338-.7879887.8570137 1.1175327-.4067459 1.8471642-1.3492432.7789879-.8544083-1.1190357.4067459-1.8471642z" fill="#cde4a7"/></g></g></g></g></g></g></g></g></svg>