<svg id="Icons" viewBox="0 0 60 60" xmlns="http://www.w3.org/2000/svg"><path d="m18 29v-27c0-.55.45-1 1-1h22c.55 0 1 .45 1 1v27z" fill="#874713"/><path d="m42 12v-2h-7v-9h-2v9h-6v-9h-2v9h-7v2h7v8h-7v2h7v7h2v-7h6v7h2v-7h7v-2h-7v-8zm-9 8h-6v-8h6z" fill="#6d3812"/><path d="m18 27h24c.552 0 1 .448 1 1v28h-26v-28c0-.552.448-1 1-1z" fill="#d3224c"/><path d="m43 55s1 0 1 2v1c0 .552-.448 1-1 1h-26c-.552 0-1-.448-1-1v-1c0-2 1-2 1-2z" fill="#bf1b4a"/><path d="m42.71 27.29-7.15 7.15c-.34.34-.85.43-1.28.24l-16.86-7.49c.16-.12.36-.19.58-.19h24c.28 0 .52.11.71.29z" fill="#f23b66"/></svg>