<svg id="Capa_1" enable-background="new 0 0 512 512" height="512" viewBox="0 0 512 512" width="512" xmlns="http://www.w3.org/2000/svg"><g><g><ellipse cx="434.058" cy="441.527" fill="#bbec6c" rx="83.089" ry="64.302" transform="matrix(.837 -.548 .548 .837 -170.976 310.049)"/><path d="m503.561 395.996c-14.254-21.758-43.225-29.563-72.79-22.301 13.123 3.674 24.283 11.158 31.583 22.301 19.461 29.706 4.119 74.173-34.267 99.32-10.27 6.728-21.149 11.391-31.949 14.044 21.861 6.121 49.17 1.67 73.157-14.044 38.385-25.147 53.727-69.614 34.266-99.32z" fill="#a2e62e"/><g><ellipse cx="156.966" cy="68.738" fill="#bbec6c" rx="64.302" ry="83.089" transform="matrix(.461 -.887 .887 .461 23.578 176.305)"/><path d="m186.625 11.684c-22.316-11.601-46.304-14.324-66.126-9.229 8.339 1.919 16.741 4.978 24.918 9.228 40.716 21.166 60.444 63.868 44.064 95.378-7.403 14.24-20.913 23.757-37.256 27.958 33.183 7.636 65.373-2.777 78.463-27.958 16.381-31.509-3.347-74.212-44.063-95.377z" fill="#a2e62e"/><ellipse cx="66.693" cy="154.709" fill="#d1f19e" rx="83.089" ry="64.302" transform="matrix(.335 -.942 .942 .335 -101.42 165.701)"/><path d="m470.426 0c-19.743-.013-17.705 63.786-66.706 72.239-2.576.155-5.163.441-7.754.841-31.092 4.799-62.795 27.005-82.826 61.615-17.319 29.925-22.227 62.754-15.883 90.007-26.272-1.255-55.608 7.511-81.288 26.491-30.407 22.475-48.605 54.013-51.573 83.871-20.873-3.689-44.367-1.94-67.568 6.222-58.178 20.466-92.469 73.467-76.592 118.381s75.911 64.733 134.088 44.267c45.329-15.946 76.153-51.644 80.049-87.878 27.079 2.168 57.782-6.528 84.519-26.291 38.185-28.224 57.119-70.739 50.809-106.272 34.23-.959 70.902-24.106 93.161-62.566 4.452-7.693 8.058-15.579 10.889-23.511l.014.022c35.262-82.529 23.262-197.421-3.339-197.438z" fill="#bbec6c"/><g><path d="m34.273 150.906c-.839 0-1.692-.138-2.53-.428-4.031-1.397-6.167-5.798-4.771-9.83 7.229-20.863 25.987-43.838 50.087-44.981 4.267-.205 7.881 3.089 8.084 7.352.202 4.263-3.089 7.882-7.351 8.084-12.24.58-28.611 12.654-36.217 34.605-1.109 3.194-4.101 5.198-7.302 5.198z" fill="#a2e62e"/></g></g></g><g><path d="m470.426 0c-19.743-.013-17.705 63.786-66.706 72.239-2.576.155-5.163.441-7.754.841-31.092 4.799-62.795 27.005-82.826 61.615-17.319 29.925-22.227 62.754-15.883 90.007-26.272-1.255-55.608 7.511-81.288 26.491-30.407 22.475-48.605 54.013-51.573 83.871-20.873-3.689-44.367-1.94-67.568 6.222-58.178 20.466-92.469 73.467-76.592 118.381s75.911 64.733 134.088 44.267c45.329-15.946 76.153-51.644 80.049-87.878 27.079 2.168 57.782-6.528 84.519-26.291 38.185-28.224 57.119-70.739 50.809-106.272 34.23-.959 70.902-24.106 93.161-62.566 4.452-7.693 8.058-15.579 10.889-23.511l.014.022c35.262-82.529 23.262-197.421-3.339-197.438z" fill="#bbec6c"/><path d="m470.426 0c-4.202-.003-7.417 2.885-10.347 7.514 6.904 40.919 3.324 105.121-18.709 156.689l-.014-.022c-2.832 7.932-6.438 15.819-10.89 23.511-22.259 38.46-58.931 61.607-93.161 62.566 6.31 35.533-12.624 78.048-50.809 106.272-26.737 19.762-57.441 28.459-84.519 26.29-3.896 36.234-34.72 71.931-80.049 87.878-35.908 12.632-72.523 9.917-99.026-4.572 19.128 40.311 76.114 57.264 131.422 37.807 45.329-15.946 76.153-51.644 80.049-87.878 27.078 2.168 57.782-6.528 84.519-26.29 38.185-28.224 57.119-70.739 50.809-106.272 34.23-.959 70.902-24.106 93.161-62.566 4.452-7.693 8.058-15.579 10.89-23.511l.014.022c35.261-82.529 23.261-197.421-3.34-197.438z" fill="#a2e62e"/><g><path d="m123.225 334.709c-.37.055-.741.112-1.111.17.359.06.717.121 1.075.185.011-.119.024-.237.036-.355z" fill="#a2e62e"/></g><g><path d="m124.269 478.681c23.173-8.152 43.488-21.452 58.748-38.46 13.31-14.835 21.974-31.528 25.325-48.67 27.912.364 57.564-9.668 82.522-28.114 19.516-14.425 34.901-32.866 44.494-53.329 8.151-17.388 11.689-35.219 10.397-52.072 15.802-1.939 31.772-8.032 46.652-17.856 17.772-11.732 33.167-28.304 44.522-47.925 4.457-7.701 8.25-15.847 11.277-24.22.015-.034.03-.068.044-.103 3.767-8.814 7.137-18.298 10.018-28.19 1.193-4.097-1.161-8.385-5.258-9.578-4.098-1.194-8.385 1.16-9.579 5.258-2.649 9.097-5.73 17.807-9.162 25.901-.158.306-.297.624-.414.953-2.746 7.692-6.211 15.174-10.3 22.239-20.115 34.755-54.143 57.801-86.69 58.713-2.246.063-4.355 1.101-5.775 2.844-1.42 1.742-2.009 4.017-1.617 6.23 5.951 33.511-13.257 73.179-47.795 98.707-24.168 17.863-53.077 26.902-79.31 24.802-4.152-.33-7.851 2.714-8.299 6.876-3.679 34.225-33.792 66.943-74.931 81.415-32.982 11.603-67.998 9.893-93.668-4.569-1.719-.969-4.313-2.659-6.604-4.195.406 1.45.861 2.893 1.369 4.328 2.534 7.169 6.194 13.698 10.791 19.527 13.625 5.293 28.764 7.965 44.438 7.965 16.061 0 32.685-2.807 48.805-8.477z" fill="#8bc727"/></g></g></g></svg>