<?xml version="1.0"?>
<svg xmlns="http://www.w3.org/2000/svg" viewBox="0 0 48 48" width="512" height="512"><g id="_13-eggplant" data-name="13-eggplant"><path d="M3.01,16.81C6.28,16.16,7,14,7,14s1,3,3,3,3-3,3-3a7.507,7.507,0,0,0,4.05,2.74A7.417,7.417,0,0,0,19,17V14c0-3,0-5.48-5.18-5.93A2,2,0,0,1,12,6.08V3a1.955,1.955,0,0,0-.59-1.41A1.955,1.955,0,0,0,10,1,2.006,2.006,0,0,0,8,3V6.13A2.012,2.012,0,0,1,6.26,8.11C1,8.83,1,12.98,1,17A9.948,9.948,0,0,0,3.01,16.81Z" style="fill:#008906"/><path d="M7,14s-.72,2.16-3.99,2.81C3.26,35.14,12.27,47,31,47c9,0,16-5.37,16-12A12,12,0,0,0,35,23c-11.4,1.9-17.39-1.62-17.95-6.26A7.507,7.507,0,0,1,13,14s-1,3-3,3S7,14,7,14Z" style="fill:#7a339f"/><path d="M3.01,16.81C6.28,16.16,7,14,7,14s1,3,3,3,3-3,3-3a7.507,7.507,0,0,0,4.05,2.74A7.417,7.417,0,0,0,19,17V14c0-3,0-5.48-5.18-5.93A2,2,0,0,1,12,6.08V3a1.955,1.955,0,0,0-.59-1.41A1.955,1.955,0,0,0,10,1,2.006,2.006,0,0,0,8,3V6.13A2.012,2.012,0,0,1,6.26,8.11C1,8.83,1,12.98,1,17A9.948,9.948,0,0,0,3.01,16.81Z" style="fill:#008906"/><path d="M7,14s-.72,2.16-3.99,2.81C3.26,35.14,12.27,47,31,47c9,0,16-5.37,16-12A12,12,0,0,0,35,23c-11.4,1.9-17.39-1.62-17.95-6.26A7.507,7.507,0,0,1,13,14s-1,3-3,3S7,14,7,14Z" style="fill:#923ec3"/><path d="M13.684,17.786c3.465,14.087,17.7,15.452,32.653,13.307A11.99,11.99,0,0,0,35,23c-8.526,1.421-14.023-.19-16.489-3.034a7.277,7.277,0,0,1-4.827-2.18Z" style="fill:#ad6ed2"/><path d="M6.41,17.959A3.305,3.305,0,0,0,7,17s1,3,3,3,3-3,3-3a6.287,6.287,0,0,0,.684.786,26.762,26.762,0,0,1-.628-3.707L13,14s-1,3-3,3-3-3-3-3a4.231,4.231,0,0,1-1.859,2.019,6.706,6.706,0,0,1-2.131.791c.014,1.011.059,2,.126,2.97C4.288,36.409,13.3,47,31,47a19.89,19.89,0,0,0,9.156-2.127c-16.7-.879-29.5-6.758-34.2-25.092A2.06,2.06,0,0,1,6.41,17.959Z" style="fill:#602880"/><path d="M13.056,14.079a26.762,26.762,0,0,0,.628,3.707,7.277,7.277,0,0,0,4.827,2.18A5.971,5.971,0,0,1,17.05,16.74,7.554,7.554,0,0,1,13.056,14.079Z" style="fill:#923ec3"/><path d="M8,3V6.13A2.012,2.012,0,0,1,6.26,8.11C1,8.83,1,12.98,1,17a9.948,9.948,0,0,0,2.01-.19C6.28,16.16,7,14,7,14s1,3,3,3V1A2.006,2.006,0,0,0,8,3Z" style="fill:#016601"/><path d="M8.26,8.11A2.012,2.012,0,0,0,10,6.13V1A2.006,2.006,0,0,0,8,3V6.13A2.012,2.012,0,0,1,6.26,8.11C1,8.83,1,12.98,1,17a9.936,9.936,0,0,0,2-.189C3,12.851,3.082,8.819,8.26,8.11Z" style="fill:#025602"/><path d="M12.884,10.73a1.958,1.958,0,0,0,.936.34C19,11.52,19,14,19,17V14c0-3,0-5.48-5.18-5.93a1.965,1.965,0,0,1-.85-.286C12.905,8.807,12.88,9.786,12.884,10.73Z" style="fill:#7fe895"/><path d="M12.884,10.73c0-.944.021-1.923.086-2.946A2,2,0,0,1,12,6.08v3A2,2,0,0,0,12.884,10.73Z" style="fill:#55e072"/><path d="M11,33a1,1,0,0,1-.8-.4,21.08,21.08,0,0,1-3.623-6.3,1,1,0,0,1,1.91-.592A18.915,18.915,0,0,0,11.8,31.4,1,1,0,0,1,11,33Z" style="fill:#ad6ed2"/><path d="M8,3V6a2.006,2.006,0,0,1,2-2V1A2.006,2.006,0,0,0,8,3Z" style="fill:#008906"/><path d="M11.41,1.59A1.955,1.955,0,0,0,10,1V4a2.015,2.015,0,0,1,2,2V3A1.955,1.955,0,0,0,11.41,1.59Z" style="fill:#00ce23"/><path d="M7.024,24a1,1,0,0,1-1-.947C6.008,22.715,6,22.365,6,22a1,1,0,0,1,2,0c0,.328.007.643.023.946A1,1,0,0,1,7.078,24Z" style="fill:#ad6ed2"/><ellipse cx="40" cy="29" rx="1.65" ry="2.297" transform="translate(-8.788 36.795) rotate(-45.02)" style="fill:#f6fafd"/><ellipse cx="36" cy="28" rx="0.825" ry="1.148" transform="translate(-9.253 33.672) rotate(-45.02)" style="fill:#f6fafd"/><ellipse cx="16" cy="13" rx="0.825" ry="1.148" transform="translate(-4.505 15.128) rotate(-45.02)" style="fill:#f6fafd"/><ellipse cx="15.746" cy="9.5" rx="0.413" ry="0.574" transform="translate(-2.104 13.923) rotate(-45.02)" style="fill:#f6fafd"/></g></svg>
