<svg id="Icon_Set" enable-background="new 0 0 256 256" viewBox="0 0 256 256" xmlns="http://www.w3.org/2000/svg"><g><g><g><path d="m32.105 68.922c-12.368 7.205-20.552 31.928-20.552 46.222s8.181 19.425 20.549 26.641c12.368-7.214 20.551-12.345 20.551-26.639s-8.18-39.018-20.548-46.224z" fill="#83808b"/><path d="m52.653 115.147c0 14.296-8.183 19.423-20.551 26.638-2.248-1.313-4.361-2.559-6.314-3.805 8.764-5.582 14.237-11.139 14.237-22.833s-5.472-30.359-14.237-40.707c1.953-2.307 4.066-4.201 6.314-5.515 12.367 7.2 20.551 31.927 20.551 46.222z" fill="#756e81"/><path d="m38.916 137.661c-2.087 1.354-4.37 2.7-6.814 4.122-12.367-7.215-20.552-12.343-20.552-26.635.001-14.301 8.187-39.019 20.555-46.224 2.444 1.423 4.727 3.535 6.814 6.116-8.475 10.459-13.74 28.635-13.74 40.109-.001 11.464 5.262 17.035 13.737 22.512z" fill="#a2a2a2"/></g><g><path d="m133.377 176.054c-12.368 7.205-20.552 31.928-20.552 46.222-.001 14.294 8.181 19.425 20.549 26.641 12.368-7.214 20.551-12.345 20.551-26.639.001-14.294-8.18-39.018-20.548-46.224z" fill="#83808b"/><path d="m153.925 222.279c0 14.296-8.183 19.423-20.551 26.638-2.248-1.313-4.361-2.559-6.314-3.805 8.764-5.582 14.237-11.139 14.237-22.833s-5.472-30.359-14.237-40.707c1.953-2.307 4.066-4.201 6.314-5.515 12.368 7.199 20.551 31.926 20.551 46.222z" fill="#756e81"/><path d="m140.189 244.792c-2.087 1.354-4.37 2.7-6.814 4.122-12.367-7.215-20.552-12.343-20.552-26.635.001-14.301 8.187-39.018 20.555-46.224 2.444 1.423 4.727 3.535 6.814 6.116-8.475 10.459-13.74 28.635-13.74 40.109-.002 11.465 5.262 17.035 13.737 22.512z" fill="#a2a2a2"/></g><g><path d="m219.891 20.385c-13.841-3.651-37.109 8.045-47.217 18.152s-7.951 19.521-4.307 33.368c13.847 3.645 23.261 5.802 33.369-4.305s21.805-33.374 18.155-47.215z" fill="#83808b"/><path d="m201.734 67.601c-10.109 10.109-19.521 7.948-33.368 4.304-.661-2.518-1.274-4.894-1.774-7.156 10.144 2.25 17.943 2.191 26.212-6.078s17.598-25.337 18.717-38.851c3.012-.25 5.846-.095 8.364.566 3.656 13.835-8.042 37.106-18.151 47.215z" fill="#756e81"/><path d="m176.102 73.807c-2.433-.518-4.999-1.181-7.733-1.904-3.643-13.847-5.805-23.26 4.301-33.366 10.113-10.112 33.379-21.801 47.219-18.151.723 2.734.843 5.842.494 9.143-13.389 1.403-29.964 10.533-38.077 18.645-8.107 8.107-8.324 15.768-6.204 25.633z" fill="#a2a2a2"/></g><g><path d="m64.884 7.756c-3.651 13.841 8.045 37.109 18.152 47.217s19.521 7.951 33.368 4.307c3.644-13.847 5.802-23.261-4.305-33.369s-33.374-21.805-47.215-18.155z" fill="#83808b"/><path d="m112.1 25.913c10.109 10.109 7.948 19.521 4.304 33.368-2.518.661-4.894 1.274-7.156 1.774 2.25-10.144 2.191-17.943-6.078-26.212s-25.337-17.598-38.851-18.717c-.25-3.012-.095-5.846.566-8.364 13.835-3.656 37.107 8.042 47.215 18.151z" fill="#756e81"/><path d="m118.306 51.545c-.518 2.433-1.181 4.999-1.904 7.733-13.847 3.643-23.26 5.805-33.366-4.301-10.111-10.113-21.801-33.379-18.15-47.219 2.734-.723 5.842-.843 9.143-.494 1.403 13.389 10.533 29.964 18.645 38.077 8.106 8.107 15.767 8.324 25.632 6.204z" fill="#a2a2a2"/></g><g><path d="m71.845 176.741c-13.841-3.651-37.109 8.045-47.217 18.152s-7.951 19.521-4.307 33.368c13.847 3.644 23.261 5.802 33.369-4.305s21.805-33.374 18.155-47.215z" fill="#f6e0e0"/><path d="m53.689 223.957c-10.109 10.109-19.521 7.948-33.368 4.304-.661-2.518-1.274-4.894-1.774-7.156 10.144 2.25 17.943 2.191 26.212-6.078s17.598-25.337 18.717-38.851c3.012-.25 5.846-.095 8.364.566 3.655 13.835-8.043 37.106-18.151 47.215z" fill="#f1cdcd"/><path d="m28.056 230.163c-2.433-.518-4.999-1.181-7.733-1.904-3.643-13.847-5.805-23.26 4.301-33.366 10.113-10.112 33.379-21.801 47.219-18.151.723 2.734.843 5.842.494 9.143-13.389 1.403-29.964 10.533-38.077 18.645-8.106 8.106-8.324 15.768-6.204 25.633z" fill="#f9eded"/></g><g><path d="m243.776 94.092c-13.841-3.651-37.109 8.045-47.217 18.152s-7.951 19.521-4.307 33.368c13.847 3.645 23.261 5.802 33.369-4.305 10.107-10.107 21.804-33.374 18.155-47.215z" fill="#f6e0e0"/><path d="m225.619 141.307c-10.109 10.109-19.521 7.948-33.368 4.304-.661-2.518-1.274-4.894-1.774-7.156 10.144 2.25 17.943 2.191 26.212-6.078s17.598-25.337 18.717-38.851c3.012-.25 5.846-.095 8.364.566 3.656 13.836-8.042 37.107-18.151 47.215z" fill="#f1cdcd"/><path d="m199.986 147.514c-2.433-.518-4.999-1.181-7.733-1.904-3.643-13.847-5.805-23.26 4.301-33.366 10.113-10.112 33.379-21.801 47.219-18.151.723 2.734.843 5.842.494 9.143-13.389 1.403-29.964 10.533-38.077 18.645-8.106 8.106-8.323 15.767-6.204 25.633z" fill="#f9eded"/></g><g><path d="m182.06 174.374c-3.651 13.841 8.045 37.109 18.152 47.217s19.521 7.951 33.368 4.307c3.644-13.847 5.802-23.261-4.305-33.369-10.107-10.107-33.374-21.804-47.215-18.155z" fill="#f6e0e0"/><path d="m229.276 192.531c10.109 10.109 7.948 19.521 4.304 33.368-2.518.661-4.894 1.274-7.156 1.774 2.25-10.144 2.191-17.943-6.078-26.212s-25.337-17.598-38.851-18.717c-.25-3.012-.095-5.846.566-8.364 13.835-3.656 37.106 8.042 47.215 18.151z" fill="#f1cdcd"/><path d="m235.482 218.164c-.518 2.433-1.181 4.999-1.904 7.733-13.847 3.643-23.26 5.805-33.366-4.301-10.112-10.113-21.801-33.379-18.151-47.219 2.734-.723 5.842-.843 9.143-.494 1.403 13.389 10.533 29.964 18.645 38.077 8.106 8.106 15.768 8.323 25.633 6.204z" fill="#f9eded"/></g><g><path d="m92.504 94.719c-3.651 13.841 8.045 37.109 18.152 47.217s19.521 7.951 33.368 4.307c3.644-13.847 5.802-23.261-4.305-33.369s-33.374-21.805-47.215-18.155z" fill="#f6e0e0"/><path d="m139.72 112.875c10.109 10.109 7.948 19.521 4.304 33.368-2.518.661-4.894 1.274-7.156 1.774 2.25-10.144 2.191-17.943-6.078-26.212s-25.337-17.598-38.851-18.717c-.25-3.012-.095-5.846.566-8.364 13.835-3.655 37.106 8.043 47.215 18.151z" fill="#f1cdcd"/><path d="m145.926 138.508c-.518 2.433-1.181 4.999-1.904 7.733-13.847 3.643-23.26 5.805-33.366-4.301-10.112-10.113-21.801-33.379-18.151-47.219 2.734-.723 5.842-.843 9.143-.494 1.403 13.389 10.533 29.964 18.645 38.077 8.107 8.107 15.768 8.324 25.633 6.204z" fill="#f9eded"/></g></g><g fill="#542a6b"><path d="m30.086 145.24c1.242.725 2.783.728 4.031 0 12.092-7.053 22.536-13.144 22.536-30.094 0-15.262-8.572-41.544-22.535-49.68-1.244-.726-2.783-.725-4.027 0-13.963 8.134-22.538 34.416-22.538 49.678-.001 16.95 10.441 23.042 22.533 30.096zm2.019-71.429c7.931 6.628 16.549 25.03 16.548 41.334 0 11.177-5.381 15.401-16.551 22.002-11.169-6.602-16.55-10.827-16.549-22.003 0-16.305 8.619-34.706 16.552-41.333z"/><path d="m135.391 172.598c-1.244-.726-2.782-.725-4.027 0-13.962 8.134-22.538 34.417-22.539 49.679 0 16.949 10.442 23.042 22.534 30.096 1.246.727 2.785.727 4.031 0 12.092-7.053 22.535-13.145 22.536-30.094.001-15.263-8.572-41.546-22.535-49.681zm-2.016 71.682c-11.169-6.602-16.55-10.827-16.55-22.003.001-16.305 8.621-34.706 16.552-41.333 7.931 6.628 16.549 25.03 16.549 41.334 0 11.176-5.381 15.4-16.551 22.002z"/><path d="m204.564 70.429c10.792-10.791 23.315-35.438 19.195-51.064-.367-1.393-1.455-2.48-2.848-2.848-15.619-4.12-40.272 8.399-51.065 19.191-11.985 11.984-8.909 23.676-5.347 37.214.367 1.395 1.456 2.484 2.85 2.851 13.539 3.564 25.231 6.64 37.215-5.344zm-29.062-29.064c11.531-11.53 30.637-18.44 40.931-17.523.921 10.295-5.997 29.401-17.526 40.93-7.904 7.903-14.695 7.085-27.261 3.854-3.229-12.566-4.047-19.358 3.856-27.261z"/><path d="m117.422 63.148c1.394-.367 2.483-1.456 2.85-2.85 3.563-13.538 6.64-25.229-5.344-37.215-10.791-10.792-35.438-23.319-51.063-19.195-1.393.367-2.48 1.455-2.848 2.848-4.122 15.625 8.399 40.273 19.19 51.065 11.981 11.982 23.665 8.914 37.215 5.347zm-31.557-11.003c-11.529-11.53-18.445-30.636-17.523-40.931 10.303-.929 29.401 5.997 40.929 17.526 7.903 7.904 7.085 14.696 3.854 27.261-12.566 3.229-19.357 4.047-27.26-3.856z"/><path d="m72.866 172.873c-15.625-4.125-40.273 8.399-51.065 19.19-11.986 11.985-8.91 23.677-5.347 37.215.367 1.394 1.456 2.483 2.85 2.85 13.537 3.563 25.229 6.64 37.215-5.344 10.792-10.792 23.315-35.438 19.195-51.064-.368-1.392-1.455-2.48-2.848-2.847zm-22.004 48.255c-7.903 7.903-14.697 7.085-27.261 3.854-3.23-12.566-4.047-19.358 3.856-27.261 11.53-11.529 30.633-18.443 40.931-17.523.921 10.295-5.997 29.401-17.526 40.93z"/><path d="m188.384 146.63c.367 1.394 1.456 2.483 2.85 2.85 13.539 3.564 25.231 6.64 37.215-5.344 10.792-10.792 23.315-35.438 19.195-51.064-.367-1.393-1.455-2.48-2.848-2.848-15.623-4.12-40.273 8.4-51.065 19.191-11.986 11.985-8.909 23.677-5.347 37.215zm51.934-49.081c.921 10.295-5.997 29.401-17.526 40.93-7.904 7.903-14.697 7.085-27.261 3.854-3.229-12.566-4.047-19.358 3.856-27.261 11.531-11.53 30.644-18.438 40.931-17.523z"/><path d="m181.04 170.507c-1.393.367-2.48 1.455-2.848 2.848-4.122 15.625 8.4 40.273 19.191 51.065 11.984 11.986 23.674 8.91 37.215 5.347 1.394-.367 2.483-1.456 2.85-2.85 3.563-13.538 6.64-25.229-5.344-37.215-10.791-10.793-35.435-23.317-51.064-19.195zm49.261 52.112c-12.566 3.229-19.358 4.047-27.261-3.856-11.529-11.53-18.445-30.636-17.523-40.931 10.298-.927 29.401 5.996 40.93 17.526 7.902 7.903 7.085 14.695 3.854 27.261z"/><path d="m145.042 150.111c1.394-.367 2.483-1.456 2.85-2.85 3.563-13.538 6.64-25.229-5.344-37.215-10.792-10.792-35.438-23.317-51.064-19.194-1.393.367-2.48 1.455-2.848 2.848-4.122 15.625 8.399 40.272 19.191 51.064 11.981 11.981 23.665 8.913 37.215 5.347zm-31.557-11.004c-11.529-11.529-18.445-30.636-17.523-40.931 10.302-.915 29.401 5.997 40.93 17.525 7.903 7.904 7.085 14.696 3.854 27.261-12.567 3.231-19.358 4.048-27.261-3.855z"/><path d="m218.293 127.74c1.807 1.277 4.301.846 5.576-.956 5.731-8.101 8.699-16.6 8.822-16.958.721-2.088-.388-4.365-2.476-5.086-2.089-.72-4.365.388-5.086 2.476-.026.077-2.711 7.768-7.791 14.948-1.277 1.803-.849 4.3.955 5.576z"/><path d="m211.41 138.69c.201-.113.401-.229.599-.347 1.898-1.13 2.521-3.585 1.391-5.483s-3.585-2.521-5.483-1.391c-.14.083-.28.165-.421.244-1.927 1.082-2.612 3.52-1.531 5.446 1.082 1.93 3.522 2.611 5.445 1.531z"/></g></g></svg>