<svg xmlns="http://www.w3.org/2000/svg" version="1.1" xmlns:xlink="http://www.w3.org/1999/xlink" xmlns:svgjs="http://svgjs.com/svgjs" width="512" height="512" x="0" y="0" viewBox="0 0 512 512" style="enable-background:new 0 0 512 512" xml:space="preserve" class=""><g><path d="M301.41 326.356h19.296l-9.604-25.447zM231 176.791c0-5.849-5.48-10.791-11.968-10.791h-11.228c.012 4.224.022 8.65.022 10.791 0 2.517.018 6.8.039 10.829a2775.4 2775.4 0 0 1 11.167-.038c6.488 0 11.968-4.942 11.968-10.791zM192.285 286h-11.228c.012 4.224.022 8.65.022 10.791 0 2.517.018 6.8.038 10.829a2776 2776 0 0 1 11.167-.038c6.487 0 11.968-4.942 11.968-10.791S198.772 286 192.285 286z" fill="#ef7c56" data-original="#000000" class="" opacity="1"></path><path d="M495.312 214.255c-4.658-7.075-9.058-13.758-10.603-19.538-1.667-6.237-1.207-14.505-.719-23.258.778-13.968 1.66-29.801-6.264-43.494-8.033-13.885-22.299-21.053-34.886-27.377-7.731-3.885-15.034-7.554-19.45-11.971-4.417-4.417-8.086-11.72-11.971-19.451-6.325-12.588-13.494-26.855-27.378-34.889-13.695-7.924-29.527-7.044-43.496-6.265-8.753.487-17.021.947-23.259-.72-5.78-1.545-12.464-5.945-19.54-10.604C285.865 8.866 272.399 0 256 0c-16.398 0-29.864 8.866-41.745 16.688-7.075 4.658-13.758 9.058-19.538 10.603-6.236 1.667-14.504 1.208-23.258.719-13.97-.779-29.801-1.66-43.494 6.264-13.885 8.033-21.053 22.299-27.377 34.886-3.885 7.731-7.554 15.034-11.971 19.45-4.417 4.417-11.72 8.086-19.451 11.971-12.588 6.325-26.855 13.494-34.889 27.378-7.924 13.694-7.042 29.527-6.265 43.496.487 8.753.947 17.021-.72 23.259-1.545 5.78-5.945 12.464-10.604 19.54C8.866 226.135 0 239.601 0 256c0 16.398 8.866 29.864 16.687 41.745 4.658 7.075 9.058 13.758 10.603 19.538 1.667 6.237 1.207 14.505.719 23.258-.778 13.968-1.66 29.801 6.264 43.494 8.033 13.885 22.299 21.053 34.886 27.377 7.731 3.885 15.034 7.554 19.45 11.971 4.417 4.417 8.086 11.72 11.971 19.451 6.325 12.588 13.494 26.855 27.378 34.889 13.694 7.924 29.526 7.041 43.496 6.265 8.753-.487 17.021-.947 23.259.72 5.78 1.545 12.464 5.945 19.54 10.604C226.135 503.134 239.601 512 256 512c16.398 0 29.864-8.866 41.745-16.688 7.075-4.658 13.758-9.058 19.538-10.603 6.237-1.667 14.505-1.207 23.258-.719 13.969.778 29.8 1.659 43.494-6.264 13.885-8.033 21.053-22.299 27.377-34.886 3.885-7.731 7.554-15.034 11.971-19.45 4.417-4.417 11.72-8.086 19.451-11.971 12.588-6.325 26.855-13.494 34.889-27.378 7.924-13.694 7.042-29.527 6.265-43.496-.487-8.753-.947-17.021.72-23.259 1.545-5.78 5.945-12.464 10.604-19.54C503.134 285.865 512 272.399 512 256c0-16.398-8.866-29.864-16.688-41.745zM140.181 286h-12.18v70c0 5.523-4.477 10-10 10s-10-4.477-10-10v-70H96c-5.523 0-10-4.477-10-10s4.477-10 10-10h44.181c5.523 0 10 4.477 10 10s-4.477 10-10 10zm.819-80.758V236c0 5.523-4.477 10-10 10s-10-4.477-10-10v-80c0-5.523 4.477-10 10-10h32.424c5.523 0 10 4.477 10 10s-4.477 10-10 10H141v19.242h19.849c5.523 0 10 4.477 10 10s-4.477 10-10 10zm80.759 144.151c3.648 4.146 3.246 10.465-.9 14.114a9.964 9.964 0 0 1-6.603 2.493 9.976 9.976 0 0 1-7.511-3.393L181 333.355V356c0 5.523-4.477 10-10 10s-10-4.477-10-10v-80c0-5.523 4.477-10 10-10l.013.001.013-.001h21.259c17.627 0 31.968 13.813 31.968 30.791 0 13.918-9.64 25.703-22.825 29.501zm11.734-106.786-25.746-29.252V236c0 5.523-4.477 10-10 10s-10-4.477-10-10v-80c0-5.523 4.477-10 10-10l.013.001.013-.001h21.259C236.659 146 251 159.813 251 176.791c0 13.918-9.64 25.703-22.825 29.501l20.332 23.101c3.648 4.146 3.246 10.465-.9 14.114a9.964 9.964 0 0 1-6.603 2.493 9.976 9.976 0 0 1-7.511-3.393zM258.5 356c0 5.523-4.477 10-10 10s-10-4.477-10-10v-80c0-5.523 4.477-10 10-10s10 4.477 10 10zm8.791-200c0-5.523 4.477-10 10-10H311c5.523 0 10 4.477 10 10s-4.477 10-10 10h-23.709v20h21.224c5.523 0 10 4.477 10 10s-4.477 10-10 10h-21.224v20H311c5.523 0 10 4.477 10 10s-4.477 10-10 10h-33.709c-5.523 0-10-4.477-10-10zm78.821 209.356a10.02 10.02 0 0 1-3.529.647 10.002 10.002 0 0 1-9.357-6.472l-4.972-13.174h-34.461l-5.028 13.203c-1.966 5.161-7.742 7.752-12.904 5.786-5.161-1.966-7.752-7.743-5.786-12.904l30.04-78.873.089-.226a11.771 11.771 0 0 1 10.922-7.342h.012a11.77 11.77 0 0 1 11.032 7.593l29.767 78.876c1.95 5.166-.658 10.936-5.825 12.886zM347.291 246c-5.523 0-10-4.477-10-10v-80c0-5.523 4.477-10 10-10H381c5.523 0 10 4.477 10 10s-4.477 10-10 10h-23.709v20h21.224c5.523 0 10 4.477 10 10s-4.477 10-10 10h-21.224v20H381c5.523 0 10 4.477 10 10s-4.477 10-10 10zm58.765 119.933c-9.094.051-15.309.072-19.591.072-8.906 0-9.454-.094-10.165-.216a10 10 0 0 1-8.313-9.856V276c0-5.523 4.477-10 10-10s10 4.477 10 10v69.999c5.188-.006 11.792-.031 17.958-.066 5.535-.061 10.025 4.422 10.056 9.944s-4.422 10.025-9.945 10.056z" fill="#ef7c56" data-original="#000000" class="" opacity="1"></path></g></svg>