<svg id="Capa_1" enable-background="new 0 0 512 512" height="512" viewBox="0 0 512 512" width="512" xmlns="http://www.w3.org/2000/svg"><g><g><g><path d="m194.705 486.201c8.035-9.089.54-13.517.54-48.522 0-68.526 88.205-61.388 157.199-72.33 44.625-7.077 89.871-21.408 137.205-52.743 22.971-15.206 29.264-46.156 14.058-69.126-15.208-22.971-46.157-29.264-69.126-14.058-33.26 22.017-63.128 33.986-91.313 36.59-8.202.758-16.065.711-23.76.143 18.887-16.474 34.156-33.246 46.683-51.052 32.121-45.661 46.399-98.01 44.931-164.75-.606-27.543-23.432-49.383-50.965-48.773-27.541.605-49.377 23.423-48.772 50.964 1.511 68.73-17.853 130.106-78.194 181.964-25.337 21.775-64.897 7.274-69.97-25.747-5.234-34.071-6.803-77.215-.027-121.784 4.141-27.235-14.581-52.67-41.816-56.811-27.231-4.145-52.67 14.58-56.811 41.816-4.862 31.98-6.58 62.079-5.192 90.205-25.953-.457-48.219 19.244-50.521 45.505-6.002 68.473 2.439 135.66 24.41 194.298 5.447 14.536 11.152 27.031 16.465 37.394 9.324 18.186 16.209 37.497 20.467 57.461.951 4.458 4.414 7.95 8.882 8.858 21.861 4.443 86.031 13.978 115.627-19.502z" fill="#fcc16d"/><path d="m167.689 222.376c-16.685-2.429-31.602-15.019-34.518-34.041-4.999-32.547-6.493-73.752-.02-116.318 2.469-16.258-3.597-31.856-14.856-42.221 1.026.081 2.053.213 3.079.366 27.243 4.146 45.96 29.58 41.825 56.813-6.778 44.568-5.213 87.714.02 121.785.761 4.979 2.316 9.542 4.47 13.616z" fill="#fca62f"/><path d="m366.193 215.101c-8.729 12.407-18.789 24.306-30.484 35.961 1.494-3.638 4.258-8.698 8.302-15.517 34.376-58.012 38.908-115.505 37.435-182.246-.518-23.697-17.488-43.166-39.742-47.749 5.68-2.429 11.899-3.831 18.453-3.973 27.537-.61 50.36 21.227 50.96 48.775 1.473 66.742-12.803 119.093-44.924 164.749z" fill="#fca62f"/><path d="m489.653 312.605c-47.336 31.337-92.59 45.665-137.208 52.748-68.997 10.936-157.197 3.803-157.197 72.326 0 35.003 7.495 39.43-.549 48.521-29.591 33.482-93.762 23.943-115.622 19.503-4.464-.91-7.931-4.402-8.879-8.854-1.309-6.148-2.881-12.246-4.689-18.256 28.469 3.803 75.332 5 99.386-22.209 8.031-9.091.536-13.518.536-48.521 0-68.535 88.201-61.39 157.197-72.339 44.63-7.07 89.872-21.399 137.208-52.736 19.615-12.994 27.072-37.472 19.341-58.647 9.702 3.516 18.393 10.076 24.529 19.341 15.202 22.971 8.917 53.922-14.053 69.123z" fill="#fca62f"/><path d="m348.465 354.052c-31.621-37.845-92.187-54.029-172.578-45.656-30.27 3.153-46.135-1.091-54.446-6.415-2.933-1.879-6.74-1.631-9.336.692-3.81 3.41-3.263 9.481 1.044 12.235 13.811 8.83 35.381 11.778 64.329 8.763 67.327-7.009 119.221 3.735 149.575 30.381z" fill="#fca62f"/><g><path d="m190.833 403.198c5.296 0 8.972-5.209 7.28-10.226-5.741-17.022-17.937-31.086-43.122-36.784-21.85-4.945-25.966-15.031-30.88-31.095-9.747-31.832-12.358-68.62-8.222-115.77 1.341-15.317-3.369-30.235-13.249-42.02-9.88-11.775-23.754-19.003-39.071-20.344-1.556-.133-3.102-.205-4.638-.215.051 5.181.205 10.3.451 15.358.942.02 1.894.072 2.846.154 11.232.983 21.409 6.287 28.648 14.918 7.249 8.642 10.689 19.577 9.706 30.809-4.31 49.177-1.505 87.818 8.836 121.606 5.764 18.829 12.921 34.966 42.184 41.58 16.883 3.819 26.936 11.792 31.956 26.842 1.038 3.113 3.992 5.187 7.275 5.187z" fill="#fca62f"/></g><g><g><g><path d="m233.724 264.38c-13.73-14.583-9.047-34.066.255-51.556 11.272-21.196 22.201-31.412 14.986-112.132-1.839-20.579 13.352-38.753 33.931-40.592 20.579-1.844 38.753 13.353 40.592 33.931 6.117 68.443-4.023 112.17-15.399 138.564z" fill="#fcc16d"/></g></g><g><g><path d="m231.014 266.977c-1.485 1.393-3.379 2.089-5.263 2.089-2.048 0-4.085-.809-5.59-2.416-5.99-6.358-9.471-13.71-10.454-22.003 5.15-.502 10.28-1.966 15.123-4.474.184 6.246 2.355 11.539 6.512 15.952 2.907 3.081 2.754 7.944-.328 10.852z" fill="#fca62f"/><path d="m411.647 123.856c-8.459-19.712-26.701-31.193-52.755-33.201-12.743-.984-24.309.546-30.56 1.665v15.65c8.036-1.678 55.463-10.074 69.201 21.942 1.249 2.91 4.083 4.653 7.061 4.653 1.01 0 2.037-.2 3.025-.624 3.896-1.673 5.7-6.188 4.028-10.085z" fill="#fb9927"/><path d="m395.36 175.843c-4.947-21.933-18.622-38.705-39.544-48.503-11.754-5.504-22.668-7.314-27.484-7.88v15.491c10.846 1.612 44.174 9.371 52.046 44.272.805 3.568 3.974 5.991 7.484 5.991.559 0 1.128-.061 1.697-.189 4.136-.935 6.734-5.045 5.801-9.182z" fill="#fb9927"/><path d="m331.118 188.025c-.829 4.157-4.874 6.86-9.041 6.031-4.157-.829-6.85-4.874-6.02-9.031 5.58-28.013 6.747-60.798 3.471-97.422-.614-6.84-3.491-13.126-8.212-17.99.174-5.631.195-11.324.072-17.068-.01-.655-.02-1.3 0-1.945 2.621 1.413 5.109 3.102 7.454 5.058 9.235 7.72 14.918 18.583 15.983 30.583 3.409 38.079 2.16 72.327-3.707 101.784z" fill="#fca62f"/></g></g></g><g fill="#fb9927"><path d="m405.327 358.035c-1.196 0-2.408-.279-3.542-.87-3.762-1.959-5.222-6.597-3.263-10.358 1.406-2.7 4.565-15.966-1.179-27.796-4.915-10.124-15.128-16.714-30.354-19.586-21.355-4.03-36.936-10.629-46.308-19.616-1.695-1.625-3.066-3.218-4.174-4.732-3.484-4.759-.265-11.5 5.616-11.951.072-.006.144-.011.216-.017 2.585-.2 5.101.913 6.648 2.993 3.494 4.7 13.382 13.049 40.849 18.231 13.931 2.629 32.409 9.615 41.322 27.97 8.258 17.004 4.23 35.369.984 41.599-1.368 2.627-4.044 4.133-6.815 4.133z"/><path d="m436.182 349.319c-.613 0-1.237-.074-1.859-.229-4.116-1.023-6.622-5.189-5.599-9.304 6.016-24.205 2.1-45.485-11.642-63.251-10.314-13.335-22.256-19.487-22.375-19.548-3.783-1.918-5.293-6.54-3.375-10.322 1.919-3.782 6.543-5.292 10.322-3.374.614.311 15.169 7.807 27.577 23.848 11.523 14.898 23.374 40.238 14.397 76.352-.868 3.494-4.001 5.828-7.446 5.828z"/><path d="m195.251 463.772c-2.743 0-5.396-1.474-6.778-4.06-.812-1.507-20.337-36.707-58.22-19.526-18.106 8.213-45.176 15.538-71.311 3.79-15.943-7.167-23.925-18.187-24.258-18.653-2.462-3.453-1.658-8.249 1.795-10.711 3.452-2.461 8.248-1.659 10.711 1.795.974 1.33 25.098 33.207 76.719 9.792 26.692-12.107 46.658-4.209 58.704 4.549 12.687 9.223 19.147 21.238 19.416 21.744 1.987 3.747.56 8.395-3.187 10.382-1.146.609-2.377.898-3.591.898z"/><path d="m50.362 347.244c-40.378 0-47.298-37.123-47.367-37.521-.724-4.179 2.077-8.153 6.256-8.877 4.164-.722 8.126 2.058 8.869 6.213.04.208 1.482 7.468 6.896 13.991 7.003 8.436 17.554 11.969 31.355 10.506 34.875-3.699 47.04-24.746 47.541-25.639 2.015-3.732 6.659-5.097 10.391-3.084 3.732 2.015 5.11 6.699 3.095 10.431-.637 1.181-16.11 28.973-59.408 33.565-2.663.281-5.208.415-7.628.415z"/><path d="m50.526 307.64c-1.437 0-2.871-.056-4.304-.17-28.251-2.241-44.277-25.978-44.945-26.987-2.341-3.536-1.373-8.301 2.163-10.642 3.527-2.337 8.282-1.376 10.628 2.142.22.325 12.839 18.626 33.511 20.188 16.686 1.266 34.61-8.393 53.268-28.694 2.871-3.122 7.728-3.327 10.85-.457 3.123 2.87 3.328 7.728.457 10.85-20.612 22.428-41.323 33.77-61.628 33.77z"/><path d="m327.157 151.02c-.394 5.308-5.978 8.55-10.792 6.278-5.516-2.603-13.485-7.216-24.801-15.34-18.725-13.443-33.808-4.512-34.441-4.125-3.573 2.286-8.289 1.223-10.575-2.349s-1.211-8.342 2.361-10.628c.975-.624 24.197-15.057 51.612 4.626 11.114 7.979 18.214 11.957 22.378 13.925 2.822 1.334 4.509 4.277 4.275 7.389-.006.075-.011.149-.017.224z"/><path d="m142.585 157.482c-33.147 0-54.551-12.505-67.182-23.921-16.061-14.514-21.732-30.386-21.966-31.055-1.399-4.004.712-8.383 4.716-9.782 3.995-1.399 8.365.704 9.773 4.691.791 2.202 19.607 52.138 89.882 43.775 4.209-.504 8.032 2.506 8.533 6.717.501 4.212-2.506 8.032-6.717 8.533-5.994.714-11.673 1.042-17.039 1.042z"/><path d="m158.595 127.532c-2.257 0-21.25-.255-41.902-8.479-29.229-11.638-47.679-33.566-53.356-63.415-.793-4.166 1.942-8.186 6.109-8.978 4.166-.796 8.187 1.942 8.978 6.109 4.685 24.627 19.326 42.069 43.516 51.841 18.786 7.589 36.554 7.573 36.716 7.563 4.246.013 7.7 3.382 7.734 7.618s-3.362 7.699-7.598 7.74c-.035.001-.101.001-.197.001z"/></g><path d="m254.228 354.103c-.709 0-1.429-.099-2.144-.306-7.674-2.228-15.556-3.667-22.795-4.163-4.231-.29-7.426-3.955-7.136-8.186s3.951-7.432 8.186-7.136c8.316.569 17.316 2.207 26.026 4.736 4.073 1.182 6.416 5.442 5.234 9.515-.974 3.358-4.041 5.54-7.371 5.54z" fill="#f98824"/><path d="m37.605 255.58c-4.015 0-7.392-3.12-7.656-7.183-.22-3.405-.332-6.819-.332-10.149 0-5.284.273-10.614.811-15.843.434-4.219 4.213-7.284 8.425-6.852 4.219.434 7.287 4.206 6.852 8.425-.484 4.708-.73 9.51-.73 14.27 0 3 .101 6.08.3 9.155.274 4.233-2.934 7.886-7.166 8.16-.169.012-.337.017-.504.017z" fill="#fca62f"/><path d="m268.858 248.825c-6.46 0-10.757-1.028-11.24-1.149-4.114-1.033-6.611-5.205-5.577-9.318 1.029-4.102 5.182-6.598 9.279-5.587 1.125.264 25.083 5.58 43.868-17.242 2.697-3.275 7.535-3.745 10.81-1.049 3.275 2.695 3.744 7.535 1.049 10.809-16.404 19.928-36.089 23.536-48.189 23.536z" fill="#fca62f"/><path d="m195.251 288.023c-.541 0-1.09-.057-1.64-.177-19.655-4.276-36.292-10.983-49.45-19.933-10.129-6.89-14.424-12.657-14.88-13.292-2.475-3.444-1.69-8.243 1.754-10.718 3.425-2.462 8.19-1.698 10.678 1.699.322.421 14.397 18.366 55.164 27.236 4.144.902 6.772 4.992 5.871 9.136-.782 3.594-3.963 6.049-7.497 6.049z" fill="#f98824"/><path d="m326.841 120.49c-1.365 0-2.747-.363-3.997-1.127-34.586-21.133-69.345-11.398-69.691-11.297-4.072 1.18-8.333-1.16-9.516-5.233-1.182-4.073 1.16-8.333 5.233-9.516 1.682-.488 41.679-11.686 81.981 12.94 3.62 2.211 4.76 6.938 2.549 10.557-1.447 2.369-3.972 3.676-6.559 3.676z" fill="#fb9927"/></g><g fill="#f98824"><path d="m381.116 80.625c-.013 0-.025 0-.037 0h-.106c-4.241-.02-7.663-3.474-7.643-7.715.02-4.229 3.455-7.643 7.678-7.643h.037.106c4.242.02 7.663 3.474 7.643 7.715-.02 4.229-3.455 7.643-7.678 7.643z"/><path d="m370.494 56.877c-.013 0-.025 0-.037 0h-.106c-4.242-.02-7.663-3.474-7.643-7.715.02-4.229 3.455-7.643 7.678-7.643h.037.106c4.241.02 7.663 3.474 7.643 7.715-.02 4.229-3.455 7.643-7.678 7.643z"/><path d="m135.57 405.682h-.106c-4.241 0-7.679-3.438-7.679-7.679s3.438-7.679 7.679-7.679h.106c4.241 0 7.679 3.438 7.679 7.679s-3.438 7.679-7.679 7.679z"/><path d="m70.934 228.088c-.012 0-.025 0-.037 0l-.105-.001c-4.241-.02-7.663-3.475-7.643-7.716.02-4.229 3.455-7.643 7.678-7.643h.037l.105.001c4.241.02 7.663 3.475 7.643 7.716-.02 4.228-3.455 7.643-7.678 7.643z"/></g><path d="m280.588 206.47c-.013 0-.025 0-.037 0l-.106-.001c-4.242-.02-7.663-3.474-7.643-7.715.02-4.229 3.455-7.643 7.678-7.643h.037l.106.001c4.242.02 7.663 3.474 7.643 7.715-.02 4.228-3.454 7.643-7.678 7.643z" fill="#fca62f"/><path d="m80.211 252.473c-.013 0-.025 0-.037 0l-.106-.001c-4.241-.02-7.663-3.474-7.643-7.715.02-4.229 3.455-7.643 7.678-7.643h.037l.106.001c4.241.02 7.663 3.474 7.643 7.715-.02 4.229-3.455 7.643-7.678 7.643z" fill="#f98824"/></g><g fill="#f98824"><path d="m159.629 156.439c-6 .717-11.682 1.044-17.048 1.044-4.495 0-8.775-.225-12.85-.666-.338-5.058-.584-10.229-.727-15.512 8.467 1.085 18.031 1.167 28.802-.113 4.208-.512 8.037 2.498 8.539 6.717.502 4.209-2.508 8.028-6.716 8.53z"/><path d="m158.595 127.535c-1.792 0-14.242-.164-29.693-4.403.092-5.212.287-10.495.594-15.829 15.737 4.894 29.017 4.884 29.16 4.874 4.249.01 7.7 3.379 7.73 7.618.041 4.229-3.358 7.7-7.597 7.741h-.194z"/><path d="m407.623 133.944c-.993.42-2.017.625-3.031.625-2.979 0-5.816-1.751-7.054-4.659-3.717-8.662-9.891-14.365-17.089-18.041.389-5.437.666-10.925.87-16.464 14.242 5.396 24.563 15.01 30.327 28.454 1.67 3.891-.132 8.406-4.023 10.085z"/><path d="m389.562 185.025c-.573.123-1.137.184-1.7.184-3.512 0-6.676-2.416-7.484-5.99-1.526-6.737-3.993-12.45-7.055-17.314 1.485-6.563 2.734-13.157 3.778-19.822 9.072 9.092 15.266 20.478 18.256 33.757.931 4.138-1.659 8.254-5.795 9.185z"/><path d="m327.177 150.797c-.01.072-.01.143-.02.225-.297 4.003-3.563 6.85-7.218 7.003.471-5.068.829-10.259 1.065-15.563.686.358 1.321.666 1.894.942 2.825 1.342 4.514 4.281 4.279 7.393z"/><path d="m333.402 116.814c-1.444 2.365-3.973 3.676-6.563 3.676-1.362 0-2.744-.369-3.993-1.126-.532-.328-1.065-.645-1.597-.952-.113-5.785-.358-11.703-.737-17.723 3.43 1.607 6.881 3.461 10.341 5.57 3.614 2.211 4.76 6.931 2.549 10.555z"/><path d="m412.138 353.904c-1.362 2.621-4.044 4.126-6.809 4.126-1.198 0-2.406-.276-3.543-.87-3.768-1.956-5.222-6.594-3.266-10.351 1.413-2.703 4.566-15.973-1.177-27.798-.481-.983-1.003-1.935-1.587-2.857 4.751-1.843 9.522-3.819 14.304-5.949.389.686.747 1.382 1.095 2.099 8.263 17.007 4.229 35.365.983 41.6z"/><path d="m443.633 343.491c-.87 3.491-4.003 5.826-7.454 5.826-.614 0-1.229-.072-1.853-.225-4.116-1.024-6.624-5.191-5.601-9.307 3.471-13.966 3.635-26.959.502-38.867 4.556-2.386 9.133-4.925 13.72-7.607 4.228 13.454 5.662 30.163.686 50.18z"/><path d="m198.843 462.876c-1.147.604-2.375.901-3.594.901-2.744 0-5.396-1.474-6.778-4.065-.481-.881-7.362-13.3-20.59-20.007-.604-4.259-1.454-9.768-1.976-17.396 6.625 2.027 12.215 5.171 16.71 8.437 12.686 9.225 19.147 21.246 19.413 21.747 1.986 3.748.563 8.396-3.185 10.383z"/><path d="m117.404 313.266c-.266.481-3.072 5.539-9.358 11.621-1.7-6.01-3.164-12.174-4.403-18.532.143-.235.236-.379.266-.44 2.017-3.727 6.665-5.099 10.392-3.082 3.738 2.017 5.11 6.696 3.103 10.433z"/><path d="m112.151 273.867c-3.88 4.229-7.771 8.058-11.662 11.498-.706-6.42-1.208-13.044-1.505-19.894.625-.655 1.239-1.321 1.863-1.997 2.867-3.123 7.73-3.328 10.853-.461 3.124 2.878 3.329 7.732.451 10.854z"/></g></g></svg>