<svg id="Layer_1" enable-background="new 0 0 256 256" height="512" viewBox="0 0 256 256" width="512" xmlns="http://www.w3.org/2000/svg"><g id="Layer_57"><g><path d="m218.8 128.9c-3.3-.1-6.3-2-7.8-4.9-2.1-3.7-5.9-6.1-10.2-6.3-3.3-.1-6.3-2-7.9-4.9-2.1-3.7-5.9-6.1-10.2-6.3-3.3-.1-6.3-2-7.9-4.9-2.1-3.7-5.9-6.1-10.2-6.3-3.3-.1-6.3-2-7.9-4.9-1.3-2.3-3.3-4.2-5.8-5.3 1.6 5.1-.7 13.1-4.6 18.2-5 6.5-12 7.1-17 3.2s-6.1-10.8-1.1-17.3c3-3.8 7.1-6.6 11.6-8.2-.4-.5-.8-1-1.1-1.6-3.1-6-10.5-8.3-16.5-5.2-2.2 1.1-4 2.9-5.1 5.1-1.6 2.9-4.5 4.7-7.8 4.8-4.2.2-8.1 2.6-10.2 6.3-1.6 2.9-4.6 4.8-7.9 4.9-4.2.2-8.1 2.6-10.2 6.3-1.6 2.9-4.6 4.8-7.9 4.9-1.6.1-3.3.5-4.7 1.2 6.8 3.2 12.7 8 17.2 14 6.1 8.5 6.4 17.3 2.6 23.8h141.3c3.4-7.9-2.9-16.2-10.7-16.6z" fill="#fce4be"/><path d="m53.5 145c-4.4-6.4-7.1-13.9-7.8-21.7-.2.3-.4.5-.5.8-1.6 2.9-4.6 4.7-7.9 4.9-7.9.3-14.1 8.7-10.9 16.7h27.6c-.2-.3-.4-.5-.5-.7z" fill="#fce4be"/><path d="m184.7 56.4c-.9-2.5-2.7-4.7-5-6.1-5.6-3.4-13-1.7-16.4 4-2.9 4.8-2.1 10.9 1.9 14.8l15.2 14.9c4.7 4.6 12.3 4.9 17 .4 4.7-4.6 4.9-12.1.3-16.9-1.5-1.5-3.3-2.6-5.3-3.2-3.7-1-6.4-4.2-7.7-7.9z" fill="#f5c84c"/><path d="m234.8 145.6h-213.6c-2.6 0-4.7 2.1-4.7 4.7.1 28.6 23.3 51.8 51.9 51.9h119.1c28.6-.1 51.8-23.3 51.9-51.9 0-2.6-2.1-4.6-4.6-4.7z" fill="#edf4fc"/><path d="m187.5 202.2h-119c-1.6 0-3.2-.1-4.8-.2v5.7c0 5.5 4.4 9.9 9.9 9.9h108.9c5.5 0 9.9-4.4 9.9-9.9v-5.7c-1.6.1-3.2.2-4.9.2z" fill="#c7d7e5"/><path d="m105.3 47.8c-7.6-3.1-10.1-9.7-7.7-15.5s8.8-8.8 16.4-5.6 15.2 11.8 12.8 17.6-13.9 6.6-21.5 3.5z" fill="#d68649"/><circle cx="82.4" cy="72" fill="#c18e6b" r="8.6"/><path d="m46 226.7c-3.1-.6-5.6-3-6.2-6.1 0-.1-.3-.1-.3 0-.6 3.1-3.1 5.5-6.2 6.1-.1 0-.1.2 0 .3 3.1.6 5.6 3 6.2 6.1 0 .1.3.1.3 0 .6-3.1 3.1-5.5 6.2-6.1.1-.1.1-.3 0-.3z" fill="#70d6f9"/><path d="m3.2 98h2.3v2.3c0 1.7 1.4 3.2 3.1 3.2h.1c1.7 0 3.1-1.4 3.2-3.1v-2.4h2.3c1.7 0 3.2-1.4 3.2-3.1v-.1c0-1.7-1.4-3.1-3.1-3.2h-2.4v-2.3c0-1.7-1.4-3.2-3.1-3.2h-.1c-1.7 0-3.1 1.4-3.2 3.1v2.4h-2.3c-1.7 0-3.2 1.4-3.2 3.1v.1c-.1 1.7 1.3 3.1 3 3.2z" fill="#87d147"/><circle cx="46.4" cy="49.4" fill="#f5c84c" r="3.4"/><circle cx="252.6" cy="108.9" fill="#fc657e" r="3.4"/><path d="m224.8 63.7c4.5-.8 8-4.3 8.9-8.7 0-.2.4-.2.4 0 .9 4.4 4.4 7.9 8.9 8.7.2 0 .2.3 0 .4-4.5.8-8 4.3-8.9 8.7 0 .2-.4.2-.4 0-.9-4.4-4.4-7.9-8.9-8.7-.2-.1-.2-.4 0-.4z" fill="#f5c84c"/><path d="m189.3 90.1c-4 0-7.8-1.5-10.6-4.3l-15.3-14.9c-5.7-5.6-5.8-14.7-.3-20.4s14.7-5.8 20.4-.3c1.6 1.5 2.8 3.4 3.5 5.4 1.2 3.3 3.4 5.6 6.1 6.3 7.7 2.2 12.1 10.2 9.9 17.9-.7 2.4-2 4.6-3.9 6.4-2.6 2.5-6.2 3.9-9.8 3.9zm-15.9-39c-1.8 0-3.6.5-5.2 1.5-4.4 2.9-5.6 8.7-2.8 13.1.4.6.8 1.1 1.3 1.6l15.3 14.9c3.7 3.7 9.6 3.9 13.5.4 3.8-3.6 3.9-9.6.2-13.4-1.1-1.2-2.6-2.1-4.2-2.5-4.2-1.2-7.7-4.7-9.4-9.4-.7-2-2.1-3.7-4-4.8-1.2-1-2.9-1.5-4.7-1.4z"/><path d="m187.5 204.7h-119c-30 0-54.3-24.4-54.4-54.4 0-4 3.2-7.2 7.2-7.2h213.5c4 0 7.2 3.2 7.2 7.2-.1 30-24.4 54.4-54.5 54.4zm-166.3-56.6c-1.2 0-2.2 1-2.2 2.2 0 27.3 22.1 49.3 49.4 49.4h119.1c27.3 0 49.3-22.1 49.4-49.4 0-1.2-1-2.2-2.2-2.2z"/><path d="m182.5 220h-109c-6.8 0-12.4-5.5-12.4-12.4v-5.6c0-1.4 1.1-2.5 2.5-2.5h.2c1.6.1 3.1.2 4.6.2h119.1c1.5 0 3-.1 4.6-.2 1.4-.1 2.6.9 2.7 2.3v.2 5.7c0 6.8-5.5 12.3-12.3 12.3zm-116.3-15.4v3c0 4.1 3.3 7.4 7.4 7.4h108.9c4.1 0 7.4-3.3 7.4-7.4v-3c-.8 0-1.5.1-2.3.1h-119.1c-.8 0-1.6 0-2.3-.1z"/><path d="m114.9 52.1c-3.6 0-7.2-.7-10.5-2-3.9-1.4-7.1-4.3-8.9-8-1.6-3.4-1.6-7.3-.1-10.8 3.1-7.6 11.2-10.5 19.6-7 4.4 1.9 8.2 4.8 11.2 8.6 3.4 4.4 4.5 8.8 3 12.3s-5.3 5.9-10.8 6.7c-1.2.1-2.4.2-3.5.2zm-6.9-24.2c-4.8 0-8.7 3.8-8.8 8.6 0 1.2.2 2.4.7 3.5 1.3 2.6 3.5 4.5 6.3 5.5 3.6 1.4 7.6 1.9 11.4 1.4 3.5-.5 6.1-1.8 6.8-3.6s-.1-4.5-2.3-7.4c-2.4-3.1-5.6-5.5-9.1-7-1.5-.6-3.2-1-5-1z"/><path d="m54 148.1h-27.7c-1 0-1.9-.6-2.3-1.6-1.8-4.4-1.2-9.3 1.3-13.2 2.6-4.1 7-6.6 11.8-6.9 2.4-.1 4.6-1.5 5.8-3.6.2-.3.3-.6.5-.8l.1-.2c.8-1.1 2.3-1.5 3.5-.7.6.4 1 1.1 1.1 1.9.7 7.3 3.2 14.4 7.4 20.4.1.1.2.2.2.3.1.1.2.2.3.3.8 1.1.6 2.7-.5 3.5-.4.5-1 .6-1.5.6zm-25.8-5h21.2c-2.5-4.4-4.3-9.1-5.4-14-1.9 1.4-4.2 2.2-6.6 2.3-3.2.2-6.1 1.9-7.8 4.6-1.4 2.1-1.9 4.7-1.4 7.1z"/><path d="m229.7 148.1h-141.4c-1.4 0-2.5-1.1-2.5-2.5 0-.4.1-.9.3-1.3 3.6-6.2 2.7-13.9-2.5-21.1-4.2-5.7-9.8-10.2-16.2-13.2-1.3-.6-1.8-2.1-1.2-3.3.2-.5.7-1 1.2-1.2 1.8-.9 3.7-1.4 5.7-1.5 2.4-.1 4.6-1.5 5.8-3.6 2.5-4.5 7.1-7.3 12.2-7.6 2.4-.1 4.6-1.5 5.8-3.6 2.5-4.5 7.1-7.3 12.2-7.6 2.4-.1 4.6-1.4 5.7-3.5 2-3.6 5.3-6.2 9.3-7.3 3.9-1 8.1-.4 11.5 1.8 2.2 1.4 4.1 3.4 5.3 5.7.2.4.5.8.8 1.2.9 1.1.7 2.6-.3 3.5-.2.2-.5.4-.8.4-4.1 1.4-7.7 4-10.4 7.4-1.9 2.2-2.8 5-2.7 7.8.6 4.8 4.9 8.3 9.7 7.7h.1c2.8-.6 5.3-2.2 6.9-4.6 3.6-4.6 5.5-11.8 4.2-15.9-.4-1.3.3-2.7 1.7-3.1.6-.2 1.2-.1 1.8.1 2.9 1.3 5.4 3.5 7 6.3 1.2 2.1 3.4 3.5 5.8 3.6 5.1.3 9.7 3.1 12.2 7.6 1.2 2.1 3.4 3.5 5.8 3.6 5.1.3 9.7 3.1 12.2 7.6 1.2 2.1 3.4 3.5 5.8 3.6 5.1.3 9.7 3.1 12.2 7.6 1.2 2.1 3.3 3.5 5.8 3.6 4.8.2 9.2 2.8 11.8 6.9 2.6 3.9 3.1 8.9 1.4 13.2-.3 1.1-1.2 1.7-2.2 1.7zm-137.5-5h135.6c.5-2.5 0-5-1.4-7.1-1.7-2.7-4.6-4.4-7.8-4.6-4.2-.2-7.9-2.5-9.9-6.1-1.7-3-4.7-4.9-8.1-5-4.2-.2-7.9-2.5-10-6.2-1.7-3-4.7-4.9-8.1-5-4.2-.2-7.9-2.5-10-6.2-1.7-3-4.7-4.9-8.1-5-4.2-.2-7.9-2.5-10-6.2-.2-.4-.4-.7-.7-1-.5 5.2-2.4 10.1-5.6 14.3-2.4 3.4-6 5.7-10.1 6.4-7.5 1.1-14.5-4.1-15.6-11.7 0-.2 0-.3-.1-.5-.3-4.1 1.1-8.2 3.7-11.4 2.7-3.3 6-6 9.9-7.9-.8-1.2-1.8-2.3-3.1-3-2.2-1.4-5-1.9-7.6-1.2s-4.9 2.4-6.2 4.8c-2 3.6-5.8 5.9-9.9 6.1-3.4.2-6.4 2.1-8.1 5-2 3.7-5.8 6-10 6.2-3.4.2-6.4 2.1-8.1 5-1.7 3-4.5 5.2-7.9 5.9 4.8 3.1 8.9 7 12.3 11.6 5.8 7.5 7.4 15.7 4.9 22.8z"/><path d="m82.4 83.1c-6.1 0-11.1-5-11.1-11.1s5-11.1 11.1-11.1 11.1 5 11.1 11.1c-.1 6.1-5 11.1-11.1 11.1zm0-17.2c-3.4 0-6.1 2.7-6.1 6.1s2.7 6.1 6.1 6.1 6.1-2.7 6.1-6.1c-.1-3.4-2.8-6.1-6.1-6.1z"/><path d="m129.6 137.5c0-7.1-5.8-12.9-12.9-12.9s-12.9 5.8-12.9 12.9c0 3 1 5.8 2.9 8.1h20c1.9-2.3 2.9-5.1 2.9-8.1z" fill="#c18e6b"/><path d="m156.5 137.5c0-7.1-5.8-12.9-12.9-12.9s-12.9 5.8-12.9 12.9c0 3 1 5.8 2.9 8.1h20c1.8-2.3 2.9-5.1 2.9-8.1z" fill="#feb872"/><path d="m193.2 143.1c6.1-2.4 9.5-9.2 7.3-15.3-2.2-6.2-9.1-9.4-15.3-7.2-2 .7-3.7 1.9-5.1 3.5-2.5 3-6.5 4.1-10.4 3.9-2.7-.2-5.4.5-7.6 2.1-3.8 2.6-5.8 7.2-5 11.7.2 1.4.7 2.7 1.4 3.9h28.2z" fill="#f5c84c"/><path d="m146.4 103.3c-5 6.5-12 7.1-17 3.2s-6.1-10.8-1.1-17.3 15.4-11.5 20.4-7.6 2.7 15.3-2.3 21.7z" fill="#d68649"/><path d="m54 145.6h34.3c3.8-6.6 3.5-15.3-2.6-23.8-8.3-11.6-26-21-34.9-14.6s-5.7 26.2 2.6 37.8c.2.2.4.4.6.6z" fill="#d68649"/><path d="m126.7 148.1h-20c-.8 0-1.5-.3-1.9-.9-5.4-6.6-4.4-16.3 2.2-21.6 6.6-5.4 16.3-4.4 21.6 2.2 4.6 5.7 4.6 13.8 0 19.5-.4.5-1.1.8-1.9.8zm-18.7-5h17.4c1.1-1.7 1.7-3.6 1.7-5.6 0-5.7-4.6-10.4-10.4-10.4s-10.4 4.6-10.4 10.4c0 2 .6 4 1.7 5.6z"/><path d="m153.6 148.1h-20c-.8 0-1.5-.3-1.9-.9-5.4-6.6-4.4-16.3 2.2-21.6 6.6-5.4 16.3-4.4 21.6 2.2 4.6 5.7 4.6 13.8 0 19.5-.5.5-1.2.8-1.9.8zm-18.7-5h17.4c1.1-1.7 1.7-3.6 1.7-5.6 0-5.7-4.6-10.4-10.4-10.4-5.7 0-10.4 4.6-10.4 10.4 0 2 .6 4 1.7 5.6z"/><path d="m186.7 148.1h-28.2c-.9 0-1.7-.5-2.2-1.3-.8-1.5-1.4-3.1-1.6-4.7-1.3-7.9 4.1-15.3 11.9-16.6 1.1-.2 2.2-.2 3.4-.1 3.5.3 6.5-.8 8.3-3 5.1-6.1 14.3-6.9 20.4-1.7 1.9 1.6 3.4 3.7 4.3 6.1 2.6 7.3-1.3 15.6-8.7 18.5l-6.5 2.6c-.4.2-.7.2-1.1.2zm-26.6-5h26.2l6-2.4c4.9-1.8 7.5-7.2 5.9-12.2-1.8-4.9-7.2-7.4-12.1-5.7-1.6.6-2.9 1.5-4 2.8-2.8 3.4-7.4 5.1-12.5 4.7-2.1-.2-4.3.4-6 1.6-3 2-4.5 5.7-4 9.2.1.8.3 1.4.5 2z"/><path d="m136.2 111.5c-3 0-6-1-8.3-2.9-3-2.3-4.9-5.7-5.2-9.4-.3-4.1 1.1-8.2 3.7-11.4 5.3-6.8 17.2-13.3 23.9-8.1 3 2.4 4.3 6.7 3.5 12.2-.7 4.7-2.6 9.2-5.4 13-2.4 3.4-6 5.7-10.1 6.4-.7.1-1.4.2-2.1.2zm8.1-28.7c-4.1 0-10.3 3.3-14 8-1.9 2.2-2.8 5-2.7 7.8.6 4.8 4.9 8.3 9.7 7.7h.1c2.8-.6 5.3-2.2 6.9-4.6 2.3-3.1 3.9-6.8 4.4-10.6.5-3.5-.1-6.3-1.6-7.5-.7-.6-1.8-.9-2.8-.8z"/><path d="m88.3 148.1h-34.3c-.8 0-1.5-.4-2-1l-.2-.2c-.1-.2-.3-.3-.4-.5-4.5-6.5-7.4-14.1-8.2-22-.9-8.9 1.3-15.7 6.2-19.2 10.1-7.2 29.2 2.4 38.4 15.2 6.3 8.8 7.3 18.7 2.7 26.6-.5.7-1.3 1.1-2.2 1.1zm-33.1-5h31.6c2.8-6 1.7-13.1-3.1-19.9-7.6-10.6-24-19.4-31.4-14-3.3 2.4-4.8 7.7-4.1 14.7.7 6.9 3.2 13.5 7 19.2z"/></g></g></svg>