<svg id="Flat" height="512" viewBox="0 0 64 64" width="512" xmlns="http://www.w3.org/2000/svg"><g><path d="m14.72 18.932c-.055 0-.11-.004-.166-.014-.545-.091-.913-.606-.822-1.151.237-1.416 1.097-3.642 1.519-4.62.271-.652.618-1.392 1.136-2.017.016-.246.052-.492.108-.734.355-1.571 1.501-2.969 3.066-3.731 1.353-.662 3.002-.837 4.644-.49.541.114.886.645.772 1.185s-.646.886-1.185.772c-1.208-.255-2.399-.138-3.355.33-.592.289-1.1.723-1.463 1.229.891-.1 1.756.074 2.409.246.775.193 1.779.514 2.549 1.257.915.883 1.232 2.226.77 3.266-.524 1.162-1.887 1.8-3.554 1.692-1.212-.068-2.244-.421-3.052-1.047-.404-.313-.747-.703-1.019-1.145-.547 1.274-1.207 3.138-1.374 4.138-.079.487-.503.834-.983.834zm3.702-6.99c.112.64.438 1.222.9 1.579.601.466 1.394.601 1.954.633.651.044 1.415-.097 1.603-.514.119-.268-.026-.713-.333-1.009-.429-.414-1.111-.623-1.657-.759-1.051-.278-1.782-.282-2.311-.017-.056.028-.107.056-.156.087z" fill="#486900"/></g><path d="m59.56 44.972c.28-.62.44-1.31.44-2.04 0-2.76-2.24-5-5-5-.19 0-.38.01-.56.04.35-.6.56-1.3.56-2.04 0-2.21-1.79-4-4-4-.69 0-1.34.18-1.9.48-.73-.91-1.85-1.48-3.1-1.48 0-2.21-1.79-4-4-4-.13 0-.25.01-.38.02.85-.73 1.38-1.81 1.38-3.02 0-2.21-1.79-4-4-4-1.2 0-2.27.53-3 1.36-.73-.83-1.8-1.36-3-1.36-.14 0-.27.01-.4.02h-.01c-.76-1.77-2.53-3.02-4.59-3.02-1.72 0-3.25.88-4.15 2.2-.72-.74-1.73-1.2-2.85-1.2-1.88 0-3.45 1.29-3.88 3.04-.08.31-.12.63-.12.96 0 .8.24 1.55.65 2.18-.6.17-1.15.44-1.63.81-1.23.91-2.02 2.37-2.02 4.01 0 2.3 1.55 4.23 3.66 4.82-.1.16-.2.33-.28.5-.89-.82-2.08-1.32-3.38-1.32-2.76 0-5 2.24-5 5 0 1.86 1.02 3.48 2.53 4.35.73.41 1.57.65 2.47.65.15 0 .29-.01.43-.03-.28.62-.43 1.31-.43 2.03 0 2.76 2.24 5 5 5 2.46 0 4.51-1.78 4.92-4.12.03.01.06.02.09.02-.01.03-.01.07-.01.1 0 2.76 2.24 5 5 5 2.57 0 4.68-1.94 4.96-4.43.62.27 1.31.43 2.04.43.03 0 .07 0 .1-.01-.06.33-.1.67-.1 1.01 0 2.76 2.24 5 5 5s5-2.24 5-5l.01-.01c.22.18.45.32.7.45-.45.75-.71 1.62-.71 2.56 0 2.76 2.24 5 5 5 2.56 0 4.67-1.93 4.96-4.41.73.87 1.82 1.41 3.04 1.41 2.21 0 4-1.79 4-4 0-2.02-1.49-3.69-3.44-3.96z" fill="#a4d100"/><path d="m18.81 39.282c.39.26.83.45 1.31.55-.02.07-.03.15-.04.22-.35-.08-.71-.12-1.08-.12-.15 0-.29.01-.43.03.1-.22.18-.44.24-.68z" fill="#bfd200"/><path d="m14 28.932c0-1.64.79-3.1 2.02-4.01-.54-.38-1.01-.83-1.4-1.31-.64-.74-1.11-1.57-1.47-2.4l-8.15 2.72 2 1-5 4h2l-3 6 3-1-2 7h2l1 6 4-3 2 1 .53-2.65c-1.51-.87-2.53-2.49-2.53-4.35 0-2.76 2.24-5 5-5 1.3 0 2.49.5 3.38 1.32.08-.17.18-.34.28-.5-2.11-.59-3.66-2.52-3.66-4.82z" fill="#547204"/><path d="m14 28.932c0 2.3 1.55 4.23 3.66 4.82-.1.16-.2.33-.28.5-.89-.82-2.08-1.32-3.38-1.32-2.76 0-5 2.24-5 5 0 1.86 1.02 3.48 2.53 4.35l-.53 2.65-2-1-4 3s2.65-14.15 9.62-23.32c.39.48.86.93 1.4 1.31-1.23.91-2.02 2.37-2.02 4.01z" fill="#647f0e"/><path d="m14.62 23.612c-6.97 9.17-9.62 23.32-9.62 23.32l-1-6h-2l2-7-3 1 3-6h-2l5-4-2-1 8.15-2.72c.36.83.83 1.66 1.47 2.4z" fill="#547204"/><path d="m5 46.932 4-3 2 1 .53-2.65c-1.51-.87-2.53-2.49-2.53-4.35 0-.569.115-1.106.29-1.615-.547.472-1.125.897-1.721 1.288-1.798 5.22-2.569 9.327-2.569 9.327z" fill="#547204"/><path d="m14.122 29.973c-.596 1.185-1.279 2.312-2.055 3.348.595-.25 1.248-.389 1.933-.389 1.3 0 2.49.5 3.38 1.32.08-.17.18-.34.28-.5-1.781-.498-3.15-1.955-3.538-3.779z" fill="#547204"/><path d="m2 40.932h2l1 6s.771-4.107 2.569-9.327c-1.583 1.037-3.332 1.766-5.219 2.102z" fill="#486900"/><path d="m17 21.932c0 .8.24 1.55.65 2.18-.6.17-1.15.44-1.63.81-.54-.38-1.01-.83-1.4-1.31-.64-.74-1.11-1.57-1.47-2.4-.82-1.88-1.06-3.77-1.12-4.7-.03-.35.14-.69.44-.89l1.13-.75c.61-.41 1.44-.04 1.54.69.07.45.16.98.3 1.54v.01c.3 1.22.81 2.62 1.68 3.86-.08.31-.12.63-.12.96z" fill="#9e7059"/><path d="m17.12 20.972c-.016-.023-.028-.049-.044-.072-1.994-.096-3.78-.503-4.721-2.178.171.772.42 1.63.796 2.49.36.83.83 1.66 1.47 2.4.39.48.86.93 1.4 1.31.48-.37 1.03-.64 1.63-.81-.41-.63-.65-1.38-.65-2.18-.001-.33.039-.65.119-.96z" fill="#995b3f"/><path d="m19 37.932c0 .47-.06.92-.19 1.35-.06.24-.14.46-.24.68-1.85.15-3.42 1.32-4.14 2.94-.14.02-.28.03-.43.03-.9 0-1.74-.24-2.47-.65-1.51-.87-2.53-2.49-2.53-4.35 0-2.76 2.24-5 5-5 1.3 0 2.49.5 3.38 1.32.99.91 1.62 2.22 1.62 3.68z" fill="#80b918"/><path d="m17.38 34.252c-.194-.178-.407-.334-.627-.48-.286 3.395-3.037 6.334-6.408 7.555.346.373.741.7 1.185.956.73.41 1.57.65 2.47.65.15 0 .29-.01.43-.03.72-1.62 2.29-2.79 4.14-2.94.1-.22.18-.44.24-.68.13-.43.19-.88.19-1.35 0-1.461-.63-2.771-1.62-3.681z" fill="#55a630"/><path d="m36 21.292c.62.71 1 1.63 1 2.64s-.38 1.93-1 2.64c-.48.55-1.11.96-1.82 1.18-.37.12-.77.18-1.18.18-.74 0-1.43-.2-2.03-.56.02-.15.03-.29.03-.44 0-1.47-.79-2.75-1.97-3.44.2-1.86 1.69-3.35 3.56-3.54h.01c.13-.01.26-.02.4-.02 1.2 0 2.27.53 3 1.36z" fill="#80b918"/><path d="m36 21.292c-.246-.279-.541-.508-.855-.711-.047 2.827-1.711 5.17-4.149 6.405-.002.129-.009.254-.026.385.6.36 1.29.56 2.03.56.41 0 .81-.06 1.18-.18.71-.22 1.34-.63 1.82-1.18.62-.71 1-1.63 1-2.64s-.38-1.929-1-2.639z" fill="#55a630"/><path d="m36 36.932c-1.63 0-3.09.79-4 2-.6-.45-1.09-1.04-1.44-1.71 1.46-.87 2.44-2.47 2.44-4.29 0-.82-.2-1.61-.56-2.29.52-.31 1.09-.53 1.71-.63.28-.06.56-.08.85-.08 1.13 0 2.17.37 3 1 0 1.46.78 2.74 1.96 3.44.03.18.04.37.04.56 0 .42-.05.82-.15 1.21-.31.47-.55.99-.69 1.56-.05.08-.1.16-.16.23-.83-.63-1.87-1-3-1z" fill="#80b918"/><path d="m46.01 47.922-.01.01c0 2.76-2.24 5-5 5s-5-2.24-5-5c0-.34.04-.68.1-1.01 2.4-.04 4.38-1.78 4.81-4.06.85.67 1.92 1.07 3.09 1.07 0 1.64.79 3.09 2.01 3.99z" fill="#80b918"/><path d="m48.85 37.732c.71-.72 1.15-1.71 1.15-2.8 0-.95-.34-1.83-.9-2.52.56-.3 1.21-.48 1.9-.48 2.21 0 4 1.79 4 4 0 .74-.21 1.44-.56 2.04-1.21.13-2.29.7-3.09 1.54-.7-.37-1.5-.58-2.35-.58 0-.41-.05-.8-.15-1.19z" fill="#80b918"/><path d="m46.01 47.922-.01.01c0 1.13-.37 2.17-1 3-.861-.648-1.509-1.574-1.812-2.641-.209-.737-.761-1.332-1.498-1.539-.091-.026-.181-.054-.269-.084-.786-.271-1.687.049-2.103.769-.645 1.116-1.705 1.958-2.978 2.306-.22-.56-.34-1.17-.34-1.81 0-.34.04-.68.1-1.01 2.4-.04 4.38-1.78 4.81-4.06.85.67 1.92 1.07 3.09 1.07 0 1.639.79 3.089 2.01 3.989z" fill="#55a630"/><path d="m54.82 37.102c-.09.31-.22.6-.38.87-1.21.13-2.29.7-3.09 1.54-.7-.37-1.5-.58-2.35-.58 0-.32-.03-.62-.1-.92.85-.68 1.93-1.08 3.1-1.08.85 0 1.64.23 2.34.61.15-.16.31-.31.48-.44z" fill="#55a630"/><path d="m53 32.932c0 2.05-1.54 3.73-3.52 3.97.33-.58.52-1.25.52-1.97 0-.95-.34-1.83-.9-2.52.56-.3 1.21-.48 1.9-.48.71 0 1.39.19 1.97.52.02.16.03.32.03.48z" fill="#55a630"/><path d="m35 31.932c0 2.36-1.64 4.34-3.84 4.86 1.12-.91 1.84-2.3 1.84-3.86 0-.82-.2-1.61-.56-2.29.52-.31 1.09-.53 1.71-.63.15-.03.29-.05.44-.06.27.61.41 1.28.41 1.98z" fill="#55a630"/><path d="m39.78 36.262c-.28.44-.49.92-.62 1.44-.05.08-.1.16-.16.23-.83-.63-1.87-1-3-1-.41 0-.8.05-1.18.14.86-.71 1.97-1.14 3.18-1.14.63 0 1.23.12 1.78.33z" fill="#55a630"/><g fill="#69b200"><path d="m39.85 36.142c.1-.39.15-.79.15-1.21 0-.19-.01-.38-.04-.56.36.21.76.37 1.18.46-.5.35-.94.79-1.29 1.31z"/><path d="m32.44 30.642c-.42-.82-1.06-1.5-1.84-1.98.2-.4.33-.83.37-1.29.6.36 1.29.56 2.03.56.41 0 .81-.06 1.18-.18-.12.38-.18.77-.18 1.18 0 .37.05.74.15 1.08-.62.1-1.19.32-1.71.63z"/><path d="m21 39.932c1.89 0 3.48-1.32 3.89-3.09.71.57 1.58.95 2.54 1.05-.27.62-.43 1.31-.43 2.04 0 .46.06.91.18 1.34-1.83.72-3.14 2.48-3.17 4.56-.03 0-.06-.01-.09-.02.05-.29.08-.58.08-.88 0-2.39-1.68-4.39-3.92-4.88.01-.07.02-.15.04-.22.28.07.58.1.88.1z"/><path d="m23.1 26.062c-.91-1.29-2.41-2.13-4.1-2.13-.47 0-.92.06-1.35.18-.41-.63-.65-1.38-.65-2.18 0-.33.04-.65.12-.96.43-1.75 2-3.04 3.88-3.04 1.12 0 2.13.46 2.85 1.2-.53.8-.85 1.76-.85 2.8 0 .98.28 1.89.76 2.66-.31.43-.54.93-.66 1.47z"/><path d="m39 19.932c2.21 0 4 1.79 4 4 0 1.21-.53 2.29-1.38 3.02-.85.08-1.62.43-2.24.96-.13.01-.25.02-.38.02-1.2 0-2.27-.53-3-1.36.62-.71 1-1.63 1-2.64s-.38-1.93-1-2.64c.73-.83 1.8-1.36 3-1.36z"/><path d="m51.35 39.512c-.84.89-1.35 2.1-1.35 3.42 0 1.13.37 2.17 1 3-1.82 0-3.42.98-4.29 2.44-.25-.13-.48-.27-.7-.45-1.22-.9-2.01-2.35-2.01-3.99 2.76 0 5-2.24 5-5 .85 0 1.65.21 2.35.58z"/></g><path d="m23 26.932c0 .99.36 1.9.96 2.6-.12 1.07-.59 2.03-1.28 2.78-.51-.25-1.08-.38-1.68-.38-1.4 0-2.63.72-3.34 1.82-2.11-.59-3.66-2.52-3.66-4.82 0-1.64.79-3.1 2.02-4.01.48-.37 1.03-.64 1.63-.81.43-.12.88-.18 1.35-.18 1.69 0 3.19.84 4.1 2.13-.07.28-.1.57-.1.87z" fill="#80af17"/><path d="m23 26.932c0-.3.03-.59.1-.87-.387-.549-.885-1.009-1.455-1.365.508 3.101-1.934 6.531-5.179 8.528.372.221.768.407 1.194.527.71-1.1 1.94-1.82 3.34-1.82.6 0 1.17.13 1.68.38.69-.75 1.16-1.71 1.28-2.78-.6-.7-.96-1.61-.96-2.6z" fill="#549b10"/><path d="m28 16.932c2.06 0 3.83 1.25 4.59 3.02-1.87.19-3.36 1.68-3.56 3.54-.6-.36-1.29-.56-2.03-.56-1.34 0-2.52.65-3.24 1.66-.48-.77-.76-1.68-.76-2.66 0-1.04.32-2 .85-2.8.9-1.32 2.43-2.2 4.15-2.2z" fill="#80af17"/><path d="m30.06 17.383c-.707 2.76-4.106 4.587-6.86 5.955.13.447.32.868.561 1.254.72-1.01 1.9-1.66 3.24-1.66.74 0 1.43.2 2.03.56.2-1.86 1.69-3.35 3.56-3.54-.49-1.138-1.399-2.055-2.531-2.569z" fill="#549b10"/><path d="m38 30.932c-.83-.63-1.87-1-3-1-.29 0-.57.02-.85.08-.1-.34-.15-.71-.15-1.08 0-.41.06-.8.18-1.18.71-.22 1.34-.63 1.82-1.18.73.83 1.8 1.36 3 1.36.13 0 .25-.01.38-.02-.85.73-1.38 1.81-1.38 3.02z" fill="#80af17"/><path d="m32 38.932c-.52.69-.86 1.52-.96 2.43-.62-.27-1.31-.43-2.04-.43-.64 0-1.25.12-1.82.34-.12-.43-.18-.88-.18-1.34 0-.73.16-1.42.43-2.04.19.03.38.04.57.04.94 0 1.81-.26 2.56-.71.35.67.84 1.26 1.44 1.71z" fill="#80af17"/><path d="m48.85 37.742c.1.39.15.78.15 1.19 0 2.76-2.24 5-5 5-1.17 0-2.24-.4-3.09-1.07.06-.3.09-.61.09-.93 0-1.59-.75-3.01-1.91-3.93.02-.1.04-.2.07-.3.14-.57.38-1.09.69-1.56.35-.52.79-.96 1.29-1.31.27.07.56.1.86.1 0 2.21 1.79 4 4 4 1.11 0 2.12-.46 2.85-1.19z" fill="#80af17"/><path d="m48.85 37.742c-.73.73-1.74 1.19-2.85 1.19-.154 0-.3-.028-.45-.045-.917 1.455-2.787 2.389-4.565 2.799.005.082.015.163.015.246 0 .32-.03.63-.09.93.85.67 1.92 1.07 3.09 1.07 2.76 0 5-2.24 5-5 0-.41-.05-.8-.15-1.19z" fill="#549b10"/><path d="m60 42.932c0 .73-.16 1.42-.44 2.04-.18-.03-.37-.04-.56-.04-1.91 0-3.5 1.34-3.9 3.13-.91-1.29-2.41-2.13-4.1-2.13-.63-.83-1-1.87-1-3 0-1.32.51-2.53 1.35-3.42.8-.84 1.88-1.41 3.09-1.54.18-.03.37-.04.56-.04 2.76 0 5 2.24 5 5z" fill="#80af17"/><path d="m56.481 38.181c.47 3.613-.755 6.448-2.964 8.438.624.364 1.167.853 1.583 1.443.4-1.79 1.99-3.13 3.9-3.13.19 0 .38.01.56.04.28-.62.44-1.31.44-2.04 0-2.241-1.486-4.116-3.519-4.751z" fill="#549b10"/><path d="m39.38 27.912c-.58.5-1.02 1.17-1.22 1.93-.86-.19-1.61-.65-2.16-1.29-.5.57-1.15 1.01-1.9 1.21-.07-.26-.1-.55-.1-.83 0-.41.06-.8.18-1.18.71-.22 1.34-.63 1.82-1.18.73.83 1.8 1.36 3 1.36.13 0 .25-.01.38-.02z" fill="#549b10"/><path d="m31.51 38.502c-.91.88-2.14 1.43-3.51 1.43-.34 0-.67-.03-.99-.1.01-.69.16-1.35.42-1.94.19.03.38.04.57.04.94 0 1.81-.26 2.56-.71.25.47.57.91.95 1.28z" fill="#549b10"/><path d="m32.44 30.642c.36.68.56 1.47.56 2.29 0 1.82-.98 3.42-2.44 4.29-.75.45-1.62.71-2.56.71-.19 0-.38-.01-.57-.04-.96-.1-1.83-.48-2.54-1.05.07-.29.11-.6.11-.91 0-1.61-.95-2.99-2.32-3.62.69-.75 1.16-1.71 1.28-2.78.73.86 1.82 1.4 3.04 1.4 1.59 0 2.96-.93 3.6-2.27.78.48 1.42 1.16 1.84 1.98z" fill="#99d100"/><path d="m33 32.932c0 1.82-.98 3.42-2.44 4.29-.75.45-1.62.71-2.56.71-.19 0-.38-.01-.57-.04-.96-.1-1.83-.48-2.54-1.05.07-.29.11-.6.11-.91 0-.06 0-.13-.01-.19.24.07.5.12.76.15.19.03.38.04.57.04.94 0 1.81-.26 2.56-.71 1.46-.87 2.44-2.47 2.44-4.29 0-.75-.17-1.48-.48-2.11.67.46 1.22 1.08 1.6 1.82.36.68.56 1.47.56 2.29z" fill="#74ce00"/><path d="m24 44.932c0 .3-.03.59-.08.88-.41 2.34-2.46 4.12-4.92 4.12-2.76 0-5-2.24-5-5 0-.72.15-1.41.43-2.03.72-1.62 2.29-2.79 4.14-2.94.14-.02.28-.03.43-.03.37 0 .73.04 1.08.12 2.24.49 3.92 2.49 3.92 4.88z" fill="#99d100"/><path d="m24 44.932c0 .3-.03.59-.08.88-.41 2.34-2.46 4.12-4.92 4.12-2.39 0-4.38-1.67-4.88-3.91.82.57 1.81.91 2.88.91 2.46 0 4.51-1.78 4.92-4.12.05-.29.08-.58.08-.88 0-.37-.04-.73-.12-1.08 1.28.9 2.12 2.39 2.12 4.08z" fill="#74ce00"/><path d="m41 41.932c0 .32-.03.63-.09.93-.43 2.28-2.41 4.02-4.81 4.06-.03.01-.07.01-.1.01-.73 0-1.42-.16-2.04-.43-1.74-.78-2.96-2.54-2.96-4.57 0-.19.01-.38.04-.57.1-.91.44-1.74.96-2.43.91-1.21 2.37-2 4-2 1.13 0 2.17.37 3 1 .03.02.06.04.09.07 1.16.92 1.91 2.34 1.91 3.93z" fill="#99d100"/><path d="m41 41.932c0 .32-.03.63-.09.93-.43 2.28-2.41 4.02-4.81 4.06-.03.01-.07.01-.1.01-.73 0-1.42-.16-2.04-.43-1.42-.64-2.5-1.93-2.84-3.49.26.2.54.36.84.49.62.27 1.31.43 2.04.43.03 0 .07 0 .1-.01 2.4-.04 4.38-1.78 4.81-4.06.06-.3.09-.61.09-.93 0-.37-.04-.74-.13-1.09.05.03.09.06.13.09.03.02.06.04.09.07 1.16.92 1.91 2.34 1.91 3.93z" fill="#74ce00"/><path d="m48.85 37.742c-.73.73-1.74 1.19-2.85 1.19-2.21 0-4-1.79-4-4s1.79-4 4-4c1.25 0 2.37.57 3.1 1.48.56.69.9 1.57.9 2.52 0 1.09-.44 2.08-1.15 2.8z" fill="#99d100"/><path d="m50 34.932c0 1.09-.44 2.08-1.15 2.8v.01c-.73.73-1.74 1.19-2.85 1.19-1.62 0-3.02-.97-3.64-2.36.5.23 1.06.36 1.64.36 1.11 0 2.12-.46 2.85-1.19v-.01c.71-.72 1.15-1.71 1.15-2.8 0-.58-.13-1.14-.36-1.64.57.25 1.07.64 1.46 1.12.56.69.9 1.57.9 2.52z" fill="#74ce00"/><path d="m56 50.932c0 .2-.01.4-.04.59-.29 2.48-2.4 4.41-4.96 4.41-2.76 0-5-2.24-5-5 0-.94.26-1.81.71-2.56.87-1.46 2.47-2.44 4.29-2.44 1.69 0 3.19.84 4.1 2.13.57.81.9 1.8.9 2.87z" fill="#99d100"/><path d="m56 50.932c0 .2-.01.4-.04.59-.29 2.48-2.4 4.41-4.96 4.41-2.39 0-4.38-1.67-4.88-3.91.82.57 1.81.91 2.88.91 2.56 0 4.67-1.93 4.96-4.41.03-.19.04-.39.04-.59 0-.37-.04-.73-.12-1.08.47.32.89.74 1.22 1.21.57.81.9 1.8.9 2.87z" fill="#74ce00"/><path d="m25 35.932c0 .31-.04.62-.11.91-.41 1.77-2 3.09-3.89 3.09-.3 0-.6-.03-.88-.1-.48-.1-.92-.29-1.31-.55.13-.43.19-.88.19-1.35 0-1.46-.63-2.77-1.62-3.68.08-.17.18-.34.28-.5.71-1.1 1.94-1.82 3.34-1.82.6 0 1.17.13 1.68.38 1.37.63 2.32 2.01 2.32 3.62z" fill="#a4d100"/><path d="m22.68 32.312c-.044-.022-.095-.029-.14-.049 1.138 3.482-.627 5.811-3.332 7.234.286.145.586.267.912.335.28.07.58.1.88.1 1.89 0 3.48-1.32 3.89-3.09.07-.29.11-.6.11-.91 0-1.61-.95-2.99-2.32-3.62z" fill="#74ce00"/><path d="m31 26.932c0 .15-.01.29-.03.44-.04.46-.17.89-.37 1.29-.64 1.34-2.01 2.27-3.6 2.27-1.22 0-2.31-.54-3.04-1.4-.6-.7-.96-1.61-.96-2.6 0-.3.03-.59.1-.87.12-.54.35-1.04.66-1.47.72-1.01 1.9-1.66 3.24-1.66.74 0 1.43.2 2.03.56 1.18.69 1.97 1.97 1.97 3.44z" fill="#a4d100"/><path d="m29.904 24.192c-.72 2.972-2.834 5.353-6.117 5.099.059.08.109.167.173.242.73.86 1.82 1.4 3.04 1.4 1.59 0 2.96-.93 3.6-2.27.2-.4.33-.83.37-1.29.02-.15.03-.29.03-.44 0-1.066-.419-2.028-1.096-2.741z" fill="#74ce00"/><path d="m46 30.932c-2.21 0-4 1.79-4 4-.3 0-.59-.03-.86-.1-.42-.09-.82-.25-1.18-.46-1.18-.7-1.96-1.98-1.96-3.44 0-1.21.53-2.29 1.38-3.02.62-.53 1.39-.88 2.24-.96.13-.01.25-.02.38-.02 2.21 0 4 1.79 4 4z" fill="#a4d100"/><path d="m42.544 26.987c.415 2.929-.74 5.656-2.63 7.354.016.01.03.022.046.031.36.21.76.37 1.18.46.27.07.56.1.86.1 0-2.21 1.79-4 4-4 0-2.024-1.506-3.678-3.456-3.945z" fill="#74ce00"/><path d="m29 40.932c.73 0 1.42.16 2.04.43-.03.19-.04.38-.04.57 0 2.03 1.22 3.79 2.96 4.57-.28 2.49-2.39 4.43-4.96 4.43-2.76 0-5-2.24-5-5 0-.03 0-.07.01-.1.03-2.08 1.34-3.84 3.17-4.56.57-.22 1.18-.34 1.82-.34z" fill="#a4d100"/><path d="m32.056 44.984c-.614 2.64-2.07 4.729-4.994 5.557.596.251 1.251.391 1.938.391 2.57 0 4.68-1.94 4.96-4.43-.755-.338-1.402-.869-1.904-1.518z" fill="#74ce00"/><path d="m59.56 44.972c1.95.27 3.44 1.94 3.44 3.96 0 2.21-1.79 4-4 4-1.22 0-2.31-.54-3.04-1.41.03-.19.04-.39.04-.59 0-1.07-.33-2.06-.9-2.87.4-1.79 1.99-3.13 3.9-3.13.19 0 .38.01.56.04z" fill="#a4d100"/><path d="m63 48.932c0 2.21-1.79 4-4 4-1.22 0-2.31-.54-3.04-1.41.03-.19.04-.39.04-.59 0-.04 0-.09-.01-.13.32.09.66.13 1.01.13 2.21 0 4-1.79 4-4 0-.59-.13-1.15-.35-1.65 1.39.63 2.35 2.03 2.35 3.65z" fill="#74ce00"/><g><g><path d="m27.319 47.209c1.287 0 1.289-2 0-2-1.287 0-1.289 2 0 2z" fill="#cfe83d"/></g><g><path d="m27.489 26.528c1.287 0 1.289-2 0-2-1.287 0-1.289 2 0 2z" fill="#cfe83d"/></g><g><path d="m40.851 31.124c1.287 0 1.289-2 0-2-1.287 0-1.289 2 0 2z" fill="#cfe83d"/></g><g><path d="m59.83 48.911c1.287 0 1.289-2 0-2-1.287 0-1.289 2 0 2z" fill="#cfe83d"/></g><g><path d="m22.383 36.4c1.287 0 1.289-2 0-2-1.287 0-1.289 2 0 2z" fill="#cfe83d"/></g></g><g><g><path d="m17.106 28.655c1.287 0 1.289-2 0-2-1.287 0-1.289 2 0 2z" fill="#a2c63e"/></g><g><path d="m53.362 42.953c1.287 0 1.289-2 0-2-1.287 0-1.289 2 0 2z" fill="#a2c63e"/></g><g><path d="m26.553 21.081c1.287 0 1.289-2 0-2-1.287 0-1.289 2 0 2z" fill="#a2c63e"/></g></g><g><g><path d="m40.426 24.485c1.287 0 1.289-2 0-2-1.287 0-1.29 2 0 2z" fill="#96c642"/></g><g><path d="m19.915 22.102c1.287 0 1.289-2 0-2-1.287 0-1.289 2 0 2z" fill="#96c642"/></g></g><g><g><path d="m13.617 36.826c1.287 0 1.289-2 0-2-1.287 0-1.289 2 0 2z" fill="#acdd43"/></g><g><path d="m33.191 23.464c1.287 0 1.289-2 0-2-1.286 0-1.289 2 0 2z" fill="#acdd43"/></g><g><path d="m40.17 51.038c1.287 0 1.289-2 0-2-1.287 0-1.289 2 0 2z" fill="#acdd43"/></g><g><path d="m36.085 35.209c1.287 0 1.289-2 0-2-1.287 0-1.289 2 0 2z" fill="#acdd43"/></g></g><g><g><path d="m34.638 40.996c1.287 0 1.289-2 0-2-1.287 0-1.289 2 0 2z" fill="#c1e237"/></g><g><path d="m18.383 44.145c1.287 0 1.289-2 0-2-1.287 0-1.289 2 0 2z" fill="#c1e237"/></g><g><path d="m47.149 35.209c1.287 0 1.289-2 0-2-1.287 0-1.289 2 0 2z" fill="#c1e237"/></g><g><path d="m51.064 49.592c1.287 0 1.289-2 0-2-1.287 0-1.289 2 0 2z" fill="#c1e237"/></g><g><path d="m27.83 34.953c1.287 0 1.289-2 0-2-1.287 0-1.289 2 0 2z" fill="#c1e237"/></g></g></svg>