<svg id="Capa_1" enable-background="new 0 0 510 510" height="512" viewBox="0 0 510 510" width="512" xmlns="http://www.w3.org/2000/svg" xmlns:xlink="http://www.w3.org/1999/xlink"><linearGradient id="lg1"><stop offset="0" stop-color="#8bc727"/><stop offset="1" stop-color="#017b4e"/></linearGradient><linearGradient id="SVGID_1_" gradientTransform="matrix(-1 .023 .023 1 793.655 -22.525)" gradientUnits="userSpaceOnUse" x1="332.778" x2="371.118" xlink:href="#lg1" y1="53.483" y2="74.127"/><linearGradient id="lg2"><stop offset="0" stop-color="#026841" stop-opacity="0"/><stop offset=".2377" stop-color="#0a6644" stop-opacity=".238"/><stop offset=".6075" stop-color="#20614d" stop-opacity=".608"/><stop offset="1" stop-color="#3e5959"/></linearGradient><linearGradient id="SVGID_00000145763898854211451960000004326217216878495146_" gradientTransform="matrix(-1 .023 .023 1 793.655 -22.525)" gradientUnits="userSpaceOnUse" x1="342.971" x2="345.036" xlink:href="#lg2" y1="60.597" y2="73.426"/><linearGradient id="SVGID_00000003062992516765736110000016427868583682633104_" gradientTransform="matrix(-1 .023 .023 1 793.655 -22.525)" gradientUnits="userSpaceOnUse" x1="330.619" x2="357.899" xlink:href="#lg1" y1="76.058" y2="94.195"/><linearGradient id="SVGID_00000124843211660858063030000017987528940209173422_" gradientTransform="matrix(-.988 -.158 -.158 .988 831.265 36.882)" gradientUnits="userSpaceOnUse" x1="529.535" x2="459.535" xlink:href="#lg1" y1="331.437" y2="387.437"/><linearGradient id="SVGID_00000004524815514634909860000014327176052120617643_" gradientUnits="userSpaceOnUse" x1="331.119" x2="292.119" xlink:href="#lg2" y1="260.748" y2="309.748"/><linearGradient id="SVGID_00000003102615783721605130000006533177265648892589_" gradientTransform="matrix(-1 .023 .023 1 793.655 -22.525)" gradientUnits="userSpaceOnUse" x1="617.556" x2="612.248" xlink:href="#lg2" y1="409.598" y2="470.643"/><linearGradient id="SVGID_00000102505952241157107930000005519812504280790421_" gradientUnits="userSpaceOnUse" x1="158.21" x2="240.21" xlink:href="#lg2" y1="417.805" y2="372.805"/><linearGradient id="SVGID_00000003816694233570629260000005876120436669588382_" gradientTransform="matrix(.984 .181 -.181 .984 46.518 -52.723)" gradientUnits="userSpaceOnUse" x1="111.774" x2="150.113" xlink:href="#lg1" y1="45.029" y2="65.673"/><linearGradient id="SVGID_00000154419625910771640200000011206071696319067312_" gradientTransform="matrix(.984 .181 -.181 .984 46.518 -52.723)" gradientUnits="userSpaceOnUse" x1="121.966" x2="124.031" xlink:href="#lg2" y1="52.143" y2="64.972"/><linearGradient id="SVGID_00000067935288066727730350000006782992529084405173_" gradientTransform="matrix(.984 .181 -.181 .984 46.518 -52.723)" gradientUnits="userSpaceOnUse" x1="109.614" x2="136.895" xlink:href="#lg1" y1="67.603" y2="85.741"/><linearGradient id="SVGID_00000042694616746603389210000009974775993877896853_" gradientUnits="userSpaceOnUse" x1="313.708" x2="243.708" xlink:href="#lg1" y1="283.135" y2="339.135"/><linearGradient id="SVGID_00000100346197674772066670000013517151341635158405_" gradientUnits="userSpaceOnUse" x1="343.529" x2="343.529" xlink:href="#lg2" y1="316" y2="391"/><linearGradient id="SVGID_00000144331921963503337290000000129229928847886480_" gradientTransform="matrix(.984 .181 -.181 .984 46.518 -52.723)" gradientUnits="userSpaceOnUse" x1="396.552" x2="391.243" xlink:href="#lg2" y1="401.143" y2="462.189"/><linearGradient id="SVGID_00000109019341157943186390000001760367744750254012_" gradientUnits="userSpaceOnUse" x1="14.692" x2="58.026" xlink:href="#lg1" y1="15.381" y2="38.715"/><linearGradient id="SVGID_00000083069127112780905940000006145034575604359829_" gradientUnits="userSpaceOnUse" x1="26.213" x2="28.546" xlink:href="#lg2" y1="23.422" y2="37.922"/><linearGradient id="SVGID_00000070089568225044859300000017455975440727265211_" gradientUnits="userSpaceOnUse" x1="12.252" x2="43.085" xlink:href="#lg1" y1="40.896" y2="61.396"/><linearGradient id="SVGID_00000134950709551848012810000005103380545041054398_" gradientUnits="userSpaceOnUse" x1="247.163" x2="188.163" xlink:href="#lg1" y1="298.246" y2="406.246"/><linearGradient id="SVGID_00000040535769908264470920000012926978803444883385_" gradientUnits="userSpaceOnUse" x1="336.561" x2="330.562" xlink:href="#lg2" y1="417.878" y2="486.875"/><linearGradient id="lg3"><stop offset="0" stop-color="#bbec6c"/><stop offset="1" stop-color="#81b823"/></linearGradient><linearGradient id="SVGID_00000156558634523502097230000003411538015869532570_" gradientTransform="matrix(.707 -.707 .707 .707 -1491.078 410.311)" gradientUnits="userSpaceOnUse" x1="1175.301" x2="1199.752" xlink:href="#lg3" y1="1189.707" y2="1231.21"/><linearGradient id="lg4"><stop offset="0" stop-color="#47a920" stop-opacity="0"/><stop offset=".242" stop-color="#459a2a" stop-opacity=".242"/><stop offset=".7001" stop-color="#417545" stop-opacity=".7"/><stop offset="1" stop-color="#3e5959"/></linearGradient><linearGradient id="SVGID_00000156583898115190224510000009921213500708398749_" gradientTransform="matrix(.707 -.707 .707 .707 -1491.078 410.311)" gradientUnits="userSpaceOnUse" x1="1185.517" x2="1185.517" xlink:href="#lg4" y1="1213.629" y2="1238.726"/><linearGradient id="SVGID_00000025416075395136513750000017017262098793143439_" gradientUnits="userSpaceOnUse" x1="187.079" x2="215.309" xlink:href="#lg3" y1="456.718" y2="504.635"/><linearGradient id="SVGID_00000067938387226276246320000004638221389285271466_" gradientUnits="userSpaceOnUse" x1="195.314" x2="156.842" xlink:href="#lg4" y1="481.987" y2="484.449"/><linearGradient id="SVGID_00000156547816250430152920000015892616890637472403_" gradientUnits="userSpaceOnUse" x1="198.874" x2="198.874" xlink:href="#lg4" y1="484.337" y2="513.312"/><linearGradient id="SVGID_00000005984291894796067990000000301070261209992104_" gradientTransform="matrix(.707 -.707 .707 .707 -1491.078 410.311)" gradientUnits="userSpaceOnUse" x1="1099.618" x2="1127.847" xlink:href="#lg3" y1="1171.031" y2="1218.947"/><linearGradient id="SVGID_00000064322542258667015780000002604374140936542623_" gradientTransform="matrix(.707 -.707 .707 .707 -1491.078 410.311)" gradientUnits="userSpaceOnUse" x1="1111.413" x2="1111.413" xlink:href="#lg4" y1="1198.649" y2="1227.625"/><g><g><g><path d="m450.048 25.606.209-.043c6.086-1.268 11.965 3.114 12.342 9.319.678 11.142-5.522 23.27-12.94 31.403-2.278 2.498-6.446.408-5.8-2.91 1.631-8.37 1.187-16.247-1.498-24.614-1.858-5.791 1.734-11.914 7.687-13.155z" fill="url(#SVGID_1_)"/><path d="m443.442 42.618c1.686 6.962 1.796 13.684.417 20.757-.647 3.318 3.521 5.408 5.8 2.91 5.33-5.844 10.016-13.751 11.988-21.872z" fill="url(#SVGID_00000145763898854211451960000004326217216878495146_)"/></g><path d="m446.062 54.333 9.472 2.897c6.961 2.129 10.878 9.499 8.749 16.46l-5.541 18.113-34.681-10.609 5.541-18.113c2.129-6.96 9.498-10.877 16.46-8.748z" fill="url(#SVGID_00000003062992516765736110000016427868583682633104_)"/><path d="m46.168 472.336 22.249-16.681c3.923-2.941 6.879-6.931 8.836-11.426.009-.021.018-.041.027-.062.352-.803.702-1.607 1.051-2.411 5.309-12.238 14.666-22.309 26.526-28.416 139.925-72.047 248.789-187.647 313.026-331.222 5.161-11.534 18.421-17.05 30.275-12.674.148.055.297.11.445.164 12.617 4.642 19.019 18.717 14.136 31.243-62.127 159.355-175.163 290.572-323.204 376.23-13.073 7.564-28.644 9.504-43.245 5.641-.185-.049-.37-.098-.555-.147-1.982-.526-3.851-1.248-5.594-2.139-5.654-2.89-11.879-4.484-18.225-4.277l-24.126.789c-2.505.081-3.627-3.109-1.622-4.612z" fill="url(#SVGID_00000124843211660858063030000017987528940209173422_)"/><path d="m316.932 335.065c51.216-55.711 93.804-119.133 126.299-188.656h-58.161c-41.845 72.517-96.041 136.212-160.463 188.656z" fill="url(#SVGID_00000004524815514634909860000014327176052120617643_)"/><path d="m139.534 477.08c-13.073 7.564-28.644 9.504-43.245 5.641-.185-.049-.37-.098-.555-.147-1.982-.526-3.851-1.248-5.594-2.139-5.654-2.89-11.879-4.484-18.225-4.277l-24.126.789c-2.504.082-3.626-3.109-1.621-4.612l22.249-16.681c3.923-2.941 6.879-6.931 8.836-11.426.009-.021.018-.041.027-.062.352-.803.702-1.607 1.051-2.411 5.309-12.238 14.666-22.309 26.526-28.416 46.817-24.106 90.15-53.094 129.504-86.367l91.805-2.147c-53.048 59.9-115.833 111.291-186.632 152.255z" fill="url(#SVGID_00000003102615783721605130000006533177265648892589_)"/><path d="m139.534 477.08c-13.073 7.564-28.644 9.504-43.245 5.641-.185-.049-.37-.098-.555-.147-1.982-.526-3.851-1.248-5.594-2.139-5.654-2.89-11.879-4.484-18.225-4.277l-24.126.789c-2.504.082-3.626-3.109-1.621-4.612l22.249-16.681c3.923-2.941 6.879-6.931 8.836-11.426.009-.021.018-.041.027-.062.352-.803.702-1.607 1.051-2.411 5.309-12.238 14.666-22.309 26.526-28.416 46.817-24.106 90.15-53.094 129.504-86.367l91.805-2.147c-53.048 59.9-115.833 111.291-186.632 152.255z" fill="url(#SVGID_00000102505952241157107930000005519812504280790421_)"/></g><g><g><path d="m162.387.755-.199-.076c-5.809-2.213-12.307 1.186-13.659 7.253-2.428 10.895 1.778 23.85 7.819 33.052 1.855 2.826 6.301 1.421 6.186-1.958-.289-8.522 1.394-16.231 5.366-24.069 2.75-5.424.17-12.037-5.513-14.202z" fill="url(#SVGID_00000003816694233570629260000005876120436669588382_)"/><path d="m166.225 18.596c-2.764 6.609-3.934 13.229-3.689 20.43.115 3.379-4.331 4.784-6.186 1.958-4.341-6.612-7.719-15.16-8.385-23.491z" fill="url(#SVGID_00000154419625910771640200000011206071696319067312_)"/></g><path d="m161.788 29.751-9.811 1.365c-7.21 1.004-12.242 7.662-11.238 14.872l2.611 18.761 35.921-5-2.611-18.759c-1.003-7.211-7.662-12.242-14.872-11.239z" fill="url(#SVGID_00000067935288066727730350000006782992529084405173_)"/><path d="m490.666 505.651-19.336-19.985c-3.409-3.524-5.698-7.93-6.921-12.678-.006-.022-.011-.044-.017-.065-.221-.848-.44-1.697-.658-2.547-3.31-12.923-10.959-24.344-21.707-32.247-126.794-93.237-216.04-224.575-256.801-376.492-3.275-12.204-15.498-19.744-27.894-17.295-.155.031-.31.061-.466.092-13.191 2.592-21.736 15.479-18.891 28.619 36.187 167.166 127.086 314.585 259.746 422.543 11.714 9.533 26.784 13.908 41.811 12.399.19-.019.381-.038.571-.058 2.04-.206 4-.624 5.862-1.229 6.039-1.961 12.438-2.552 18.672-1.345l23.699 4.588c2.461.474 4.072-2.499 2.33-4.3z" fill="url(#SVGID_00000042694616746603389210000009974775993877896853_)"/><path d="m397.722 495.594c11.714 9.533 26.784 13.908 41.811 12.399.19-.019.381-.038.571-.058 2.04-.206 4-.625 5.862-1.229 6.039-1.961 12.438-2.552 18.672-1.345l23.699 4.588c2.46.476 4.071-2.497 2.329-4.298l-19.335-19.985c-3.409-3.524-5.698-7.93-6.921-12.678-.005-.022-.011-.044-.017-.065-.22-.848-.44-1.697-.657-2.547-3.31-12.923-10.959-24.344-21.707-32.247-73.581-54.107-134.512-121.047-180.666-197.392h-65.701c47.38 97.993 115.909 184.748 202.06 254.857z" fill="url(#SVGID_00000100346197674772066670000013517151341635158405_)"/><path d="m397.722 495.594c11.714 9.533 26.784 13.908 41.811 12.399.19-.019.381-.038.571-.058 2.04-.206 4-.624 5.862-1.229 6.039-1.961 12.438-2.552 18.672-1.345l23.699 4.588c2.46.476 4.071-2.497 2.329-4.298l-19.336-19.985c-3.409-3.524-5.698-7.93-6.921-12.678-.006-.022-.011-.044-.017-.065-.221-.848-.44-1.697-.658-2.547-3.31-12.923-10.959-24.344-21.707-32.247-42.423-31.195-80.636-66.662-114.242-105.732l-90.314-16.615c42.925 67.523 96.808 128.183 160.251 179.812z" fill="url(#SVGID_00000144331921963503337290000000129229928847886480_)"/></g><g><g><path d="m28.097.239-.237-.044c-6.91-1.272-13.437 3.835-13.7 10.856-.471 12.608 6.854 26.148 15.451 35.141 2.64 2.762 7.295.291 6.476-3.441-2.065-9.414-1.77-18.327 1.043-27.852 1.947-6.592-2.273-13.416-9.033-14.66z" fill="url(#SVGID_00000109019341157943186390000001760367744750254012_)"/><path d="m36.011 19.286c-1.721 7.911-1.668 15.51.077 23.465.818 3.732-3.836 6.203-6.476 3.441-6.177-6.462-11.681-15.273-14.124-24.397z" fill="url(#SVGID_00000083069127112780905940000006145034575604359829_)"/></g><path d="m33.36 32.593-10.626 3.524c-7.81 2.59-12.041 11.021-9.451 18.83l6.739 20.32 38.908-12.902-6.739-20.32c-2.59-7.81-11.021-12.042-18.831-9.452z" fill="url(#SVGID_00000070089568225044859300000017455975440727265211_)"/><path d="m496.259 494.344-25.58-18.261c-4.51-3.22-7.956-7.649-10.286-12.677-.011-.023-.021-.046-.032-.069-.419-.898-.836-1.797-1.252-2.697-6.322-13.688-17.161-24.82-30.724-31.407-160.01-77.712-286.074-205.455-362.451-365.99-6.136-12.897-21.265-18.779-34.544-13.521-.166.066-.332.132-.499.197-14.131 5.579-20.994 21.652-15.145 35.675 74.41 178.42 205.6 323.7 375.141 416.577 14.971 8.201 32.617 9.982 49.013 5.232.208-.06.415-.12.623-.181 2.225-.646 4.318-1.512 6.265-2.565 6.312-3.415 13.304-5.38 20.481-5.314l27.282.254c2.83.027 4.013-3.608 1.708-5.253z" fill="url(#SVGID_00000134950709551848012810000005103380545041054398_)"/><path d="m390.887 502.172c14.971 8.201 32.617 9.982 49.013 5.232.208-.06.415-.12.623-.181 2.226-.646 4.318-1.512 6.265-2.565 6.312-3.415 13.304-5.38 20.48-5.314l27.282.254c2.832.026 4.015-3.608 1.71-5.254l-25.58-18.261c-4.51-3.22-7.956-7.649-10.286-12.677-.011-.023-.021-.046-.032-.069-.419-.898-.836-1.797-1.252-2.697-6.322-13.688-17.161-24.82-30.724-31.407-53.537-26.001-103.266-57.611-148.613-94.168h-103.79c61.522 66.28 133.823 122.69 214.904 167.107z" fill="url(#SVGID_00000040535769908264470920000012926978803444883385_)"/></g><g><g><path d="m223.13 403.127c11.251 11.251 10.339 30.404-2.037 42.78s-31.529 13.288-42.78 2.037-10.339-30.404 2.037-42.78c12.375-12.376 31.529-13.288 42.78-2.037z" fill="url(#SVGID_00000156558634523502097230000003411538015869532570_)"/><path d="m223.13 403.127c11.251 11.251 10.339 30.404-2.037 42.78s-31.529 13.288-42.78 2.037z" fill="url(#SVGID_00000156583898115190224510000009921213500708398749_)"/></g><g><ellipse cx="198.874" cy="476.739" fill="url(#SVGID_00000025416075395136513750000017017262098793143439_)" rx="36.587" ry="33.261"/><path d="m170.986 455.22c-5.422 5.801-8.7 13.31-8.7 21.519 0 18.37 16.381 33.261 36.587 33.261 7.779 0 14.986-2.214 20.915-5.977z" fill="url(#SVGID_00000067938387226276246320000004638221389285271466_)"/><path d="m235.462 476.739c0 18.37-16.381 33.261-36.587 33.261s-36.587-14.892-36.587-33.261z" fill="url(#SVGID_00000156547816250430152920000015892616890637472403_)"/></g><g><path d="m162.882 440.753c12.989 12.989 11.936 35.102-2.352 49.391-14.288 14.288-36.401 15.341-49.39 2.352s-11.936-35.102 2.352-49.391 36.4-15.342 49.39-2.352z" fill="url(#SVGID_00000005984291894796067990000000301070261209992104_)"/><path d="m162.882 440.753c12.989 12.989 11.936 35.102-2.352 49.391-14.288 14.288-36.401 15.341-49.39 2.352z" fill="url(#SVGID_00000064322542258667015780000002604374140936542623_)"/></g></g></g></svg>