<svg id="color" height="512" viewBox="0 0 256 256" width="512" xmlns="http://www.w3.org/2000/svg"><path d="m177.0177 90.5229c1.62 8.4928-13.1474 19.5615-33.2358 23.3917s-37.8923-1.0281-39.5114-9.5208 12.23-24.3719 32.3184-28.2031 38.8094 5.8393 40.4288 14.3322z" fill="#8b8f21"/><path d="m160.0144 139.0158c0 8.1034 16.5782 15.7013 37.0289 15.7013s37.0289-7.598 37.0289-15.7013-16.5782-20.29-37.0289-20.29-37.0289 12.1877-37.0289 20.29z" fill="#a4aa24"/><path d="m196.7473 146.5037a70.8017 70.8017 0 0 1 -8.2124-.47l.64-5.4624a65.3866 65.3866 0 0 0 7.5722.4324c11.14 0 19.5548-3.2114 23.3756-5.9614l3.213 4.4645c-5.9967 4.3156-16.1848 6.9969-26.5884 6.9969z" fill="#ccc76d"/><ellipse cx="166.094" cy="128.498" fill="#ccc76d" rx="35.438" ry="24.859" transform="matrix(.79 -.614 .614 .79 -43.903 128.95)"/><path d="m155.5132 151.0616c-5.14 0-9.2939-1.7628-11.8892-5.1025-4.1475-5.3368-3.29-13.7243 2.2389-21.89l4.5542 3.083c-4.085 6.0339-5.0467 12.0909-2.45 15.4317 1.8664 2.402 5.4221 3.4031 10.01 2.8139 5.1125-.6542 10.7032-3.1716 15.7426-7.0877a37.944 37.944 0 0 0 7.4038-7.5464l4.443 3.242a43.4456 43.4456 0 0 1 -8.4721 8.6474c-5.8043 4.5107-12.3457 7.4229-18.4191 8.2a24.8867 24.8867 0 0 1 -3.1621.2086z" fill="#ddd685"/><path d="m123.8952 97.3045c-.7971 8.0642-18.0418 13.9944-38.3934 11.9834s-36.1024-11.2009-35.3058-19.2645 18.4929-18.5615 38.844-16.551 35.6517 15.7684 34.8552 23.8321z" fill="#a4aa24"/><path d="m93.6221 101.495c-2.298 0-4.6527-.1176-7.0179-.3507-10.3525-1.0227-20.2275-4.6927-25.7716-9.5783l3.6362-4.126c3.5326 3.1126 11.5909 7.136 22.6757 8.2312a65.8357 65.8357 0 0 0 7.5783.3142l.0993 5.499q-.5969.0111-1.2.0106z" fill="#ccc76d"/><path d="m38.7058 132.4765c2.771 7.6146 20.9481 9.0841 40.1656 2.0915 19.2175-6.9948 32.1981-19.8032 29.4269-27.4173s-22.5173-13.3977-41.735-6.4045-30.6289 24.1157-27.8575 31.7303z" fill="#8b8f21"/><path d="m67.9069 129.3172-1.267-5.3517a65.3691 65.3691 0 0 0 7.2631-2.1839c10.4677-3.8086 17.2774-9.7045 19.9284-13.5959l4.5455 3.097c-4.1607 6.1069-12.8176 12.11-22.593 15.667a70.7558 70.7558 0 0 1 -7.877 2.3675z" fill="#b7b058"/><path d="m140.8536 145.2817c0 8.1034-16.579 15.7008-37.0289 15.7008s-37.0294-7.5974-37.0294-15.7008 16.5787-20.29 37.0294-20.29 37.0289 12.1878 37.0289 20.29z" fill="#a4aa24"/><path d="m92.8134 156.0062c0 8.1034-16.5784 15.7013-37.0286 15.7013s-37.0291-7.598-37.0291-15.7013 16.5782-20.29 37.0291-20.29 37.0286 12.1877 37.0286 20.29z" fill="#b7b058"/><path d="m56.0805 163.4935c-10.4022 0-20.59-2.6813-26.5883-6.9974l3.2124-4.4645c3.8218 2.75 12.2372 5.9619 23.3758 5.9619a65.3739 65.3739 0 0 0 7.5719-.4324l.64 5.4624a70.8 70.8 0 0 1 -8.2118.47z" fill="#ccc76d"/><path d="m174.6872 163.7008c0 8.1034-16.5787 15.7007-37.0289 15.7007s-37.0291-7.5974-37.0291-15.7007 16.5782-20.29 37.0291-20.29 37.0289 12.1877 37.0289 20.29z" fill="#8b8f21"/><path d="m137.9543 171.1881c-10.4025 0-20.5906-2.6813-26.5883-6.9969l3.2124-4.4645c3.8216 2.75 12.2367 5.9613 23.3758 5.9613a65.3744 65.3744 0 0 0 7.5722-.4324l.64 5.4624a70.8131 70.8131 0 0 1 -8.2121.4701z" fill="#b7b058"/><path d="m115.0119 175.2379c0 8.1028-16.5787 15.7-37.0294 15.7s-37.0286-7.5974-37.0286-15.7 16.5784-20.29 37.0286-20.29 37.0294 12.1866 37.0294 20.29z" fill="#ccc76d"/><path d="m78.2787 182.7247c-10.403 0-20.5912-2.6813-26.5885-6.9974l3.213-4.4645c3.8213 2.7506 12.2359 5.9619 23.3756 5.9619a65.4848 65.4848 0 0 0 7.5727-.4313l.6386 5.4624a70.998 70.998 0 0 1 -8.2114.4689z" fill="#ddd685"/></svg>