<svg id="Flat" height="512" viewBox="0 0 64 64" width="512" xmlns="http://www.w3.org/2000/svg"><g><path d="m.999 60c-.183 0-.367-.05-.533-.154-.467-.295-.606-.913-.312-1.379.405-.642 1.136-1.564 2.31-2.311.407-.259.84-.477 1.32-.667.516-.201 1.096.049 1.298.563s-.05 1.094-.563 1.297c-.362.143-.684.304-.982.495-.86.547-1.395 1.221-1.69 1.689-.192.302-.516.467-.848.467z" fill="#d8c67d"/></g><g><path d="m.999 64c-.437 0-.838-.289-.962-.73-.149-.532.161-1.083.692-1.233 1.139-.319 2.047-.825 2.702-1.502.314-.324.514-.615.724-.923.182-.266.369-.542.622-.823.372-.411 1.003-.444 1.412-.075.411.369.445 1.001.076 1.412-.178.198-.313.401-.458.613-.237.348-.507.743-.94 1.188-.902.934-2.113 1.619-3.597 2.036-.09.025-.181.037-.271.037z" fill="#d8c67d"/></g><g><path d="m6.055 64c-.391 0-.762-.23-.922-.613-.214-.509.025-1.096.535-1.309 1.093-.459 1.426-.905 1.886-1.523.33-.442.956-.534 1.399-.204.442.33.534.957.204 1.399-.524.704-1.119 1.501-2.716 2.171-.126.054-.256.079-.386.079z" fill="#d8c67d"/></g><path d="m31.9 8.46c2.06 7.31 1.7 15.26-.97 22.36-1.2 1.7-2.52 3.32-3.95 4.86 3.35-8.27 3.7-17.76.89-26.25 1.35-.32 2.69-.64 4.03-.97z" fill="#bedc88"/><path d="m44.34 11.26c.02.69.01 1.42-.04 2.18-.18 2.76-.76 5.05-1.38 6.87-.4 1.19-.81 2.17-1.15 2.95-.63 1.46-1.34 2.82-2.09 4.1 0 .01 0 .01-.01.01-1.52.95-2.55 1.74-2.83 1.96-3.1 2.42-6.95 5.64-11.17 9.75-.09-.67-.09-1.37 0-2.04.45-.45.88-.9 1.31-1.36 1.43-1.54 2.75-3.16 3.95-4.86.44-.61.86-1.23 1.26-1.86 4.85-7.59 7.44-16.53 7.38-25.47.36-.08.99-.18 1.74 0 1.36.33 2.06 1.36 2.23 1.62.39 1.53.76 3.64.8 6.15z" fill="#609000"/><path d="m60.21 9.99c-.25 1.1-.13 2.28.32 3.32-2.97 1.41-5.75 3.21-8.25 5.34-1.75 1.47-3.36 3.11-4.81 4.88-3.07 1.04-5.84 2.59-7.79 3.83.75-1.28 1.46-2.64 2.09-4.1.34-.78.75-1.76 1.15-2.95h.01c1.38-1.2 2.95-2.44 4.62-3.62 4.11-2.95 8.79-5.61 12.66-6.7z" fill="#bedc88"/><path d="m60.7 19.17c-.47.8-.94 1.6-1.42 2.4-2.11-.16-4.27.25-6.19 1.13-1.06-.28-2.24-.07-3.07.11-.87.19-1.72.44-2.55.72 1.45-1.77 3.06-3.41 4.81-4.88 2.81-.17 5.65.01 8.42.52z" fill="#609000"/><path d="m49.65 3.15c.23 1.5.35 3.24.2 5.15-.25 3.25-1.17 6.06-2.31 8.38l.01.01c-1.67 1.18-3.24 2.42-4.62 3.62h-.01c.62-1.82 1.2-4.11 1.38-6.87.05-.76.06-1.49.04-2.18 1.3-3.28 2.13-6.74 2.44-10.26.96.72 1.92 1.43 2.87 2.15z" fill="#92c538"/><path d="m51.69 27.88c-6.81 2.17-11.61 5.09-14.6 7.23-4.4 3.15-9.31 7.77-12.84 12.11-.98-2.65-1.19-5.55.67-7.4.25-.25.5-.5.75-.74 4.22-4.11 8.07-7.33 11.17-9.75.28-.22 1.31-1.01 2.83-1.96.01 0 .01 0 .01-.01 1.95-1.24 4.72-2.79 7.79-3.83.83-.28 1.68-.53 2.55-.72.83-.18 2.01-.39 3.07-.11.39.11.77.28 1.11.55 1.24.98 1.36 2.79 1.24 4.35-.39 5.02-2.24 9.93-5.27 13.95-1.51-.74-3.15-1.2-4.82-1.39 1.51-1.5 3.88-4.27 5.35-8.4.49-1.39.8-2.7.99-3.88z" fill="#92c538"/><path d="m25.67 39.08c-.25.24-.5.49-.75.74-1.86 1.85-1.65 4.75-.67 7.4-1.98 2.42-3.53 4.76-4.34 6.69-.15.36-1.16 2.42-3.05 4.59-1.21 1.39-2.81 2.54-4.65 2.85-1.86.31-3.33-.11-3.7-.23-.52-.18-1.74-.64-2.71-1.65-1.98-2.06-1.99-5.49-1.01-7.69 1.46-3.26 5.41-4.27 7.21-5.13 5.08-2.4 9.72-5.67 13.67-9.61-.09.67-.09 1.37 0 2.04z" fill="#fff9dc"/><path d="m23.59 42.632c-2.161 1.911-4.561 4.256-6.006 6.359-2.019 2.937-2.392 6.078-5.738 8.11-2.116 1.285-4.302 1.858-6.426 1.884.124.164.236.335.38.485.97 1.01 2.19 1.47 2.71 1.65.37.12 1.84.54 3.7.23 1.84-.31 3.44-1.46 4.65-2.85 1.89-2.17 2.9-4.23 3.05-4.59.81-1.93 2.36-4.27 4.34-6.69-.566-1.531-.859-3.14-.66-4.588z" fill="#e5dabc"/></svg>