<svg id="Слой_1" height="512" viewBox="0 0 128 128" width="512" xmlns="http://www.w3.org/2000/svg" xmlns:xlink="http://www.w3.org/1999/xlink" data-name="Слой 1"><linearGradient id="linear-gradient" gradientUnits="userSpaceOnUse" x1="46" x2="46" y1="24" y2="112"><stop offset="0" stop-color="#c0e6f6"/><stop offset=".2" stop-color="#bae2f5"/><stop offset=".48" stop-color="#a9d8f2"/><stop offset=".79" stop-color="#8dc7ec"/><stop offset="1" stop-color="#76b9e8"/></linearGradient><linearGradient id="linear-gradient-2" gradientUnits="userSpaceOnUse" x1="65.74" x2="46.17" y1="45.87" y2="26.31"><stop offset="0" stop-color="#e0e0e0"/><stop offset=".16" stop-color="#dbdadb"/><stop offset=".37" stop-color="#ccc9cc"/><stop offset=".61" stop-color="#b5adb5"/><stop offset=".87" stop-color="#948694"/><stop offset="1" stop-color="#806f80"/></linearGradient><linearGradient id="linear-gradient-3" gradientUnits="userSpaceOnUse" x1="46" x2="46" y1="108" y2="52"><stop offset="0" stop-color="#c69a81"/><stop offset=".37" stop-color="#c99d82"/><stop offset=".64" stop-color="#d2a684"/><stop offset=".88" stop-color="#e2b487"/><stop offset="1" stop-color="#edbf8a"/></linearGradient><linearGradient id="linear-gradient-4" gradientUnits="userSpaceOnUse" x1="67.01" x2="89.97" y1="65.48" y2="105.25"><stop offset="0" stop-color="#f7f3d9"/><stop offset=".58" stop-color="#d8a972"/><stop offset=".74" stop-color="#d2a477"/><stop offset=".96" stop-color="#c19585"/><stop offset="1" stop-color="#bd9288"/></linearGradient><linearGradient id="linear-gradient-5" gradientUnits="userSpaceOnUse" x1="80.98" x2="108.35" y1="85.96" y2="113.32"><stop offset="0" stop-color="#cc8a6e"/><stop offset=".34" stop-color="#c9856d"/><stop offset=".73" stop-color="#bf786a"/><stop offset="1" stop-color="#b56a67"/></linearGradient><linearGradient id="linear-gradient-6" gradientUnits="userSpaceOnUse" x1="103.34" x2="103.34" y1="103.31" y2="77.83"><stop offset="0" stop-color="#d6a18b"/><stop offset="1" stop-color="#ebc0a7"/></linearGradient><linearGradient id="linear-gradient-7" gradientUnits="userSpaceOnUse" x1="60.57" x2="49.76" y1="43.37" y2="32.56"><stop offset="0" stop-color="#d9d9d9"/><stop offset=".33" stop-color="#d6d3d8"/><stop offset=".77" stop-color="#ccc2d6"/><stop offset="1" stop-color="#c6b6d4"/></linearGradient><path d="m73 40.24c4.38-3.15 7-5.5 7-9.63v-4.61a2 2 0 0 0 -2-2h-64a2 2 0 0 0 -2 2v4.53c0 4.66 2.33 6.91 6.29 9.4a1.86 1.86 0 0 1 .85 1.36 2 2 0 0 1 -.55 1.59c-2.83 2.86-6.59 5.28-6.59 10.51v56.61a2 2 0 0 0 2 2h64a2 2 0 0 0 2-2v-56.61c0-4.54-4.88-7.55-7.5-10.25l-.12-.14a1.36 1.36 0 0 1 -.38-1.1 2.43 2.43 0 0 1 1-1.66z" fill="url(#linear-gradient)"/><path d="m37.74 66.33 29.65-61a3.35 3.35 0 1 1 6 3l-28.87 58.76z" fill="url(#linear-gradient-2)"/><rect fill="url(#linear-gradient-3)" height="56" rx="1" width="60" x="16" y="52"/><path d="m80.61 57.66a22.6 22.6 0 0 0 -8.94 10.74 19.8 19.8 0 0 1 -11.59 11.38 22.13 22.13 0 0 0 -5.53 3c-9 6.79-11.25 18.94-5.06 27.15s18.51 9.41 27.51 2.62a21.67 21.67 0 0 0 7.13-9.26 21.12 21.12 0 0 1 12.19-12.06 24.63 24.63 0 0 0 4.35-2.23c9.78-6.26 13.22-18.35 7.68-27s-17.95-10.59-27.74-4.34z" fill="url(#linear-gradient-4)"/><g fill="#aa866d"><path d="m69.31 89.55a1.16 1.16 0 0 1 1.58.43 1.09 1.09 0 0 1 -.22 1.43c-1.64 1.23-2.17 3.31-2.52 5.14a2.11 2.11 0 0 1 -2.48 1.7 2.14 2.14 0 0 1 -1.67-2.48c.17-1.07 2.38-4.56 5.31-6.22z"/><path d="m75.52 83.22a9.5 9.5 0 0 0 3.54-4.63 1.94 1.94 0 0 1 2.34-1.43 2 2 0 0 1 .88 3.3 44.59 44.59 0 0 0 -4 5.25 1.9 1.9 0 1 1 -2.73-2.52z"/><path d="m88 69.35a.8.8 0 0 1 .75 1.38 4.18 4.18 0 0 0 -1.45 1.7 1.26 1.26 0 0 1 -1.61.77 1.27 1.27 0 0 1 -.54-2 5.82 5.82 0 0 1 2.85-1.85z"/></g><path d="m112.1 109.57c-7 7-16.63 9.54-29 5-.74-.28-2.26.06-2.83-.51s-.33-2.22-.64-3c-4.94-12.73-1.83-21.93 5.11-28.86 7.55-7.56 16.77-4.52 24.32 3s10.6 16.8 3.04 24.37z" fill="url(#linear-gradient-5)"/><path d="m90.21 78.58c.37 7.09 4.14 11.77 7.67 15.3 5.86 5.86 9.52 7.07 18.1 9.43 1.76-6-1.35-12.51-6.92-18.07-5.8-5.81-12.59-8.94-18.85-6.66z" fill="url(#linear-gradient-6)"/><path d="m51.93 52 13.76-28h-7.37l-13.61 28z" fill="url(#linear-gradient-7)"/></svg>