<svg id="Layer_3" enable-background="new 0 0 64 64" height="512" viewBox="0 0 64 64" width="512" xmlns="http://www.w3.org/2000/svg"><g><g><g><path d="m17.063 28.109c.249-4.821 1.239-9.58 2.937-14.109l1 1 5-8 3 3 8-7 3 3 6-4 3 2 3-1 1 4 6-4-2 8 2 1-3 5h6l-3 6 3 2-5 7 1 3-1.076.769c-2.399 1.714-4.968 3.168-7.661 4.342l-26.263 7.889z" fill="#52a04f"/><path d="m59 3-6 4-1-4-3 1-3-2-6 4-3-3-8 7-3-3-5 8-1-1c-1.698 4.529-2.688 9.288-2.937 14.109l1.463 4.902 8.139-3.187c13.636-4.722 25.141-14.235 32.335-26.824z" fill="#6db569"/><path d="m33.84 27.905c.957-.469 1.902-.956 2.83-1.473 3.582 1.675 7.542 2.568 11.497 2.568 2.641 0 5.263-.385 7.792-1.144l5.092-1.528.949-1.328-1.08-.72-5.535 1.661c-4.617 1.385-9.624 1.365-14.251.031 6.06-.137 12.133-.805 18.138-2.009l.823-.233-1.095-.73.604-1.208-.8.227c-5.955 1.191-12.042 1.844-18.119 1.957.482-.32.961-.643 1.433-.977h2.448c5.842 0 11.551-1.521 16.623-4.378l.811-1.621h-6l.676-1.126-7.439 1.24c.414-.399.824-.803 1.227-1.214l7.746-2.582.79-1.318-1.265-.633-4.485 1.495c1.787-2.088 3.438-4.306 4.944-6.638l.806-3.224-1.943 1.295c-1.319 2.122-2.766 4.149-4.328 6.074l1.74-4.349-1.469.98-.414-1.656-3.749 9.371c-1.094 1.103-2.234 2.158-3.411 3.17l4.76-14.28-1.186.395-.863-.575-5.602 16.808c-.79.596-1.598 1.168-2.418 1.724l6.743-19.384-.86-.573-1.378.919-7.225 20.77c-.56.337-1.122.671-1.694.99l5.581-19.535-1.284.856-.809-.809-5.935 20.775c-.805.4-1.62.781-2.445 1.145l6.992-23.307-.803-.804-1.416 1.239-7.159 23.864c-.396.154-.796.299-1.196.445l2.935-19.566-1.164 1.018-.879-.879-3.037 20.248-6.845 2.68.574 1.923 7.806-3.057-.003.008 3.692 1.539c5.634 2.348 11.587 3.538 17.692 3.538h8.581c.113-.079.23-.151.343-.232l1.076-.768-.333-1h-9.667c-5.84 0-11.534-1.139-16.923-3.384l-1.732-.722c.622-.244 1.234-.507 1.845-.771 7.249 2.568 14.82 3.877 22.515 3.877h3.629l-.334-1 .714-1h-4.01c-6.767 0-13.437-1.045-19.864-3.095zm12.659-8.308 12.553-2.092c-4.409 2.25-9.278 3.451-14.255 3.487.575-.455 1.143-.919 1.702-1.395z" fill="#40873c"/></g><path d="m34.001 37c-.792-1.474-1.797-2.822-2.972-4l-.029-.029c-2.656-2.649-6.174-4.434-10.065-4.864-10.255-1.133-18.935 6.867-18.935 16.893 0 2.66.263 5.314.784 7.922l.124 1.195c.061.588.092 1.179.092 1.771 0 1.403-.172 2.801-.512 4.162l-.488 1.95 1.951-.488c1.361-.34 2.758-.512 4.161-.512.591 0 1.182.031 1.771.092l1.195.124c2.608.521 5.262.784 7.922.784 4.445 0 8.491-1.706 11.52-4.498" fill="#893b20"/><path d="m30.52 57.502 3.481-20.502c-.792-1.474-1.797-2.822-2.972-4l-.029-.029c-1.482-1.479-3.24-2.674-5.174-3.529-.62-.143-1.248-.264-1.891-.335-10.255-1.133-18.935 6.867-18.935 16.893 0 2.66.263 5.314.784 7.922l.124 1.195c.061.588.092 1.179.092 1.771 0 1.403-.172 2.801-.512 4.162l-.042.167c.882-.139 1.772-.217 2.666-.217.591 0 1.182.031 1.771.092l1.195.124c2.608.521 5.262.784 7.922.784 4.445 0 8.491-1.706 11.52-4.498z" fill="#a34b33"/><path d="m31.029 33-.029-.029c-2.656-2.649-6.174-4.434-10.065-4.864-.653-.072-1.299-.105-1.937-.105l-.17.17c-.53.53-.828 1.25-.828 2 0 1.562 1.266 2.828 2.828 2.828h.172v1c0 1.657 1.343 3 3 3 0 1.657 1.343 3 3 3 0 1.111.604 2.08 1.501 2.599l4.118 2.546 1.382-8.145c-.792-1.475-1.797-2.822-2.972-4z" fill="#f9cb6e"/><path d="m31.029 33-.029-.029c-1.482-1.479-3.24-2.674-5.174-3.529-.62-.143-1.248-.264-1.891-.335-2.026-.224-3.985-.079-5.834.355-.059.231-.101.467-.101.71 0 1.562 1.266 2.828 2.828 2.828h.172v1c0 1.657 1.343 3 3 3 0 1.657 1.343 3 3 3 0 1.111.604 2.08 1.501 2.599l4.118 2.546 1.382-8.145c-.792-1.475-1.797-2.822-2.972-4z" fill="#ffd997"/><path d="m20.999 55.002.001-.002-.713.427c-2.805 1.684-6.015 2.573-9.287 2.573l1.183-.592c3.103-1.551 5.529-4.187 6.817-7.408l-4.211 2.106c-1.177.588-2.474.894-3.789.894 0-1.315.306-2.612.894-3.789l2.106-4.211c-3.221 1.288-5.857 3.714-7.408 6.817l-.592 1.183c0-3.272.889-6.482 2.572-9.287l.428-.713-.002.001c-2.886.962-5.3 2.924-6.839 5.482.129 1.489.331 2.972.625 4.44l.124 1.195c.061.587.092 1.178.092 1.77 0 1.403-.172 2.801-.512 4.162l-.488 1.95 1.951-.488c1.361-.34 2.758-.512 4.161-.512.591 0 1.182.031 1.771.092l1.195.124c1.468.294 2.951.496 4.44.625 2.558-1.539 4.52-3.953 5.481-6.839z" fill="#662a12"/><path d="m11 58 1.183-.592c3.103-1.551 5.529-4.187 6.817-7.408l-4.211 2.106c-1.177.588-2.474.894-3.789.894 0-1.315.306-2.612.894-3.789l2.106-4.211c-3.221 1.288-5.857 3.714-7.408 6.817l-.592 1.183c0-3.272.889-6.482 2.572-9.287l.428-.713-.002.001c-1.455.485-2.79 1.226-3.953 2.167-.014.278-.045.551-.045.832 0 2.66.263 5.314.784 7.922l.124 1.195c.061.588.092 1.179.092 1.771 0 1.403-.172 2.801-.512 4.162l-.042.167c.882-.139 1.772-.217 2.666-.217.591 0 1.182.031 1.771.092l1.195.124c1.468.294 2.951.496 4.44.625 2.558-1.538 4.52-3.952 5.482-6.839v-.002l-.713.427c-2.805 1.684-6.015 2.573-9.287 2.573z" fill="#893b20"/></g><path d="m27 46.902v1.548c0 3.553 1.412 6.961 3.924 9.474 2.61 2.61 6.149 4.076 9.84 4.076 1.37 0 2.623-.774 3.236-2 1.315.658 2.766 1 4.236 1 1.097 0 2.117-.565 2.699-1.496l.885-1.416c1.966-3.145 3.058-6.752 3.17-10.451z" fill="#e7b541"/><path d="m41.476 46.953 3.524 7.047v1.764c0 1.471-.342 2.921-1 4.236 1.315.658 2.766 1 4.236 1 1.097 0 2.117-.565 2.699-1.496l.885-1.416c1.942-3.107 3.031-6.664 3.166-10.316z" fill="#c99735"/><path d="m32 37-3.992 6.387c-.659 1.054-1.008 2.272-1.008 3.515 0 2.512 1.419 4.808 3.666 5.931 1.535.767 3.228 1.167 4.944 1.167h12.233c2.021 0 3.96-.803 5.389-2.232 1.132-1.132 1.768-2.667 1.768-4.268 0-1.601-.636-3.136-1.768-4.268-3.99-3.99-9.402-6.232-15.046-6.232z" fill="#f9cb6e"/><path d="m38.186 37h-5.436l-2.742 4.387c-.659 1.054-1.008 2.272-1.008 3.515 0 2.512 1.419 4.808 3.666 5.931 1.535.767 3.228 1.167 4.944 1.167h12.233c1.511 0 2.975-.449 4.215-1.273.608-.958.942-2.074.942-3.227 0-1.601-.636-3.136-1.768-4.268-3.99-3.99-9.402-6.232-15.046-6.232z" fill="#ffd997"/><path d="m35 40c1.295 4.532 4.088 8.492 7.924 11.231l1.076.769c-.634-4.439-3.194-8.371-6.996-10.748z" fill="#a34b33"/></g></svg>