<svg id="a" height="512" viewBox="0 0 512 512" width="512" xmlns="http://www.w3.org/2000/svg"><path d="m257.63 16c129.63 0 234.71 105.09 234.71 234.71s-105.08 234.72-234.71 234.72-234.72-105.09-234.72-234.72 105.09-234.71 234.72-234.71z" fill="#fb6771"/><path d="m257.63 56.49c107.26 0 194.22 86.96 194.22 194.22s-86.96 194.23-194.22 194.23-194.22-86.96-194.22-194.23 86.95-194.22 194.22-194.22z" fill="#ffd39f"/><g fill="#daaa79"><path d="m279.14 168.19c2.33.62 4.26 2.07 5.51 3.98 1.069 1.645 1.646 3.684 1.51 5.72-.28 4.62 2.83 8.76 7.35 9.78 2.807.648 6.272 1.514 9.11 1.43 12.52 0 23.51-9.5 24.78-22.55 1.04-10.71 3.54-21.23 7.44-31.26-2.05.11-4.1.16-6.15.16-8.7 0-17.37-.96-25.87-2.88-14.64-3.3-28.86 6.98-30.31 21.91-.054.683-.426 3.965-.41 4.59 0 4.25 2.86 8.02 7.04 9.12z"/><path d="m360.47 251.82c-2.98-4.47-5.66-9.14-8.01-13.98-6.55-13.51-23.45-18.21-36.03-10.02l-3.09 2c-2.75 1.79-4.29 4.81-4.29 7.92-.143 2.601 1.74 5.01 1.6 7.61 0 3-1.43 5.91-4.01 7.73-3.78 2.67-5.08 7.68-3.06 11.85l1.61 3.31c4.36 8.97 13.28 14.05 22.47 14.05 4.64 0 9.35-1.29 13.57-4.04 9.02-5.87 18.81-10.48 29.08-13.69-3.57-4.02-6.86-8.28-9.84-12.74z"/><path d="m298.1 309.92c-1.78-2.79-4.82-4.36-7.97-4.36-2.536-.138-4.915 1.675-7.45 1.54-1.05 0-2.09-.17-3.07-.51-4.08-2.74-4.41-3.14-4.71-3.57-2.63-3.81-7.64-5.15-11.82-3.16l-3.33 1.58c-9.07 4.31-14.25 13.29-14.25 22.55 0 4.57 1.26 9.21 3.93 13.39 5.79 9.08 10.31 18.9 13.42 29.21 4.05-3.54 8.35-6.79 12.84-9.74 4.49-2.94 9.19-5.57 14.05-7.88 13.56-6.43 18.41-23.29 10.34-35.94z"/><path d="m243.36 197.11c-2.51-11.86-12.98-19.77-24.38-19.77-2.71 0-5.47.45-8.19 1.39-10.17 3.54-20.78 5.65-31.52 6.29 2.5 4.77 4.67 9.7 6.49 14.75s3.3 10.23 4.41 15.49c3.11 14.68 18.39 23.31 32.57 18.39l3.48-1.21c3.85-1.33 6.35-4.96 6.35-8.92-.351-2.803-.53-5.854 1.18-8.28 1.04-1.66 2.61-3 4.56-3.76 4.32-1.68 6.78-6.24 5.82-10.77z"/><path d="m217.3 294.29c-3.27-1.62-5.25-4.93-5.25-8.45 0-.81.1-1.63.32-2.45 1.19-4.47-1.03-9.15-5.25-11.05-4.179-2.058-9.043-3.87-13.58-3.72-10.57 0-20.52 6.79-23.85 17.64-3.16 10.29-7.71 20.1-13.54 29.15 5.33.79 10.58 1.95 15.73 3.47 5.15 1.51 10.2 3.38 15.11 5.59 13.68 6.16 29.67-1.08 34.07-15.42.48-1.674 1.604-4.548 1.5-6.28 0-3.52-1.97-6.85-5.26-8.48z"/></g><path d="m93.41 250.71c0-102.213 78.96-185.991 179.219-193.649-4.95-.378-9.952-.571-14.999-.571-107.27 0-194.22 86.96-194.22 194.22s86.95 194.23 194.22 194.23c5.047 0 10.049-.193 14.999-.571-100.259-7.658-179.219-91.436-179.219-193.659z" fill="#e5b785"/><path d="m52.91 250.71c0-124.58 97.082-226.482 219.72-234.219-4.961-.313-9.96-.491-15-.491-129.63 0-234.72 105.09-234.72 234.71s105.09 234.72 234.72 234.72c5.04 0 10.039-.178 15-.491-122.638-7.738-219.72-109.64-219.72-234.229z" fill="#db525f"/><g fill="#284268"><path d="m257.629 13c-63.496 0-123.191 24.727-168.09 69.625s-69.625 104.594-69.625 168.09 24.727 123.191 69.625 168.089 104.594 69.625 168.09 69.625 123.19-24.727 168.089-69.625 69.625-104.593 69.625-168.089-24.727-123.191-69.625-168.09c-44.898-44.898-104.593-69.625-168.089-69.625zm163.847 401.562c-43.766 43.765-101.954 67.867-163.847 67.867s-120.082-24.103-163.848-67.867c-43.765-43.766-67.867-101.953-67.867-163.847s24.103-120.082 67.867-163.848c43.766-43.764 101.954-67.867 163.848-67.867s120.081 24.103 163.847 67.867c43.765 43.766 67.867 101.954 67.867 163.848s-24.103 120.081-67.867 163.847z"/><path d="m22.347 366.958c-.733-1.486-2.536-2.096-4.019-1.36-1.485.734-2.095 2.533-1.36 4.019 3.482 7.047 7.325 14.032 11.422 20.762.564.929 1.553 1.44 2.565 1.44.531 0 1.069-.141 1.557-.438 1.416-.861 1.864-2.707 1.003-4.122-4.005-6.58-7.763-13.41-11.168-20.301z"/><path d="m157.294 493.227c-43.057-17.754-80.687-46.792-108.821-83.976-1-1.32-2.882-1.579-4.203-.582-1.321 1-1.581 2.882-.582 4.203 28.78 38.035 67.273 67.74 111.319 85.901.374.154.762.228 1.143.228 1.179 0 2.297-.7 2.774-1.857.632-1.531-.098-3.285-1.63-3.917z"/><path d="m257.629 53.492c-108.749 0-197.223 88.474-197.223 197.223s88.474 197.222 197.223 197.222 197.222-88.474 197.222-197.222-88.474-197.223-197.222-197.223zm0 388.444c-105.44 0-191.223-85.781-191.223-191.222s85.782-191.222 191.223-191.222 191.222 85.782 191.222 191.223-85.781 191.222-191.222 191.222z"/><path d="m228.197 129.925c0-1.657-1.343-3-3-3-68.733 0-124.651 55.918-124.651 124.651 0 1.657 1.343 3 3 3s3-1.343 3-3c0-65.425 53.227-118.651 118.651-118.651 1.657 0 3-1.343 3-3z"/><path d="m369.731 350.778c-28.99 32.154-69.52 49.862-114.121 49.862-1.657 0-3 1.343-3 3s1.343 3 3 3c46.323 0 88.435-18.412 118.578-51.845 33.488-37.143 49.552-88.733 44.073-141.545-.172-1.648-1.647-2.849-3.294-2.675-1.648.171-2.846 1.646-2.675 3.294 5.305 51.124-10.209 101.025-42.562 136.908z"/><path d="m278.374 171.093c2.958.781 4.972 3.564 4.787 6.618-.37 6.12 3.703 11.54 9.686 12.888l3.592.809c2.031.457 4.088.683 6.135.683 5.83 0 11.575-1.826 16.381-5.303 6.492-4.698 10.659-11.968 11.432-19.944 1.011-10.441 3.451-20.692 7.254-30.468.369-.949.231-2.021-.365-2.846s-1.551-1.293-2.589-1.238c-10.469.554-20.971-.34-31.208-2.647-7.813-1.764-16.023-.083-22.518 4.612s-10.663 11.963-11.438 19.938l-.356 3.665c-.592 6.104 3.281 11.669 9.209 13.233zm-3.236-12.653.356-3.665c.608-6.263 3.882-11.97 8.981-15.656 3.771-2.728 8.28-4.159 12.855-4.159 1.61 0 3.229.178 4.826.538 9.305 2.098 18.817 3.09 28.333 2.938-3.117 8.998-5.158 18.339-6.077 27.829-.606 6.264-3.878 11.972-8.977 15.661-5.099 3.688-11.544 5.01-17.68 3.628l-3.592-.809c-3.098-.698-5.207-3.504-5.016-6.673.078-1.293-.059-2.558-.363-3.766 8.209-2.39 15.156-8.145 18.984-15.89.734-1.485.125-3.284-1.36-4.019-1.482-.733-3.285-.127-4.019 1.36-3.276 6.63-9.393 11.449-16.548 13.123-1.563-1.691-3.593-2.969-5.938-3.589-3.069-.811-5.074-3.692-4.768-6.853z"/><path d="m314.791 225.3-3.088 2.008c-5.141 3.344-7.075 9.843-4.6 15.452 1.235 2.799.315 6.108-2.187 7.869-5.015 3.528-6.71 10.093-4.032 15.61l1.608 3.312c3.5 7.209 9.937 12.573 17.658 14.717 2.457.683 4.969 1.018 7.47 1.018 5.36 0 10.667-1.542 15.246-4.522 8.791-5.724 18.326-10.21 28.34-13.336.973-.303 1.725-1.079 1.997-2.06s.028-2.034-.647-2.796c-6.965-7.843-12.817-16.605-17.396-26.044-3.497-7.21-9.932-12.576-17.651-14.724-7.72-2.145-16.002-.871-22.718 3.496zm34.971 13.847c4.161 8.578 9.324 16.627 15.375 23.979-8.979 3.176-17.553 7.407-25.543 12.608-5.273 3.433-11.773 4.438-17.837 2.753-6.063-1.684-11.118-5.896-13.867-11.557l-1.607-3.311c-1.387-2.857-.509-6.257 2.088-8.084 1.061-.747 1.965-1.643 2.719-2.636 5.203 3.668 11.426 5.63 17.753 5.63 2.169 0 4.351-.23 6.506-.699 1.619-.354 2.646-1.951 2.293-3.57-.354-1.619-1.958-2.645-3.57-2.293-7.226 1.575-14.803-.198-20.579-4.75.347-2.277.08-4.66-.9-6.879-1.281-2.904-.28-6.27 2.381-8l3.088-2.008c3.595-2.338 7.758-3.547 11.965-3.547 1.967 0 3.943.264 5.874.801 6.062 1.687 11.115 5.9 13.861 11.562z"/><path d="m218.632 291.604c-2.742-1.355-4.159-4.484-3.368-7.439 1.584-5.925-1.325-12.049-6.917-14.563l-3.358-1.51c-7.311-3.286-15.688-3.273-22.985.032-7.3 3.307-12.833 9.598-15.183 17.259-3.075 10.029-7.514 19.587-13.192 28.407-.552.856-.631 1.934-.21 2.861.42.928 1.282 1.579 2.289 1.729 10.373 1.551 20.483 4.52 30.051 8.825 3.645 1.641 7.556 2.461 11.467 2.461s7.858-.828 11.518-2.483c7.301-3.304 12.838-9.592 15.19-17.253l1.081-3.521c1.799-5.861-.885-12.089-6.382-14.806zm.646 13.045-1.081 3.52c-1.847 6.016-6.194 10.954-11.928 13.549-5.731 2.593-12.311 2.601-18.048.018-8.695-3.914-17.818-6.778-27.176-8.538 4.852-8.195 8.717-16.939 11.512-26.055 1.845-6.017 6.19-10.956 11.922-13.553s12.31-2.606 18.049-.025l3.358 1.51c2.896 1.302 4.401 4.473 3.581 7.54-.335 1.255-.454 2.524-.396 3.772-8.521.703-16.478 4.946-21.774 11.771-1.016 1.309-.778 3.193.531 4.209.547.425 1.194.63 1.837.63.895 0 1.78-.398 2.372-1.161 4.532-5.84 11.47-9.369 18.831-9.558 1.194 1.971 2.928 3.631 5.105 4.707 2.846 1.407 4.235 4.631 3.304 7.666z"/><path d="m262.021 369.47c.273.079.552.117.829.117.716 0 1.418-.257 1.972-.739 7.908-6.896 16.723-12.672 26.198-17.164 7.241-3.433 12.664-9.818 14.88-17.52s1.016-15.993-3.294-22.749l-1.979-3.104c-3.298-5.169-9.778-7.162-15.411-4.737-2.812 1.211-6.111.262-7.849-2.257-3.484-5.045-10.033-6.8-15.574-4.17l-3.325 1.579c-7.24 3.436-12.661 9.824-14.874 17.525-2.212 7.702-1.009 15.993 3.304 22.747 5.645 8.843 10.046 18.417 13.081 28.457.295.975 1.064 1.733 2.043 2.015zm-12.661-51.562c1.738-6.048 5.995-11.064 11.68-13.763l3.326-1.579c.896-.425 1.841-.628 2.773-.628 2.057 0 4.049.99 5.29 2.787.736 1.067 1.624 1.978 2.609 2.741-4.987 6.944-6.907 15.758-5.143 24.216.295 1.416 1.543 2.389 2.934 2.389.203 0 .409-.021.615-.064 1.622-.338 2.663-1.927 2.324-3.549-1.51-7.24.332-14.806 4.932-20.536 2.273.367 4.659.122 6.887-.837 2.915-1.256 6.271-.226 7.979 2.452l1.979 3.104c3.384 5.306 4.327 11.816 2.587 17.863-1.74 6.048-5.999 11.062-11.685 13.757-8.613 4.083-16.707 9.174-24.115 15.162-3.095-9.005-7.25-17.617-12.381-25.654-3.386-5.304-4.331-11.813-2.594-17.861z"/><path d="m247.062 200.091-.765-3.602c-1.664-7.839-6.622-14.593-13.602-18.53-6.979-3.937-15.323-4.689-22.894-2.06-9.907 3.441-20.241 5.504-30.714 6.13-1.017.062-1.934.634-2.434 1.521-.501.887-.518 1.967-.044 2.869 4.874 9.285 8.448 19.198 10.625 29.463 1.661 7.839 6.615 14.595 13.593 18.535 4.236 2.393 8.976 3.61 13.741 3.61 3.083 0 6.178-.511 9.152-1.542l3.479-1.207c5.793-2.01 9.232-7.853 8.18-13.893-.525-3.014 1.163-6.005 4.015-7.112 5.715-2.22 8.939-8.184 7.667-14.183zm-9.839 8.589c-1.208.469-2.301 1.122-3.271 1.903-5.599-6.461-13.729-10.371-22.365-10.615-1.627-.07-3.037 1.258-3.084 2.914s1.258 3.037 2.914 3.084c7.393.208 14.326 3.753 18.834 9.556-.885 2.126-1.198 4.505-.781 6.895.545 3.127-1.236 6.152-4.236 7.193l-3.479 1.207c-5.943 2.062-12.497 1.47-17.977-1.625-5.479-3.094-9.369-8.398-10.674-14.555-1.978-9.329-5.053-18.382-9.159-26.973 9.479-.924 18.819-2.97 27.825-6.098 5.941-2.063 12.495-1.476 17.977 1.617 5.48 3.092 9.374 8.396 10.681 14.551l.765 3.602c.659 3.105-1.011 6.194-3.97 7.343z"/></g></svg>