<svg id="Capa_1" enable-background="new 0 0 512 512" height="512" viewBox="0 0 512 512" width="512" xmlns="http://www.w3.org/2000/svg"><g><g><path d="m243.144 86.499v-41.36l-57.097-17.997-57.097 17.997v41.36c0 3.821 3.068 9.85 2.583 13.627-.868 6.754-1.945 14.51-4.327 20.915l-34.982 90.816c-3.576 9.614-5.407 19.789-5.407 30.046v252.787c0 9.56 7.75 17.31 17.31 17.31h162.993c9.56 0 17.31-7.75 17.31-17.31v-252.788c0-10.257 1.081-19.649-2.494-29.263l-34.734-94.311c-3.207-8.624-5.304-17.741-5.751-26.913-.071-1.45 1.693-3.462 1.693-4.916z" fill="#b7efff"/><path d="m287.287 241.9.358 252.792c0 9.558-7.745 17.303-17.313 17.303h-40.412c9.558 0 17.313-7.745 17.313-17.303v-252.792c0-10.258-1.833-20.434-5.407-30.043l-35.017-94.144c-3.708-9.99-5.613-20.557-5.613-31.217v-41.36h41.948v41.361c0 .441-.672 1.254-.665 1.695.151 10.211 2.151 20.165 5.705 29.742l33.695 93.925c3.575 9.608 5.408 19.784 5.408 30.041z" fill="#68e7fd"/><path d="m249.5 45.139h-126.906c-3.68 0-6.662-2.983-6.662-6.662v-31.815c0-3.68 2.983-6.662 6.662-6.662h126.906c3.68 0 6.662 2.983 6.662 6.662v31.814c0 3.68-2.982 6.663-6.662 6.663z" fill="#d07d62"/><path d="m256.162 6.658v31.814c0 3.687-2.987 6.664-6.664 6.664h-41.197c3.677 0 6.664-2.976 6.664-6.664v-31.814c0-3.677-2.987-6.653-6.664-6.653h41.197c3.678 0 6.664 2.976 6.664 6.653z" fill="#be6a4f"/><path d="m287.644 241.901v252.786c0 9.566-6.213 17.313-15.768 17.313h-171.658c-9.556 0-17.303-7.747-17.303-17.313v-93.916l3.901-61.101-3.901-61.101v-36.668c0-10.252 1.828-20.427 5.407-30.041l35.012-94.147c3.714-9.991 5.619-20.563 5.619-31.211l111.247.005c0 10.649 3.286 21.215 7 31.207l35.263 95.455c3.58 9.613 5.181 18.48 5.181 28.732z" fill="#fff3de"/><path d="m289.181 241.9v252.782c0 9.568-7.745 17.313-17.303 17.313h-21.35c-.361-1.092-.649-2.204-.886-3.347l-17.313-84.597c-1.586-7.724-2.997-15.48-4.243-23.276-4.758-29.538-7.168-59.508-7.168-89.396v-59.869c0-17.22 14.017-31.237 31.237-31.237h34.265c1.834 7.054 2.761 14.325 2.761 21.627z" fill="#ffe6c2"/><path d="m247.233 494.682v-252.782c0-10.248-1.833-20.423-5.407-30.043l-35.017-94.144c-3.718-9.99-5.623-20.567-5.623-31.206h41.959c0 10.639 1.905 21.216 5.613 31.206l35.017 94.144c3.574 9.619 5.407 19.795 5.407 30.043v252.782z" fill="#ffe6c2"/><path d="m82.915 278.57h206.264v122.202h-206.264z" fill="#d07d62"/><path d="m289.181 278.565v122.21h-61.094c-4.758-29.538-7.168-59.508-7.168-89.396v-32.813h68.262z" fill="#be6a4f"/><path d="m242.549 251.513v59.864c0 .588.001 1.175.003 1.763v.017c0 .11.104.267.104.377.139 35.682 4.391 71.238 11.546 106.199l9.788 51.078-.009.018 6.853 33.486c.915 4.473 4.851 7.685 9.417 7.685h111.133c4.566 0 8.501-3.212 9.417-7.685l6.853-33.486-.021-.108 10.482-51.01c7.132-34.85 10.543-70.288 10.704-105.856.001-.229.264-.487.265-.716.002-.588.003-1.175.003-1.763v-59.864c0-5.308-4.303-9.612-9.612-9.612h-167.314c-5.309.001-9.612 4.305-9.612 9.613z" fill="#b7efff"/><path d="m429.085 251.51v59.869c0 .587-.001 1.174-.003 1.761 0 .124-.153.249-.154.373-.141 35.672-3.663 71.244-10.812 106.202l-10.467 51.09.003.024-6.849 33.482c-.917 4.48-4.851 7.683-9.424 7.683h-41.197c4.573 0 8.507-3.203 9.424-7.683l17.313-84.597c7.292-35.656 10.969-71.95 10.969-108.337v-59.867c0-5.304-4.305-9.609-9.609-9.609h41.197c5.304-.001 9.609 4.305 9.609 9.609z" fill="#68e7fd"/><path d="m429.082 313.14c-.113 35.8-3.787 71.497-10.965 106.575l-10.464 51.115h-143.672l-10.466-51.115c-7.178-35.079-10.85-70.776-10.964-106.575z" fill="#fff3de"/><path d="m429.082 313.14c-.113 35.8-3.787 71.497-10.965 106.575l-10.441 51.002-.023.113h-41.197l10.464-51.115c7.178-35.079 10.845-70.776 10.958-106.575z" fill="#ffe6c2"/></g></g></svg>