<svg id="Layer_1" height="512" viewBox="0 0 64 64" width="512" xmlns="http://www.w3.org/2000/svg" data-name="Layer 1"><path d="m44 40.35-2 2.66 2 2.66-2 2.67 1.53 3.51-4.76-1.85-4.22 2-4.23-2-4.22 2-2.1-1-2.12-1-4.22 2-4.22-2-4.22 2-3.68-1.84-1.54-1.83 2-2.67-2-2.67 2-2.67-2-2.67 2-2.66-2-2.66 2-2.67-1.53-3.51 4.76 1.85 4.22-2 4.23 2 4.22-2 2.1 1 2.12 1 4.22-2 4.22 2 4.22-2 3.68 1.84 1.53 1.71-1.99 2.79 2 2.67-2 2.67z" fill="#fcb316"/><path d="m44 40.35-2 2.66 2 2.66-2 2.67 1.53 3.51-4.76-1.85-4.22 2-4.23-2-4.22 2-2.1-1v-24l2.12 1 4.22-2 4.22 2 4.22-2 3.68 1.84 1.53 1.71-1.99 2.79 2 2.67-2 2.67z" fill="#f9a01b"/><path d="m60 23.65-2 2.67 2 2.67-2 2.67 2 2.67-1.54 1.83-3.68 1.84-4.22-2-4.22 2-3.38-1.6 1.04-1.39-2-2.67 1.99-2.79-1.53-1.71-2.46-1.23-1.22-.61-4.22 2-4.22-2-4.22 2-4.22-2-1.59.75-.31-.4 2-2.67-2-2.67 2-2.67-1.99-2.79 1.53-1.71 3.68-1.84 4.22 2 4.22-2 4.22 2 2.12-1 2.1-1 4.22 2 4.23-2 4.22 2 4.76-1.85-1.53 3.51 2 2.67-2 2.66z" fill="#fcb316"/><path d="m60 23.65-2 2.67 2 2.67-2 2.67 2 2.67-1.54 1.83-3.68 1.84-4.22-2-4.22 2-3.38-1.6 1.04-1.39-2-2.67 1.99-2.79-1.53-1.71-2.46-1.23v-13.61l2.1-1 4.22 2 4.23-2 4.22 2 4.76-1.85-1.53 3.51 2 2.67-2 2.66z" fill="#f9a01b"/></svg>