<svg id="Capa_1" enable-background="new 0 0 510 510" height="512" viewBox="0 0 510 510" width="512" xmlns="http://www.w3.org/2000/svg" xmlns:xlink="http://www.w3.org/1999/xlink"><linearGradient id="lg1"><stop offset="0" stop-color="#bbec6c"/><stop offset="1" stop-color="#81b823"/></linearGradient><linearGradient id="SVGID_1_" gradientTransform="matrix(.707 .707 -.707 .707 718.681 86.438)" gradientUnits="userSpaceOnUse" x1="-230.352" x2="-141.228" xlink:href="#lg1" y1="267.243" y2="321.383"/><linearGradient id="lg2"><stop offset="0" stop-color="#47a920" stop-opacity="0"/><stop offset=".242" stop-color="#459a2a" stop-opacity=".242"/><stop offset=".7001" stop-color="#417545" stop-opacity=".7"/><stop offset="1" stop-color="#3e5959"/></linearGradient><linearGradient id="SVGID_00000030470296170018962960000008350320250400841137_" gradientTransform="matrix(.707 .707 -.707 .707 718.681 86.438)" gradientUnits="userSpaceOnUse" x1="-149.961" x2="-199.937" xlink:href="#lg2" y1="250.005" y2="320.804"/><linearGradient id="SVGID_00000061470428261152539100000014620416768671763118_" gradientTransform="matrix(.707 .707 -.707 .707 718.681 86.438)" gradientUnits="userSpaceOnUse" x1="-214.392" x2="-123.325" xlink:href="#lg2" y1="271.505" y2="352.022"/><linearGradient id="SVGID_00000026145245364378538030000010000956975806793125_" gradientTransform="matrix(.707 .707 -.707 .707 718.681 86.438)" gradientUnits="userSpaceOnUse" x1="-222.476" x2="-179.719" xlink:href="#lg2" y1="263.807" y2="313.783"/><linearGradient id="SVGID_00000108303793499896920800000001177821843862155698_" gradientTransform="matrix(.707 .707 -.707 .707 718.681 86.438)" gradientUnits="userSpaceOnUse" x1="-285.359" x2="-171.247" xlink:href="#lg1" y1="228.099" y2="357.204"/><linearGradient id="SVGID_00000155830713809460769390000014460342813090432657_" gradientTransform="matrix(.707 .707 -.707 .707 718.681 86.438)" gradientUnits="userSpaceOnUse" x1="-197.044" x2="-294.775" xlink:href="#lg2" y1="259.678" y2="366.293"/><linearGradient id="SVGID_00000135667208854772013170000015502237372740934332_" gradientTransform="matrix(.707 .707 -.707 .707 718.681 86.438)" gradientUnits="userSpaceOnUse" x1="-182.772" x2="-291.609" xlink:href="#lg2" y1="253.239" y2="383.177"/><linearGradient id="SVGID_00000086666848965697427490000011353206190914666418_" gradientTransform="matrix(.707 .707 -.707 .707 718.681 86.438)" gradientUnits="userSpaceOnUse" x1="-203.221" x2="-233.207" xlink:href="#lg2" y1="282.287" y2="342.258"/><linearGradient id="SVGID_00000059988721668444476740000002982785191329217702_" gradientTransform="matrix(.707 .707 -.707 .707 718.681 86.438)" gradientUnits="userSpaceOnUse" x1="-176.472" x2="-114.002" y1="321.505" y2="418.959"><stop offset="0" stop-color="#8bc727"/><stop offset="1" stop-color="#017b4e"/></linearGradient><linearGradient id="SVGID_00000045576865669429521140000010777966913066877589_" gradientTransform="matrix(.707 .707 -.707 .707 718.681 86.438)" gradientUnits="userSpaceOnUse" x1="-144.169" x2="-158.329" xlink:href="#lg2" y1="291.683" y2="402.464"/><linearGradient id="SVGID_00000154388104310941737540000017931699356584007843_" gradientTransform="matrix(.707 .707 -.707 .707 718.681 86.438)" gradientUnits="userSpaceOnUse" x1="-292.337" x2="-63.708" y1="508.706" y2="608.653"><stop offset="0" stop-color="#f2f2f2"/><stop offset="1" stop-color="#fff5c6"/></linearGradient><linearGradient id="SVGID_00000060728722598407069190000003617704497592316340_" gradientTransform="matrix(.707 .707 -.707 .707 718.681 86.438)" gradientUnits="userSpaceOnUse" x1="-240.473" x2="-240.473" y1="660.153" y2="232.412"><stop offset="0" stop-color="#bbec6c" stop-opacity="0"/><stop offset="1" stop-color="#81b823"/></linearGradient><linearGradient id="lg3"><stop offset="0" stop-color="#fea613" stop-opacity="0"/><stop offset=".1832" stop-color="#fc9b19" stop-opacity=".183"/><stop offset=".5086" stop-color="#f57d28" stop-opacity=".509"/><stop offset=".9356" stop-color="#eb4c40" stop-opacity=".936"/><stop offset="1" stop-color="#e94444"/></linearGradient><linearGradient id="SVGID_00000157300077406217181800000016089349815080306102_" gradientUnits="userSpaceOnUse" x1="211.928" x2="271.928" xlink:href="#lg3" y1="339.077" y2="421.077"/><linearGradient id="SVGID_00000034789757692311151320000003439660616931734685_" gradientTransform="matrix(.707 .707 -.707 .707 718.681 86.438)" gradientUnits="userSpaceOnUse" x1="-203.014" x2="-203.014" xlink:href="#lg3" y1="721.371" y2="823.824"/><linearGradient id="SVGID_00000034068395445612597080000013123034513096998547_" gradientTransform="matrix(.707 .707 -.707 .707 718.681 86.438)" gradientUnits="userSpaceOnUse" x1="-198.571" x2="-341.003" y1="474.67" y2="278.931"><stop offset="0" stop-color="#026841" stop-opacity="0"/><stop offset=".2986" stop-color="#106546" stop-opacity=".299"/><stop offset=".86" stop-color="#345b55" stop-opacity=".86"/><stop offset="1" stop-color="#3e5959"/></linearGradient><g><path d="m254.804 213.787 45.544 45.544 191.567-131.398c11.961-8.204 13.536-25.253 3.28-35.509l-12.196-12.196c-7.895-7.895-20.297-9.041-29.505-2.725z" fill="url(#SVGID_1_)"/><path d="m254.804 213.787 45.544 45.544 191.567-131.398c11.961-8.204 13.536-25.253 3.28-35.509l-12.196-12.196c-7.895-7.895-20.297-9.041-29.505-2.725z" fill="url(#SVGID_00000030470296170018962960000008350320250400841137_)"/><path d="m495.194 92.424-12.196-12.196c-7.895-7.895-20.297-9.041-29.505-2.725l-198.69 136.284 30.231 30.231 213.894-146.712c-.998-1.739-2.236-3.384-3.734-4.882z" fill="url(#SVGID_00000061470428261152539100000014620416768671763118_)"/><path d="m484.593 81.822-1.594-1.594c-7.895-7.895-20.297-9.041-29.505-2.725l-198.69 136.284 19.629 19.629 215.033-146.72z" fill="url(#SVGID_00000026145245364378538030000010000956975806793125_)"/><path d="m304.064 263.047-45.544-45.544 129.499-206.63c7.911-12.622 25.502-14.615 36.035-4.081l11.908 11.908c7.641 7.641 8.989 19.547 3.251 28.703z" fill="url(#SVGID_00000108303793499896920800000001177821843862155698_)"/><path d="m435.961 18.699-11.907-11.908c-2.409-2.409-5.188-4.155-8.135-5.276l-143.853 229.534 31.998 31.998 135.148-215.645c5.739-9.156 4.39-21.062-3.251-28.703z" fill="url(#SVGID_00000155830713809460769390000014460342813090432657_)"/><path d="m435.961 18.699-11.907-11.908c-2.409-2.409-5.188-4.155-8.135-5.276l-143.853 229.534 31.998 31.998 135.148-215.645c5.739-9.156 4.39-21.062-3.251-28.703z" fill="url(#SVGID_00000155830713809460769390000014460342813090432657_)"/><path d="m435.961 18.699-1.911-1.911-144.954 231.291 14.968 14.968 135.148-215.645c5.739-9.156 4.39-21.062-3.251-28.703z" fill="url(#SVGID_00000135667208854772013170000015502237372740934332_)"/><path d="m258.52 217.503 45.544 45.544 105.472-168.292-45.544-45.544z" fill="url(#SVGID_00000086666848965697427490000011353206190914666418_)"/><path d="m453.548 229.968c.06-.253.119-.506.179-.759 3.49-14.816-6.613-29.426-21.714-31.331-58.128-7.335-115.42 1.908-169.371 27.442 7.705 15.557 15.409 31.114 23.113 46.671 44.739-20.975 91.65-28.502 139.656-22.459 13 1.636 25.133-6.812 28.137-19.564z" fill="url(#SVGID_00000059988721668444476740000002982785191329217702_)"/><path d="m453.548 229.968c.06-.253.119-.506.179-.759 3.49-14.816-6.613-29.426-21.714-31.331-58.128-7.335-115.42 1.908-169.371 27.442 7.705 15.557 15.409 31.114 23.113 46.671 44.739-20.975 91.65-28.502 139.656-22.459 13 1.636 25.133-6.812 28.137-19.564z" fill="url(#SVGID_00000045576865669429521140000010777966913066877589_)"/><path d="m89.392 493.463 174.14-185.513c43.897-46.764 67.473-109.063 65.352-173.166-.641-19.362-2.385-38.237-4.565-55.513-1.827-14.482-15.838-24.169-30.046-20.823-.243.057-.486.114-.728.171-12.229 2.88-20.33 14.517-18.761 26.982 2.737 21.74 2.569 43.245-.488 64.408-4.801 33.23-20.897 63.797-45.377 86.777l-204.367 191.836c-20.771 17.337-22.184 48.762-3.053 67.894 19.131 19.132 50.557 17.718 67.893-3.053z" fill="url(#SVGID_00000154388104310941737540000017931699356584007843_)"/><path d="m89.392 493.463 174.14-185.513c43.897-46.764 67.473-109.063 65.352-173.166-.641-19.362-2.385-38.237-4.565-55.513-1.827-14.482-15.838-24.169-30.046-20.823-.243.057-.486.114-.728.171-12.229 2.88-20.33 14.517-18.761 26.982 2.737 21.74 2.569 43.245-.488 64.408-4.801 33.23-20.897 63.797-45.377 86.777l-204.367 191.836c-20.771 17.337-22.184 48.762-3.053 67.894 19.131 19.132 50.557 17.718 67.893-3.053z" fill="url(#SVGID_00000060728722598407069190000003617704497592316340_)"/><path d="m89.392 493.463 174.14-185.513c43.897-46.764 67.473-109.063 65.352-173.166-.641-19.362-2.385-38.237-4.565-55.513-1.827-14.482-15.838-24.169-30.046-20.823-.243.057-.486.114-.728.171-12.229 2.88-20.33 14.517-18.761 26.982 2.737 21.74 2.569 43.245-.488 64.408-4.801 33.23-20.897 63.797-45.377 86.777l-204.367 191.836c-20.771 17.337-22.184 48.762-3.053 67.894 19.131 19.132 50.557 17.718 67.893-3.053z" fill="url(#SVGID_00000157300077406217181800000016089349815080306102_)"/><path d="m24.552 428.622c-20.771 17.337-22.184 48.762-3.053 67.894 19.131 19.131 50.557 17.718 67.894-3.053l49.734-52.982-61.593-61.593z" fill="url(#SVGID_00000034789757692311151320000003439660616931734685_)"/><path d="m174.137 288.208 55.67 55.67 33.726-35.928c43.897-46.764 67.473-109.063 65.352-173.166-.641-19.362-2.385-38.237-4.565-55.513-1.827-14.482-15.838-24.169-30.046-20.823-.243.057-.486.114-.728.171-12.229 2.88-20.33 14.517-18.761 26.982 2.737 21.74 2.569 43.245-.488 64.408-4.801 33.23-20.897 63.797-45.377 86.776z" fill="url(#SVGID_00000034068395445612597080000013123034513096998547_)"/></g></svg>