<svg id="Capa_1" enable-background="new 0 0 512 512" height="512" viewBox="0 0 512 512" width="512" xmlns="http://www.w3.org/2000/svg"><g><ellipse cx="143.534" cy="95.333" fill="#ff556e" rx="95.333" ry="63.2"/><ellipse cx="288.134" cy="111.401" fill="#ffb732" rx="95.333" ry="63.2"/><path d="m383.467 111.401c0-35.439-41.875-63.2-95.333-63.2-16.36 0-31.631 2.604-44.953 7.228v111.944c13.322 4.624 28.593 7.228 44.953 7.228 53.457 0 95.333-27.761 95.333-63.2z" fill="#ff7f46"/><ellipse cx="207.8" cy="159.6" fill="#ff7f46" rx="95.333" ry="63.2"/><path d="m303.133 159.6c0-27.11-24.505-49.726-59.953-58.859v117.719c35.449-9.134 59.953-31.75 59.953-58.86z" fill="#ff556e"/><ellipse cx="336.333" cy="191.734" fill="#ffb732" rx="95.333" ry="63.2"/><path d="m207.156 479.867c-53.458 0-95.333-27.761-95.333-63.199 0-35.439 41.875-63.2 95.333-63.2s95.333 27.761 95.333 63.2c0 35.438-41.875 63.199-95.333 63.199z" fill="#ffb732"/><path d="m302.489 416.667c0-26.945-24.21-49.447-59.309-58.688v117.375c35.1-9.241 59.309-31.743 59.309-58.687z" fill="#ff7f46"/><ellipse cx="223.867" cy="239.934" fill="#ffb732" rx="95.333" ry="63.2"/><path d="m319.2 239.934c0-31.04-32.125-56.189-76.019-61.954v123.909c43.894-5.766 76.019-30.915 76.019-61.955z" fill="#ff7f46"/><ellipse cx="95.333" cy="272.067" fill="#ff7f46" rx="95.333" ry="63.2"/><ellipse cx="352.4" cy="272.067" fill="#ff556e" rx="95.333" ry="63.2"/><path d="m416.667 399.534c-53.458 0-95.333-27.761-95.333-63.2 0-35.438 41.875-63.199 95.333-63.199s95.333 27.761 95.333 63.199c0 35.439-41.875 63.2-95.333 63.2z" fill="#ffb732"/></g></svg>