<svg height="512" viewBox="0 0 48 48" width="512" xmlns="http://www.w3.org/2000/svg"><g id="_22-lime" data-name="22-lime"><path d="m1 21.069c0 9.903 6.716 17.931 15 17.931s15-8.028 15-17.931c0-8.663-5.139-15.891-11.971-17.569a2.7 2.7 0 0 0 -3.029-2.5 2.7 2.7 0 0 0 -3.029 2.5c-6.832 1.678-11.971 8.906-11.971 17.569z" fill="#589e00"/><path d="m14 37a2 2 0 0 1 4 0z" fill="#3f7000"/><circle cx="32" cy="32" fill="#e8ffad" r="15"/><path d="m34.12 29.88a2.994 2.994 0 1 1 -2.12-.88 2.993 2.993 0 0 1 2.12.88z" fill="#e8ffad"/><path d="m43.77 29.66a1.986 1.986 0 0 1 -1.97 2.34h-6.8a2.993 2.993 0 0 0 -.88-2.12l4.81-4.81a2.021 2.021 0 0 1 3.11.35 11.9 11.9 0 0 1 1.73 4.24z" fill="#c9ff39"/><path d="m38.58 21.96a2.021 2.021 0 0 1 .35 3.11l-4.81 4.81a2.993 2.993 0 0 0 -2.12-.88v-6.8a1.986 1.986 0 0 1 2.34-1.97 11.9 11.9 0 0 1 4.24 1.73z" fill="#c9ff39"/><path d="m32 22.2v6.8a2.993 2.993 0 0 0 -2.12.88l-4.81-4.81a2.021 2.021 0 0 1 .35-3.11 11.9 11.9 0 0 1 4.24-1.73 1.986 1.986 0 0 1 2.34 1.97z" fill="#c9ff39"/><path d="m25.07 25.07 4.81 4.81a2.993 2.993 0 0 0 -.88 2.12h-6.8a1.986 1.986 0 0 1 -1.97-2.34 11.9 11.9 0 0 1 1.73-4.24 2.021 2.021 0 0 1 3.11-.35z" fill="#c9ff39"/><path d="m29 32a2.993 2.993 0 0 0 .88 2.12l-4.81 4.81a2.021 2.021 0 0 1 -3.11-.35 11.9 11.9 0 0 1 -1.73-4.24 1.986 1.986 0 0 1 1.97-2.34z" fill="#c9ff39"/><path d="m29.88 34.12a2.993 2.993 0 0 0 2.12.88v6.8a1.986 1.986 0 0 1 -2.34 1.97 11.9 11.9 0 0 1 -4.24-1.73 2.021 2.021 0 0 1 -.35-3.11z" fill="#c9ff39"/><path d="m38.93 38.93a2.021 2.021 0 0 1 -.35 3.11 11.9 11.9 0 0 1 -4.24 1.73 1.986 1.986 0 0 1 -2.34-1.97v-6.8a2.993 2.993 0 0 0 2.12-.88z" fill="#c9ff39"/><path d="m41.8 32a1.986 1.986 0 0 1 1.97 2.34 11.9 11.9 0 0 1 -1.73 4.24 2.021 2.021 0 0 1 -3.11.35l-4.81-4.81a2.993 2.993 0 0 0 .88-2.12z" fill="#c9ff39"/><path d="m1 21.069c0 9.903 6.716 17.931 15 17.931s15-8.028 15-17.931c0-8.663-5.139-15.891-11.971-17.569a2.7 2.7 0 0 0 -3.029-2.5 2.7 2.7 0 0 0 -3.029 2.5c-6.832 1.678-11.971 8.906-11.971 17.569z" fill="#589e00"/><path d="m20.5 33c-7.18 0-13-6.761-13-15.1 0-7.295 4.454-13.381 10.375-14.792a3.075 3.075 0 0 1 .472-1.2 2.828 2.828 0 0 0 -2.347-.908 2.7 2.7 0 0 0 -3.029 2.5c-6.832 1.678-11.971 8.906-11.971 17.569 0 9.903 6.716 17.931 15 17.931 5.987 0 11.14-4.2 13.546-10.268a12.089 12.089 0 0 1 -9.046 4.268z" fill="#377802"/><path d="m14 37a2 2 0 0 1 4 0z" fill="#224326"/><path d="m15.235 10.366a1.412 1.412 0 0 0 -.135 1.134 1.741 1.741 0 0 0 .61.608 34.655 34.655 0 0 1 8.831 9.19 4.895 4.895 0 0 0 1.09 1.329 1.769 1.769 0 0 0 1.7.3 1.825 1.825 0 0 0 .808-.875 8.514 8.514 0 0 0 .3-6.65 21.015 21.015 0 0 0 -3.539-6.087 18.435 18.435 0 0 0 -2.723-2.967 5.578 5.578 0 0 0 -2.567-1.323c-3.066-.525-3.584 3.475-4.375 5.341z" fill="#8bc808"/><circle cx="32" cy="32" fill="#e8ffad" r="15"/><circle cx="32" cy="32" fill="#fffcdb" r="13"/><path d="m34.12 29.88a2.994 2.994 0 1 1 -2.12-.88 2.993 2.993 0 0 1 2.12.88z" fill="#d8ff73"/><path d="m43.77 29.66a1.986 1.986 0 0 1 -1.97 2.34h-6.8a2.993 2.993 0 0 0 -.88-2.12l4.81-4.81a2.021 2.021 0 0 1 3.11.35 11.9 11.9 0 0 1 1.73 4.24z" fill="#9cdf00"/><path d="m38.58 21.96a2.021 2.021 0 0 1 .35 3.11l-4.81 4.81a2.993 2.993 0 0 0 -2.12-.88v-6.8a1.986 1.986 0 0 1 2.34-1.97 11.9 11.9 0 0 1 4.24 1.73z" fill="#9cdf00"/><path d="m32 22.2v6.8a2.993 2.993 0 0 0 -2.12.88l-4.81-4.81a2.021 2.021 0 0 1 .35-3.11 11.9 11.9 0 0 1 4.24-1.73 1.986 1.986 0 0 1 2.34 1.97z" fill="#9cdf00"/><path d="m25.07 25.07 4.81 4.81a2.993 2.993 0 0 0 -.88 2.12h-6.8a1.986 1.986 0 0 1 -1.97-2.34 11.9 11.9 0 0 1 1.73-4.24 2.021 2.021 0 0 1 3.11-.35z" fill="#9cdf00"/><path d="m29 32a2.993 2.993 0 0 0 .88 2.12l-4.81 4.81a2.021 2.021 0 0 1 -3.11-.35 11.9 11.9 0 0 1 -1.73-4.24 1.986 1.986 0 0 1 1.97-2.34z" fill="#9cdf00"/><path d="m29.88 34.12a2.993 2.993 0 0 0 2.12.88v6.8a1.986 1.986 0 0 1 -2.34 1.97 11.9 11.9 0 0 1 -4.24-1.73 2.021 2.021 0 0 1 -.35-3.11z" fill="#9cdf00"/><path d="m38.93 38.93a2.021 2.021 0 0 1 -.35 3.11 11.9 11.9 0 0 1 -4.24 1.73 1.986 1.986 0 0 1 -2.34-1.97v-6.8a2.993 2.993 0 0 0 2.12-.88z" fill="#9cdf00"/><path d="m41.8 32a1.986 1.986 0 0 1 1.97 2.34 11.9 11.9 0 0 1 -1.73 4.24 2.021 2.021 0 0 1 -3.11.35l-4.81-4.81a2.993 2.993 0 0 0 .88-2.12z" fill="#9cdf00"/><path d="m32 17a15 15 0 1 0 15 15 15 15 0 0 0 -15-15zm0 29a14 14 0 1 1 14-14 14 14 0 0 1 -14 14z" fill="#63b300"/><path d="m34.44 30.267 5.76-5.767a1.94 1.94 0 0 0 -1.273.566 1.94 1.94 0 0 0 .573-1.266l-5.767 5.76a2.661 2.661 0 0 1 .707.707z" fill="#fffcdb"/><path d="m43.117 31.5h-8.168a2.476 2.476 0 0 1 0 1h8.168a2 2 0 0 0 -1.317-.5 2 2 0 0 0 1.317-.5z" fill="#fffcdb"/><path d="m31.5 20.883v8.168a2.476 2.476 0 0 1 1 0v-8.168a2 2 0 0 0 -.5 1.317 2 2 0 0 0 -.5-1.317z" fill="#fffcdb"/><path d="m25.07 25.07a1.94 1.94 0 0 0 -1.27-.57l5.763 5.763a2.661 2.661 0 0 1 .707-.707l-5.77-5.756a1.94 1.94 0 0 0 .57 1.27z" fill="#fffcdb"/><path d="m29.56 33.733-5.76 5.767a1.945 1.945 0 0 0 1.273-.566 1.94 1.94 0 0 0 -.573 1.266l5.763-5.763a2.661 2.661 0 0 1 -.707-.707z" fill="#fffcdb"/><path d="m29.051 32.5a2.476 2.476 0 0 1 0-1h-8.168a2 2 0 0 0 1.317.5 2 2 0 0 0 -1.317.5z" fill="#fffcdb"/><path d="m31.5 34.949v8.168a2 2 0 0 0 .5-1.317 2 2 0 0 0 .5 1.317v-8.168a2.476 2.476 0 0 1 -1 0z" fill="#fffcdb"/><path d="m34.44 33.733a2.661 2.661 0 0 1 -.707.707l5.767 5.76a1.94 1.94 0 0 0 -.566-1.273 1.945 1.945 0 0 0 1.266.573z" fill="#fffcdb"/><circle cx="32" cy="32" fill="#fffcdb" r="2"/><g fill="#d8ff73"><ellipse cx="42" cy="35" rx=".825" ry="1.148" transform="matrix(.707 -.707 .707 .707 -12.446 39.968)"/><ellipse cx="38" cy="40" rx=".825" ry="1.148" transform="matrix(.707 -.707 .707 .707 -17.155 38.605)"/><ellipse cx="37" cy="34" rx=".825" ry="1.148" transform="matrix(.707 -.707 .707 .707 -13.204 36.139)"/><ellipse cx="39.746" cy="34.5" rx=".413" ry=".574" transform="matrix(.707 -.707 .707 .707 -12.753 38.227)"/><ellipse cx="39.746" cy="37.5" rx=".413" ry=".574" transform="matrix(.707 -.707 .707 .707 -14.875 39.107)"/><ellipse cx="35.746" cy="41.5" rx=".413" ry=".574" transform="matrix(.707 -.707 .707 .707 -18.877 37.45)"/><ellipse cx="35.746" cy="39.5" rx=".413" ry=".574" transform="matrix(.707 -.707 .707 .707 -17.462 36.864)"/><ellipse cx="33.746" cy="38.5" rx=".413" ry=".574" transform="matrix(.707 -.707 .707 .707 -17.341 35.156)"/><ellipse cx="35.746" cy="37.5" rx=".413" ry=".574" transform="matrix(.707 -.707 .707 .707 -16.047 36.278)"/><ellipse cx="33.746" cy="41.5" rx=".413" ry=".574" transform="matrix(.707 -.707 .707 .707 -19.463 36.035)"/><ellipse cx="33.746" cy="36.5" rx=".413" ry=".574" transform="matrix(.707 -.707 .707 .707 -15.926 34.57)"/><ellipse cx="40.746" cy="33.5" rx=".413" ry=".574" transform="matrix(.707 -.707 .707 .707 -11.752 38.642)"/><ellipse cx="22.246" cy="34" rx="1.148" ry=".825" transform="matrix(.707 -.707 .707 .707 -17.523 25.675)"/><ellipse cx="24.246" cy="37" rx="1.148" ry=".825" transform="matrix(.707 -.707 .707 .707 -19.058 27.967)"/><ellipse cx="26.246" cy="40" rx="1.148" ry=".825" transform="matrix(.707 -.707 .707 .707 -20.594 30.258)"/><ellipse cx="24.5" cy="34.5" rx=".574" ry=".413" transform="matrix(.707 -.707 .707 .707 -17.217 27.415)"/><ellipse cx="28.5" cy="41.5" rx=".574" ry=".413" transform="matrix(.707 -.707 .707 .707 -20.994 32.291)"/><ellipse cx="28.5" cy="39.5" rx=".574" ry=".413" transform="matrix(.707 -.707 .707 .707 -19.581 31.705)"/><ellipse cx="30.5" cy="39.5" rx=".574" ry=".413" transform="matrix(.707 -.707 .707 .707 -18.995 33.119)"/><ellipse cx="28.5" cy="37.5" rx=".574" ry=".413" transform="matrix(.707 -.707 .707 .707 -18.167 31.12)"/><ellipse cx="30.5" cy="41.5" rx=".574" ry=".413" transform="matrix(.707 -.707 .707 .707 -20.409 33.704)"/><ellipse cx="30.5" cy="36.5" rx=".574" ry=".413" transform="matrix(.707 -.707 .707 .707 -16.875 32.241)"/><ellipse cx="26.5" cy="33.5" rx=".574" ry=".413" transform="matrix(.707 -.707 .707 .707 -15.925 28.536)"/><ellipse cx="27.5" cy="34.5" rx=".574" ry=".413" transform="matrix(.707 -.707 .707 .707 -16.339 29.535)"/><ellipse cx="22.246" cy="29" rx=".825" ry="1.148" transform="matrix(.707 -.707 .707 .707 -13.992 24.237)"/><ellipse cx="26.246" cy="24" rx=".825" ry="1.148" transform="matrix(.707 -.707 .707 .707 -9.283 25.6)"/><ellipse cx="27.246" cy="30" rx=".825" ry="1.148" transform="matrix(.707 -.707 .707 .707 -13.234 28.067)"/><ellipse cx="24.5" cy="29.5" rx=".413" ry=".574" transform="matrix(.707 -.707 .707 .707 -13.685 25.978)"/><ellipse cx="24.5" cy="26.5" rx=".413" ry=".574" transform="matrix(.707 -.707 .707 .707 -11.563 25.098)"/><ellipse cx="28.5" cy="22.5" rx=".413" ry=".574" transform="matrix(.707 -.707 .707 .707 -7.561 26.755)"/><ellipse cx="28.5" cy="24.5" rx=".413" ry=".574" transform="matrix(.707 -.707 .707 .707 -8.976 27.341)"/><ellipse cx="30.5" cy="25.5" rx=".413" ry=".574" transform="matrix(.707 -.707 .707 .707 -9.097 29.049)"/><ellipse cx="28.5" cy="26.5" rx=".413" ry=".574" transform="matrix(.707 -.707 .707 .707 -10.39 27.928)"/><ellipse cx="30.5" cy="22.5" rx=".413" ry=".574" transform="matrix(.707 -.707 .707 .707 -6.975 28.17)"/><ellipse cx="30.5" cy="27.5" rx=".413" ry=".574" transform="matrix(.707 -.707 .707 .707 -10.511 29.635)"/><ellipse cx="23.5" cy="30.5" rx=".413" ry=".574" transform="matrix(.707 -.707 .707 .707 -14.685 25.563)"/><ellipse cx="42" cy="30" rx="1.148" ry=".825" transform="matrix(.707 -.707 .707 .707 -8.915 38.468)"/><ellipse cx="40" cy="27" rx="1.148" ry=".825" transform="matrix(.707 -.707 .707 .707 -7.379 36.176)"/><ellipse cx="38" cy="24" rx="1.148" ry=".825" transform="matrix(.707 -.707 .707 .707 -5.844 33.885)"/><ellipse cx="39.746" cy="29.5" rx=".574" ry=".413" transform="matrix(.707 -.707 .707 .707 -9.221 36.728)"/><ellipse cx="35.746" cy="22.5" rx=".574" ry=".413" transform="matrix(.707 -.707 .707 .707 -5.443 31.852)"/><ellipse cx="35.746" cy="24.5" rx=".574" ry=".413" transform="matrix(.707 -.707 .707 .707 -6.857 32.437)"/><ellipse cx="33.746" cy="24.5" rx=".574" ry=".413" transform="matrix(.707 -.707 .707 .707 -7.442 31.024)"/><ellipse cx="35.746" cy="26.5" rx=".574" ry=".413" transform="matrix(.707 -.707 .707 .707 -8.271 33.023)"/><ellipse cx="33.746" cy="22.5" rx=".574" ry=".413" transform="matrix(.707 -.707 .707 .707 -6.029 30.438)"/><ellipse cx="33.746" cy="27.5" rx=".574" ry=".413" transform="matrix(.707 -.707 .707 .707 -9.563 31.902)"/><ellipse cx="37.746" cy="30.5" rx=".574" ry=".413" transform="matrix(.707 -.707 .707 .707 -10.513 35.607)"/><ellipse cx="36.746" cy="29.5" rx=".574" ry=".413" transform="matrix(.707 -.707 .707 .707 -10.099 34.608)"/></g><path d="m18.6 38.713a14.95 14.95 0 0 1 4.823-19.013q-.582-.788-1.214-1.543a14.987 14.987 0 0 0 -7.509 20.765 12.724 12.724 0 0 0 1.3.078 12.667 12.667 0 0 0 2.6-.287z" fill="#3f7000"/><path d="m28.839 17.042c-.28-.015-.556-.042-.839-.042a14.962 14.962 0 0 0 -5.791 1.161q.63.758 1.214 1.543a14.923 14.923 0 0 1 5.452-2.373c-.013-.096-.021-.193-.036-.289z" fill="#4e8c00"/><path d="m18.6 38.719a14.757 14.757 0 0 1 -.728-1.719h-3.872a1.995 1.995 0 0 1 3.465-1.353 15.018 15.018 0 0 1 -.443-3.21 12.192 12.192 0 0 1 -3.92-2.129 14.773 14.773 0 0 0 1.6 8.614 11.724 11.724 0 0 0 3.9-.2z" fill="#2c4f00"/><path d="m16 35a2 2 0 0 0 -2 2h3.872q-.236-.663-.407-1.353a1.986 1.986 0 0 0 -1.465-.647z" fill="#224326"/><path d="m32 18a14 14 0 0 0 -12.319 7.344c.239.267.485.526.731.786a12.989 12.989 0 0 1 23.236 11.615c.352.04.7.074 1.059.1a13.978 13.978 0 0 0 -12.707-19.845z" fill="#f4ffd6"/><path d="m43.648 37.745a12.989 12.989 0 0 0 -23.236-11.615 37.87 37.87 0 0 0 23.236 11.615zm-11.648-7.745a2 2 0 1 1 -2 2 2 2 0 0 1 2-2z" fill="#f6fafd"/><path d="m32 18a13.978 13.978 0 0 1 12.707 19.849c.356.031.712.061 1.07.081a14.994 14.994 0 0 0 -26.784-13.381c.227.268.455.534.688.8a14 14 0 0 1 12.319-7.349z" fill="#9cdf00"/><path d="m43.77 34.34a1.986 1.986 0 0 0 -1.97-2.34 1.986 1.986 0 0 0 1.97-2.34 11.9 11.9 0 0 0 -1.73-4.24 2.021 2.021 0 0 0 -3.11-.35 2.021 2.021 0 0 0 -.35-3.11 11.9 11.9 0 0 0 -4.24-1.73 1.986 1.986 0 0 0 -2.34 1.97 1.986 1.986 0 0 0 -2.34-1.97 11.9 11.9 0 0 0 -4.24 1.73 2.021 2.021 0 0 0 -.35 3.11 2.021 2.021 0 0 0 -3.11.35 12.258 12.258 0 0 0 -.812 1.48 37.873 37.873 0 0 0 21.461 10.713 11.778 11.778 0 0 0 1.161-3.273z" fill="#c9ff39"/><path d="m34.44 30.267 5.76-5.767a1.94 1.94 0 0 0 -1.273.566 1.94 1.94 0 0 0 .573-1.266l-5.767 5.76a2.661 2.661 0 0 1 .707.707z" fill="#f6fafd"/><path d="m34.949 31.5a2.476 2.476 0 0 1 0 1h8.168a2 2 0 0 0 -1.317-.5 2 2 0 0 0 1.317-.5z" fill="#f6fafd"/><path d="m32.5 29.051v-8.168a2 2 0 0 0 -.5 1.317 2 2 0 0 0 -.5-1.317v8.168a2.476 2.476 0 0 1 1 0z" fill="#f6fafd"/><path d="m29.56 30.267a2.661 2.661 0 0 1 .707-.707l-5.767-5.76a1.94 1.94 0 0 0 .566 1.273 1.94 1.94 0 0 0 -1.266-.573z" fill="#f6fafd"/><path d="m29 32a2.942 2.942 0 0 1 .051-.5h-2.325q.767.517 1.558 1h.767a2.942 2.942 0 0 1 -.051-.5z" fill="#fffcdb"/><path d="m34.44 33.733a2.661 2.661 0 0 1 -.707.707l1.288 1.288c.69.25 1.392.475 2.1.686z" fill="#f6fafd"/><path d="m41.394 34.053c-.44.177-.524.745-.189 1.268a1.271 1.271 0 0 0 1.4.626c.44-.177.524-.745.189-1.268a1.271 1.271 0 0 0 -1.4-.626z" fill="#fdfdd7"/><path d="m36.394 33.053c-.44.177-.524.745-.189 1.268a1.271 1.271 0 0 0 1.4.626c.44-.177.524-.745.189-1.268a1.271 1.271 0 0 0 -1.4-.626z" fill="#fdfdd7"/><path d="m39.443 34.027c-.22.088-.262.372-.095.634a.638.638 0 0 0 .7.313c.22-.089.262-.373.094-.634a.634.634 0 0 0 -.699-.313z" fill="#fdfdd7"/><path d="m39.454 37.025c.165.038.329.079.495.114a.548.548 0 0 0 -.495-.114z" fill="#fdfdd7"/><path d="m40.443 33.027c-.22.088-.262.372-.095.634a.638.638 0 0 0 .7.313c.22-.089.262-.373.094-.634a.634.634 0 0 0 -.699-.313z" fill="#fdfdd7"/><path d="m26.852 24.947c.439-.177.524-.745.189-1.268a1.272 1.272 0 0 0 -1.4-.626c-.439.178-.523.745-.188 1.268a1.271 1.271 0 0 0 1.399.626z" fill="#fdfdd7"/><path d="m26.639 29.053c-.439.178-.523.745-.188 1.268a1.271 1.271 0 0 0 1.4.626c.439-.177.524-.745.189-1.268a1.272 1.272 0 0 0 -1.401-.626z" fill="#fdfdd7"/><path d="m24.9 29.34a.636.636 0 0 0 -.7-.313.354.354 0 0 0 -.17.463c.211.171.426.336.64.5a.383.383 0 0 0 .136-.02c.217-.085.259-.37.094-.63z" fill="#fdfdd7"/><path d="m24.8 26.973c.22-.088.262-.372.095-.633a.636.636 0 0 0 -.7-.313c-.22.088-.262.372-.095.633a.636.636 0 0 0 .7.313z" fill="#fdfdd7"/><path d="m28.8 22.973c.22-.088.262-.372.095-.633a.636.636 0 0 0 -.7-.313c-.22.088-.262.372-.095.633a.636.636 0 0 0 .7.313z" fill="#fdfdd7"/><path d="m28.8 24.973c.22-.088.262-.372.095-.633a.636.636 0 0 0 -.7-.313c-.22.088-.262.372-.095.633a.636.636 0 0 0 .7.313z" fill="#fdfdd7"/><path d="m30.8 25.973c.22-.088.262-.372.095-.633a.636.636 0 0 0 -.7-.313c-.22.088-.262.372-.095.633a.636.636 0 0 0 .7.313z" fill="#fdfdd7"/><path d="m28.8 26.973c.22-.088.262-.372.095-.633a.636.636 0 0 0 -.7-.313c-.22.088-.262.372-.095.633a.636.636 0 0 0 .7.313z" fill="#fdfdd7"/><path d="m30.8 22.973c.22-.088.262-.372.095-.633a.636.636 0 0 0 -.7-.313c-.22.088-.262.372-.095.633a.636.636 0 0 0 .7.313z" fill="#fdfdd7"/><path d="m30.8 27.973c.22-.088.262-.372.095-.633a.636.636 0 0 0 -.7-.313c-.22.088-.262.372-.095.633a.636.636 0 0 0 .7.313z" fill="#fdfdd7"/><path d="m41.394 30.947a1.271 1.271 0 0 0 1.4-.626c.335-.523.251-1.09-.189-1.268a1.271 1.271 0 0 0 -1.4.626c-.335.521-.251 1.091.189 1.268z" fill="#fdfdd7"/><path d="m39.394 27.947a1.271 1.271 0 0 0 1.4-.626c.335-.523.251-1.09-.189-1.268a1.271 1.271 0 0 0 -1.4.626c-.335.521-.251 1.091.189 1.268z" fill="#fdfdd7"/><path d="m37.394 24.947a1.271 1.271 0 0 0 1.4-.626c.335-.523.251-1.09-.189-1.268a1.271 1.271 0 0 0 -1.4.626c-.335.521-.251 1.091.189 1.268z" fill="#fdfdd7"/><path d="m40.049 29.027a.636.636 0 0 0 -.7.313c-.167.261-.125.545.095.633a.634.634 0 0 0 .7-.313c.167-.26.125-.545-.095-.633z" fill="#fdfdd7"/><path d="m35.443 22.973a.634.634 0 0 0 .7-.313c.168-.261.126-.545-.094-.633a.636.636 0 0 0 -.7.313c-.168.26-.126.545.094.633z" fill="#fdfdd7"/><path d="m35.443 24.973a.634.634 0 0 0 .7-.313c.168-.261.126-.545-.094-.633a.636.636 0 0 0 -.7.313c-.168.26-.126.545.094.633z" fill="#fdfdd7"/><path d="m33.443 24.973a.634.634 0 0 0 .7-.313c.168-.261.126-.545-.094-.633a.636.636 0 0 0 -.7.313c-.168.26-.126.545.094.633z" fill="#fdfdd7"/><path d="m35.443 26.973a.634.634 0 0 0 .7-.313c.168-.261.126-.545-.094-.633a.636.636 0 0 0 -.7.313c-.168.26-.126.545.094.633z" fill="#fdfdd7"/><path d="m33.443 22.973a.634.634 0 0 0 .7-.313c.168-.261.126-.545-.094-.633a.636.636 0 0 0 -.7.313c-.168.26-.126.545.094.633z" fill="#fdfdd7"/><path d="m33.443 27.973a.634.634 0 0 0 .7-.313c.168-.261.126-.545-.094-.633a.636.636 0 0 0 -.7.313c-.168.26-.126.545.094.633z" fill="#fdfdd7"/><path d="m38.143 30.66c.168-.261.126-.545-.094-.633a.636.636 0 0 0 -.7.313c-.167.261-.125.545.095.633a.634.634 0 0 0 .699-.313z" fill="#fdfdd7"/><path d="m36.443 29.973a.634.634 0 0 0 .7-.313c.168-.261.126-.545-.094-.633a.636.636 0 0 0 -.7.313c-.168.26-.126.545.094.633z" fill="#fdfdd7"/><path d="m35 32a3 3 0 1 0 -5.81 1.021 37.928 37.928 0 0 0 3.667 1.84 2.991 2.991 0 0 0 2.143-2.861zm-3 2a2 2 0 1 1 2-2 2 2 0 0 1 -2 2z" fill="#f6fafd"/><circle cx="32" cy="32" fill="#e8ffad" r="2"/><ellipse cx="20" cy="8" fill="#f6fafd" rx="1.65" ry="2.297" transform="matrix(.707 -.707 .707 .707 .204 16.492)"/><ellipse cx="24" cy="11" fill="#f6fafd" rx=".825" ry="1.148" transform="matrix(.707 -.707 .707 .707 -.746 20.201)"/><ellipse cx="11" cy="25" fill="#8bc808" rx=".825" ry="1.148" transform="matrix(.707 -.707 .707 .707 -14.459 15.109)"/><ellipse cx="21.746" cy="11.5" fill="#f6fafd" rx=".413" ry=".574" transform="matrix(.707 -.707 .707 .707 -1.76 18.753)"/></g></svg>