<svg xmlns="http://www.w3.org/2000/svg" version="1.1" xmlns:xlink="http://www.w3.org/1999/xlink" width="512" height="512" x="0" y="0" viewBox="0 0 512 512" style="enable-background:new 0 0 512 512" xml:space="preserve" class=""><g><path d="M141.241 247.172v-97.103C141.241 86.689 192.62 35.31 256 35.31s114.759 51.379 114.759 114.759v97.103h35.31v-97.103C406.069 67.188 338.881 0 256 0c-82.881 0-150.069 67.188-150.069 150.069v97.103h35.31z" style="" fill="#959cb5" data-original="#959cb5" class=""></path><path d="M105.931 211.862h35.31v35.31h-35.31zM370.759 211.862h35.31v35.31h-35.31z" style="" fill="#7f8499" data-original="#7f8499" class=""></path><path d="M88.276 264.828v172.141c0 20.562 11.772 39.474 30.481 48.002C155.721 501.823 203.629 512 256 512s100.279-10.177 137.244-27.029c18.709-8.529 30.481-27.441 30.481-48.002V264.828c0-19.501-15.809-35.31-35.31-35.31H123.586c-19.501-.001-35.31 15.808-35.31 35.31z" style="" fill="#e39176" data-original="#ffdc64" class="" opacity="1"></path><path d="M291.31 344.276c0-22.262-20.601-39.712-43.78-34.325-12.515 2.909-22.703 12.985-25.754 25.468-3.689 15.089 2.361 28.915 13.055 36.941 2.106 1.581 3.514 3.914 3.514 6.547v26.219c0 8.794 6.009 16.947 14.69 18.358 11.061 1.799 20.62-6.692 20.62-17.415V378.73c0-2.522 1.348-4.761 3.373-6.266 8.637-6.416 14.282-16.6 14.282-28.188z" style="" fill="#464655" data-original="#464655"></path><path d="M384 291.31c7.313 0 13.241-5.929 13.241-13.241v-8.828c0-7.313-5.929-13.241-13.241-13.241-7.313 0-13.241 5.929-13.241 13.241v8.828c0 7.313 5.928 13.241 13.241 13.241zM384 379.586c7.313 0 13.241-5.929 13.241-13.241v-44.138c0-7.313-5.929-13.241-13.241-13.241-7.313 0-13.241 5.929-13.241 13.241v44.138c0 7.312 5.928 13.241 13.241 13.241z" style="" fill="#ef7c56" data-original="#fff082" class="" opacity="1"></path><path d="M170.924 484.971c-12.801-8.529-20.855-27.442-20.855-48.002V264.828c0-19.501 10.817-35.31 24.16-35.31h-50.643c-19.501 0-35.31 15.809-35.31 35.31v172.14c0 20.562 11.772 39.474 30.482 48.002C155.721 501.822 203.629 512 256 512c1.768 0 3.485-.104 5.241-.127-34.418-.66-65.879-10.619-90.317-26.902z" style="" fill="#ef7c56" data-original="#ffc850" class="" opacity="1"></path></g></svg>