<svg id="Layer_1" enable-background="new 0 0 512 512" height="512" viewBox="0 0 512 512" width="512" xmlns="http://www.w3.org/2000/svg"><g><path d="m333.823 95.526c-38.211 0-69.299 31.001-69.299 69.106s31.088 69.106 69.299 69.106 69.299-31.001 69.299-69.106-31.088-69.106-69.299-69.106zm0 105.636c-20.231 0-36.632-16.355-36.632-36.53s16.401-36.53 36.632-36.53 36.632 16.355 36.632 36.53-16.401 36.53-36.632 36.53z" fill="#f0f4ff"/><path d="m315.989 154.621-3.236-18.878-59.329-33.756-56.699 33.756-3.236 18.878c-1.372 8.004-6.278 14.914-13.273 19.07-46.481 27.618-76.013 80.194-70.729 138.222l14.625 160.58c2.038 22.375 20.849 39.507 43.378 39.507h174.499c22.529 0 41.34-17.132 43.377-39.506l14.625-160.58c5.285-58.027-24.248-110.604-70.729-138.222-6.995-4.157-11.901-11.067-13.273-19.071z" fill="#f07507"/><path d="m329.262 173.691c-6.995-4.156-11.901-11.066-13.273-19.07l-3.236-18.878-41.3-2.85 3.329 21.728c1.372 8.004 6.278 14.914 13.273 19.07 46.481 27.618 76.013 80.194 70.729 138.222l-14.625 160.58c-2.038 22.375-20.849 39.507-43.377 39.507h41.207c22.529 0 41.34-17.132 43.377-39.507l14.625-160.58c5.284-58.027-24.248-110.603-70.729-138.222z" fill="#d96a06"/><g><path d="m193.762 465.565h121.956c16.543 0 30.356-12.58 31.852-29.01l9.108-96.978c5.397-59.261-42.192-112.569-101.938-112.569-59.748 0-107.335 53.307-101.938 112.569l9.108 96.978c1.495 16.429 15.309 29.01 31.852 29.01z" fill="#f0f4ff"/></g><g fill="#fc3869"><path d="m254.735 287.99-26.913 26.046 9.131 44.16-22.312-24.942-25.025 2.421.638 26.955 26.604 21.616.609 24.266 37.268-18.611h.004l37.268 18.611.608-24.266 26.605-21.616.637-26.955-25.025-2.421-22.312 24.942 9.131-44.16-26.912-26.046"/><path d="m254.738 384.28c-4.268 0-7.726 3.459-7.726 7.726v35.51c0 4.267 3.459 7.726 7.726 7.726s7.726-3.459 7.726-7.726v-35.51c.001-4.267-3.458-7.726-7.726-7.726z"/></g><g><path d="m300.78 65.896h-92.082l-11.973 69.848h116.028z" fill="#f0f4ff"/></g><path d="m300.78 65.896h-41.207l11.973 69.848h41.207z" fill="#e1e7f7"/><path d="m311.821 65.896h-114.164v-45.306c0-11.372 9.218-20.59 20.59-20.59h72.984c11.372 0 20.59 9.218 20.59 20.59z" fill="#fc3869"/><path d="m291.231 0h-41.207c11.371 0 20.59 9.219 20.59 20.59v45.306h41.207v-45.306c0-11.371-9.218-20.59-20.59-20.59z" fill="#e83361"/></g></svg>