<svg id="Capa_1" enable-background="new 0 0 512 512" viewBox="0 0 512 512" xmlns="http://www.w3.org/2000/svg"><g><path d="m231.194 90.54v-44.275h-186.911v44.275c0 9.036-5.582 17.214-14.087 20.268-17.604 6.321-30.196 23.152-30.196 42.932v46.02l10.302 92.13-10.302 81.376v65.935c0 25.195 20.425 45.62 45.62 45.62h184.237c25.195 0 45.62-20.425 45.62-45.62v-65.935l-10.302-84.217 10.302-89.289v-46.02c0-19.781-12.592-36.612-30.196-42.933-8.504-3.053-14.087-11.231-14.087-20.267z" fill="#f47c7c"/><path d="m245.281 110.808c-8.505-3.054-14.087-11.232-14.087-20.268v-44.275h-40.311v55.606c0 9.036 5.582 17.214 14.087 20.268 17.604 6.321 30.196 23.152 30.196 42.933v274.128c0 25.195-20.425 45.62-45.62 45.62h40.312c25.195 0 45.62-20.425 45.62-45.62v-65.935l-10.302-70.484 10.302-103.021v-46.02c-.001-19.78-12.592-36.611-30.197-42.932z" fill="#ee6161"/><path d="m275.477 373.266v-173.505h-35.717c-5.736 0-10.725-3.882-12.181-9.43-4.13-15.735-15.403-28.978-30.907-35.378l-47.167-19.468c-7.536-3.111-15.997-3.111-23.533 0l-47.167 19.468c-15.504 6.399-26.777 19.643-30.907 35.378-1.456 5.548-6.445 9.43-12.181 9.43h-35.717v173.505h37.31c5.198 0 9.972 3.14 11.768 8.018 6.634 18.022 23.947 30.879 44.272 30.879h88.777c20.325 0 37.638-12.857 44.272-30.879 1.795-4.878 6.57-8.018 11.768-8.018z" fill="#f9f7f8"/><path d="m275.477 199.761h-35.717c-1.613 0-3.162-.316-4.595-.881v174.745c.972-.233 1.977-.359 3.001-.359h37.31v-173.505z" fill="#efedef"/><path d="m12.848 43.091v8.917c0 8.788 7.124 15.913 15.913 15.913h217.957c8.788 0 15.913-7.124 15.913-15.913v-8.917c0-8.788-7.124-15.913-15.913-15.913h-217.958c-8.788.001-15.912 7.125-15.912 15.913z" fill="#0681af"/><path d="m246.717 27.179h-39.147c8.788 0 15.913 7.124 15.913 15.913v8.917c0 8.788-7.124 15.913-15.913 15.913h39.147c8.788 0 15.913-7.124 15.913-15.913v-8.917c0-8.789-7.125-15.913-15.913-15.913z" fill="#017297"/><ellipse cx="411.335" cy="384.156" fill="#f47c7c" rx="100.665" ry="100.665" transform="matrix(.96 -.28 .28 .96 -91.021 130.362)"/><path d="m411.335 283.491c-6.184 0-12.236.561-18.111 1.628 46.951 8.531 82.554 49.625 82.554 99.037 0 49.413-35.603 90.507-82.554 99.037 5.875 1.068 11.928 1.628 18.111 1.628 55.596 0 100.665-45.069 100.665-100.665s-45.069-100.665-100.665-100.665z" fill="#ee6161"/><path d="m460.515 281.912c8.696-13.71 14.517-30.032 13.742-44.604-.176-3.312-4.331-4.708-6.405-2.121-13.315 16.608-42.982 32.924-59.346 34.368-23.076 2.036-54.892-5.783-69.69-22.457-2.194-2.472-6.357-.85-6.27 2.454.505 19.177 12.726 35.645 30.408 45.928 3.23 1.878 4.466 5.883 2.85 9.251-6.029 12.569-9.322 27.737-7.349 44.498.496 4.216 6.087 5.318 8.172 1.621 10.825-19.194 35.006-39.851 48.249-43.53 17.205 13.429 64.238 23.613 91.87 5.262 2.714-1.802 1.878-5.998-1.328-6.577-11.923-2.152-27.487-5.875-42.38-14.084-3.576-1.971-4.71-6.561-2.523-10.009z" fill="#97da7b"/><path d="m411.342 291.078c-2.569 0-5.082-1.282-6.55-3.618-8.809-14.026-10.793-33.91-5.179-51.895 5.301-16.983 16.262-29.782 30.863-36.039 3.922-1.682 8.465.136 10.145 4.058 1.681 3.922-.136 8.464-4.058 10.145-10.382 4.45-18.266 13.839-22.199 26.441-4.306 13.793-2.959 28.765 3.515 39.071 2.27 3.614 1.18 8.383-2.434 10.653-1.277.802-2.699 1.184-4.103 1.184z" fill="#0681af"/></g><g/><g/><g/><g/><g/><g/><g/><g/><g/><g/><g/><g/><g/><g/><g/></svg>