<svg id="Capa_1" enable-background="new 0 0 512 512" height="512" viewBox="0 0 512 512" width="512" xmlns="http://www.w3.org/2000/svg"><g><g><g><path d="m446.29 262.657c.024-4.434-2.335-8.547-6.194-10.731-4.746-2.686-11.306-6.879-16.395-11.968-9.01-9.01-4.402-13.619-13.412-22.629-9.009-9.009-13.617-4.401-22.626-13.41s-4.4-13.617-13.409-22.626c-9.005-9.006-13.614-4.397-22.619-13.403-9.008-9.008-4.4-13.616-13.408-22.624-9.007-9.007-13.615-4.398-22.622-13.405s-4.398-13.615-13.405-22.622c-9.006-9.006-13.614-4.397-22.62-13.403-9.007-9.007-4.399-13.616-13.406-22.623-8.06-8.06-12.602-5.229-19.922-10.999-2.036.907-3.977 2.099-5.749 3.601l-.012.01c-.138.117-.275.244-.403.37-8.881 8.748-13.488 4.272-22.432 13.217-9.009 9.009-4.401 13.617-13.41 22.626s-13.617 4.4-22.626 13.409c-9.005 9.005-4.397 13.614-13.403 22.619-9.008 9.008-13.616 4.4-22.624 13.408-9.007 9.007-4.398 13.615-13.405 22.622s-13.615 4.398-22.622 13.405c-9.006 9.006-4.397 13.614-13.403 22.62-9.007 9.007-13.616 4.399-22.623 13.406-9.006 9.006-4.397 13.614-13.403 22.62-7.692 7.692-25.318 8.817-24.681 14.591.829 7.512 2.064 14.973 2.064 22.53v6.929h408.593l.063-6.18z" fill="#e7ab8a"/></g><path d="m451.852 246.137c-9.01-9.01-4.402-13.619-13.412-22.629-9.009-9.009-13.617-4.401-22.626-13.41s-4.4-13.617-13.409-22.626c-9.006-9.005-13.614-4.397-22.619-13.403-9.008-9.008-4.4-13.616-13.408-22.624-9.007-9.007-13.615-4.398-22.622-13.405s-4.398-13.615-13.405-22.622c-9.006-9.006-13.614-4.397-22.62-13.403-9.007-9.007-4.399-13.616-13.406-22.623-8.939-8.939-13.545-4.465-22.419-13.204-.125-.115-.254-.234-.378-.349-8.943-7.602-22.073-7.61-31.025-.024l-.012.01c-.138.117-.275.244-.403.37-.428.421-.843.803-1.252 1.166 8.069 7.154 12.654 3.526 21.159 12.031 9.007 9.007 4.399 13.616 13.406 22.623 9.006 9.006 13.614 4.397 22.62 13.403 9.007 9.007 4.398 13.615 13.405 22.622s13.615 4.398 22.622 13.405c9.008 9.008 4.4 13.616 13.408 22.624 9.005 9.005 13.614 4.397 22.619 13.403 9.009 9.009 4.4 13.617 13.409 22.626s13.617 4.401 22.626 13.41c9.01 9.01 4.402 13.619 13.412 22.629 5.089 5.089 11.65 9.283 16.395 11.968 3.859 2.184 6.218 6.296 6.194 10.731l-.116 21.362h34.331l.041-6.782c.045-7.465.244-15.022 2.098-22.252 1.58-6.161-16.729-7.143-24.613-15.027z" fill="#df9874"/><g><path d="m488.791 266.474h-477.762c-8.297 0-13.584 8.798-9.764 16.164 43.708 84.287 138.052 143.244 248.06 145.544 108.129-11.767 198.464-75.102 239.466-161.708z" fill="#f0f0f3"/><path d="m500.971 266.474h-22.072c-42.241 90.954-142.409 154.919-259.289 154.919-13.547 0-26.867-.868-39.901-2.529 24.257 6.12 49.847 9.395 76.292 9.395 112.858 0 210.145-59.634 254.735-145.622 3.819-7.365-1.468-16.163-9.765-16.163z" fill="#e0dde2"/><path d="m327.495 438.988v-28.096h-174.232v26.895c0 7.777 6.304 14.081 14.081 14.081h151.747c4.948-2.184 8.404-7.125 8.404-12.88z" fill="#e0dde2"/><path d="m322.689 410.892v26.895c0 7.777-6.304 14.081-14.081 14.081h36.047c7.777 0 14.081-6.304 14.081-14.081v-26.895z" fill="#c8c1c9"/></g></g></g></svg>