<svg height="512" viewBox="0 0 256 256" width="512" xmlns="http://www.w3.org/2000/svg"><g id="Icons"><g><path d="m46.84 147.82-15.822 15.822c-2.211 2.211-2.211 5.796 0 8.007l53.103 53.103c2.211 2.211 5.796 2.211 8.007 0l15.822-15.822c2.211-2.211 2.211-5.796 0-8.007l-53.103-53.103c-2.211-2.211-5.796-2.211-8.007 0z" fill="#f0c020"/><path d="m75.444 137.386h22.285v63.594h-22.285z" fill="#f0c020" transform="matrix(.707 -.707 .707 .707 -94.27 110.779)"/><path d="m116.945 183.785-8.02 8.03-44.97-44.97 8.03-8.02z" fill="#e8a61e"/><path d="m112.338 82.322-47.498 47.498c-2.211 2.211-2.211 5.796 0 8.007l53.103 53.103c2.211 2.211 5.796 2.211 8.007 0l47.498-47.498z" fill="#f0c020"/><path d="m180.512 33.657c-19.346 19.346-41.69 35.441-66.168 47.664l-2.006 1.002 61.11 61.11 1.002-2.006c12.222-24.478 28.317-46.822 47.664-66.168z" fill="#f0c020"/><g fill="#e8a61e"><path d="m107.945 208.935-15.82 15.82c-2.21 2.21-5.79 2.21-8 0l-53.11-53.11c-2.21-2.21-2.21-5.79 0-8l1-1 52.11 52.11c2.21 2.21 5.79 2.21 8 0l14.83-14.82.99.99c2.22 2.21 2.22 5.79 0 8.01z"/><path d="m173.445 143.435-47.5 47.5c-2.21 2.21-5.79 2.21-8 0l-53.11-53.11c-2.21-2.21-2.21-5.79 0-8l1-1 52.11 52.11c2.21 2.21 5.79 2.21 8 0l42.5-42.5z"/><path d="m222.115 75.255c-19.35 19.35-35.44 41.69-47.67 66.17l-1 2.01-61.11-61.11 2.01-1c1.55-.78 3.09-1.57 4.62-2.37l54.48 54.48 1-2.01c11.18-22.37 25.58-42.95 42.74-61.1z"/><path d="m222.115 75.255c-1.65 1.65-3.28 3.33-4.88 5.03l-41.75-41.75c1.7-1.6 3.38-3.23 5.03-4.88z"/></g><path d="m233.982 10.643-8.648 8.648 11.146 11.146 8.648-8.648c3.078-3.078 3.078-8.068 0-11.146-3.078-3.078-8.069-3.078-11.146 0z" fill="#f0c020"/><path d="m229.213 12.898h11.575v15.754h-11.575z" fill="#e8a61e" transform="matrix(.708 -.707 .707 .708 54.049 172.147)"/><path d="m199.487 14.582-8.071 8.071 41.701 41.701 8.071-8.071c7.624-7.624 7.624-19.985 0-27.608l-14.093-14.093c-7.623-7.624-19.984-7.624-27.608 0z" fill="#f0c020"/><path d="m210.762 10.388h10.267v58.973h-10.267z" fill="#e8a61e" transform="matrix(.707 -.707 .707 .707 35.039 164.34)"/><path d="m80.863 73.632c-3.729-1.228-6.641-2.022-8.591-10.421-.635-2.737-4.548-2.73-5.181 0-1.907 8.213-4.566 9.092-8.591 10.422-2.424.801-2.43 4.248 0 5.051 6.686 2.209 7.444 5.476 8.591 10.421.637 2.743 4.545 2.742 5.182 0 1.905-8.212 4.709-9.139 8.591-10.421 2.423-.802 2.429-4.25-.001-5.052z"/><path d="m73.666 76.186c-1.47 1.03-2.79 2.42-3.93 4.43-.94-1.58-2.25-3.08-4.17-4.4 1.55-1.06 2.94-2.5 4.13-4.64 1.2 2.161 2.56 3.601 3.97 4.61z" fill="#f0c020"/><path d="m190.791 183.56c-3.729-1.228-6.641-2.022-8.591-10.421-.635-2.737-4.548-2.73-5.181 0-1.907 8.213-4.566 9.092-8.591 10.422-2.424.801-2.43 4.248 0 5.051 6.686 2.209 7.444 5.476 8.591 10.421.637 2.743 4.545 2.742 5.182 0 1.905-8.212 4.709-9.139 8.591-10.421 2.423-.802 2.429-4.249-.001-5.052z"/><path d="m183.594 186.115c-1.47 1.03-2.79 2.42-3.93 4.43-.94-1.58-2.25-3.08-4.17-4.4 1.55-1.06 2.94-2.5 4.13-4.64 1.2 2.16 2.56 3.6 3.97 4.61z" fill="#f0c020"/><path d="m185.51 19.207-6.189 6.189c-1.953 1.953-1.953 5.118 0 7.071l43.982 43.982c1.953 1.953 5.118 1.953 7.071 0l6.189-6.189c1.953-1.953 1.953-5.118 0-7.071l-43.982-43.982c-1.952-1.953-5.118-1.953-7.071 0z" fill="#f0c020"/><path d="m152.93 140.592-40.592-40.592-23.276 23.275c-.976.977-2.56.977-3.535 0-.977-.977-.977-2.559 0-3.535l25.043-25.043c.976-.977 2.56-.977 3.535 0l42.359 42.359c.977.977.977 2.559 0 3.535-.975.977-2.559.977-3.534.001zm-76.596-8.125c-.977-.977-.977-2.559 0-3.535l2.121-2.121c.976-.977 2.56-.977 3.535 0 .977.977.977 2.559 0 3.535l-2.121 2.121c-.975.977-2.559.977-3.535 0z" fill="#f8e5b0"/><path d="m131.435 83.548c-.694-1.193-.289-2.724.904-3.418.857-.498 1.711-1.002 2.562-1.509 1.186-.708 2.721-.318 3.428.867.707 1.187.319 2.721-.867 3.428-.866.517-1.736 1.028-2.608 1.536-1.198.694-2.726.287-3.419-.904zm11.138-6.702c-.751-1.158-.422-2.706.736-3.458 11.296-7.333 22.114-15.617 32.155-24.624 1.028-.922 2.608-.837 3.53.192.922 1.027.836 2.608-.191 3.53-10.233 9.179-21.259 17.622-32.771 25.095-1.15.749-2.703.429-3.459-.735z" fill="#f8e5b0"/><path d="m79.315 172.285c.97-.971.97-2.561 0-3.53-.95-.95-2.59-.95-3.54 0-.997.996-.951 2.578 0 3.53.944.944 2.516 1.002 3.54 0z"/><path d="m149.635 163.705c-.972.972-.976 2.562 0 3.54.975.974 2.567.973 3.54 0 .976-.977.972-2.569 0-3.54-.95-.941-2.59-.941-3.54 0z"/><path d="m246.892 8.876c-4.059-4.056-10.611-4.061-14.677.003l-3.655 3.663c-8.649-8.349-22.336-8.23-30.845.276l-4.03 4.038c-2.94-2.321-7.23-2.129-9.943.583l-6.189 6.188c-2.722 2.723-2.906 7.035-.559 9.976-20.126 19.74-41.286 34.252-65.774 46.482-.13.065-.565.383-.65.469l-47.498 47.498c-3.183 3.182-3.183 8.36 0 11.542l2.3 2.3-6.455 6.462-2.296-2.295c-.003-.003-.004-.006-.007-.008-3.181-3.183-8.36-3.183-11.542 0l-15.822 15.822c-3.183 3.182-3.183 8.36 0 11.542l53.103 53.104c3.179 3.181 8.36 3.184 11.542 0l15.822-15.822c3.183-3.182 3.183-8.36 0-11.542-.003-.002-.006-.004-.008-.007l-2.296-2.296 6.462-6.455 2.299 2.299c3.18 3.182 8.359 3.182 11.542 0 .011-.011.018-.024.028-.035l18.359-18.349c1.013-1.034.934-2.604 0-3.54-.95-.939-2.59-.939-3.54 0l-18.356 18.367c-.008.008-.018.014-.027.022-1.233 1.231-3.238 1.233-4.472 0l-53.103-53.104c-1.232-1.233-1.232-3.238 0-4.472l45.73-45.73 57.572 57.573-13.205 13.205c-.97.97-.97 2.56 0 3.54 1.036 1.014 2.605.935 3.54 0l14.938-14.948c.426-.413.771-1.218 1.503-2.682 11.759-23.552 27.06-44.989 45.48-63.768 2.961 2.363 7.266 2.152 9.976-.559l6.189-6.188c2.724-2.725 2.91-6.996.589-9.936l4.033-4.04c8.479-8.478 8.649-22.161.282-30.835l3.655-3.662c4.052-4.037 4.079-10.607.005-14.681zm-143.014 184.442-17.493-17.493c-.95-.95-2.59-.95-3.54 0-.978.978-.969 2.56 0 3.529 14.785 14.778 19.096 19.087 23.294 23.284.016.017.027.037.044.053 1.232 1.233 1.232 3.238 0 4.472l-15.823 15.822c-1.233 1.232-3.238 1.232-4.472 0l-53.103-53.104c-1.232-1.233-1.232-3.238 0-4.472l15.822-15.822c1.232-1.23 3.232-1.232 4.466-.005.001 0 .001.001.002.002l15.63 15.63c.943.943 2.525 1.003 3.53 0 .948-.927 1.027-2.512 0-3.54l-9.783-9.783 6.455-6.462 41.433 41.433zm68.886-54.105-56.206-56.207c23.588-11.917 45.083-27.32 63.946-45.821l38.083 38.083c-18.501 18.861-33.905 40.356-45.823 63.945zm66.652-84.695-3.995 4.001-13.356-13.364c-.94-.94-2.59-.94-3.53 0-.986.965-.989 2.571 0 3.539 4.512 4.512 13.583 13.583 16.254 16.255.003.002.004.006.007.008.976.977.977 2.558 0 3.536l-6.188 6.188c-.975.975-2.562.975-3.536 0l-43.982-43.982c-.975-.975-.975-2.562 0-3.536l6.188-6.188c.975-.975 2.562-.975 3.536 0 .003.002.005.004.008.007 1.504 1.505 9.439 9.446 13.563 13.573 1.021.999 2.591.949 3.54 0 .989-1.009.958-2.583 0-3.54l-10.663-10.663 3.991-3.999c6.655-6.654 17.42-6.663 24.075 0 1.198 1.198 12.128 12.128 14.091 14.091 6.656 6.649 6.659 17.414-.003 24.074zm3.94-34.5-3.642 3.649-7.604-7.604 3.643-3.65c2.106-2.105 5.498-2.106 7.605-.001 2.093 2.093 2.117 5.494-.002 7.606z"/><path d="m24.77 190.821-3.542 3.542c-.977.977-.977 2.559 0 3.535.976.976 2.56.977 3.535 0l3.542-3.542c.977-.977.977-2.559 0-3.535-.975-.977-2.559-.977-3.535 0z"/><path d="m39.318 208.159-3.542 3.542c-.977.977-.977 2.559 0 3.535.976.976 2.56.977 3.535 0l3.542-3.542c.977-.977.977-2.559 0-3.535-.976-.977-2.56-.977-3.535 0z"/><path d="m57.407 222.707-3.542 3.542c-.976.977-.976 2.56 0 3.535.977.977 2.559.976 3.536 0l3.542-3.542c.976-.977.976-2.56 0-3.535-.977-.977-2.559-.977-3.536 0z"/><path d="m19.457 219.165-3.542 3.542c-.977.977-.977 2.559 0 3.535.976.976 2.56.977 3.535 0l3.542-3.542c.977-.977.977-2.559 0-3.535-.975-.977-2.559-.977-3.535 0z"/><path d="m33.74 240.588-3.542 3.541c-.977.976-.977 2.559 0 3.535.977.977 2.559.977 3.536 0l3.542-3.541c.977-.976.977-2.559 0-3.535-.977-.977-2.56-.978-3.536 0z"/><path d="m10.337 242.358-3.542 3.542c-.977.977-.977 2.559 0 3.535.976.976 2.56.977 3.535 0l3.542-3.542c.977-.977.977-2.559 0-3.535-.976-.976-2.56-.976-3.535 0z"/><path d="m211.465 38.085c-.98.979-.98 2.56 0 3.54.983.982 2.566.964 3.53 0 .98-.98.98-2.561 0-3.54-.94-.941-2.59-.941-3.53 0z"/></g></g></svg>