<svg id="Слой_1" enable-background="new 0 0 512 512" height="512" viewBox="0 0 512 512" width="512" xmlns="http://www.w3.org/2000/svg"><g><path d="m369.8 63.1-32.1-47.8c-1.7-2.5-4.5-3.9-7.4-3.9-.9 0-1.9.1-2.8.5l-73.7 24.6c-3.1 1-5.3 3.6-5.9 6.8-.1.6-.1 1.1-.1 1.7l-42.5-34.5c-1.6-1.3-3.6-2-5.6-2-2.4 0-4.8 1-6.5 2.8l-47.3 50.7c-2.4 2.6-3 6.3-1.6 9.6 1.4 3.2 4.6 5.3 8.1 5.3h109.9c3.8 0 7.1-2.4 8.4-5.9.4-1 .5-2 .5-3l8.6 7c1.6 1.3 3.6 2 5.6 2h77.1c3.3 0 6.3-1.8 7.8-4.7 1.5-3 1.3-6.5-.5-9.2z" fill="#e96649"/><path d="m410.9 73.7h-309.8c-4.9 0-8.9 4-8.9 8.9v35c0 4.9 4 8.9 8.9 8.9h64.1v31.4c0 3.2 1.8 6.2 4.6 7.8.5.3 1.1.5 1.7.7-38.7 27.2-64.1 72.2-64.1 123.1 0 35.4 12.6 69.8 35.5 96.9 1.7 2 4.2 3.1 6.8 3.1.4 0 .8 0 1.2-.1 3-.4 5.6-2.3 6.9-5.1 2-4.4 3.9-9.1 3.8-14.7-.1-6.2-3.5-11.3-6.9-16.2-3.4-5-6.6-9.7-6.2-15.2.3-4.5 3-8.2 5.9-12.1 2.8-3.8 5.7-7.8 6.4-12.7 1.1-7.1-2.4-13.2-5.8-19.2-1.4-2.5-2.7-4.8-3.7-7.2-5.5-12.7-1.7-29.5 8.6-38.1 4.9-4.1 11.3-6.4 17.8-6.4 2.3 0 4.5.3 6.7.8.7.2 1.4.2 2.1.2 2 0 4-.7 5.6-2 2.1-1.8 3.3-4.4 3.2-7.2-.3-8.8 2.8-17 8.4-22.2 3.8-3.5 8.8-5.4 14.2-5.4.9 0 1.9.1 2.9.2 1.2.2 2.4.4 3.5.7.8.3 1.7.4 2.6.4 1.7 0 3.4-.5 4.8-1.4 2.2-1.4 3.6-3.8 4-6.4.8-6.3 3.7-12.1 8-15.8 3.8-3.3 8.8-5.2 14.1-5.2 5.1 0 10 1.8 13.7 4.9 4.5 3.8 7.5 9.7 8.3 16.3.3 2.6 1.8 5 4 6.4 1.5.9 3.1 1.4 4.8 1.4.9 0 1.8-.1 2.7-.4 1.5-.5 3.1-.8 4.7-1 .8-.1 1.5-.1 2.3-.1 5.2 0 10.1 1.7 13.8 4.8 5.4 4.6 8.6 12.4 8.4 20.4-.1 2.8 1.2 5.6 3.4 7.3 1.6 1.2 3.5 1.8 5.4 1.8.8 0 1.7-.1 2.5-.4 2.6-.8 5.2-1.2 7.7-1.2s4.9.4 7.1 1.2c4.7 1.6 8.7 5.1 10.8 9.7 3.4 7.2 1.3 12.7-2.6 20.9-2.4 5.1-4.9 10.3-4.5 16.1.4 6 3.7 9.9 6.9 13.7 3.8 4.5 6.1 7.5 5.9 12.4s-3.1 9-6.1 13.4c-3.2 4.6-6.5 9.3-6.7 15.2-.2 6.4 3.3 11.8 6.7 16.9 2.9 4.4 5.9 8.9 6.2 13.9.2 3.8 2.7 7 6.3 8.1.8.3 1.7.4 2.5.4 2.8 0 5.5-1.3 7.2-3.6 18.9-25.9 28.9-56.5 28.9-88.5 0-49.8-24.4-94-61.8-121.4.6-.2 1.2-.4 1.8-.7 2.9-1.5 4.7-4.5 4.7-7.8v-33h58c4.9 0 8.9-4 8.9-8.9v-35c.1-4.8-3.9-8.7-8.8-8.7z" fill="#dac6bc"/><path d="m362 461.2c-2.2-4.4-4.3-8.5-4.3-12.9 0-3.2 1.4-7 2.8-10.9 2.2-6.3 3.7-11.2 2.8-15.6-.6-2.6-1.7-5.4-2.8-8.4-1.7-4.4-3.3-8.5-3.4-12-.2-5.1 2.1-9.1 4.5-13.2 2.4-4.2 4.9-8.5 5-14.2.1-6.3-3.4-11.6-6.8-16.7-3.3-4.9-6.4-9.6-6.2-15 .2-4.9 3.1-9 6.1-13.4 3.2-4.6 6.4-9.3 6.7-15.1.3-6.5-3.2-10.6-6.6-14.6-3-3.5-5.8-6.9-6.2-11.8-.4-5 1.9-9.6 4.2-14.5 3.3-6.8 7-14.6 2.6-23.7-2.5-5.3-7.2-9.4-12.7-11.3-2.6-.9-5.4-1.3-8.2-1.3-5.4 0-11 1.6-16.8 4.8s0 0-.1 0c-.2.1-.4.2-.5.2 0-.2.1-.5.1-.7s0-.2 0-.2c3.6-11.1.2-24.3-8.1-31.3-4.3-3.6-9.9-5.6-15.8-5.6-.9 0-1.8 0-2.7.1-4.8.5-9.2 2.3-12.9 5 1.7-9.8-1.7-20.8-9.1-27-4.3-3.7-10-5.7-15.8-5.7-6 0-11.8 2.1-16.2 6-7.1 6.2-10.4 16.8-8.8 26.4-3.2-2.5-7.1-4.1-11.5-4.6-1.1-.1-2.1-.2-3.2-.2-6.2 0-12 2.2-16.4 6.2-8.5 7.8-11.6 21.8-7.9 33.8-4.8-2.8-10.3-4.3-16-4.3-7.3 0-14.4 2.5-19.9 7-11.4 9.5-15.5 27.8-9.5 41.8 1.1 2.6 2.5 5.1 3.9 7.5 3.3 5.7 6.3 11.2 5.4 17.1-.7 4.1-3.2 7.6-5.8 11.3-3 4.1-6.1 8.4-6.5 13.7-.5 6.6 3.2 12 6.7 17.2 3.2 4.8 6.3 9.2 6.3 14.4.1 5.4-2 10-4.3 14.8-2.3 5-4.7 10.1-4.6 16.2.1 5.9 2.5 10.9 4.7 15.7 2.4 5.1 4.7 9.9 4.3 15.5-.3 4.2-2.8 7.8-5.4 11.6-1.5 2.1-3 4.3-4.2 6.7-6.8 13.9.5 29 3 33.3 5.2 9.1 12.4 15.6 20.4 18.3 2.6.8 5.2 1.3 7.9 1.3 6.4 0 12.4-2.4 16.6-6.6.4.5.8 1 1.4 1.5 4.2 3.7 9.8 5.7 15.7 5.7.5 0 1.1 0 1.6-.1 7.1-.4 13.4-3.7 17.6-8.9 4.5 7.1 12.5 11.7 20.4 11.7h.7c8.1-.3 15.9-5.2 20.1-12.5 4.4 7.5 12.6 12.4 20.9 12.4.5 0 1.1 0 1.6-.1 7.8-.6 14.8-6 17.7-13.4 4.2 8.6 14.8 12.5 23 12.5 1 0 1.9-.1 2.8-.2 10.6-1.3 19.6-8.9 24.2-20.3 1-2.4 1.6-5 1.9-7.9.7-5.5-1.9-10.6-4.4-15.5z" fill="#e96649"/><path d="m418.2 68h-38.3l-40.6-60.5c-1.8-2.7-5.2-3.9-8.3-2.8l-87.7 29.2-39.8-32.3c-3-2.4-7.3-2.1-9.9.7l-61 65.7h-38.8c-4 0-7.3 3.2-7.3 7.3v49.6c0 4 3.2 7.3 7.3 7.3h65.7v36.3c-35.2 28.6-57.8 72.3-57.8 121.1 0 41.3 16.2 78.9 42.4 106.8-.2 1.5-.3 3-.3 4.6.1 7.2 2.9 13 5.3 18.1 2.2 4.6 4.1 8.5 3.7 12.7-.2 2.7-2.2 5.5-4.4 8.8-1.6 2.3-3.2 4.7-4.6 7.4-5.4 11.1-4.3 25.5 3.1 38.5 5.8 10.4 14.2 17.8 23.6 20.9 9 3 18.8 1.6 26.2-3.3 5.4 3.8 12.2 5.7 19.2 5.3 6.2-.4 12-2.6 16.7-6.1 5.6 5.6 13.2 8.9 20.9 8.9h1c7.4-.3 14.5-3.6 19.9-9 6.1 6.1 14.5 9.5 23 8.8 6.8-.5 13.2-3.9 17.7-9.1 7.7 7.1 19.1 8.8 26 8 12.6-1.5 23.4-10.4 28.7-23.8 1.2-2.9 1.9-6 2.3-9.4.7-7.3-2.4-13.5-5.1-18.9-1.9-3.7-3.7-7.3-3.7-10.3 0-2.2 1.3-5.7 2.5-9.1 2-5.8 4.4-12.3 3-18.7-.7-3-1.9-6.2-3.1-9.3-.9-2.3-1.9-4.8-2.5-7 31.1-28.5 50.6-69.5 50.6-114.9 0-47.7-21.5-90.4-55.3-119v-38.3h59.7c4 0 7.3-3.2 7.3-7.3v-49.6c-.1-4-3.3-7.3-7.3-7.3zm-87.9-47.8 32.1 47.8h-77.1l-28.6-23.3zm-130.6-3 62.6 50.8h-109.9zm-6.6 422.4c-3.9 3.5-9.2 8.2-9.2 18.9 0 8 2.5 12.3 4.5 15.8s3.7 6.4 2.2 15.9c-3.7 3.7-9.9 5.1-15.5 3.2-5.9-2-11.4-7-15.5-14.2-3.9-6.9-6.6-17.1-2.7-25 .9-1.8 2.1-3.6 3.5-5.5 3-4.4 6.5-9.3 7-15.9.6-8-2.4-14.4-5.1-20-2.1-4.3-3.8-8.1-3.9-12-.1-4.1 1.7-8 3.8-12.4 2.4-5.3 5.2-11.3 5.1-18.7-.1-7.9-4.2-13.9-7.9-19.3-2.9-4.3-5.5-8.1-5.2-11.6.2-2.9 2.3-5.8 4.8-9.2 3-4.2 6.5-8.9 7.4-15.1 1.4-9-2.8-16.4-6.4-22.9-1.3-2.3-2.6-4.5-3.5-6.6-4.5-10.4-1.3-24.5 7-31.5 7.6-6.3 19.1-6.6 27.1-1-.3 4.3-1.1 6.5-2.2 9.1-1.6 3.8-3.3 8.1-3.3 17.1 0 10 4.2 15.2 7.6 19.4 2.8 3.5 4.6 5.8 4.7 11 0 5.3-1.8 7.6-4.6 11.1-3.4 4.2-7.5 9.5-7.5 19.5s4.2 15.2 7.6 19.4c2.8 3.5 4.6 5.8 4.6 11 0 5.3-1.8 7.6-4.6 11.1-3.4 4.2-7.5 9.5-7.5 19.5s4.2 15.2 7.6 19.4c2.8 3.5 4.6 5.8 4.7 11 .1 4.3-1.5 5.7-4.6 8.5zm35.8-3.6c-3.3 4.6-7.3 10.4-7.3 21.2 0 9.1 2.5 13.5 4.3 16.8 1.7 3 2.9 5.2 1.2 14-2.4 3.9-7 6.5-12.1 6.8-4.2.3-8.1-1-10.9-3.5 1.7-12.5-.8-18.2-4-23.7-1.6-2.8-2.7-4.6-2.7-9.1 0-4.6 1.6-6 4.7-8.8 3.9-3.5 9.2-8.2 9.2-18.9 0-10-4.2-15.2-7.6-19.4-2.8-3.5-4.6-5.8-4.6-11 0-5.3 1.8-7.6 4.6-11.1 3.4-4.2 7.5-9.5 7.5-19.5s-4.2-15.2-7.6-19.4c-2.8-3.5-4.6-5.8-4.6-11 0-5.3 1.8-7.6 4.6-11.1 3.4-4.2 7.5-9.5 7.5-19.5s-4.2-15.2-7.6-19.4c-2.8-3.5-4.6-5.8-4.6-11 0-6.3 1-8.8 2.3-11.9 1.5-3.7 3.2-7.8 3.3-16.1.5-1.7.4-3.7-.4-5.4-4.8-9.4-3-22.2 3.9-28.5 3.2-2.9 7.9-4.3 12.5-3.7 4.3.5 7.9 2.7 10 6 .1.2.3.3.4.5-.3 5.1-1.8 7.5-3.7 10.7-2.5 4.2-5.7 9.5-5.7 20 0 10.8 4.1 16.5 7.4 21.1 2.8 4 4.9 6.9 4.9 13.4s-2 9.4-4.8 13.4c-3.3 4.6-7.3 10.4-7.3 21.2s4.1 16.5 7.4 21.1c2.8 4 4.9 6.9 4.9 13.4s-2 9.4-4.8 13.4c-3.3 4.6-7.3 10.4-7.3 21.2s4.1 16.5 7.4 21.1c2.8 4 4.9 6.9 4.9 13.4-.5 6.4-2.5 9.3-5.3 13.3zm42.8-2.7c-3.9 3.8-9.2 9.1-9.1 20.5 0 8.8 2.1 13.8 3.8 17.9s3 7.1 1.7 14.9c-.2.3-.3.5-.4.8-2.4 5.7-8 9.8-13.7 10-5.2.2-10.6-3-13.5-7.8 2.1-12.1.1-17.2-2.8-22.4-1.4-2.6-2.6-4.6-2.6-10.2 0-6.5 2-9.4 4.8-13.4 3.3-4.6 7.3-10.4 7.3-21.2s-4.1-16.5-7.4-21.1c-2.8-4-4.9-6.9-4.9-13.4s2-9.4 4.8-13.4c3.3-4.6 7.3-10.4 7.3-21.2s-4.1-16.5-7.4-21.1c-2.8-4-4.9-6.9-4.9-13.4s2-9.4 4.8-13.4c3.3-4.6 7.3-10.4 7.3-21.2s-4.1-16.5-7.4-21.1c-2.8-4-4.9-6.9-4.9-13.4 0-6.8 1.6-9.4 3.8-13 2.5-4.2 5.7-9.5 5.7-20 0-1-.2-2-.7-2.8-.1-.8-.3-1.5-.6-2.2-3.4-7.4-1.4-17.7 4.6-22.8 5.7-5 14.7-5 20.5-.2 6 5 8.2 15.2 4.9 22.7-.2.5-.4 1.1-.5 1.6-.4.9-.6 1.8-.6 2.8 0 7.2-1.4 10.3-3.1 14.2-2 4.5-4.3 9.6-4.3 19.7 0 10.8 4.1 16.5 7.4 21.1 2.8 4 4.9 6.9 4.9 13.4s-2 9.4-4.8 13.4c-3.3 4.6-7.3 10.4-7.3 21.2s4.1 16.5 7.4 21.1c2.8 4 4.9 6.9 4.9 13.4s-2 9.4-4.8 13.4c-3.3 4.6-7.3 10.4-7.3 21.2s4.1 16.5 7.4 21.1c2.8 4 4.9 6.9 4.9 13.4 0 5.8-2 7.8-5.2 10.9zm36.8-133.6c2.8 3.5 4.6 5.8 4.6 11 0 5.3-1.8 7.6-4.6 11.1-3.4 4.2-7.5 9.5-7.5 19.5s4.2 15.2 7.6 19.4c2.8 3.5 4.6 5.8 4.6 11 0 5.3-1.8 7.6-4.6 11.1-3.4 4.2-7.5 9.5-7.5 19.5s4.2 15.2 7.6 19.4c2.8 3.5 4.6 5.8 4.6 11 0 5.3-1.8 7.6-4.6 11.1-3.4 4.2-7.5 9.5-7.5 19.5 0 7.7 2 11.3 4.2 14.5 1.2 1.8 2.2 3.3 2 9.3-.5.7-1 1.5-1.3 2.3-1.6 4.4-5.8 7.7-10.2 8-5.8.5-11.9-3.4-14.7-9.1 1.7-11.3-.6-16.8-2.7-21.7-1.5-3.5-2.7-6.5-2.8-12.7 0-5.8 1.9-7.7 5.1-10.9 3.9-3.8 9.2-9.1 9.1-20.5 0-10.8-4.1-16.5-7.4-21.1-2.8-4-4.9-6.9-4.9-13.4s2-9.4 4.8-13.4c3.3-4.6 7.3-10.4 7.3-21.2s-4.1-16.5-7.4-21.1c-2.8-4-4.9-6.9-4.9-13.4s2-9.4 4.8-13.4c3.3-4.6 7.3-10.4 7.3-21.2s-4.1-16.5-7.4-21.1c-2.8-4-4.9-6.9-4.9-13.4 0-7.2 1.4-10.3 3.1-14.2 1.8-4 3.8-8.5 4.2-16.6 0 0 0 0 .1-.1 2.7-3.4 6.8-5.6 11.4-6.1 4.4-.4 8.8.8 11.9 3.4 5.6 4.7 7.9 14.1 5.4 21.8-.2.8-.4 1.5-.4 2.3-.3.8-.5 1.6-.5 2.4 0 5.9-2.4 10.4-5.2 15.5-3.2 5.9-6.9 12.7-6.8 22 .5 10 4.7 15.2 8.1 19.5zm49.2 176.3c-.2 2.1-.6 3.8-1.3 5.4-3.4 8.4-9.8 13.9-17.1 14.8-5.2.6-14.2-1.7-16.9-7.6-.3-.7-.8-1.4-1.3-2 .2-9-1.9-12.8-4.3-16.5-1.2-1.8-1.9-2.8-1.9-7 0-5.3 1.8-7.6 4.6-11.1 3.4-4.2 7.5-9.5 7.5-19.5s-4.2-15.2-7.6-19.4c-2.8-3.5-4.6-5.8-4.6-11 0-5.3 1.8-7.6 4.6-11.1 3.4-4.2 7.5-9.5 7.5-19.5s-4.2-15.2-7.6-19.4c-2.8-3.5-4.6-5.8-4.6-11 0-5.3 1.8-7.6 4.6-11.1 3.4-4.2 7.5-9.5 7.5-19.5s-4.2-15.2-7.6-19.4c-2.8-3.5-4.6-5.8-4.7-11 0-5.9 2.4-10.4 5.2-15.5 2.3-4.3 4.9-9.1 6.1-14.9.5-.2.9-.4 1.3-.6 6.6-3.6 12.6-4.6 17.8-2.8 3.3 1.1 6 3.6 7.6 6.7 2.4 5.1.7 9.2-2.6 16-2.6 5.4-5.6 11.6-5 19 .6 7.8 4.8 12.9 8.3 16.9 3.1 3.6 4.6 5.6 4.5 8.5-.1 3.2-2.4 6.6-5.1 10.4-3.5 5-7.4 10.7-7.7 18.2-.3 8.3 3.9 14.6 7.7 20.3 2.9 4.3 5.3 8 5.3 11.6-.1 3.4-1.7 6.2-3.8 9.8-2.7 4.6-6 10.3-5.7 18 .2 5 2.1 10 4 14.8 1 2.7 2 5.2 2.5 7.1.5 2.2-1.1 6.9-2.5 10.7-1.6 4.5-3.2 9.2-3.3 13.8-.1 6.5 2.7 12.1 5.2 17 1.9 4.2 3.7 7.8 3.4 10.9zm41.6-186.6c0 31.1-10.1 59.9-27.2 83.3-.4-7.4-4.2-13.2-7.6-18.4-2.9-4.3-5.4-8.1-5.3-11.7.1-3.3 2.4-6.6 5.1-10.4 3.5-5 7.4-10.6 7.7-18.1.4-8.7-4.2-14.2-7.9-18.5-3-3.5-4.6-5.6-4.8-8.6-.3-3.5 1.6-7.3 3.7-11.7 3.6-7.6 8.1-17 2.6-28.5-3.2-6.7-9-11.9-16-14.2-6.3-2.1-13.2-2.2-20.2-.1.3-10.5-3.9-20.9-11.5-27.4-6.1-5.2-14.4-7.6-22.7-6.8-2.2.2-4.4.7-6.4 1.3-1-8.5-5-16.6-11.4-22-11.3-9.5-28.2-9.3-39.3.4-6.2 5.4-9.9 13.2-10.9 21.4-1.6-.5-3.3-.8-5-1.1-8.9-1.1-17.7 1.6-24.1 7.4-7.7 7.1-11.7 18-11.3 29-11.1-2.7-23.2-.2-32.3 7.4-13.4 11.2-18.2 32-11.1 48.4 1.2 2.8 2.7 5.5 4.2 8 2.9 5.1 5.4 9.5 4.7 13.5-.4 2.8-2.5 5.6-4.8 8.9-3.3 4.5-7 9.7-7.5 16.6-.6 8.6 3.8 15.1 7.7 20.8 2.7 4 5.3 7.8 5.4 11.4 0 3.6-1.3 7.1-3.1 10.9-20.8-24.6-33.4-56.5-33.4-91.2 0-78 63.5-141.5 141.5-141.5s141.2 63.5 141.2 141.5zm11.6-171.8h-59.7c-4 0-7.3 3.2-7.3 7.3v34.6c-24.7-16.4-54.4-26.1-86.2-26.1-30.8 0-59.5 9-83.7 24.5v-33.1c0-4-3.2-7.3-7.3-7.3h-65.7v-35h309.8v35.1z" fill="#1d2228"/></g></svg>