<svg id="Mushrooms" enable-background="new 0 0 64 64" height="512" viewBox="0 0 64 64" width="512" xmlns="http://www.w3.org/2000/svg"><g><g><path d="m24.3283.9418c-19.8874-5.3681-27.1756 13.8053-19.0865 17.3689 1.7978.7882 4.3093-.6691 8.3188-.8525-1.8691 5.7168-3.735 7.7918-4.484 12.0856-.6652 3.8471 1.594 4.9105 5.5216 6.0145s6.41 1.3733 7.8465-2.2569c1.5978-4.0552 1.0862-6.7985 2.4693-12.6519 3.3267 2.2455 4.7112 4.7979 6.6564 5.0618 8.7611 1.1727 12.5296-18.9901-7.2421-24.7695z" fill="#f8d2b9"/><path d="m13.5729 17.4493-.0041.0146c-4.0083.1638-6.532 1.642-8.3289.8537-.0139-.0039-.0416-.0117-.0513-.0302 2.5355-5.4565 10.3885-7.8775 8.3843-.8381z" fill="#d08867"/><path d="m24.9134 20.6421-.0041.0146c3.3359 2.2282 4.7199 4.8048 6.6644 5.0681.0139.0039.0416.0117.0595.001.6787-5.9785-4.763-12.1364-6.7198-5.0837z" fill="#d08867"/><path d="m31.5615 25.7155c-1.9409-.2767-3.3232-2.8148-6.649-5.0654-1.3856 5.8436-.8612 8.5965-2.4651 12.6449-1.3134 3.3224-3.5038 3.3808-6.8804 2.5303.539-9.5617 3.5025-15.2738 6.4113-18.8468 2.5915-3.132 6.2117-5.9532 7.1509-11.2.1788-.9522.2474-1.8763.2366-2.7974 13.9668 7.4126 10.1166 23.7957 2.1957 22.7344z" opacity=".09"/></g><g><path d="m41.2154 28.1593c-20.3277 3.3327-19.0386 23.804-10.1998 23.7052 1.9629-.0254 3.6474-2.3906 7.2224-4.2149.6612 5.9782-.1801 8.6389.9127 12.8583.9845 3.778 3.4813 3.8124 7.5139 3.1942s6.4044-1.3991 6.2119-5.2986c-.2214-4.353-1.8212-6.6395-2.9814-12.5411 3.9574.6695 6.2731 2.4214 8.1534 1.8576 8.4624-2.5539 3.5593-22.4711-16.8331-19.5607z" fill="#f8d2b9"/><path d="m38.2455 47.6363.0023.015c-3.5821 1.8061-5.2691 4.1953-7.2311 4.2202-.0142.0022-.0427.0065-.0592-.0063.0532-6.0166 6.2032-11.4673 7.288-4.2289z" fill="#d08867"/><path d="m49.8915 45.8558.0023.015c3.9586.65 6.2839 2.424 8.1633 1.86.0142-.0022.0427-.0065.0546-.0237-1.8532-5.7244-9.3537-9.0822-8.2202-1.8513z" fill="#d08867"/><path d="m58.0423 47.7273c-1.8817.5503-4.1895-1.1894-8.1482-1.864 1.1538 5.8937 2.7693 8.1837 2.9823 12.533.1775 3.5682-1.793 4.5268-5.2191 5.1482-3.4617-8.9294-3.1244-15.3556-1.9527-19.8114 1.0651-3.9232 3.1954-7.9885 1.8817-13.1543-.2308-.9409-.5503-1.8108-.9409-2.6451 15.7817.9764 19.0481 17.4859 11.3969 19.7936z" opacity=".09"/></g></g></svg>