<svg id="Flat" height="512" viewBox="0 0 64 64" width="512" xmlns="http://www.w3.org/2000/svg"><path d="m10 7a1 1 0 0 1 -.02-2l50-1h.02a1 1 0 0 1 .02 2l-50 1z" fill="#9b5c51"/><path d="m16 32a1 1 0 0 1 -1-1v-27a1 1 0 0 1 2 0v27a1 1 0 0 1 -1 1z" fill="#fbd740"/><path d="m24 32a1 1 0 0 1 -1-1v-27a1 1 0 0 1 2 0v27a1 1 0 0 1 -1 1z" fill="#fbd740"/><path d="m60 12h-.02l-50-1a1 1 0 0 1 -.98-1.02 1.015 1.015 0 0 1 1.02-.98l50 1a1 1 0 0 1 -.02 2z" fill="#9b5c51"/><path d="m20 32a1 1 0 0 1 -1-1v-28a1 1 0 0 1 2 0v28a1 1 0 0 1 -1 1z" fill="#fbd740"/><circle cx="32" cy="30" fill="#fbd740" r="13"/><g fill="#ffe671"><path d="m32 44a14 14 0 1 1 14-14 14.015 14.015 0 0 1 -14 14zm0-26a12 12 0 1 0 12 12 12.013 12.013 0 0 0 -12-12z"/><path d="m32 40a10 10 0 1 1 10-10 10.011 10.011 0 0 1 -10 10zm0-18a8 8 0 1 0 8 8 8.009 8.009 0 0 0 -8-8z"/><path d="m32 36a6 6 0 1 1 6-6 6.006 6.006 0 0 1 -6 6zm0-10a4 4 0 1 0 4 4 4 4 0 0 0 -4-4z"/></g><circle cx="45" cy="36" fill="#fbd740" r="13"/><path d="m45 50a14 14 0 1 1 14-14 14.015 14.015 0 0 1 -14 14zm0-26a12 12 0 1 0 12 12 12.013 12.013 0 0 0 -12-12z" fill="#ffe671"/><path d="m45 46a10 10 0 1 1 10-10 10.011 10.011 0 0 1 -10 10zm0-18a8 8 0 1 0 8 8 8.009 8.009 0 0 0 -8-8z" fill="#ffe671"/><path d="m45 42a6 6 0 1 1 6-6 6.006 6.006 0 0 1 -6 6zm0-10a4 4 0 1 0 4 4 4 4 0 0 0 -4-4z" fill="#ffe671"/><circle cx="19" cy="36" fill="#fbd740" r="13"/><path d="m19 50a14 14 0 1 1 14-14 14.015 14.015 0 0 1 -14 14zm0-26a12 12 0 1 0 12 12 12.013 12.013 0 0 0 -12-12z" fill="#ffe671"/><path d="m19 46a10 10 0 1 1 10-10 10.011 10.011 0 0 1 -10 10zm0-18a8 8 0 1 0 8 8 8.009 8.009 0 0 0 -8-8z" fill="#ffe671"/><path d="m19 42a6 6 0 1 1 6-6 6.006 6.006 0 0 1 -6 6zm0-10a4 4 0 1 0 4 4 4 4 0 0 0 -4-4z" fill="#ffe671"/><path d="m4 46a10 10 0 0 0 10 10h36a10 10 0 0 0 10-10v-5h-56z" fill="#f2526d"/><path d="m7 46a10 10 0 0 0 10 10h33a10 10 0 0 0 10-10v-5h-53z" fill="#dc1e38"/><path d="m4 36h56v5h-56z" fill="#5a5f64"/><path d="m7 38h53v3h-53z" fill="#464b50"/><path d="m14 56h36l.9 2.257a2 2 0 0 1 -1.854 2.743h-34.092a2 2 0 0 1 -1.854-2.743z" fill="#dc1e38"/><path d="m50.8 58-.8-2h-36l-.8 2z" fill="#c8182c"/></svg>