<svg id="Layer_1" height="512" viewBox="0 0 512 512" width="512" xmlns="http://www.w3.org/2000/svg"><g><path d="m492.91 132.72v181.07c0 1.86-.74 3.64-2.05 4.95-1.32 1.319-3.101 2.05-4.95 2.05-12.78 0-19.521-2.55-25.47-4.81-5.521-2.091-10.301-3.9-20.5-3.9-10.21 0-14.98 1.81-20.511 3.9-5.949 2.26-12.689 4.81-25.47 4.81-12.77 0-19.52-2.55-25.46-4.81-5.53-2.091-10.3-3.9-20.51-3.9s-14.98 1.81-20.5 3.9c-5.95 2.26-12.7 4.81-25.471 4.81-12.779 0-19.52-2.55-25.47-4.81-5.52-2.091-10.29-3.9-20.49-3.9-10.21 0-14.98 1.81-20.51 3.9-5.95 2.26-12.69 4.81-25.47 4.81-12.77 0-19.52-2.55-25.46-4.81-5.53-2.091-10.29-3.9-20.5-3.9-3.86 0-7-3.14-7-7v-181.07c0-3.86 3.14-7 7-7 12.77 0 19.51 2.56 25.46 4.81 5.52 2.09 10.29 3.9 20.5 3.9 10.22 0 14.99-1.81 20.51-3.9 5.95-2.25 12.69-4.81 25.47-4.81 12.76 0 19.5 2.56 25.45 4.81 5.521 2.09 10.29 3.9 20.51 3.9 10.211 0 14.98-1.81 20.5-3.9 5.95-2.25 12.69-4.81 25.471-4.81 12.77 0 19.52 2.56 25.47 4.81 5.521 2.09 10.29 3.9 20.5 3.9s14.99-1.81 20.51-3.9c5.95-2.25 12.69-4.81 25.471-4.81 12.77 0 19.51 2.56 25.46 4.81 5.52 2.09 10.29 3.9 20.51 3.9 3.86 0 7 3.13 7 7z" fill="#1e4722"/><g><g><path d="m300.166 185.035c-7.073 0-11.012-2.304-13.888-3.986-2.282-1.335-3.539-2.07-6.819-2.07-3.866 0-7-3.134-7-7s3.134-7 7-7c7.073 0 11.012 2.304 13.888 3.986 2.282 1.335 3.539 2.07 6.819 2.07 3.278 0 4.535-.735 6.816-2.07 2.876-1.683 6.813-3.986 13.887-3.986 3.866 0 7 3.134 7 7s-3.134 7-7 7c-3.278 0-4.535.735-6.816 2.07-2.876 1.682-6.814 3.986-13.887 3.986z" fill="#1e3d1f"/></g></g><g><g><path d="m395.1 260.47c-7.072 0-11.011-2.304-13.886-3.986-2.282-1.335-3.539-2.07-6.819-2.07-3.866 0-7-3.134-7-7s3.134-7 7-7c7.074 0 11.013 2.304 13.889 3.986 2.281 1.334 3.538 2.07 6.816 2.07 3.28 0 4.537-.735 6.819-2.07 2.876-1.682 6.814-3.986 13.888-3.986 3.866 0 7 3.134 7 7s-3.134 7-7 7c-3.28 0-4.537.735-6.819 2.07-2.877 1.682-6.815 3.986-13.888 3.986z" fill="#1e3d1f"/></g></g><g><g><path d="m492.91 175.44v13.96c-.11.02-.23.02-.34.02-4.07 0-5.63.74-8.471 2.07-3.56 1.69-8.449 3.99-17.22 3.99-4.8 0-8.68-3.13-8.68-7s3.88-7 8.68-7c4.07 0 5.63-.74 8.46-2.07 3.57-1.68 8.45-3.99 17.23-3.99.111 0 .231 0 .341.02z" fill="#1e3d1f"/></g></g><path d="m354.87 206.91v181.08c0 3.859-3.13 7-7 7-12.771 0-19.521-2.561-25.46-4.82-5.53-2.09-10.3-3.9-20.51-3.9s-14.98 1.811-20.5 3.9c-5.95 2.26-12.7 4.82-25.47 4.82-12.78 0-19.52-2.561-25.47-4.82-5.52-2.09-10.29-3.9-20.51-3.9-10.21 0-14.98 1.811-20.5 3.9-5.95 2.26-12.69 4.82-25.47 4.82-12.77 0-19.52-2.561-25.47-4.82-5.52-2.09-10.29-3.9-20.49-3.9-10.21 0-14.98 1.811-20.5 3.9-5.95 2.26-12.7 4.82-25.47 4.82-12.78 0-19.52-2.561-25.47-4.82-5.52-2.09-10.29-3.9-20.49-3.9-3.87 0-7-3.13-7-7v-181.06c0-3.87 3.13-7 7-7 12.77 0 19.51 2.55 25.45 4.8 5.53 2.09 10.3 3.9 20.51 3.9s14.98-1.8 20.51-3.9c5.94-2.25 12.69-4.8 25.46-4.8s19.51 2.55 25.46 4.8c5.52 2.09 10.29 3.9 20.5 3.9s14.99-1.81 20.51-3.9c5.95-2.25 12.69-4.8 25.46-4.8 12.78 0 19.52 2.55 25.47 4.8 5.52 2.1 10.3 3.9 20.51 3.9 10.209 0 14.98-1.81 20.5-3.9 5.95-2.25 12.7-4.8 25.471-4.8 12.77 0 19.52 2.55 25.47 4.8 5.52 2.09 10.29 3.9 20.5 3.9 1.86 0 3.64.74 4.95 2.05 1.319 1.31 2.049 3.1 2.049 4.95z" fill="#24562b"/><g><g><path d="m162.131 259.229c-7.074 0-11.013-2.304-13.889-3.987-2.282-1.334-3.539-2.07-6.817-2.07-3.866 0-7-3.134-7-7s3.134-7 7-7c7.073 0 11.011 2.304 13.886 3.986 2.282 1.335 3.54 2.07 6.82 2.07 3.279 0 4.536-.735 6.817-2.07 2.875-1.682 6.813-3.986 13.887-3.986 3.866 0 7 3.134 7 7s-3.134 7-7 7c-3.279 0-4.536.735-6.817 2.07-2.876 1.683-6.814 3.987-13.887 3.987z" fill="#225128"/></g></g><g><g><path d="m257.064 334.663c-7.073 0-11.011-2.304-13.886-3.986-2.282-1.335-3.539-2.07-6.818-2.07-3.866 0-7-3.134-7-7s3.134-7 7-7c7.074 0 11.012 2.304 13.888 3.986 2.281 1.335 3.538 2.07 6.816 2.07 3.279 0 4.537-.735 6.819-2.07 2.875-1.683 6.813-3.986 13.888-3.986 3.866 0 7 3.134 7 7s-3.134 7-7 7c-3.279 0-4.537.735-6.819 2.07-2.875 1.682-6.813 3.986-13.888 3.986z" fill="#225128"/></g></g><g><g><path d="m133.308 334.663c-7.074 0-11.012-2.304-13.888-3.986-2.282-1.335-3.539-2.07-6.817-2.07-3.279 0-4.537.735-6.818 2.07-2.875 1.683-6.814 3.986-13.888 3.986-3.866 0-7-3.134-7-7s3.134-7 7-7c3.279 0 4.537-.735 6.818-2.07 2.875-1.683 6.814-3.986 13.888-3.986 7.073 0 11.011 2.304 13.887 3.986 2.282 1.335 3.539 2.07 6.818 2.07 3.866 0 7 3.134 7 7s-3.134 7-7 7z" fill="#225128"/></g></g><g><g><path d="m354.87 249.7v14.06c-2.45.28-3.98.94-6.28 1.931-3.92 1.68-9.28 3.979-18.899 3.979-5.261 0-9.53-3.13-9.53-7 0-3.86 4.27-7 9.53-7 4.46 0 6.18-.73 9.279-2.07 3.49-1.5 8.13-3.49 15.9-3.9z" fill="#225128"/></g></g></g></svg>