<svg id="Layer_3" enable-background="new 0 0 64 64" height="512" viewBox="0 0 64 64" width="512" xmlns="http://www.w3.org/2000/svg"><g><path d="m58 62h-52l3-52h46z" fill="#fadfb2"/><path d="m57.596 55 .404 7h-52l.474-8.219 7.453-3.44c3.342-1.542 6.979-2.341 10.66-2.341 4.21 0 8.353 1.045 12.06 3.04l1.707.919c3.706 1.996 7.85 3.04 12.06 3.04h7.182z" fill="#f2c351"/><path d="m38.888 52.226c-.177-.09-.359-.172-.534-.267l-1.707-.919c-3.707-1.995-7.851-3.04-12.06-3.04-3.681 0-7.318.799-10.66 2.341l-7.453 3.44-.474 8.219h21.681c4.351-2.494 8.16-5.823 11.207-9.774z" fill="#f7d881"/><path d="m55 10h-46v-7c0-.552.448-1 1-1h44c.552 0 1 .448 1 1z" fill="#f7d881"/><path d="m55.231 14h-46.462l.231-4h46z" fill="#f2c351"/><g><path d="m16 31.999h2v29.999h-2z" fill="#815643"/></g><path d="m17 43c-3.314 0-6-2.686-6-6v-2c3.314 0 6 2.686 6 6z" fill="#976947"/><path d="m17 43c3.314 0 6-2.686 6-6v-2c-3.314 0-6 2.686-6 6z" fill="#c18e59"/><path d="m45 34c3.314 0 6-2.686 6-6v-2c-3.314 0-6 2.686-6 6z" fill="#c18e59"/><path d="m17 52c-3.314 0-6-2.686-6-6v-2c3.314 0 6 2.686 6 6z" fill="#976947"/><g fill="#c18e59"><path d="m17 52c3.314 0 6-2.686 6-6v-2c-3.314 0-6 2.686-6 6z"/><path d="m16.575 34c-2.099-2.209-2.099-5.791 0-8l2.851-3c2.099 2.209 2.099 5.791 0 8z"/><path d="m21 58h-4c0-2.209 1.791-4 4-4h4c0 2.209-1.791 4-4 4z"/></g><path d="m46 23h-4c0-2.209 1.791-4 4-4h4c0 2.209-1.791 4-4 4z" fill="#815643"/><path d="m13 58h4c0-2.209-1.791-4-4-4h-4c0 2.209 1.791 4 4 4z" fill="#976947"/><path d="m39 29v4c-2.209 0-4-1.791-4-4v-4c2.209 0 4 1.791 4 4z" fill="#976947"/><path d="m51 49h-18c-1.105 0-2-.895-2-2 0-1.105.895-2 2-2h18c1.105 0 2 .895 2 2 0 1.105-.895 2-2 2z" fill="#758190"/><path d="m33 49v.292c0 4.111 2.323 7.87 6 9.708h6c3.677-1.839 6-5.597 6-9.708v-.292" fill="#a8b0bc"/><path d="m51 45c0-1.311-.846-2.414-2.018-2.822.004-.06.018-.117.018-.178 0-1.657-1.343-3-3-3-.537 0-1.034.153-1.47.4-.532-.839-1.463-1.4-2.53-1.4s-1.998.561-2.53 1.4c-.436-.247-.933-.4-1.47-.4-1.657 0-3 1.343-3 3 0 .061.014.118.018.178-1.172.408-2.018 1.511-2.018 2.822" fill="#d5cec2"/><g><path d="m13 11.999h2v1.999h-2z" fill="#f7d881"/></g><g><path d="m17 11.999h2v1.999h-2z" fill="#f7d881"/></g><g><path d="m21 11.999h2v1.999h-2z" fill="#f7d881"/></g><g><path d="m25 11.999h2v1.999h-2z" fill="#f7d881"/></g><g><path d="m29 11.999h2v1.999h-2z" fill="#f7d881"/></g><g><path d="m33 11.999h2v1.999h-2z" fill="#f7d881"/></g><g><path d="m37 11.999h2v1.999h-2z" fill="#f7d881"/></g><g><path d="m41 11.999h2v1.999h-2z" fill="#f7d881"/></g><g><path d="m45 11.999h2v1.999h-2z" fill="#f7d881"/></g><g><path d="m49 11.999h2v1.999h-2z" fill="#f7d881"/></g><g><path d="m12 4.999h16v1.999h-16z" fill="#f2c351"/></g><g><path d="m30 4.999h2v1.999h-2z" fill="#f2c351"/></g><path d="m33 49v.292c0 2.537.89 4.937 2.431 6.837 2.17-2.134 4.084-4.526 5.693-7.129z" fill="#c1c8d1"/><path d="m45.432 39.064c-.321.066-.625.179-.903.336-.531-.839-1.462-1.4-2.529-1.4s-1.998.561-2.53 1.4c-.436-.247-.933-.4-1.47-.4-1.657 0-3 1.343-3 3 0 .061.014.118.018.178-1.172.408-2.018 1.511-2.018 2.822h10.27c.879-1.899 1.605-3.882 2.162-5.936z" fill="#e7e4dd"/><path d="m43.27 45h-10.27c-1.105 0-2 .895-2 2s.895 2 2 2h8.124c.793-1.284 1.508-2.62 2.146-4z" fill="#8892a0"/></g></svg>