<svg id="Capa_1" enable-background="new 0 0 512 512" viewBox="0 0 512 512" xmlns="http://www.w3.org/2000/svg"><g><g><g fill="#f8cb3c"><path d="m390.611 188.835c23.909 2.384 43.092 17.315 50.923 24.343 2.032 1.824 1.706 5.09-.646 6.477-9.064 5.344-30.817 16.194-54.727 13.81-31.458-3.137-54.735-27.994-54.735-27.994s27.727-19.773 59.185-16.636z"/><path d="m362.494 258.807c24.278 4.99 42.519 21.634 49.876 29.335 1.909 1.999 1.265 5.133-1.278 6.217-9.798 4.175-33.125 12.276-57.402 7.287-31.943-6.565-53.436-33.306-53.436-33.306s30.297-16.098 62.24-9.533z"/><path d="m430.331 115.103c23.909 2.384 43.092 17.315 50.923 24.343 2.032 1.824 1.706 5.09-.646 6.477-9.064 5.344-30.817 16.194-54.727 13.81-31.458-3.137-54.735-27.994-54.735-27.994s27.727-19.773 59.185-16.636z"/><path d="m340.495 111.52c-10.01-21.843-30.356-35.147-39.544-40.274-2.385-1.331-5.368.037-5.917 2.712-2.116 10.307-5.323 34.404 4.687 56.247 13.17 28.74 44.234 42.696 44.234 42.696s9.71-32.641-3.46-61.381z"/><path d="m285.271 186.852c-17.731-16.216-41.652-20.538-52.113-21.679-2.715-.296-4.929 2.126-4.393 4.803 2.068 10.317 8.506 33.758 26.236 49.974 23.329 21.335 57.376 22.083 57.376 22.083s-3.777-33.845-27.106-55.181z"/><path d="m352.605 62.548c-9.083-19.508-6.555-41.068-4.688-50.75.523-2.714 3.532-4.115 5.946-2.769 8.611 4.803 26.739 16.745 35.823 36.253 12.17 26.137 3.495 55.959 3.495 55.959s-28.406-12.556-40.576-38.693z"/></g><path d="m288.207 307.579c-.856 0-1.726-.141-2.58-.439-4.083-1.424-6.24-5.889-4.815-9.973 30.754-88.173 81.709-174.476 142.554-245.313 2.818-3.281 3.253 2.022 6.533 4.84 3.281 2.818 6.474 4.481 3.656 7.762-59.563 69.344-107.848 151.552-137.954 237.868-1.127 3.23-4.156 5.255-7.394 5.255z" fill="#fdf3b2"/><path d="m446.617 17.508c13.69-11.423 30.665-15.768 42.142-17.413 6.582-.944 11.825 5.34 9.718 11.646-3.674 10.997-10.988 26.92-24.677 38.343-16.457 13.733-37.663 17.235-48.357 18.117-3.495.288-6.217-2.974-5.308-6.361 2.783-10.363 10.025-30.6 26.482-44.332z" fill="#f8cb3c"/></g><path d="m379.076 416.926c-2.456 0-4.875-1.152-6.401-3.31-2.497-3.531-1.659-8.419 1.873-10.916l16.996-12.019c3.531-2.498 8.418-1.659 10.915 1.872s1.659 8.419-1.873 10.916l-16.996 12.019c-1.373.971-2.951 1.438-4.514 1.438z" fill="#c38548"/><path d="m383.806 405.744c17.34 28.528 6.479 68.533-25.446 91.109-20.214 14.294-44.202 18.297-64.442 12.747-16.387-4.494-20.149-26.044-6.275-35.855l36.521-43.651z" fill="#eeb272"/><path d="m385.028 406.816c.97 22.923-10.744 47.347-32.861 63.387-20.042 14.535-43.98 18.824-64.285 13.516-2.607-.682-4.9-1.799-6.861-3.231-5.004 10.602.092 24.528 12.897 28.04 20.239 5.55 44.228 1.547 64.442-12.747 31.135-22.017 42.222-60.606 26.668-88.965z" fill="#e3a55c"/><path d="m92.362 396.637c-2.456 0-4.875-1.152-6.401-3.31l-12.019-16.996c-2.497-3.531-1.659-8.419 1.873-10.916 3.53-2.497 8.418-1.659 10.915 1.872l12.019 16.996c2.497 3.531 1.659 8.419-1.873 10.916-1.372.971-2.951 1.438-4.514 1.438z" fill="#c38548"/><path d="m229.649 309.621c-2.373 0-4.718-1.074-6.257-3.114l-12.539-16.616c-2.605-3.452-1.919-8.363 1.534-10.968 3.453-2.606 8.363-1.918 10.968 1.534l12.539 16.616c2.605 3.452 1.919 8.363-1.534 10.968-1.412 1.065-3.069 1.58-4.711 1.58z" fill="#c38548"/><g fill="#f8cb3c"><path d="m63.524 237.716c-22.327.418-41.215 12.813-48.994 18.738-2.019 1.538-1.962 4.587.113 6.048 7.996 5.629 27.335 17.308 49.662 16.89 29.376-.55 52.8-21.834 52.8-21.834s-24.205-20.392-53.581-19.842z"/><path d="m157.319 252.369c10.908-19.485 30.751-30.285 39.646-34.347 2.309-1.054 4.97.436 5.278 2.955 1.188 9.706 2.355 32.268-8.553 51.753-14.352 25.637-44.172 36.24-44.172 36.24s-6.551-30.964 7.801-56.601z"/><path d="m108.22 308.541c-22.077-3.358-42.786 5.67-51.455 10.196-2.25 1.175-2.708 4.19-.91 5.98 6.931 6.899 24.02 21.675 46.097 25.033 29.047 4.418 55.728-12.606 55.728-12.606s-20.413-24.186-49.46-28.603z"/><path d="m151.475 201.051c9.875-17.391 9.146-37.553 8.142-46.661-.282-2.554-2.964-4.076-5.301-3.01-8.337 3.804-26.023 13.51-35.898 30.901-13.23 23.301-7.427 51.575-7.427 51.575s27.254-9.504 40.484-32.805z"/></g><path d="m184.371 412.164c-3.354 0-6.457-2.172-7.488-5.547-21.992-72.042-55.613-139.452-99.93-200.36-2.545-3.497-1.773-8.395 1.725-10.94 3.497-2.545 5.853-5.269 8.396-1.772 45.344 62.318 82.288 134.788 104.789 208.499 1.263 4.137-1.067 8.514-5.203 9.776-.762.234-1.532.344-2.289.344z" fill="#fdf3b2"/><path d="m68.358 158.992c-15.677-15.386-37.394-20.104-46.908-21.481-2.466-.357-4.564 1.78-4.161 4.24 1.556 9.486 6.679 31.111 22.356 46.497 14.096 13.835 33.076 19.044 43.677 20.955 4.078.735 7.617-2.871 6.806-6.934-2.111-10.563-7.674-29.442-21.77-43.277z" fill="#f8cb3c"/><path d="m226.148 297.158c27.978-18.215 68.3-8.597 91.853 22.614 14.913 19.762 19.657 43.615 14.735 64.016-3.985 16.519-25.408 20.946-35.644 7.382l-45.049-44.815z" fill="#eeb272"/><path d="m318 319.772c-19.239-25.495-49.666-36.572-75.415-29.849 16.039 4.076 31.525 13.931 43.126 28.929 15.148 19.582 20.177 43.377 15.499 63.836-.756 3.307-2.221 6.131-4.151 8.441l.032.042c5.714 18.797 31.64 9.159 35.632-7.334 4.941-20.414.202-44.288-14.723-64.065z" fill="#e3a55c"/><path d="m226.148 297.158c-25.191 21.908-27.003 63.322-3.451 94.532 14.913 19.762 36.549 30.867 57.518 31.731 16.978.7 27.112-18.688 16.877-32.251z" fill="#f8d8ab"/><path d="m89.005 384.068c28.528-17.34 68.533-6.479 91.109 25.446 14.294 20.214 18.297 44.202 12.747 64.442-4.494 16.387-26.044 20.149-35.855 6.275l-43.104-35.748z" fill="#eeb272"/><path d="m180.114 409.513c-19.545-27.639-52.15-39.474-79.066-30.905 17.922 3.575 35.415 14.467 47.859 31.626 14.535 20.042 18.824 43.98 13.516 64.285-.776 2.969-2.12 5.526-3.849 7.654 10.369 11.51 30.018 7.347 34.287-8.218 5.55-20.239 1.547-44.227-12.747-64.442z" fill="#e3a55c"/><path d="m281.465 405.738c-15.337 13.855-24.233 32.127-25.535 50.139-1.225 16.948 17.84 27.678 31.714 17.867l96.163-68c-21.118-25.857-62.456-28.95-94.38-6.375-2.821 1.994-5.476 4.123-7.962 6.369" fill="#fce9c7"/><path d="" style="fill:none;stroke:#000;stroke-width:15;stroke-linecap:round;stroke-linejoin:round;stroke-miterlimit:10"/><path d="m231.803 387.675c-4.325 0-7.831-3.506-7.831-7.831v-20.816c0-4.325 3.506-7.831 7.831-7.831s7.831 3.506 7.831 7.831v20.816c0 4.325-3.506 7.831-7.831 7.831z" fill="#c38548"/><path d="m231.803 374.041c33.304 2.314 59.697 34.279 59.697 73.379 0 24.758-10.581 46.655-26.799 59.975-13.131 10.785-32.898 1.414-32.898-15.578l-10.442-50.822z" fill="#eeb272"/><path d="m233.469 374.204c16.165 14.587 26.862 38.519 27.187 65.696.315 26.328-9.175 49.845-24.144 64.898 6.658 7.831 19.033 10.118 28.19 2.597 16.217-13.321 26.799-35.218 26.799-59.975-.001-38.444-25.52-69.969-58.032-73.216z" fill="#e3a55c"/><path d="m231.803 374.041c-33.304 2.314-59.697 34.279-59.697 73.379 0 24.758 10.581 46.655 26.799 59.975 13.131 10.785 32.898 1.414 32.898-15.578z" fill="#f8d8ab"/><path d="m89.005 384.068c-25.857 21.118-28.95 62.456-6.375 94.38 14.294 20.214 35.576 31.983 56.509 33.496 16.948 1.225 27.678-17.84 17.867-31.714z" fill="#fce9c7"/></g><g/><g/><g/><g/><g/><g/><g/><g/><g/><g/><g/><g/><g/><g/><g/></svg>