<svg id="Layer_3" height="512" viewBox="0 0 64 64" width="512" xmlns="http://www.w3.org/2000/svg" data-name="Layer 3"><path d="m29.048 42.425-.6-1.906 3.423-1.081a13.815 13.815 0 0 0 5.336-3.563l1.467 1.359a15.83 15.83 0 0 1 -6.159 4.1z" fill="#916658"/><path d="m43.266 42.544-1.45-.96a12.986 12.986 0 0 1 -4.628-5.118l1.788-.9a10.976 10.976 0 0 0 3.924 4.339l1.465.971z" fill="#916658"/><path d="m33.894 21.284h2.001v13.181h-2.001z" fill="#785349" transform="matrix(.768 -.64 .64 .768 -9.757 28.8)"/><path d="m28.914 34.032h9.789v2h-9.789z" fill="#916658" transform="matrix(.986 -.164 .164 .986 -5.29 6.022)"/><path d="m37.923 43.9-1.988-.22c.009-.106.128-1.667.128-1.667a30.915 30.915 0 0 1 6.137-16.613l3-4 1.6 1.2-3 4a28.921 28.921 0 0 0 -5.741 15.551c-.001.013-.13 1.695-.136 1.749z" fill="#785349"/><path d="m20 2 .219.169a38.633 38.633 0 0 1 14.781 25.831l-.423-.254a30.025 30.025 0 0 1 -14.577-25.746z" fill="#39b54a"/><path d="m20.219 2.169-.219-.169 15 26a38.633 38.633 0 0 0 -14.781-25.831z" fill="#009245"/><path d="m28.547 39.062a22.041 22.041 0 0 0 3.724-2.58l1.729-1.482-5.572-1.393a20.337 20.337 0 0 0 -4.928-.607 20.33 20.33 0 0 0 -10.245 2.77l-7.255 4.23 7.942 1.444a22.091 22.091 0 0 0 6.15.247q.706-.071 1.4-.186z" fill="#009245"/><path d="m34.2 42.255a8.469 8.469 0 0 0 -6.685-3.255 8.485 8.485 0 0 0 -6 2.485l-4.651 4.651a6.362 6.362 0 0 0 -1.864 4.5 6.364 6.364 0 0 0 6.364 6.364 15.313 15.313 0 0 0 7.074-1.732z" fill="#719301"/><path d="m24.607 55.392a3.436 3.436 0 0 0 2.393-3.368v-.024c0-4.991 2.736-9.21 6.47-10.55a8.457 8.457 0 0 0 -6.841-2.405 8.832 8.832 0 0 0 -5.293 2.619l-4.314 4.314a6.673 6.673 0 0 0 -1.981 3.929 6.346 6.346 0 0 0 1.353 4.7 6.34 6.34 0 0 0 3.97 1.393 15.191 15.191 0 0 0 4.243-.608z" fill="#82ab00"/><path d="m38.763 42.612a13.874 13.874 0 0 1 8.106-2.612 14.168 14.168 0 0 1 9.071 3.284 5.721 5.721 0 0 1 2.06 4.396 5.719 5.719 0 0 1 -2.883 4.967 17.854 17.854 0 0 1 -8.859 2.353 18.979 18.979 0 0 1 -2.581-.176z" fill="#82ab00"/><path d="m55.941 43.284a14.168 14.168 0 0 0 -9.071-3.284 13.867 13.867 0 0 0 -7.16 1.99c3.115 1.732 5.29 5.562 5.29 10.01 0 .334-.017.663-.041.99.1 0 .2.01.3.01a17.854 17.854 0 0 0 8.859-2.353 5.675 5.675 0 0 0 2.668-6.488 5.718 5.718 0 0 0 -.845-.875z" fill="#8dbf00"/><ellipse cx="36" cy="52" fill="#8dbf00" rx="8" ry="10"/><path d="m36 42a6.771 6.771 0 0 0 -3.915 1.284 11.441 11.441 0 0 0 -2.085 6.716c0 5.523 3.582 10 8 10a6.771 6.771 0 0 0 3.915-1.284 11.441 11.441 0 0 0 2.085-6.716c0-5.523-3.582-10-8-10z" fill="#a2cc0d"/><path d="m23 54h-2a2 2 0 0 0 -2-2v-2a4 4 0 0 1 4 4z" fill="#719301"/><path d="m37.293 59.707-.293-.293a1.451 1.451 0 0 0 -2 0l-.293.293-1.414-1.414.293-.293a3.5 3.5 0 0 1 4.828 0l.293.293z" fill="#82ab00"/><path d="m54 50h-2v-.764a4.6 4.6 0 0 1 2.553-4.131l.894 1.79a2.6 2.6 0 0 0 -1.447 2.341z" fill="#719301"/><path d="m28.428 33.607a20.331 20.331 0 0 0 -15.176 2.163l-7.252 4.23 28-5z" fill="#39b54a"/></svg>