<svg id="Layer_3" height="512" viewBox="0 0 64 64" width="512" xmlns="http://www.w3.org/2000/svg" data-name="Layer 3"><path d="m33.908 59.749a11.18 11.18 0 0 0 6.728 2.251h6.728a11.179 11.179 0 0 0 9.814-5.827 23.1 23.1 0 0 0 2.822-11.066 23.114 23.114 0 0 0 -5.064-14.438l-3.188-3.984a17.106 17.106 0 0 1 -3.748-10.685v-5l-8-.128v5.128a17.106 17.106 0 0 1 -3.748 10.685l-3.188 3.984a23.126 23.126 0 0 0 -4.779 10.817z" fill="#fed432"/><path d="m54.936 30.669-3.188-3.984a17.106 17.106 0 0 1 -3.748-10.685v-5l-1.857-.03-1.858.03v5a17.1 17.1 0 0 1 -3.748 10.685l-3.187 3.984a23.091 23.091 0 0 0 -4.05 7.731l.476-.19a13.865 13.865 0 0 0 4.687-3.091 10.59 10.59 0 0 1 7.537-3.119h2.081l-4.214 5.267a10.7 10.7 0 0 0 -1.584 2.719 12.737 12.737 0 0 1 -3.577 4.975 24.757 24.757 0 0 1 7.252 8.1l3.73 6.714-3.2-1.922a28.569 28.569 0 0 0 -10.4-3.755l-.548-.084a6.572 6.572 0 0 1 .46 2.426 6.481 6.481 0 0 1 -.085 1 11.182 11.182 0 0 0 9.007 4.56h2.442a11.179 11.179 0 0 0 9.814-5.827 23.111 23.111 0 0 0 -2.242-25.5z" fill="#fff16e"/><path d="m52.376 27.47 3.924-6.34a4.674 4.674 0 0 0 .7-2.459 4.671 4.671 0 0 0 -4.671-4.671h-4.329v-4h4.329a8.671 8.671 0 0 1 7.371 13.235l-4.674 7.55z" fill="#c1cfe8"/><path d="m50.039 11a1.039 1.039 0 0 0 -1.039 1.039v1.961h3.126a4.838 4.838 0 0 1 4.5 2.841 4.683 4.683 0 0 1 -.326 4.289l-3.925 6.34 1.873 2.342 3.452-5.577a8.694 8.694 0 0 0 .964-6.962 8.888 8.888 0 0 0 -8.625-6.273z" fill="#d7e0ef"/><path d="m48 16v-5l-8-.128v5.128a17.1 17.1 0 0 1 -1.5 7h11a17.1 17.1 0 0 1 -1.5-7z" fill="#c1cfe8"/><path d="m46.142 10.97-1.857.03v5a17.1 17.1 0 0 1 -1.5 7h6.715a17.1 17.1 0 0 1 -1.5-7v-5z" fill="#d7e0ef"/><path d="m37.8 9.4a4 4 0 0 0 3.2 1.6h8a3.415 3.415 0 0 0 1-2.414 1.586 1.586 0 0 0 -1.586-1.586h-12.414z" fill="#95afd1"/><path d="m40 7v-3a2 2 0 0 1 2-2h4a2 2 0 0 1 2 2v3" fill="#916658"/><path d="m26.335 46.014a12.433 12.433 0 0 0 -3.762-4.608l.194-.329 3.947.394a23.706 23.706 0 0 1 9.841 3.262 23.708 23.708 0 0 1 8.529 8.818l1.916 3.449a29.707 29.707 0 0 0 -10.763-3.887l-1.066-.164a11.294 11.294 0 0 1 -1.5-.334z" fill="#009245"/><path d="m37.459 44.676a11.737 11.737 0 0 0 3.895-5.061 11.7 11.7 0 0 1 1.733-2.973l2.913-3.642a9.656 9.656 0 0 0 -6.828 2.828 14.974 14.974 0 0 1 -5.023 3.313l-5.959 2.383-1.292.447 7.144 4.905z" fill="#009245"/><path d="m49.683 10a3.409 3.409 0 0 0 .317-1.414 1.586 1.586 0 0 0 -1.586-1.586h-10.664l1.05 1.4a4 4 0 0 0 3.2 1.6z" fill="#a5badb"/><path d="m48 4a2 2 0 0 0 -2-2h-4a1.99 1.99 0 0 0 -.82.18 1.99 1.99 0 0 0 -.18.82 3 3 0 0 0 3 3h4z" fill="#a37765"/><path d="m36.237 53.113a29.707 29.707 0 0 1 10.763 3.887l-1.916-3.449a23.715 23.715 0 0 0 -18.37-12.08l-3.947-.394-.194.329a12.412 12.412 0 0 1 3.209 3.6c.037 0 .073-.009.11-.009a7.986 7.986 0 0 1 6.977 4.1l2.112 3.8c.064.011.125.032.19.042z" fill="#39b54a"/><path d="m24.236 45.987a20.975 20.975 0 0 1 -1.414-3.177 13.264 13.264 0 0 0 2.148-4.568l-1.94-.484a11.273 11.273 0 0 1 -3.875 6.042l-3.6 2.772 1.214 1.59 2.99-2.284.646-.517c.326-.26.634-.541.933-.831a23.22 23.22 0 0 0 1.154 2.441l1.608 2.829 1.739-.986z" fill="#785349"/><path d="m18.8 54.745a11.437 11.437 0 0 0 10.641 7.255 5.559 5.559 0 0 0 5.559-5.559 5.558 5.558 0 0 0 -.7-2.7l-2.3-4.15a6.983 6.983 0 0 0 -6.108-3.591 6.982 6.982 0 0 0 -4.937 2.045l-.139.139z" fill="#82ab00"/><path d="m34.3 53.741-2.3-4.15a6.969 6.969 0 0 0 -10.346-2.145 7.739 7.739 0 0 1 -2.426 8.243 11.431 11.431 0 0 0 10.213 6.311 5.559 5.559 0 0 0 4.859-8.259z" fill="#8dbf00"/><path d="m14.033 43h.213a6.754 6.754 0 0 1 6.754 6.754 6.755 6.755 0 0 1 -2.535 5.274l-5.843 4.672a5.923 5.923 0 0 1 -3.7 1.3 5.923 5.923 0 0 1 -5.922-5.922 8.1 8.1 0 0 1 2.045-5.378l3.94-4.433a6.755 6.755 0 0 1 5.048-2.267z" fill="#8dbf00"/><path d="m14.246 43h-.213a6.755 6.755 0 0 0 -5.048 2.267l-3.94 4.433a8.076 8.076 0 0 0 -.974 1.367 8.083 8.083 0 0 0 -.071 1.01 5.922 5.922 0 0 0 9.622 4.623l5.843-4.674a6.751 6.751 0 0 0 1.5-1.684c.017-.2.033-.392.033-.59a6.754 6.754 0 0 0 -6.752-6.752z" fill="#a2cc0d"/><path d="m10 58h-2a2 2 0 0 0 -2-2v-2a4 4 0 0 1 4 4z" fill="#82ab00"/><path d="m30 59h-2a4 4 0 0 1 4-4v2a2 2 0 0 0 -2 2z" fill="#719301"/></svg>