<svg id="Layer_1" enable-background="new 0 0 512 512" height="512" viewBox="0 0 512 512" width="512" xmlns="http://www.w3.org/2000/svg"><g><path d="m109.344 114.911c-36.211-15.713-49.913-64.523-49.913-64.523s45.008-23.334 81.219-7.621 31.774 56.652 31.774 56.652-26.869 31.205-63.08 15.492z" fill="#57a633"/><path d="m59.435 50.389s13.697 48.809 49.908 64.524 63.08-15.488 63.08-15.488z" fill="#407a26"/><path d="m257.103 99.11c41.644-28.665 46.848-93.386 46.848-93.386s-62.314-18.247-103.958 10.418-25.988 79.027-25.988 79.027 41.454 32.606 83.098 3.941z" fill="#57a633"/><path d="m174.009 95.176s41.453 32.603 83.096 3.936 46.842-93.386 46.842-93.386z" fill="#407a26"/><circle cx="200.243" cy="276.645" fill="#faa237" r="192.372"/><circle cx="200.243" cy="276.645" fill="#faa237" r="192.372"/><g fill="#ed851c"><circle cx="114.361" cy="155.038" r="15.785"/><circle cx="127.012" cy="240.22" r="18.831"/><circle cx="82.831" cy="245.971" r="8.249"/><circle cx="155.825" cy="135.188" r="9.645"/><circle cx="159.443" cy="188.854" r="31.002"/><circle cx="86.111" cy="194.531" r="24.345"/></g><path d="m388.685 315.514-259.926 61.581c-4.302 1.019-6.949 5.414-5.742 9.667 5.23 18.43 13.191 35.408 23.304 50.633-57.557-33.247-96.292-95.445-96.292-166.692 0-89.67 61.352-165.01 144.369-186.334-103.539 3.091-186.527 87.988-186.527 192.276 0 103.821 82.157 187.478 183.377 192.156 92.661 4.282 178.966-61.289 197.437-153.287z" opacity=".2"/><path d="m364.646 507.078c94.753-22.449 154.346-115.496 136.252-210.21-.83-4.343-5.167-7.083-9.469-6.063l-337.121 79.87c-4.302 1.019-6.949 5.414-5.742 9.667 26.323 92.764 121.327 149.184 216.08 126.736z" fill="#faa237"/><path d="m360.07 487.762c84.026-19.907 137-102.161 121.524-186.139-.814-4.417-5.138-7.272-9.507-6.236l-298.435 70.704c-4.37 1.035-6.953 5.527-5.699 9.839 23.844 81.995 108.091 131.739 192.117 111.832z" fill="#fae2a0"/><path d="m300.691 356.474-46.587 75.516c-2.657 4.306-8.486 5.408-12.469 2.287-9.668-7.574-18.197-16.45-25.458-26.508-7.263-10.059-13.003-20.947-17.15-32.508-1.708-4.763 1.171-9.95 6.095-11.116l86.34-20.455c7.397-1.752 13.221 6.314 9.229 12.784z" fill="#fab523"/><path d="m325.384 364.618 20.455 86.34c1.166 4.924-2.177 9.824-7.2 10.434-12.192 1.481-24.499 1.236-36.746-.742-12.248-1.977-24.006-5.617-35.113-10.86-4.576-2.16-6.207-7.864-3.55-12.17l46.587-75.516c3.993-6.469 13.815-4.883 15.567 2.514z" fill="#fab523"/><path d="m348.604 352.916 75.516 46.587c4.306 2.657 5.408 8.486 2.287 12.469-7.574 9.668-16.45 18.197-26.508 25.458-10.059 7.263-20.947 13.003-32.508 17.15-4.763 1.708-9.95-1.172-11.116-6.095l-20.455-86.34c-1.753-7.396 6.313-13.22 12.784-9.229z" fill="#fab523"/><path d="m356.748 328.223 86.34-20.455c4.924-1.166 9.824 2.177 10.434 7.2 1.481 12.192 1.236 24.499-.742 36.746-1.977 12.248-5.617 24.006-10.86 35.113-2.16 4.576-7.864 6.207-12.17 3.55l-75.516-46.587c-6.47-3.992-4.884-13.814 2.514-15.567z" fill="#fab523"/><path d="m275.924 356.911c2.786-2.008 12.732-5.745 14.74-2.958 2.008 2.786-4.681 11.04-7.467 13.049-2.786 2.008-6.673 1.378-8.682-1.409-2.008-2.787-1.377-6.674 1.409-8.682z" fill="#fade91"/><path d="m308.18 382.44c.55-3.39 4.94-13.065 8.331-12.515 3.39.55 4.497 11.116 3.947 14.507-.55 3.39-3.744 5.693-7.135 5.143-3.39-.55-5.693-3.744-5.143-7.135z" fill="#fade91"/><path d="m349.04 377.684c-2.008-2.786-5.745-12.732-2.958-14.74 2.786-2.008 11.04 4.681 13.049 7.467 2.008 2.786 1.378 6.673-1.409 8.682-2.786 2.008-6.673 1.377-8.682-1.409z" fill="#fade91"/><path d="m374.57 345.428c-3.39-.55-13.065-4.94-12.515-8.331s11.116-4.497 14.507-3.947c3.39.55 5.693 3.745 5.143 7.135s-3.745 5.693-7.135 5.143z" fill="#fade91"/><path d="m326.211 344.847c7.791-1.846 12.611-9.659 10.765-17.45l-28.215 6.685c1.846 7.791 9.658 12.611 17.45 10.765z" fill="#fab523"/></g></svg>