<svg height="512pt" viewBox="-55 0 512 512.00002" width="512pt" xmlns="http://www.w3.org/2000/svg"><path d="m128.722656 177.804688c39.152344 16.160156 82.558594 8.304687 106.046875.121093-2.132812-2.855469-4.386719-5.636719-6.773437-8.316406-17.023438-19.089844-27.738282-42.96875-30.683594-68.378906l-6.773438-58.371094c-17.644531 0-103.964843 0-121.570312 0l-6.769531 58.371094c-2.917969 25.128906-13.441407 48.753906-30.136719 67.738281 21.660156-5.703125 53.660156-8.90625 96.660156 8.835938zm0 0" fill="#e4eaf8"/><path d="m128.722656 177.804688c39.152344 16.160156 82.558594 8.304687 106.046875.121093-2.132812-2.855469-4.386719-5.636719-6.773437-8.316406-17.023438-19.089844-27.738282-42.96875-30.683594-68.378906l-6.773438-58.371094c-17.644531 0-103.964843 0-121.570312 0l-6.769531 58.371094c-2.917969 25.128906-13.441407 48.753906-30.136719 67.738281 21.660156-5.703125 53.660156-8.90625 96.660156 8.835938zm0 0" fill="#e4eaf8"/><path d="m66.734375 164.46875c14.113281-17.675781 23.613281-39.472656 26.371094-63.238281l6.769531-58.367188c-14.035156 0-25.597656 0-30.90625 0l-6.769531 58.367188c-2.917969 25.128906-13.441407 48.753906-30.136719 67.742187 9.535156-2.511718 21.074219-4.535156 34.671875-4.503906zm0 0" fill="#d8dce5"/><path d="m116.25 368.742188c0-78.140626 62.5625-141.660157 140.328125-143.21875-4.164063-18.859376-12.683594-36.59375-25.007813-51.71875-22.167968 7.996093-64.640624 16.121093-102.867187.34375-42.269531-17.445313-73.445313-13.746094-94.203125-8.019532-.972656 1.175782-1.96875 2.339844-2.988281 3.480469-20.292969 22.765625-31.511719 52.199219-31.511719 82.699219v232.804687c0 14.851563 12.039062 26.886719 26.886719 26.886719h205.734375c2.808594 0 5.519531-.433594 8.0625-1.230469-70.222656-9.21875-124.433594-69.289062-124.433594-142.027343zm0 0" fill="#ffc850"/><path d="m30.90625 485.113281v-232.804687c0-30.5 11.21875-59.933594 31.515625-82.699219 2.347656-2.632813 4.574219-5.386719 6.699219-8.230469-13.710938-.007812-25.234375 2.160156-34.621094 4.75-.976562 1.175782-1.96875 2.339844-2.988281 3.480469-20.296875 22.765625-31.511719 52.199219-31.511719 82.699219v232.804687c0 14.851563 12.035156 26.886719 26.886719 26.886719h30.90625c-14.847657 0-26.886719-12.035156-26.886719-26.886719zm0 0" fill="#feb644"/><path d="m173.605469 483.394531h-173.605469v1.71875c0 14.851563 12.035156 26.886719 26.886719 26.886719h205.734375c2.808594 0 5.515625-.433594 8.0625-1.230469-24.953125-3.277343-47.882813-12.96875-67.078125-27.375zm0 0" fill="#feb644"/><path d="m30.90625 485.113281v-1.71875h-30.90625v1.71875c0 14.851563 12.035156 26.886719 26.886719 26.886719h30.90625c-14.847657 0-26.886719-12.035156-26.886719-26.886719zm0 0" fill="#f9972d"/><path d="m85.796875 306.773438c0 7.585937-6.144531 13.730468-13.730469 13.730468-7.582031 0-13.726562-6.144531-13.726562-13.730468 0-7.582032 6.144531-13.726563 13.726562-13.726563 7.585938 0 13.730469 6.144531 13.730469 13.726563zm0 0" fill="#feb644"/><path d="m100.921875 265.484375c-4.296875 0-7.726563-3.480469-7.726563-7.71875 0-3.609375 2.492188-6.808594 6.210938-7.582031 4.6875-.941406 9.242188 2.640625 9.242188 7.582031 0 4.160156-3.378907 7.71875-7.726563 7.71875zm0 0" fill="#feb644"/><path d="m197.269531 0h-135.03125c-6.800781 0-12.363281 5.5625-12.363281 12.363281v19.164063c0 6.800781 5.5625 12.363281 12.363281 12.363281h135.03125c6.800781 0 12.363281-5.5625 12.363281-12.363281v-19.164063c0-6.800781-5.5625-12.363281-12.363281-12.363281zm0 0" fill="#d8dce5"/><path d="m197.269531 16.589844h-135.03125c-5.375 0-9.964843-3.480469-11.65625-8.292969-.449219 1.273437-.707031 2.640625-.707031 4.066406v19.164063c0 6.800781 5.5625 12.363281 12.363281 12.363281h135.03125c6.800781 0 12.363281-5.5625 12.363281-12.363281v-19.164063c0-1.425781-.257812-2.792969-.707031-4.066406-1.695312 4.8125-6.28125 8.292969-11.65625 8.292969zm0 0" fill="#c3c8d1"/><path d="m402.765625 367.914062c0 79.578126-64.511719 144.085938-144.085937 144.085938-79.578126 0-144.085938-64.507812-144.085938-144.085938 0-79.574218 64.507812-144.085937 144.085938-144.085937 79.574218 0 144.085937 64.511719 144.085937 144.085937zm0 0" fill="#ffc850"/><path d="m145.503906 367.914062c0-74.351562 56.320313-135.546874 128.628906-143.257812-5.078124-.542969-10.230468-.824219-15.453124-.824219-79.578126 0-144.085938 64.507813-144.085938 144.082031 0 79.578126 64.511719 144.085938 144.085938 144.085938 5.21875 0 10.375-.285156 15.453124-.828125-72.308593-7.710937-128.628906-68.902344-128.628906-143.257813zm0 0" fill="#feb644"/><path d="m370.300781 367.914062c0 61.648438-49.976562 111.621094-111.621093 111.621094-61.648438 0-111.621094-49.972656-111.621094-111.621094 0-61.644531 49.972656-111.621093 111.621094-111.621093 61.644531 0 111.621093 49.976562 111.621093 111.621093zm0 0" fill="#ffc850"/><path d="m186.195312 367.914062c0-54.96875 39.738282-100.65625 92.054688-109.90625-6.355469-1.125-12.894531-1.714843-19.570312-1.714843-61.648438 0-111.621094 49.976562-111.621094 111.621093 0 61.648438 49.972656 111.621094 111.621094 111.621094 6.675781 0 13.214843-.585937 19.570312-1.710937-52.316406-9.25-92.054688-54.9375-92.054688-109.910157zm0 0" fill="#feb644"/><path d="m258.679688 248.523438c-65.8125 0-119.394532 53.5625-119.394532 119.390624 0 66.105469 53.8125 119.394532 119.394532 119.394532 65.808593 0 119.390624-53.5625 119.390624-119.394532 0-65.804687-53.554687-119.390624-119.390624-119.390624zm-78.6875 51.695312 57.246093 57.246094c.988281.988281.289063 2.679687-1.109375 2.679687h-81.007812c1.695312-22.800781 10.78125-43.574219 24.871094-59.925781zm-24.871094 75.46875h81.007812c1.398438 0 2.097656 1.691406 1.109375 2.679688l-57.246093 57.246093c-14.089844-16.351562-23.175782-37.125-24.871094-59.925781zm95.785156 95.789062c-22.796875-1.695312-43.570312-10.785156-59.921875-24.875l57.246094-57.246093c.988281-.988281 2.675781-.285157 2.675781 1.113281zm0-126.113281c0 1.398438-1.6875 2.097657-2.675781 1.109375l-57.25-57.246094c16.355469-14.085937 37.125-23.175781 59.925781-24.871093zm111.332031 14.78125h-81.007812c-1.398438 0-2.097657-1.691406-1.109375-2.679687l57.246094-57.246094c14.085937 16.351562 23.175781 37.125 24.871093 59.925781zm-95.789062-95.789062c22.800781 1.695312 43.574219 10.785156 59.925781 24.871093l-57.246094 57.246094c-.988281.992188-2.679687.289063-2.679687-1.109375zm0 207.121093v-81.007812c0-1.398438 1.691406-2.101562 2.679687-1.113281l57.246094 57.246093c-16.351562 14.089844-37.125 23.179688-59.925781 24.875zm70.917969-35.863281-57.246094-57.246093c-.988282-.988282-.289063-2.679688 1.109375-2.679688h81.007812c-1.695312 22.800781-10.785156 43.574219-24.871093 59.925781zm0 0" fill="#f9972d"/></svg>