<svg enable-background="new 0 0 512 512" height="512" viewBox="0 0 512 512" width="512" xmlns="http://www.w3.org/2000/svg"><g id="_x30_2_Oregano"><g><path d="m430.942 165.201c-13.347 31.673-36.454 59.097-65.074 78.089-33.6-9.762-70.121-9.297-103.521 1.128.332.797.665 1.527.931 2.324-3.453-8.499-7.637-16.6-12.418-24.436-12.483-4.116-25.63-6.64-39.11-7.636-12.351-.996-24.967-.665-37.452.929-6.108-35.923-1.261-73.771 14.344-106.707 21.448-45.153 62.816-80.412 110.891-94.423 37.982-11.023 78.089-9.031 117.73-4.715 14.542 1.528 26.029 13.148 27.092 27.756 3.254 44.024 3.983 86.455-13.413 127.691z" fill="#3eb655"/><path d="m430.919 165.225c-13.334 31.662-36.444 59.076-65.025 78.041-33.628-9.722-70.125-9.297-103.541 1.169.319.797.637 1.488.903 2.285-3.453-8.501-7.597-16.576-12.378-24.438-3.56-1.169-7.119-2.178-10.785-3.081 83.807-36.157 169.46-110.092 200.812-193.588 1.966 3.613 3.135 7.597 3.453 11.9 3.242 44.04 3.986 86.434-13.439 127.712z" opacity=".1"/><path d="m21.831 347.705c11.804-46.678 43.721-87.901 85.921-111.082s97.405-29.407 143.11-14.298c26.255 42.536 33.361 96.465 18.996 144.407-14.374 47.876-49.936 88.984-95.34 110.103-35.879 16.638-75.826 20.733-115.664 22.46-14.605.689-27.718-9.061-30.977-23.34-9.872-43.027-17.008-84.859-6.046-128.25z" fill="#3eb655"/><path d="m269.844 366.729c-14.343 47.866-49.937 88.984-95.306 110.128-35.912 16.628-75.862 20.719-115.706 22.419-8.234.372-15.991-2.551-21.781-7.81 63.537-4.516 133.716-53.072 178.447-130.475 24.915-43.191 38.143-88.771 40.002-130.581 22.419 41.119 27.838 91.375 14.344 136.319z" opacity=".1"/><path d="m494.555 472.839c-.797 14.609-11.82 26.627-26.362 28.487-43.824 5.445-86.123 8.3-128.221-6.972-39.177-14.277-72.71-43.029-93.294-79.351 10.16-14.807 18.061-31.076 23.174-48.274 9.03-30.279 9.561-62.949 2.058-93.626-2.39-9.828-5.578-19.456-9.562-28.686 39.443-12.351 83.335-10.691 121.582 5.113 46.215 19.123 83.534 58.632 99.935 105.977 12.947 37.385 12.947 77.491 10.69 117.332z" fill="#3eb655"/><path d="m494.563 472.819c-.319 5.472-2.019 10.519-4.781 14.822-12.909-56.472-53.444-120.169-115.122-172.603-35.7-30.388-74.003-53.178-111.138-67.682-.319-1.009-.743-1.965-1.169-2.921 39.419-12.378 83.353-10.731 121.55 5.1 46.219 19.124 83.566 58.65 99.981 105.984 12.91 37.347 12.91 77.456 10.679 117.3z" opacity=".1"/><g fill="#8bd399"><path d="m400.615 407.157c-2.284 1.43-5.651.795-7.277-1.859-12.698-21.675-27.679-42.022-44.519-60.669 3.931 21.888 4.941 44.147 2.922 66.459-.213 2.763-2.55 4.835-5.259 4.835h-.479c-2.921-.265-5.1-2.869-4.834-5.79 2.337-26.935.266-53.922-6.375-80.166-19.816-19.869-41.863-37.453-65.716-52.381-1.54-.957-2.497-2.656-2.497-4.462 0-2.975 2.39-5.366 5.313-5.366 1.275 0 2.444.425 3.347 1.169 12.803 8.022 25.076 16.841 36.816 26.297 2.056 0 32.76 16.68 73.26 4.41 2.815-.797 5.79.744 6.641 3.559.85 2.816-.744 5.791-3.56 6.641-17.904 5.408-37.47 6.334-56.525 2.497 27.678 25.553 51.584 55.144 70.656 87.55 1.487 2.548.636 5.788-1.914 7.276z"/><path d="m290.913 209.213c-23.959-8.447-51.319-5.844-73.206 6.96-.213.106-.425.213-.637.266-.372.477-.744.903-1.063 1.381-1.702 2.42-5.088 2.871-7.384 1.116-2.391-1.7-2.869-5.047-1.169-7.438 7.224-9.827 14.928-19.284 23.109-28.315.329-2.958 18.392-32.012 8.235-73.1-.744-2.869 1.009-5.738 3.878-6.429 2.816-.744 5.685 1.01 6.428 3.879 4.516 18.434 4.303 38.143-.425 56.631 27.04-26.403 57.8-48.875 91.109-66.247 2.603-1.328 5.791-.319 7.172 2.284 1.328 2.603.318 5.791-2.285 7.172-22.206 11.581-43.296 25.5-62.846 41.437 22.1-2.815 44.359-2.709 66.512.425 2.922.372 4.941 3.082 4.516 5.951-.372 2.921-3.081 4.993-5.949 4.568-26.882-3.718-53.976-2.975-80.592 2.338-12.484 11.422-24.278 23.588-35.168 36.55 20.4-6.694 42.925-6.587 63.271.584 2.763.957 4.25 3.984 3.241 6.8-.957 2.762-3.985 4.196-6.747 3.187z"/><path d="m254.628 226.372c-9.722 25.553-22.312 50.097-37.4 73.153v.053c0 .532-.106 1.009-.265 1.541-7.331 23.268-6.216 49.512 3.187 72.038 1.115 2.709-.16 5.843-2.869 6.959-2.716 1.044-5.812-.145-6.959-2.869-7.278-17.584-10.041-37.188-8.181-56.206-22.684 30.228-49.779 57.163-80.007 79.368-2.286 1.651-5.618 1.287-7.438-1.169-1.753-2.337-1.222-5.685 1.169-7.384 20.135-14.768 38.834-31.769 55.676-50.469-21.356 6.109-43.351 9.35-65.663 9.615h-.053c-2.922 0-5.259-2.337-5.313-5.206-.053-2.975 2.285-5.366 5.259-5.419 26.988-.372 53.604-5.206 78.997-14.344 10.731-13.175 20.559-27.04 29.431-41.491-18.601 9.301-40.627 13.026-62.581 8.873-2.869-.532-4.782-3.294-4.197-6.163.531-2.921 3.293-4.834 6.215-4.25 24.916 4.728 51.531-1.966 71.241-17.903.212-.16.425-.319.691-.479 7.278-13.6 13.707-27.678 19.178-42.021 1.01-2.709 4.091-4.091 6.853-3.082 2.71 1.065 4.091 4.146 3.029 6.855z"/></g></g></g></svg>