<svg id="Layer_1" height="512" viewBox="0 0 512 512" width="512" xmlns="http://www.w3.org/2000/svg"><g><g><g><g id="XMLID_47_"><g><path d="m474.451 198.92c-6.128-3.65-10.58-8.71-14.873-13.6l-1.17-1.33c-.486-.55-.972-1.1-1.467-1.64-18.651-20.69-40.753-38.23-65.007-52-27.734 13.38-50.956 45.6-60.376 60.09-1.428 2.19-3.798 3.38-6.217 3.38-1.408 0-2.816-.39-4.075-1.22-3.431-2.28-4.393-6.93-2.142-10.39 11.185-17.2 31.512-44.34 56.965-60.18-19.088-9.24-39.256-16.22-59.92-20.69-2.34 4.49-4.412 9.58-5.652 12.62-.793 1.94-1.547 3.78-2.251 5.38-3.659 8.27-4.968 17.89-6.237 27.19-2.231 16.38-2.092 25.27-1.943 34.68.159 9.57.317 19.46-2.072 36.97-.516 3.76-3.698 6.48-7.357 6.48-.337 0-.674-.02-1.021-.07-4.075-.57-6.911-4.35-6.356-8.45 2.231-16.38 2.092-25.27 1.943-34.68-.159-9.57-.317-19.46 2.072-36.97 1.349-9.86 2.866-21.05 7.387-31.26.615-1.4 1.329-3.14 2.082-4.98 1.279-3.13 2.638-6.46 4.155-9.74-11.591-1.79-23.292-2.79-35.002-2.94-5.007-.06-10.015.03-15.022.27-8.785 33.4-7.457 76.86 4.055 107.01 1.477 3.86-.436 8.2-4.264 9.69-.883.34-1.785.51-2.677.51-2.985 0-5.801-1.83-6.941-4.81-12.137-31.79-14.06-75.46-5.82-111.15-17.759 1.96-35.349 5.81-52.414 11.36 1.319 4.64 2.628 9.57 3.917 14.41 2.628 9.84 5.335 20.03 7.913 26.88 15.24 40.44 20.595 61.25 22.27 104.74.159 4.14-3.034 7.63-7.139 7.79-.099 0-.198 0-.297 0-3.976 0-7.268-3.17-7.427-7.2-1.596-41.4-6.723-61.28-21.309-100.01-2.846-7.55-5.662-18.11-8.369-28.32-1.2-4.47-2.409-9.01-3.609-13.28-20.258 7.85-39.593 18.15-57.362 30.62-4.839 3.39-9.569 6.94-14.159 10.66.535.34 1.12.61 1.755.81 37.779 11.72 67.406 49.73 73.742 94.6 5.523 39.08-5.444 83.1-30.887 123.98l-.654 1.04c-10.094 16.22-22.667 36.39-14.675 56.67 7.238 18.4 27.625 25.49 44.571 29.62 11.829 2.88 24.214 5.57 36.718 5.57 4.611 0 9.231-.37 13.852-1.22 28.468-5.28 53.277-28.88 66.355-63.14 6.822-17.86 10.134-36.67 12.682-55.27-3.659-5.67-8.032-10.86-12.989-15.41-2.647-2.43-5.454-4.67-8.408-6.7-.793.68-1.586 1.37-2.38 2.06-4.601 4.01-9.37 8.16-15.131 11.32-5.632 3.1-11.611 4.73-17.283 4.73-3.659 0-7.129-.68-10.312-2.02-6.277-2.64-11.264-7.9-14.041-14.8-3.371-8.38-3.252-18.36.297-26.72 5.741-13.5 17.749-22.13 28.735-28.78 19.256-11.66 39.494-20.39 60.059-26 8.319-2.27 16.688-4.03 25.077-5.26 36.043-34.17 88.973-50.14 137.569-40.16 1.229.25 2.439.18 3.56-.16-.349-.18-.686-.38-1.024-.58z" fill="#f5e7c1"/><path d="m467.778 332.31c-2.271-2.27-4.621-4.45-7.04-6.54-9.658-8.37-20.486-15.38-32.037-20.81-8.359 6.47-17.382 17.75-26.931 33.71-1.398 2.33-3.857 3.63-6.376 3.63-1.309 0-2.638-.35-3.837-1.08-3.52-2.15-4.65-6.75-2.528-10.3 8.25-13.78 16.262-24.46 24.154-32.18-9.559-3.19-19.454-5.35-29.459-6.38-9.152 16.97-11.81 37.66-6.713 56.26.724.93 1.269 2.02 1.577 3.22.813 3.15-.149 6.43-2.519 8.56-1.378 1.24-3.143 1.91-4.948 1.91-.635 0-1.269-.08-1.894-.25-2.409-.64-4.353-2.46-5.146-4.84-7.129-21.16-5.533-45.08 3.461-65.56-13.208.25-26.435 2.48-39.117 6.47 14.913 24.9 23.183 55.29 25.711 65.63.992 4.02-1.448 8.09-5.434 9.08-.595.15-1.2.22-1.785.22-3.342 0-6.376-2.28-7.219-5.7-4.878-19.93-13.773-45.19-25.513-63.89-7.863 3.43-15.409 7.56-22.469 12.35-3.907 2.64-7.665 5.48-11.254 8.5-.377.32-.763.64-1.14.97 2.955 2.03 5.761 4.27 8.408 6.7 4.958 4.55 9.331 9.74 12.989 15.41 3.014 4.67 5.533 9.67 7.486 14.92 7.1 19.07 6.445 40.68-1.805 59.29-1.368 3.08-2.935 6.09-4.601 9.27-2.409 4.62-4.898 9.4-6.832 14.59-2.995 8.07-5.503 20.02-.377 31.15 4.244 9.2 13.227 16.25 24.67 19.32 4.115 1.11 8.339 1.66 12.603 1.66 9.916 0 20.049-2.97 29.439-8.74 12.494-7.68 22.508-19.79 27.476-33.22 4.769-12.88 5.761-26.47 6.713-39.62 1.071-14.83 2.092-28.84 8.289-40.83 6.495-12.56 18.959-22.78 35.091-28.77 11.958-4.45 24.769-6.28 36.757-7.1-3.08-2.25-5.718-4.87-7.85-7.01z" fill="#ebdeb7"/><path d="m508.056 320.68c-.843-8.53-5.583-15.5-10.114-21.19-27.903-35.03-71.284-57.34-119.007-61.23-5.037-.41-10.183-.61-15.3-.61-9.737 0-19.524.73-29.291 2.17-8.389 1.23-16.757 2.99-25.077 5.26-20.565 5.61-40.803 14.34-60.059 26-10.987 6.65-22.994 15.28-28.735 28.78-3.55 8.36-3.669 18.34-.297 26.72 2.776 6.9 7.764 12.16 14.041 14.8 3.183 1.34 6.653 2.02 10.312 2.02 5.672 0 11.651-1.63 17.283-4.73 5.761-3.16 10.53-7.31 15.131-11.32.793-.69 1.586-1.38 2.38-2.06.377-.33.763-.65 1.14-.97 3.589-3.02 7.347-5.86 11.254-8.5 7.06-4.79 14.606-8.92 22.469-12.35 4.65-2.03 9.4-3.81 14.239-5.34 12.682-3.99 25.909-6.22 39.117-6.47.813-.01 1.636-.02 2.449-.02 1.884 0 3.788.04 5.662.12 2.697.12 5.394.31 8.071.6 10.005 1.03 19.901 3.19 29.459 6.38 5.285 1.76 10.471 3.84 15.518 6.22 11.552 5.43 22.38 12.44 32.037 20.81 2.419 2.09 4.769 4.27 7.04 6.54 2.132 2.14 4.769 4.76 7.853 7.01 3.818 2.79 8.329 5 13.495 5 1.249 0 2.509-.14 3.748-.4 10.72-2.28 16.143-13.6 15.182-23.24z" fill="#ab8161"/><g fill="#dccda9"><path d="m413.183 298.74c-7.893 7.72-15.905 18.4-24.154 32.18-2.122 3.55-.992 8.15 2.528 10.3 1.2.73 2.529 1.08 3.837 1.08 2.519 0 4.978-1.3 6.376-3.63 9.549-15.96 18.572-27.24 26.931-33.71-5.047-2.38-10.233-4.46-15.518-6.22z"/><path d="m375.652 291.76c-1.874-.08-3.778-.12-5.662-.12-.813 0-1.636.01-2.449.02-8.993 20.48-10.59 44.4-3.461 65.56.793 2.38 2.737 4.2 5.146 4.84.625.17 1.259.25 1.894.25 1.805 0 3.57-.67 4.948-1.91 2.37-2.13 3.332-5.41 2.519-8.56-.307-1.2-.853-2.29-1.577-3.22-5.097-18.6-2.439-39.29 6.713-56.26-2.677-.29-5.374-.48-8.071-.6z"/><path d="m321.265 192.6c1.259.83 2.667 1.22 4.075 1.22 2.419 0 4.789-1.19 6.217-3.38 9.42-14.49 32.642-46.71 60.376-60.09-5.186-2.95-10.471-5.73-15.845-8.32-25.453 15.84-45.78 42.98-56.965 60.18-2.251 3.46-1.289 8.11 2.142 10.39z"/><path d="m328.424 298.13c-4.839 1.53-9.588 3.31-14.239 5.34 11.74 18.7 20.634 43.96 25.513 63.89.843 3.42 3.877 5.7 7.219 5.7.585 0 1.19-.07 1.785-.22 3.986-.99 6.425-5.06 5.434-9.08-2.529-10.34-10.799-40.73-25.712-65.63z"/><path d="m300.918 98.51c-1.517 3.28-2.875 6.61-4.155 9.74-.754 1.84-1.468 3.58-2.082 4.98-4.522 10.21-6.039 21.4-7.387 31.26-2.39 17.51-2.231 27.4-2.072 36.97.149 9.41.288 18.3-1.943 34.68-.555 4.1 2.281 7.88 6.356 8.45.347.05.684.07 1.021.07 3.659 0 6.842-2.72 7.357-6.48 2.39-17.51 2.231-27.4 2.072-36.97-.149-9.41-.288-18.3 1.943-34.68 1.269-9.3 2.578-18.92 6.237-27.19.704-1.6 1.458-3.44 2.251-5.38 1.24-3.04 3.312-8.13 5.652-12.62-5.057-1.1-10.143-2.05-15.25-2.83z"/><path d="m250.894 95.84c-5.226.25-10.441.67-15.647 1.25-8.24 35.69-6.316 79.36 5.82 111.15 1.14 2.98 3.956 4.81 6.941 4.81.892 0 1.795-.17 2.677-.51 3.827-1.49 5.741-5.83 4.264-9.69-11.512-30.15-12.84-73.61-4.055-107.01z"/><path d="m186.75 122.86c-1.289-4.84-2.598-9.77-3.917-14.41-4.73 1.54-9.41 3.21-14.05 5.01 1.2 4.27 2.41 8.81 3.609 13.28 2.707 10.21 5.523 20.77 8.369 28.32 14.586 38.73 19.712 58.61 21.309 100.01.159 4.03 3.451 7.2 7.427 7.2h.297c4.105-.16 7.298-3.65 7.139-7.79-1.676-43.49-7.03-64.3-22.27-104.74-2.579-6.85-5.286-17.04-7.913-26.88z"/></g><path d="m509.017 160.37c-16.301-48.2-59.613-89.41-121.972-116.05-45.82-19.57-96.598-29.92-146.841-29.92-46.96 0-92.076 8.65-134.089 25.72-27.951 11.36-49.776 24.66-66.741 40.68-21.061 19.88-34.724 44.66-38.463 69.77-1.775 11.9-.962 21.85 2.489 30.4 4.641 11.48 14.249 19.65 25.077 21.33 1.468.22 2.975.34 4.452.34h.01c16.192 0 28.448-13.14 38.294-23.7 8.081-8.66 16.797-16.75 26.029-24.2 4.591-3.72 9.321-7.27 14.159-10.66 17.769-12.47 37.104-22.77 57.362-30.62 4.641-1.8 9.321-3.47 14.05-5.01 17.065-5.55 34.655-9.4 52.414-11.36 5.206-.58 10.421-1 15.647-1.25 5.007-.24 10.015-.33 15.022-.27 11.71.15 23.411 1.15 35.002 2.94 5.107.78 10.193 1.73 15.25 2.83 20.664 4.47 40.833 11.45 59.92 20.69 5.374 2.59 10.659 5.37 15.845 8.32 24.254 13.77 46.356 31.31 65.007 52 .496.54.982 1.09 1.467 1.64l1.17 1.33c4.294 4.89 8.746 9.95 14.873 13.6.337.2.674.4 1.021.58 4.363 2.39 9.241 3.7 13.852 3.7 4.174 0 7.992-1.01 11.363-3.01 13.388-7.93 13.081-25.77 8.331-39.82z" fill="#b38a65"/></g></g></g></g><path d="m174.2 111.43c-1.81.65-3.62 1.33-5.42 2.03-20.26 7.85-39.59 18.15-57.36 30.62-4.84 3.39-9.57 6.94-14.16 10.66-9.23 7.45-17.95 15.54-26.03 24.2-9.84 10.56-22.1 23.7-38.29 23.7-.01 0-.01 0-.01 0-1.48 0-2.99-.12-4.45-.34-10.83-1.68-20.44-9.85-25.08-21.33-3.45-8.55-4.26-18.5-2.49-30.4 3.74-25.11 17.4-49.89 38.46-69.77 16.97-16.02 38.79-29.32 66.75-40.68 13.03-5.3 26.36-9.78 39.95-13.45 7.82 28.74 17.23 57.04 28.13 84.76z" fill="#a87c5a"/><path d="m300.72 347.4c-2.55 18.6-5.86 37.41-12.68 55.27-13.08 34.26-37.89 57.86-66.36 63.14-4.62.85-9.24 1.22-13.85 1.22-12.5 0-24.89-2.69-36.72-5.57-16.94-4.13-37.33-11.22-44.57-29.62-7.99-20.28 4.58-40.45 14.68-56.67l.65-1.04c25.45-40.88 36.41-84.9 30.89-123.98-6.34-44.87-35.97-82.88-73.74-94.6-.64-.2-1.22-.47-1.76-.81 4.59-3.72 9.32-7.27 14.16-10.66 17.77-12.47 37.1-22.77 57.36-30.62 1.2 4.27 2.41 8.81 3.61 13.28 2.71 10.21 5.52 20.77 8.37 28.32 14.59 38.73 19.71 58.61 21.31 100.01.16 4.03 3.45 7.2 7.43 7.2h.29c4.11-.16 7.3-3.65 7.14-7.79-1.16-30.18-4.09-49.43-10.88-71.91 14.75 29.24 31.19 57.62 49.19 84.98-2.02 1.14-4.03 2.32-6.03 3.53-10.99 6.65-23 15.28-28.74 28.78-3.55 8.36-3.67 18.34-.29 26.72 2.77 6.9 7.76 12.16 14.04 14.8 3.18 1.34 6.65 2.02 10.31 2.02 5.67 0 11.65-1.63 17.28-4.73 5.76-3.16 10.53-7.31 15.13-11.32.8-.69 1.59-1.38 2.38-2.06 2.96 2.03 5.76 4.27 8.41 6.7 4.96 4.55 9.33 9.74 12.99 15.41z" fill="#efdcb6"/><path d="m206.05 182.57c6.79 22.48 9.72 41.73 10.88 71.91.16 4.14-3.03 7.63-7.14 7.79h-.29c-3.98 0-7.27-3.17-7.43-7.2-1.6-41.4-6.72-61.28-21.31-100.01-2.85-7.55-5.66-18.11-8.37-28.32-1.2-4.47-2.41-9.01-3.61-13.28 1.8-.7 3.61-1.38 5.42-2.03 9.5 24.19 20.14 47.93 31.85 71.14z" fill="#d6c5a0"/><path d="m290.24 316.85c-3.38 2.33-6.65 4.83-9.78 7.47-.37.32-.76.64-1.14.97-.79.68-1.58 1.37-2.38 2.06-4.6 4.01-9.37 8.16-15.13 11.32-5.63 3.1-11.61 4.73-17.28 4.73-3.66 0-7.13-.68-10.31-2.02-6.28-2.64-11.27-7.9-14.04-14.8-3.38-8.38-3.26-18.36.29-26.72 5.74-13.5 17.75-22.13 28.74-28.78 2-1.21 4.01-2.39 6.03-3.53 11.08 16.84 22.76 33.28 35 49.3z" fill="#a87c5a"/><path d="m394.29 430.18c-.93 8.58-2.44 17.17-5.51 25.46-4.97 13.43-14.98 25.54-27.48 33.22-9.39 5.77-19.52 8.74-29.44 8.74-4.26 0-8.48-.55-12.6-1.66-11.44-3.07-20.42-10.12-24.67-19.32-5.12-11.13-2.62-23.08.38-31.15 1.93-5.19 4.42-9.97 6.83-14.59 1.67-3.18 3.23-6.19 4.6-9.27 8.25-18.61 8.91-40.22 1.81-59.29-1.96-5.25-4.48-10.25-7.49-14.92-3.66-5.67-8.03-10.86-12.99-15.41-2.65-2.43-5.45-4.67-8.41-6.7.38-.33.77-.65 1.14-.97 3.13-2.64 6.4-5.14 9.78-7.47 31.19 40.81 66.04 78.82 104.05 113.33z" fill="#e1d2ab"/></g></svg>