<svg height="512" viewBox="0 0 464 390.985" width="512" xmlns="http://www.w3.org/2000/svg"><g id="Calque_2" data-name="Calque 2"><g id="_14-_Parmesan" data-name="14- Parmesan"><path d="m464 129.654v118.36a61.751 61.751 0 0 1 -47.44 60.08l-340.48 81.18a61.763 61.763 0 0 1 -76.08-60.08v-94.994a61.665 61.665 0 0 1 13.02-37.93l133.27-171.216a61.764 61.764 0 0 1 43.9-23.64c58.55-4.58 194.12-3.59 262.31 92.34a62.316 62.316 0 0 1 9.07 18.81v.01a60.941 60.941 0 0 1 2.43 17.08z" fill="#f6d14f"/><path d="m461.57 112.564v.01l-457.49 99.54a61.89 61.89 0 0 1 8.94-15.84l133.27-171.22a61.764 61.764 0 0 1 43.9-23.64c58.55-4.58 194.12-3.59 262.31 92.34a62.316 62.316 0 0 1 9.07 18.81z" fill="#ffe262"/><ellipse cx="302.002" cy="240.652" fill="#f6c719" rx="34.649" ry="48.691" transform="matrix(.42 -.908 .908 .42 -43.182 413.762)"/><ellipse cx="153.451" cy="268.873" fill="#f6c719" rx="34.649" ry="48.691" transform="matrix(.048 -.999 .999 .048 -122.471 409.253)"/><g fill="#f6d14f"><ellipse cx="220.358" cy="45.822" rx="48.691" ry="24.648"/><ellipse cx="129.743" cy="132.919" rx="38.349" ry="19.413"/><ellipse cx="353.419" cy="89.883" rx="42.915" ry="21.724"/></g></g></g></svg>