<svg id="Layer_1" height="512" viewBox="0 0 512 512" width="512" xmlns="http://www.w3.org/2000/svg" data-name="Layer 1"><path d="m474.04 287.06c26.09 12.1 19.43 33.94 19.43 33.94s-35.85 9.77-90.55-1.5a39.217 39.217 0 0 0 -36.46 11.68l-.22.23a39.495 39.495 0 0 0 -9.15 37.51c15.26 55.56 7.16 93.16 7.16 93.16s-21.45 7.82-34.96-17.57c0 0-9.89 20.41-21.84 23.17 0 0-20.38-12.44-15.36-27.61 0 0-11.67 16.77-25.86 13.81 0 0-13.44-13.49-9.46-27.65 0 0-14.45 14.84-27.15 12.23-6.87-11 .92-30.47.92-30.47-11.91 8.66-29.23.77-29.23.77-7.54-12.01-2.3-29.91-2.07-30.68v-.01c5.88-9.59 3.74-25.01 3.74-25.01 8.73 11.85 27.64 9.54 27.64 9.54 10.87-9.22 5.18-28.24 5-28.86 8.89 13.25 31.22 4.83 31.22 4.83 5.17-11.11-4.86-31.45-4.86-31.45 28.34 4.95 35.34-16.77 35.34-16.77s-1.29-1.53-3.9-4.16v-.01a31.762 31.762 0 0 0 13.74-8.84 33.373 33.373 0 0 0 8.93-22.79 34.233 34.233 0 0 0 -1.1-8.61c-18.38-70.69 25.23-121.58 25.23-121.58s22.81-1.1 28.17 27.14c0 0 15.5-16.55 27.73-15.64 0 0 15.77 17.93 6.47 30.93 0 0 16.12-12.56 28.8-5.53 0 0 8.83 16.87.82 29.22 0 0 19.03-8.83 30.39-2.57 3.29 12.54-10.75 27.76-10.75 27.76 13.93-4.74 28.14 7.94 28.14 7.94 3.72 14.01-12.41 26.56-12.41 26.56 14.89-5.83 28.42 13.84 28.42 13.84-2.11 12.07-21.96 23.05-21.96 23.05z" fill="#ffde8d"/><path d="m199.24 378.07v.01a16.248 16.248 0 0 1 -3.29 3.91c-12.91-1.34-23.48-19.45-23.48-19.45-.48 14.71-17.37 23.52-17.37 23.52-14.42-1.47-20.49-20.97-20.49-20.97.21 15.97-22.98 21.69-22.98 21.69-10.55-6.23-13.83-28.67-13.83-28.67-20.53 20.14-38.62 6.21-38.62 6.21s-6.54-64.71 46.32-112.09a33.662 33.662 0 0 0 10.93-30.4 33.25 33.25 0 0 0 -6.7-15.29 34.153 34.153 0 0 0 -13.27-10.18c-67.09-28.95-80.46-94.6-80.46-94.6s13.14-18.67 38.73-5.53c0 0-3.54-22.4 4.69-31.48 0 0 23.85-1.42 28.39 13.9 0 0 0-20.43 13.34-26.1 0 0 18.74 3.4 23.57 17.31 0 0 4.72-20.43 16.64-25.54 11.93 5.11 15.31 25.54 15.31 25.54 4.82-13.91 23.56-17.31 23.56-17.31 13.34 5.67 13.34 26.1 13.34 26.1 4.54-15.32 28.39-13.9 28.39-13.9 8.23 9.08 4.69 31.48 4.69 31.48 25.59-13.14 38.73 5.53 38.73 5.53s-14.32 34.28-56.83 70.48a39.171 39.171 0 0 0 -13.19 35.92l.06.32a39.493 39.493 0 0 0 23.98 30.27c41.08 17.07 65.17 38.53 74.02 47.44 2.61 2.63 3.9 4.16 3.9 4.16s-7 21.72-35.34 16.77c0 0 10.03 20.34 4.86 31.45 0 0-22.33 8.42-31.22-4.83.18.62 5.87 19.64-5 28.86 0 0-18.91 2.31-27.64-9.54 0 0 2.14 15.42-3.74 25.01z" fill="#f5cb52"/><g fill="#d3aa42"><path d="m84.73 96.23s-1.983-12.555.473-22.677c-7.654-9.879-25.783-8.8-25.783-8.8-6.929 7.645-5.515 24.728-4.9 29.939 6.466-3.431 16.568-5.467 30.21 1.538z"/><path d="m89.18 364.32s-6.54-64.71 46.32-112.09a33.662 33.662 0 0 0 10.93-30.4 33.25 33.25 0 0 0 -6.7-15.29 34.153 34.153 0 0 0 -13.27-10.18c-67.09-28.95-80.46-94.6-80.46-94.6a25.662 25.662 0 0 1 7.157-6.289c-24.55-11.592-37.157 6.289-37.157 6.289s13.37 65.65 80.46 94.6a34.153 34.153 0 0 1 13.27 10.18 33.25 33.25 0 0 1 6.7 15.29 33.662 33.662 0 0 1 -10.93 30.4c-52.86 47.38-46.32 112.09-46.32 112.09s13.474 10.354 30.359.256c-.228-.158-.359-.256-.359-.256z"/><path d="m127.8 358.11c-10.507 10.307-20.367 11.684-27.5 10.579 2.09 6.713 5.657 14.742 11.328 18.091 0 0 14.53-3.592 20.48-13.014a76.333 76.333 0 0 1 -4.308-15.656z"/></g><path d="m132.587 282.307a6.006 6.006 0 0 1 -5.587-8.184c12.734-32.622 11.819-60.435-2.721-82.668a72.842 72.842 0 0 0 -26.054-24.081 6 6 0 0 1 5.14-10.844 83.63 83.63 0 0 1 30.6 27.824c11.773 17.7 22.06 48.4 4.209 94.132a6.005 6.005 0 0 1 -5.587 3.821z" fill="#af8a38"/><path d="m195.979 275.551a5.989 5.989 0 0 1 -4.545-2.079c-17.707-20.516-36.838-52.809-27.424-90.152a83.561 83.561 0 0 1 19.576-36.429 6 6 0 0 1 8.458 8.512 72.825 72.825 0 0 0 -16.53 31.38c-6.294 25.805 2.119 52.333 25 78.847a6 6 0 0 1 -4.539 9.921z" fill="#af8a38"/><path d="m285.881 325.546a6 6 0 0 1 -2.166-11.6c28.468-11.01 46.392-28.619 53.275-52.337a71.294 71.294 0 0 0 1.974-32.077 6 6 0 0 1 11.709-2.625 83.09 83.09 0 0 1 -2.159 38.047c-5.487 18.908-20.433 44.7-60.47 60.184a6 6 0 0 1 -2.163.408z" fill="#d3b471"/><path d="m318.389 375.387a6.066 6.066 0 0 1 -1.183-.117 6 6 0 0 1 -4.707-7.06c5.31-26.568 19.042-61.5 54.3-77.024a83.662 83.662 0 0 1 40.781-6.952 6 6 0 0 1 -1.514 11.905 72.868 72.868 0 0 0 -34.93 6.252c-24.237 10.895-40.006 33.832-46.87 68.17a6 6 0 0 1 -5.877 4.826z" fill="#d3b471"/></svg>