<svg id="Capa_1" enable-background="new 0 0 512 512" height="512" viewBox="0 0 512 512" width="512" xmlns="http://www.w3.org/2000/svg"><g><path d="m400.74 71.082h-289.48c-5.69 0-10.302-4.612-10.302-10.302v-50.478c0-5.69 4.612-10.302 10.302-10.302h289.48c5.69 0 10.302 4.612 10.302 10.302v50.479c0 5.689-4.612 10.301-10.302 10.301z" fill="#00516a"/><path d="m400.74 0h-30.905c5.69 0 10.302 4.612 10.302 10.302v50.479c0 5.69-4.612 10.302-10.302 10.302h30.905c5.69 0 10.302-4.612 10.302-10.302v-50.479c0-5.69-4.612-10.302-10.302-10.302z" fill="#004651"/><path d="m387.863 71.082h-263.726v22.963c0 11.549-5.807 22.324-15.453 28.674-9.646 6.351-15.453 17.125-15.453 28.674v36.292l15.453 119.828-15.453 117.212v46.068c0 22.758 18.449 41.207 41.207 41.207h243.123c22.758 0 41.207-18.449 41.207-41.207v-46.068l-15.453-117.211 15.453-119.828v-36.292c0-11.549-5.807-22.324-15.453-28.674-9.646-6.351-15.453-17.125-15.453-28.674v-22.964z" fill="#fea95c"/><path d="m403.316 122.72c-9.646-6.351-15.453-17.126-15.453-28.674v-22.964h-30.905v22.963c0 11.549 5.807 22.324 15.453 28.674 9.646 6.35 15.453 17.126 15.453 28.674v319.398c0 22.758-18.449 41.207-41.207 41.207h30.905c22.758 0 41.207-18.449 41.207-41.207v-319.397c0-11.548-5.807-22.324-15.453-28.674z" fill="#fe9738"/><g><path d="m93.231 187.686h325.537v237.039h-325.537z" fill="#fff3de"/><path d="m387.863 187.686h30.905v237.039h-30.905z" fill="#ffe5c2"/><path d="m93.231 393.82h325.537v30.905h-325.537z" fill="#ffe5c2"/><path d="m387.863 393.82h30.905v30.905h-30.905z" fill="#fed2a4"/><path d="m93.231 187.686h325.537v30.905h-325.537z" fill="#ffe5c2"/><path d="m387.863 187.686h30.905v30.905h-30.905z" fill="#fed2a4"/></g><g><path d="m253.189 258.827c-3.891 3.746-6.736 8.156-8.536 12.873-4.09 10.714-12.444 19.068-23.158 23.158-4.717 1.801-9.127 4.646-12.873 8.536-13.399 13.917-13.049 36.404.757 49.917 13.865 13.571 36.106 13.48 49.859-.272 3.893-3.893 6.69-8.466 8.391-13.336 3.596-10.293 11.576-18.272 21.869-21.869 4.87-1.702 9.443-4.498 13.336-8.391 13.753-13.753 13.844-35.995.272-49.859-13.514-13.806-36.001-14.156-49.917-.757z" fill="#fea95c"/></g><path d="m303.106 259.583c-10.843-11.077-27.46-13.483-40.795-7.083 3.599 1.726 6.956 4.087 9.889 7.083 13.571 13.865 13.48 36.107-.272 49.859-3.893 3.893-8.466 6.69-13.336 8.391-10.293 3.596-18.273 11.576-21.869 21.869-1.702 4.87-4.498 9.443-8.391 13.336-2.882 2.882-6.14 5.156-9.613 6.838 13.207 6.396 29.557 4.123 40.518-6.838 3.893-3.893 6.69-8.466 8.391-13.336 3.596-10.293 11.576-18.272 21.869-21.869 4.87-1.701 9.443-4.498 13.336-8.391 13.753-13.752 13.844-35.994.273-49.859z" fill="#fe9738"/></g></svg>