<svg id="color" height="512" viewBox="0 0 256 256" width="512" xmlns="http://www.w3.org/2000/svg"><circle cx="142.595" cy="210.516" fill="#bfd88f" r="20.038" transform="matrix(.339 -.941 .941 .339 -103.821 273.205)"/><path d="m130.5317 216.6645a13.5906 13.5906 0 0 1 -.6725-10.7433 13.5392 13.5392 0 0 1 17.3309-8.1407l-1.867 5.1734a8.04 8.04 0 0 0 -9.8909 11.2141z" fill="#dcf4a8"/><circle cx="192.848" cy="174.125" fill="#8bb056" r="20.038" transform="matrix(.339 -.941 .941 .339 -36.391 296.433)"/><path d="m180.7837 180.2725a13.54 13.54 0 0 1 16.6595-18.8834l-1.867 5.1734a8.0487 8.0487 0 0 0 -10.2915 4.8343 7.967 7.967 0 0 0 .4007 6.38z" fill="#bfd88f"/><path d="m198.7994 46.4879-173.6174 148.6209s-12.4094 8.9973 4.1234 16.22 53.0035 8.4972 116.4646-42.5776 75.1642-105.9349 61.72-129.4364z" fill="#5d8222"/><path d="m207.5956 43.2271-4.6406-2.952c.3846-.6055 9.5761-14.8212 24.3493-14.3032a27.082 27.082 0 0 1 11.0129 2.4865l-2.5878 4.8533a22.2427 22.2427 0 0 0 -8.6195-1.8431c-.1928-.007-.3868-.01-.5779-.01-11.2702-.0001-18.8596 11.649-18.9364 11.7685z" fill="#556f01"/><circle cx="131.975" cy="142.654" fill="#8bb056" r="20.038" transform="matrix(.063 -.998 .998 .063 -18.718 265.369)"/><path d="m123.9924 153.9313-1.8831-2.004a13.5916 13.5916 0 0 1 -3.6475-10.1273 13.5388 13.5388 0 0 1 14.3666-12.6589l2.7446.1735-.347 5.4893-2.7446-.1735a8.0395 8.0395 0 0 0 -6.3642 13.53l1.8828 2.0041z" fill="#bfd88f"/><circle cx="165.151" cy="110.515" fill="#8bb056" r="16.869" transform="matrix(.063 -.998 .998 .063 44.441 268.368)"/><path d="m159.0861 119.9924-1.8836-2.0037a10.9106 10.9106 0 0 1 8.6375-18.3632l2.7447.1735-.347 5.489-2.7446-.1732a5.4109 5.4109 0 0 0 -4.284 9.1067l1.8836 2.0034z" fill="#bfd88f"/><circle cx="188.69" cy="81.543" fill="#8bb056" r="11.475" transform="matrix(.063 -.998 .998 .063 95.408 264.714)"/><path d="m187.5721 83.8422-5.2985-1.4754.7379-2.6493c.6993-2.5118 2.8161-3.9161 6.2912-4.1741l2.7425-.2036.4071 5.485-2.7425.2036a4.1623 4.1623 0 0 0 -1.4309.2755z" fill="#bfd88f"/><circle cx="94.147" cy="170.98" fill="#8bb056" r="16.869" transform="matrix(.063 -.998 .998 .063 -82.431 254.156)"/><path d="m88.0813 180.4578-1.8831-2.0037a10.9109 10.9109 0 0 1 8.6378-18.3635l2.7446.1735-.3469 5.4889-2.7447-.173a5.4111 5.4111 0 0 0 -4.284 9.107l1.8836 2.0037z" fill="#bfd88f"/><circle cx="62.348" cy="191.494" fill="#8bb056" r="11.475" transform="matrix(.063 -.998 .998 .063 -132.697 241.64)"/><path d="m61.229 193.7939-5.298-1.4768.7385-2.6487c.7-2.5121 2.8171-3.9163 6.2917-4.1736l2.7425-.2031.4061 5.485-2.7425.203a4.1464 4.1464 0 0 0 -1.43.2756z" fill="#bfd88f"/><path d="m206.8721 39.3065s-13.2108-5.9436-23.8267 14.0177c0 0 14.8172 2.3222 18.7849-.358 0 0 5.85 11.1633 14.1 13.518-.0003 0 3.7097-25.0212-9.0582-27.1777z" fill="#556f01"/><circle cx="202.779" cy="205.676" fill="#bfd88f" r="20.038" transform="matrix(.339 -.941 .941 .339 -59.508 326.62)"/><path d="m190.7153 211.8236a13.5394 13.5394 0 0 1 16.659-18.8837l-1.867 5.1735a8.0485 8.0485 0 0 0 -10.2915 4.8342 7.9663 7.9663 0 0 0 .4 6.38z" fill="#dcf4a8"/></svg>