<svg id="Icon_Set" enable-background="new 0 0 256 256" viewBox="0 0 256 256" xmlns="http://www.w3.org/2000/svg"><g><g><g><g><circle cx="67.608" cy="42.291" fill="#edd147" r="20.725"/><path d="m74.215 61.928c-2.07.705-4.299 1.084-6.607 1.084-11.444 0-20.721-9.277-20.721-20.721s9.277-20.721 20.721-20.721c2.308 0 4.537.379 6.607 1.084-8.202 2.749-14.114 10.502-14.114 19.637s5.912 16.888 14.114 19.637z" fill="#f1e081"/><path d="m88.329 42.291c0 11.444-9.277 20.721-20.721 20.721-2.308 0-4.537-.379-6.607-1.084 8.202-2.749 14.114-10.502 14.114-19.637s-5.913-16.889-14.115-19.638c2.07-.705 4.299-1.084 6.607-1.084 11.445.001 20.722 9.278 20.722 20.722z" fill="#e4c12d"/></g><g><circle cx="30.011" cy="96.931" fill="#edd147" r="20.725"/><path d="m36.619 116.568c-2.07.705-4.299 1.084-6.607 1.084-11.444 0-20.721-9.277-20.721-20.721s9.276-20.721 20.72-20.721c2.308 0 4.537.379 6.607 1.084-8.202 2.749-14.114 10.502-14.114 19.637s5.913 16.888 14.115 19.637z" fill="#f1e081"/><path d="m50.732 96.931c0 11.444-9.277 20.721-20.721 20.721-2.308 0-4.537-.379-6.607-1.084 8.202-2.749 14.114-10.502 14.114-19.637s-5.912-16.889-14.114-19.637c2.07-.705 4.299-1.084 6.607-1.084 11.445 0 20.721 9.277 20.721 20.721z" fill="#e4c12d"/></g><g><circle cx="110.622" cy="149.991" fill="#edd147" r="20.725"/><path d="m117.23 169.629c-2.07.705-4.299 1.084-6.607 1.084-11.444 0-20.721-9.277-20.721-20.721s9.277-20.721 20.721-20.721c2.308 0 4.537.379 6.607 1.084-8.202 2.749-14.114 10.502-14.114 19.637s5.912 16.888 14.114 19.637z" fill="#f1e081"/><path d="m131.344 149.991c0 11.444-9.277 20.721-20.721 20.721-2.308 0-4.537-.379-6.607-1.084 8.202-2.749 14.114-10.502 14.114-19.637 0-9.136-5.911-16.889-14.114-19.637 2.07-.705 4.299-1.084 6.607-1.084 11.444 0 20.721 9.277 20.721 20.721z" fill="#e4c12d"/></g><g><circle cx="218.932" cy="213.709" fill="#edd147" r="20.725"/><path d="m225.539 233.347c-2.07.705-4.299 1.084-6.607 1.084-11.444 0-20.721-9.277-20.721-20.721s9.277-20.721 20.721-20.721c2.308 0 4.537.379 6.607 1.084-8.202 2.749-14.114 10.502-14.114 19.637s5.912 16.888 14.114 19.637z" fill="#f1e081"/><path d="m239.653 213.709c0 11.444-9.277 20.721-20.721 20.721-2.308 0-4.537-.379-6.607-1.084 8.202-2.749 14.114-10.502 14.114-19.637s-5.911-16.889-14.114-19.637c2.07-.705 4.299-1.084 6.607-1.084 11.444 0 20.721 9.277 20.721 20.721z" fill="#e4c12d"/></g><g><circle cx="165.933" cy="209.88" fill="#edd147" r="20.725"/><path d="m172.541 229.517c-2.07.705-4.299 1.084-6.607 1.084-11.444 0-20.721-9.277-20.721-20.721s9.277-20.721 20.721-20.721c2.308 0 4.537.379 6.607 1.084-8.202 2.749-14.114 10.502-14.114 19.637s5.912 16.889 14.114 19.637z" fill="#f1e081"/><path d="m186.654 209.88c0 11.444-9.277 20.721-20.721 20.721-2.308 0-4.537-.379-6.607-1.084 8.202-2.749 14.114-10.502 14.114-19.637s-5.911-16.889-14.114-19.637c2.07-.705 4.299-1.084 6.607-1.084 11.444 0 20.721 9.277 20.721 20.721z" fill="#e4c12d"/></g><g><circle cx="151.058" cy="96.931" fill="#edd147" r="20.725"/><path d="m157.666 116.568c-2.07.705-4.299 1.084-6.607 1.084-11.444 0-20.721-9.277-20.721-20.721s9.277-20.721 20.721-20.721c2.308 0 4.537.379 6.607 1.084-8.202 2.749-14.114 10.502-14.114 19.637s5.911 16.888 14.114 19.637z" fill="#f1e081"/><path d="m171.779 96.931c0 11.444-9.277 20.721-20.721 20.721-2.308 0-4.537-.379-6.607-1.084 8.202-2.749 14.114-10.502 14.114-19.637s-5.912-16.889-14.114-19.637c2.07-.705 4.299-1.084 6.607-1.084 11.444 0 20.721 9.277 20.721 20.721z" fill="#e4c12d"/></g><g><circle cx="205.171" cy="42.291" fill="#edd147" r="20.725"/><path d="m211.779 61.928c-2.07.705-4.299 1.084-6.607 1.084-11.444 0-20.721-9.277-20.721-20.721s9.277-20.721 20.721-20.721c2.308 0 4.537.379 6.607 1.084-8.202 2.749-14.114 10.502-14.114 19.637s5.912 16.888 14.114 19.637z" fill="#f1e081"/><path d="m225.892 42.291c0 11.444-9.277 20.721-20.721 20.721-2.308 0-4.537-.379-6.607-1.084 8.202-2.749 14.114-10.502 14.114-19.637s-5.911-16.889-14.114-19.637c2.07-.705 4.299-1.084 6.607-1.084 11.445 0 20.721 9.277 20.721 20.721z" fill="#e4c12d"/></g><g><circle cx="85.377" cy="100.46" fill="#83808b" r="20.725"/><path d="m91.985 120.097c-2.07.705-4.299 1.084-6.607 1.084-11.444 0-20.721-9.277-20.721-20.721s9.277-20.721 20.721-20.721c2.308 0 4.537.379 6.607 1.084-8.202 2.749-14.114 10.502-14.114 19.637s5.912 16.889 14.114 19.637z" fill="#a2a2a2"/><path d="m106.098 100.46c0 11.444-9.277 20.721-20.721 20.721-2.308 0-4.537-.379-6.607-1.084 8.202-2.749 14.114-10.502 14.114-19.637s-5.912-16.889-14.114-19.637c2.07-.705 4.299-1.084 6.607-1.084 11.444 0 20.721 9.277 20.721 20.721z" fill="#756e81"/></g><g><circle cx="169.462" cy="157.085" fill="#83808b" r="20.725"/><path d="m176.069 176.722c-2.07.705-4.299 1.084-6.607 1.084-11.444 0-20.721-9.277-20.721-20.721s9.277-20.721 20.721-20.721c2.308 0 4.537.379 6.607 1.084-8.202 2.749-14.114 10.502-14.114 19.637s5.912 16.888 14.114 19.637z" fill="#a2a2a2"/><path d="m190.183 157.085c0 11.444-9.277 20.721-20.721 20.721-2.308 0-4.537-.379-6.607-1.084 8.202-2.749 14.114-10.502 14.114-19.637s-5.912-16.889-14.114-19.637c2.07-.705 4.299-1.084 6.607-1.084 11.444 0 20.721 9.277 20.721 20.721z" fill="#756e81"/></g><g><circle cx="218.932" cy="100.46" fill="#83808b" r="20.725"/><path d="m225.539 120.097c-2.07.705-4.299 1.084-6.607 1.084-11.444 0-20.721-9.277-20.721-20.721s9.277-20.721 20.721-20.721c2.308 0 4.537.379 6.607 1.084-8.202 2.749-14.114 10.502-14.114 19.637s5.912 16.889 14.114 19.637z" fill="#a2a2a2"/><path d="m239.653 100.46c0 11.444-9.277 20.721-20.721 20.721-2.308 0-4.537-.379-6.607-1.084 8.202-2.749 14.114-10.502 14.114-19.637s-5.911-16.889-14.114-19.637c2.07-.705 4.299-1.084 6.607-1.084 11.444 0 20.721 9.277 20.721 20.721z" fill="#756e81"/></g><g><circle cx="225.989" cy="157.085" fill="#83808b" r="20.725"/><path d="m232.596 176.722c-2.07.705-4.299 1.084-6.607 1.084-11.444 0-20.721-9.277-20.721-20.721s9.277-20.721 20.721-20.721c2.308 0 4.537.379 6.607 1.084-8.202 2.749-14.114 10.502-14.114 19.637s5.912 16.888 14.114 19.637z" fill="#a2a2a2"/><path d="m246.71 157.085c0 11.444-9.277 20.721-20.721 20.721-2.308 0-4.537-.379-6.607-1.084 8.202-2.749 14.114-10.502 14.114-19.637s-5.912-16.889-14.114-19.637c2.07-.705 4.299-1.084 6.607-1.084 11.444 0 20.721 9.277 20.721 20.721z" fill="#756e81"/></g><g><circle cx="126.067" cy="43.87" fill="#83808b" r="20.725"/><path d="m132.674 63.508c-2.07.705-4.299 1.084-6.607 1.084-11.444 0-20.721-9.277-20.721-20.721s9.277-20.721 20.721-20.721c2.308 0 4.537.379 6.607 1.084-8.202 2.749-14.114 10.502-14.114 19.637s5.912 16.888 14.114 19.637z" fill="#a2a2a2"/><path d="m146.788 43.87c0 11.444-9.277 20.721-20.721 20.721-2.308 0-4.537-.379-6.607-1.084 8.202-2.749 14.114-10.502 14.114-19.637s-5.911-16.889-14.114-19.637c2.07-.705 4.299-1.084 6.607-1.084 11.444 0 20.721 9.277 20.721 20.721z" fill="#756e81"/></g><g><circle cx="55.059" cy="158.629" fill="#83808b" r="20.725"/><path d="m61.666 178.267c-2.07.705-4.299 1.084-6.607 1.084-11.444 0-20.721-9.277-20.721-20.721s9.277-20.721 20.721-20.721c2.308 0 4.537.379 6.607 1.084-8.202 2.749-14.114 10.502-14.114 19.637s5.912 16.888 14.114 19.637z" fill="#a2a2a2"/><path d="m75.78 158.629c0 11.444-9.277 20.721-20.721 20.721-2.308 0-4.537-.379-6.607-1.084 8.202-2.749 14.114-10.502 14.114-19.637s-5.912-16.889-14.114-19.637c2.07-.705 4.299-1.084 6.607-1.084 11.444 0 20.721 9.277 20.721 20.721z" fill="#756e81"/></g><g><circle cx="110.622" cy="211.05" fill="#83808b" r="20.725"/><path d="m117.23 230.688c-2.07.705-4.299 1.084-6.607 1.084-11.444 0-20.721-9.277-20.721-20.721s9.277-20.721 20.721-20.721c2.308 0 4.537.379 6.607 1.084-8.202 2.749-14.114 10.502-14.114 19.637s5.912 16.888 14.114 19.637z" fill="#a2a2a2"/><path d="m131.344 211.05c0 11.444-9.277 20.721-20.721 20.721-2.308 0-4.537-.379-6.607-1.084 8.202-2.749 14.114-10.502 14.114-19.637 0-9.136-5.911-16.889-14.114-19.637 2.07-.705 4.299-1.084 6.607-1.084 11.444 0 20.721 9.277 20.721 20.721z" fill="#756e81"/></g></g></g><g fill="#542a6b"><path d="m67.607 67.016c13.634 0 24.726-11.092 24.726-24.725s-11.092-24.726-24.726-24.726c-13.633 0-24.725 11.092-24.725 24.725s11.092 24.726 24.725 24.726zm0-41.451c9.223 0 16.726 7.503 16.726 16.725s-7.503 16.726-16.726 16.726c-9.222 0-16.725-7.503-16.725-16.725s7.503-16.726 16.725-16.726z"/><path d="m54.737 96.931c0-13.633-11.092-24.725-24.726-24.725-13.633 0-24.725 11.092-24.725 24.725 0 13.634 11.092 24.726 24.725 24.726 13.634-.001 24.726-11.093 24.726-24.726zm-24.726 16.725c-9.222 0-16.725-7.503-16.725-16.726 0-9.222 7.503-16.725 16.725-16.725 9.223 0 16.726 7.503 16.726 16.725 0 9.223-7.503 16.726-16.726 16.726z"/><path d="m110.623 125.266c-13.633 0-24.725 11.092-24.725 24.725s11.092 24.725 24.725 24.725 24.725-11.092 24.725-24.725-11.092-24.725-24.725-24.725zm0 41.45c-9.222 0-16.725-7.503-16.725-16.725s7.503-16.725 16.725-16.725 16.725 7.503 16.725 16.725-7.503 16.725-16.725 16.725z"/><path d="m218.932 188.984c-13.633 0-24.725 11.092-24.725 24.725s11.092 24.725 24.725 24.725c13.634 0 24.726-11.092 24.726-24.725s-11.093-24.725-24.726-24.725zm0 41.451c-9.222 0-16.725-7.503-16.725-16.725s7.503-16.725 16.725-16.725c9.223 0 16.726 7.503 16.726 16.725s-7.504 16.725-16.726 16.725z"/><path d="m165.933 185.155c-13.633 0-24.725 11.092-24.725 24.725s11.092 24.725 24.725 24.725 24.725-11.092 24.725-24.725-11.092-24.725-24.725-24.725zm0 41.45c-9.222 0-16.725-7.503-16.725-16.725s7.503-16.725 16.725-16.725 16.725 7.503 16.725 16.725-7.503 16.725-16.725 16.725z"/><path d="m126.333 96.931c0 13.634 11.092 24.726 24.725 24.726s24.725-11.092 24.725-24.726c0-13.633-11.092-24.725-24.725-24.725s-24.725 11.091-24.725 24.725zm24.725-16.725c9.222 0 16.725 7.503 16.725 16.725 0 9.223-7.503 16.726-16.725 16.726s-16.725-7.503-16.725-16.726 7.503-16.725 16.725-16.725z"/><path d="m205.171 67.016c13.633 0 24.725-11.092 24.725-24.725s-11.092-24.725-24.725-24.725-24.725 11.092-24.725 24.725 11.092 24.725 24.725 24.725zm0-41.451c9.222 0 16.725 7.503 16.725 16.725s-7.503 16.725-16.725 16.725-16.725-7.503-16.725-16.725 7.503-16.725 16.725-16.725z"/><path d="m110.103 100.46c0-13.633-11.092-24.725-24.725-24.725-13.634 0-24.726 11.092-24.726 24.725s11.092 24.725 24.726 24.725c13.633 0 24.725-11.092 24.725-24.725zm-24.726 16.725c-9.223 0-16.726-7.503-16.726-16.725s7.503-16.725 16.726-16.725c9.222 0 16.725 7.503 16.725 16.725s-7.502 16.725-16.725 16.725z"/><path d="m169.461 132.359c-13.633 0-24.725 11.092-24.725 24.725 0 13.634 11.092 24.726 24.725 24.726s24.725-11.092 24.725-24.726c.001-13.633-11.091-24.725-24.725-24.725zm0 41.451c-9.222 0-16.725-7.503-16.725-16.726 0-9.222 7.503-16.725 16.725-16.725s16.725 7.503 16.725 16.725c.001 9.223-7.502 16.726-16.725 16.726z"/><path d="m194.207 100.46c0 13.633 11.092 24.725 24.725 24.725 13.634 0 24.726-11.092 24.726-24.725s-11.092-24.725-24.726-24.725-24.725 11.092-24.725 24.725zm41.45 0c0 9.222-7.503 16.725-16.726 16.725-9.222 0-16.725-7.503-16.725-16.725s7.503-16.725 16.725-16.725c9.223 0 16.726 7.503 16.726 16.725z"/><path d="m225.989 132.359c-13.634 0-24.726 11.092-24.726 24.725 0 13.634 11.092 24.726 24.726 24.726 13.633 0 24.725-11.092 24.725-24.726 0-13.633-11.092-24.725-24.725-24.725zm0 41.451c-9.223 0-16.726-7.503-16.726-16.726 0-9.222 7.503-16.725 16.726-16.725 9.222 0 16.725 7.503 16.725 16.725 0 9.223-7.503 16.726-16.725 16.726z"/><path d="m126.067 68.596c13.633 0 24.725-11.092 24.725-24.725s-11.092-24.725-24.725-24.725-24.725 11.092-24.725 24.725 11.092 24.725 24.725 24.725zm0-41.45c9.222 0 16.725 7.503 16.725 16.725s-7.503 16.725-16.725 16.725-16.725-7.503-16.725-16.725 7.503-16.725 16.725-16.725z"/><path d="m55.059 133.904c-13.634 0-24.726 11.092-24.726 24.725s11.092 24.725 24.726 24.725c13.633 0 24.725-11.092 24.725-24.725s-11.092-24.725-24.725-24.725zm0 41.45c-9.223 0-16.726-7.503-16.726-16.725s7.503-16.725 16.726-16.725c9.222 0 16.725 7.503 16.725 16.725s-7.503 16.725-16.725 16.725z"/><path d="m110.623 186.325c-13.633 0-24.725 11.092-24.725 24.725s11.092 24.725 24.725 24.725 24.725-11.092 24.725-24.725-11.092-24.725-24.725-24.725zm0 41.45c-9.222 0-16.725-7.503-16.725-16.725s7.503-16.725 16.725-16.725 16.725 7.503 16.725 16.725-7.503 16.725-16.725 16.725z"/><path d="m33.909 103.167c-.427-.028-.838-.064-1.235-.107-2.195-.244-4.17 1.349-4.408 3.545s1.349 4.169 3.545 4.408c.379.041 1.459.145 1.836.145 2.088 0 3.847-1.621 3.987-3.734.148-2.204-1.52-4.11-3.725-4.257z"/><path d="m23.644 87.795c-1.981-.973-4.38-.155-5.353 1.829-1.176 2.398-2.217 6.515-1.471 10.333.421 2.154 2.507 3.583 4.693 3.158 2.168-.424 3.582-2.525 3.158-4.693-.35-1.792.228-4.049.812-5.294.957-1.979.137-4.362-1.839-5.333z"/></g></g></svg>