<svg id="Слой_1" height="512" viewBox="0 0 512 512" width="512" xmlns="http://www.w3.org/2000/svg" data-name="Слой 1"><path d="m367.54 177.86c-9.39-20.83-4.61-34.16 4.6-42.65-39.23-14.41-94-33.78-109.78-82.15-25 8.73-57.38 22.81-85.1 43.84 76.36 7.19 65.52 56.9 44.61 117.4-28.4 82.19 53.24 121.23 53.24 121.23l-76 55.68c18.86 16.89 38.55 28.45 56.1 33.88 38 11.74 84.61-.29 84.61-.29 23.64 2.1 46.84-6.75 68.2-17.08 9.87-4.77 36.53-17.08 59-50.38a210 210 0 0 0 7.47-26.51c-5.08-97.61-86.49-107.53-106.95-152.97z" fill="#6460a0"/><path d="m442.16 177.73s-16.16-18.73-44.27-32.22c-7-3.37-15.9-6.68-25.75-10.29-9.21 8.49-14 21.82-4.6 42.65 20.48 45.44 101.87 55.36 106.92 153 8.87-42.03 6.29-95.87-32.3-153.14z" fill="#8585cc"/><path d="m221.87 214.31c20.91-60.51 31.75-110.21-44.61-117.4-32.09 24.36-57.93 58-58.77 103.57-1.59 85.15 37.31 152 80.6 190.75l76-55.68s-81.62-39.05-53.22-121.24z" fill="#8585cc"/><path d="m396.48 58.54c-26.48-12.7-59.25-22.12-93.26-17.24a345.86 345.86 0 0 0 -40.87 11.76c19.75 60.51 100.5 75.64 135.53 92.44 28.12 13.5 44.28 32.23 44.28 32.23 47.29 70.14 40.5 135.27 24.84 179.62 19.22-28.49 35.36-72.34 35.3-140-.08-69.53-43.11-128.73-105.82-158.81z" fill="#583f93"/><path d="m183.78 97.66 51.53-21.54 44.69-13.44s-65.65-28.76-112.5-44.82c-9.07 3.1-22.65 7.55-20.45 16.79 0 0-14.47 3.82-16.66 9.83s-13.13 6.58-15.39 13.94-.4 5.72-1.76 10.64-15 9-16.8 13.93c-.54 1.5-2.2 3.22-4.2 5 21.12 8.17 56.63 18.01 91.54 9.67z" fill="#7eb55b"/><path d="m166.16 454.05c-127.42-11.94-130.24-115.68-126.04-157.72l-3.2.44c-2.88.38-5.87.84-8.31 2.42s-4.25 4.4-5.71 7.1c-14.71 27.07-16.63 60.14-8.07 89.71a144 144 0 0 0 10.7 26.54c23 23.42 55 45.48 81.93 57.25 8.28 3.62 16.78 6.9 25.66 8.6 12.88 2.49 113.31 14.61 206.26-74.39 14.45-21.67 25.83-45.74 35.5-70.7l-7.42-1.84c-47.02 35.34-78.27 124.12-201.3 112.59z" fill="#ffb155"/><path d="m187.05 400.67c-97-2.56-117.2-66.12-120-107.45-9.09.45-18.46 1.93-26.92 3.11-4.2 42-1.37 145.78 126 157.72 123 11.53 154.27-77.25 201.3-112.59l-46.63-11.58c-16.19 34.29-52.46 72.94-133.75 70.79z" fill="#ffca55"/><path d="m187.05 400.67c81.29 2.15 117.56-36.5 133.74-70.79l-66-16.37a101.19 101.19 0 0 1 -73.36 22.56l-16.31-1.65c-18.2-3.65-35.73-11.31-51.73-21.29a188.09 188.09 0 0 1 -18.14-12.33c-3.92-3.13-6.58-6.07-11.65-6.9a79 79 0 0 0 -16.6-.68c2.85 41.33 23 104.89 120.05 107.45z" fill="#fcd081"/><path d="m133.12 488.41c-8.88-1.69-17.37-5-25.66-8.6-26.9-11.81-58.88-33.81-81.93-57.25a176.39 176.39 0 0 0 39.36 49.7c10.14 9 21.25 17.06 33.54 22.81a132.65 132.65 0 0 0 29.91 9.57c52.3 10.61 113.93-3.88 157.55-34.63 21.74-15.33 39.13-34.49 53.49-56-92.95 88.99-193.38 76.87-206.26 74.4z" fill="#6460a0"/><path d="" fill="none"/><path d="m177.25 102.35 52.8-24-46.27 19.31c-34.91 8.34-70.42-1.5-91.58-9.66-4.51 4-10.72 8.2-9.59 10.85 1.64 3.82-4.91 13.38-4.64 18.57s-13.89 45-21.14 51.74c-8.6 7.94 22.23-8.47 33.73-6.26 3.74.72 7.38 1.89 11.07 2.86a108.57 108.57 0 0 0 34.45 3.24c7.83-18.94 23.03-51.2 41.17-66.65z" fill="#96d16f"/><path d="m230.05 78.32-52.8 24c-18.15 15.45-33.35 47.72-41.17 66.65a111.39 111.39 0 0 0 17.34-2.48c-1.66 2.15.43 5.52 3.08 6.1s5.33-.65 7.76-1.87 5.06-2.5 7.74-2c2 .37 3.84 1.73 5.9 1.73 3.32 0 5.52-3.36 8.43-5 3.82-2.13 8.46-1.08 12.88-1.24 15.83-33 30.86-85.93 30.86-85.93z" fill="#7eb55b"/><path d="m280 62.68c-2.07 28.12-10.42 53.87-18 72.18 4.24-4.21 8.66-8.18 14.11-10.49 3-1.26 6.15-2 9.12-3.25 7.23-3.08 12.72-9.11 18-15 6.28-7 12.77-14.42 15-23.56s-1.55-20.15-10.23-23.31c-16.53-.56-28 3.43-28 3.43z" fill="#7eb55b"/><path d="m235.31 76.12-5.26 2.2s-15 52.9-30.86 85.93a16.09 16.09 0 0 0 3.23-.41c5.34-1.3 9.28-6.09 14.6-7.46 3-.77 6.12-.4 9.2-.49 11-.34 21-6.68 29-14.27 2.29-2.18 4.51-4.5 6.77-6.75 7.58-18.31 15.94-44.06 18-72.18z" fill="#96d16f"/><path d="m250.43 9.2c-4.68-2-11.19-5.45-16.27-5.41l-55.16 3.01s1.09 5.73-6 9c-1.38.64-3.3 1.3-5.49 2.05 46.84 16.07 112.49 44.83 112.49 44.83s11.49-4 28-3.42l-.33-.12s-18.43-33.58-57.24-49.94z" fill="#96d16f"/><path d="m331.77 120.52c3.64-19.9 2.15-46.2.72-66.38 1.28-.6 2.79-.22 4.15.18l13.84 4a2.63 2.63 0 0 1 1.79 1.13 2.64 2.64 0 0 1 -.07 1.82 146.22 146.22 0 0 0 -5.34 41.33l-4.86 22.16" fill="#96d16f"/><g fill="#4a0016"><path d="m152.85 334.09a3.42 3.42 0 0 1 -2.79-1.44c-32.87-46.23-44.06-106.65-29.91-161.56a3.42 3.42 0 0 1 6.63 1.71c-13.64 53-2.85 111.28 28.86 155.89a3.42 3.42 0 0 1 -2.79 5.41z"/><path d="m346.9 428.55q-3.69 0-7.41-.32a3.42 3.42 0 1 1 .6-6.82c23.64 2.1 46.84-7.29 66.41-16.76l.73-.35c60.89-29.35 91.72-92.24 91.63-186.92-.06-65.38-39.86-125.05-103.86-155.75-32-15.34-62.69-21-91.29-16.94a3.42 3.42 0 0 1 -1-6.78c30-4.3 62 1.6 95.23 17.54 31.95 15.33 58.83 38.07 77.74 65.77a170.29 170.29 0 0 1 30 96.14c.06 62.21-13.43 112-40.09 147.83a142.29 142.29 0 0 1 -55.41 45.26l-.73.35c-18.38 8.92-39.94 17.75-62.55 17.75z"/><path d="m470.47 244.91a3.42 3.42 0 0 1 -3.41-3.2c-2.7-41-41.18-81.53-60.2-90.86-13.53-6.63-28.33-11.17-42.64-15.56-7.26-2.23-14.78-4.53-22.09-7.09s-15.56-5.75-22.21-11.63a3.42 3.42 0 1 1 4.54-5.13c5.72 5.06 13.29 8 19.93 10.29 7.18 2.52 14.63 4.8 21.83 7 14.57 4.46 29.64 9.08 43.65 16 11.65 5.72 27 19.89 39 36.12 10.52 14.17 23.4 36.15 25 60.43a3.42 3.42 0 0 1 -3.19 3.64z"/><path d="m331.77 123.95a3.43 3.43 0 0 1 -3.37-4c3.36-18.38 2.31-42.35.68-65.52a3.42 3.42 0 0 1 1.92-3.43c2.52-1.19 5.15-.42 6.56 0l13.84 4a5.27 5.27 0 0 1 4.06 7.15 142.47 142.47 0 0 0 -5.22 40.36 3.42 3.42 0 0 1 -6.85.1 149.3 149.3 0 0 1 5.19-41.3l-12.46-3.62c1.5 22.41 2.27 45.3-1 63.39a3.42 3.42 0 0 1 -3.35 2.87z"/><path d="m309 59.85a3.42 3.42 0 0 1 -3-1.86c-8.14-15.87-24.13-26.52-38.24-35.9-5.9-3.93-12-8-18.59-10.44-6.94-2.58-14.47-3.39-20.92-3.84-17.07-1.2-32.81-.08-46.84 3.32a6.67 6.67 0 0 1 -.19.81c-1.15 3.9-5.5 6.24-6.81 6.86l-25.93 12.36a3.42 3.42 0 0 1 -3-6.18l25.92-12.36a7.62 7.62 0 0 0 3.14-2.48 3.45 3.45 0 0 1 2.14-4.89c15.49-4.17 33-5.61 52-4.28 6.94.49 15.08 1.37 22.83 4.25 7.33 2.73 13.77 7 20 11.15 14.07 9.36 31.58 21 40.54 38.48a3.42 3.42 0 0 1 -3 5z"/><path d="m58 171.5a3.42 3.42 0 0 1 -2.84-5.33 154.61 154.61 0 0 0 18.64-38.57 17.21 17.21 0 0 0 1.08-5.11c0-.53-.06-1.12-.13-1.75a17.46 17.46 0 0 1 -.1-3.76c.36-3.32 2.15-5.88 3.73-8.14.5-.72 1-1.39 1.38-2.06 1.1-1.81 1.43-4.09.67-4.69a3.42 3.42 0 0 1 -.63-4.73 48.73 48.73 0 0 1 11.59-11.15c.48-4.89 5.22-8.33 6.94-9.58l10.2-7.41a7.81 7.81 0 0 0 1.17-1c0-.15-.12-.53-.18-.8s-.16-.7-.23-1c-1-5.72 2.66-10.67 6.44-13.39a40.39 40.39 0 0 1 7.26-3.9c1.29-.58 2.5-1.13 3.67-1.74a9.31 9.31 0 0 0 1-.56 3.42 3.42 0 0 1 -.07-4.5 26.8 26.8 0 0 1 11.82-8l1.07-.35a9.33 9.33 0 0 0 3-1.32 3.42 3.42 0 0 1 1.45-6.66 5.49 5.49 0 0 1 4.92 3.33 7.14 7.14 0 0 1 -.88 7.38c-1.82 2.22-4.38 3-6.44 3.69l-.94.31a20 20 0 0 0 -7 4.1 6.29 6.29 0 0 1 -.34 4.5 9.36 9.36 0 0 1 -4.4 4.08c-1.35.72-2.73 1.33-4.05 1.93a34.68 34.68 0 0 0 -6.07 3.21c-2.16 1.55-4.14 4.21-3.7 6.64 0 .22.09.44.15.67a8.51 8.51 0 0 1 .24 3.78c-.54 2.7-2.71 4.27-3.87 5.12l-10.2 7.4c-3.73 2.71-4.3 4.3-4.12 5.16a3.42 3.42 0 0 1 -1.53 3.59 42.58 42.58 0 0 0 -9.81 8.54c1.61 3.36.69 7.67-1.27 10.89-.52.85-1.08 1.65-1.62 2.42-1.22 1.74-2.36 3.38-2.53 4.94a11.91 11.91 0 0 0 .1 2.32c.08.73.16 1.55.17 2.41a23.1 23.1 0 0 1 -1.41 7.25 161.45 161.45 0 0 1 -19.52 40.34 3.42 3.42 0 0 1 -2.81 1.5z"/><path d="m157.88 176.18a9.82 9.82 0 0 1 -2.12-.23 8.4 8.4 0 0 1 -5.9-5.22 113 113 0 0 1 -49.1-1.71c-1.15-.3-2.3-.63-3.45-.95-2.54-.71-4.94-1.39-7.39-1.86a44.1 44.1 0 0 0 -31.29 5.79 3.42 3.42 0 0 1 -3.63-5.78 51 51 0 0 1 36.2-6.72c2.73.52 5.39 1.27 8 2 1.11.31 2.22.62 3.34.92a106.39 106.39 0 0 0 50.17.77 3.42 3.42 0 0 1 3.62 5.21 1.67 1.67 0 0 0 1 .88c1.5.33 3.53-.6 5.48-1.58 2.54-1.28 6-3 9.88-2.33a15.69 15.69 0 0 1 3.19 1 7 7 0 0 0 2.1.65c.91 0 2.09-1 3.35-2a22.2 22.2 0 0 1 3.41-2.49c3.6-2 7.52-1.86 11-1.72a22.48 22.48 0 0 0 6-.26 21.52 21.52 0 0 0 6.3-3.28 21.67 21.67 0 0 1 15.67-4.77h2.54c8.71-.27 17.7-4.75 26.73-13.33 1.44-1.37 2.89-2.84 4.29-4.26 5.16-5.23 10.5-10.63 17.61-13.66 1.63-.69 3.26-1.22 4.85-1.73s2.93-.95 4.27-1.52c6.67-2.84 12-8.82 16.76-14.1 5.69-6.35 12.14-13.56 14.19-22.08 1.79-7.44-1.09-17-8.24-19.41a3.42 3.42 0 0 1 2.18-6.49c10.92 3.67 15.11 17.08 12.59 27.47s-9.83 18.43-15.75 25c-5.21 5.81-11.11 12.4-19.18 15.83-1.63.69-3.26 1.22-4.85 1.73s-2.93.95-4.27 1.52c-5.86 2.5-10.5 7.19-15.42 12.17-1.44 1.46-2.93 3-4.45 4.41-10.29 9.77-20.8 14.89-31.24 15.21-1 0-1.92 0-2.84 0a21.79 21.79 0 0 0 -5.61.38 22 22 0 0 0 -6.2 3.26 26.88 26.88 0 0 1 -8.45 4.22 27.91 27.91 0 0 1 -7.88.45c-2.93-.12-5.46-.21-7.37.86a16.62 16.62 0 0 0 -2.34 1.76c-1.94 1.63-4.35 3.65-7.75 3.65a12.17 12.17 0 0 1 -4.68-1.16 10.34 10.34 0 0 0 -1.82-.63c-1.5-.27-3.34.57-5.59 1.71-1.85.98-4.73 2.42-7.91 2.42z"/><path d="m130.48 127.85a3.42 3.42 0 0 1 -1.46-6.52l66.84-31.55c16.81-7.94 34.2-16.14 52.4-21.76 18.52-5.72 39.51-12.2 59.46-12.35a3.42 3.42 0 0 1 0 6.85c-18.94.14-39.42 6.46-57.49 12-17.69 5.48-34.85 13.61-51.45 21.48l-66.84 31.55a3.41 3.41 0 0 1 -1.46.3z"/><path d="m214.16 120.78a3.42 3.42 0 0 1 -3.16-4.78 137.24 137.24 0 0 0 9.69-33.53 3.42 3.42 0 0 1 6.77 1 144.11 144.11 0 0 1 -10.17 35.21 3.42 3.42 0 0 1 -3.13 2.1z"/><path d="m275.18 66.45a3.41 3.41 0 0 1 -2.11-.73 147.11 147.11 0 0 0 -58.45-27.67 3.42 3.42 0 0 1 1.49-6.68 154 154 0 0 1 61.19 29 3.42 3.42 0 0 1 -2.11 6.12z"/><path d="m163.76 511.5a182 182 0 0 1 -36.1-3.49 134.79 134.79 0 0 1 -30.66-9.83c-11.51-5.39-22.75-13-34.36-23.35-25.17-22.37-42.83-49.29-51.09-77.83-9.24-31.9-6.2-65.56 8.34-92.32 1.69-3.12 3.7-6.28 6.86-8.33 3-1.92 6.29-2.49 9.72-2.94 2.19-.29 4.45-.61 6.76-.94 13.17-1.88 28.1-4 40.92-1.91 5.12.84 8.29 3.49 11.36 6.06.6.5 1.22 1 1.87 1.54a187 187 0 0 0 17.81 12.1c16.73 10.43 33.7 17.42 50.43 20.8l16.15 1.63a97.2 97.2 0 0 0 70.83-21.79 3.42 3.42 0 0 1 4.37 5.27 104.08 104.08 0 0 1 -75.87 23.33l-16.33-1.65h-.33c-17.59-3.53-35.38-10.84-52.87-21.74a192.41 192.41 0 0 1 -18.47-12.56c-.7-.56-1.35-1.11-2-1.64-2.79-2.33-4.81-4-8.07-4.55-11.78-1.93-26.16.12-38.85 1.93-2.34.33-4.62.66-6.83 1-2.73.36-5.13.75-6.9 1.9-2 1.28-3.4 3.69-4.57 5.86-13.68 25.2-16.52 57-7.78 87.15 7.9 27.2 24.9 53.01 49.07 74.51 11.11 9.88 21.83 17.16 32.71 22.29a128.05 128.05 0 0 0 29.12 9.3c50.27 10.2 111.07-3.18 154.9-34.07 37-26 64.84-65.73 87.77-124.89a3.42 3.42 0 0 1 6.38 2.47c-23.43 60.48-52.1 101.15-90.2 128-35.18 24.82-81 38.69-124.09 38.69z"/><path d="m377 343.64a3.41 3.41 0 0 1 -2-.65c-1.75-1.26-4.19-1.86-6.55-2.44l-86.35-21.25c-8.75-2.15-17.8-4.38-26.7-3.7a3.42 3.42 0 1 1 -.52-6.83c10-.76 20 1.7 28.86 3.88l86.26 21.25c2.86.7 6.09 1.5 8.92 3.54a3.42 3.42 0 0 1 -2 6.2z"/><path d="m221.92 388.37a3.42 3.42 0 0 1 -3.23-2.28l-12.16-34.35a3.42 3.42 0 1 1 6.45-2.28l12.16 34.35a3.43 3.43 0 0 1 -3.23 4.57z"/><path d="m240.58 369.74a3.42 3.42 0 0 1 -2.88-1.56 192.35 192.35 0 0 1 -10.7-18.82 3.42 3.42 0 0 1 6.13-3 185.65 185.65 0 0 0 10.33 18.14 3.42 3.42 0 0 1 -2.87 5.28z"/><path d="m158.07 384.58h-.24a3.42 3.42 0 0 1 -3.18-3.65 277.77 277.77 0 0 1 3.8-30.41 3.42 3.42 0 0 1 6.74 1.22 270.85 270.85 0 0 0 -3.71 29.66 3.42 3.42 0 0 1 -3.41 3.18z"/><path d="m133 377.55a3.42 3.42 0 0 1 -3.14-4.77c3.61-8.41 7.54-16.81 11.7-25a3.42 3.42 0 1 1 6.1 3.1c-4.09 8-8 16.3-11.51 24.57a3.42 3.42 0 0 1 -3.15 2.1z"/><path d="m270.13 368.55a3.42 3.42 0 0 1 -2.54-1.13 269.28 269.28 0 0 1 -22-27.88 3.42 3.42 0 0 1 5.64-3.87 262.41 262.41 0 0 0 21.43 27.17 3.42 3.42 0 0 1 -2.54 5.72z"/><path d="m88.46 379a3.42 3.42 0 0 1 -2.69-5.54 337.6 337.6 0 0 1 34-37.17 3.42 3.42 0 1 1 4.69 5 330.6 330.6 0 0 0 -33.33 36.42 3.42 3.42 0 0 1 -2.67 1.29z"/><path d="m86.93 355a3.42 3.42 0 0 1 -2.36-5.91l20.74-19.68a3.42 3.42 0 0 1 4.71 5l-20.73 19.68a3.41 3.41 0 0 1 -2.36.91z"/><path d="m163.44 494.4a168.71 168.71 0 0 1 -31-2.63c-9.72-1.85-18.79-5.5-26.39-8.82-36.34-15.9-65.51-38.35-86.7-66.71a3.42 3.42 0 1 1 5.49-4.1c20.47 27.4 48.71 49.12 84 64.54 7.25 3.17 15.88 6.65 24.93 8.37 18.71 3.57 116.72 16.35 209.16-82.89a3.42 3.42 0 0 1 5 4.67c-69.76 74.88-142.93 87.57-184.49 87.57z"/><path d="m333.78 70.28a3.41 3.41 0 0 1 -2.18-.79c-4.83-4-8.19-6.51-14.07-7.38a15.38 15.38 0 0 0 -6.86.24 3.42 3.42 0 0 1 -2.08-6.52 21.91 21.91 0 0 1 9.93-.49c7.6 1.12 12.21 4.54 17.45 8.89a3.42 3.42 0 0 1 -2.19 6.06z"/></g></svg>