<?xml version="1.0"?>
<svg xmlns="http://www.w3.org/2000/svg" xmlns:xlink="http://www.w3.org/1999/xlink" id="icon" viewBox="0 0 512 512" width="512" height="512"><defs><linearGradient id="linear-gradient" x1="356.605" y1="56.856" x2="47.266" y2="621.915" gradientUnits="userSpaceOnUse"><stop offset="0" stop-color="#ffc7c7"/><stop offset="0.995" stop-color="#f67d7d"/></linearGradient><linearGradient id="linear-gradient-2" x1="122.233" y1="386.315" x2="378.895" y2="73.621" gradientUnits="userSpaceOnUse"><stop offset="0" stop-color="#fff6f6"/><stop offset="0.995" stop-color="#fff"/></linearGradient><linearGradient id="linear-gradient-3" x1="172.159" y1="326.801" x2="256.209" y2="219.705" xlink:href="#linear-gradient-2"/><linearGradient id="linear-gradient-4" x1="222.064" y1="271.974" x2="256.676" y2="213.915" xlink:href="#linear-gradient-2"/></defs><title>sliced pork</title><path d="M295.248,28.331S153.137,19.771,78.651,153.4c0,0-3.264,5.745-8.34,14.792-26.634,47.48-41.452,100.832-42,155.268a263.368,263.368,0,0,0,4.985,55.53c4.7,22.791,17.816,43.072,35.307,58.42,29.34,25.745,85.138,58.554,168.491,41.8,0,0,85.4-16.565,116.264-81.033a153.46,153.46,0,0,1,10.812-19.371c9.7-14.46,27.868-37.86,52.435-53.541a119.183,119.183,0,0,0,22.411-18.118c15.645-16.451,37.7-47.272,43.387-94.209C482.4,212.939,511.418,32.408,295.248,28.331Z" style="fill:url(#linear-gradient)"/><path d="M191.778,102.129a8.42,8.42,0,0,0,4.434,3,8.176,8.176,0,0,0,3.28.293,8.957,8.957,0,0,0,1.171-.216,8.8,8.8,0,0,0,4.51-2.807,13.635,13.635,0,0,0,2.483-3.9c1.543-3.621,1.22-7.192-.862-9.553a8.021,8.021,0,0,0-3.908-2.611,7.425,7.425,0,0,0-1.169-.246,8.611,8.611,0,0,0-5.366.2,9.771,9.771,0,0,0-5.427,5,12.573,12.573,0,0,0-.662,2.2l-.044.191a6.762,6.762,0,0,0-.154,1.274l-.015.344a11.418,11.418,0,0,0,.1,2.8A9.8,9.8,0,0,0,191.778,102.129Z" style="fill:#fff"/><path d="M330.806,70.461A164.584,164.584,0,0,0,282.6,65.37c-20.934.769-36.775,4.511-48.413,11.444a5.713,5.713,0,0,0-2.748,6.817,7.87,7.87,0,0,0,7.4,5.59,174.589,174.589,0,0,0,20.069-2.267c5.893-.9,11.983-1.825,17.994-2.159a160.785,160.785,0,0,1,38.238,2.163,134.242,134.242,0,0,1,27.085,7.979,61.39,61.39,0,0,1,8.166,7.656c3.546,3.9,6.828,8.166,10,12.293a175.564,175.564,0,0,0,11.365,13.781c5.387,5.7,11.643,10.057,17.693,14.269,2.937,2.045,5.974,4.159,8.888,6.409,7.015,5.417,10.3,12.251,13.779,19.485l.634,1.316.094.292c.249.771.5,1.54.728,2.317,2.83,9.606,5.967,22.319,5.114,35.464a92.689,92.689,0,0,1-10.025,35.235c-2.177,4.316-4.722,8.558-7.183,12.661-.975,1.625-1.949,3.249-2.905,4.882-.785,1.341-1.544,2.7-2.3,4.062-2.824,5.065-5.492,9.85-9.5,13.748a129.011,129.011,0,0,1-11.846,9.852c-16.134,8.119-32.038,22.7-47.271,43.334-4.752,6.436-9.2,13.25-13.5,19.839-7.627,11.686-15.515,23.771-25.3,34.02-11.95,12.516-28.776,22.76-50.01,30.447a106.4,106.4,0,0,1-24.087,5.62,112.364,112.364,0,0,1-15.209.294,123.514,123.514,0,0,0-14.329.186c-1.341-.259-2.68-.526-4.01-.811-3.286-.7-6.563-1.448-9.839-2.194-2.942-.67-5.884-1.34-8.833-1.977-.883-.192-1.785-.412-2.7-.635-.783-.191-1.574-.384-2.368-.563a91.822,91.822,0,0,1-24.694-15.747c-18.418-16.184-31.565-36.9-39.073-61.566-7.892-25.935-9.323-53.882-4.028-78.693a135.055,135.055,0,0,1,14.458-38.12c6.209-11.021,10.994-22.017,16.061-33.657q1.539-3.535,3.1-7.1c5.555-12.613,11.985-25.915,21.335-37.737,5.478-6.925,12.041-12.858,18.387-18.595,4.017-3.632,8.171-7.388,12.059-11.395a5.541,5.541,0,0,0,.595-7.216,6.748,6.748,0,0,0-7.878-2.814c-13.566,5.211-24.739,17.046-31.963,25.494a130.708,130.708,0,0,0-21.823,35.571,108.233,108.233,0,0,0-4.339,14.214c-.766,3-1.557,6.1-2.508,9.089a113.682,113.682,0,0,1-9.882,22.024c-1.313,2.3-2.638,4.568-3.958,6.826-6.6,11.289-12.827,21.953-16.626,34.63-16.5,55.072-.014,118.6,41.029,158.073,19.551,18.805,41.879,29.354,64.58,30.516,9.529,3.078,20.6,2.671,30.243,2.045q2.811-.183,5.659-.508a130.323,130.323,0,0,0,22.783-4.775c20.011-6.048,39.118-16.322,53.805-28.93,15.751-13.52,26.521-31.137,36.938-48.175q2.171-3.55,4.356-7.093c5.754-9.285,12.2-19.1,20.368-27.958a115.655,115.655,0,0,1,10.952-10.286,12.174,12.174,0,0,0,1.355-.5,28.678,28.678,0,0,0,6.935-5.058c.82-.731,1.62-1.443,2.4-2.067,2.043-1.642,4.128-3.245,6.214-4.849,4.1-3.157,8.35-6.421,12.25-9.973,8.465-7.709,14.225-18.148,19.8-28.243,1.031-1.867,2.052-3.717,3.078-5.529a113.863,113.863,0,0,0,13.814-39.371c2.436-16.274,2.949-29.433,1.572-40.23C427.485,120.982,377.294,82.788,330.806,70.461Z" style="fill:url(#linear-gradient-2)"/><path d="M269.629,334.115c11.985-4.259,16.046-14.117,19.974-23.65,1.91-4.639,3.886-9.435,6.766-13.642,5.139-7.508,12.534-13.4,19.687-19.092,5.787-4.608,11.769-9.373,16.666-15.039,10.569-12.232,14.822-30.562,11.973-51.616l-.057-.426c-2.456-18.168-5.239-38.76-21.649-50.358-15.01-10.61-36.3-15.123-55.147-18.138-11.032-1.766-20.409-1.839-28.667-.213-10.8,2.122-20.424,7.476-29.728,12.652l-1.212.675c-18.906,10.5-31.707,22.705-41.492,39.548-2.522,3.12-5.054,6.614-7.738,10.677a148.807,148.807,0,0,0-13.618,25.266c-7.444,18-10.394,36.838-8.529,54.487,1.992,18.844,9.376,36.036,20.795,48.408,11.654,12.63,28.2,21.525,49.18,26.439a6.735,6.735,0,0,0,2.317.149,7.458,7.458,0,0,0,5.868-5.035,8.752,8.752,0,0,0,1.909-7.333,7.546,7.546,0,0,0-4.558-5.345q-2.308-1.01-4.633-2.047a5.434,5.434,0,0,0-.755-.416c-5.352-2.39-7.281-6.055-9.951-11.127l-.876-1.654a35.465,35.465,0,0,0-11.864-13.012l-1.277-.872c-4.921-3.354-9.171-6.251-11.849-11.758-2.373-4.878-3.59-10.426-4.766-15.789l-.5-2.246c-2.47-11.025-4.8-24.138-3.417-37.842a193.936,193.936,0,0,1,10.531-30.132c6.32-14.339,15.036-30.484,31.759-41.511,14.744-9.721,32.109-19.993,51.585-18.78A152.8,152.8,0,0,1,306.209,167.3c14.424,6.32,22.938,19.132,26.789,40.322,1.275,7.011,2.539,16.177,1,24.906-1.334,7.579-5.43,14.309-12.887,21.18a164.4,164.4,0,0,1-13.551,10.812c-7.577,5.618-15.41,11.428-21.418,19.3-5.129,6.723-8,14.477-10.526,21.319l-.6,1.636c-2.4,6.578-5.124,14.034-10.609,17.844a5.038,5.038,0,0,0-1.645,6.654A5.6,5.6,0,0,0,269.629,334.115Z" style="fill:url(#linear-gradient-3)"/><path d="M262.862,258.487c5.238-3.52,8.713-7.572,10.626-12.388h0c4.121-10.383.859-22.884-7.933-30.4a32.617,32.617,0,0,0-21.4-7.668,6.259,6.259,0,0,0-1.761-.166c-9.992.485-19.594,5.924-27.044,15.3-8.368,10.536-12.294,24.1-10.245,35.4,2.124,11.706,10.625,20.924,21.153,22.939a23.5,23.5,0,0,0,7.094.262,23.746,23.746,0,0,0,8.489-2.65c4.989-2.672,7.022-6.3,9.376-10.5.351-.626.71-1.267,1.09-1.924,1.669-2.884,4.434-4.513,7.363-6.237C260.719,259.836,261.805,259.2,262.862,258.487Z" style="fill:url(#linear-gradient-4)"/></svg>
