<svg xmlns="http://www.w3.org/2000/svg" version="1.1" xmlns:xlink="http://www.w3.org/1999/xlink" width="512" height="512" x="0" y="0" viewBox="0 0 140 140" style="enable-background:new 0 0 512 512" xml:space="preserve" class=""><g><path fill="#e39176" d="m109.092 121.293-19.936-5.053L82.503 134l-18.01-37.682 26.59-12.708z" opacity="1" data-original="#68a6df" class=""></path><path fill="#ebab95" d="m88.905 84.651 17.143 35.87 3.044.772-18.01-37.683-13.294 6.354z" opacity="1" data-original="#5c94c6" class=""></path><path fill="#ebab95" d="m66.672 95.277-2.178 1.04L82.503 134l1.175-3.138z" opacity="1" data-original="#b3d3ef" class=""></path><path fill="#231f20" d="M82.503 135a1 1 0 0 1-.902-.568L63.59 96.749a1.001 1.001 0 0 1 .471-1.334l26.59-12.707a1 1 0 0 1 1.333.47l18.01 37.683a1 1 0 0 1-1.149 1.402l-19.068-4.833-6.339 16.92a1 1 0 0 1-.893.649l-.043.001zM65.827 96.788l16.564 34.66 5.828-15.558a1 1 0 0 1 1.182-.62l17.869 4.53-16.658-34.857z" opacity="1" data-original="#231f20" class=""></path><path fill="#e39176" d="m30.908 121.293 19.936-5.053L57.497 134l18.01-37.682-26.59-12.708z" opacity="1" data-original="#68a6df" class=""></path><path fill="#ebab95" d="m51.095 84.651-17.143 35.87-3.044.772L48.917 83.61l13.295 6.354z" opacity="1" data-original="#5c94c6" class=""></path><path fill="#ebab95" d="m73.328 95.277 2.178 1.04L57.497 134l-1.175-3.138z" opacity="1" data-original="#b3d3ef" class=""></path><path fill="#231f20" d="m57.497 135-.043-.001a1 1 0 0 1-.893-.648l-6.34-16.921-19.067 4.833a.999.999 0 0 1-1.148-1.402L48.015 83.18a1.001 1.001 0 0 1 1.333-.471l26.59 12.707a1 1 0 0 1 .47 1.334L58.4 134.432a1 1 0 0 1-.902.568zm-6.653-19.76a1 1 0 0 1 .936.65l5.829 15.557 16.564-34.659-24.785-11.845L32.73 119.8l17.868-4.53c.082-.02.165-.03.246-.03z" opacity="1" data-original="#231f20" class=""></path><path fill="#ef7c56" d="M121.27 57.27c0 6.546-7.073 11.637-9.433 17.329-2.447 5.9-1.137 14.48-5.583 18.926-4.446 4.446-13.026 3.136-18.926 5.583-5.692 2.36-10.783 9.434-17.328 9.434s-11.637-7.074-17.328-9.434c-5.9-2.447-14.48-1.137-18.926-5.583-4.446-4.447-3.137-13.027-5.583-18.926-2.36-5.692-9.434-10.783-9.434-17.328s7.074-11.637 9.434-17.328c2.447-5.9 1.137-14.48 5.583-18.926 4.446-4.446 13.026-3.137 18.926-5.583C58.363 13.074 63.455 6 70 6s11.637 7.074 17.328 9.434c5.9 2.446 14.48 1.137 18.926 5.583 4.446 4.446 3.136 13.026 5.583 18.926 2.36 5.691 9.434 10.783 9.434 17.328z" opacity="1" data-original="#f05262" class=""></path><path fill="#f697a1" d="M33.746 22.696c4.446-4.24 13.026-2.991 18.926-5.324C58.363 15.122 63.455 8.375 70 8.375s11.637 6.746 17.328 8.997c5.9 2.333 14.48 1.084 18.926 5.324 4.446 4.24 3.137 12.423 5.583 18.05 2.36 5.427 9.434 10.283 9.434 16.525 0-6.545-7.074-11.637-9.434-17.328-2.446-5.9-1.137-14.48-5.583-18.926-4.446-4.446-13.026-3.137-18.926-5.583C81.637 13.074 76.545 6 70 6s-11.637 7.074-17.328 9.434c-5.9 2.446-14.48 1.137-18.926 5.583s-3.136 13.026-5.583 18.926c-2.36 5.691-9.434 10.783-9.434 17.328 0-6.242 7.074-11.098 9.434-16.525 2.447-5.627 1.137-13.81 5.583-18.05z" opacity="1" data-original="#f697a1" class=""></path><path fill="#d54957" d="M111.837 73.796c-2.447 5.627-1.137 13.81-5.583 18.05s-13.026 2.99-18.926 5.324c-5.692 2.25-10.783 8.997-17.328 8.997S58.363 99.42 52.672 97.17c-5.9-2.333-14.48-1.085-18.926-5.325-4.446-4.24-3.137-12.423-5.583-18.05-2.36-5.427-9.434-10.283-9.434-16.524 0 6.545 7.074 11.636 9.434 17.328 2.446 5.9 1.137 14.48 5.583 18.926 4.446 4.446 13.026 3.136 18.926 5.583 5.691 2.36 10.783 9.434 17.328 9.434s11.636-7.074 17.328-9.434c5.9-2.447 14.48-1.137 18.926-5.583 4.446-4.446 3.136-13.026 5.583-18.926 2.36-5.692 9.434-10.783 9.434-17.328 0 6.242-7.074 11.097-9.434 16.525z" opacity="1" data-original="#d54957" class=""></path><path fill="#231f20" d="M70 109.542c-4.35 0-7.973-2.777-11.476-5.464-2.136-1.637-4.153-3.183-6.235-4.047-2.21-.917-4.937-1.294-7.575-1.659-4.3-.596-8.747-1.212-11.675-4.14-2.929-2.93-3.544-7.376-4.14-11.676-.365-2.637-.743-5.365-1.66-7.575-.863-2.082-2.41-4.1-4.047-6.234-2.686-3.504-5.463-7.127-5.463-11.476s2.777-7.973 5.463-11.477c1.638-2.135 3.184-4.152 4.047-6.234.917-2.21 1.295-4.938 1.66-7.575.596-4.3 1.211-8.747 4.14-11.675s7.376-3.545 11.676-4.141c2.637-.365 5.364-.742 7.575-1.66 2.082-.863 4.099-2.41 6.234-4.046C62.028 7.777 65.65 5 70 5s7.972 2.777 11.475 5.463c2.136 1.637 4.153 3.183 6.236 4.047 2.21.917 4.937 1.294 7.574 1.659 4.3.596 8.747 1.212 11.676 4.14s3.544 7.376 4.14 11.676c.365 2.638.743 5.365 1.66 7.576.863 2.082 2.41 4.1 4.047 6.235 2.686 3.503 5.463 7.125 5.463 11.475s-2.777 7.972-5.463 11.475c-1.638 2.136-3.184 4.153-4.047 6.235-.917 2.211-1.295 4.938-1.66 7.576-.596 4.3-1.211 8.747-4.14 11.674-2.929 2.93-7.376 3.545-11.676 4.141-2.637.365-5.364.742-7.575 1.66-2.082.863-4.099 2.41-6.234 4.046-3.503 2.687-7.126 5.464-11.476 5.464zM70 7c-3.671 0-7.02 2.567-10.259 5.05-2.144 1.643-4.36 3.344-6.686 4.307-2.447 1.015-5.304 1.41-8.066 1.793-4.156.577-8.082 1.12-10.536 3.574-2.453 2.454-2.997 6.38-3.573 10.536-.383 2.761-.778 5.618-1.793 8.065-.964 2.325-2.664 4.542-4.308 6.686-2.483 3.239-5.05 6.588-5.05 10.26s2.567 7.02 5.05 10.26c1.644 2.143 3.344 4.36 4.308 6.685 1.015 2.447 1.41 5.304 1.793 8.065.576 4.157 1.12 8.082 3.573 10.536s6.38 2.997 10.536 3.574c2.762.382 5.618.778 8.066 1.793 2.325.963 4.542 2.664 6.686 4.307 3.238 2.484 6.588 5.051 10.259 5.051s7.02-2.567 10.259-5.05c2.144-1.644 4.36-3.345 6.685-4.308 2.448-1.015 5.305-1.41 8.067-1.793 4.156-.577 8.082-1.12 10.536-3.574 2.453-2.453 2.997-6.379 3.573-10.535.383-2.762.778-5.619 1.793-8.066.964-2.325 2.664-4.542 4.308-6.687 2.483-3.238 5.05-6.587 5.05-10.258 0-3.671-2.567-7.02-5.05-10.258-1.644-2.145-3.344-4.362-4.308-6.687-1.015-2.447-1.41-5.304-1.793-8.066-.576-4.156-1.12-8.082-3.573-10.536-2.454-2.454-6.38-2.997-10.536-3.574-2.762-.382-5.618-.778-8.066-1.793-2.325-.963-4.542-2.664-6.687-4.307C77.02 9.567 73.671 7 70 7z" opacity="1" data-original="#231f20" class=""></path><circle cx="70" cy="57.271" r="32.248" fill="#f2f2f3" opacity="1" data-original="#f2f2f3" class=""></circle><path fill="#ef7c56" d="m70 37.633 5.73 11.612 12.815 1.862-9.272 9.039 2.189 12.762L70 66.883l-11.462 6.025 2.19-12.762-9.273-9.039 12.814-1.862z" opacity="1" data-original="#f05262" class=""></path><path fill="#231f20" d="M58.538 73.908a.998.998 0 0 1-.986-1.169l2.1-12.244-8.895-8.672a.998.998 0 0 1 .554-1.705l12.294-1.787 5.498-11.14c.337-.684 1.457-.684 1.794 0l5.498 11.14 12.294 1.787a1 1 0 0 1 .554 1.705l-8.896 8.672 2.1 12.244a1 1 0 0 1-1.45 1.054L70 68.013l-10.997 5.78a.997.997 0 0 1-.465.115zM70 65.883c.16 0 .32.038.465.115l9.668 5.082-1.846-10.766a1 1 0 0 1 .288-.884l7.821-7.624-10.81-1.572a1 1 0 0 1-.752-.547L70 39.894l-4.834 9.795a1 1 0 0 1-.753.546l-10.81 1.572 7.822 7.624c.236.23.344.56.288.884L59.866 71.08l9.669-5.082a.993.993 0 0 1 .465-.115z" opacity="1" data-original="#231f20" class=""></path><path fill="#bcbcbd" d="M40.752 60.604c0-17.81 14.438-32.248 32.248-32.248 8.71 0 16.606 3.459 22.409 9.07C89.506 29.879 80.323 25.023 70 25.023c-17.81 0-32.248 14.438-32.248 32.248 0 9.1 3.776 17.315 9.84 23.178a32.099 32.099 0 0 1-6.84-19.845z" opacity="1" data-original="#bcbcbd" class=""></path><path fill="#231f20" d="M70 90.519c-18.333 0-33.248-14.915-33.248-33.248S51.667 24.022 70 24.022s33.248 14.915 33.248 33.249S88.333 90.519 70 90.519zm0-64.497c-17.23 0-31.248 14.018-31.248 31.249S52.77 88.519 70 88.519 101.248 74.5 101.248 57.27 87.23 26.022 70 26.022z" opacity="1" data-original="#231f20" class=""></path></g></svg>