<svg id="Capa_1" enable-background="new 0 0 497 497" height="512" viewBox="0 0 497 497" width="512" xmlns="http://www.w3.org/2000/svg"><g><path d="m254.125 452c-1.973 0-3.865.456-5.625 1.285-1.76-.83-3.652-1.285-5.625-1.285-9.32 0-16.875 10.074-16.875 22.5s10.074 22.5 22.5 22.5 22.5-10.074 22.5-22.5-7.555-22.5-16.875-22.5z" fill="#ffd06a"/><path d="m242.875 45c1.973 0 3.865-.456 5.625-1.285 1.76.83 3.652 1.285 5.625 1.285 9.32 0 16.875-10.074 16.875-22.5s-10.074-22.5-22.5-22.5-22.5 10.074-22.5 22.5 7.555 22.5 16.875 22.5z" fill="#ffe8b5"/><path d="m323.387 437.804c-1.854.675-3.476 1.75-4.846 3.132-1.938-.178-3.872.041-5.725.716-8.758 3.188-12.412 15.238-8.162 26.915s17.161 17.698 28.839 13.448c11.677-4.25 17.698-17.162 13.448-28.839-4.251-11.678-14.796-18.56-23.554-15.372z" fill="#ffb35c"/><path d="m173.613 59.196c1.854-.675 3.476-1.75 4.846-3.132 1.938.178 3.872-.041 5.725-.716 8.758-3.188 12.412-15.238 8.162-26.915s-17.161-17.698-28.839-13.448c-11.677 4.25-17.698 17.162-13.448 28.839 4.251 11.678 14.796 18.56 23.554 15.372z" fill="#fff4de"/><path d="m383.616 400.774c-1.511 1.268-2.668 2.834-3.483 4.6-1.881.496-3.624 1.363-5.135 2.631-7.139 5.991-6.452 18.564 1.536 28.083s22.18 10.761 31.699 2.773c9.519-7.987 10.761-22.18 2.773-31.699-7.988-9.518-20.25-12.378-27.39-6.388z" fill="#ffd06a"/><path d="m113.384 96.226c1.511-1.268 2.668-2.834 3.483-4.6 1.881-.496 3.624-1.363 5.135-2.631 7.139-5.991 6.452-18.564-1.536-28.083s-22.18-10.761-31.699-2.773c-9.519 7.987-10.761 22.18-2.773 31.699 7.988 9.518 20.25 12.378 27.39 6.388z" fill="#ffe8b5"/><path d="m427.549 345.379c-.986 1.709-1.538 3.575-1.699 5.514-1.598 1.109-2.939 2.52-3.926 4.229-4.66 8.071.286 19.651 11.048 25.864s24.522 2.526 30.736-8.236c6.213-10.761 2.526-24.522-8.236-30.736-10.762-6.213-23.263-4.707-27.923 3.365z" fill="#ffb35c"/><path d="m69.451 151.621c.986-1.709 1.538-3.575 1.699-5.514 1.598-1.109 2.939-2.52 3.926-4.229 4.66-8.071-.286-19.651-11.048-25.864s-24.522-2.526-30.736 8.236c-6.213 10.761-2.526 24.522 8.236 30.736 10.762 6.213 23.263 4.706 27.923-3.365z" fill="#fff4de"/><path d="m449.885 278.298c-.343 1.943-.222 3.886.289 5.763-1.123 1.589-1.9 3.374-2.243 5.316-1.618 9.178 6.99 18.368 19.228 20.526s23.907-6.013 26.065-18.251c2.158-12.237-6.013-23.907-18.251-26.065-12.237-2.159-23.469 3.533-25.088 12.711z" fill="#ffd06a"/><path d="m47.115 218.702c.343-1.943.222-3.886-.289-5.763 1.123-1.589 1.9-3.374 2.243-5.316 1.618-9.178-6.99-18.368-19.228-20.526s-23.907 6.013-26.065 18.251c-2.158 12.237 6.013 23.907 18.251 26.065 12.237 2.159 23.47-3.533 25.088-12.711z" fill="#ffe8b5"/><path d="m447.932 207.623c.343 1.943 1.12 3.727 2.243 5.316-.511 1.877-.632 3.82-.289 5.763 1.618 9.178 12.851 14.869 25.088 12.712 12.238-2.158 20.409-13.828 18.251-26.065s-13.828-20.409-26.065-18.251c-12.238 2.157-20.847 11.347-19.228 20.525z" fill="#ffe8b5"/><path d="m49.068 289.377c-.343-1.943-1.12-3.728-2.243-5.316.511-1.877.632-3.82.289-5.763-1.618-9.178-12.851-14.869-25.088-12.712-12.238 2.158-20.409 13.828-18.251 26.065s13.828 20.409 26.065 18.251c12.238-2.157 20.847-11.347 19.228-20.525z" fill="#fff4de"/><path d="m421.924 141.879c.986 1.709 2.327 3.12 3.926 4.229.162 1.939.713 3.806 1.699 5.514 4.66 8.071 17.161 9.577 27.923 3.364s14.449-19.974 8.236-30.736c-6.213-10.761-19.974-14.449-30.736-8.236-10.762 6.214-15.708 17.794-11.048 25.865z" fill="#ffd06a"/><path d="m75.076 355.121c-.986-1.709-2.327-3.12-3.926-4.229-.162-1.939-.713-3.806-1.699-5.514-4.66-8.071-17.161-9.577-27.923-3.364s-14.449 19.974-8.236 30.736c6.213 10.761 19.974 14.449 30.736 8.236 10.762-6.214 15.708-17.793 11.048-25.865z" fill="#ffe8b5"/><path d="m374.998 88.994c1.511 1.268 3.254 2.135 5.135 2.631.815 1.767 1.972 3.332 3.483 4.6 7.139 5.991 19.402 3.13 27.39-6.389s6.746-23.711-2.773-31.699c-9.519-7.987-23.711-6.746-31.699 2.773-7.988 9.52-8.675 22.094-1.536 28.084z" fill="#ffb35c"/><path d="m122.002 408.006c-1.511-1.268-3.254-2.135-5.135-2.631-.815-1.767-1.972-3.332-3.483-4.6-7.139-5.991-19.402-3.13-27.39 6.389s-6.746 23.711 2.773 31.699c9.519 7.987 23.711 6.746 31.699-2.773 7.988-9.52 8.675-22.094 1.536-28.084z" fill="#fff4de"/><path d="m312.815 55.349c1.854.675 3.788.894 5.725.716 1.37 1.381 2.992 2.457 4.846 3.132 8.758 3.188 19.303-3.694 23.553-15.371s-1.771-24.588-13.448-28.839c-11.677-4.25-24.588 1.771-28.839 13.448-4.249 11.676-.594 23.726 8.163 26.914z" fill="#ffd06a"/><g fill="#ffe8b5"><path d="m184.185 441.651c-1.854-.675-3.788-.894-5.725-.716-1.37-1.382-2.992-2.457-4.846-3.132-8.758-3.188-19.303 3.694-23.553 15.371s1.771 24.588 13.448 28.839c11.677 4.25 24.588-1.771 28.839-13.448 4.249-11.676.594-23.726-8.163-26.914z"/><path d="m254.125 226c-1.973 0-3.865.456-5.625 1.285-1.76-.83-3.652-1.285-5.625-1.285-9.32 0-16.875 10.074-16.875 22.5s10.074 22.5 22.5 22.5 22.5-10.074 22.5-22.5-7.555-22.5-16.875-22.5z"/><path d="m254.125 376.667c-1.973 0-3.865.456-5.625 1.285-1.76-.83-3.652-1.285-5.625-1.285-9.32 0-16.875 10.074-16.875 22.5s10.074 22.5 22.5 22.5 22.5-10.074 22.5-22.5c0-12.427-7.555-22.5-16.875-22.5z"/><path d="m242.875 120.333c1.973 0 3.865-.456 5.625-1.285 1.76.83 3.652 1.285 5.625 1.285 9.32 0 16.875-10.074 16.875-22.5s-10.074-22.5-22.5-22.5-22.5 10.074-22.5 22.5c0 12.427 7.555 22.5 16.875 22.5z"/></g><path d="m317.455 356.683c-1.709.986-3.12 2.327-4.229 3.926-1.939.162-3.806.713-5.514 1.699-8.071 4.66-9.577 17.161-3.364 27.923s19.974 14.449 30.736 8.236c10.761-6.213 14.449-19.974 8.236-30.736-6.214-10.761-17.794-15.708-25.865-11.048z" fill="#ffd06a"/><path d="m179.545 140.317c1.709-.986 3.12-2.327 4.229-3.926 1.939-.162 3.806-.713 5.514-1.699 8.071-4.66 9.577-17.161 3.364-27.923s-19.974-14.449-30.736-8.236c-10.761 6.213-14.449 19.974-8.236 30.736 6.214 10.761 17.794 15.708 25.865 11.048z" fill="#ffd06a"/><path d="m362.308 307.712c-.986 1.709-1.538 3.575-1.699 5.514-1.598 1.109-2.939 2.52-3.926 4.229-4.66 8.071.286 19.651 11.048 25.864s24.522 2.526 30.736-8.236c6.213-10.761 2.526-24.522-8.236-30.736-10.761-6.212-23.263-4.706-27.923 3.365z" fill="#ffe8b5"/><path d="m134.692 189.288c.986-1.709 1.538-3.575 1.699-5.514 1.598-1.109 2.939-2.52 3.926-4.229 4.66-8.071-.286-19.651-11.048-25.864s-24.522-2.526-30.736 8.236c-6.213 10.761-2.526 24.522 8.236 30.736 10.761 6.212 23.263 4.706 27.923-3.365z" fill="#ffe8b5"/><path d="m376.667 242.875c0 1.973.456 3.865 1.285 5.625-.83 1.76-1.285 3.652-1.285 5.625 0 9.32 10.074 16.875 22.5 16.875s22.5-10.074 22.5-22.5-10.074-22.5-22.5-22.5c-12.427 0-22.5 7.555-22.5 16.875z" fill="#ffd06a"/><path d="m120.333 254.125c0-1.973-.456-3.865-1.285-5.625.83-1.76 1.285-3.652 1.285-5.625 0-9.32-10.074-16.875-22.5-16.875s-22.5 10.074-22.5 22.5 10.074 22.5 22.5 22.5c12.427 0 22.5-7.555 22.5-16.875z" fill="#ffd06a"/><path d="m356.683 179.545c.986 1.709 2.327 3.12 3.926 4.229.162 1.939.713 3.806 1.699 5.514 4.66 8.071 17.161 9.577 27.923 3.364s14.449-19.974 8.236-30.736c-6.213-10.761-19.974-14.449-30.736-8.236-10.761 6.214-15.708 17.794-11.048 25.865z" fill="#ffe8b5"/><path d="m140.317 317.455c-.986-1.709-2.327-3.12-3.926-4.229-.162-1.939-.713-3.806-1.699-5.514-4.66-8.071-17.161-9.577-27.923-3.364s-14.449 19.974-8.236 30.736c6.213 10.761 19.974 14.449 30.736 8.236 10.761-6.214 15.708-17.794 11.048-25.865z" fill="#ffe8b5"/><path d="m307.712 134.692c1.709.986 3.575 1.538 5.514 1.699 1.109 1.598 2.52 2.939 4.229 3.926 8.071 4.66 19.651-.286 25.864-11.048s2.526-24.522-8.236-30.736c-10.761-6.213-24.522-2.526-30.736 8.236-6.212 10.761-4.706 23.263 3.365 27.923z" fill="#ffd06a"/><path d="m189.288 362.308c-1.709-.986-3.575-1.538-5.514-1.699-1.109-1.598-2.52-2.939-4.229-3.926-8.071-4.66-19.651.286-25.864 11.048s-2.526 24.522 8.236 30.736c10.761 6.213 24.522 2.526 30.736-8.236 6.212-10.761 4.706-23.263-3.365-27.923z" fill="#ffd06a"/><path d="m254.125 301.333c-1.973 0-3.865.456-5.625 1.285-1.76-.83-3.652-1.285-5.625-1.285-9.32 0-16.875 10.074-16.875 22.5s10.074 22.5 22.5 22.5 22.5-10.074 22.5-22.5-7.555-22.5-16.875-22.5z" fill="#fff4de"/><path d="m242.875 195.667c1.973 0 3.865-.456 5.625-1.285 1.76.83 3.652 1.285 5.625 1.285 9.32 0 16.875-10.074 16.875-22.5s-10.074-22.5-22.5-22.5-22.5 10.074-22.5 22.5 7.555 22.5 16.875 22.5z" fill="#ffe8b5"/><path d="m297.068 270.045c-.986 1.709-1.538 3.575-1.699 5.514-1.598 1.109-2.939 2.52-3.926 4.229-4.66 8.071.286 19.651 11.048 25.864s24.522 2.526 30.736-8.236c6.213-10.761 2.526-24.522-8.236-30.736-10.762-6.212-23.264-4.706-27.923 3.365z" fill="#ffd06a"/><path d="m199.932 226.955c.986-1.709 1.538-3.575 1.699-5.514 1.598-1.109 2.939-2.52 3.926-4.229 4.66-8.071-.286-19.651-11.048-25.864s-24.522-2.526-30.736 8.236c-6.213 10.761-2.526 24.522 8.236 30.736 10.762 6.212 23.264 4.706 27.923-3.365z" fill="#fff4de"/><path d="m291.443 217.212c.986 1.709 2.327 3.12 3.926 4.229.162 1.939.713 3.806 1.699 5.514 4.66 8.071 17.161 9.577 27.923 3.364s14.449-19.974 8.236-30.736c-6.213-10.761-19.974-14.449-30.736-8.236-10.762 6.214-15.708 17.794-11.048 25.865z" fill="#ffb35c"/><path d="m205.557 279.788c-.986-1.709-2.327-3.12-3.926-4.229-.162-1.939-.713-3.806-1.699-5.514-4.66-8.071-17.161-9.577-27.923-3.364s-14.449 19.974-8.236 30.736c6.213 10.761 19.974 14.449 30.736 8.236 10.762-6.214 15.708-17.794 11.048-25.865z" fill="#ffe8b5"/></g></svg>