<svg id="icons" height="512" viewBox="0 0 340 340" width="512" xmlns="http://www.w3.org/2000/svg"><path d="m112.936 34.923s23.086-30.506 61.287-24.4c0 0 25.009 3.517 40.193 35.178a56.735 56.735 0 0 0 12.7 15.014 1.568 1.568 0 0 1 .012 2.435c-7.023 5.757-37.343 28.324-65.548 14.1-9.364-4.722-16.538-12.916-22-22.161a43.052 43.052 0 0 0 -25.132-19.767q-.748-.215-1.512-.399z" fill="#a9db89"/><path d="m212.208 53.681c-5.157-2.356-10.951-6.644-18.285-12.073-2.64-1.954-11.681-8.369-13.369-9.331a16.622 16.622 0 0 1 10.858-.989 3.491 3.491 0 0 0 1.5-6.821c-10.374-2.267-17.152 2.133-19.738 4.291a59.51 59.51 0 0 0 -13.284-3.458 10.543 10.543 0 0 1 7.9-4.311 3.492 3.492 0 1 0 -.658-6.952 17.362 17.362 0 0 0 -14.832 10.63c-23.2-.658-43.326 10.087-44.552 10.754a3.492 3.492 0 0 0 3.341 6.133c.391-.213 38.225-20.359 67.56-2.29.542.552 4.268 4.885 3.129 18.6a22.757 22.757 0 0 0 2.793 12.8 3.492 3.492 0 0 0 6.187-3.241 15.844 15.844 0 0 1 -2.02-8.978 55.1 55.1 0 0 0 -.184-12.123l1.218.9c7.664 5.672 13.716 10.152 19.538 12.812a3.492 3.492 0 1 0 2.9-6.352z" fill="#719b56"/><path d="m165.529 61.756c-7.346-5-7.24-13.011-7.138-20.756l.019-1.606a3.491 3.491 0 0 0 -3.462-3.521h-.03a3.491 3.491 0 0 0 -3.491 3.462l-.018 1.572c-.109 8.233-.258 19.507 10.19 26.621a3.491 3.491 0 0 0 3.93-5.772z" fill="#719b56"/><path d="m113.774 295.615a3.461 3.461 0 0 0 -.217-4.277c-4.038-4.468-4.967-11.552-5.168-14.064a3.492 3.492 0 0 0 -3.48-3.214h-10.654a3.491 3.491 0 0 0 -3.491 3.491c0 .5.016 1.085.035 1.732.248 8.474-.907 13.628-7.531 14.852a3.582 3.582 0 0 0 -2.933 3.827 3.494 3.494 0 0 0 4.087 3.061c6.263-1.122 9.627-4.5 11.419-8.4a.461.461 0 0 1 .884.183v7.033a3.548 3.548 0 0 0 2.764 3.51 3.5 3.5 0 0 0 4.219-3.418v-9.431a.46.46 0 0 1 .874-.2 23.382 23.382 0 0 0 3.667 5.649 3.521 3.521 0 0 0 5.525-.332z" fill="#6d5046"/><path d="m265.034 149.564s68.361.663 71.172 72.553a116.757 116.757 0 0 1 -2.853 32.187c-17.591 43.522-79.884 55.184-85.118 15.8z" fill="#ffd066"/><path d="m280.757 315.949a70.648 70.648 0 0 1 18.51-14.949c11.158-6.1 27.379-19.355 34.031-46.487-.217.412-18.244 34.092-83.015 16.142-.695-.192-1.37-.372-2.048-.554l-8.256 59.235c20.38 3.981 33.521-5.314 40.778-13.387z" fill="#ed9d3e"/><path d="m116.5 27.784c.1.1.2.193.3.292a8.7 8.7 0 0 1 .027 12.174c-5.591 5.75-13.627 19.566-7.756 49.177l-16.123 5.88s-13.365-40.6 9.294-66.756a9.921 9.921 0 0 1 14.258-.767z" fill="#6d5046"/><path d="m156.26 109.659s-14.6-10.783-25.327-22.989a18.316 18.316 0 0 0 -16.951-6.111 22.076 22.076 0 0 0 -10.203 4.441 5.738 5.738 0 0 1 -7.3 0 22.075 22.075 0 0 0 -10.2-4.436 18.315 18.315 0 0 0 -16.95 6.111c-10.729 12.201-25.335 22.984-25.335 22.984s-40.312 27.68-40.312 75.98c0 27.279 14.815 49.166 27.71 63.05 33.645 27 69.269 28.849 107.309 0 32.968-35.655 51.569-73.838 38.968-117.511a102.81 102.81 0 0 0 -21.409-21.519z" fill="#ffd066"/><path d="m177.667 131.18c-15.043 6.207-51.725 27.638-57.668 90.468-2.077 21.959-20.106 39.236-42.161 39.547-12.9.183-28.528-2.907-46.442-12.509a135.194 135.194 0 0 0 12.278 11.666 48.1 48.1 0 0 1 10.041 11.378c6.34 10.153 14.168 17.011 23.161 17.011 10.774 0 12.632-5.016 12.632-5.016a50.389 50.389 0 0 0 21.239 0s1.857 5.016 12.632 5.016c8.944 0 16.737-6.785 23.058-16.848a49.187 49.187 0 0 1 10.151-11.546c12.761-10.658 39.985-37.728 39.985-74.708 0-23.151-9.262-41.56-18.906-54.459z" fill="#ed9d3e"/><path d="m244.894 157.367c-3.153-.671-5.574-3.387-7.677-6.993-7.673-5.436-20.817-11.092-38.161-4.848-28.649 10.313-51.568 37.052-53.1 71.431-1.019 22.93 9.761 45.181 17.054 57.457a54.062 54.062 0 0 1 7.014 18.759c1.026 6.227 3.641 14.568 10.17 21.267 0 0 17.134 17.641 41.78 2.85a59.673 59.673 0 0 0 4.9 6.267 17.464 17.464 0 0 0 13.1 5.78c4.024-.018 8.858-.568 12.251-2.67 6.691-4.144 16.036-11.715 24.724-24.957a73.554 73.554 0 0 1 13.665-15.557c9.2-7.866 23.542-24.5 26.852-53.535 4.966-43.546-14.905-69.828-37.478-79.6-22.626-9.801-35.094 4.349-35.094 4.349z" fill="#ffeac5"/><path d="m220.382 276.979c-2.258-27.079.29-50.718 12.625-74.879a1.9 1.9 0 0 1 3.592.713c.972 14.11 1.616 49.064-12.664 74.938a1.9 1.9 0 0 1 -3.553-.772z" fill="#ebb699"/><path d="m199.062 217.16c.045.05.09.1.134.152a10.576 10.576 0 0 1 2.536 7.834c-.09 1.064-.178 2.4-.23 3.952-2.076 3.6-1.955 7.316.412 11.141a63.168 63.168 0 0 0 1.112 6.752 10.629 10.629 0 0 1 -6.013 12.136 15.831 15.831 0 0 1 -2.662.869 9.561 9.561 0 0 1 -8.671-2.4 27.608 27.608 0 0 1 -5.415-7.062l-1.441-25.414a26.309 26.309 0 0 1 5.92-8.5 9.876 9.876 0 0 1 14.318.54z" fill="#db6767"/><path d="m260.94 224.147c-.054.04-.107.081-.161.123a10.582 10.582 0 0 0 -4.019 7.187c-.115 1.027-.283 2.307-.523 3.776 2.871 5.47 1.044 9.587-3.272 12.985-.514 1.46-1.092 2.938-1.743 4.41a10.629 10.629 0 0 0 3.526 13.077 15.884 15.884 0 0 0 2.44 1.373 9.565 9.565 0 0 0 8.973-.659 27.616 27.616 0 0 0 6.884-6.1l6.643-21.348a25.959 25.959 0 0 0 -4.6-12.555 9.877 9.877 0 0 0 -14.148-2.269z" fill="#db6767"/><g fill="#ed9d3e"><path d="m219.15 292.232c-4.48 11.972-17.648 39.592-38.947 22.2a35.607 35.607 0 0 0 15.19 9.1s15.126 4.073 26.585-6.241c0 0-3.564-8.311-1.821-24.808a.523.523 0 0 0 -1.007-.251z"/><path d="m52.742 143.813a3.492 3.492 0 0 1 -2.184-6.218 9.457 9.457 0 0 0 2.632-3.766 3.492 3.492 0 0 1 6.617 2.232 16.3 16.3 0 0 1 -4.885 6.986 3.481 3.481 0 0 1 -2.18.766z"/><path d="m35.769 167.671a3.491 3.491 0 0 1 -2.183-6.218 9.473 9.473 0 0 0 2.631-3.765 3.492 3.492 0 0 1 6.617 2.232 16.308 16.308 0 0 1 -4.887 6.986 3.475 3.475 0 0 1 -2.178.765z"/><path d="m57.471 164.989a3.492 3.492 0 0 1 -2.184-6.218 9.469 9.469 0 0 0 2.632-3.765 3.491 3.491 0 0 1 6.617 2.23 16.309 16.309 0 0 1 -4.887 6.988 3.475 3.475 0 0 1 -2.178.765z"/></g><path d="m237.214 150.379a38.816 38.816 0 0 0 -3 25.528 1.844 1.844 0 0 0 3.621-.057 54.5 54.5 0 0 1 7.064-18.483 39.239 39.239 0 0 0 -7.685-6.988z" fill="#ebb699"/><path d="m201.916 240.239a78.328 78.328 0 0 1 -.416-11.046 24.382 24.382 0 0 1 -13.51 1.351 14.639 14.639 0 0 1 -9.159-5.419 26.635 26.635 0 0 0 -2.116 10.938 30.775 30.775 0 0 0 3.558 14.468c5.789-9.94 16.684-10.575 21.643-10.292z" fill="#993636"/><path d="m256.237 235.233a76.957 76.957 0 0 1 -3.275 12.984c5.214.3 15.468 2.188 20.076 12.093a30.85 30.85 0 0 0 6.124-13.257 27.442 27.442 0 0 0 .522-8.085c-9.054 2.896-19.145-1.479-23.447-3.735z" fill="#993636"/><circle cx="119.898" cy="301.444" fill="#6d5046" r="3.553"/><ellipse cx="126.303" cy="122.791" fill="#fff7e1" rx="11.597" ry="12.737" transform="matrix(.866 -.5 .5 .866 -44.474 79.602)"/></svg>