<svg id="Capa_1" enable-background="new 0 0 512 512" height="512" viewBox="0 0 512 512" width="512" xmlns="http://www.w3.org/2000/svg"><g><path d="m272.404 307.649c-.026-5.166.563-9.391.981-13.01l.751-22.291c1.184-35.148-14.089-68.919-41.519-91.806-8.747-6.591-18.975-10.565-28.367-16.756-11.461-7.556-22.083-17.521-35.665-19.656-14.261-2.253-28.213 4.662-42.026 8.171-13.365 3.395-28.949 3.717-41.163 11.785-11.307 7.465-17.749 21.41-27.466 32.301-8.992 10.082-22.389 17.952-29.547 30.494-6.688 11.743-6.656 26.975-11.349 40.493-4.448 12.771-14.101 24.753-16.437 38.801-2.336 14.038 2.933 28.387 3.008 41.864.075 14.276-4.907 28.709-2.368 41.905 2.72 14.11 12.885 25.687 18.144 38.022 5.685 13.321 7.285 28.522 15.584 39.091 8.971 11.411 23.648 16.498 35.232 23.829 11.968 7.579 22.965 18.43 37.227 20.672 14.261 2.253 28.203-4.662 42.026-8.171 13.309-3.381 28.942-3.712 41.163-11.785 11.307-7.465 17.749-21.409 27.467-32.301 8.992-10.082 22.389-17.952 29.547-30.494 6.688-11.743 6.656-26.975 11.349-40.493 4.437-12.771 14.101-24.753 16.437-38.801 2.334-14.035-2.934-28.362-3.009-41.864z" fill="#cf8c5d"/><path d="m102.638 467.057c-8.299-10.57-9.899-25.77-15.584-39.091-5.259-12.335-15.424-23.912-18.144-38.022-2.539-13.197 2.443-27.629 2.368-41.905-.075-13.477-5.344-27.826-3.008-41.864 2.336-14.048 11.989-26.03 16.437-38.801 4.693-13.519 4.661-28.75 11.349-40.493 7.157-12.542 20.555-20.413 29.547-30.494 9.717-10.892 16.16-24.836 27.467-32.301 10.778-7.119 24.178-8.209 36.365-10.7-6.445-4.342-13.173-8.049-20.849-9.256-14.261-2.253-28.213 4.662-42.026 8.171-13.365 3.395-28.949 3.717-41.163 11.785-11.307 7.465-17.749 21.41-27.466 32.301-8.992 10.082-22.389 17.952-29.547 30.494-6.688 11.743-6.656 26.975-11.349 40.493-4.448 12.771-14.101 24.753-16.437 38.801-2.336 14.038 2.933 28.387 3.008 41.864.075 14.276-4.907 28.709-2.368 41.905 2.72 14.11 12.885 25.687 18.144 38.022 5.685 13.321 7.285 28.522 15.584 39.091 8.971 11.411 23.648 16.498 35.232 23.829 11.968 7.579 22.965 18.43 37.227 20.672 14.261 2.253 28.203-4.662 42.026-8.171 1.571-.399 3.175-.753 4.798-1.085-5.529-3.725-10.852-7.916-16.378-11.416-11.585-7.331-26.262-12.418-35.233-23.829z" fill="#c97c48"/><path d="m273.385 294.639.751-22.291c1.184-35.148-14.089-68.919-41.519-91.806-8.747-6.591-18.975-10.565-28.367-16.756 1.384 5.09 3.061 10.878 3.657 15.62 1.361 10.721-2.206 27.666 3.277 45.74 5.498 18.078 17.904 30.326 22.812 40.143 4.65 9.293 7.072 23.44 14.856 36.553v1.06l5.233 6.491c6.307 7.822 13.658 13.396 20.603 18.163-1.015-6.749-2.249-13.429-2.284-19.907-.026-5.166.563-9.392.981-13.01z" fill="#c97c48"/><path d="m504.147 183.459c-1.685-13.384 1.685-28.252-2.453-41.895-4.139-13.643-15.275-24.348-21.344-36.465-6.411-12.844-8.352-27.951-16.512-38.77-8.736-11.566-23.05-17.723-33.28-26.622-11.051-9.604-19.253-22.645-31.435-28.657-13.163-6.51-28.661-4.901-42.357-6.635-14.044-1.76-28.875-6.931-42.752-2.938-13.856 3.987-23.349 16.104-34.25 25.095-10.528 8.69-24.427 15.554-31.851 27.971-6.859 11.504-6.464 26.778-10.379 40.691-3.616 12.885-12.192 25.625-13.067 39.953-.873 14.628 7.282 29.433 8.149 45.352.725 12.273-1.632 25.552 2.091 37.825 4.149 13.643 15.285 24.348 21.344 36.465 6.666 13.323 8.407 28.782 17.333 39.808v.01c8.789 10.902 22.539 16.945 32.458 25.573 11.051 9.604 19.253 22.645 31.435 28.657 13.163 6.5 28.661 4.901 42.357 6.624 14.165 1.786 28.896 6.925 42.752 2.938 13.865-3.986 23.351-16.086 34.25-25.085 10.539-8.701 24.437-15.553 31.851-27.971 6.869-11.504 6.475-26.788 10.379-40.701 3.627-12.875 12.203-25.615 13.067-39.943.811-13.402-6.005-27.107-7.786-41.28z" fill="#c97c48"/><g fill="#c16d35"><path d="m403.24 334.343c-12.181-6.012-20.384-19.053-31.434-28.657-9.92-8.628-23.669-14.671-32.459-25.573v-.01c-8.879-10.968-10.723-26.598-17.333-39.808-6.059-12.117-17.195-22.822-21.344-36.465-4.141-13.652-.764-28.635-2.453-41.895-1.781-14.173-8.587-27.878-7.787-41.282.875-14.328 9.451-27.068 13.067-39.953 3.915-13.913 3.52-29.186 10.379-40.691 7.424-12.418 21.323-19.281 31.85-27.971 3.011-2.483 5.915-5.205 8.832-7.928-13.483-1.983-27.405-6.412-40.543-2.632-13.856 3.987-23.349 16.104-34.25 25.095-10.528 8.69-24.427 15.554-31.851 27.971-6.859 11.504-6.464 26.778-10.379 40.691-3.616 12.885-12.192 25.625-13.067 39.953-.873 14.628 7.282 29.433 8.149 45.352.725 12.273-1.632 25.552 2.091 37.825 4.149 13.643 15.285 24.348 21.344 36.465 6.666 13.323 8.407 28.782 17.333 39.808v.01c8.789 10.902 22.539 16.945 32.458 25.573 11.051 9.604 19.253 22.645 31.435 28.657 13.163 6.5 28.661 4.901 42.357 6.624 14.165 1.786 28.896 6.925 42.752 2.938 10.04-2.887 17.786-10.029 25.431-17.165-.742-.109-1.483-.216-2.221-.31-13.696-1.721-29.195-.122-42.357-6.622z"/><path d="m172.756 360.934c10.741 1.693 16.363 13.415 10.773 22.489-1.467 2.381-2.896 4.064-4.288 5.42-2.504 2.44-3.055 6.174-1.375 9.211 2.443 4.418 4.791 10.696 3.338 19.435-1.931 11.608-9.045 17.256-12.875 20.278-.16.135-.342.281-.544.54-3.585 4.594-9.264 7.156-15.115 6.237l-1.3-.204c-10.731-1.692-16.352-13.404-10.763-22.489 1.467-2.385 2.958-4.131 4.346-5.49 2.458-2.408 3.029-6.055 1.371-9.041-2.422-4.36-4.863-10.746-3.402-19.535 1.941-11.608 9.056-17.256 12.875-20.288.179-.131.37-.285.586-.57 3.483-4.614 9.181-7.123 14.988-6.21z"/><path d="m97.407 285.938c10.731 1.692 16.352 13.415 10.763 22.489-1.471 2.398-2.981 4.161-4.378 5.528-2.474 2.421-2.91 6.15-1.254 9.16 2.398 4.361 4.761 10.683 3.307 19.378-2.317 13.93-12.213 19.273-13.419 20.818-3.552 4.589-9.195 7.164-15.029 6.251l-1.376-.218c-10.741-1.692-16.362-13.404-10.773-22.489 1.448-2.346 2.892-4.049 4.267-5.402 2.499-2.459 3.079-6.185 1.395-9.231-2.443-4.418-4.79-10.695-3.337-19.433 2.317-13.93 12.214-19.274 13.419-20.818 3.563-4.589 9.205-7.164 15.029-6.25z"/><path d="m179.913 212.178c10.741 1.692 16.363 13.415 10.773 22.489-1.466 2.384-2.956 4.129-4.343 5.487-2.496 2.446-2.927 6.212-1.26 9.254 2.388 4.359 4.726 10.665 3.278 19.325-2.312 13.902-12.222 19.285-13.419 20.818-3.552 4.589-9.195 7.164-15.029 6.25l-1.376-.218c-10.741-1.692-16.363-13.415-10.773-22.489 1.483-2.408 2.999-4.175 4.398-5.543 2.446-2.392 2.994-6.106 1.343-9.074-2.7-4.853-4.866-10.724-3.415-19.449 2.317-13.93 12.214-19.274 13.419-20.818 3.552-4.589 9.205-7.164 15.029-6.251z"/></g><path d="m447.027 242.548c4.136 13.62-2.449 22.521-2.827 24.421-1.163 5.638-5.109 10.341-10.763 11.971l-1.344.384c-10.432 3.001-20.715-5.181-19.712-15.73.255-2.732.806-4.9 1.442-6.696 1.137-3.214.098-6.806-2.733-8.796-4.143-2.911-9.169-7.606-11.775-16.187-4.136-13.633 2.451-22.54 2.827-24.431 1.163-5.627 5.109-10.331 10.763-11.961l1.344-.384c10.432-3.001 20.715 5.181 19.723 15.73-.26 2.722-.81 4.881-1.445 6.673-1.158 3.271-.021 6.863 2.849 8.902 4.175 2.966 9.085 7.647 11.651 16.104z" fill="#af5b32"/><path d="m387.283 105.453c3.435 11.276-.469 19.364-2.571 23.704-.085.187-.192.395-.256.716-1.163 5.638-5.099 10.341-10.763 11.971l-1.344.384c-10.432 3.001-20.715-5.181-19.712-15.73.255-2.732.806-4.9 1.442-6.696 1.137-3.214.098-6.806-2.733-8.796-4.143-2.911-9.169-7.606-11.775-16.187-3.424-11.286.48-19.364 2.571-23.715.096-.187.192-.395.267-.716 1.152-5.627 5.099-10.331 10.752-11.961l1.344-.384c10.432-3.001 20.715 5.181 19.723 15.73-.264 2.768-.839 4.986-1.489 6.808-1.137 3.186-.042 6.699 2.765 8.676 4.203 2.962 9.187 7.652 11.779 16.196z" fill="#af5b32"/><path d="m345.737 206.727c4.136 13.62-2.449 22.52-2.827 24.42-1.163 5.638-5.109 10.341-10.773 11.971l-1.333.384c-10.432 3.001-20.715-5.181-19.723-15.73.26-2.728.812-4.89 1.447-6.683 1.141-3.221.099-6.82-2.738-8.816-4.141-2.912-9.162-7.606-11.765-16.18-4.136-13.633 2.449-22.529 2.827-24.431 1.163-5.628 5.099-10.331 10.763-11.961l1.344-.384c10.432-3.001 20.715 5.181 19.712 15.73-.254 2.722-.802 4.88-1.435 6.672-1.156 3.272-.018 6.865 2.853 8.905 4.174 2.968 9.083 7.648 11.648 16.103z" fill="#af5b32"/></g></svg>