<svg id="Layer_1" enable-background="new 0 0 512 512" height="512" viewBox="0 0 512 512" width="512" xmlns="http://www.w3.org/2000/svg"><g><g fill="#327727"><path d="m230.107 203.913c-33.418-57.46-56.773-138.984-42.404-196.222 8.322-15.384 37.492-5.484 33.105 12.489-11.181 54.355 2.009 109.117 20 161.388 7.097 10.02 8.587 37.793-10.701 22.345z"/><path d="m47.76 163.208s29.61 32.469 72.546 8.737 85.549 10.568 85.549 10.568-39.327 69.341-93.089 61.998c-70.084-9.572-65.006-81.303-65.006-81.303z"/><path d="m337.889 27.919s5.84 43.554-39.939 61.189-46.894 72.327-46.894 72.327 78.398 14.445 107.33-31.459c37.716-59.84-20.497-102.057-20.497-102.057z"/></g><path d="m104.034 93.421s11.594 42.387 60.626 40.789c49.032-1.597 71.371 48.336 71.371 48.336s-66.571 43.853-111.104 12.852c-58.054-40.413-20.893-101.977-20.893-101.977z" fill="#409435"/><path d="m248.257 26.168s25.018 36.127-7.723 72.661-8.849 85.744-8.849 85.744 76.385-22.808 81.262-76.85c6.358-70.449-64.69-81.555-64.69-81.555z" fill="#409435"/><ellipse cx="305.685" cy="458.398" fill="#e6203b" rx="49.015" ry="54.532" transform="matrix(.906 -.423 .423 .906 -165.087 172.136)"/><path d="m342.621 490.466c-24.534 11.44-54.74-1.413-67.469-28.708-7.545-16.18-7.253-33.802-.655-47.855-18.356 13.973-24.441 41.179-13.235 65.21 12.728 27.295 42.935 40.149 67.469 28.708 9.991-4.659 17.498-12.628 22.031-22.282-2.493 1.897-5.207 3.558-8.141 4.927z" opacity=".15"/><ellipse cx="387.032" cy="420.465" fill="#e6203b" rx="49.015" ry="54.532" transform="matrix(.906 -.423 .423 .906 -141.434 202.961)"/><path d="m423.968 452.533c-24.534 11.44-54.74-1.413-67.469-28.708-7.545-16.18-7.253-33.802-.655-47.855-18.356 13.973-24.441 41.179-13.235 65.21 12.728 27.295 42.935 40.149 67.469 28.708 9.991-4.659 17.498-12.628 22.031-22.282-2.493 1.898-5.207 3.558-8.141 4.927z" opacity=".15"/><ellipse cx="257.273" cy="446.073" fill="#ff304b" rx="49.015" ry="54.532" transform="matrix(.906 -.423 .423 .906 -164.414 150.522)"/><path d="m294.209 478.141c-24.534 11.44-54.74-1.413-67.469-28.708-7.545-16.18-7.253-33.802-.655-47.855-18.356 13.973-24.441 41.179-13.235 65.21 12.728 27.295 42.935 40.149 67.469 28.708 9.991-4.659 17.498-12.628 22.031-22.282-2.493 1.898-5.207 3.559-8.141 4.927z" opacity=".15"/><ellipse cx="408.926" cy="375.922" fill="#ff304b" rx="49.015" ry="54.532" transform="matrix(.906 -.423 .423 .906 -120.558 208.041)"/><path d="m445.863 407.989c-24.534 11.44-54.74-1.413-67.469-28.708-7.545-16.18-7.253-33.802-.655-47.855-18.356 13.973-24.441 41.179-13.235 65.21 12.728 27.295 42.935 40.149 67.469 28.708 9.991-4.659 17.498-12.628 22.031-22.282-2.494 1.898-5.207 3.559-8.141 4.927z" opacity=".15"/><ellipse cx="204.696" cy="402.97" fill="#ff304b" rx="49.015" ry="54.532" transform="matrix(.906 -.423 .423 .906 -151.124 124.264)"/><path d="m241.632 435.037c-24.534 11.44-54.74-1.413-67.469-28.708-7.545-16.18-7.253-33.802-.655-47.855-18.356 13.973-24.441 41.179-13.235 65.21 12.728 27.295 42.935 40.149 67.469 28.708 9.991-4.659 17.498-12.628 22.031-22.282-2.493 1.898-5.207 3.559-8.141 4.927z" opacity=".15"/><ellipse cx="414.266" cy="305.246" fill="#ff304b" rx="49.015" ry="54.532" transform="matrix(.906 -.423 .423 .906 -90.189 203.676)"/><path d="m451.202 337.313c-24.534 11.44-54.74-1.413-67.469-28.708-7.545-16.18-7.253-33.802-.655-47.855-18.356 13.973-24.441 41.179-13.235 65.21 12.728 27.295 42.935 40.149 67.469 28.708 9.991-4.659 17.498-12.628 22.031-22.282-2.493 1.898-5.207 3.559-8.141 4.927z" opacity=".15"/><ellipse cx="262.908" cy="399.676" fill="#ff304b" rx="49.015" ry="54.532" transform="matrix(.906 -.423 .423 .906 -144.278 148.556)"/><path d="m299.844 431.743c-24.534 11.44-54.74-1.413-67.469-28.708-7.545-16.18-7.253-33.802-.655-47.855-18.356 13.973-24.441 41.179-13.235 65.21 12.728 27.295 42.935 40.149 67.469 28.708 9.991-4.659 17.498-12.628 22.031-22.282-2.493 1.898-5.206 3.559-8.141 4.927z" opacity=".15"/><ellipse cx="385.394" cy="342.56" fill="#e6203b" rx="49.015" ry="54.532" transform="matrix(.906 -.423 .423 .906 -108.664 194.97)"/><path d="m422.33 374.627c-24.534 11.44-54.74-1.413-67.469-28.708-7.545-16.18-7.253-33.802-.655-47.855-18.356 13.973-24.441 41.179-13.235 65.21 12.728 27.295 42.935 40.149 67.469 28.708 9.991-4.659 17.498-12.628 22.031-22.282-2.494 1.898-5.207 3.559-8.141 4.927z" opacity=".15"/><ellipse cx="165.697" cy="359.711" fill="#e6203b" rx="49.015" ry="54.532" transform="matrix(.906 -.423 .423 .906 -136.496 103.729)"/><path d="m202.634 391.779c-24.534 11.44-54.74-1.413-67.469-28.708-7.545-16.18-7.253-33.802-.655-47.855-18.356 13.973-24.441 41.179-13.235 65.21 12.728 27.295 42.935 40.149 67.469 28.708 9.991-4.659 17.498-12.628 22.031-22.282-2.494 1.898-5.207 3.558-8.141 4.927z" opacity=".15"/><ellipse cx="402.344" cy="249.361" fill="#e6203b" rx="49.015" ry="54.532" transform="matrix(.906 -.423 .423 .906 -67.688 193.401)"/><path d="m439.28 281.428c-24.534 11.44-54.74-1.413-67.469-28.708-7.545-16.18-7.253-33.802-.655-47.855-18.356 13.973-24.441 41.179-13.235 65.21 12.728 27.295 42.935 40.149 67.469 28.708 9.991-4.659 17.498-12.628 22.031-22.282-2.493 1.898-5.207 3.559-8.141 4.927z" opacity=".15"/><ellipse cx="356.421" cy="297.175" fill="#e6203b" rx="49.015" ry="54.532" transform="matrix(.906 -.423 .423 .906 -92.198 178.473)"/><path d="m393.357 329.243c-24.534 11.44-54.74-1.413-67.469-28.708-7.545-16.18-7.253-33.802-.655-47.855-18.356 13.973-24.441 41.179-13.235 65.21 12.728 27.295 42.935 40.149 67.469 28.708 9.991-4.659 17.498-12.628 22.031-22.282-2.493 1.898-5.207 3.559-8.141 4.927z" opacity=".15"/><ellipse cx="230.916" cy="355.699" fill="#e6203b" rx="49.015" ry="54.532" transform="matrix(.906 -.423 .423 .906 -128.69 130.916)"/><path d="m267.852 387.767c-24.534 11.44-54.74-1.413-67.469-28.708-7.545-16.18-7.253-33.802-.655-47.855-18.356 13.973-24.441 41.179-13.235 65.21 12.728 27.295 42.935 40.149 67.469 28.708 9.991-4.659 17.498-12.628 22.031-22.282-2.493 1.898-5.207 3.559-8.141 4.927z" opacity=".15"/><ellipse cx="352.045" cy="451.625" fill="#ff304b" rx="49.015" ry="54.532" transform="matrix(.906 -.423 .423 .906 -157.881 191.094)"/><path d="m388.981 483.693c-24.534 11.44-54.74-1.413-67.469-28.708-7.545-16.18-7.253-33.802-.655-47.855-18.356 13.973-24.441 41.179-13.235 65.21 12.728 27.295 42.935 40.149 67.469 28.708 9.991-4.659 17.498-12.628 22.031-22.282-2.494 1.898-5.207 3.559-8.141 4.927z" opacity=".15"/><ellipse cx="326.253" cy="396.314" fill="#e6203b" rx="49.015" ry="54.532" transform="matrix(.906 -.423 .423 .906 -136.922 175.012)"/><path d="m363.189 428.382c-24.534 11.44-54.74-1.413-67.469-28.708-7.545-16.18-7.253-33.802-.655-47.855-18.356 13.973-24.441 41.179-13.235 65.21 12.728 27.295 42.935 40.149 67.469 28.708 9.991-4.659 17.498-12.628 22.031-22.282-2.494 1.898-5.207 3.559-8.141 4.927z" opacity=".15"/><ellipse cx="299.616" cy="339.191" fill="#ff304b" rx="49.015" ry="54.532" transform="matrix(.906 -.423 .423 .906 -115.277 158.403)"/><path d="m336.552 371.259c-24.534 11.44-54.74-1.413-67.469-28.708-7.545-16.18-7.253-33.802-.655-47.855-18.356 13.973-24.441 41.179-13.235 65.21 12.728 27.295 42.935 40.149 67.469 28.708 9.991-4.659 17.498-12.628 22.031-22.282-2.494 1.897-5.207 3.558-8.141 4.927z" opacity=".15"/><ellipse cx="144.965" cy="313.853" fill="#ff304b" rx="49.015" ry="54.532" transform="matrix(.906 -.423 .423 .906 -119.058 90.67)"/><path d="m181.901 345.921c-24.534 11.44-54.74-1.413-67.469-28.708-7.545-16.18-7.253-33.802-.655-47.855-18.356 13.973-24.441 41.179-13.235 65.21 12.728 27.295 42.935 40.149 67.469 28.708 9.991-4.659 17.498-12.628 22.031-22.282-2.493 1.898-5.207 3.558-8.141 4.927z" opacity=".15"/><ellipse cx="390.808" cy="199.215" fill="#ff304b" rx="49.015" ry="54.532" transform="matrix(.906 -.423 .423 .906 -47.576 183.827)"/><path d="m427.744 231.282c-24.534 11.44-54.74-1.413-67.469-28.708-7.545-16.18-7.253-33.802-.655-47.855-18.356 13.973-24.441 41.179-13.235 65.21 12.728 27.295 42.935 40.149 67.469 28.708 9.991-4.659 17.498-12.628 22.031-22.282-2.493 1.898-5.207 3.559-8.141 4.927z" opacity=".15"/><ellipse cx="236.232" cy="301.209" fill="#e6203b" rx="49.015" ry="54.532" transform="matrix(.906 -.423 .423 .906 -105.164 128.057)"/><path d="m273.168 333.277c-24.534 11.44-54.74-1.413-67.469-28.708-7.545-16.18-7.253-33.802-.655-47.855-18.356 13.973-24.441 41.179-13.235 65.21 12.728 27.295 42.935 40.149 67.469 28.708 9.991-4.659 17.498-12.628 22.031-22.282-2.494 1.898-5.207 3.559-8.141 4.927z" opacity=".15"/><ellipse cx="322.457" cy="261.002" fill="#e6203b" rx="49.015" ry="54.532" transform="matrix(.906 -.423 .423 .906 -80.092 160.73)"/><path d="m359.393 293.069c-24.534 11.44-54.74-1.413-67.469-28.708-7.545-16.18-7.253-33.802-.655-47.855-18.356 13.973-24.441 41.179-13.235 65.21 12.728 27.295 42.935 40.149 67.469 28.708 9.991-4.659 17.498-12.628 22.031-22.282-2.493 1.898-5.207 3.559-8.141 4.927z" opacity=".15"/><ellipse cx="137.397" cy="252.569" fill="#e6203b" rx="49.015" ry="54.532" transform="matrix(.906 -.423 .423 .906 -93.867 81.73)"/><path d="m174.333 284.637c-24.534 11.44-54.74-1.413-67.469-28.708-7.545-16.18-7.253-33.802-.655-47.855-18.356 13.973-24.441 41.179-13.235 65.21 12.728 27.295 42.935 40.149 67.469 28.708 9.991-4.659 17.498-12.628 22.031-22.282-2.494 1.898-5.207 3.559-8.141 4.927z" opacity=".15"/><ellipse cx="348.727" cy="154.025" fill="#e6203b" rx="49.015" ry="54.532" transform="matrix(.906 -.423 .423 .906 -32.421 161.809)"/><path d="m385.663 186.092c-24.534 11.44-54.74-1.413-67.469-28.708-7.545-16.18-7.253-33.802-.655-47.855-18.356 13.973-24.441 41.179-13.235 65.21 12.728 27.295 42.935 40.149 67.469 28.708 9.991-4.659 17.498-12.628 22.031-22.282-2.494 1.898-5.207 3.559-8.141 4.927z" opacity=".15"/><ellipse cx="184.483" cy="243.644" fill="#ff304b" rx="49.015" ry="54.532" transform="matrix(.906 -.423 .423 .906 -85.684 100.793)"/><path d="m221.419 275.711c-24.534 11.44-54.74-1.413-67.469-28.708-7.545-16.18-7.253-33.802-.655-47.855-18.356 13.973-24.441 41.179-13.235 65.21 12.728 27.295 42.935 40.149 67.469 28.708 9.991-4.659 17.498-12.628 22.031-22.282-2.493 1.898-5.207 3.559-8.141 4.927z" opacity=".15"/><ellipse cx="311.623" cy="184.357" fill="#ff304b" rx="49.015" ry="54.532" transform="matrix(.906 -.423 .423 .906 -48.716 148.97)"/><path d="m348.559 216.425c-24.534 11.44-54.74-1.413-67.469-28.708-7.545-16.18-7.253-33.802-.655-47.855-18.356 13.973-24.441 41.179-13.235 65.21 12.728 27.295 42.935 40.149 67.469 28.708 9.991-4.659 17.498-12.628 22.031-22.282-2.494 1.898-5.207 3.559-8.141 4.927z" opacity=".15"/><ellipse cx="250.787" cy="219.864" fill="#e6203b" rx="49.015" ry="54.532" transform="matrix(.906 -.423 .423 .906 -69.422 126.587)"/><path d="m287.723 251.932c-24.534 11.44-54.74-1.413-67.469-28.708-7.545-16.18-7.253-33.802-.655-47.855-18.356 13.973-24.441 41.179-13.235 65.21 12.728 27.295 42.935 40.149 67.469 28.708 9.991-4.659 17.498-12.628 22.031-22.282-2.493 1.898-5.207 3.559-8.141 4.927z" opacity=".15"/></g></svg>