<svg id="Capa_1" enable-background="new 0 0 512 512" height="512" viewBox="0 0 512 512" width="512" xmlns="http://www.w3.org/2000/svg" xmlns:xlink="http://www.w3.org/1999/xlink"><linearGradient id="SVGID_1_" gradientUnits="userSpaceOnUse" x1="256" x2="256" y1="512" y2="0"><stop offset="0" stop-color="#00b59c"/><stop offset="1" stop-color="#9cffac"/></linearGradient><g><g><path d="m196.538 273.01c-7.174 4.142-9.632 13.316-5.49 20.49s13.316 9.633 20.49 5.49 9.633-13.316 5.49-20.49c-4.141-7.174-13.315-9.633-20.49-5.49zm15-60c-7.174-4.142-16.348-1.684-20.49 5.49s-1.684 16.348 5.49 20.49 16.348 1.684 20.49-5.49c4.143-7.174 1.685-16.348-5.49-20.49zm44.462 87.99c-8.284 0-15 6.716-15 15s6.716 15 15 15 15-6.716 15-15-6.716-15-15-15zm0 60c-8.284 0-15 6.716-15 15s6.716 15 15 15 15-6.716 15-15-6.716-15-15-15zm-52.5-14.067c-7.174-4.142-16.348-1.684-20.49 5.49s-1.684 16.348 5.49 20.49 16.348 1.684 20.49-5.49c4.143-7.174 1.684-16.348-5.49-20.49zm0-181.866c7.174-4.142 9.633-13.316 5.49-20.49-4.142-7.174-13.316-9.633-20.49-5.49s-9.633 13.316-5.49 20.49c4.142 7.174 13.316 9.632 20.49 5.49zm-52.5 90.933c0-8.284-6.716-15-15-15s-15 6.716-15 15 6.716 15 15 15 15-6.716 15-15zm105-15c-8.284 0-15 6.716-15 15s6.716 15 15 15 15-6.716 15-15-6.716-15-15-15zm-111.423 62.01c-7.174 4.142-9.632 13.316-5.49 20.49s13.316 9.633 20.49 5.49c7.174-4.142 9.633-13.316 5.49-20.49-4.142-7.174-13.316-9.633-20.49-5.49zm15-120c-7.174-4.142-16.348-1.684-20.49 5.49s-1.684 16.348 5.49 20.49 16.348 1.684 20.49-5.49 1.684-16.348-5.49-20.49zm352.423 72.99c0-16.976-8.075-33.098-23.009-46.41 8.198-17.506 9.176-35.299 2.599-51.174-6.587-15.9-19.885-27.801-38.097-34.376.895-19.342-5.012-36.183-17.181-48.352-12.17-12.169-28.987-18.078-48.353-17.181-6.575-18.211-18.476-31.51-34.375-38.096-15.877-6.578-33.67-5.6-51.175 2.598-13.311-14.934-29.433-23.009-46.409-23.009-16.975 0-33.097 8.075-46.41 23.008-17.506-8.198-35.298-9.175-51.175-2.598-15.897 6.585-27.797 19.883-34.373 38.096-19.34-.896-36.186 5.012-48.354 17.181-12.168 12.168-18.074 29.01-17.18 48.353-18.212 6.576-31.512 18.477-38.098 34.375-6.577 15.876-5.6 33.669 2.598 51.175-14.933 13.313-23.008 29.435-23.008 46.41s8.075 33.097 23.008 46.41c-8.198 17.506-9.175 35.298-2.598 51.175 6.585 15.897 19.883 27.797 38.098 34.373-.896 19.345 5.01 36.186 17.179 48.354 12.169 12.169 29.009 18.076 48.354 17.18 6.576 18.214 18.476 31.512 34.374 38.097 15.875 6.577 33.668 5.6 51.175-2.598 13.313 14.934 29.435 23.009 46.41 23.009 16.976 0 33.098-8.075 46.41-23.008 17.505 8.198 35.298 9.175 51.175 2.597 15.897-6.586 27.799-19.885 34.375-38.097 19.333.896 36.185-5.011 48.353-17.179 12.17-12.17 18.076-29.01 17.181-48.355 18.214-6.576 31.512-18.476 38.096-34.373 6.578-15.876 5.601-33.669-2.598-51.175 14.933-13.312 23.008-29.434 23.008-46.41zm-50.758 29.986c-3.323 2.209-5.629 5.651-6.407 9.565-.778 3.913.034 7.976 2.259 11.288 4.94 7.357 12.391 21.722 6.779 35.265-5.609 13.542-21.034 18.432-29.729 20.142-3.914.77-7.361 3.067-9.578 6.385-2.216 3.317-3.02 7.381-2.232 11.293 1.748 8.687 3.134 24.809-7.233 35.176-10.366 10.366-26.487 8.981-35.175 7.232-3.908-.786-7.976.016-11.293 2.233-3.318 2.217-5.615 5.664-6.386 9.579-1.709 8.695-6.599 24.12-20.144 29.73-13.539 5.61-27.906-1.839-35.264-6.78-3.313-2.224-7.377-3.037-11.289-2.259-3.913.778-7.355 3.084-9.564 6.407-8.771 13.192-19.701 20.758-29.986 20.758s-21.214-7.566-29.985-20.758c-2.209-3.323-5.651-5.628-9.565-6.406-3.928-.781-7.989.043-11.288 2.259-7.357 4.94-21.721 12.392-35.265 6.78-13.542-5.609-18.432-21.035-20.142-29.731-.77-3.915-3.067-7.362-6.385-9.578s-7.38-3.02-11.293-2.233c-8.688 1.748-24.811 3.134-35.177-7.232s-8.98-26.489-7.232-35.176c.787-3.911-.016-7.975-2.233-11.293-2.216-3.317-5.664-5.615-9.578-6.385-8.696-1.71-24.122-6.6-29.731-20.142-5.61-13.542 1.84-27.907 6.78-35.264 2.224-3.313 3.037-7.375 2.259-11.288s-3.084-7.355-6.407-9.564c-13.192-8.774-20.758-19.704-20.758-29.989s7.566-21.215 20.758-29.986c3.323-2.209 5.628-5.651 6.407-9.564.778-3.914-.035-7.976-2.259-11.288-4.94-7.357-12.39-21.722-6.78-35.264 5.611-13.544 21.036-18.434 29.731-20.144 3.915-.77 7.362-3.068 9.579-6.385 2.217-3.318 3.021-7.382 2.233-11.293-1.749-8.687-3.134-24.808 7.232-35.175 10.368-10.367 26.489-8.982 35.177-7.234 3.911.787 7.975-.016 11.292-2.233 3.318-2.216 5.615-5.663 6.385-9.578 1.709-8.695 6.6-24.12 20.142-29.729 13.546-5.61 27.908 1.84 35.265 6.78 3.313 2.224 7.375 3.037 11.288 2.259 3.914-.778 7.355-3.084 9.565-6.406 8.771-13.194 19.7-20.76 29.985-20.76s21.215 7.566 29.985 20.758c2.209 3.323 5.651 5.629 9.564 6.407 3.916.779 7.976-.034 11.289-2.259 7.356-4.94 21.724-12.39 35.264-6.78 13.546 5.612 18.436 21.034 20.144 29.728.77 3.915 3.067 7.363 6.385 9.579s7.383 3.021 11.294 2.233c8.687-1.749 24.807-3.134 35.175 7.234 10.367 10.367 8.981 26.488 7.233 35.175-.787 3.912.017 7.976 2.233 11.293 2.217 3.318 5.664 5.615 9.579 6.385 8.694 1.708 24.116 6.597 29.729 20.144 5.61 13.542-1.84 27.906-6.78 35.264-2.225 3.313-3.037 7.375-2.259 11.288.778 3.914 3.084 7.355 6.407 9.565 13.192 8.771 20.758 19.701 20.758 29.986s-7.566 21.215-20.758 29.986zm-205.242-104.986c-8.284 0-15 6.716-15 15s6.716 15 15 15 15-6.716 15-15-6.716-15-15-15zm111.423 27.99c7.174-4.142 9.632-13.316 5.49-20.49s-13.316-9.633-20.49-5.49c-7.174 4.142-9.633 13.316-5.49 20.49 4.142 7.174 13.316 9.633 20.49 5.49zm8.577 32.01c-8.284 0-15 6.716-15 15s6.716 15 15 15 15-6.716 15-15-6.716-15-15-15zm-52.5-101.913c-7.174-4.142-16.348-1.684-20.49 5.49s-1.684 16.348 5.49 20.49 16.348 1.684 20.49-5.49c4.143-7.174 1.684-16.348-5.49-20.49zm43.923 163.923c-7.174-4.142-16.348-1.684-20.49 5.49s-1.684 16.348 5.49 20.49 16.348 1.684 20.49-5.49c4.143-7.174 1.684-16.348-5.49-20.49zm-111.423-182.01c-8.284 0-15 6.716-15 15s6.716 15 15 15 15-6.716 15-15-6.716-15-15-15zm59.462 117.99c7.174-4.142 9.632-13.316 5.49-20.49s-13.316-9.633-20.49-5.49c-7.174 4.142-9.633 13.316-5.49 20.49 4.141 7.174 13.315 9.633 20.49 5.49zm-6.962 107.943c-7.174 4.142-9.633 13.316-5.49 20.49 4.142 7.174 13.316 9.632 20.49 5.49s9.633-13.316 5.49-20.49c-4.142-7.174-13.316-9.632-20.49-5.49zm12.452-53.433c4.142-7.174 1.684-16.348-5.49-20.49s-16.348-1.684-20.49 5.49-1.684 16.348 5.49 20.49 16.348 1.684 20.49-5.49z" fill="url(#SVGID_1_)"/></g></g></svg>