<svg id="Слой_1" height="512" viewBox="0 0 128 128" width="512" xmlns="http://www.w3.org/2000/svg" xmlns:xlink="http://www.w3.org/1999/xlink" data-name="Слой 1"><linearGradient id="linear-gradient" gradientUnits="userSpaceOnUse" x1="55.81" x2="125.21" y1="40.19" y2="80.25"><stop offset="0" stop-color="#d6ac8f"/><stop offset=".53" stop-color="#e8cbb2"/><stop offset="1" stop-color="#f9ead4"/></linearGradient><linearGradient id="linear-gradient-2" gradientUnits="userSpaceOnUse" x1="8.41" x2="106.43" y1="68.88" y2="68.88"><stop offset="0" stop-color="#fff7eb"/><stop offset=".21" stop-color="#fef4e5"/><stop offset=".49" stop-color="#faebd4"/><stop offset=".69" stop-color="#f7e3c3"/><stop offset="1" stop-color="#f9ead4"/></linearGradient><linearGradient id="linear-gradient-3" gradientUnits="userSpaceOnUse" x1="67.98" x2="61.68" y1="41.5" y2="11.86"><stop offset="0" stop-color="#fff"/><stop offset=".29" stop-color="#fefcf9"/><stop offset=".67" stop-color="#fcf4e8"/><stop offset="1" stop-color="#f9ead4"/></linearGradient><path d="m84 100h29c3.54-3.54 6.71-9.88 6.59-15.2-.31-13.28-4.49-35.8-7.59-44.8-3.73-10.64-4.65-12.1-5.52-14.08l-42.48.08z" fill="url(#linear-gradient)"/><path d="m106.43 25.88-42.43.12 15.7 12.75a1 1 0 0 1 .35.63c.68 4.7 7.31 51.33 7.13 59.26-.2 8.36-.58 11.6-1.56 13.53a115.37 115.37 0 0 1 -21.62 1.83c-28.06 0-42.59-9.11-47.52-12.59-3.82-2.7-8-9.09-8-16.73 0-12.8 6.55-34.63 8.3-45.08 2.04-12.6 7.7-15.84 7.7-15.84z" fill="url(#linear-gradient-2)"/><g fill="#edcfb9"><path d="m76.49 93.33a2 2 0 0 1 -.22-4.06 49.14 49.14 0 0 0 7.2-1 2 2 0 1 1 1.41 3.82c-1.98.7-8.04 1.24-8.39 1.24z"/><path d="m73 76a2 2 0 0 1 1.82-2.24 62.09 62.09 0 0 0 7.41-1 2 2 0 0 1 1.05 3.94 60.55 60.55 0 0 1 -8 1.13 2 2 0 0 1 -2.28-1.83z"/><path d="m71.45 60.1a2 2 0 0 1 1.82-2.23 41.66 41.66 0 0 0 6.73-1 2 2 0 1 1 1.29 3.87 42.83 42.83 0 0 1 -7.61 1.17 2 2 0 0 1 -2.23-1.81z"/><path d="m40.77 92.11c-1.64-.36-3.27-.77-4.86-1.22a2 2 0 0 1 1.09-3.89c1.51.42 3.06.81 4.63 1.16a2 2 0 0 1 -.88 4z"/><path d="m61.51 94.46c-1.77 0-3.56-.11-5.32-.22a2 2 0 0 1 .26-4.07c1.7.11 3.43.18 5.14.21a2 2 0 1 1 -.08 4.08z"/><path d="m20.38 84.53c-4.17-2.83-8.77-6.81-11-11.31a.73.73 0 0 1 .32-1 .69.69 0 0 1 .94.23c3.48 4.8 7.59 6.61 11.79 8.53a2 2 0 1 1 -2 3.55z"/><path d="m42 76.5c-1.51-.33-3-.7-4.49-1.11a2 2 0 1 1 1.09-3.92c1.39.38 2.83.74 4.27 1a2 2 0 0 1 -.87 4z"/><path d="m61.19 78.65c-1.64 0-3.3-.1-4.92-.2a2 2 0 1 1 .25-4.07c1.57.1 3.17.17 4.75.2a2 2 0 1 1 -.08 4.07z"/><path d="m23.1 69.59c-3.33-2.3-8.21-5.06-10.72-10.19a.62.62 0 0 1 .28-.82.56.56 0 0 1 .77.19c3.67 4.74 7.57 5.52 11.66 7.23a2 2 0 1 1 -2 3.57z"/><path d="m43.32 60.5c-1.39-.29-2.78-.61-4.1-1a2 2 0 0 1 1-3.94c1.25.33 2.56.64 3.89.91a2 2 0 0 1 -.83 4z"/><path d="m60.85 62.36c-1.52 0-3-.09-4.5-.17a2 2 0 1 1 .25-4.07c1.41.08 2.86.14 4.32.17a2 2 0 1 1 -.07 4.07z"/><path d="m26.06 54.51c-3.27-2.14-8.23-4.7-10.77-9.82a.66.66 0 0 1 .3-.89.61.61 0 0 1 .83.21c4.17 4.34 7.52 5.28 11.55 6.9a2 2 0 1 1 -1.88 3.62z"/></g><path d="m106.43 25.88c-2.94-6.75-19.97-11.88-42.43-11.88s-40.79 5.81-40.79 13 18.25 13 40.79 13a136 136 0 0 0 15.35-.87.3.3 0 0 0 .14-.54l-15.49-12.59z" fill="url(#linear-gradient-3)"/></svg>