<svg id="Layer_1" enable-background="new 0 0 459.808 459.808" height="512" viewBox="0 0 459.808 459.808" width="512" xmlns="http://www.w3.org/2000/svg"><g><path d="m136.139 136.771c-4.632 36.382-34.394 127.146-110.369 145.044-22.108-17.696-48.608-53.578 8.82-101.678 64.559-54.076 60.102-62.295 70.398-81.045 6.388-11.628 28.476-8.987 31.151 37.679z" fill="#eb8f65"/><path d="m298.24 110.159c-4.255 7.877-5.656 16.629-6.079 22.621-50.084 23.753-87.444 16.477-106.203-10.792 11.037-12.991 30.791-25.191 65.812-23.171 8.531.485 16.115-.535 22.845-2.741-3.541 12.793 11.445 2.792 14.873 12.622 1.616 4.629 5.88 3.138 8.752 1.461z" fill="#eb8f65"/><path d="m380.677 234.625c-.269.282 5.854 8.878 5.33 29.49-.99 38.771-26.16 93.79-91.86 115.67-19.881 6.616-38.456 11.213-56.47 14.24-175.308-79.961 33.538-253.844 71.87-251.38 24.844-7.557 35.743-4.238 69.1-10.96-.67.319-9.021 4.479 2.86 11.08 12.37 6.87 5.29 14.939 10.26 18.949 4.87 3.94 14.14.16 14.5 0-2.89 5.87-5.21 12.601-6.83 20.32-4.531 21.391-11.1 38.661-18.76 52.591z" fill="#ffb48d"/><path d="m386.007 264.115c-35.47 39.69-92.01 28.81-92.01 28.81s53.63 1.681 86.67-58.279c3.709 7.399 5.639 17.679 5.34 29.469z" fill="#f5a27e"/><path d="m238.177 198.306c4.36 15.88 2.34 40.04-7.74 60.92-8.18 17-21.72 31.819-41.5 38.25-.101.048 8.187 2.105 18.15 6.02 67.343 26.373 68.467 79.219 19.41 95.25-32.41 10.54-59.59 5.521-80.69-4.53-.01 0-.02 0-.03-.01-73.221-13.898-114.621-61.659-120.01-112.39-12.37-117.34 179.77-208.51 283.78-139.17-29.769 9.196-56.918 27.764-71.37 55.66z" fill="#f5a27e"/><g fill="#eb8f65"><path d="m145.777 394.205c-18.65-3.54-35.39-9.34-50.02-16.91-2.37-12.34-1.22-27.029-1.22-27.029s18.15 28.159 51.24 43.939z"/><path d="m207.087 303.495c-25.63 10.91-43.74-2.68-43.74-2.68 9.47.359 17.97-.86 25.55-3.33 6.53 1.8 12.59 3.81 18.19 6.01z"/><path d="m309.547 142.645c-29.768 9.197-56.918 27.764-71.37 55.66h-.01c-2.71-9.95-7.94-16.65-15.229-17.28-19.061-1.64-11.23 33.43-69.37 55.57-57.56 21.909-45.55 69.04-45.55 69.04s-29.08-51.881 34.41-81.131c39.23-18.069 51.79-34.55 58.44-45.29 14.22-22.949 34.57-6.43 37.3 1.61 0 0 10.855-34.987 63.215-43.197 3.175 1.813 5.527 3.261 8.164 5.018z"/></g><path d="m335.737 97.056c-2.56 12.75-12.87 14.21-21.86 12.83-5.6-.86-10.689-2.82-13.07-3.83-.96 1.319-1.81 2.71-2.57 4.109-2.87 1.681-7.13 3.16-8.75-1.47-3.43-9.83-18.42.18-14.87-12.62 2.44-.77 4.75-1.72 6.98-2.8-3.25-7.61-13.97-36.04 6.34-37.91 19.32-1.78 21.39 11.85 23.12 20.19 2.05-.04 6.43.029 10.98 1.149 7.939 1.961 16.36 7.091 13.7 20.352z" fill="#f0e3e7"/><path d="m313.876 109.886c-5.6-.86-10.689-2.82-13.07-3.83 2.15-3.021 4.83-5.79 8.16-8.08z" fill="#e4d1d7"/><path d="m322.036 76.705c-3.55 2.21-7.31 6.78-7.31 6.78-1.84-1.271-3.2-4.99-3.67-7.93 2.051-.04 6.431.03 10.98 1.15z" fill="#e4d1d7"/><path d="m458.607 148.745c-5.13 17.63-19.08 15.03-29.94 9.68-7.95-3.899-14.26-9.279-14.26-9.279-3.06 3.64-5.8 7.819-8.14 12.569-.191.074-.2.084-.455.181-1.973.745-9.733 3.308-14.045-.181-4.97-4.01 2.11-12.079-10.26-18.949-10.616-5.898-5.113-9.842-3.338-10.832.23-.128.415-.218.478-.248 7.61-1.55 13.74-3.2 18.56-4.73-3-10.34-8.02-35.31 13.38-35.39 20.61-.08 20.03 13.81 21.56 23.99v.01c1.229 1.83 4 3.24 7.33 4.72 9.86 4.399 24.659 9.479 19.13 28.459z" fill="#fcf4f6"/><path d="m428.666 158.425c-7.95-3.899-14.26-9.279-14.26-9.279 2.93-3.5 6.16-6.521 9.65-9.09 0 0 2.48 10.889 4.61 18.369z" fill="#f0e3e7"/><path d="m439.476 120.285c-1.92 2.98-3.22 7.23-3.22 7.23-3.54-2.65-3.63-8.13-4.11-11.95 1.23 1.83 4.001 3.241 7.33 4.72z" fill="#f0e3e7"/></g></svg>