<svg id="Layer_1" height="512" viewBox="0 0 512 512" width="512" xmlns="http://www.w3.org/2000/svg" data-name="Layer 1"><path d="m133.95 245.11a32.835 32.835 0 0 1 -2.29-11.73c.1-12.26-11.38-19.23-11.62-28.43a1.7 1.7 0 0 1 2.76-1.37c9.89 7.84 47.22 39.54 47.66 71.89a82.956 82.956 0 0 0 -13.19-8.95 123.079 123.079 0 0 0 -14.92-6.93 53.844 53.844 0 0 1 -8.4-14.48z" fill="#43896d"/><path d="m135.43 257.08a220.114 220.114 0 0 0 -30.36-7.72s-6.13-10.54-20.86-18.58c-11.4-6.21-29.49-25.89-37.11-34.49a1.965 1.965 0 0 1 1.82-3.24c10.69 1.92 34.87 7.63 50.22 21.68 20.16 18.43 28.23 18.34 34.81 30.38a53.844 53.844 0 0 0 8.4 14.48q-3.435-1.335-6.92-2.51z" fill="#4ca987"/><path d="m135.43 257.08q3.48 1.17 6.92 2.51a54.24 54.24 0 0 1 -6.434-9.992c-1.521-.41-3.035-.8-4.541-1.168-.374-.092-.743-.178-1.115-.268q-1.663-.4-3.308-.773c-.462-.105-.921-.207-1.381-.308q-1.564-.343-3.1-.661c-.416-.086-.834-.174-1.247-.257-1.4-.282-2.789-.552-4.15-.8 0 0-6.13-10.54-20.86-18.58-9.9-5.391-24.832-20.931-33.585-30.563-5.463-1.544-10.279-2.552-13.7-3.167a1.965 1.965 0 0 0 -1.82 3.24c7.62 8.6 25.71 28.28 37.11 34.49a62.851 62.851 0 0 1 15.607 11.937 41 41 0 0 1 5.253 6.643 220.114 220.114 0 0 1 30.351 7.717z" fill="#3d725c"/><path d="m157.271 269.523a3 3 0 0 0 2.907-3.751 116.445 116.445 0 0 0 -19.536-38.365 3 3 0 0 0 -4.731 3.692 112.436 112.436 0 0 1 18.458 36.178 3 3 0 0 0 2.902 2.246z" fill="#646d69"/><path d="m133.181 259.064a3 3 0 0 0 4.5-3.97c-12.251-13.885-45.581-33.381-46.995-34.2a3 3 0 0 0 -3.019 5.184c.333.193 33.898 19.822 45.514 32.986z" fill="#646d69"/><path d="m237.98 360.57c-.22 2.81-.35 5.68-.34 8.54-8.47-2.23-18.98-4.75-28.51-3.59-20.39 2.48-41.96-25.45-47.54-33.22a1.573 1.573 0 0 1 1.02-2.47c5.51-.96 19.62-2.18 32.01 6.97 10.18 7.53 26.96 8.2 44.43 14.75-.44 2.85-.81 5.89-1.07 9.02z" fill="#5fcda4"/><path d="m221.13 361.52c-19.565 2.38-40.207-23.229-46.776-32.17a46.435 46.435 0 0 0 -11.744.48 1.573 1.573 0 0 0 -1.02 2.47c5.58 7.77 27.15 35.7 47.54 33.22 9.53-1.16 20.04 1.36 28.51 3.59-.008-2.245.089-4.488.23-6.711a56.813 56.813 0 0 0 -16.74-.879z" fill="#51a884"/><path d="m238.97 357.739c-18.117-6.271-45.818-12.012-46.989-12.254a3 3 0 0 0 -1.211 5.876c.283.059 28.493 5.906 46.237 12.048a3 3 0 0 0 1.963-5.67z" fill="#646d69"/><path d="m289.41 349.15a103.476 103.476 0 0 1 5.6 9.35s-13.02 20.42-13.22 28.67q-2.22-2.655-4.4-5.23s-5.54-14.01 12.02-32.79z" fill="#43896d"/><path d="m295.01 358.5a123.276 123.276 0 0 1 6.03 13.3c-3.61 7.45-8.92 15.17-17.46 17.53-.6-.73-1.2-1.45-1.79-2.16.2-8.25 13.22-28.67 13.22-28.67z" fill="#43896d"/><path d="m342.117 460.815c-19.285-27.082-38.163-51.695-57.228-74.6.782-5.047 5.976-15.02 10.329-22.331a4.558 4.558 0 0 0 -1.464-6.181l-1.278-.814c-1.1 1.721-8.982 14.254-12.262 23.749-4.932-5.844-22.741-27.5-27.714-33.138l8.252 19.766a1176.639 1176.639 0 0 1 76.479 97.034 3 3 0 0 0 4.886-3.48z" fill="#646d69"/><path d="m220.89 237.63q-1.995 4.29-4.41 8.86a32.9 32.9 0 0 0 -1.48 3.25l-.03-.01s-6.71-20.41-2.93-43.14a1.765 1.765 0 0 1 3.14-.78 77.988 77.988 0 0 1 10.86 19.59c-1.44 3.85-3.15 7.94-5.15 12.23z" fill="#43896d"/><path d="m220.884 240.646a3 3 0 0 1 -2.916-2.307l-2.312-9.72a3 3 0 1 1 5.838-1.388l2.312 9.721a3 3 0 0 1 -2.922 3.694z" fill="#646d69"/><path d="m303.57 206.22a219.674 219.674 0 0 0 -15.46-27.27s3.35-11.72-1.06-27.92c-3.41-12.53-1.76-39.23-.83-50.68a1.967 1.967 0 0 1 3.6-.93c6.01 9.05 18.64 30.46 19.15 51.28.67 27.35 6.34 33.1 2.18 46.21a54.141 54.141 0 0 0 -4.59 16.06q-1.41-3.405-2.99-6.74z" fill="#5fcda4"/><path d="m300.583 205.981a3 3 0 0 0 2.743 3.237c.084.007.168.01.25.01a3 3 0 0 0 2.988-2.753c1.523-18.46-7.506-56.028-7.891-57.619a3 3 0 0 0 -5.832 1.413c.093.38 9.187 38.215 7.742 55.712z" fill="#55665e"/><path d="m311.89 228.54a124.337 124.337 0 0 0 -5.33-15.56v-.01a54.141 54.141 0 0 1 4.59-16.06 32.852 32.852 0 0 1 6.89-9.81c8.91-8.43 5.98-21.54 12.45-28.09a1.7 1.7 0 0 1 2.9 1.04c1.2 12.58 4.2 61.49-18.82 84.21a81.977 81.977 0 0 0 -2.68-15.72z" fill="#43896d"/><path d="m310.32 231.1a3 3 0 0 0 4.126-.982 116.425 116.425 0 0 0 14.123-40.674 3 3 0 1 0 -5.939-.853 112.459 112.459 0 0 1 -13.294 38.383 3 3 0 0 0 .984 4.126z" fill="#55665e"/><path d="m376.76 254.47v.01q-4.485 1.53-9.43 2.94a33.348 33.348 0 0 0 -3.37 1.18l-.01-.03s10.07-18.97 29.07-31.99a1.763 1.763 0 0 1 2.73 1.73 77.547 77.547 0 0 1 -6.6 21.41c-3.78 1.63-7.91 3.23-12.39 4.75z" fill="#43896d"/><path d="m376.755 257.477a3 3 0 0 1 -2.52-4.623l5.406-8.4a3 3 0 1 1 5.044 3.246l-5.405 8.4a3 3 0 0 1 -2.525 1.377z" fill="#55665e"/><path d="m416.57 124.51a1.551 1.551 0 0 1 -.02-1.38c12.26-26.22 36.52-36.57 54.17-35.17a2.452 2.452 0 0 1 2.18 3c-3.87 16.78-27.87 29-40.27 31.92-7.47 1.75-10.89 1.67-14.29 2.47a1.557 1.557 0 0 1 -1.77-.84z" fill="#5fcda4"/><path d="m366.9 208.52a2.094 2.094 0 0 1 .63-1.58c5.22-5.14 18.26-16.88 29.7-18.32 14.71-1.85 14.08-7.03 24.35-7.15 9.51-.12 22.4-8.12 31.4-9.2a1.635 1.635 0 0 1 1.81 1.94c-.74 3.7-3.47 11.41-13.54 14.91-13.52 4.7-13.81 16.97-25.52 19.66-11.24 2.57-22.8 9.91-47.4 1.67a2.1 2.1 0 0 1 -1.43-1.93z" fill="#4ca987"/><path d="m404.77 119.26a.783.783 0 0 1 -.46-.95 69.922 69.922 0 0 0 1.99-18.69c-.4-17.95 3.63-35.61 8.59-45.01 4.57-8.64 13.64-29.54 15.05-36.66a1.4 1.4 0 0 1 1.92-1.01c3.86 1.64 12.34 8.17 6.18 33.11-7.03 28.45-22.6 55.12-32.26 68.93a.8.8 0 0 1 -1.01.28z" fill="#4ca987"/><path d="m332.57 280.07a.687.687 0 0 1 .19-.79c8.87-7.35 21.47-16.72 31.2-20.68a33.348 33.348 0 0 1 3.37-1.18q4.95-1.41 9.43-2.94v-.01c4.48-1.52 8.61-3.12 12.39-4.75 16.52-7.08 26.6-14.59 31.23-18.32 6.39-5.14 4.34 6.94-.4 15.06-3.33 5.69-27.24 28.97-53.87 36.01a59.521 59.521 0 0 1 -10.85 1.87 48.951 48.951 0 0 1 -8.73-.1 41.9 41.9 0 0 1 -13.62-3.8.617.617 0 0 1 -.34-.37z" fill="#5fcda4"/><path d="m324.91 442.19c-.06-.07-.12-.15-.17-.22 5.7-3 21.62-8.96 35.16-27.27 13.34-18.04 33.83-32.41 42.04-37.11a1.871 1.871 0 0 1 2.77 1.91c-1.54 10.13-6.99 38.34-21.2 50.46-14.61 12.47-47.89 12.72-58.37 12.55-.08-.11-.16-.21-.23-.32z" fill="#5fcda4"/><path d="m335.05 410.67c3.14-12.76 15.69-51.01 58.36-88.8a2.155 2.155 0 0 1 2.3-.37 2.185 2.185 0 0 1 1.23 2.6c-15.05 51.88-50.98 78.64-62.15 86.86z" fill="#4ca987"/><path d="m388.06 120.21a1.822 1.822 0 0 1 -2.15-.67c-7.99-11.34-27.01-47.48-24.84-101.46a2.184 2.184 0 0 1 1.99-2.07 1.087 1.087 0 0 1 .18-.01 2.143 2.143 0 0 1 1.88 1.09c28.49 49.38 25.21 88.44 24.14 101.54a1.793 1.793 0 0 1 -1.2 1.58z" fill="#5fcda4"/><g fill="#43896d"><path d="m352.53 193.13c-1.44-3.47-6.98-10.25-6.24-16.37.71-6.02 3.15-27.5 12.26-36.98s7.92-23.21 12.37-23.56.56 15.68-3.57 27.82-1.61 16.86-4.71 26.74a122.917 122.917 0 0 1 -10.11 22.35z"/><path d="m366.11 282.47c-3 7.46-10.37 21.27-29 29.63-.29.14-.58.26-.87.39a5.62 5.62 0 0 1 -6.44-1.41c-.01-.01-.01-.01-.01-.02 9.29-6.75 19.42-15.85 25.47-26.72a59.521 59.521 0 0 0 10.85-1.87z"/><path d="m346.53 284.24a48.951 48.951 0 0 0 8.73.1c-6.05 10.87-16.18 19.97-25.47 26.72a5.582 5.582 0 0 1 -.03-7.36z"/></g><path d="m319.73 406.07c1.69-4.93 9.36-21.09 4.97-45.3-2.93-16.15-1.55-34.6.57-46.54 1.47-.99 2.98-2.04 4.52-3.17 0 .01 0 .01.01.02a5.62 5.62 0 0 0 6.44 1.41c.29-.13.58-.25.87-.39v.01c7.15 10.91 15.75 28.49 14.94 42.18-1.19 20.09-26.19 45.67-32.32 51.78z" fill="#5fcda4"/><path d="m313.68 251.4a2.289 2.289 0 0 1 -3.16-.66 156.1 156.1 0 0 0 -21.1-25.27c-16.35-15.82-10.24-17.46-15.06-35.22-4.45-16.45-10.06-26.12-7.57-36.29a1.35 1.35 0 0 1 2.35-.58 281.153 281.153 0 0 1 18.97 25.57 219.674 219.674 0 0 1 15.46 27.27v.01q1.575 3.33 2.99 6.74v.01a124.337 124.337 0 0 1 5.33 15.56 81.977 81.977 0 0 1 2.68 15.72c.12 1.77.16 3.53.13 5.28a2.189 2.189 0 0 1 -1.02 1.86z" fill="#4ca987"/><path d="m303.18 374.05a2.074 2.074 0 0 1 -1.81-1.39c-.1-.28-.21-.56-.33-.86a123.276 123.276 0 0 0 -6.03-13.3 103.476 103.476 0 0 0 -5.6-9.35 68 68 0 0 0 -12.96-14.61c-15.91-13.01-10.72-47.93-8.98-57.33a1.573 1.573 0 0 1 2.49-.98c4.51 3.32 15.16 12.67 17.14 27.95 1.62 12.56 10.74 21.48 18.12 38.63 4.88 11.35 2.42 23.12.19 29.77a2.114 2.114 0 0 1 -2.23 1.47z" fill="#5fcda4"/><path d="m292.02 429.03a.09.09 0 0 0 .05.01c-7.85 3.56-40.59 18.13-59.79 12.14-17.83-5.55-33.91-29.35-39.31-38.07a1.87 1.87 0 0 1 1.81-2.84c9.38 1.09 34.36 5.45 53.22 17.59 20.57 13.26 38.37 10.35 44.02 11.17z" fill="#5fcda4"/><path d="m208.73 287.29a.714.714 0 0 1 -.43-.7c.84-11.49 2.81-27.09 6.7-36.85a32.9 32.9 0 0 1 1.48-3.25q2.415-4.56 4.41-8.86c2-4.29 3.71-8.38 5.15-12.23 6.34-16.84 7.9-29.31 8.42-35.23.72-8.18 8.01 1.67 10.58 10.71 1.8 6.34 2.02 39.74-11.35 63.84a60.334 60.334 0 0 1 -6.16 9.13 48.044 48.044 0 0 1 -6.12 6.23 41.836 41.836 0 0 1 -12.17 7.21.691.691 0 0 1 -.51 0z" fill="#5fcda4"/><path d="m233.69 264.72c3.35 7.45 8.3 22.68.95 42.36a5.611 5.611 0 0 1 -5.48 3.67c1.56-11.38 2.02-25.01-1.63-36.9a60.334 60.334 0 0 0 6.16-9.13z" fill="#43896d"/><path d="m227.53 273.85c3.65 11.89 3.19 25.52 1.63 36.9a5.57 5.57 0 0 1 -5.34-5.08l-2.41-25.59a48.044 48.044 0 0 0 6.12-6.23z" fill="#43896d"/><path d="m180.93 212.93a2.109 2.109 0 0 1 -.7-1.54c-.09-7.33.48-24.88 7.37-34.14 8.85-11.9 4.68-15.02 11.7-22.53 6.5-6.94 9.67-21.8 15.12-29.04a1.633 1.633 0 0 1 2.65.04c2.16 3.09 5.83 10.4 1.37 20.1-5.97 13.01 2.67 21.73-3.51 32.04-5.92 9.9-8.64 23.33-31.61 35.38a2.091 2.091 0 0 1 -2.39-.31z" fill="#5fcda4"/><path d="m142.35 259.59a123.079 123.079 0 0 1 14.92 6.93 82.956 82.956 0 0 1 13.19 8.95q2.04 1.71 3.89 3.56a2.2 2.2 0 0 1 .63 2.03 2.276 2.276 0 0 1 -2.66 1.83 155.485 155.485 0 0 0 -32.83-2.27c-22.72.86-19.67-4.69-35.8-13.52-14.94-8.17-25.8-10.81-31.4-19.65a1.346 1.346 0 0 1 1.2-2.1 278.854 278.854 0 0 1 31.58 4.01 220.114 220.114 0 0 1 30.36 7.72q3.48 1.17 6.92 2.51z" fill="#5fcda4"/><path d="m154.79 118.9a1.557 1.557 0 0 1 -1.02-.94c-10.4-27.02-1.07-51.7 12.16-63.48a2.46 2.46 0 0 1 3.68.51c9.41 14.42 1.6 40.21-4.88 51.17-3.91 6.62-6.34 9.03-8.12 12.04a1.561 1.561 0 0 1 -1.82.7z" fill="#5fcda4"/><path d="m159.88 212.65c-3.49-1.38-12.2-2.05-16.11-6.82-3.84-4.69-17.63-21.32-18.16-34.46s-11.24-21.8-8.41-25.25 11.68 10.45 17.57 21.84 11.04 12.84 16.02 21.92a122.651 122.651 0 0 1 9.09 22.77z" fill="#4ca987"/><path d="m142.82 123.78a.787.787 0 0 1 -.99-.32 69.972 69.972 0 0 0 -12.1-14.39c-13.22-12.14-23.16-27.27-26.49-37.37-3.07-9.28-11.85-30.3-16-36.25a1.4 1.4 0 0 1 .6-2.09c3.86-1.65 14.43-3.25 28.14 18.47 15.64 24.78 24.07 54.49 27.34 71.02a.8.8 0 0 1 -.5.93z" fill="#4ca987"/><path d="m131.94 136.51a1.819 1.819 0 0 1 -1.97 1.09c-13.71-2.09-52.93-13.38-90.33-52.33a2.178 2.178 0 0 1 1.58-3.68 2.22 2.22 0 0 1 .51.06c55.32 13.64 81.2 43.05 89.9 52.9a1.8 1.8 0 0 1 .31 1.96z" fill="#5fcda4"/><path d="m244.28 437.18c-15.98-4.973-30.542-24.592-37.28-34.892-5.1-1.055-9.375-1.688-12.216-2.018a1.87 1.87 0 0 0 -1.81 2.84c5.4 8.72 21.48 32.52 39.31 38.07 13.182 4.112 32.746-1.466 46.256-6.52-11.597 3.356-24.631 5.524-34.26 2.52z" fill="#51a884"/><path d="m122.467 246.42q1.539.318 3.1.661-1.562-.343-3.1-.661z" fill="#5fcda4"/><path d="m172.5 277.264a156.227 156.227 0 0 0 -21.014-.644c-22.72.86-19.67-4.69-35.8-13.52-13.01-7.115-22.922-10.039-28.965-16.512-5.942-.7-10.593-1.068-13.235-1.238a1.346 1.346 0 0 0 -1.2 2.1c5.6 8.84 16.46 11.48 31.4 19.65 16.13 8.83 13.08 14.38 35.8 13.52a155.485 155.485 0 0 1 32.83 2.27 2.276 2.276 0 0 0 2.66-1.83 2.2 2.2 0 0 0 -.63-2.03q-.894-.899-1.846-1.766z" fill="#51a884"/><path d="m117.07 245.36c1.361.251 2.75.521 4.15.8-1.4-.279-2.788-.549-4.15-.8z" fill="#5fcda4"/><path d="m126.952 247.389q1.644.37 3.308.773-1.66-.4-3.308-.773z" fill="#5fcda4"/><path d="m101.791 35.823c-6.641-4.47-11.572-3.48-13.951-2.463a1.4 1.4 0 0 0 -.6 2.09c4.15 5.95 12.93 26.97 16 36.25 3.33 10.1 13.27 25.23 26.49 37.37a69.972 69.972 0 0 1 12.1 14.39.787.787 0 0 0 .99.32.8.8 0 0 0 .5-.93c-1.148-5.8-2.937-13.24-5.447-21.512-11.273-11.392-19.636-24.549-22.633-33.638a274.74 274.74 0 0 0 -13.449-31.877z" fill="#3d725c"/><path d="m41.73 81.65a2.22 2.22 0 0 0 -.51-.06 2.178 2.178 0 0 0 -1.58 3.68c37.4 38.95 76.62 50.24 90.33 52.33a1.847 1.847 0 0 0 1.66-3.05c-1.066-1.207-2.393-2.71-4-4.438-17.584-5.525-44.761-18.078-71.566-44.381-4.542-1.472-9.313-2.843-14.334-4.081z" fill="#51a884"/><path d="m243.069 338.826c-4.864-5.154-9.373-9.8-13.465-13.928 3.125-13.826 5.641-32.68 1.629-48.889a3 3 0 0 0 -5.819 1.459c3.391 13.688 1.707 29.7-.861 42.386-4.844-4.787-8.941-8.692-12.159-11.694-1.123-2.415-7.046-17.306 7.636-35.63 12.829-16.009 17.576-40.26 17.772-41.285a3 3 0 0 0 -5.893-1.127c-.046.236-4.677 23.829-16.56 38.66-10.274 12.821-11.733 24.327-10.934 32.149l-.075-.065c-1.474-1.542-24.5-26.265-27.534-65.607-.2-2.534-.482-5.2-.842-7.972 3.333-5.529 21.553-36.017 27.114-50.7a3.072 3.072 0 0 0 -1.185-3.711 3 3 0 0 0 -4.391 1.493c-4.167 11.067-16.447 32.5-22.978 43.6-2.746-15.534-7.627-34.124-14.611-55.558-1.521-4.667-3.027-9.108-4.46-13.221.168-4.935 1.692-42.627 9.318-64.341a3 3 0 0 0 -5.661-1.988c-5.361 15.266-7.8 37.34-8.869 51.865-2.762-7.414-4.6-11.974-4.638-12.062-.023-.055-.046-.11-.072-.163-8.617-18.094-29.056-51.084-29.923-52.479a3 3 0 1 0 -5.1 3.163c.21.338 21.065 34 29.563 51.813.327.812 2.927 7.319 6.495 17.156-5.481-3.529-11.747-7.391-18.663-11.648-12.574-7.74-26.823-16.51-41.067-26.238a3.078 3.078 0 0 0 -3.882.261 3 3 0 0 0 .4 4.629c14.394 9.834 28.743 18.666 41.4 26.458 9.88 6.082 18.445 11.359 25.145 15.937 6.179 17.791 13.744 41.822 17.975 63.554-13.608-8.976-26.664-29.634-26.812-29.869a3 3 0 0 0 -5.085 3.185c.7 1.113 16.726 26.488 33.26 34.348.718 4.5 1.262 8.844 1.579 12.954a119.891 119.891 0 0 0 12.584 44.879c-20.223-6.5-39.012-12.242-49.01-15.267-6.96-2.107-13.622-4.094-18.757-5.6-2.281-.667-4.077-1.185-5.306-1.531-2.055-.581-4.615-1.3-5.54 1.429a3.023 3.023 0 0 0 2.044 3.87 2.974 2.974 0 0 0 .737.159c5.168 1.386 43.337 12.7 80.05 24.6a94.81 94.81 0 0 0 12.531 16.893c.059.059.12.115.182.169.15.128 24.85 23.282 48.171 48.006z" fill="#646d69"/><path d="m290.47 424.93c-10.26-4.26-40.14-16.96-48.56-33.82-3.12-6.26-4.23-14.11-4.27-22-.01-2.86.12-5.73.34-8.54.26-3.13.63-6.17 1.07-9.02.59-3.96 1.31-7.56 1.97-10.52.4-1.82.78-3.39 1.11-4.67a1.873 1.873 0 0 1 3.3-.67 157.208 157.208 0 0 1 17.29 29.71 106.076 106.076 0 0 1 6.88 20.91c4.46 21.54 17.26 31.78 20.88 38.62z" fill="#4f997a"/><path d="m449.228 103.657a3.058 3.058 0 0 0 -3.758-.945c-14.692 6.708-32.224 20.188-43.419 29.454 3.194-6.653 5.149-11 5.453-11.681l.063-.152c7.074-18.748 16.7-56.372 17.11-57.964a3 3 0 0 0 -5.815-1.484c-.1.386-9.917 38.756-16.871 57.229-.359.8-3.247 7.179-7.864 16.563-1.253-6.4-2.81-13.6-4.531-21.55-3.136-14.469-6.69-30.869-9.545-47.928a3.006 3.006 0 0 0 -4.045-2.3 3.09 3.09 0 0 0 -1.852 3.42c2.876 17.151 6.436 33.581 9.577 48.081 2.46 11.35 4.589 21.192 5.929 29.2-8.544 16.781-20.623 38.884-33.357 56.988-2.954-16.044 2.894-39.779 2.962-40.048a3 3 0 0 0 -5.821-1.459c-.318 1.273-7.509 30.421-1.724 47.8-2.742 3.633-5.5 7.035-8.241 10.11a119.813 119.813 0 0 0 -23.64 40.154c-9.321-19.1-18.19-36.644-22.934-45.958-3.3-6.484-6.482-12.671-8.956-17.421-1.1-2.109-1.968-3.765-2.569-4.892-1.006-1.886-2.257-4.231-4.868-3.008a3.023 3.023 0 0 0 -1.376 4.155 2.952 2.952 0 0 0 .395.641c2.578 4.687 20.856 40.088 37.7 74.843a94.968 94.968 0 0 0 -3.5 20.749v.256c.012.2 1.175 20.1-.678 55.646-.6 11.609-1.587 25.785-3.162 42.224-3.986-9.107-5.014-16.253-6.006-23.21s-2.015-14.143-5.969-22.726a142.183 142.183 0 0 0 -19.176-30.527 3 3 0 0 0 -4.542 3.92 138.788 138.788 0 0 1 18.269 29.117c3.586 7.787 4.506 14.235 5.478 21.063 1.348 9.457 2.758 19.241 10.827 33.449q-1.758 16.591-4.35 35.778c-10.8-6.984-37.719-26.585-48.995-54.839a3.086 3.086 0 0 0 -3.365-1.974 3 3 0 0 0 -2.261 4.063c8.412 21.181 25.017 37.685 38.009 48.113-21.693 2.92-40.772 1.131-56.775-5.371a3.082 3.082 0 0 0 -3.735 1.064 3 3 0 0 0 1.361 4.448c11.809 4.819 25.125 7.234 39.793 7.234a156.853 156.853 0 0 0 26.015-2.3c3.843 2.782 7.013 4.831 9.054 6.089-2.532 17.789-5.666 37.071-9.554 57.678a3 3 0 0 0 2.392 3.5 3.055 3.055 0 0 0 .559.053 3 3 0 0 0 2.945-2.445q4.74-25.119 8.094-47.687c9.837-1.43 48.385-8.471 73.219-33.606a3 3 0 0 0 -.5-4.624 3.084 3.084 0 0 0 -3.866.5c-21.96 22.148-56.439 29.565-67.935 31.493q.462-3.177.9-6.3c6.872-4.406 40.181-27.488 59.093-72.007a3 3 0 1 0 -5.521-2.346c-15.385 36.212-41.293 58.079-52.466 66.265q.26-1.944.511-3.869a2.922 2.922 0 0 0 .589-.567c1.18-1.537 28.886-38.1 27.848-78a3.024 3.024 0 0 0 -3.819-2.809 3.147 3.147 0 0 0 -2.172 3.148c.629 26.68-12.833 52.488-20.847 65.418q.98-8.217 1.788-15.953a3 3 0 0 0 .083-.8c3.187-30.572 4.506-55.413 4.984-73.58 12.139-7.318 27.506-18.571 36.424-32.715a3 3 0 0 0 -1.094-4.212 2.992 2.992 0 0 0 -3.99 1.027c-7.526 11.942-20.254 21.823-31.188 28.757.112-6.851.1-12.5.044-16.883.922-2.4 7.514-17.09 30.975-19.185 20.424-1.823 41.191-15.19 42.065-15.759a3 3 0 1 0 -3.269-5.03c-.2.131-20.375 13.121-39.33 14.813-16.353 1.46-25.656 8.373-30.743 14.366 0-.035 0-.079-.006-.107.088-2.142 1.9-35.8 28.221-65.31 1.724-1.932 3.448-3.984 5.169-6.128 6.32-1.429 40.9-9.384 55.322-15.536a3.061 3.061 0 0 0 1.845-3.427 3.005 3.005 0 0 0 -4.117-2.127c-10.858 4.654-34.8 10.625-47.328 13.6 14.034-19.235 27.289-43.459 36.417-61.456 3.875-3.474 31.919-28.281 52.767-37.773a3 3 0 0 0 1.196-4.491z" fill="#55665e"/></svg>