<svg id="Flat" enable-background="new 0 0 123.995 69.74" height="512" viewBox="0 0 123.995 69.74" width="512" xmlns="http://www.w3.org/2000/svg"><g><g id="XMLID_29_"><path d="m120.977 41.07c-1.71-.82-3.13-1.62-4.33-2.4-.01-.01-.01-.02-.01-.02-2.56-1.67-4.16-3.28-5.48-4.98-.01-.01-.01-.02-.01-.02-2.16-2.78-3.6-5.78-7.38-9.57-1.31-1.32-2.91-2.73-4.92-4.26-2.36-1.8-5.3-3.77-9.02-5.95-2.47-1.44-5.28-2.97-8.49-4.61-.2-.1-.4-.2-.6-.3-6.87-3.74-13.85-6.07-20.58-7.41-.01 0-.02 0-.03 0-8.35-1.66-16.31-1.81-23.2-1.27-10.14.78-17.97 3.04-21.28 4.13-1.16.38-2.19 1.06-3.01 1.96-.42.46-.93 1.04-1.49 1.71-.84.99-1.81 2.2-2.83 3.59-.96 1.32-1.97 2.8-2.95 4.42-.76 1.25-1.51 2.59-2.21 3.99-.49.98-.95 1.99-1.38 3.04-.48 1.16-.92 2.36-1.29 3.59-.16.55-.29 1.11-.37 1.67-.13.89-.15 1.79-.07 2.68.01.21.04.42.07.63.29 1.6.62 3.06.99 4.41h.01c.32 1.19.67 2.29 1.07 3.31.57 1.5 1.21 2.82 1.93 4 .82 1.36 1.74 2.52 2.77 3.53 1.36 1.35 2.9 2.43 4.66 3.36 1.62.87 3.42 1.59 5.42 2.26.36.12.73.24 1.1.36 2.33.74 4.45 1.44 6.48 2.11 7.07 2.32 12.96 4.15 22.38 5.09h.01c3.27.33 6.97.55 11.29.64 4.84.1 9.64 1.04 14.09 2.95 3.31 1.42 5.25 2.79 7.37 3.86 2.54 1.29 5.35 2.15 11.11 2.17 2.14.01 4.69-.1 7.8-.35 1.28-.1 2.66-.23 4.14-.38 2.08-.21 4.05-1.06 5.64-2.43.3-.26.61-.53.92-.81.76-.67 1.52-1.36 2.28-2.08 1.48-1.4 2.96-2.87 4.34-4.37v-.01c1.46-1.57 2.82-3.17 3.99-4.75 1.56-2.07 2.79-4.1 3.5-5.95.95-2.47 1.13-5.83-2.43-7.54z" fill="#feb283"/><g><path d="m120.977 41.07c3.56 1.71 3.38 5.07 2.43 7.54-.71 1.85-1.94 3.88-3.5 5.95 2.07-8.16-2.99-15.52-3.26-15.89 1.2.78 2.62 1.58 4.33 2.4z" fill="#f99746"/><path d="m116.647 38.67c.27.37 5.33 7.73 3.26 15.89-1.17 1.58-2.53 3.18-3.99 4.75 1.2-15.17-4.44-25.09-4.76-25.64 1.32 1.7 2.92 3.31 5.48 4.98 0 0 0 .01.01.02z" fill="#feb283"/><path d="m111.157 33.67c.32.55 5.96 10.47 4.76 25.64v.01c-1.38 1.5-2.86 2.97-4.34 4.37.85-5.81-1.8-11.98-3.41-16.2-3.77-9.9-.9-10.16-4.4-23.41 3.78 3.79 5.22 6.79 7.38 9.57 0 0 0 .01.01.02z" fill="#f99746"/><path d="m108.167 47.49c1.61 4.22 4.26 10.39 3.41 16.2-.76.72-1.52 1.41-2.28 2.08-.32-1.29-1.04-2.49-2.03-3.58v-.01c-1.32-9.08-2.03-10.2-4.5-17.24-2.46-7.01.29-9.65-3.92-25.12 2.01 1.53 3.61 2.94 4.92 4.26 3.5 13.25.63 13.51 4.4 23.41z" fill="#feb283"/><path d="m109.297 65.77c-.31.28-.62.55-.92.81-1.59 1.37-3.56 2.22-5.64 2.43-1.48.15-2.86.28-4.14.38 0 0-8.28-3.09-22.28-14.79-5.49-4.59-12.22-7.35-19.26-8.65-5.77-1.07-11.49-2.81-15.47-6.56 8.74 13.54 16.85 7.75 29.17 16.05 5.22 3.15 11.03 10.33 20.04 14.3-5.76-.02-8.57-.88-11.11-2.17-18.99-22.23-32.48 1.24-42.71-26.09 0 0-1.38 13.47 9.95 18.64-9.42-.94-15.31-2.77-22.38-5.09v-.01c9.5-3.69 6.81-14.96 6.81-14.96-1.04 7.04-5.63 11.68-14.39 12.5-2-.67-3.8-1.39-5.42-2.26 21.49-3.12 16.14-14.36 16.14-14.36-2.19 7.06-6.01 10.49-20.8 11-1.03-1.01-1.95-2.17-2.77-3.53 26.53 2.29 19.62-13.79 19.62-13.79-.55 7.39-6.68 12.88-21.55 9.79-.4-1.02-.75-2.12-1.07-3.31 24.83 4.81 19.03-11.03 19.03-11.03-1.76 13.37-18.91 6.82-20.1 5.99-.08-.89-.06-1.79.07-2.68.63-.41 1.27-.81 1.92-1.16 10.07 5.67 17.96 1.36 13.25-4.63 2.09-.35 4.21-.56 6.34-.65h.01c3.77-.17 7.6.01 11.42.41 3.07.32 6.14.77 9.17 1.29 1.51 3.59 21.44 14.53 32.42 14.35 1.35 2.35 2.93 4.44 6.93 5.84 0 0 1.56.65 3.46 2.22.96.8 2.01 1.83 2.99 3.15 1.63 2.22 3.73 4.04 6.14 5.33.66.36 1.35.67 2.06.95.93.37 1.92.78 2.92 1.24 2.39 1.11 4.85 2.49 6.77 4.15-20.8-.02-18.76-15.41-44.18-22.09-5.2-1.37-10.29-3.15-15.18-5.38-4.03-1.85-8.17-4.1-10.75-6.48 8.93 13.14 15.84 11.8 33.78 18.84 10.06 4.54 24.06 23.98 39.71 20.01z" fill="#e88b46"/><path d="m107.267 62.19c.99 1.09 1.71 2.29 2.03 3.58-15.65 3.97-29.65-15.47-39.71-20.01-17.94-7.04-24.85-5.7-33.78-18.84 2.58 2.38 6.72 4.63 10.75 6.48 4.89 2.23 9.98 4.01 15.18 5.38 25.42 6.68 23.38 22.07 44.18 22.09.49.42.94.85 1.35 1.31z" fill="#e59d76"/><path d="m107.267 62.18c-.41-.46-.86-.89-1.35-1.31-1.92-1.66-4.38-3.04-6.77-4.15-8.75-13.29-1.31-26.84-9.32-42.85 3.72 2.18 6.66 4.15 9.02 5.95 4.21 15.47 1.46 18.11 3.92 25.12 2.47 7.04 3.18 8.16 4.5 17.24z" fill="#f99746"/><path d="m99.147 56.72c-1-.46-1.99-.87-2.92-1.24-.71-.28-1.4-.59-2.06-.95-7.72-8.83-.2-29.03-9.86-42.02-.89-1.2-1.97-2.24-3.17-3.11.07-.05.13-.1.2-.14 3.21 1.64 6.02 3.17 8.49 4.61 8.01 16.01.57 29.56 9.32 42.85z" fill="#feb283"/><path d="m76.317 54.6c14 11.7 22.28 14.79 22.28 14.79-3.11.25-5.66.36-7.8.35-9.01-3.97-14.82-11.15-20.04-14.3-12.32-8.3-20.43-2.51-29.17-16.05 3.98 3.75 9.7 5.49 15.47 6.56 7.04 1.3 13.77 4.06 19.26 8.65z" fill="#e59d76"/><path d="m94.167 54.53c-2.41-1.29-4.51-3.11-6.14-5.33-.98-1.32-2.03-2.35-2.99-3.15-2.22-9.72.17-25.7-8.67-32.95 1.54-1.35 3.15-2.62 4.77-3.7 1.2.87 2.28 1.91 3.17 3.11 9.66 12.99 2.14 33.19 9.86 42.02z" fill="#f99746"/><path d="m85.037 46.05c-1.9-1.57-3.46-2.22-3.46-2.22-3.1-8.96 0-21.58-8.58-27.59 1.08-1.07 2.21-2.13 3.37-3.14 8.84 7.25 6.45 23.23 8.67 32.95z" fill="#feb283"/><path d="m81.337 9.26c-.07.04-.13.09-.2.14-1.19-.88-2.52-1.58-3.91-2.12-22-8.41-53.66 11.6-68.91 10.17-.9-.46-1.88-.91-2.95-1.36.98-1.62 1.99-3.1 2.95-4.42 11.04 2.86 37.17-10.74 51.81-10.12h.03c6.73 1.34 13.71 3.67 20.58 7.41.2.1.4.2.6.3z" fill="#feb283"/><path d="m72.997 16.24c8.58 6.01 5.48 18.63 8.58 27.59-4-1.4-5.58-3.49-6.93-5.84 1.2-9.6-.63-15.61-4.78-18.49.97-1.06 2.02-2.16 3.12-3.26z" fill="#f99746"/><path d="m77.227 7.28c1.39.54 2.72 1.24 3.91 2.12-1.62 1.08-3.23 2.35-4.77 3.7-7.37-6.05-22.55-6.01-54.73 8.84h-.01c-2.13.09-4.25.3-6.34.65-1.3-1.64-3.55-3.42-6.97-5.14 15.25 1.43 46.91-18.58 68.91-10.17z" fill="#f99746"/><path d="m69.867 19.5c4.15 2.88 5.98 8.89 4.78 18.49-1.12-1.95-2.08-4.07-4.14-6.13h.01c.36-2.47.26-7.62-3.12-9.58.75-.87 1.57-1.81 2.47-2.78z" fill="#feb283"/><path d="m70.507 31.86c2.06 2.06 3.02 4.18 4.14 6.13-10.98.18-30.91-10.76-32.42-14.35 3.74.63 7.43 1.36 11.01 2.03 0 0 7.4 8.7 17.27 6.19z" fill="#e59d76"/><path d="m76.367 13.1c-1.16 1.01-2.29 2.07-3.37 3.14h-.01c-10.47-6.69-29.89-.49-39.93 6.11-3.82-.4-7.65-.58-11.42-.41 32.18-14.85 47.36-14.89 54.73-8.84z" fill="#feb283"/><path d="m79.687 67.57c-2.12-1.07-4.06-2.44-7.37-3.86-4.45-1.91-9.25-2.85-14.09-2.95-4.32-.09-8.02-.31-11.29-.64h-.01c-11.33-5.17-9.95-18.64-9.95-18.64 10.23 27.33 23.72 3.86 42.71 26.09z" fill="#e59d76"/><path d="m67.397 22.28c3.38 1.96 3.48 7.11 3.12 9.58h-.01c-.48-.49-1.02-.97-1.64-1.44-1.71-1.31-3.65-2.26-5.71-2.86 0 0 1.63-2.24 4.24-5.28z" fill="#f99746"/><path d="m72.987 16.24c-1.1 1.1-2.15 2.2-3.12 3.26-5.59-3.88-15.37-2.12-27.64 4.13v.01c-3.03-.52-6.1-.97-9.17-1.29 10.04-6.6 29.46-12.8 39.93-6.11z" fill="#f99746"/><path d="m68.867 30.42c.62.47 1.16.95 1.64 1.44-9.87 2.51-17.27-6.19-17.27-6.19 2.53.49 5.01.94 7.41 1.32.85.13 1.69.32 2.51.57 2.06.6 4 1.55 5.71 2.86z" fill="#e88b46"/><path d="m69.867 19.5c-.9.97-1.72 1.91-2.47 2.78-2.52-1.45-6.85-1.13-14.16 3.39-3.58-.67-7.27-1.4-11.01-2.03v-.01c12.27-6.25 22.05-8.01 27.64-4.13z" fill="#feb283"/><path d="m53.237 25.67c7.31-4.52 11.64-4.84 14.16-3.39-2.61 3.04-4.24 5.28-4.24 5.28-.82-.25-1.66-.44-2.51-.57-2.4-.38-4.88-.83-7.41-1.32z" fill="#f99746"/><path d="m60.127 1.55c-14.64-.62-40.77 12.98-51.81 10.12 1.02-1.39 1.99-2.6 2.83-3.59.17-.21 13.31-.33 25.78-7.8 6.89-.54 14.85-.39 23.2 1.27z" fill="#f99746"/><g fill="#e59d76"><path d="m31.357 40.06s2.69 11.27-6.81 14.96v.01c-2.03-.67-4.15-1.37-6.48-2.11-.37-.12-.74-.24-1.1-.36 8.76-.82 13.35-5.46 14.39-12.5z"/><path d="m27.687 35.94s5.35 11.24-16.14 14.36c-1.76-.93-3.3-2.01-4.66-3.36 14.79-.51 18.61-3.94 20.8-11z"/><path d="m23.737 29.62s6.91 16.08-19.62 13.79c-.72-1.18-1.36-2.5-1.93-4 14.87 3.09 21-2.4 21.55-9.79z"/></g><path d="m36.927.28c-12.47 7.47-25.61 7.59-25.78 7.8.56-.67 1.07-1.25 1.49-1.71.82-.9 1.85-1.58 3.01-1.96 3.31-1.09 11.14-3.35 21.28-4.13z" fill="#feb283"/><path d="m20.147 25.07s5.8 15.84-19.03 11.03h-.01c-.37-1.35-.7-2.81-.99-4.41-.03-.21-.06-.42-.07-.63 1.19.83 18.34 7.38 20.1-5.99z" fill="#e59d76"/><path d="m15.287 22.59c4.71 5.99-3.18 10.3-13.25 4.63 1.2-.7 2.42-1.31 3.66-1.84 6.21 2.92 8.72.54 5.89-2.01 1.22-.31 2.46-.57 3.7-.78z" fill="#e59d76"/><path d="m15.287 22.59c-1.24.21-2.48.47-3.7.78-1.41-1.27-4.15-2.58-8.43-3.29.7-1.4 1.45-2.74 2.21-3.99 1.07.45 2.05.9 2.95 1.36 3.42 1.72 5.67 3.5 6.97 5.14z" fill="#feb283"/><path d="m11.587 23.37c2.83 2.55.32 4.93-5.89 2.01 1.93-.84 3.89-1.5 5.89-2.01z" fill="#e88b46"/><path d="m11.587 23.37c-2 .51-3.96 1.17-5.89 2.01-1.18-.55-2.49-1.29-3.92-2.26.43-1.05.89-2.06 1.38-3.04 4.28.71 7.02 2.02 8.43 3.29z" fill="#feb283"/><path d="m2.037 27.22c-.65.35-1.29.75-1.92 1.16.08-.56.21-1.12.37-1.67.37-1.23.81-2.43 1.29-3.59 1.43.97 2.74 1.71 3.92 2.26-1.24.53-2.46 1.14-3.66 1.84z" fill="#feb283"/></g></g></g></svg>