<svg id="Capa_1" enable-background="new 0 0 512 512" height="512" viewBox="0 0 512 512" width="512" xmlns="http://www.w3.org/2000/svg"><g><g><ellipse cx="256" cy="77.132" fill="#e7efff" rx="114.181" ry="69.632"/><path d="m256 7.5c-5.085 0-10.091.206-15 .599 55.971 4.479 99.181 33.678 99.181 69.033 0 35.356-43.21 64.554-99.181 69.033 4.909.393 9.915.598 15 .598 63.061 0 114.181-31.175 114.181-69.632 0-38.456-51.12-69.631-114.181-69.631z" fill="#d3dbfe"/><path d="m339.991 504.5h-167.982c-29.314 0-52.339-25.102-49.814-54.307l5.4-62.465 19.545-52.572-9.736-60.884 10.096-116.772 108.5-15 108.5 15 10.096 116.772-10.922 47.165 20.731 66.291 5.4 62.465c2.525 29.205-20.501 54.307-49.814 54.307z" fill="#e7efff"/><path d="m389.805 450.193-5.4-62.465-20.033-58.22 10.225-55.236-10.097-116.772h-217l-2.594 30h180.421c5.189 0 9.516 3.969 9.963 9.139l24.515 283.555c.648 7.498-.398 14.72-2.792 21.322 20.633-7.469 34.8-28.09 32.792-51.323z" fill="#d3dbfe"/><path d="m363.974 112.5h-215.948c-12.426 0-22.5 10.074-22.5 22.5 0 12.426 10.074 22.5 22.5 22.5h215.948c12.426 0 22.5-10.074 22.5-22.5 0-12.426-10.073-22.5-22.5-22.5z" fill="#f3e8ce"/><path d="m363.974 112.5h-30c12.426 0 22.5 10.073 22.5 22.5 0 12.426-10.074 22.5-22.5 22.5h30c12.426 0 22.5-10.074 22.5-22.5 0-12.427-10.073-22.5-22.5-22.5z" fill="#ffd09d"/><path d="m127.596 387.728h256.808l-20.033-58.22 10.225-55.236h-237.192z" fill="#f3e8ce"/><path d="m374.596 274.272h-32.594l9.809 113.456h32.593z" fill="#ffd09d"/></g><path d="m305.032 346.365c-2.871.016-5.887.028-8.498.035v-38.303c0-4.142-3.358-7.5-7.5-7.5s-7.5 3.358-7.5 7.5v45.768c0 3.652 2.631 6.774 6.231 7.392.538.092 12.116.137 17.351.108 4.142-.023 7.481-3.4 7.458-7.542-.023-4.143-3.435-7.499-7.542-7.458zm-57.784-40.273c-.029-.076-2.339-5.495-7.978-5.495-.003 0-.007 0-.01 0-5.668 0-7.924 5.38-7.959 5.476l-17.2 45.162c-1.474 3.871.469 8.204 4.339 9.678 1.422.542 7.464 1.475 9.678-4.339l2.444-6.417h17.282l2.414 6.396c1.463 3.874 5.788 5.831 9.665 4.369 3.875-1.462 5.832-5.79 4.369-9.665zm-10.973 29.064 2.968-7.792 2.941 7.792zm-51.281-10.832c-5.307-1.957-10.269-4.082-12.111-4.885-.297-.312-.411-.721-.34-1.219.143-.997 1.018-1.807 2.399-2.224 5.499-1.655 10.773 2.433 10.976 2.593 3.171 2.617 7.865 2.196 10.515-.958 2.665-3.171 2.255-7.902-.915-10.567-4.206-3.535-14.183-8.658-24.902-5.43-6.992 2.106-11.942 7.645-12.92 14.455-.923 6.432 1.867 12.62 7.281 16.151.331.216.679.405 1.041.566.267.12 6.628 2.951 13.786 5.591 2.438.899 5.178 2.555 4.874 4.26-.27 1.511-2.444 3.746-6.255 3.746-4.061 0-7.95-1.617-10.405-4.326-2.781-3.069-7.524-3.302-10.594-.521-3.069 2.782-3.303 7.525-.521 10.594 5.33 5.881 13.173 9.254 21.521 9.254 10.514 0 19.355-6.775 21.021-16.109 1.264-7.094-1.866-16.329-14.451-20.971zm164.548-23.727h-25.297c-4.142 0-7.5 3.358-7.5 7.5s3.358 7.5 7.5 7.5h5.098v38.307c0 4.142 3.358 7.5 7.5 7.5s7.5-3.358 7.5-7.5v-38.307h5.2c4.142 0 7.5-3.358 7.5-7.5s-3.359-7.5-7.501-7.5zm47.735 148.95-24.71-285.807c12.366-3.705 21.407-15.184 21.407-28.74 0-14.714-10.651-26.979-24.647-29.512 5.493-8.939 8.353-18.548 8.353-28.358 0-18.987-10.751-37.158-30.274-51.164-3.365-2.415-8.052-1.644-10.466 1.722-2.415 3.366-1.644 8.051 1.722 10.466 15.488 11.112 24.018 24.954 24.018 38.976 0 9.639-4.01 19.219-11.611 27.87h-190.138c-7.601-8.652-11.611-18.231-11.611-27.87 0-15.881 10.6-31.092 29.848-42.831 20.407-12.445 47.693-19.299 76.832-19.299 18.808 0 37.324 2.947 53.545 8.524 3.919 1.345 8.185-.737 9.531-4.655 1.346-3.917-.737-8.184-4.655-9.531-17.771-6.109-37.973-9.338-58.421-9.338-31.856 0-61.916 7.633-84.643 21.493-23.884 14.566-37.037 34.325-37.037 55.637 0 9.811 2.86 19.419 8.353 28.358-13.995 2.533-24.647 14.798-24.647 29.512 0 13.556 9.04 25.035 21.407 28.74l-24.709 285.808c-1.384 16.008 4.052 31.98 14.913 43.821 10.86 11.84 26.305 18.631 42.372 18.631h167.981c16.067 0 31.512-6.791 42.373-18.632 10.862-11.841 16.298-27.813 14.914-43.821zm-264.251-314.547c0-8.271 6.729-15 15-15h215.948c8.271 0 15 6.729 15 15s-6.729 15-15 15h-215.948c-8.271 0-15-6.729-15-15zm11.258 146.772h50.639c4.142 0 7.5-3.358 7.5-7.5s-3.358-7.5-7.5-7.5h-49.343l8.799-101.772h203.241l8.799 101.772h-136.496c-4.142 0-7.5 3.358-7.5 7.5s3.358 7.5 7.5 7.5h137.793l8.512 98.456h-240.456zm227.026 201.457c-8.146 8.88-19.268 13.771-31.319 13.771h-167.982c-12.051 0-23.173-4.891-31.319-13.771s-12.061-20.383-11.022-32.389l4.808-55.611h243.049l4.808 55.611c1.038 12.005-2.877 23.508-11.023 32.389zm-77.81-398.229c0 4.142-3.358 7.5-7.5 7.5s-7.5-3.358-7.5-7.5 3.358-7.5 7.5-7.5 7.5 3.358 7.5 7.5zm-60 0c0 4.142-3.358 7.5-7.5 7.5s-7.5-3.358-7.5-7.5 3.358-7.5 7.5-7.5 7.5 3.358 7.5 7.5zm-30-30c0 4.142-3.358 7.5-7.5 7.5s-7.5-3.358-7.5-7.5 3.358-7.5 7.5-7.5 7.5 3.358 7.5 7.5zm60 0c0 4.142-3.358 7.5-7.5 7.5s-7.5-3.358-7.5-7.5 3.358-7.5 7.5-7.5 7.5 3.358 7.5 7.5zm60 0c0 4.142-3.358 7.5-7.5 7.5s-7.5-3.358-7.5-7.5 3.358-7.5 7.5-7.5 7.5 3.358 7.5 7.5z"/></g></svg>