<svg enable-background="new 0 0 512 512" height="512" viewBox="0 0 512 512" width="512" xmlns="http://www.w3.org/2000/svg"><g id="_x31_9_Seasoning"><g><g><path d="m177.789 200.247 152.862-187c13.515-16.533 38.353-17.778 53.452-2.678l117.328 117.328c15.1 15.1 13.855 39.937-2.678 53.452l-187 152.862c-7.174 5.864-17.624 5.341-24.176-1.211l-108.577-108.577c-6.552-6.552-7.075-17.002-1.211-24.176z" fill="#65c5ef"/></g><g><path d="m300.339 327.274c-1.879 0-3.648-.731-4.973-2.059l-108.581-108.578c-2.562-2.563-2.766-6.613-.47-9.419l54.164-66.262h257.164c2.551 4.413 3.683 9.499 3.226 14.712-.594 6.761-3.82 12.854-9.083 17.156l-187 152.862c-1.606 1.312-3.305 1.588-4.447 1.588z" fill="#eef0ee"/></g><g><path d="m197.254 216.779h42.218v153.716h-42.218z" fill="#565656" transform="matrix(.707 -.707 .707 .707 -143.676 240.41)"/></g><g><path d="m142.962 248.09 120.948 120.948c3.842 3.842 3.435 10.183-.843 13.533-32.69 25.601-80.119 23.385-110.258-6.754l-16.627-16.627c-30.12-30.12-32.371-77.55-6.754-110.258 3.351-4.277 9.692-4.685 13.534-.842z" fill="#878787"/></g><g><g><path d="m181.298 379.631-2.879-2.878c-1.344-1.344-1.344-3.523 0-4.867s3.521-1.343 4.866-.001l2.879 2.878c1.344 1.344 1.344 3.523 0 4.867-1.346 1.346-3.523 1.341-4.866.001z" fill="#565656"/></g></g><g><g><path d="m158.271 356.606-2.876-2.878c-1.344-1.344-1.344-3.523 0-4.867 1.347-1.344 3.524-1.34 4.866.001l2.876 2.878c1.344 1.344 1.344 3.523 0 4.867-1.342 1.34-3.519 1.346-4.866-.001z" fill="#565656"/></g></g><g><g><path d="m135.247 333.58-2.876-2.878c-1.344-1.344-1.344-3.523 0-4.867 1.347-1.344 3.524-1.34 4.866.001l2.876 2.878c1.344 1.344 1.344 3.523 0 4.867-1.342 1.34-3.519 1.346-4.866-.001z" fill="#565656"/></g></g><g><g><path d="m206.556 377.391-2.876-2.879c-1.341-1.344-1.341-3.523.003-4.866 1.347-1.343 3.527-1.343 4.868.003l2.876 2.879c1.341 1.344 1.341 3.523-.003 4.866-1.342 1.339-3.522 1.345-4.868-.003z" fill="#565656"/></g></g><g><g><path d="m183.535 354.366-2.876-2.878c-1.344-1.344-1.344-3.523 0-4.867 1.347-1.343 3.524-1.341 4.866.001l2.876 2.878c1.344 1.344 1.344 3.523 0 4.867-1.343 1.34-3.519 1.346-4.866-.001z" fill="#565656"/></g></g><g><g><path d="m160.511 331.344-2.879-2.878c-1.344-1.344-1.344-3.523 0-4.867 1.341-1.341 3.519-1.345 4.866-.001l2.879 2.878c1.344 1.344 1.344 3.523 0 4.867-1.344 1.343-3.521 1.343-4.866.001z" fill="#565656"/></g></g><g><g><path d="m137.487 308.318-2.879-2.879c-1.344-1.344-1.344-3.521 0-4.866 1.344-1.344 3.521-1.344 4.866 0l2.879 2.879c1.344 1.344 1.344 3.521 0 4.866-1.345 1.344-3.522 1.344-4.866 0z" fill="#565656"/></g></g><g><path d="m135.206 422.565c4.815-4.815 12.613-4.815 17.428 0s4.815 12.613 0 17.428-12.613 4.815-17.428 0-4.815-12.613 0-17.428z" fill="#eef0ee"/></g><g><path d="m103.607 390.965c4.815-4.815 12.613-4.815 17.428 0s4.815 12.613 0 17.428-12.613 4.815-17.428 0-4.815-12.613 0-17.428z" fill="#eef0ee"/></g><g><path d="m72.007 359.366c4.815-4.815 12.613-4.815 17.428 0s4.815 12.613 0 17.428-12.613 4.815-17.428 0-4.815-12.613 0-17.428z" fill="#eef0ee"/></g><g><path d="m91.341 434.83c4.815-4.815 12.613-4.815 17.428 0s4.815 12.613 0 17.428-12.613 4.815-17.428 0-4.815-12.613 0-17.428z" fill="#eef0ee"/></g><g><path d="m59.742 403.231c4.815-4.815 12.613-4.815 17.428 0s4.815 12.613 0 17.428-12.613 4.815-17.428 0-4.815-12.613 0-17.428z" fill="#eef0ee"/></g><g><path d="m79.076 478.695c4.815-4.815 12.613-4.815 17.428 0s4.815 12.613 0 17.428-12.613 4.815-17.428 0c-4.815-4.814-4.815-12.613 0-17.428z" fill="#eef0ee"/></g><g><path d="m47.476 447.096c4.815-4.815 12.613-4.815 17.428 0s4.815 12.613 0 17.428-12.613 4.815-17.428 0-4.815-12.613 0-17.428z" fill="#eef0ee"/></g><g><path d="m15.877 415.496c4.815-4.815 12.613-4.815 17.428 0s4.815 12.613 0 17.428-12.613 4.815-17.428 0c-4.816-4.815-4.816-12.613 0-17.428z" fill="#eef0ee"/></g><g><path d="m35.211 490.961c4.815-4.815 12.613-4.815 17.428 0s4.815 12.613 0 17.428-12.613 4.815-17.428 0-4.815-12.613 0-17.428z" fill="#eef0ee"/></g><g><path d="m3.611 459.361c4.815-4.815 12.613-4.815 17.428 0s4.815 12.613 0 17.428-12.613 4.815-17.428 0-4.815-12.613 0-17.428z" fill="#eef0ee"/></g></g></g></svg>