<svg id="Слой_1" enable-background="new 0 0 512 512" height="512" viewBox="0 0 512 512" width="512" xmlns="http://www.w3.org/2000/svg"><g><g><path d="m380.2 178.7c-3.5-5.4-4.4-12.1-2.6-18.3l7.9-25.9c1.4-4.5 1.8-9.3 1.4-13.9h-122.2c-.6 5.3-.1 10.7 1.6 15.9l7.9 23.6c2.1 6.4 1.2 13.4-2.4 19l-19.2 29.6c-5.9 8.7-9 19-9 29.5v249.4c0 10.5 8.5 19 19 19h125.8c10.5 0 19-8.5 19-19v-251.5c0-9.3-2.5-18.4-7.1-26.4z" fill="#ffc522"/><g><path d="m383.2 107.5-18.6-37.3h-77.2l-17.9 35.9c-2.7 4.5-4.3 9.4-4.9 14.4h122.3c-.4-4.5-1.6-8.9-3.7-13z" fill="#fff"/><path d="m386.9 126h-122.2c-1.6 0-3.1-.7-4.1-1.9s-1.5-2.7-1.3-4.3c.7-5.8 2.6-11.3 5.5-16.4l17.9-35.8c.9-1.9 2.8-3 4.9-3h77.2c2.1 0 4 1.2 4.9 3.1l18.6 37.3c2.3 4.7 3.8 9.7 4.2 15 .1 1.5-.4 3.1-1.4 4.2s-2.6 1.8-4.2 1.8zm-115.4-11h108.8c-.5-1.7-1.2-3.4-2-5l-17.1-34.3h-70.3l-16.4 32.9c-.1.1-.1.2-.2.4-1.2 1.8-2.1 3.9-2.8 6z" fill="#262626"/></g></g><g><path d="m363.7 5.5h-76.7c-5.6 0-10.2 4.5-10.2 10.2v44.3c0 5.6 4.5 10.2 10.2 10.2h76.6c5.6 0 10.2-4.5 10.2-10.2v-44.3c0-5.6-4.5-10.2-10.1-10.2z" fill="#7f4d2a"/><path d="m363.7 75.6h-76.7c-8.6 0-15.7-7-15.7-15.7v-44.2c.1-8.7 7.1-15.7 15.7-15.7h76.6c8.6 0 15.7 7 15.7 15.7v44.3c0 8.6-7 15.6-15.6 15.6zm-76.7-64.6c-2.6 0-4.6 2.1-4.6 4.6v44.4c0 2.6 2.1 4.6 4.6 4.6h76.6c2.6 0 4.6-2.1 4.6-4.6v-44.3c0-2.6-2.1-4.6-4.6-4.6h-76.6z" fill="#262626"/></g><g><path d="m120.2 506.5h242.5s9-36.3-11.5-46.1-5.3-35.3-23-40.6c-17.8-5.3-35.1-35.3-56.9-39.8s-2.5-69.4-35.1-70.4-28.8 40.3-43.1 49.3-10.5 24.8-36.8 36.1-24 14.3-19.5 33.8-16.5 65.4-28.6 64.6 12 13.1 12 13.1z" fill="#f9ce6e"/><path d="m362.7 512h-242.5c-1 0-1.9-.3-2.8-.7-.2-.1-4.3-2.5-8.4-5.2-5.9-4-11.1-8.1-9.5-13.4.6-1.9 2.5-5.1 8.9-4.8.3-.1 2.9-.9 7.6-7.7 9.3-13.5 18-38.3 15.3-50.1-.2-1-.4-1.9-.7-2.8-2.1-9.1-3.7-15.7-.2-21.9 3.4-6 10.9-10 23.6-15.5 14.1-6 18.2-13 22.6-20.4 3.2-5.4 6.5-11 13.4-15.3 3.6-2.3 6.2-9.2 8.9-16.4 5.4-14.6 12.7-34.5 37.4-33.8 10.3.3 17.7 5.8 22 16.3 3.3 8.1 4.4 18.2 5.5 27.9 1.3 12.4 2.7 25.2 8.5 26.4 13.3 2.8 24.3 13.2 34.9 23.2 8 7.6 15.5 14.7 22.4 16.7 12.1 3.6 13.3 14.1 14.3 22.5 1.1 9.1 2.1 14.8 9.5 18.4 24.3 11.6 14.9 50.8 14.5 52.4-.5 2.5-2.7 4.2-5.2 4.2zm-241-11.1h236.4c1.4-9 3.1-29.6-9.3-35.6-13.4-6.3-14.8-18.3-15.8-27-1-8.6-1.8-11.8-6.5-13.2-9.4-2.8-17.9-10.8-26.9-19.3-9.5-9-19.3-18.3-29.5-20.4-13.7-2.8-15.5-19.7-17.3-36-2.2-20.4-4.6-33.9-16.8-34.3-15.5-.5-20.6 10.2-26.6 26.5-3.4 9.1-6.5 17.7-13.3 22-4.6 2.9-6.9 6.8-9.8 11.6-4.6 7.8-10.4 17.4-27.8 24.9-8.4 3.6-16.4 7.4-18.3 10.8-1.3 2.3-.5 6.1 1.3 13.8.2.9.4 1.9.7 2.9 4.1 18-9.3 50.3-20.4 63.4-2.2 2.6-4.4 4.6-6.5 5.9 1.9 1.3 4.1 2.7 6.4 4z" fill="#262626"/></g><g><path d="m318.8 465.2h-5c-3.1 0-5.5-2.5-5.5-5.5s2.5-5.5 5.5-5.5h5c3.1 0 5.5 2.5 5.5 5.5s-2.4 5.5-5.5 5.5zm-22.5 0h-5c-3.1 0-5.5-2.5-5.5-5.5s2.5-5.5 5.5-5.5h5c3.1 0 5.5 2.5 5.5 5.5s-2.5 5.5-5.5 5.5zm-22.6 0h-5c-3.1 0-5.5-2.5-5.5-5.5s2.5-5.5 5.5-5.5h5c3.1 0 5.5 2.5 5.5 5.5s-2.4 5.5-5.5 5.5zm-22.5 0h-5c-3.1 0-5.5-2.5-5.5-5.5s2.5-5.5 5.5-5.5h5c3.1 0 5.5 2.5 5.5 5.5s-2.4 5.5-5.5 5.5zm-22.6 0h-5c-3.1 0-5.5-2.5-5.5-5.5s2.5-5.5 5.5-5.5h5c3.1 0 5.5 2.5 5.5 5.5s-2.4 5.5-5.5 5.5zm-22.5 0h-5c-3.1 0-5.5-2.5-5.5-5.5s2.5-5.5 5.5-5.5h5c3.1 0 5.5 2.5 5.5 5.5s-2.4 5.5-5.5 5.5zm-22.5 0h-5c-3.1 0-5.5-2.5-5.5-5.5s2.5-5.5 5.5-5.5h5c3.1 0 5.5 2.5 5.5 5.5s-2.5 5.5-5.5 5.5zm-22.6 0h-5c-3.1 0-5.5-2.5-5.5-5.5s2.5-5.5 5.5-5.5h5c3.1 0 5.5 2.5 5.5 5.5s-2.4 5.5-5.5 5.5z" fill="#262626"/></g><g><path d="m303.8 443.6h-5c-3.1 0-5.5-2.5-5.5-5.5 0-3.1 2.5-5.5 5.5-5.5h5c3.1 0 5.5 2.5 5.5 5.5 0 3.1-2.4 5.5-5.5 5.5zm-22.5 0h-5c-3.1 0-5.5-2.5-5.5-5.5 0-3.1 2.5-5.5 5.5-5.5h5c3.1 0 5.5 2.5 5.5 5.5 0 3.1-2.5 5.5-5.5 5.5zm-22.6 0h-5c-3.1 0-5.5-2.5-5.5-5.5 0-3.1 2.5-5.5 5.5-5.5h5c3.1 0 5.5 2.5 5.5 5.5 0 3.1-2.4 5.5-5.5 5.5zm-22.5 0h-5c-3.1 0-5.5-2.5-5.5-5.5 0-3.1 2.5-5.5 5.5-5.5h5c3.1 0 5.5 2.5 5.5 5.5 0 3.1-2.5 5.5-5.5 5.5zm-22.6 0h-5c-3.1 0-5.5-2.5-5.5-5.5 0-3.1 2.5-5.5 5.5-5.5h5c3.1 0 5.5 2.5 5.5 5.5.1 3.1-2.4 5.5-5.5 5.5zm-22.5 0h-5c-3.1 0-5.5-2.5-5.5-5.5 0-3.1 2.5-5.5 5.5-5.5h5c3.1 0 5.5 2.5 5.5 5.5 0 3.1-2.5 5.5-5.5 5.5zm-22.6 0h-5c-3.1 0-5.5-2.5-5.5-5.5 0-3.1 2.5-5.5 5.5-5.5h5c3.1 0 5.5 2.5 5.5 5.5.1 3.1-2.4 5.5-5.5 5.5z" fill="#262626"/></g><g><path d="m283.8 422.1h-5c-3.1 0-5.5-2.5-5.5-5.5s2.5-5.5 5.5-5.5h5c3.1 0 5.5 2.5 5.5 5.5s-2.5 5.5-5.5 5.5zm-22.6 0h-5c-3.1 0-5.5-2.5-5.5-5.5s2.5-5.5 5.5-5.5h5c3.1 0 5.5 2.5 5.5 5.5s-2.4 5.5-5.5 5.5zm-22.5 0h-5c-3.1 0-5.5-2.5-5.5-5.5s2.5-5.5 5.5-5.5h5c3.1 0 5.5 2.5 5.5 5.5s-2.5 5.5-5.5 5.5zm-22.6 0h-5c-3.1 0-5.5-2.5-5.5-5.5s2.5-5.5 5.5-5.5h5c3.1 0 5.5 2.5 5.5 5.5s-2.4 5.5-5.5 5.5zm-22.5 0h-5c-3.1 0-5.5-2.5-5.5-5.5s2.5-5.5 5.5-5.5h5c3.1 0 5.5 2.5 5.5 5.5s-2.5 5.5-5.5 5.5zm-22.6 0h-5c-3.1 0-5.5-2.5-5.5-5.5s2.5-5.5 5.5-5.5h5c3.1 0 5.5 2.5 5.5 5.5s-2.4 5.5-5.5 5.5z" fill="#262626"/></g><g><path d="m248.7 400.6h-5c-3.1 0-5.5-2.5-5.5-5.5 0-3.1 2.5-5.5 5.5-5.5h5c3.1 0 5.5 2.5 5.5 5.5s-2.5 5.5-5.5 5.5zm-22.6 0h-5c-3.1 0-5.5-2.5-5.5-5.5 0-3.1 2.5-5.5 5.5-5.5h5c3.1 0 5.5 2.5 5.5 5.5.1 3-2.4 5.5-5.5 5.5zm-22.5 0h-5c-3.1 0-5.5-2.5-5.5-5.5 0-3.1 2.5-5.5 5.5-5.5h5c3.1 0 5.5 2.5 5.5 5.5s-2.4 5.5-5.5 5.5z" fill="#262626"/></g><g><path d="m238.7 379h-5c-3.1 0-5.5-2.5-5.5-5.5s2.5-5.5 5.5-5.5h5c3.1 0 5.5 2.5 5.5 5.5s-2.5 5.5-5.5 5.5zm-22.6 0h-5c-3.1 0-5.5-2.5-5.5-5.5s2.5-5.5 5.5-5.5h5c3.1 0 5.5 2.5 5.5 5.5s-2.4 5.5-5.5 5.5z" fill="#262626"/></g><g><path d="m226.1 356.5h-5c-3.1 0-5.5-2.5-5.5-5.5 0-3.1 2.5-5.5 5.5-5.5h5c3.1 0 5.5 2.5 5.5 5.5.1 3-2.4 5.5-5.5 5.5z" fill="#262626"/></g><g><path d="m388.2 512h-125.8c-3 0-5.5-2.5-5.5-5.5s2.5-5.5 5.5-5.5h125.8c7.4 0 13.5-6.1 13.5-13.5v-251.4c0-8.3-2.2-16.4-6.3-23.6l-19.9-30.9c-4.4-6.8-5.5-15.2-3.2-22.9l7.9-25.9c.7-2.2 1.1-4.5 1.3-6.8h-111.6c.1 2.9.6 5.9 1.6 8.7l7.9 23.6c2.7 8 1.6 16.7-3 23.8l-19.2 29.6s0 .1-.1.1c-5.3 7.8-8.1 17-8.1 26.4v32.1c0 3-2.5 5.5-5.5 5.5s-5.5-2.5-5.5-5.5v-32.1c0-11.7 3.4-22.9 10-32.6l19.2-29.5c2.8-4.3 3.4-9.5 1.8-14.3l-7.9-23.6c-2-5.8-2.6-12.2-1.9-18.3.3-2.8 2.7-4.9 5.5-4.9h122.3c2.9 0 5.2 2.2 5.5 5 .5 5.4-.1 10.8-1.6 16l-7.9 25.9c-1.4 4.7-.7 9.7 1.9 13.8l19.9 31c0 .1.1.1.1.2 5.1 8.9 7.9 19 7.9 29.2v251.4c0 13.5-11 24.5-24.6 24.5z" fill="#262626"/></g><g><g><path d="m354.4 237.5h-55.6c-3 0-5.5-2.5-5.5-5.5s2.5-5.5 5.5-5.5h55.6c3 0 5.5 2.5 5.5 5.5s-2.5 5.5-5.5 5.5z" fill="#262626"/></g><g><path d="m364.4 266h-78.2c-3 0-5.5-2.5-5.5-5.5s2.5-5.5 5.5-5.5h78.2c3 0 5.5 2.5 5.5 5.5s-2.4 5.5-5.5 5.5z" fill="#262626"/></g><g><path d="m364.4 294.6h-78.2c-3 0-5.5-2.5-5.5-5.5s2.5-5.5 5.5-5.5h78.2c3 0 5.5 2.5 5.5 5.5s-2.4 5.5-5.5 5.5z" fill="#262626"/></g></g><g><path d="m326.3 75.6c-3 0-5.5-2.5-5.5-5.5v-23.3c0-3 2.5-5.5 5.5-5.5s5.5 2.5 5.5 5.5v23.3c.1 3.1-2.4 5.5-5.5 5.5z" fill="#262626"/></g><g><path d="m350.4 75.6c-3 0-5.5-2.5-5.5-5.5v-23.3c0-3 2.5-5.5 5.5-5.5s5.5 2.5 5.5 5.5v23.3c0 3.1-2.5 5.5-5.5 5.5z" fill="#262626"/></g><g><path d="m302 75.6c-3 0-5.5-2.5-5.5-5.5v-23.3c0-3 2.5-5.5 5.5-5.5s5.5 2.5 5.5 5.5v23.3c.1 3.1-2.4 5.5-5.5 5.5z" fill="#262626"/></g><g><path d="m170 317.1c-4.1-16.1-43.2-48.5-43.2-48.5s-19.1 47.1-15.1 63.2c4.1 16.1 20.4 25.9 36.5 21.8 16.1-4 25.8-20.4 21.8-36.5z" fill="#f9ce6e"/><path d="m140.8 360.1c-15.9 0-30.5-10.8-34.5-26.9-4.4-17.4 13.3-61.7 15.3-66.7.7-1.6 2.1-2.9 3.8-3.3s3.5 0 4.9 1.1c4.2 3.4 40.7 34.1 45.1 51.4 4.8 19-6.8 38.4-25.8 43.2-3 .8-5.9 1.2-8.8 1.2zm-11.7-82.2c-6.7 18-14.3 43.5-12 52.6 3.3 13.1 16.7 21.1 29.8 17.8s21.1-16.7 17.8-29.8c-2.4-9.2-21.2-28-35.6-40.6z" fill="#262626"/></g></g></svg>