<svg height="512pt" viewBox="0 -24 512.00033 512" width="512pt" xmlns="http://www.w3.org/2000/svg"><g fill="#ff9a5c"><path d="m353.765625 158.875c13.1875-.519531 26.867187-.855469 40.101563 1.324219 29.589843 4.878906 55.761718 17.449219 73.53125 42.230469 3.59375 5.011718 10.570312 6.164062 15.582031 2.570312 4.578125-3.28125 5.929687-9.386719 3.398437-14.238281-8.109375-15.527344-18.0625-28.699219-32.089844-39.421875-28.253906-21.597656-64.457031-33.292969-99.84375-34.839844zm0 0"/><path d="m296.9375 199.132812c2.757812.375 6.132812.835938 10.019531 1.523438 12.394531 2.195312 24.492188 5.289062 36.574219 8.800781 32.355469 9.398438 63.300781 26.785157 86.695312 51.140625 11.195313 11.65625 19.308594 25.566406 26.140626 40.121094 2.621093 5.585938 9.273437 7.988281 14.859374 5.367188 5.257813-2.46875 7.675782-8.558594 5.75-13.921876-6.347656-17.679687-14.371093-34.207031-26.105468-48.980468-22.507813-28.335938-52.71875-49.183594-85.3125-64.304688-8.84375-4.105468-17.914063-7.578125-27.105469-10.808594zm0 0"/><path d="m378.125 48.21875c13.1875.519531 26.871094.855469 40.101562-1.328125 29.589844-4.875 55.761719-17.445313 73.53125-42.230469 3.59375-5.011718 10.570313-6.160156 15.582032-2.566406 4.578125 3.28125 5.933594 9.382812 3.398437 14.234375-8.109375 15.53125-18.0625 28.703125-32.089843 39.425781-28.253907 21.59375-64.457032 33.289063-99.84375 34.835938zm0 0"/><path d="m155.261719 340.886719c70.378906 50.023437 93.253906-29.839844 159.449219-29.839844 20.566406-1.144531 37.597656 15.191406 37.597656 35.503906 0 11.746094-5.699219 22.15625-14.480469 28.628907-5.820313 4.292968-4.933594 10.203124-5.519531 16.496093-1.5625 16.828125-15.078125 30.425781-31.902344 32.0625-7.308594.707031-13.109375 4.691407-14.558594 12.085938-2.582031 13.167969-12.453125 23.65625-25 27.3125-3.386718.988281-6.925781 1.328125-10.453125 1.277343-92.507812-1.339843-118.519531-59.882812-118.519531-59.882812zm0 0"/></g><path d="m190.796875 252.167969h.011719c8.386718-15.015625 21.5625-27.40625 38-34.632813l-77.8125-204.914062c-59.425782 18.25-108.304688 61.863281-133.183594 117.996094v101.949218l66.398438 38.65625zm0 0" fill="#ffbd73"/><path d="m365.558594 178.878906c4.191406 1.941406 8.339844 3.984375 12.441406 6.121094-8.175781 8.015625-17.09375 15.289062-26.742188 21.753906-1.75 1.175782-3.527343 2.316406-5.324218 3.4375-.800782-.242187-1.597656-.503906-2.402344-.734375-12.082031-3.511719-24.179688-6.605469-36.574219-8.800781-3.882812-.6875-7.261719-1.148438-10.019531-1.523438l41.515625-31.0625c9.191406 3.230469 18.261719 6.703126 27.105469 10.808594zm0 0" fill="#ff7e27"/><path d="m416.839844 130.078125c-2.519532 5.316406-5.308594 10.621094-8.394532 15.871094-3.070312 5.226562-6.371093 10.257812-9.867187 15.105469-1.5625-.304688-3.128906-.59375-4.710937-.851563-13.234376-2.183594-26.914063-1.847656-40.101563-1.328125l.679687-42.371094c21.128907.921875 42.546876 5.464844 62.394532 13.574219zm0 0" fill="#ff7e27"/><path d="m418.226562 46.890625c7.066407-1.164063 13.933594-2.773437 20.542969-4.875-.75 11.527344-2.308593 24.378906-5.183593 37.902344-17.652344 6.292969-36.328126 9.867187-54.78125 10.671875l-.679688-42.371094c13.1875.519531 26.871094.855469 40.101562-1.328125zm0 0" fill="#ff7e27"/><path d="m147.820312 49.554688c0 68.015624 31.625 128.648437 80.988282 167.980468 6.554687-2.890625 13.621094-4.953125 21.117187-6.035156 140.894531-20.398438 157.933594-134.589844 158.503907-184.664062.148437-12.953126-10.273438-23.542969-23.234376-23.542969h-172.03125c-21.5625 0-42.449218 3.261719-62.167968 9.328125-2.097656 12-3.175782 24.339844-3.175782 36.933594zm0 0" fill="#ff9a5c"/><path d="m150.996094 12.621094 5.550781 14.617187c-43.09375 22.375-77.832031 58.945313-97.527344 103.378907-16.214843 36.589843-21.4375 77.554687-15.238281 117.066406l-25.96875-15.117188v-101.949218c15.457031-34.871094 40.472656-65.277344 71.488281-87.441407 18.609375-13.300781 39.410157-23.710937 61.695313-30.554687zm0 0" fill="#ff9a5c"/><path d="m0 215.039062c.0859375 46.039063 14.878906 88.625 39.960938 123.300782 83.65625 19.792968 143.074218-23.109375 144.152343-23.894532v-.011718c-6.734375-21.605469-3.597656-43.898438 6.683594-62.261719-1.554687-.140625-138.105469-12.234375-172.984375-121.554687-11.488281 25.894531-17.8632812 54.457031-17.8125 84.421874zm0 0" fill="#ff9a5c"/><path d="m241.253906 341.8125c22.851563 23.03125 26.003906 60.011719 6.546875 86.6875-11.921875 16.335938-30.710937 26.429688-50.769531 27.445312-49.640625-16.523437-65.15625-51.417968-65.15625-51.417968l23.386719-63.640625c37.609375 26.730469 61.652343 16.367187 85.992187.925781zm0 0" fill="#ff7e27"/><path d="m15.722656 135.503906c.675782-1.640625 1.375-3.269531 2.09375-4.886718 6.105469 19.136718 15.332032 35.285156 26.398438 48.921874-1.984375 11.550782-3.027344 23.410157-3.007813 35.5.082031 45.933594 15.648438 91.890626 43.863281 128.503907-13.992187.070312-29.105468-1.417969-45.109374-5.203125-6.269532-8.671875-11.894532-17.832032-16.8125-27.421875-27.691407-54.019531-30.652344-119.261719-7.425782-175.414063zm0 0" fill="#ff7e27"/><path d="m39.960938 338.339844c34.484374 47.710937 88.414062 80.445312 150.160156 86.613281 1.195312.113281 2.382812.179687 3.566406.179687 11.449219 0 22.316406-5.488281 29.148438-14.851562 11.132812-15.257812 8.652343-36.570312-5.761719-48.789062-14.878907-12.636719-24.402344-26.003907-30.109375-39.335938-1.09375-2.554688-2.035156-5.128906-2.851563-7.710938zm0 0" fill="#ffbd73"/><path d="m39.960938 338.339844 36.945312-6.125c1.386719 2.066406 2.804688 4.109375 4.261719 6.125 30.308593 41.9375 75.648437 72.296875 128.097656 83.222656-1.199219.574219-2.429687 1.085938-3.683594 1.527344-.011719.003906-.023437.007812-.035156.011718-4.875 1.785157-10.273437 2.363282-15.429687 1.851563-28.941407-2.890625-56.167969-11.617187-80.480469-24.992187-27.21875-14.976563-51.363281-36.285157-69.675781-61.621094zm0 0" fill="#ff9a5c"/><path d="m254.367188 3.292969c-21.5625 0-42.445313 3.261719-62.164063 9.332031-15.324219 4.703125-29.941406 11.109375-43.636719 18.972656.53125-6.410156 1.339844-12.738281 2.429688-18.972656 7.398437-2.277344 14.953125-4.15625 22.652344-5.621094 13.019531-2.46875 26.265624-3.710937 39.519531-3.710937zm0 0" fill="#ff7e27"/><path d="m317.675781 79.824219c4.265625 0 7.726563-3.460938 7.726563-7.726563v-17.375c0-4.269531-3.460938-7.726562-7.726563-7.726562-4.269531 0-7.726562 3.457031-7.726562 7.726562v17.375c0 4.265625 3.457031 7.726563 7.726562 7.726563zm0 0" fill="#333941"/><path d="m293.085938 107.257812h14.667968c4.269532 0 7.726563-3.460937 7.726563-7.726562 0-4.269531-3.457031-7.726562-7.726563-7.726562h-14.667968c-4.269532 0-7.726563 3.457031-7.726563 7.726562 0 4.265625 3.457031 7.726562 7.726563 7.726562zm0 0" fill="#ff5f7f"/></svg>