<svg id="flat" height="512" viewBox="0 0 512 512" width="512" xmlns="http://www.w3.org/2000/svg"><path d="m480 448c0 30.928-29.726 56-96 56s-96-25.072-96-56v-247.883c0-20.064 64-108.052 64-128.117v-64h72v64c0 19.2 56 107.357 56 126.553z" fill="#301e07"/><path d="m392 144c27.018-1.237 45.615-14.884 53.32-21.569-11.451-22.161-21.32-42.373-21.32-50.431v-64h-72v64c0 8.139-10.532 27.456-23.05 48.881 6.114 5.578 29.15 24.671 63.05 23.119z" fill="#f47f31"/><path d="m352 8h72v32h-72z" fill="#8f4c2e"/><path d="m480 240c0 30.928-29.726 56-96 56s-96-25.072-96-56v160c0 30.928 29.726 56 96 56s96-25.072 96-56z" fill="#eadeca"/><circle cx="388" cy="372" fill="#f47f31" r="36"/><path d="m304 320h16v48h-16z" fill="#f47f31"/><ellipse cx="36" cy="484" fill="#f9c050" rx="28" ry="20"/><ellipse cx="135" cy="484" fill="#db9e33" rx="28" ry="20"/><ellipse cx="234" cy="484" fill="#f9c050" rx="28" ry="20"/><ellipse cx="188" cy="452" fill="#db9e33" rx="28" ry="20"/><ellipse cx="124" cy="444" fill="#f9c050" rx="28" ry="20"/><ellipse cx="172" cy="380" fill="#f9c050" rx="28" ry="20"/><ellipse cx="76" cy="380" fill="#db9e33" rx="28" ry="20"/><g opacity=".3"><path d="m384 8h-32v64c0 20.065-64 108.053-64 128.117v247.883c0 21.864 14.879 40.788 47 50.01v-264.99a49.863 49.863 0 0 1 3.16-17.469l45.84-144.551z" fill="#fcfcfc"/></g></svg>