<svg id="Layer_1" enable-background="new 0 0 512 512" height="512" viewBox="0 0 512 512" width="512" xmlns="http://www.w3.org/2000/svg"><g><path d="m301.788 206.805c4.177 80.04-80.538 203.779-134.457 208.163-52.468 4.267-151.215-112.998-155.392-193.038s59.278-110.834 139.318-115.01c80.04-4.177 146.355 19.846 150.531 99.885z" fill="#f5253c"/><g fill="#f0db16"><path d="m163.117 172.22c.185 3.54-1.945 17.873-5.486 18.058-3.54.185-7.151-13.848-7.335-17.388-.185-3.54 2.536-6.56 6.076-6.745 3.541-.186 6.56 2.535 6.745 6.075z"/><path d="m66.387 201.274c.185 3.54-1.945 17.873-5.486 18.058-3.54.185-7.151-13.848-7.335-17.388s2.536-6.56 6.076-6.745 6.56 2.535 6.745 6.075z"/><path d="m257.393 184.324c.185 3.54-1.945 17.873-5.486 18.058-3.54.185-7.151-13.848-7.335-17.389-.185-3.54 2.536-6.56 6.076-6.745s6.56 2.535 6.745 6.076z"/><path d="m210.749 228.131c.185 3.54-1.945 17.873-5.486 18.058-3.54.185-7.151-13.848-7.335-17.388-.185-3.54 2.536-6.56 6.076-6.745 3.541-.186 6.561 2.535 6.745 6.075z"/><path d="m120.101 235.194c.185 3.54-1.945 17.873-5.486 18.058-3.54.185-7.151-13.848-7.335-17.389-.185-3.54 2.536-6.56 6.076-6.745s6.56 2.535 6.745 6.076z"/><path d="m148.611 360.617c.185 3.54-1.945 17.873-5.486 18.058-3.54.185-7.151-13.848-7.335-17.388-.185-3.54 2.536-6.56 6.076-6.745 3.54-.186 6.56 2.534 6.745 6.075z"/><path d="m215.842 339.831c.185 3.54-1.945 17.873-5.486 18.058-3.54.185-7.151-13.848-7.335-17.388-.185-3.54 2.536-6.56 6.076-6.745s6.56 2.535 6.745 6.075z"/><path d="m167.278 290.288c.185 3.54-1.945 17.873-5.486 18.057-3.54.185-7.151-13.848-7.335-17.388-.185-3.54 2.536-6.56 6.076-6.745 3.541-.185 6.561 2.535 6.745 6.076z"/><path d="m90.735 298.138c.185 3.54-1.945 17.873-5.486 18.057-3.54.185-7.151-13.848-7.335-17.388-.185-3.54 2.536-6.56 6.076-6.745s6.56 2.536 6.745 6.076z"/><path d="m249.778 277.335c.185 3.54-1.945 17.873-5.486 18.057-3.54.185-7.151-13.848-7.335-17.388-.185-3.54 2.536-6.56 6.076-6.745s6.56 2.535 6.745 6.076z"/></g><path d="m300.698 230.475c-61.197-16.16-104.337 17.957-120.861 76.099l-.008.012c-9.234 32.91-10.949 68.985-7.399 103.201-50.673-34.004-108.718-116.552-111.899-177.517-4.177-80.04 59.278-110.834 139.318-115.011 13.483-.704 26.562-.584 39.035.446-24.762-9.513-55.057-12.486-87.627-10.786-80.04 4.177-143.495 34.972-139.318 115.011 4.177 80.04 102.924 197.304 155.392 193.038 3.605-.293 5.602-.729 9.306-1.848 49.063-14.816 114.203-109.021 124.061-182.645z" opacity=".2"/><path d="m424.998 237.671c39.952-2.93 75.258 34.494 75.258 34.494s-29.469 42.174-69.42 45.104-55.245-35.961-55.245-35.961 9.455-40.708 49.407-43.637z" fill="#407a26"/><path d="m396.378 218.752c-12.959-37.905-61.224-55.724-61.224-55.724s-27.255 43.637-14.296 81.542 54.732 36.737 54.732 36.737 33.746-24.65 20.788-62.555z" fill="#407a26"/><path d="m370.476 215.587c21.704-33.67 72.839-39.345 72.839-39.345s15.947 48.915-5.757 82.586c-21.704 33.67-61.967 22.479-61.967 22.479s-26.819-32.05-5.115-65.72z" fill="#57a633"/><path d="m444.003 419.796c-38.234 62.253-180.686 117.023-219.338 80.4-30.962-34.992-32.647-90.347-31.498-135.786 10.332-162.027 128.63-165.23 233.663-68.048 34.902 34.058 45.974 79.153 17.173 123.434z" fill="#f5253c"/><path d="m377.732 427.625c11.673-10.298 22.264-21.07 30.885-31.785 8.429 10.412 27.816 18.405 39.333 17.276 1.873-3.365 3.509-6.702 4.941-10.006-8.618 1.198-24.371.559-38.275-15.178 6.571-8.911 14.665-23.984 17.703-33.648 11.023 6.307 21.152 6.741 27.654 6.007-.33-3.248-.866-6.464-1.606-9.648-5.337.524-13.981-.033-23.427-6.2 15.885-59.151-103.564-127.696-142.524-94.347-7.909-6.079-11.273-13.122-12.688-17.789-3.243.45-6.44 1.082-9.596 1.908 1.619 5.826 5.433 14.44 14.321 22.005-7.611 6.627-17.06 18.2-24.161 30.421-20.16-7.731-25.678-23.495-27.178-30.936-2.627 2.582-5.18 5.38-7.638 8.441 2.912 10.238 15.075 25.795 30.112 31.136-6.193 12.229-11.627 26.424-16.177 41.501-22.745-4.085-33.135-16.424-37.722-25.079-.781 2.731-1.97 7.327-3.153 12.644 8.437 10.717 21.57 18.644 38.167 21.869-4.016 14.787-7.191 30.177-9.414 45.203-14.149.169-26.559-7.554-34.614-14.276-.077 4.117-.08 8.249.014 12.361 8.093 5.679 20.241 11.467 33.285 11.707-2.086 17.157-2.867 33.544-2.163 47.662-9.242 1.348-17.8-.793-24.729-3.843.895 3.989 1.866 7.862 2.938 11.583 6.706 2.075 14.345 3.141 22.559 2.031 3.734 34.423 15.512 42.886 47.93 32.884 2.335 7.578 6.273 13.871 10.702 18.989 3.832-.53 7.775-1.204 11.772-2.009-5.367-4.936-10.61-11.625-13.214-20.196 13.178-5.041 27.887-12.506 42.804-21.593 4.704 10.46 14.312 19.746 22.995 25.183 3.7-1.571 7.384-3.22 11.044-4.934-9.132-4.817-20.407-13.001-25.65-25.512 12.74-8.238 25.442-17.542 37.283-27.41 8.88 13.23 19.207 21.884 33.243 26.634 3.386-2.465 6.668-4.998 9.83-7.578-9.939-1.559-24.042-7.297-35.586-25.478z" fill="#ff8c97"/><path d="m435.397 305.512c6.284 22.17 4.198 46.66-8.58 72.128-29.233 62.236-144.01 127.878-203.529 120.925.459.544.904 1.097 1.377 1.632 38.652 36.624 181.105-18.146 219.338-80.4 26.291-40.423 19.351-81.521-8.606-114.285z" opacity=".2"/><path d="m381.655 345.18c-31.399 49.558-125.628 135.876-132.394 131.252-6.439-4.401 31.742-126.322 63.141-175.88s43.685-11.294 51.891-5.934c8.452 5.521 48.761 1.004 17.362 50.562z" fill="#f5253c"/><path d="m182.071 64.555c37.959-20.758 89.409.227 89.409.227s-10.093 54.641-48.051 75.399-70.394-10.625-70.394-10.625-8.922-44.242 29.036-65.001z" fill="#407a26"/><path d="m86.54 154.987c-41.52-12.163-63.062-63.382-63.062-63.382s45.774-31.5 87.293-19.338 42.263 57.289 42.263 57.289-24.975 37.593-66.494 25.431z" fill="#407a26"/><path d="m88.033 100.519c-20.758-37.958.227-89.409.227-89.409s54.641 10.093 75.399 48.051-10.625 70.394-10.625 70.394-44.242 8.923-65.001-29.036z" fill="#57a633"/><path d="m127.604 63.061c12.162-41.519 63.382-63.061 63.382-63.061s31.5 45.774 19.338 87.293-57.289 42.263-57.289 42.263-37.593-24.975-25.431-66.495z" fill="#78c454"/></g></svg>