<svg id="Layer_1" enable-background="new 0 0 256 256" height="512" viewBox="0 0 256 256" width="512" xmlns="http://www.w3.org/2000/svg"><g id="Layer_51"><g><path d="m38.4 79.5h160.2c6 0 10.8 4.8 10.8 10.8v15.7c0 6-4.8 10.8-10.8 10.8h-160.2c-6 0-10.8-4.8-10.8-10.8v-15.7c0-6 4.8-10.8 10.8-10.8z" fill="#f98fa6"/><g fill="#edf4fc"><path d="m196.8 79.5c-1.9-3.6-5.2-6.9-9.7-9.9-5.2-3.3-9.1-8.3-11-14.1-1.4-4.6-6.3-8.5-12.2-11.5-5.7-3-10.2-7.8-12.8-13.7-2.9-6-16.2-10.8-32.6-10.8s-30.3 5-32.8 11.3c-2.5 5.8-7 10.5-12.6 13.2-5.9 3-10.7 6.9-12.2 11.5-2 5.8-5.8 10.8-11 14.1-4.5 3-7.8 6.4-9.7 9.9z"/><path d="m178.9 212.7h26.7c3.9 0 7.1 3.2 7.1 7.1v26.6c0 3.9-3.2 7.1-7.1 7.1h-26.7c-3.9 0-7.1-3.2-7.1-7.1v-26.6c0-3.9 3.1-7.1 7.1-7.1z"/><path d="m219.7 212.7h26.7c3.9 0 7.1 3.2 7.1 7.1v26.6c0 3.9-3.2 7.1-7.1 7.1h-26.7c-3.9 0-7.1-3.2-7.1-7.1v-26.7c0-3.9 3.2-7 7.1-7z"/><path d="m199.3 172h26.7c3.9 0 7.1 3.2 7.1 7.1v26.7c0 3.9-3.1 7-7 7h-26.8c-3.9 0-7.1-3.2-7.1-7.1v-26.5c0-4.1 3.2-7.2 7.1-7.2z"/></g><path d="m171.8 246.4v-26.7c0-3.9 3.2-7 7.1-7h20.4c-3.9.1-7-3-7.1-6.9v-.1-26.7c0-3.9 3.2-7.1 7.1-7.1h8.1c.2-2.9.3-5.8.3-8.8 0-15.8-2.3-31.5-6.9-46.6-.7.1-1.4.2-2.1.2h-160.3c-.7 0-1.4-.1-2.1-.2-8.9 29.4-9.2 60.7-.9 90.2 2.5 8.9 1.8 18.3-1.9 26.7-.7 1.8-1.1 3.7-1.1 5.6.1 8 6.6 14.3 14.5 14.3h132c-4 .2-7.1-3-7.1-6.9z" fill="#fc657e"/><path d="m198.6 116.8h-160.2c-.7 0-1.4-.1-2.1-.2-4.6 15.1-7 30.8-6.9 46.6 0 9.8.9 19.7 2.7 29.3h160.1v-13.4c0-3.9 3.2-7.1 7.1-7.1h8.1c.2-2.9.3-5.8.3-8.8 0-15.8-2.3-31.5-6.9-46.6-.8.1-1.5.2-2.2.2z" fill="#f5c84c"/><path d="m245.5 134.2c-3.1-.6-5.6-3-6.2-6.1 0-.1-.3-.1-.3 0-.6 3.1-3.1 5.5-6.2 6.1-.1 0-.1.2 0 .3 3.1.6 5.6 3 6.2 6.1 0 .1.3.1.3 0 .6-3.1 3.1-5.5 6.2-6.1.1-.1.1-.3 0-.3z" fill="#fc657e"/><path d="m3.2 52.5h2.3v2.3c0 1.7 1.4 3.2 3.1 3.2h.1c1.7 0 3.1-1.4 3.2-3.1v-2.4h2.3c1.7 0 3.2-1.4 3.2-3.1v-.1c0-1.7-1.4-3.1-3.1-3.2h-2.4v-2.3c0-1.7-1.4-3.2-3.1-3.2h-.1c-1.7 0-3.1 1.4-3.2 3.1v2.4h-2.3c-1.7 0-3.2 1.4-3.2 3.1v.1c-.1 1.7 1.3 3.1 3 3.2z" fill="#87d147"/><circle cx="12.9" cy="133.9" fill="#f5c84c" r="3.4"/><circle cx="171.9" cy="3.4" fill="#70d6f9" r="3.4"/><path d="m203.3 40.2c4.5-.8 8-4.3 8.9-8.7 0-.2.4-.2.4 0 .9 4.4 4.4 7.9 8.9 8.7.2 0 .2.3 0 .4-4.5.8-8 4.3-8.9 8.7 0 .2-.4.2-.4 0-.9-4.4-4.4-7.9-8.9-8.7-.2-.1-.2-.4 0-.4z" fill="#f5c84c"/><path d="m198.6 119.3h-160.2c-7.4 0-13.3-6-13.3-13.3v-15.7c0-7.4 6-13.3 13.3-13.3h160.2c7.4 0 13.3 6 13.3 13.3v15.7c0 7.3-5.9 13.3-13.3 13.3zm-160.2-37.3c-4.6 0-8.3 3.7-8.3 8.3v15.7c0 4.6 3.7 8.3 8.3 8.3h160.2c4.6 0 8.3-3.7 8.3-8.3v-15.7c0-4.6-3.7-8.3-8.3-8.3z"/><path d="m196.8 82h-156.6c-1.4 0-2.5-1.1-2.5-2.5 0-.4.1-.8.3-1.2 2-3.9 5.6-7.5 10.5-10.9 4.7-3 8.2-7.5 10-12.8 1.5-4.8 6-9.2 13.4-13 5.1-2.5 9.2-6.7 11.5-11.9 3-7.5 17.8-12.9 35.1-12.9 17 0 31.3 5 34.8 12.2 2.4 5.4 6.6 9.8 11.7 12.5 7.4 3.8 11.9 8.1 13.4 13 1.8 5.3 5.3 9.8 10 12.8 5 3.3 8.5 7 10.5 10.9.6 1.2.2 2.7-1.1 3.4-.2.3-.6.4-1 .4zm-151.8-5h147c-1.9-2.1-4-3.9-6.3-5.4-5.7-3.6-9.9-9.1-12-15.5-1.1-3.4-4.8-6.9-10.9-10-6.2-3.3-11.1-8.5-14-14.8-2.2-4.6-14.2-9.4-30.3-9.4-16.4 0-28.6 5-30.5 9.7-2.7 6.4-7.6 11.5-13.8 14.5-6.1 3.1-9.8 6.5-10.9 10-2.1 6.4-6.4 11.8-12 15.5-2.3 1.5-4.5 3.3-6.3 5.4z"/><path d="m205.5 256h-26.7c-5.3 0-9.6-4.3-9.6-9.6v-26.7c0-5.3 4.3-9.6 9.6-9.5h26.7c5.3 0 9.6 4.3 9.6 9.5v26.7c0 5.3-4.3 9.6-9.6 9.6zm-26.6-40.8c-2.5 0-4.6 1.9-4.6 4.4v.1 26.7c0 2.5 2.1 4.6 4.6 4.6h26.7c2.5 0 4.6-2.1 4.6-4.6v-26.7c0-2.5-2-4.5-4.5-4.5h-.1z"/><path d="m246.4 256h-26.7c-5.3 0-9.6-4.3-9.6-9.6v-26.7c0-5.3 4.3-9.6 9.6-9.5h26.7c5.3 0 9.6 4.3 9.6 9.5v26.7c0 5.3-4.3 9.6-9.6 9.6zm-26.7-40.8c-2.5 0-4.6 1.9-4.6 4.4v.1 26.7c0 2.5 2.1 4.6 4.6 4.6h26.7c2.5 0 4.6-2.1 4.6-4.6v-26.7c0-2.5-2-4.5-4.5-4.5h-.1z"/><path d="m226 215.2h-26.7c-5.3 0-9.6-4.2-9.6-9.5v-26.7c0-5.3 4.3-9.6 9.6-9.6h26.7c5.3 0 9.6 4.3 9.6 9.6v26.7c-.1 5.3-4.4 9.5-9.6 9.5zm-26.7-40.7c-2.5 0-4.6 2.1-4.6 4.6v26.7c0 2.5 2 4.5 4.5 4.5h.1 26.7c2.5.1 4.5-1.9 4.6-4.4v-.1-26.7c0-2.5-2.1-4.6-4.6-4.6z"/><path d="m178.9 256h-132c-4.5 0-8.8-1.7-12-4.9-3.2-3.1-5-7.4-5-11.9 0-2.3.4-4.5 1.3-6.6 3.5-7.9 4.2-16.8 1.8-25.1-8.5-30-8.2-61.8.9-91.7.4-1.2 1.6-2 2.9-1.7.5.1 1.1.2 1.6.2h160.2c.5 0 1.1-.1 1.6-.2 1.3-.2 2.5.5 2.9 1.7 4.7 15.3 7.1 31.3 7 47.3 0 2.7-.1 5.6-.3 8.9-.1 1.3-1.2 2.4-2.5 2.4h-8.1c-2.5 0-4.6 2.1-4.6 4.6v26.7c0 2.5 2 4.5 4.5 4.5h.1c1.4 0 2.5 1.1 2.5 2.5s-1.1 2.5-2.5 2.5h-20.4c-2.5 0-4.6 1.9-4.6 4.4v.1 26.7c0 2.5 2.1 4.6 4.6 4.6 1.4 0 2.5 1.1 2.5 2.5s-1.1 2.5-2.4 2.5zm-140.8-136.7c-8.2 28.4-8.3 58.4-.3 86.8 2.6 9.4 1.9 19.5-2 28.4-.6 1.5-.9 3-.9 4.6 0 3.1 1.3 6.2 3.5 8.3 2.3 2.2 5.3 3.5 8.5 3.5h123.5c-.8-1.4-1.2-3-1.2-4.6v-26.7c0-5.3 4.3-9.6 9.6-9.5h12c-.7-1.4-1.1-2.9-1.1-4.5v-26.7c0-5.3 4.3-9.6 9.6-9.6h5.7c.1-2.3.1-4.3.1-6.3 0-14.8-2-29.6-6.2-43.9-.1 0-.2 0-.3 0h-160.2c-.1.2-.2.2-.3.2z"/><path d="m156 174.1c-1.1 0-2.1-.7-2.4-1.8l-7.5-24.2-7.5 24.2c-.4 1.3-1.8 2.1-3.1 1.7s-2.1-1.8-1.7-3.1l9.8-31.9c.4-1.3 1.8-2.1 3.1-1.7.8.2 1.4.9 1.7 1.7l9.8 31.9c.4 1.3-.3 2.7-1.7 3.1 0 0-.3.1-.5.1z"/><path d="m151.7 165.6h-11.3c-1.4 0-2.5-1.1-2.5-2.5s1.1-2.5 2.5-2.5h11.3c1.4 0 2.5 1.1 2.5 2.5s-1.1 2.5-2.5 2.5z"/><path d="m122.1 174.1h-5.6c-5.3 0-9.5-4.3-9.5-9.5v-17.9c0-5.3 4.3-9.5 9.5-9.5h5.6c5.3 0 9.5 4.3 9.5 9.5 0 1.4-1.1 2.5-2.5 2.5s-2.5-1.1-2.5-2.5c0-2.5-2-4.5-4.5-4.5h-5.6c-2.5 0-4.5 2-4.5 4.5v17.9c0 2.5 2 4.5 4.5 4.5h5.6c2.5 0 4.5-2 4.5-4.5v-4.6h-4.5c-1.4 0-2.5-1.1-2.5-2.5s1.1-2.5 2.5-2.5h7c1.4 0 2.5 1.1 2.5 2.5v7c0 5.3-4.2 9.6-9.5 9.6z"/><g><path d="m164.5 174.1c-1.4 0-2.5-1.1-2.5-2.5v-31.9c0-1.4 1.1-2.5 2.5-2.5h12.7c5.3 0 9.5 4.3 9.5 9.6 0 5.2-4.3 9.5-9.5 9.5h-10.2v15.4c0 1.3-1.1 2.4-2.5 2.4zm2.5-22.9h10.2c2.5 0 4.5-2.1 4.5-4.6s-2-4.5-4.5-4.5h-10.2z"/><path d="m184.2 174.1c-.9 0-1.8-.5-2.2-1.3l-9.8-17.9c-.7-1.2-.2-2.7 1-3.4s2.7-.2 3.4 1l9.8 17.9c.7 1.2.2 2.7-1 3.4-.4.2-.8.3-1.2.3z"/></g><path d="m65.5 174.1h-5.6c-5.3 0-9.5-4.3-9.5-9.5 0-1.4 1.1-2.5 2.5-2.5s2.5 1.1 2.5 2.5c0 2.5 2 4.5 4.5 4.5h5.6c2.5 0 4.5-2 4.5-4.5v-3.8c0-2.5-2-4.5-4.5-4.5h-5.6c-5.3 0-9.5-4.2-9.6-9.5 0-5.3 4.2-9.5 9.5-9.6h.1 5.6c5.3 0 9.5 4.3 9.5 9.5 0 1.4-1.1 2.5-2.5 2.5s-2.5-1.2-2.5-2.5c0-2.5-2-4.5-4.5-4.5h-5.6c-2.5 0-4.5 2-4.6 4.5 0 2.5 2 4.5 4.5 4.6h5.6c5.3 0 9.5 4.3 9.5 9.5v3.8c.1 5.2-4.2 9.5-9.4 9.5z"/><path d="m93.4 174.1h-5.6c-5.3 0-9.5-4.3-9.5-9.5v-24.9c0-1.4 1.1-2.5 2.5-2.5s2.5 1.1 2.5 2.5v24.9c0 2.5 2 4.5 4.5 4.5h5.6c2.5 0 4.5-2 4.5-4.5v-24.9c0-1.4 1.1-2.5 2.5-2.5s2.5 1.1 2.5 2.5v24.9c.1 5.2-4.2 9.5-9.5 9.5z"/><path d="m192.2 195h-160.1c-1.2 0-2.2-.9-2.5-2-1.8-9.8-2.7-19.8-2.7-29.8-.1-16 2.3-32 7-47.3.4-1.2 1.6-2 2.9-1.7.5.1 1.1.2 1.6.2h160.2c.5 0 1.1-.1 1.6-.2 1.3-.2 2.5.5 2.9 1.7 4.7 15.3 7.1 31.3 7 47.3 0 2.7-.1 5.6-.3 8.9-.1 1.3-1.2 2.4-2.5 2.4h-8.1c-2.5 0-4.6 2.1-4.6 4.6v13.4c.1 1.4-1 2.5-2.4 2.5zm-158-5h155.5v-10.9c0-5.3 4.3-9.6 9.6-9.6h5.7c.1-2.3.1-4.3.1-6.3 0-14.8-2-29.6-6.2-43.9-.1 0-.2 0-.3 0h-160.2c-.1 0-.2 0-.3 0-4.2 14.3-6.3 29-6.2 43.9 0 9 .7 17.9 2.3 26.8z"/></g></g></svg>