<svg height="512" viewBox="0 0 64 64" width="512" xmlns="http://www.w3.org/2000/svg"><g id="Layer_31" data-name="Layer 31"><path d="m45 10a3 3 0 0 0 -3-3 32.129 32.129 0 0 0 -3.982.248 49.306 49.306 0 0 0 -24.98 10.66l-.674.547a45.6 45.6 0 0 0 -7.737 8.045 13.132 13.132 0 0 0 -2.627 7.878 13.134 13.134 0 0 0 6.618 11.4l.382.222a17.073 17.073 0 0 0 12.071 5 13.866 13.866 0 0 0 12.629-8.129 179.6 179.6 0 0 0 10.178-28.606z" fill="#c9c9c9"/><path d="m45 10a3 3 0 0 0 -3-3 32.129 32.129 0 0 0 -3.982.248 49.32 49.32 0 0 0 -9.7 2.228 49.3 49.3 0 0 0 -10.284 6.432l-.674.547a45.6 45.6 0 0 0 -7.733 8.045 13.134 13.134 0 0 0 3.991 19.284l.382.216a17.073 17.073 0 0 0 12.071 5 13.791 13.791 0 0 0 2.564-.248 13.839 13.839 0 0 0 5.06-5.881 179.6 179.6 0 0 0 10.183-28.606z" fill="#ddd"/><path d="m19.77 26.2a44.293 44.293 0 0 0 -10.285 20.188 43.143 43.143 0 0 0 20.943-13.163 54.117 54.117 0 0 0 7.672-11.435l6.57-13.13a2.976 2.976 0 0 0 -.165-.3l-5.572 2.918a68.138 68.138 0 0 0 -19.163 14.922z" fill="#5a5b5d"/><path d="m31.182 33.883a55.159 55.159 0 0 0 7.818-11.646l5.869-11.737.131-.5a2.971 2.971 0 0 0 -.34-1.36h-.007l-.134-.256a3.02 3.02 0 0 0 -.733-.779l-.622.326-9.1 2.277a43.065 43.065 0 0 0 -20.009 11.323 24.069 24.069 0 0 0 -6.868 20.019l.449 3.6c.318.221.642.434.982.628l.382.222a17.267 17.267 0 0 0 1.308 1.176 44.02 44.02 0 0 0 20.874-13.293zm-22.011 7.417a22.077 22.077 0 0 1 6.3-18.356 41.07 41.07 0 0 1 19.076-10.8l1.36-.341a68.883 68.883 0 0 0 -16.88 13.727 45.37 45.37 0 0 0 -9.661 17.338zm1.714 3.6a43.341 43.341 0 0 1 9.631-18.034 66.925 66.925 0 0 1 18.884-14.707l3.26-1.707-5.45 10.891a53.143 53.143 0 0 1 -7.534 11.223 41.986 41.986 0 0 1 -18.791 12.334z" fill="#777"/><path d="m17 47.6a9.4 9.4 0 0 0 2.18 6.021 9.406 9.406 0 0 0 7.225 3.379 22.644 22.644 0 0 0 12.159-3.541l8.389-5.338a66.45 66.45 0 0 0 14.328-12.3 2.91 2.91 0 0 0 .719-1.913 2.908 2.908 0 0 0 -2.908-2.908 8.814 8.814 0 0 1 -5.507-1.932 9.436 9.436 0 0 0 -5.896-2.068 39.565 39.565 0 0 0 -16.579 3.641l-1.654.764a33.179 33.179 0 0 0 -6.456 3.932 15.528 15.528 0 0 0 -6 12.263z" fill="#f9cb6e"/><path d="m48.953 44.121a66.425 66.425 0 0 0 12.983-10.816 2.909 2.909 0 0 0 -2.844-2.305 8.814 8.814 0 0 1 -5.507-1.932 9.436 9.436 0 0 0 -5.896-2.068 39.565 39.565 0 0 0 -16.579 3.641l-1.654.764a33.179 33.179 0 0 0 -6.456 3.932 15.474 15.474 0 0 0 -3.2 3.412 15.5 15.5 0 0 0 -.8 4.851 9.4 9.4 0 0 0 2.18 6.021 9.406 9.406 0 0 0 7.225 3.379 22.644 22.644 0 0 0 12.159-3.541z" fill="#ffd997"/><g fill="#ffecd2"><path d="m29.225 50.975-.45-1.95 1.891-.436a51.029 51.029 0 0 0 19.72-9.378l1.228 1.578a53.026 53.026 0 0 1 -20.5 9.749z"/><path d="m31.5 35.868-1-1.736a31.409 31.409 0 0 1 15.562-4.132h1.938v2h-1.938a29.416 29.416 0 0 0 -14.562 3.868z"/></g></g></svg>