<svg xmlns="http://www.w3.org/2000/svg" version="1.1" xmlns:xlink="http://www.w3.org/1999/xlink" xmlns:svgjs="http://svgjs.com/svgjs" width="512" height="512" x="0" y="0" viewBox="0 0 256 256" style="enable-background:new 0 0 512 512" xml:space="preserve" class=""><g><path fill="#ef7c56" d="M47.4 42.7 12 156.4h32.3l-2-7h111.5l2 7h52.8L244 42.7z" data-original="#fc657e" class="" opacity="1"></path><path fill="#edf4fc" d="M91.5 86c-5.8-.1-11.6 1.7-16.3 5.2V72.7h35.4c.9 0 1.7-.7 1.7-1.7v-8.3c0-.9-.7-1.7-1.7-1.7H65c-.9 0-1.7.7-1.7 1.7v40.9c0 .9.7 1.7 1.7 1.7h9c.6 0 1.2-.3 1.5-.9 2.4-4.5 7.3-7.6 13.9-7.6 9.3 0 14 5.4 14 14.2 0 9.3-4.6 15.4-14.2 15.4-7.7 0-12.8-4.3-14.1-12.1-.1-.8-.8-1.4-1.6-1.4h-9.2c-.9 0-1.7.7-1.7 1.7v.1c1.2 14.6 12.1 23.2 27.1 23.2 17.3 0 26.2-11.5 26.2-27 .1-4.3-.8-8.5-2.6-12.4-3.5-7.4-10.8-12.5-21.8-12.5zM150.7 61c-21.5 0-27.3 16.9-27.3 38.3 0 21.6 5.8 38.5 27.3 38.5s27.4-17 27.4-38.5c0-21.4-6-38.3-27.4-38.3zm0 64.7c-13.3 0-14.7-13-14.7-26.4 0-13.6 1.4-26.1 14.7-26.1 13.4 0 14.8 12.6 14.8 26.1.1 13.8-1.4 26.4-14.8 26.4z" data-original="#edf4fc" class="" opacity="1"></path><path fill="#e39176" d="M55.8 196.3h111.5l-13.5-46.9H42.3z" data-original="#5290db" class="" opacity="1"></path><path fill="#ef7c56" d="m112.4 196.3 9.1 31.8 45.8-31.8z" data-original="#29589f" class="" opacity="1"></path><path d="M210.3 79.6c-1.5-1.4-3.4-2.2-5.4-2.1-2-.1-4 .7-5.5 2.1l-.3.3 11-19.2c.3-.6.1-1.3-.4-1.6-.2-.1-.4-.2-.6-.2h-4c-.4 0-.8.2-1 .6l-5.3 9.2c.2-.8.3-1.6.3-2.5.1-2.1-.7-4.1-2.2-5.6-3.1-2.9-7.9-2.8-10.8.3s-2.8 7.9.3 10.8c3 2.8 7.6 2.8 10.5 0l.2-.2-10.9 19c-.3.6-.1 1.3.4 1.6.2.1.4.2.6.2h4c.4 0 .8-.2 1-.6l5.4-9.4c-.3.9-.4 1.8-.4 2.6-.2 4.1 3 7.5 7 7.7h.6c2 .1 4-.7 5.4-2.1 2.9-2.9 2.9-7.8.1-10.9zm-3.8 7.6c-.4.5-1.1.7-1.7.7-.7 0-1.3-.2-1.8-.7-.9-1.2-.9-2.9 0-4.2.4-.5 1.1-.8 1.8-.7.6 0 1.3.2 1.7.7.9 1.3.9 3 0 4.2zm-16.8-23c.4-.5 1.1-.7 1.7-.7.7 0 1.3.2 1.8.7.9 1.2.9 2.9 0 4.1-.5.5-1.1.8-1.8.7-.6 0-1.3-.2-1.7-.7-.9-1.2-.9-2.9 0-4.1zM91.8 161.2c-2-1.1-4.3-1.7-6.6-1.7-7.3 0-12.9 5.5-12.9 13.4s5.6 13.4 12.9 13.4c7.5 0 12.8-5.7 12.8-13.4.2-4.8-2.2-9.2-6.2-11.7zm-6.6 19.9c-4.7 0-7.5-3.5-7.5-8.3 0-5.3 3.2-8.3 7.5-8.3s7.5 3 7.5 8.3c0 5.2-3.2 8.3-7.5 8.3zM114.6 159.8H101c-.6 0-1.1.5-1.1 1.1v23.9c0 .6.5 1.1 1.1 1.1h3.1c.6 0 1.1-.5 1.1-1.1v-9.6h7.8c.6 0 1.1-.5 1.1-1.1v-2.4c0-.6-.5-1.1-1.1-1.1h-7.8v-6.1h9.4c.6 0 1.1-.5 1.1-1.1v-2.5c0-.6-.4-1.1-1.1-1.1zM131.9 159.8h-13.6c-.6 0-1.1.5-1.1 1.1v23.9c0 .6.5 1.1 1.1 1.1h3.1c.6 0 1.1-.5 1.1-1.1v-9.6h7.8c.6 0 1.1-.5 1.1-1.1v-2.4c0-.6-.5-1.1-1.1-1.1h-7.8v-6.1h9.4c.6 0 1.1-.5 1.1-1.1v-2.5c0-.6-.5-1.1-1.1-1.1z" fill="#4f2121" data-original="#000000" class="" opacity="1"></path><path fill="#ef7c56" d="M253.2 118h-2.1v-2.1c0-1.5-1.3-2.8-2.8-2.8s-2.8 1.3-2.8 2.8v2.1h-2.1c-1.5 0-2.8 1.3-2.8 2.8s1.3 2.8 2.8 2.8h2.1v2.1c0 1.5 1.3 2.8 2.8 2.8s2.8-1.3 2.8-2.8v-2.1h2.1c1.5 0 2.8-1.3 2.8-2.8 0-1.6-1.3-2.8-2.8-2.8z" data-original="#fc657e" class="" opacity="1"></path><path fill="#f5c84c" d="M22.8 80c-4-.7-7.1-3.8-7.9-7.7 0-.1-.1-.2-.2-.1-.1 0-.1.1-.1.1-.8 4-3.9 7-7.9 7.7-.1 0-.2.1-.1.2 0 .1.1.1.1.1 4 .7 7.1 3.8 7.9 7.7 0 .1.1.2.2.1.1 0 .1-.1.1-.1.8-4 3.9-7 7.9-7.7.1 0 .2-.1.1-.2.1 0 0-.1-.1-.1z" data-original="#f5c84c" class=""></path><circle cx="72" cy="28.4" r="3" fill="#70d6f9" data-original="#70d6f9" class=""></circle><circle cx="241" cy="98.4" r="3" fill="#f5c84c" data-original="#f5c84c" class=""></circle><circle cx="3" cy="108.4" r="3" fill="#87d147" data-original="#87d147" class=""></circle><path d="M12 158.9h30.4l11 38.1c.3 1.1 1.3 1.8 2.4 1.8h54.8l8.6 30c.4 1.3 1.8 2.1 3.1 1.7.3-.1.5-.2.7-.4l45.8-31.8c.2-.2.4-.3.6-.5.5-.6.6-1.4.4-2.2l-10.6-36.7h49.4c1.1 0 2.1-.7 2.4-1.8l35.4-113.7c.4-1.3-.3-2.7-1.6-3.1-.2-.1-.5-.1-.7-.1H47.4c-1.1 0-2.1.7-2.4 1.8L9.6 155.6c-.4 1.3.3 2.7 1.6 3.1.3.1.6.2.8.2zm110.9 65.2-7.2-25.3h43.6zm-65.3-30.3-12-41.8H152l12 41.8zM49.3 45.2h191.3l-33.8 108.7h-49l-1.5-5.1c-.3-1.1-1.3-1.8-2.4-1.8H42.3c-1.4 0-2.5 1.1-2.5 2.5 0 .2 0 .5.1.7l1.1 3.7H15.4z" fill="#4f2121" data-original="#000000" class="" opacity="1"></path><path d="M201.3 184.8V171c0-1.4-1.1-2.5-2.5-2.5s-2.5 1.1-2.5 2.5v13.8c0 1.4 1.1 2.5 2.5 2.5s2.5-1.2 2.5-2.5zM210.1 165.1c-1.2.7-1.6 2.2-.9 3.4l6.9 12c1.7 2.9 6 .4 4.3-2.5l-6.9-12c-.7-1.2-2.2-1.6-3.4-.9zM218.2 156.6c-.7 1.2-.3 2.7.9 3.4l12 6.9c1.2.7 2.7.3 3.4-.9s.3-2.7-.9-3.4l-12-6.9c-1.1-.7-2.7-.3-3.4.9zM223.5 147.7h13.8c1.4 0 2.5-1.1 2.5-2.5s-1.1-2.5-2.5-2.5h-13.8c-1.4 0-2.5 1.1-2.5 2.5s1.2 2.5 2.5 2.5zM89.2 124c-6.5 0-10.5-3.5-11.7-10-.4-2-2.1-3.4-4.1-3.4h-9.2c-2.3 0-4.2 1.9-4.2 4.2v.3c1.3 15.5 12.9 25.5 29.5 25.5 17.7 0 28.7-11.3 28.7-29.5.1-4.6-.9-9.2-2.8-13.5-4.1-9-12.9-14.2-24-14.2-4.8 0-9.5 1-13.8 3.1V75.2h32.9c2.3 0 4.2-1.9 4.2-4.2v-8.3c0-2.3-1.9-4.2-4.2-4.2H65c-2.3 0-4.2 1.9-4.2 4.2v40.9c0 2.3 1.9 4.2 4.2 4.2h9c1.5 0 3-.9 3.7-2.2 2.1-4 6.4-6.3 11.7-6.3 7.6 0 11.5 3.9 11.5 11.7 0 5.9-2.1 13-11.7 13zm.2-29.7c-6.9 0-12.8 3.2-15.9 8.5h-7.7V63.6h44v6.6H75.2c-1.4 0-2.5 1.1-2.5 2.5v18.4c0 1.4 1.1 2.5 2.5 2.5.6 0 1.1-.2 1.6-.6 3.7-2.9 9-4.6 14.7-4.6 9.2 0 16.2 4 19.5 11.2 1.6 3.6 2.4 7.5 2.3 11.4 0 15.3-8.9 24.5-23.7 24.5-13.8 0-23.1-7.6-24.5-20h7.6c1.8 8.4 7.9 13.4 16.5 13.4 10.5 0 16.7-6.7 16.7-17.9 0-10.5-6.2-16.7-16.5-16.7zM150.7 128.2c17.3 0 17.3-18.8 17.3-28.9 0-10 0-28.6-17.3-28.6-17.2 0-17.2 18.6-17.2 28.6 0 10.1 0 28.9 17.2 28.9zm0-52.5c10.3 0 12.3 8.7 12.3 23.6 0 17.7-3.2 23.9-12.3 23.9-8.9 0-12.2-6.5-12.2-23.9s3.2-23.6 12.2-23.6z" fill="#4f2121" data-original="#000000" class="" opacity="1"></path><path d="M150.7 140.4c20.1 0 29.9-13.4 29.9-41 0-27.1-10-40.8-29.9-40.8-20 0-29.8 13.4-29.8 40.8.1 27.6 9.8 41 29.8 41zm0-76.9c17 0 24.9 11.4 24.9 35.8 0 24.6-7.9 36-24.9 36-16.9 0-24.8-11.4-24.8-36 .1-24.4 7.9-35.8 24.8-35.8z" fill="#4f2121" data-original="#000000" class="" opacity="1"></path></g></svg>