<svg clip-rule="evenodd" fill-rule="evenodd" height="512" image-rendering="optimizeQuality" shape-rendering="geometricPrecision" text-rendering="geometricPrecision" viewBox="0 0 512 512" width="512" xmlns="http://www.w3.org/2000/svg"><g id="Layer_x0020_1"><g id="_379455312"><path d="m354 512h-196c-17 0-31-14-31-31v-238c0-27 5-60 12-90 7-25 19-59 39-82h156c35 39 51 118 51 175v235c0 17-14 31-31 31z" fill="#ffe09f"/><path d="m127 402v-14-145-1-1-1-1-1c0-1 0-1 0-1 0-1 0-1 0-2v-1-1-2s0 0 0-1v-1-2l1-1v-1c0-1 0-1 0-2v-1c0-1 0-1 0-1v-1-1-1-1s0-1 0-2l1-2s0 0 0-1v-1c0-1 0-1 0-2v-1-2s0-1 1-1v-1-1-1-1-1-1-1c1-1 1-1 1-2v-1-2c1-4 2-9 3-14h245c1 5 1 10 2 15 0 1 0 2 1 3v3 3c0 1 1 2 1 3v3 3c0 1 0 2 1 3v3 3 3 3c0 1 1 1 1 2v1 2 3 3 5 3 142 14z" fill="#d19a6e"/><path d="m329 83h-146c-10 0-18-8-18-19v-46c0-10 8-18 18-18h146c10 0 18 8 18 18v46c0 11-8 19-18 19z" fill="#d19a6e"/><g fill="#987150"><path d="m232 83h-14v-83h14z"/><path d="m294 83h-14v-83h14z"/></g><path d="m342 333h-172c-4 0-7-3-7-7s3-7 7-7h172c4 0 7 3 7 7s-3 7-7 7z" fill="#ccc"/><path d="m315 370h-118c-4 0-7-3-7-7s3-7 7-7h118c4 0 7 3 7 7s-3 7-7 7z" fill="#ccc"/><path d="m256 295c-24 0-42-18-42-42 0-23 19-42 42-42s42 19 42 42c0 24-18 42-42 42z" fill="#986b54"/></g></g></svg>