<svg xmlns="http://www.w3.org/2000/svg" version="1.1" xmlns:xlink="http://www.w3.org/1999/xlink" xmlns:svgjs="http://svgjs.com/svgjs" width="512" height="512" x="0" y="0" viewBox="0 0 128 128" style="enable-background:new 0 0 512 512" xml:space="preserve" class=""><g transform="matrix(1.1199999999999994,0,0,1.1199999999999994,-7.679999885558985,-7.680119705200113)"><path fill="#e6e7e8" d="M119.31 42.556c1.214-.27 2.095-1.389 2.095-2.662v-5.341a2.748 2.748 0 0 0-2.745-2.745H13.341a2.748 2.748 0 0 0-2.745 2.745v5.341c0 1.272.881 2.392 2.095 2.662 2.27.505 3.917 2.563 3.917 4.892s-1.647 4.387-3.917 4.892c-1.214.27-2.095 1.389-2.095 2.662v3.445c0 1.272.881 2.392 2.095 2.662 2.27.505 3.917 2.563 3.917 4.892s-1.647 4.387-3.917 4.892c-1.214.27-2.095 1.389-2.095 2.662V77c0 1.272.881 2.392 2.095 2.662 2.27.505 3.917 2.563 3.917 4.892s-1.647 4.387-3.917 4.892c-1.214.27-2.095 1.389-2.095 2.662v5.341a2.748 2.748 0 0 0 2.745 2.745h105.318a2.748 2.748 0 0 0 2.745-2.745v-5.341c0-1.272-.881-2.392-2.095-2.662-2.27-.505-3.917-2.563-3.917-4.892s1.647-4.387 3.917-4.892c1.214-.27 2.095-1.389 2.095-2.662v-3.445c0-1.272-.881-2.392-2.095-2.662-2.27-.505-3.917-2.563-3.917-4.892s1.647-4.387 3.917-4.892c1.214-.27 2.095-1.389 2.095-2.662v-3.445c0-1.272-.881-2.392-2.095-2.662-2.27-.505-3.917-2.563-3.917-4.892s1.648-4.387 3.918-4.892z" data-original="#e6e7e8" class=""></path><path fill="#ffffff" d="M116.404 35.894v-5.341c0-.964-.781-1.745-1.745-1.745H9.34c-.964 0-1.745.781-1.745 1.745v5.341c0 .796.535 1.513 1.312 1.686a6.013 6.013 0 0 1 0 11.736c-.777.173-1.312.89-1.312 1.686v3.444c0 .796.535 1.513 1.312 1.686a6.013 6.013 0 0 1 0 11.736c-.777.173-1.312.89-1.312 1.686v3.444c0 .796.535 1.513 1.312 1.686a6.014 6.014 0 0 1 0 11.736c-.777.173-1.312.89-1.312 1.686v5.341c0 .964.781 1.745 1.745 1.745h105.32c.964 0 1.745-.781 1.745-1.745v-5.341c0-.796-.535-1.513-1.312-1.686a6.013 6.013 0 0 1 0-11.736c.777-.173 1.312-.89 1.312-1.686v-3.445c0-.796-.535-1.513-1.312-1.686a6.014 6.014 0 0 1 0-11.736c.777-.173 1.312-.89 1.312-1.686V51c0-.796-.535-1.513-1.312-1.686a6.014 6.014 0 0 1 0-11.736c.777-.171 1.311-.888 1.311-1.684zM32.968 89a3 3 0 1 1 0-6 3 3 0 0 1 0 6zm0-12a3 3 0 1 1 0-6 3 3 0 0 1 0 6zm0-12a3 3 0 1 1 0-6 3 3 0 0 1 0 6zm0-12a3 3 0 1 1 0-6 3 3 0 0 1 0 6zm0-12a3 3 0 1 1 0-6 3 3 0 0 1 0 6z" data-original="#ffffff" class=""></path><path fill="#ef7c56" d="M8.907 37.58a6.013 6.013 0 0 1 0 11.736c-.777.173-1.312.89-1.312 1.686v3.445c0 .796.535 1.513 1.312 1.686a6.013 6.013 0 0 1 0 11.736c-.777.173-1.312.89-1.312 1.686V73c0 .796.535 1.513 1.312 1.686a6.014 6.014 0 0 1 0 11.736c-.777.173-1.312.89-1.312 1.686v5.341c0 .964.781 1.745 1.745 1.745h105.32c.964 0 1.745-.781 1.745-1.745v-5.341c0-.796-.535-1.513-1.312-1.686a6.014 6.014 0 0 1 0-11.736c.777-.173 1.312-.89 1.312-1.686v-3.445c0-.796-.535-1.513-1.312-1.686a6.013 6.013 0 0 1 0-11.736c.777-.173 1.312-.89 1.312-1.686v-3.445c0-.796-.535-1.513-1.312-1.686a6.014 6.014 0 0 1 0-11.736c.777-.173 1.312-.89 1.312-1.686v-2.341c0-.964-.781-1.745-1.745-1.745H9.34c-.964 0-1.745.781-1.745 1.745v2.341c.001.796.535 1.513 1.312 1.686zM32.968 35a3 3 0 1 1 0 6 3 3 0 0 1 0-6zm0 12a3 3 0 1 1 0 6 3 3 0 0 1 0-6zm0 12a3 3 0 1 1 0 6 3 3 0 0 1 0-6zm0 12a3 3 0 1 1 0 6 3 3 0 0 1 0-6zm0 12a3 3 0 1 1 0 6 3 3 0 0 1 0-6z" data-original="#fa759e" class="" opacity="1"></path><circle cx="32.968" cy="62" r="3" fill="#ffffff" data-original="#ffffff" class=""></circle><circle cx="32.968" cy="74" r="3" fill="#ffffff" data-original="#ffffff" class=""></circle><circle cx="32.968" cy="86" r="3" fill="#ffffff" data-original="#ffffff" class=""></circle><circle cx="32.968" cy="38" r="3" fill="#ffffff" data-original="#ffffff" class=""></circle><circle cx="32.968" cy="50" r="3" fill="#ffffff" data-original="#ffffff" class=""></circle><path fill="#000000" d="M115.31 38.556c1.214-.27 2.095-1.389 2.095-2.662v-5.341a2.748 2.748 0 0 0-2.745-2.745H85.75a1 1 0 1 0 0 2h28.909c.411 0 .745.334.745.745v5.341c0 .343-.223.641-.528.709-3.178.707-5.483 3.585-5.483 6.844s2.306 6.137 5.483 6.844c.306.068.528.367.528.709v3.445c0 .343-.223.641-.528.709-3.178.707-5.483 3.585-5.483 6.844s2.306 6.137 5.483 6.844c.306.068.528.367.528.709v3.445c0 .343-.223.641-.528.709-3.178.707-5.483 3.585-5.483 6.844s2.306 6.137 5.483 6.844c.306.068.528.367.528.709v5.341a.746.746 0 0 1-.745.745H9.341a.746.746 0 0 1-.745-.745v-5.341c0-.343.223-.641.528-.709 3.178-.707 5.483-3.585 5.483-6.844s-2.306-6.137-5.483-6.844c-.306-.068-.528-.367-.528-.709v-3.445c0-.343.223-.641.528-.709 3.178-.707 5.483-3.585 5.483-6.844s-2.306-6.137-5.483-6.844c-.306-.068-.528-.367-.528-.709V51c0-.343.223-.641.528-.709 3.178-.707 5.483-3.585 5.483-6.844s-2.306-6.137-5.483-6.844c-.306-.068-.528-.367-.528-.709v-5.341c0-.411.334-.745.745-.745H66.25a1 1 0 1 0 0-2H9.341a2.748 2.748 0 0 0-2.745 2.745v5.341c0 1.272.881 2.392 2.095 2.662 2.27.505 3.917 2.563 3.917 4.892S10.96 47.834 8.69 48.34c-1.214.27-2.095 1.389-2.095 2.662v3.445c0 1.272.881 2.392 2.095 2.662 2.27.505 3.917 2.563 3.917 4.892s-1.647 4.387-3.917 4.892c-1.214.27-2.095 1.389-2.095 2.662V73c0 1.272.881 2.392 2.095 2.662 2.27.505 3.917 2.563 3.917 4.892s-1.647 4.387-3.917 4.892c-1.214.27-2.095 1.389-2.095 2.662v5.341a2.748 2.748 0 0 0 2.745 2.745h105.318a2.748 2.748 0 0 0 2.745-2.745v-5.341c0-1.272-.881-2.392-2.095-2.662-2.27-.505-3.917-2.563-3.917-4.892s1.647-4.387 3.917-4.892c1.214-.27 2.095-1.389 2.095-2.662v-3.445c0-1.272-.881-2.392-2.095-2.662-2.27-.505-3.917-2.563-3.917-4.892s1.647-4.387 3.917-4.892c1.214-.27 2.095-1.389 2.095-2.662v-3.445c0-1.272-.881-2.392-2.095-2.662-2.27-.505-3.917-2.563-3.917-4.892s1.649-4.387 3.919-4.892z" data-original="#3a2c60" class="" opacity="1"></path><path fill="#000000" d="M71 29.809h10a1 1 0 1 0 0-2H71a1 1 0 1 0 0 2zM32.968 70c-2.206 0-4 1.794-4 4s1.794 4 4 4 4-1.794 4-4-1.794-4-4-4zm0 6c-1.103 0-2-.897-2-2s.897-2 2-2 2 .897 2 2-.898 2-2 2zM32.968 34c-2.206 0-4 1.794-4 4s1.794 4 4 4 4-1.794 4-4-1.794-4-4-4zm0 6c-1.103 0-2-.897-2-2s.897-2 2-2 2 .897 2 2-.898 2-2 2zM32.968 46c-2.206 0-4 1.794-4 4s1.794 4 4 4 4-1.794 4-4-1.794-4-4-4zm0 6c-1.103 0-2-.897-2-2s.897-2 2-2 2 .897 2 2-.898 2-2 2zM32.968 82c-2.206 0-4 1.794-4 4s1.794 4 4 4 4-1.794 4-4-1.794-4-4-4zm0 6c-1.103 0-2-.897-2-2s.897-2 2-2 2 .897 2 2-.898 2-2 2zM32.968 58c-2.206 0-4 1.794-4 4s1.794 4 4 4 4-1.794 4-4-1.794-4-4-4zm0 6c-1.103 0-2-.897-2-2s.897-2 2-2 2 .897 2 2-.898 2-2 2z" data-original="#3a2c60" class="" opacity="1"></path><g fill="#fff"><path d="M56.748 65.819h-5.762v3.694h4.816c.446 0 .78.1 1 .301.22.2.33.468.33.803s-.112.601-.335.798-.555.296-.995.296h-4.816v4.757c0 .605-.136 1.053-.409 1.345s-.623.438-1.049.438c-.434 0-.786-.147-1.059-.443s-.409-.742-.409-1.34V65.356c0-.42.062-.763.187-1.029s.321-.459.586-.581.606-.182 1.02-.182h6.895c.466 0 .813.103 1.039.31.227.207.341.478.341.812 0 .341-.114.616-.341.822-.226.208-.572.311-1.039.311zM64.234 71.828H63.21v4.639c0 .611-.134 1.061-.403 1.349-.27.289-.622.434-1.054.434-.466 0-.828-.151-1.084-.453-.255-.302-.383-.746-.383-1.33V65.356c0-.63.141-1.087.423-1.369.282-.283.739-.424 1.369-.424h4.757c.657 0 1.218.028 1.685.083a4.24 4.24 0 0 1 1.261.34 3.654 3.654 0 0 1 1.994 2.053c.181.47.271.967.271 1.492 0 1.077-.304 1.938-.911 2.581-.607.644-1.529 1.1-2.764 1.369.519.276 1.015.683 1.488 1.221.472.538.894 1.112 1.265 1.718.371.607.66 1.156.867 1.645s.31.826.31 1.01c0 .19-.061.379-.182.566a1.296 1.296 0 0 1-.497.444c-.21.108-.454.162-.73.162-.328 0-.604-.077-.827-.231s-.416-.35-.576-.586c-.161-.237-.38-.585-.656-1.045l-1.171-1.95c-.421-.716-.797-1.261-1.128-1.636-.333-.374-.669-.63-1.01-.768-.341-.134-.771-.203-1.29-.203zm1.674-6.067H63.21v3.969h2.62c.703 0 1.294-.061 1.773-.182s.846-.328 1.099-.62.38-.694.38-1.207c0-.401-.102-.754-.305-1.059s-.486-.533-.847-.685c-.344-.144-1.017-.216-2.022-.216zM84.327 65.819h-6.589v3.546h6.068c.446 0 .78.1 1 .3s.33.465.33.793-.108.596-.325.803c-.216.207-.551.311-1.005.311h-6.068v4.107h6.816c.459 0 .806.107 1.04.32.233.213.349.498.349.852 0 .342-.116.619-.349.832-.234.213-.58.32-1.04.32h-7.949c-.637 0-1.095-.141-1.374-.424-.28-.282-.419-.738-.419-1.369V65.356c0-.42.062-.763.188-1.029.125-.266.32-.459.585-.581.267-.122.606-.182 1.02-.182h7.722c.466 0 .813.103 1.04.31s.34.478.34.812c0 .341-.113.616-.34.822s-.573.311-1.04.311zM97.782 65.819h-6.589v3.546h6.068c.446 0 .78.1 1 .3s.33.465.33.793-.108.596-.325.803c-.216.207-.551.311-1.005.311h-6.068v4.107h6.816c.459 0 .806.107 1.04.32.233.213.349.498.349.852 0 .342-.116.619-.349.832-.234.213-.58.32-1.04.32H90.06c-.637 0-1.095-.141-1.374-.424-.28-.282-.419-.738-.419-1.369V65.356c0-.42.062-.763.188-1.029.125-.266.32-.459.585-.581.267-.122.606-.182 1.02-.182h7.722c.466 0 .813.103 1.04.31s.34.478.34.812c0 .341-.113.616-.34.822s-.574.311-1.04.311zM54.721 47.292l.666 2.048a.68.68 0 0 0 .646.47h2.154c.658 0 .932.842.399 1.229l-1.742 1.266a.68.68 0 0 0-.247.76l.666 2.048c.203.626-.513 1.147-1.046.76l-1.742-1.266a.68.68 0 0 0-.799 0l-1.742 1.266c-.533.387-1.249-.134-1.046-.76l.666-2.048a.68.68 0 0 0-.247-.76l-1.742-1.266c-.533-.387-.259-1.229.399-1.229h2.154a.68.68 0 0 0 .646-.47l.666-2.048c.202-.626 1.087-.626 1.291 0zM74.211 45.889l.892 2.745a.911.911 0 0 0 .866.629h2.886c.882 0 1.249 1.129.535 1.648l-2.335 1.697a.91.91 0 0 0-.331 1.018l.892 2.745c.273.839-.688 1.537-1.402 1.018l-2.335-1.697a.911.911 0 0 0-1.071 0l-2.335 1.697c-.714.519-1.674-.179-1.402-1.018l.892-2.745a.91.91 0 0 0-.331-1.018l-2.335-1.697c-.714-.519-.347-1.648.535-1.648h2.886a.91.91 0 0 0 .866-.629l.892-2.745c.275-.839 1.463-.839 1.735 0zM93.262 47.292l.666 2.048a.68.68 0 0 0 .646.47h2.154c.658 0 .932.842.399 1.229l-1.742 1.266a.68.68 0 0 0-.247.76l.666 2.048c.203.626-.513 1.147-1.046.76l-1.742-1.266a.68.68 0 0 0-.799 0l-1.742 1.266c-.533.387-1.249-.134-1.046-.76l.666-2.048a.68.68 0 0 0-.247-.76l-1.742-1.266c-.533-.387-.259-1.229.399-1.229h2.154a.68.68 0 0 0 .646-.47l.666-2.048c.202-.626 1.088-.626 1.291 0z" fill="#ffffff" data-original="#ffffff" class=""></path></g></g></svg>