<svg id="Layer_1" enable-background="new 0 0 74 74" height="512" viewBox="0 0 74 74" width="512" xmlns="http://www.w3.org/2000/svg"><g><g><path d="m47.93 43.03c-2 4.53-5.6 10.8-10.25 12.95-5.57 2.57-12.05 3-17.85.91-6.05-2.18-11.08-7.01-13.51-12.97-1.34-3.28-1.88-7.06-.54-10.34 1.1-2.69 3.22-4.45 5.38-6.27 1.86-1.57 2.91-3.67 4.82-5.25 4.34-3.58 9.73-5.89 15.33-6.45 3.04-.31 6.18-.1 9.01 1.05 4.73 1.93 8.13 6.46 9.33 11.42s.34 10.28-1.72 14.95z" fill="#f33"/><path d="m16.1 24.32c.43.81.86 1.61 1.28 2.42l.44.25c-2.32.49-4.45 1.88-6.04 3.64s-2.38 4.23-2.63 6.58c1.33-2.67 2.75-5.46 5.21-7.15 1.22-.84 2.66-1.36 4.13-1.5-.88.33-1.36 1.21-1.6 2.12s-.2 1.86-.15 2.8c.1 1.94.2 3.88.3 5.82.69-1.52 1.22-2.96 1.91-4.48.85-1.87 1.73-3.92 1.23-5.91 3.21.23 6.4 1.52 8.62 3.84-.43-3.55-2.9-6.68-6.2-8.06.89-.68 1.59-1.65 2.37-2.45 1.81-1.84 4.58-2.67 7.1-2.13-1.27-.96-2.91-1.14-4.42-.63s-2.79 1.52-3.99 2.57c-.58.51-1.14 1.04-1.74 1.52-.81.66-1.32.27-2.16.58z" fill="#ea2424"/><g opacity=".1"><path d="m49.63 37.8c-2.41-.87-5.04-1.09-7.55-.52-2.41.55-4.62 1.73-6.99 2.47-2.36.74-5.08.96-7.18-.37-1.95-1.23-3.04-3.63-5.13-4.58-1.93-.9-4.2-.35-6.18.42-1.97.77-3.94 1.79-6.05 1.82-1.88.04-3.61-.68-5.34-1.51.13-.66.31-1.33.57-1.95 1.1-2.69 3.22-4.45 5.37-6.28 1.86-1.56 2.91-3.68 4.82-5.24 4.34-3.59 9.74-5.89 15.33-6.46 3.04-.29 6.18-.09 9.02 1.05 4.71 1.93 8.12 6.46 9.31 11.43.77 3.19.7 6.5 0 9.72z" fill="#fff"/></g><g opacity=".05"><path d="m45.59 32.13c0-1.25-.15-2.49-.43-3.66-1.04-4.28-3.96-7.89-7.62-9.38-1.57-.64-3.38-.96-5.4-.96-.68 0-1.4.04-2.11.09-4.77.49-9.49 2.47-13.26 5.58-.77.64-1.4 1.42-2.04 2.25-.72.87-1.43 1.79-2.53 2.7-1.83 1.55-3.55 3-4.38 5.06-1.25 3.06-.23 6.49.49 8.28 2.08 5.06 6.36 9.17 11.51 11.04 2 .72 4.11 1.09 6.3 1.09-.11.02-.21.02-.32.02-2.34 0-4.6-.38-6.74-1.15-5.28-1.91-9.72-6.15-11.83-11.36-.73-1.83-1.79-5.38-.5-8.53.85-2.11 2.62-3.6 4.51-5.19 1.11-.94 1.87-1.89 2.59-2.79.68-.85 1.32-1.64 2.09-2.28 3.91-3.23 8.75-5.26 13.66-5.75.74-.08 1.47-.11 2.17-.11 2.08 0 3.94.34 5.57 1 3.75 1.53 6.77 5.25 7.83 9.66.33 1.39.48 2.88.44 4.39z"/></g><g opacity=".05"><path d="m46.91 42.39c-1.31 2.96-4.85 10.08-9.5 12.24-3 1.39-6.3 2.12-9.56 2.12-2.49 0-4.93-.43-7.21-1.26-4.46-1.61-8.36-4.78-10.91-8.81 2.38 3.35 5.81 5.98 9.67 7.38 2.17.79 4.46 1.18 6.82 1.18 3.07 0 6.2-.69 9.03-2.01 4.4-2.02 7.76-8.77 8.99-11.56 1.97-4.5 2.51-9.2 1.54-13.27-1.07-4.46-4.12-8.21-7.93-9.76-1.63-.67-3.52-1.01-5.62-1.01-.71 0-1.44.04-2.21.11-2.04.21-4.07.67-6.02 1.39 2.51-1.07 5.19-1.78 7.87-2.04.81-.09 1.57-.13 2.32-.13 2.23 0 4.23.36 5.96 1.07 4.03 1.65 7.23 5.6 8.38 10.33 1.06 4.31.48 9.29-1.62 14.03z"/></g><g opacity=".1"><path d="m42.84 18.02c-.18.31-.35.61-.53.92-1.18 2.02-2.37 4.1-2.76 6.4-.35 2.15.02 4.36-.13 6.53-.26 4.1-2.47 8.02-5.8 10.38-1.53 1.09-3.48 2.13-3.68 3.99-.18 1.66 1.14 3.04 1.8 4.56 1.01 2.32.4 5.02-.96 7.18-3.68.52-7.45.17-10.97-1.1-6.04-2.17-11.08-7.01-13.51-12.96-1.32-3.28-1.88-7.07-.53-10.34 1.1-2.69 3.22-4.45 5.37-6.28 1.86-1.56 2.91-3.68 4.82-5.24 4.34-3.59 9.74-5.89 15.33-6.46 3.04-.29 6.18-.09 9.02 1.05.89.38 1.74.82 2.53 1.37z" fill="#fff"/></g><g opacity=".1"><path d="m24.18 17.3c-.7 2.34-1.25 4.71-1.66 7.12-.74 4.32-1.29 9.2-4.71 11.93-.88.7-1.93 1.23-2.59 2.15-1.49 2.12-.24 4.97.22 7.53.46 2.63-.17 5.37-1.55 7.66-3.33-2.5-6-5.91-7.58-9.75-1.32-3.28-1.88-7.07-.53-10.34 1.1-2.69 3.22-4.45 5.37-6.28 1.86-1.56 2.91-3.68 4.82-5.24 2.45-2.04 5.24-3.66 8.21-4.78z" fill="#fff"/></g><path d="m17.18 26.34c-2.32.49-4.45 1.88-6.04 3.64s-2.38 4.23-2.63 6.58c1.33-2.67 2.75-5.46 5.21-7.15 1.22-.84 2.66-1.36 4.13-1.5-.88.33-1.36 1.21-1.6 2.12s-.2 1.86-.15 2.8c.1 1.94.2 3.88.3 5.82.69-1.52 1.22-2.96 1.91-4.48.85-1.87 1.73-3.92 1.23-5.91 3.21.23 6.4 1.52 8.63 3.84-.43-3.55-2.9-6.68-6.2-8.06.89-.68 1.59-1.65 2.37-2.45 1.81-1.84 4.58-2.67 7.1-2.13-1.27-.96-2.91-1.14-4.42-.63s-2.79 1.52-3.99 2.57c-.58.51-1.15 1.04-1.74 1.52-.81.66-.93.67-1.68-.05-1.17-1.11-2.28-2.3-3.35-3.51-2.11-2.37-4.06-4.88-5.84-7.51-.28 1.67.54 3.32 1.34 4.81 1.66 3.13 3.33 6.27 4.99 9.4z" fill="#3c3"/><path d="m20.36 25.02c-2.69-1.9-6.24-2.53-9.43-1.73-.64.16-1.16.62-1.37 1.24l-.13.38c-.13.37.17.74.56.72 2.93-.18 5.92.63 8.36 2.27 1.06.75 3.08-2.13 2.01-2.88z" fill="#57ea57"/></g><g><path d="m37.79 24.32c3.26-.31 6.54.24 9.69 1.12 1.1.31 2.22-.1 3.34.12 1.55.3 3.14.14 4.72.26 6.06.46 11.3 5.38 12.89 11.24s-.19 12.34-3.93 17.13c-3.96 5.09-10.53 8.49-16.87 7.31z" fill="#ef2626"/><path d="m28.93 55.32c-2.42-1.68-3.95-4.43-4.57-7.3s-.42-5.87.11-8.77c.57-3.15 1.52-6.26 3.2-8.98 1.69-2.72 4.16-5.02 7.17-6.1s6.56-.84 9.17 1c1.07.75 1.97 1.75 3.12 2.36 2.96 1.59 6.59.31 9.93.69 4.05.46 7.53 3.51 9.13 7.26 1.59 3.75 1.46 8.07.29 11.98-1.66 5.51-5.48 10.43-10.66 12.93-4.35 2.1-9.65 2.34-14.11.43-1.99-.85-3.6-2.1-5.69-2.76-2.43-.76-4.98-1.28-7.09-2.74z" fill="#f55"/><g opacity=".15"><path d="m24.91 41.81c.11-2.22.71-4.4 1.57-6.46 1.46-3.53 3.73-6.84 6.97-8.87 2.1-1.31 4.76-2.04 7.07-1.15 1.48.57 2.65 1.74 4.07 2.45 1.96.98 4.24 1.03 6.42 1.28 3.25.37 6.5 1.23 9.21 3.04 1.85 1.23 3.43 2.91 4.4 4.9 1.76 3.61 1.24 7.24.19 10.92-1.01 3.55-3.22 6.77-6.23 8.91-3.87 2.76-9 3.7-13.59 2.45-1.14-.31-2.26-.75-3.43-.92-.97-.14-1.97-.1-2.89-.41s-1.68-.92-2.56-1.3c-.78-.34-1.61-.37-2.39-.64-1.79-.62-3.45-2.01-4.72-3.37-2.69-2.89-4.28-6.86-4.09-10.83z" fill="#fff"/></g><g opacity=".15"><path d="m58.08 44.74c-.18 2.61-1.5 5.11-3.55 6.74-2.04 1.63-4.78 2.33-7.36 1.91-1.02-.18-2.01-.51-3.04-.64-1.02-.13-2.79-.38-3.46.41-.38.45-1.08.46-1.61.21s-.92-.72-1.29-1.16c-.38-.45-.78-.89-1.32-1.13-.56-.22-1.21-.21-1.7-.53-.8-.51-.86-1.63-1.31-2.45-.61-1.08-1.88-1.66-2.49-2.72-.64-1.12-.43-2.5-.29-3.78.19-1.66.24-3.35.73-4.94s.35-3.48 1.9-4.09c1.18-.45 3.48-.63 4.74-.5.97.11 2.14.89 2.98 1.37.86.48 1.53 1.4 1.39 2.37.21.32.75.06.86-.3s0-.76.05-1.13c.08-.64.61-1.12 1-1.63.83-1.07 1.1-2.45 1.51-3.73.08-.22.16-.46.25-.69 1.16.33 2.39.46 3.62.57-.21.51-.43 1-.8 1.43-.4.48-.96.81-1.29 1.34-.35.56-.45 1.23-.53 1.86-.14 1.21-.3 2.42-.45 3.63.92-.45 2.06-.21 2.93.3.88.53 1.58 1.31 2.29 2.04.72.72 2.21.41 3.18.76 1.1.38 1.76 1.34 2.53 2.23.51.63.59 1.49.53 2.25z" fill="#fff"/></g><path d="m34.44 52.9c.68.01 1.54-.08 1.76-.71.1-.29.04-.62.2-.88.25-.39.84-.35 1.31-.42 1.03-.15 1.85-1.13 1.79-2.15-.03-.45-.32-.96-.78-.95-.31 0-.56.25-.81.44s-.61.34-.86.16c.24-.5.79-.79 1.15-1.22s.44-1.22-.1-1.42c-.32-.12-.68.07-.91.32-.22.26-.35.58-.53.86-.39.58-1.05.97-1.75 1.04-.3.03-.63-.01-.86-.2s-.31-.56-.11-.78c.32-.34 1.13-.18 1.17-.64.03-.28-.32-.45-.61-.48s-.63-.04-.79-.28c-.2-.3.07-.7.35-.93s.63-.52.57-.88c-.07-.48-.79-.57-1.22-.33s-.73.68-1.19.88c-.45.2-1.17-.04-1.1-.52.04-.28.33-.47.62-.52.28-.05.58-.02.87-.05.96-.12 1.66-1.19 1.37-2.08-.5.19-1.06.39-1.58.22-.51-.17-.83-.9-.42-1.24.23-.19.56-.19.86-.15.3.03.62.08.88-.05s.4-.54.16-.72c-.49 0-1-.01-1.42-.24s-.72-.76-.51-1.19c.16-.33.56-.49.93-.53s.75.02 1.13-.01c.37-.03.77-.19.93-.52s-.07-.82-.44-.8c-.52-.04-1.08-.35-1.5-.65s-.62-.95-.27-1.33c.39-.42 1.09-.22 1.63 0s1.25.4 1.62-.04c.23-.28.21-.7.43-.99.36-.46 1.15-.31 1.55.12s.52 1.03.72 1.57.56 1.11 1.13 1.24c.36.08.75-.03 1.09.1.38.14.61.52.66.91s-.04.78-.12 1.16c.16.17.45.15.64.01s.29-.36.36-.57c.34-.98.26-2.06 0-3.06-.31-1.19-.85-2.3-1.39-3.41-.31-.62-.63-1.27-1.21-1.67-.67-.47-1.55-.51-2.38-.54-.88-.03-1.85-.02-2.51.54-.35.3-.56.73-.85 1.1-.98 1.25-2.72 1.66-4 2.61-.38.28-.73.64-.84 1.09-.13.56.13 1.14.03 1.7-.16.99-1.34 1.64-1.37 2.64-.02.57.35 1.08.54 1.62.66 1.87-.89 4.04-.05 5.83.42.89 1.33 1.47 1.86 2.31.49.78.6 1.73.99 2.57.58 1.26 1.75 2.08 3.18 2.11z" fill="#ef2626"/><path d="m42.26 50.22c.24.83.69 1.77.21 2.5-.36.54-1.18.85-1.15 1.5.02.46.52.77.98.8s.91-.13 1.37-.18c1.04-.12 2.14.35 2.77 1.19.39.52.71 1.23 1.35 1.32 1.06.15 1.6-1.53 2.67-1.56.93-.03 1.64 1.22 2.53.94.74-.23.8-1.3 1.41-1.78.77-.61 2.08-.03 2.79-.72.74-.72.13-2.17.87-2.89.53-.51 1.49-.37 1.96-.94.63-.76-.21-1.97.19-2.87.21-.46.71-.74.94-1.19.37-.71-.03-1.59.09-2.38.14-.91.94-1.63 1.04-2.54.11-1.04-.7-1.93-1.46-2.66-1.31-1.26-2.81-2.61-4.63-2.59-.75.01-1.48.26-2.22.24-1.69-.05-3.19-1.44-4.86-1.2-1.32.19-2.36 1.55-2.19 2.87.98-.25 2.09.13 2.71.93.48.62.7 1.48 1.38 1.87.49.29 1.11.25 1.67.16s1.14-.22 1.7-.09 1.08.63 1.01 1.2c-.08.65-.87 1.21-.58 1.79.21.41.79.42 1.16.69.44.31.51 1.01.15 1.41s-1.07.36-1.41-.04c-.21.3.1.7.42.89.32.18.72.35.8.71.08.37-.29.73-.67.74s-.73-.23-.96-.53c-.21-.28-.42-.64-.76-.66-.48-.03-.7.64-.51 1.08s.6.74.85 1.14.26 1.06-.18 1.24c-.39.16-.81-.19-.99-.57s-.23-.82-.47-1.17-.81-.52-1.07-.19c-.3.41.02.97.3 1.4.28.42.5 1.07.09 1.38-.36.26-.88-.02-1.11-.4-.22-.38-.27-.85-.49-1.24-.21-.39-.72-.69-1.09-.46-.13.29-.12.65.04.93-.41.51-1.39.26-1.5-.38-.04-.2-.01-.44-.14-.59-.19-.21-.57-.1-.73.14-.16.23-.18.53-.24.81-.1.46-.36.93-.8 1.08-.44.16-1.04-.18-.99-.65.04-.36.39-.58.6-.86.21-.29.17-.84-.19-.84-.15 0-.27.11-.4.18-.61.32-1.38-.28-1.49-.96-.14-.81.44-1.37.5-2.09-1.63-.12-1.53 3.18-1.27 4.09z" fill="#ef2626"/><g fill="#fbe389"><path d="m45.5 53.64c0 .25.04.53.23.7.21.2.52.21.81.2.25 0 .51-.01.73-.13.35-.2.49-.65.49-1.06 0-.51-.15-.99-.35-1.45-.21-.48-.31-.87-.82-.49-.69.5-1.09 1.41-1.09 2.23z"/><path d="m48.92 52.76c-.08.58-.07 1.2.2 1.72s.87.91 1.44.78c.13-.03.25-.09.33-.19.13-.17.1-.41.06-.62-.17-.8-.5-1.58-.95-2.27-.14-.22-.48-.87-.75-.72-.24.14-.3 1.06-.33 1.3z"/><path d="m53.32 51.31c.16.31.38.59.68.77s.67.25 1 .15.61-.39.67-.73c.06-.4-.18-.8-.51-1.04s-.73-.35-1.12-.45c-.34-.09-.83-.39-.94.08-.1.42.07.84.22 1.22z"/><path d="m55.91 48.71c.36.3.8.54 1.26.51s.92-.43.88-.89c-.04-.45-.49-.73-.91-.89-.79-.3-1.63-.39-2.47-.43.03.61.8 1.34 1.24 1.7z"/><path d="m58.23 44.29c.3-.11.58-.3.73-.58s.15-.65-.05-.9c-.19-.24-.53-.32-.84-.33-.5-.02-2.23.29-2.04 1.08.21.77 1.6.94 2.2.73z"/><path d="m53.08 40.43c-.02.08-.03.18.04.23.05.04.12.02.18.01.45-.11.9-.22 1.3-.45s.75-.59.85-1.04c.07-.31-.01-.77-.36-.88-.3-.1-.63.16-.86.34-.55.43-.98 1.08-1.15 1.79z"/><path d="m50.2 38.63c-.01.06-.02.14.03.18.04.03.1.02.15.01.35-.09.71-.18 1.03-.36s.59-.47.68-.82c.06-.24-.01-.61-.28-.7-.24-.08-.5.13-.68.27-.46.34-.8.85-.93 1.42z"/><path d="m35.56 33.37c.01.06.02.14-.03.18-.04.03-.1.02-.15.01-.35-.09-.71-.18-1.03-.36s-.59-.47-.68-.82c-.06-.24.01-.61.28-.7.24-.08.5.13.68.27.47.35.8.86.93 1.42z"/><path d="m35.12 47.95c-.15.25-.3.49-.51.69s-.48.34-.77.34-.59-.15-.7-.42c-.12-.29-.01-.62.15-.89.37-.63 1.02-1.08 1.73-1.24.34-.08.69-.15.64.29-.05.43-.33.87-.54 1.23z"/><path d="m32.88 44.59c-.2.08-.41.19-.51.38-.12.25.01.56.21.75.43.4 1.16.39 1.61.02.27-.22.86-1.17.46-1.49-.17-.14-.64.02-.83.05-.31.07-.63.17-.94.29z"/><path d="m32 41.65c-.22.02-.45.01-.63-.11-.24-.16-.35-.49-.27-.77.07-.28.29-.51.56-.63.26-.12.56-.15.85-.12.39.04 1.5.21 1.15.81-.3.51-1.12.78-1.66.82z"/><path d="m32.23 38.8c-.36.04-.78 0-1.01-.29-.19-.24-.19-.61-.02-.87s.48-.4.79-.41.61.11.86.28c.19.14.36.31.55.44.19.14.41.23.65.23-.45.36-1.27.56-1.82.62z"/><path d="m33.5 35.44c-.23.02-.48.02-.68-.1-.26-.16-.36-.49-.42-.79-.04-.2-.06-.42.06-.58.1-.13.27-.18.44-.19.29-.01.56.11.8.28s.43.38.62.59c.21.23.5.41.14.61-.26.15-.68.16-.96.18z"/></g><g opacity=".1"><path d="m63.49 53.58c-2.76 3.54-6.84 6.09-10.86 6.79-1.57.42-3.01.61-4.46.61-2.1 0-4.09-.39-5.9-1.18-.76-.32-1.46-.71-2.2-1.13-1.15-.63-2.33-1.28-3.72-1.73-.52-.16-1.02-.31-1.52-.45-1.92-.55-3.73-1.08-5.24-2.12-1.92-1.34-3.38-3.69-3.98-6.43-.26-1.21-.37-2.52-.34-3.94.03.97.15 1.88.32 2.73.58 2.72 1.97 5.03 3.81 6.34 1.45 1.02 3.2 1.55 5.04 2.09.49.15.97.29 1.46.45 1.34.44 2.47 1.08 3.57 1.71.71.4 1.39.79 2.12 1.12 1.75.76 3.65 1.16 5.67 1.16 1.39 0 2.78-.19 4.28-.6 3.88-.71 7.77-3.22 10.44-6.71 3.52-4.66 4.88-10.68 3.54-15.76-.79-3.01-2.57-5.64-4.87-7.47 3.06 1.79 5.51 4.9 6.48 8.53 1.44 5.14.03 11.27-3.64 15.99z"/></g><g opacity=".1"><path d="m65.73 31.69c-1.5.4-3 .84-4.46 1.35-1.59.54-3.27 1.21-4.21 2.6-1.05 1.55-.92 3.55-1.05 5.42-.14 1.85-.8 3.98-2.55 4.62-1.1.41-2.5.16-3.3 1.02-.69.73-.56 1.88-.51 2.87.18 2.9-.88 6.09-3.43 7.47-1.66.89-3.65.88-5.54.76-1.67-.11-3.39-.27-5.02.16-2.31-.7-4.72-1.24-6.74-2.64-2.41-1.67-3.94-4.43-4.57-7.3-.62-2.88-.41-5.88.11-8.76.57-3.15 1.51-6.28 3.2-8.99s4.16-5.02 7.17-6.1c2.55-.92 5.5-.89 7.92.27h.02c1.59.22 3.15.57 4.7 1 1.1.3 2.23-.1 3.35.11 1.55.3 3.14.14 4.72.25 4.04.31 7.74 2.62 10.19 5.89z" fill="#fff"/></g><g opacity=".1"><path d="m57.08 26.03c-1.51.19-2.98.61-4.33 1.32-3.65 1.96-5.88 5.83-7.01 9.8-.3 1.04-.64 2.21-1.61 2.66-.83.37-1.78.06-2.68-.08-3.3-.51-6.82 1.66-7.84 4.84-.53 1.63-.62 3.68-2.1 4.53-.84.46-1.88.37-2.84.49-1.19.14-2.34.67-3.25 1.47-.48-.97-.83-1.99-1.07-3.04-.62-2.88-.41-5.88.11-8.76.57-3.15 1.51-6.28 3.2-8.99s4.16-5.02 7.17-6.1c2.55-.92 5.5-.89 7.92.27h.02c1.59.22 3.15.57 4.7 1 1.1.3 2.23-.1 3.35.11 1.55.3 3.14.14 4.72.25.52.04 1.03.12 1.54.23z" fill="#fff"/></g><g opacity=".1"><path d="m67.13 49.83c-1.43-1.75-3.49-3-5.72-3.33-2.02-.29-4.08.11-6.13.14-2.06.02-4.29-.43-5.59-2.01-1.75-2.14-1.32-5.7-3.55-7.36-1.39-1.04-3.3-.89-5.03-.97-2.84-.14-5.64-1.1-7.98-2.69-1.29-.88-2.44-1.93-3.74-2.77-.48-.32-.99-.59-1.53-.83 1.67-2.6 4.08-4.8 6.99-5.85 2.55-.92 5.5-.89 7.92.27h.02c1.59.22 3.15.57 4.7 1 1.1.3 2.23-.1 3.35.11 1.55.3 3.14.14 4.72.25 6.05.46 11.3 5.39 12.87 11.25 1.13 4.24.54 8.8-1.3 12.79z" fill="#fff"/></g><path d="m32.79 19.9c1.95-.54 4.06.24 5.68 1.46s2.88 2.83 4.3 4.27 3.08 2.78 5.07 3.17c2.03.4 4.15-.25 5.92-1.31 1.23-.74 2.22-1.47 3.48-2.16s2.86-.73 4.24-.34c-.62-.58-1.41-.83-2.26-.81-2.52.06-5.02.93-7.02 2.46.76-3.18 3.36-5.83 6.51-6.68-1.95-.38-3.85.47-5.34 1.78s-2.55 3.03-3.58 4.72c-.41-1.39-.39-2.88.07-4.25-.84.46-1.64.9-2.4 1.48s-1.43 1.29-1.86 2.14c-.94-2.47-3-4.56-5.39-5.68s-4.93-1.1-7.42-.25z" fill="#3c3"/><path d="m46.18 26.61c1.3-3.99 3.34-7.73 5.97-11 .4-.49 1.07-.68 1.67-.49.1.03.21.06.31.09.36.1.49.53.25.82-2.67 3.22-4.49 7.18-4.82 11.35-.18.84-3.57.06-3.38-.77z" fill="#57ea57"/></g></g></svg>