<svg id="Capa_1" enable-background="new 0 0 497 497" height="512" viewBox="0 0 497 497" width="512" xmlns="http://www.w3.org/2000/svg"><g><path d="m248.5 0v497c137.243 0 248.5-111.257 248.5-248.5s-111.257-248.5-248.5-248.5z" fill="#ffb833"/><path d="m467 248.5c0-137.243-97.826-248.5-218.5-248.5-137.243 0-248.5 111.257-248.5 248.5s111.257 248.5 248.5 248.5c120.674 0 218.5-111.257 218.5-248.5z" fill="#ffce53"/><circle cx="248.5" cy="60" fill="#ffa033" r="30"/><circle cx="158.5" cy="248.5" fill="#ff892e" r="30"/><circle cx="407" cy="248.5" fill="#ffa033" r="30"/><circle cx="248.5" cy="452" fill="#ffa033" r="15"/><circle cx="308.5" cy="392" fill="#ff892e" r="15"/><circle cx="68.5" cy="203.5" fill="#ffa033" r="15"/><circle cx="68.5" cy="248.5" fill="#ff892e" r="7.5"/><circle cx="158.5" cy="308.5" fill="#ff892e" r="7.5"/><g fill="#ffa033"><circle cx="188.5" cy="338.5" r="7.5"/><circle cx="128.5" cy="368.5" r="7.5"/><circle cx="206.074" cy="102.426" r="7.5"/></g><circle cx="407" cy="188.5" fill="#ff892e" r="7.5"/><circle cx="377" cy="158.5" fill="#ff892e" r="7.5"/></g></svg>