<svg id="Слой_1" height="512" viewBox="0 0 512 512" width="512" xmlns="http://www.w3.org/2000/svg" data-name="Слой 1"><path d="m195.74 281.79-20.6-58.38-70.71 25-6-11a22.81 22.81 0 0 0 -40 21.9l2.44 4.46-6.34 2.23a31 31 0 0 0 -18.89 39.49 31 31 0 0 0 39.49 18.89l20.5-7.23v98.4a22 22 0 0 0 22 22 22 22 0 0 0 22-22v-113.96z" fill="#ffd169"/><path d="m117.64 445.61a30.12 30.12 0 0 1 -30.09-30.09v-87l-9.72 3.48a39 39 0 0 1 -28.31-72.72 30.89 30.89 0 0 1 56-25.76l2.71 5 64.23-22.67a8.08 8.08 0 0 1 10.31 4.93l20.6 58.38a8.08 8.08 0 0 1 -4.93 10.31l-50.7 17.89v108.16a30.12 30.12 0 0 1 -30.1 30.09zm-22.01-136.61a8.08 8.08 0 0 1 8.08 8.08v98.4a13.93 13.93 0 1 0 27.85 0v-113.89a8.08 8.08 0 0 1 5.44-7.59l48.47-17.11-15.22-43.14-63.13 22.25a8.08 8.08 0 0 1 -9.78-3.74l-6-11a14.73 14.73 0 1 0 -25.85 14.14l2.44 4.47a8.08 8.08 0 0 1 -4.4 11.5l-6.31 2.23a22.87 22.87 0 0 0 15.22 43.14l20.5-7.23a8.08 8.08 0 0 1 2.69-.51z" fill="#282828"/><path d="m470.9 133.8a31 31 0 0 1 -3.78 43.61l-5.12 4.31 3.86 3.32a22.81 22.81 0 0 1 2.42 32.17 22.81 22.81 0 0 1 -32.17 2.42l-9.5-8.17-57.4 48.25-39.84-47.39 97.9-82.3a31 31 0 0 1 43.63 3.78z" fill="#ffd169"/><path d="m369.22 267.79q-.35 0-.7 0a8.08 8.08 0 0 1 -5.49-2.85l-39.83-47.43a8.08 8.08 0 0 1 1-11.39l97.9-82.3a39.08 39.08 0 0 1 55 4.76 39.09 39.09 0 0 1 -2.9 53.33 30.89 30.89 0 0 1 -43.34 43.82l-4.28-3.68-52.14 43.82a8.08 8.08 0 0 1 -5.22 1.92zm-28.45-54.49 29.44 35 51.21-43a8.08 8.08 0 0 1 10.47.06l9.49 8.17a14.73 14.73 0 1 0 19.21-22.33l-3.86-3.32a8.08 8.08 0 0 1 .07-12.31l5.13-4.31a22.9 22.9 0 0 0 2.78-32.26 22.9 22.9 0 0 0 -32.23-2.79z" fill="#282828"/><path d="m388.41 108.32 30.54-40.43a26.67 26.67 0 0 0 -14.83-34.69 26.67 26.67 0 0 0 -34.69 14.8l-1.56 3.88v-8.4a35.44 35.44 0 0 0 -35.44-35.4 35.44 35.44 0 0 0 -35.43 35.44v166.63c0 38.07-56.7 39.74-58.76 1.72q-.17-3.1-.17-6.45v-99.31a27.15 27.15 0 0 0 -27.15-27.11 27.15 27.15 0 0 0 -27.15 27.15v25.78l-6-8.83a23.46 23.46 0 0 0 -32.6-6.19 23.46 23.46 0 0 0 -6.19 32.6l37.19 54.61v54.77a61.81 61.81 0 0 0 24.78 49.55 89.73 89.73 0 0 1 35.77 71.79v63.18a60.55 60.55 0 0 0 60.55 60.55 60.55 60.55 0 0 0 60.55-60.55v-62.5h1.63a35.3 35.3 0 0 0 35.3-35.3v-22.81a35.31 35.31 0 0 0 -26.88-34.29v-118.92a101.66 101.66 0 0 1 20.54-61.27z" fill="#ffd169"/><path d="m297.27 512a68.71 68.71 0 0 1 -68.64-68.64v-63.17a82 82 0 0 0 -32.54-65.33 69.45 69.45 0 0 1 -28-56v-52.29l-35.8-52.57a31.54 31.54 0 0 1 43.39-44.11v-3.79a35.24 35.24 0 1 1 70.47 0v99.32c0 2.06.05 4.08.16 6 .77 14.22 11.49 20.29 21.78 20s20.82-7 20.82-21.32v-166.58a43.52 43.52 0 0 1 84.84-13.66 34.75 34.75 0 0 1 52.69 41 8.1 8.1 0 0 1 -1.05 1.86l-30.54 40.43a94.13 94.13 0 0 0 -18.85 56.44v113.07a43.26 43.26 0 0 1 26.88 40.14v22.81a43.45 43.45 0 0 1 -36.93 42.9v54.85a68.71 68.71 0 0 1 -68.68 68.64zm-138.93-391.11a15.37 15.37 0 0 0 -12.69 24l37.19 54.61a8.08 8.08 0 0 1 1.4 4.55v54.77a53.42 53.42 0 0 0 21.55 43.08 98.26 98.26 0 0 1 39 78.25v63.18a52.47 52.47 0 1 0 104.95 0v-62.42a8.08 8.08 0 0 1 8.08-8.08h1.63a27.25 27.25 0 0 0 27.22-27.22v-22.81a27.14 27.14 0 0 0 -20.72-26.44 8.08 8.08 0 0 1 -6.16-7.85v-118.92a110.4 110.4 0 0 1 22.21-66.14l29.78-39.45a18.59 18.59 0 0 0 -34.85-13l-1.56 3.88a8.08 8.08 0 0 1 -15.58-3v-8.4a27.35 27.35 0 1 0 -54.71 0v166.67c0 24-18.39 37-36.55 37.47h-1.06c-17.76 0-36-12-37.29-35.33-.12-2.22-.18-4.53-.18-6.88v-99.3a19.07 19.07 0 1 0 -38.15 0v25.78a8.08 8.08 0 0 1 -14.76 4.55l-6-8.83a15.38 15.38 0 0 0 -12.75-6.72z" fill="#282828"/><path d="m331.37 129.06a8.08 8.08 0 0 1 -8.08-8.08v-41a8.08 8.08 0 0 1 16.16 0v41a8.08 8.08 0 0 1 -8.08 8.08z" fill="#fff"/><g fill="#282828"><path d="m203.06 212.11h-26.86a8.08 8.08 0 1 1 0-16.16h26.86a8.08 8.08 0 1 1 0 16.16z"/><path d="m213.25 266.82h-37.05a8.08 8.08 0 1 1 0-16.16h37.05a8.08 8.08 0 0 1 0 16.16z"/><path d="m325.9 48.45h-27a8.08 8.08 0 1 1 0-16.16h27a8.08 8.08 0 0 1 0 16.16z"/><path d="m369.41 183.51h-32.57a8.08 8.08 0 1 1 0-16.16h32.58a8.08 8.08 0 1 1 0 16.16z"/><path d="m367.18 220.81h-32.58a8.08 8.08 0 1 1 0-16.16h32.57a8.08 8.08 0 1 1 0 16.16z"/><path d="m367.18 258.11h-32.58a8.08 8.08 0 1 1 0-16.16h32.57a8.08 8.08 0 1 1 0 16.16z"/><path d="m361 388.41h-40.32a8.08 8.08 0 1 1 0-16.16h40.32a8.08 8.08 0 0 1 0 16.16z"/><path d="m259.75 329.72h-43.91a8.08 8.08 0 0 1 0-16.16h43.92a8.08 8.08 0 0 1 0 16.16z"/></g><path d="m103.68 247.28 10.36 22.15" fill="#ffd169"/><path d="m114 277.51a8.08 8.08 0 0 1 -7.33-4.66l-10.31-22.15a8.08 8.08 0 0 1 14.64-6.85l10.36 22.15a8.09 8.09 0 0 1 -7.36 11.51z" fill="#282828"/><path d="m392.54 335.7h-44a8.08 8.08 0 1 1 0-16.16h44a8.08 8.08 0 0 1 0 16.16z" fill="#282828"/><path d="m448.74 172.95 13.18 7.95" fill="#ffd169"/><path d="m461.91 189a8 8 0 0 1 -4.17-1.16l-13.18-8a8.08 8.08 0 1 1 8.36-13.84l13.18 8a8.08 8.08 0 0 1 -4.18 15z" fill="#282828"/><path d="m201.57 140h-17.9a8.08 8.08 0 0 1 0-16.16h17.9a8.08 8.08 0 1 1 0 16.16z" fill="#282828"/><path d="m357.59 426h-39.65a8.08 8.08 0 0 1 0-16.16h39.65a8.08 8.08 0 1 1 0 16.16z" fill="#282828"/><path d="m135.92 241.08 8.2 18.65" fill="#ffd169"/><path d="m144.13 267.81a8.08 8.08 0 0 1 -7.4-4.83l-8.21-18.65a8.08 8.08 0 0 1 14.79-6.51l8.21 18.65a8.09 8.09 0 0 1 -7.39 11.34z" fill="#282828"/></svg>