<svg id="Capa_1" enable-background="new 0 0 512 512" height="512" viewBox="0 0 512 512" width="512" xmlns="http://www.w3.org/2000/svg"><g><path d="m20.267 509.532-13.336-15.893c-1.819-2.168-1.536-5.4.632-7.219l25.118-21.01 255.066-242.922 188.61-129.433 16.63 19.819c1.819 2.168 1.536 5.4-.632 7.218l-464.869 390.072c-2.168 1.819-5.4 1.536-7.219-.632z" fill="#d37a5f"/><path d="m488.414 82.937-455.734 382.473-16.63-19.819c-1.819-2.168-1.536-5.4.632-7.219l451.809-379.178c6.602-5.54 7.463-15.383 1.923-21.986-5.54-6.602-15.383-7.463-21.986-1.923l-7.371 6.185c-6.557 5.502-16.332 4.646-21.834-1.91-5.502-6.557-4.646-16.332 1.91-21.834l7.371-6.185c19.716-16.543 49.109-13.972 65.653 5.744 16.545 19.715 13.973 49.109-5.743 65.652z" fill="#dd9373"/><path d="m302.003 258.389 4.93-37.028c1.99-4.283 17.261-12.208 17.261-12.208 6.2-17.208 9.384-35.395 9.384-53.757 0-30.348-11.335-59.602-31.782-82.028-5.137-5.633-9.733-11.737-13.728-18.23l-14.464-23.504-10.168-11.654c-1.964-3.193-3.069-4.173-6.817-4.173-3.749 0-7.229 1.945-9.193 5.138l-15.676 34.194c-3.995 6.493-8.591 12.597-13.728 18.23-20.448 22.426-27.536 51.68-27.536 82.028 0 23.084 5.04 45.89 14.768 66.824l16.807 36.168z" fill="#fff5c6"/><path d="m324.194 209.153c-1.599 4.427-3.392 8.782-5.38 13.066l-16.806 36.174h-92.504c-8.86-19.807-23.465-46.657-27.842-68.781-2.48-11.2-3.74-22.678-3.74-34.216 0-15.166 2.839-30.066 8.229-43.982s13.332-26.828 23.559-38.049c5.134-5.626 9.735-11.733 13.732-18.22l23.118-37.588c.984-1.588 2.347-2.88 3.925-3.761 1.588-.881 3.392-1.373 5.267-1.373 3.751 0 7.224 1.947 9.192 5.134l8.661 14.079c-8.845 14.015-20.745 35.985-32.896 47.898-18.64 20.433-28.97 47.097-28.97 74.755-.101 6.593.052 13.837.756 21.205.274 2.87 3.994 3.83 5.609 1.442 7.793-11.524 14.899-19.961 18.905-24.44 4.857-5.441 11.815-8.557 19.101-8.557s14.244 3.115 19.101 8.557c6.748 7.543 22.277 26.315 35.126 52.137.754 1.515 2.198 2.564 3.872 2.813 3.421.506 6.755 1.081 9.985 1.707z" fill="#fae2c0"/><g><path d="m256.11 198.377c-4.245 0-7.686-3.441-7.686-7.686v-74.257c0-4.245 3.441-7.686 7.686-7.686s7.686 3.441 7.686 7.686v74.257c-.001 4.245-3.442 7.686-7.686 7.686z" fill="#fae2c0"/></g><g><path d="m263.795 145.127v45.56c0 4.253-3.443 7.686-7.686 7.686-4.242 0-7.686-3.433-7.686-7.686v-45.56c2.459-.779 5.052-1.189 7.686-1.189s5.227.41 7.686 1.189z" fill="#f4d7c8"/></g><g><path d="m248.747 230.394-33.692-16.131c-3.458-3.216-6.277-20.188-6.277-20.188-14.449-11.214-30.763-19.862-48.226-25.536-28.863-9.378-60.188-7.638-87.834 4.879-6.945 3.144-14.17 5.629-21.58 7.422l-26.823 6.493-14.226 6.069c-3.643.882-4.917 1.629-6.075 5.194-1.158 3.565-.384 7.476 2.045 10.331l27.676 25.475c4.941 5.806 9.325 12.063 13.096 18.689 15.009 26.377 40.641 42.158 69.504 51.536 21.954 7.133 45.201 9.387 68.117 6.605l39.591-4.807z" fill="#fff5c6"/><path d="m208.778 194.075c3.716 2.888 7.304 5.94 10.764 9.154l29.21 27.162-28.585 87.977c-21.575 2.305-51.624 7.899-74.019 5.225-11.419-1.103-22.723-3.451-33.697-7.016-14.424-4.687-27.718-11.991-39.287-21.417s-21.395-20.97-28.907-34.164c-3.764-6.621-8.151-12.884-13.085-18.69l-28.604-33.602c-1.207-1.426-2.014-3.122-2.364-4.895-.347-1.783-.258-3.65.322-5.434 1.159-3.567 4.084-6.269 7.723-7.156l16.066-3.886c10.596 12.743 27.813 30.85 35.388 46.087 13.673 24.042 35.84 42.106 62.145 50.652 6.24 2.133 13.176 4.226 20.4 5.833 2.815.626 4.877-2.615 3.104-4.889-8.552-10.973-14.38-20.338-17.402-25.532-3.674-6.301-4.487-13.881-2.235-20.811 2.251-6.929 7.364-12.584 14.04-15.522 9.259-4.087 31.911-13.055 60.439-17.295 1.674-.249 3.118-1.298 3.872-2.814 1.542-3.096 3.118-6.088 4.712-8.967z" fill="#fae2c0"/><g><path d="m177.49 255.497c-1.312 4.037-5.648 6.246-9.684 4.934l-70.623-22.947c-4.037-1.312-6.246-5.648-4.934-9.684 1.312-4.037 5.648-6.246 9.684-4.934l70.623 22.947c4.036 1.311 6.246 5.647 4.934 9.684z" fill="#fae2c0"/></g><g><path d="m129.221 231.732 43.33 14.079c4.045 1.314 6.245 5.65 4.934 9.684-1.311 4.035-5.64 6.249-9.684 4.934l-43.33-14.079c.019-2.58.431-5.172 1.245-7.677.814-2.503 2.005-4.842 3.505-6.941z" fill="#f4d7c8"/></g></g><g><path d="m205.665 272.393-25.753 27.058c-4.127 2.295-21.14-.269-21.14-.269-15.131 10.277-28.396 23.12-39.189 37.974-17.838 24.552-25.863 54.882-22.502 85.043.844 7.577.975 15.216.391 22.817l-2.114 27.516 1.376 15.405c-.287 3.738.03 5.18 3.062 7.383 3.033 2.203 6.991 2.676 10.457 1.247l32.781-18.449c7.049-2.905 14.355-5.141 21.821-6.679 29.724-6.124 52.653-25.624 70.492-50.177 13.568-18.675 22.896-40.088 27.331-62.742l7.662-39.139z" fill="#fff5c6"/><path d="m158.773 299.183c3.895-2.642 7.906-5.111 12.032-7.408l34.859-19.387 74.837 54.372c-4.475 21.231-8.44 51.538-17.904 72.011-4.577 10.519-10.304 20.545-17.086 29.88-8.915 12.27-19.969 22.656-32.509 30.746s-26.555 13.868-41.424 16.935c-7.46 1.534-14.773 3.77-21.819 6.669l-40.797 16.82c-1.73.707-3.591.95-5.386.736-1.803-.221-3.551-.883-5.068-1.985-3.034-2.205-4.7-5.822-4.419-9.556l1.269-16.481c15.394-6.139 37.935-16.919 54.767-19.414 27.091-5.575 51.12-21.075 67.377-43.45 3.957-5.275 8.091-11.225 11.852-17.599 1.465-2.483-.98-5.446-3.69-4.463-13.079 4.743-23.787 7.391-29.66 8.66-7.128 1.547-14.588-.023-20.483-4.305-5.894-4.283-9.693-10.893-10.424-18.15-1.025-10.069-2.555-34.383 2.228-62.826.281-1.669-.271-3.367-1.48-4.552-2.468-2.424-4.827-4.848-7.072-7.253z" fill="#fae2c0"/><g><path d="m207.52 347.92c3.434 2.495 4.195 7.301 1.7 10.735l-43.647 60.075c-2.495 3.434-7.301 4.195-10.735 1.7s-4.195-7.301-1.7-10.735l43.647-60.075c2.495-3.434 7.301-4.195 10.735-1.7z" fill="#fae2c0"/></g><g><path d="m170.003 386.482 26.78-36.859c2.5-3.441 7.303-4.194 10.735-1.7s4.2 7.295 1.7 10.735l-26.78 36.859c-2.447-.816-4.786-2.008-6.916-3.556-2.131-1.547-3.987-3.403-5.519-5.479z" fill="#f4d7c8"/></g></g><g><path d="m232.296 326.345 17.776 32.854c.907 4.634-6.788 20.022-6.788 20.022 5.098 17.566 13.213 34.151 24.006 49.006 17.838 24.552 44.203 41.557 73.927 47.681 7.467 1.538 14.773 3.775 21.821 6.679l25.516 10.513 15.076 3.452c3.466 1.428 4.935 1.572 7.968-.631 3.033-2.203 4.705-5.822 4.418-9.56l-7.416-36.878c-.585-7.601-.454-15.241.391-22.817 3.361-30.161-8.1-57.995-25.938-82.547-13.568-18.675-31.051-34.163-51.225-45.382l-34.856-19.382z" fill="#fff5c6"/><path d="m243.283 379.221c-1.309-4.521-2.418-9.099-3.327-13.732l-7.666-39.143 74.837-54.373c18.81 10.816 46.408 23.954 62.954 39.28 8.59 7.604 16.355 16.148 23.138 25.483 8.915 12.27 15.376 25.993 19.195 40.419 3.819 14.427 4.983 29.541 3.305 44.63-.847 7.569-.979 15.215-.4 22.812l3.39 43.998c.138 1.863-.206 3.709-.965 5.349-.767 1.647-1.937 3.105-3.454 4.207-3.034 2.205-6.989 2.671-10.454 1.249l-15.282-6.299c-1.082-16.537-4.368-41.307-1.54-58.086 3.07-27.487-4.246-55.131-20.503-77.506-3.794-5.393-8.176-11.164-13.076-16.71-1.909-2.161-5.482-.751-5.385 2.131.469 13.904-.321 24.907-.929 30.884-.731 7.257-4.529 13.867-10.424 18.15-5.894 4.283-13.355 5.852-20.483 4.305-9.893-2.136-33.49-8.195-59.062-21.533-1.501-.783-3.286-.782-4.786.001-3.066 1.597-6.101 3.092-9.083 4.484z" fill="#fae2c0"/><g><path d="m304.699 347.92c3.434-2.495 8.24-1.734 10.735 1.7l43.647 60.075c2.495 3.434 1.734 8.24-1.7 10.735s-8.24 1.734-10.735-1.7l-43.647-60.075c-2.495-3.434-1.734-8.24 1.7-10.735z" fill="#fae2c0"/></g><g><path d="m329.781 395.517-26.78-36.859c-2.5-3.441-1.732-8.242 1.7-10.735 3.432-2.494 8.236-1.74 10.735 1.7l26.78 36.859c-1.532 2.076-3.388 3.931-5.519 5.479-2.13 1.549-4.469 2.741-6.916 3.556z" fill="#f4d7c8"/></g></g><g><path d="m291.836 317.689 36.739-6.753c4.688.569 16.944 12.643 16.944 12.643 18.281.579 36.562-2.013 54.025-7.687 28.863-9.378 53.182-29.198 68.192-55.575 3.77-6.626 8.155-12.883 13.096-18.689l17.884-21.019 7.942-13.272c2.429-2.855 3.021-4.208 1.862-7.773-1.158-3.565-4.083-6.274-7.727-7.156l-37.364-4.342c-7.41-1.793-14.635-4.278-21.58-7.423-27.647-12.517-57.659-10.218-86.522-.84-21.954 7.133-42.086 18.974-58.99 34.695l-29.204 27.161z" fill="#fff5c6"/><path d="m345.519 323.579c-4.704-.152-9.4-.512-14.089-1.079l-39.597-4.805-28.585-87.977c16.099-14.547 37.122-36.734 56.811-47.734 9.886-5.82 20.412-10.565 31.386-14.131 14.424-4.687 29.472-6.591 44.372-5.765s29.635 4.389 43.467 10.648c6.937 3.144 14.167 5.633 21.572 7.429l42.892 10.372c1.815.445 3.464 1.342 4.79 2.571 1.329 1.238 2.354 2.802 2.934 4.585 1.159 3.567.381 7.473-2.042 10.329l-10.714 12.588c-16.062-4.082-40.635-8.61-55.719-16.485-25.193-11.414-53.744-12.998-80.049-4.451-6.302 1.942-13.144 4.326-19.933 7.272-2.645 1.148-2.409 4.982.362 5.78 13.369 3.851 23.588 8.002 29.085 10.427 6.676 2.938 11.789 8.593 14.04 15.522s1.439 14.51-2.235 20.811c-5.089 8.749-18.143 29.318-38.731 49.518-1.208 1.185-1.759 2.883-1.478 4.552.576 3.41 1.059 6.758 1.461 10.023z" fill="#fae2c0"/><g><path d="m334.729 255.497c-1.312-4.037.898-8.373 4.934-9.684l70.623-22.947c4.037-1.312 8.373.898 9.684 4.934 1.312 4.037-.898 8.373-4.934 9.684l-70.623 22.947c-4.036 1.312-8.372-.897-9.684-4.934z" fill="#fae2c0"/></g><g><path d="m387.748 246.351-43.33 14.079c-4.045 1.314-8.373-.9-9.684-4.934-1.311-4.035.89-8.37 4.934-9.684l43.33-14.079c1.501 2.098 2.692 4.437 3.505 6.942.814 2.504 1.225 5.097 1.245 7.676z" fill="#f4d7c8"/></g></g><path d="m332.515 173.666c-1.394 12.102-4.191 24.01-8.321 35.487-3.228-.625-6.558-1.199-9.981-1.711-1.681-.246-3.125-1.291-3.874-2.808-2.326-4.663-4.734-9.1-7.163-13.281 5.001-3.812 10.227-7.317 15.638-10.504 4.447-2.613 9.018-5.011 13.701-7.183z" fill="#fff5c6"/><path d="m365.556 245.366c-8.759-3.86-35.301-14.484-67.453-17.098-1.151-.094-2.152-.821-2.597-1.886-12.421-29.771-30.727-51.731-37.105-58.869-1.224-1.37-3.359-1.37-4.583 0-6.378 7.137-24.684 29.098-37.105 58.869-.445 1.066-1.445 1.793-2.597 1.886-32.152 2.613-58.694 13.237-67.453 17.098-1.681.741-2.341 2.771-1.416 4.359 4.817 8.272 20.046 32.468 44.522 53.481.875.752 1.258 1.927.992 3.05-7.45 31.387-5.549 59.914-4.584 69.437.185 1.828 1.912 3.082 3.708 2.694 9.356-2.025 37.074-9.032 64.623-25.817.985-.6 2.22-.6 3.205 0 27.548 16.785 55.267 23.792 64.623 25.817 1.796.389 3.522-.866 3.708-2.694.965-9.523 2.866-38.051-4.584-69.437-.267-1.123.116-2.298.992-3.05 24.476-21.013 39.705-45.209 44.522-53.481.923-1.588.263-3.618-1.418-4.359z" fill="#fff5c6"/><path d="m292.02 281.042c0 2.479-.284 5.027-.762 7.365 0 0-4.015 5.26-5.736 8.375-6.118 11.07-15.87 17.168-29.413 17.168-19.833 0-29.845-13.075-29.845-32.908 0-12.254 3.778-21.566 13.147-28.046 2.697-1.865 5.118-5.958 5.118-5.958 3.633-1.237 7.528-1.907 11.58-1.907 19.834 0 35.911 16.078 35.911 35.911z" fill="#fcc16d"/><path d="m291.258 288.407c-3.402 16.304-17.841 28.549-35.149 28.549-19.829 0-35.907-16.078-35.907-35.917 0-15.781 10.176-29.185 24.328-34.001-.502 2.377-.758 4.837-.758 7.358 0 19.839 16.078 35.917 35.907 35.917 4.048 0 7.952-.666 11.579-1.906z" fill="#fca62f"/></g></svg>