<svg id="b" height="512" viewBox="0 0 512 512" width="512" xmlns="http://www.w3.org/2000/svg" data-name="Layer 4"><path d="m199.304 299.873c1.283 1.618 2.551 3.309 3.792 5.057 5.765-9.385 15.234-17.102 29.57-20.938 0 0-2.897-25.876 14.557-44.69 4.128-23.493 11.388-49.46 11.388-49.46-7.447-6.247-12.205-15.259-13.106-25.02-.19-.204-.381-.403-.574-.595-5.028 5.349-12.231 8.394-19.779 8.031 0 0-.002.003-.002.003s-9.874 48.663-16.514 79.689l-22.69-78.03h-.002c-10.807 7.24-24.124 10.639-37.686 8.853l19.454 65.446.36.091 5.066 1.28s7.589 27.605 25.974 50.034c.069.085.126.167.193.251z" fill="#93cf00"/><g fill="#00b387"><path d="m58.395 145.446c-2.37-7.232-2.762-15.206-.698-23.117 4.648-17.82 20.308-29.841 37.782-30.671-3.493-10.887-4.053-22.857-.954-34.74 8.694-33.338 42.768-53.314 76.105-44.62 25.152 6.56 42.689 27.567 46.056 51.804 7.951-4.274 17.47-5.679 26.893-3.221 14.733 3.842 25.067 16.029 27.272 30.171 13.294-14.84 34.209-21.915 54.816-16.541 29.362 7.658 46.956 37.668 39.299 67.03-6.358 24.379-28.128 40.629-52.139 41.065-8.62 12.374-24.329 18.704-39.773 14.676-15.899-4.147-26.674-18.011-27.639-33.564-6.163 6.932-15.899 10.245-25.49 7.743-8.153-2.126-14.347-7.97-17.246-15.239-12.153 20.603-36.879 31.566-61.174 25.229-6.623-1.727-12.639-4.6-17.91-8.338-1.719 2.814-3.947 5.231-6.529 7.15-1.529 1.137-3.182 2.097-4.924 2.868 6.553 9.029 9.164 20.811 6.128 32.449-5.383 20.639-26.478 33.007-47.117 27.624-2.771-.723-5.387-1.737-7.838-2.987-5.141 2.341-11.087 3-16.978 1.463-12.824-3.345-20.806-15.882-18.729-28.705-10.848-9.312-16.085-24.308-12.234-39.074 5.027-19.274 23.757-31.33 43.021-28.457z"/><path d="m270.851 91.052c-2.206-14.142-12.54-26.329-27.272-30.171-9.423-2.458-18.942-1.053-26.893 3.221-1.712-12.326-7.096-23.812-15.276-32.992 7.682-11.061 21.709-16.723 35.499-13.127 12.474 3.253 21.408 13.215 23.965 25.006 3.357-.192 6.801.124 10.23 1.018 14.579 3.802 24.326 16.766 24.7 31.109-9.58 2.93-18.239 8.44-24.953 15.935z"/><path d="m94.525 56.917c-3.099 11.883-2.539 23.853.954 34.74-17.474.83-33.135 12.851-37.782 30.671-2.063 7.911-1.671 15.885.698 23.117-11.35-1.692-22.512 1.801-30.797 8.896-4.568-6.125-6.418-14.19-4.339-22.159 2.571-9.859 10.459-16.913 19.787-18.905-3.785-8.521-4.826-18.33-2.29-28.054 5.946-22.797 29.245-36.457 52.042-30.512.737.192 1.463.404 2.181.632-.151.524-.315 1.042-.453 1.574z"/></g><path d="m128.991 429.206s1.699-11.677 7.741-26.819c13.346-33.446 28.637-29.442 59.683-20.536 25.87 7.421 66.393 23.097 80.223 28.974 39.006 16.577 56.743 33.709 64.798 45.532 6.012 8.825 3.687 20.856-5.18 26.805-11.879 7.971-34.722 17.26-77.097 18.112-15.024.302-58.47-.249-85.242-3.001-32.129-3.303-47.811-5.284-47.735-41.294.034-16.303 2.808-27.772 2.808-27.772z" fill="#ffa300"/><path d="m55.698 395.812c20.065 23.707 65.744 38.994 71.928 40.984.689-4.791 1.365-7.59 1.365-7.59s.549-3.764 2.127-9.786c-4.005-12.123-19.551-18.38-19.551-18.38 14.762-23.376-16.2-36.155-16.2-36.155s10.289-26.562-19.093-32.894-42.122 38.364-20.576 63.821z" fill="#93cf00"/><path d="m89.832 420.922c-15.078 2.167-31.647 6.159-43.736 13.492-28.514 17.297-30.627 63.726-.755 67.051 29.872 3.326 28.55-25.129 28.55-25.129s33.417-2.286 26.842-29.14c0 0 16.742-.998 24.385-11.234-6.19-2.103-20.512-7.31-35.287-15.042z" fill="#00b387"/><g><path d="m471.194 397.098c-18.01-1.729-23.404 15.336-23.404 15.336-33.009-14.872-67.348-5.255-91.899 20.994l.006-.012c-28.352-50.221-69.436-26.881-77.319-21.748 5.5 2.385 10.586 4.778 15.252 7.163s0 0 0 0c27.256 13.937 40.845 27.601 47.606 37.524 6.012 8.825 3.688 20.855-5.18 26.805-7.637 5.124-19.817 10.79-38.793 14.412 8.491 2.037 17.34 3.212 26.446 3.417-.002.011-.004.022-.006.033l.015-.033c.963.021 1.928.033 2.896.033h49.847c66.821 0 120.99-54.169 120.99-120.989-21.891-3.303-26.458 17.064-26.458 17.064z" fill="#00b387"/><path d="m447.79 412.435s5.394-17.065 23.404-15.336c0 0 4.567-20.367 26.458-17.064 3.483-43.928-33.065-21.941-33.065-21.941-37.47-17.749-50.046 17.068-50.046 17.068s-35.972-9.014-37.879 41.398c0 0 .011.01.012.01 21.412-12.714 46.628-15.169 71.115-4.136z" fill="#43ce87"/><path d="m355.896 433.417-.006.012c6.338-6.776 13.332-12.434 20.783-16.858-.001-.001-.012-.01-.012-.01 1.906-50.413 37.879-41.398 37.879-41.398s11.116-30.764 43.576-19.708c1.024-9.739-5.545-9.523-5.545-9.523s.543-34.074-16.615-49.037c-17.157-14.963-31.948.172-31.948.172-53.247-3.55-42.466 49.105-42.466 49.105s-36.522 7.199-27.104 62.864c7.458 4.87 14.808 12.602 21.458 24.381z" fill="#93cf00"/><path d="m242.807 354.864c15.178-2.69 23.79 11.802 23.79 11.802 12.86-8.986 50.856-7.69 57.306 37.275 3.495 1.147 7.027 2.803 10.536 5.094-4.845-28.634 2.467-44.442 10.71-53.045-7.656-50.823-49.535-40.584-49.535-40.584s1.309-29.582-18.215-31.357c-18.9-1.718-49.36 34.738-34.664 68.541 0 0-.005.819.072 2.273z" fill="#93cf00"/><path d="m295.614 315.406s41.879-10.239 49.535 40.584c7.782-8.121 16.394-9.82 16.394-9.82s-10.781-52.655 42.466-49.105c0 0 5.109-5.219 12.801-6.494-17.372-32.526-87.939-50.894-130.886-3.284 0 0-.008.006-.01.008 10.575 8.08 9.699 28.111 9.699 28.111z" fill="#d8f68b"/><g fill="#43ce87"><path d="m215.162 374.173c5.419-3.216 11.459-2.576 11.459-2.576s.172-11.244 11.96-15.589c1.462-.539 2.868-.903 4.227-1.144 0 0-.001 0-.002 0-.077-1.454-.072-2.273-.072-2.273-14.696-33.802 15.764-70.259 34.664-68.541 3.454.314 6.244 1.51 8.517 3.247.002-.002.01-.008.01-.008 14.766-16.369 32.796-24.939 50.807-27.816s-30.703-49.287-69.751-33.51-34.315 58.03-34.315 58.03c-53.24 14.247-39.446 81.972-17.503 90.182z"/><path d="m336.731 259.472c34.375-5.49 68.679 9.757 80.078 31.1h-.004c5.4-.896 12.073.15 19.151 6.323 17.157 14.963 16.615 49.037 16.615 49.037s6.569-.216 5.545 9.523c2.07.705 4.224 1.575 6.47 2.639 0 0 21.88-13.157 30.166 1.24 5.712-29.919-14.784-32.4-14.784-32.4s17.749-22.876-6.311-65.08c-24.06-42.203-72.574-19.327-72.574-19.327-3.155-29.582-57.191-51.275-86.677-7.393 13.79 10.642 22.325 24.337 22.325 24.337z"/><path d="m278.577 411.668-71.099-26.409c3.572-15.318 19.143-13.663 19.143-13.663s.172-11.244 11.96-15.589c17.799-6.56 28.015 10.658 28.015 10.658 12.861-8.987 50.858-7.69 57.306 37.279 0 0-20.01-8.174-45.326 7.723z"/></g></g><path d="m415.511 80.15c27.841-13.795 61.793 10.662 56.344 39.419 0 0-21.996-17.181-37.274-16.683 0 0 9.23 15.778 4.837 31.297 0 0-16.46-22.581-33.272-28.827s-44.023.108-44.023.108c6.805-14.622 24.099-20.546 24.099-20.546-11.246-10.353-39.124-11.703-39.124-11.703 14.65-25.338 56.335-21.692 68.414 6.935z" fill="#93cf00"/><path d="m157.477 252.269-46.369-22.372c-5.156 6.465-12.263 11.096-20.194 13.233 0 0 18.926 15.109 35.299 31.009 13.848-7.231 25.004-16.272 31.264-21.87z" fill="#93cf00"/><path d="m90.963 274.313c1.142-.104 2.264-.271 3.364-.49 2.686 4.307 6.362 7.901 10.678 10.495 3.693-2.069 7.43-3.891 11.092-5.463.099-.042.188-.087.289-.129 3.398-1.394 6.681-2.944 9.827-4.586-16.358-15.886-35.265-30.982-35.297-31.008-6.263 1.689-13.036 1.828-19.763.074-2.771-.723-5.387-1.737-7.837-2.987-2.248 1.024-4.651 1.726-7.136 2.063-.008 1.053.034 2.115.132 3.186 1.604 17.534 17.118 30.448 34.652 28.845z" fill="#00b387"/><path d="m247.463 239.048c4.821-5.125 11.165-9.712 19.517-13.087 9.269-3.745 18.067-3.823 26.097-1.765.613-1.438 1.13-2.937 1.536-4.494.289-1.11.514-2.221.681-3.331 11.404-2.446 21.045-11.074 24.189-23.13.991-3.799 1.249-7.617.869-11.306-2.474.391-4.986.624-7.525.67-8.62 12.374-24.329 18.704-39.773 14.676-5.598-1.46-10.556-4.129-14.678-7.649.08.068.155.14.235.207 0 0-7.188 25.708-11.326 49.107.058.035.121.065.179.1z" fill="#00b387"/><path d="m314.408 235.132c29.486-43.879 83.521-22.186 86.676 7.395 0 0 .028-.013.069-.032.013-.006.014-.006.031-.014.057-.026.137-.062.247-.111.009-.004.018-.008.028-.012.113-.05.251-.11.415-.18.002 0 .003-.001.005-.002.166-.071.359-.152.574-.24.016-.007.031-.013.047-.019.443-.182.984-.397 1.615-.636l.024-.009c8.437-3.188 32.802-10.461 52.925 2.497 0 0 .002.001.003.002 8.618-9.486 15.608-20.74 20.345-33.489 12.323-33.167 6.519-68.626-12.41-95.532-7.721-5.042-20.487-12.187-30.418-11.863 0 0 9.23 15.778 4.836 31.296 0 0-16.459-22.581-33.271-28.827s-44.023.108-44.023.108c6.805-14.623 24.099-20.545 24.099-20.545-7.311-6.73-21.645-9.654-30.785-10.877-5.724 1.438-11.304 3.369-16.684 5.748 21.24 11.936 32.65 37.071 26.213 61.753-5.686 21.8-23.698 37.09-44.614 40.395.38 3.689.122 7.506-.869 11.306-3.144 12.056-12.785 20.685-24.189 23.13-.167 1.11-.391 2.221-.681 3.331-.406 1.558-.923 3.057-1.536 4.494 7.964 2.041 15.172 6.183 21.331 10.936z" fill="#fb5657"/><path d="m132.724 413.772c1.052-3.431 2.37-7.28 4.008-11.385 13.346-33.446 28.637-29.442 59.683-20.536 3.463.993 7.193 2.138 11.083 3.385 1.291-5.486 4.119-8.79 7.222-10.769.057-.136.115-.271.171-.407-15.894-6.323-27.351-43.807-11.794-69.132-1.241-1.748-2.509-3.437-3.793-5.055-.067-.084-.124-.166-.193-.251-18.385-22.429-25.974-50.034-25.974-50.034l-5.066-1.28-5.066-1.28s-19.788 20.69-46.619 31.697c-.101.042-.19.087-.289.129-19.546 8.39-41.244 23.912-46.856 46.128-.556 2.203-1.013 4.402-1.387 6.594 2.624-.337 5.434-.228 8.42.415 29.382 6.332 19.093 32.894 19.093 32.894s30.961 12.778 16.199 36.155c0 0 9.704 3.911 15.754 11.532l5.405 1.2z" fill="#ffcea3"/><path d="m163.005 247.029s-1.984 2.07-5.529 5.24l-46.368-22.372s-.006.007-.008.01c3.271-4.098 5.763-8.925 7.171-14.326 3.035-11.638.425-23.42-6.128-32.449 1.742-.771 3.395-1.731 4.924-2.868 2.582-1.92 4.81-4.336 6.529-7.15 5.271 3.738 11.287 6.611 17.91 8.338 2.252.587 4.509 1.025 6.758 1.321-.002 0-.003 0-.005 0l19.454 65.446-4.707-1.189zm62.145-74.768s-9.874 48.663-16.514 79.689l-22.69-78.03h-.002c6.737-4.515 12.501-10.519 16.736-17.697 2.899 7.269 9.093 13.113 17.246 15.239 1.745.455 3.494.713 5.227.796 0 0-.002.003-.002.003z" fill="#00b387"/><g><path d="m501.014 358.365c1.867-11.607.285-20.96-4.723-27.815-2.411-3.3-5.228-5.483-7.805-6.922 4.346-10.511 8.713-32.688-9.601-64.812-3.665-6.429-8.059-11.805-13.102-16.101 7.332-9.118 13.14-19.311 17.265-30.413 4.655-8.828-9.065-13.918-11.249-4.177-3.799 10.223-9.18 19.593-16.024 27.915-8.082-4.092-17.339-6.044-27.588-5.74-9.242.271-17.412 2.341-22.825 4.117-4.717-13.277-17.882-24.509-34.386-28.595-21.83-5.403-43.068 2.399-57.882 20.93-3.781-2.487-7.593-4.512-11.416-6.071 11.603-4.229 20.444-13.8 23.624-25.993.683-2.619 1.076-5.279 1.19-7.953 21.262-5.312 38.598-21.912 44.292-43.748 2.875-11.021 2.615-22.36-.614-32.989 8.618-1.357 23.716-2.871 33.899.913 14.895 5.534 30.36 26.528 30.513 26.736 2.748 4.022 9.448 2.805 10.622-1.9 2.606-9.207 1.17-18.33-.88-25.085 5.661 2.011 11.629 5.338 16.397 8.376 9.175 13.359 14.931 28.87 16.648 44.943.328 3.079 2.931 5.363 5.958 5.363.213 0 .429-.011.645-.035 3.296-.352 5.682-3.308 5.329-6.603-1.495-14.003-5.72-27.626-12.346-40.035.387-.621.668-1.313.808-2.055 2.858-15.084-3.586-30.691-16.817-40.729-10.505-7.971-23.261-11.129-35.404-9.207 3.038-5.626 8.118-12.417 16.396-17.495 2.824-1.733 3.709-5.427 1.977-8.251-1.73-2.825-5.426-3.709-8.252-1.977-11.248 6.901-17.793 16.151-21.512 23.556-7.943-9.438-19.701-15.411-32.904-16.237-16.97-.973-33.774 7.115-40.062 21.96-.708.274-1.408.566-2.11.855-3.756-1.868-7.726-3.372-11.88-4.455-8.77-2.287-17.713-2.564-26.271-1.014-3.102-14.12-13.956-25.751-28.29-29.49-2.367-.618-4.776-1.01-7.204-1.176-4.266-12.208-14.256-21.527-26.993-24.849-13.441-3.508-27.656.498-37.325 10.035-8.043-7.36-17.9-12.837-28.952-15.72-34.01-8.872-68.822 9.597-81.1 41.692-11.558-2.197-23.378-.177-33.622 5.829-11.212 6.574-19.193 17.12-22.473 29.696-2.249 8.62-2.118 17.432.341 25.82-8.757 3.923-15.347 11.584-17.839 21.138-2.012 7.717-1.091 15.743 2.491 22.703-4.823 5.232-8.461 11.681-10.375 19.018-4.066 15.588.432 31.755 11.754 42.951-.843 14.833 8.794 28.313 23.5 32.148 1.913.499 3.863.792 5.819.923 3.044 19.569 20.866 33.701 40.869 31.878.01 0 .021-.002.03-.003.941 1.201 1.961 2.34 3.04 3.421-12.737 8.494-26.538 21.525-31.157 39.808-.256 1.013-.49 2.05-.715 3.094-6.979 2.094-13.049 6.892-17.344 14.049-8.889 14.818-9.894 40.542 5.753 59.031 5.785 6.835 13.446 12.957 21.679 18.3-12.045 2.803-22.039 6.581-29.813 11.296-20.707 12.562-27.923 37.275-24.199 54.149 3.748 23.825 35.588 31.746 51.788 16.965 6.189-5.803 8.291-13.634 8.989-18.833 6.437-1.276 17.209-4.6 23.368-13.026 3.423-4.682 4.969-10.148 4.624-16.309 3.678-.784 8.433-2.19 12.945-4.688-.186 2.914-.309 6.062-.316 9.424-.041 19.37 4.402 31.053 14.408 37.881 9.342 6.375 22.304 7.708 38.713 9.395 17.447 1.793 41.663 2.642 60.622 2.953 9.151.141 17.6.21 25.354.078 14.863-.299 27.422-1.634 38.024-3.584 18.919 5.262 59.527 2.83 79.359 3.335 69.949 0 126.867-56.849 126.986-126.77.69-9.055-.205-16.341-2.649-21.822zm-34.088 32.597c-11.11.663-18.278 7.465-22.092 13.7-15.525-5.792-31.855-6.857-47.564-3.048-4.605 1.117-9.133 2.647-13.552 4.563 1.703-9.981 5.34-17.145 10.871-21.352 8.218-6.251 18.442-3.925 18.509-3.91 2.96.741 6.027-.89 7.092-3.757.045-.12 4.568-12.012 15.494-16.458 5.92-2.409 12.841-2.267 20.629.406 0 0 .002 0 .003.001 1.857.637 3.763 1.416 5.717 2.342 1.815.86 3.939.755 5.661-.281 4.161-2.502 14.396-6.656 19.468-3.518 2.997 1.855 4.62 6.738 4.727 13.973-13.934.458-21.647 9.652-24.962 17.338zm-109.869 32.798c-5.111-7.633-10.819-13.719-17.076-18.26-3.546-24.922 2.39-37.874 9.734-45.658 9.522-10.652 17.749-4.477 17.723-14.927-.042-.208-4.029-20.889 6.555-32.958 6.018-6.862 15.992-9.878 29.632-8.97 1.71.109 3.438-.548 4.659-1.762.03-.03 3.037-2.979 7.508-4.333 5.554-1.684 10.866-.226 16.237 4.458 15.319 14.331 14.346 43.626 14.672 45.672-5.538-.271-10.777.601-15.684 2.623-10.853 4.472-17.089 13.472-20.023 18.924-5.616-.38-15.032.223-23.5 6.577-9.837 7.381-15.423 20.13-16.637 37.912-4.811 3.088-9.43 6.663-13.799 10.702zm-78.94-18.895c-10.317-4.338-35.64-14.238-58.665-22.066-1.1-.889-2.526-.894-3.781-1.273 4.39-5.988 10.929-2.304 14.942-5.504 1.262-1.117 1.996-2.714 2.021-4.399 0-.071.2-7.163 8.037-10.051 12.578-4.636 19.992 6.801 20.779 8.09.852 1.435 2.263 2.451 3.894 2.803 1.63.352 3.335.01 4.703-.946 4.389-3.066 15.384-5.293 26.092-.648 7.047 3.057 15.717 9.905 20.027 25.19-16.578-1.928-31.116 4.809-38.05 8.804zm-80.032-28.848c-5.802-1.664-11.154-3.196-16.154-4.356 5.408-23.162 1.969-48.555-1.102-71.188-1.059-7.8-2.086-15.415-2.712-22.587 4.105 8.103 9.485 17.063 16.316 25.409.066.089.133.176.186.242.444.559.885 1.139 1.325 1.718-3.61 7.069-5.715 15.21-6.148 24.226-.891 18.556 5.664 36.571 15.719 45.546-.594.838-1.152 1.731-1.655 2.709-1.985-.608-3.919-1.186-5.776-1.718zm-39.425-5.705c-11.829 2.608-20.306 11.794-27.484 29.785-.75 1.878-1.432 3.702-2.059 5.463-3.16-3.125-6.631-5.518-9.47-7.193 2.283-5.732 2.553-11.405.795-16.932-2.443-7.677-8.454-13.336-13.692-17.019 2.858-25.045 19.896-48.444 35.016-69.193 9.659-13.255 18.879-25.911 24.123-38.284-1.261 13.379.843 28.896 3.048 45.147 3.107 22.898 6.307 46.517 1.131 67.605-4.004-.319-7.788-.177-11.409.621zm-31.452-103.612c-9.062-8.591-18.378-16.602-24.713-21.902 3.757-2.01 7.155-4.653 10.101-7.595l33.933 16.372c-5.181 4.119-11.776 8.847-19.32 13.125zm-6.548-81.687c1.583-1.177 3.032-2.511 4.357-3.955 4.688 2.697 9.707 4.756 14.988 6.133 1.191.311 2.386.58 3.583.816l16.053 54.005c-1.379 1.052-.933.892-3.219 3.014l-36.479-17.601c1.79-3.239 3.19-6.721 4.148-10.396 2.823-10.824 1.477-22.127-3.624-31.885.063-.046.129-.085.192-.131zm81.67-17.95c4.075 4.84 9.501 8.326 15.716 10.029-2.02 9.909-6.21 30.402-10.322 50.113l-14.831-51.003c3.439-2.674 6.609-5.729 9.437-9.138zm-20.011 15.754 20.146 69.281-2.333 10.75c-1.755 7.55 10.119 10.206 11.722 2.569.792-3.577 1.694-7.738 2.663-12.272 0-.002.001-.004.002-.006 5.379-25.133 12.96-62.236 15.587-75.135 3.91-.466 7.721-1.679 11.268-3.606 2.084 6.588 5.71 12.512 10.502 17.328-2.071 7.719-6.97 26.667-10.255 44.84-5.505 6.336-9.625 13.898-12.181 22.563-2.435 8.253-2.933 15.727-2.938 20.414-9.562 3.301-17.465 8.506-23.467 15.293-16.478-20.576-23.751-45.686-24.081-46.846-.676-3.006-3.671-4.371-6.448-4.82l-16.065-54.044c9.032-.178 17.873-2.369 25.878-6.309zm144.136 72.672c-15.604 4.194-29.888 12.421-41.644 24.219-2.122-.896-4.407-1.478-6.853-1.7-10.602-.961-23.549 6.841-32.974 19.886-11.736 16.243-15.096 35.651-9.357 52.781-8.81 3.588-12.453 10.195-13.946 15.003-2.059.273-4.277.824-6.472 1.724-7.334-4.871-14.23-20.571-13.426-37.347.693-17.766 10.717-34.897 32.449-40.334 2.854-.764 4.727-3.509 4.414-6.447-.165-1.544-3.63-37.986 30.599-51.815 25.319-10.229 47.507 11.983 57.21 24.031zm28.499 86.522c-1.731.732-3.765 1.739-5.93 3.096-3.609-13.193-10.125-23.017-19.448-29.27-10.154-6.811-21.192-7.641-28.196-7.263-.265-2.865-.776-6.329-1.754-9.851-1.252-4.515-3.075-8.352-5.387-11.464 17.819-17.32 42.06-25.431 67.365-22.335 19 2.324 36.404 10.996 45.829 22.37-2.138 1.072-4.021 2.321-5.578 3.586-16.354-.6-28.751 3.85-36.935 13.224-10.683 12.236-10.753 29.341-9.966 37.908zm-54.037 17.85c-12.06-5.23-24.263-4.341-32.578-.942-4.446-4.965-11.621-10.052-20.732-10.435-5.299-13.83-2.714-29.975 7.104-43.562 6.776-9.379 15.876-15.532 22.161-14.962 13.571 1.233 12.773 24.889 12.765 25.116-.083 1.878.731 3.683 2.179 4.882s3.386 1.65 5.216 1.218c.141-.035 14.253-3.231 25.965 4.698 8.014 5.426 13.315 14.911 15.777 28.214-5.838 7.041-11.527 18.462-11.829 36.321-4.741-14.552-13.712-25.206-26.027-30.547zm67.178-142.39c14.699 3.639 25.818 14.177 27.04 25.626.206 1.931 1.334 3.643 3.026 4.594 1.695.952 3.743 1.025 5.498.196.11-.052 11.156-5.19 24.882-5.592 17.703-.51 31.128 7.039 39.921 22.464 21.524 37.755 7.356 57.654 6.783 58.431-1.324 1.707-1.673 3.988-.841 5.982s2.628 3.381 4.773 3.641c.184.028 4.545.738 7.542 4.979 1.763 2.493 2.764 5.833 2.994 9.878-9.388-3.231-20.211 1.103-25.36 3.672-.083-.035-.165-.065-.247-.099-.443-4.162-2.327-7.596-5.615-9.659-.484-10.282-3.252-35.915-18.574-49.277-6.884-6.003-13.731-8.135-19.874-8.115-10.541-16.105-32.379-28.169-56.982-31.179-7.946-.972-15.801-.971-23.441-.058-2.992-4.198-8.883-11.765-16.996-18.897 11.829-14.611 28.487-20.79 45.471-16.586zm-74.042-7.032c-3.312.616-4.722 3.74-5.021 6.79-8.186-1.128-16.338-.107-24.282 3.103-2.99 1.208-5.808 2.609-8.478 4.166 2.123-9.794 4.393-18.909 5.994-25.085 2.901 1.532 6.01 2.754 9.291 3.609 3.571.932 7.193 1.382 10.783 1.382 11.863 0 23.367-4.93 31.553-13.67-.069.309-.118.62-.198.927-2.482 9.517-10.009 16.712-19.641 18.778zm68.527-116.542c-3.131-4.728-6.858-8.936-11.069-12.555 1.449-.456 2.902-.878 4.362-1.263 5.593.813 12.277 2.189 17.873 4.361-3.63 2.3-7.657 5.417-11.166 9.457zm17.921-31.642c10.423.652 23.646 6.291 29.498 20.16.644 1.524 1.888 2.715 3.438 3.292 1.552.576 3.271.487 4.754-.248 13.489-6.686 27.185-2.321 35.506 3.992 6.593 5.002 10.826 11.586 12.234 18.655-8.463-5.278-20.972-11.642-31.53-11.283-2.114.069-4.035 1.245-5.058 3.097-1.021 1.852-.994 4.104.074 5.93.049.084 3.06 5.434 4.475 12.52-6.732-7.019-16.01-15.125-25.641-18.704-6.294-2.338-13.731-3.113-20.835-3.113-3.78 0-7.464.22-10.828.54 5.715-4.467 11.511-6.534 11.594-6.563 2-.685 3.493-2.373 3.928-4.443s-.252-4.215-1.809-5.647c-7.799-7.18-21.393-10.515-31.248-12.042 5.682-4.434 13.186-6.657 21.447-6.14zm-145.093-38.533c9.923 2.588 17.439 10.433 19.617 20.473.625 2.885 3.264 4.892 6.205 4.718 2.822-.162 5.638.12 8.375.833 10.187 2.657 17.836 11.067 19.753 21.188-5.522 2.194-10.743 5.203-15.48 8.983-5.043-11.889-15.337-21.406-28.771-24.909-8.038-2.096-16.327-1.772-23.942.655-2.31-9.081-6.41-17.437-11.935-24.66 6.702-6.84 16.714-9.75 26.179-7.281zm-206.33 109.907c1.925-7.379 7.763-12.956 15.235-14.552 1.768-.378 3.271-1.533 4.093-3.144.82-1.611.871-3.507.137-5.16-3.402-7.658-4.082-15.993-1.967-24.103 2.471-9.475 8.483-17.42 16.931-22.373 7.397-4.337 15.886-5.923 24.243-4.591-1.709 8.891-1.636 17.996.211 26.827-16.98 3.526-31.392 16.327-36.056 34.213-1.58 6.056-1.897 12.246-1.078 18.243-7.642.314-14.918 2.588-21.232 6.421-1.34-3.744-1.548-7.828-.517-11.783zm4.468 80.24c.334-2.063-.429-4.151-2.015-5.512-9.549-8.196-13.51-20.843-10.337-33.007 1.698-6.51 5.248-12.073 9.958-16.237.015-.011.032-.018.047-.029.218-.163.416-.341.605-.526 6.094-5.108 13.997-7.939 22.32-7.568 2.508 5.92 6.228 11.367 11.074 15.932 1.159 1.092 2.638 1.633 4.113 1.633 1.596 0 3.188-.633 4.368-1.886 2.272-2.412 2.159-6.209-.253-8.481-9.352-8.81-13.148-21.996-9.91-34.412 2.364-9.065 8.117-16.667 16.199-21.405s17.524-6.045 26.591-3.682c4.729 1.233 9.055 3.379 12.856 6.377 2.602 2.052 6.375 1.606 8.427-.996s1.606-6.375-.995-8.426c-5.11-4.031-10.918-6.913-17.261-8.566-3.095-.807-6.2-1.283-9.278-1.454-2.136-8.95-2.05-18.29.289-27.259 7.846-30.082 38.704-48.173 68.785-40.328 10.843 2.828 20.29 8.686 27.482 16.585.21.282.448.546.71.792 6.282 7.168 10.742 15.938 12.764 25.619-3.53 2.387-6.74 5.314-9.488 8.747-2.07 2.587-1.651 6.363.936 8.434 2.587 2.07 6.363 1.651 8.434-.936 7.655-9.566 20.259-13.75 32.11-10.658 16.574 4.323 26.542 21.323 22.22 37.897-2.067 7.485 9.717 10.616 11.611 3.028 1.266-4.853 1.638-9.73 1.237-14.465 5.692-5.717 12.561-9.839 19.983-12.176.291-.065.571-.155.844-.26 8.363-2.468 17.387-2.69 26.194-.394 12.65 3.299 23.258 11.327 29.87 22.605 6.611 11.278 8.436 24.456 5.137 37.105-5.514 21.142-24.611 36.184-46.442 36.58-1.924.035-3.714.99-4.813 2.569-7.404 10.627-20.799 15.568-33.337 12.3-12.287-3.205-21.261-13.453-22.935-25.882 2.382-3.205 4.152-6.868 5.19-10.848.836-3.207-1.085-6.484-4.292-7.32-3.201-.835-6.483 1.086-7.319 4.292-1.313 5.036-4.51 9.259-9 11.892-4.489 2.633-9.734 3.358-14.772 2.045-5.036-1.313-9.26-4.51-11.892-9-2.633-4.49-3.359-9.737-2.046-14.773.836-3.207-1.085-6.484-4.292-7.32-3.203-.836-6.482 1.085-7.319 4.292-1.444 5.538-1.358 11.233.182 16.593-11.467 17.18-32.882 25.459-53.053 20.198-4.125-1.076-8.047-2.674-11.721-4.75.386-1.025.738-2.064 1.016-3.129.836-3.207-1.085-6.484-4.292-7.32-3.204-.835-6.482 1.086-7.319 4.292-1.132 4.339-3.627 8.043-7.217 10.711-4.714 3.513-10.797 4.737-16.556 3.226-11.607-1.185-11.81 17.506 12.664 11.667 3.91 7.228 4.974 15.659 2.871 23.725-1.153 4.42-3.179 8.461-5.923 11.945-.095.112-.188.226-.275.346-2.44 3.013-5.423 5.598-8.868 7.618-2.455 1.439-5.046 2.531-7.714 3.282-.205.043-.407.098-.607.162-5.325 1.387-10.941 1.406-16.41-.02-2.273-.593-4.502-1.443-6.624-2.526-1.629-.832-3.55-.874-5.215-.116-4.113 1.874-8.603 2.259-12.977 1.118-9.777-2.55-15.934-11.982-14.32-21.94zm65.887 56.711c-1.321-2.119-3.814-3.199-6.266-2.708-.916.183-1.836.317-2.735.399-13.557 1.236-25.615-8.232-27.86-21.412.185-.061.374-.107.558-.171 8.252 3.594 17.53 4.633 26.312 2.893 4.572 3.734 15.436 12.75 26.313 22.833-3.457 1.466-6.202 2.671-10.339 4.826-2.359-1.859-4.398-4.118-5.983-6.66zm19.029 13.728.267-.119c9.986-4.102 18.984-9.437 26.451-14.623-3.957 6.015-8.477 12.228-13.113 18.59-11.789 16.178-24.674 33.875-31.929 53.321-.089-.175-.169-.352-.263-.527-4.08-7.568-11.591-12.578-22.323-14.89-.762-.164-1.519-.294-2.274-.403 6.35-23.289 32.261-36.661 43.184-41.349zm-58.17 107.562c-11.605-13.712-11.464-33.701-4.622-45.105 3.185-5.31 9.122-11.177 19.354-8.975 7.109 1.532 11.906 4.491 14.255 8.793 3.83 7.017.529 16.006.507 16.067-1.174 3.031.293 6.452 3.291 7.708.994.416 2.471 1.151 4.13 2.142.069.044.14.085.211.127 4.348 2.631 9.882 7.033 11.597 12.476 1.23 3.901.41 8.044-2.508 12.665-.95 1.505-1.184 3.354-.637 5.048.548 1.694 1.818 3.057 3.47 3.722.122.049 11.658 4.897 15.5 13.21-1.079 4.369-1.587 7.347-1.73 8.252-.04.172-.1.446-.168.766-7.028-2.544-18.456-7.036-30.119-13.112-.148-.085-.298-.164-.453-.237-12.024-6.304-24.238-14.285-32.079-23.548zm40.098 49.272c-1.776.106-3.414.995-4.471 2.427-1.057 1.433-1.423 3.26-1 4.989 1.3 5.309.763 9.498-1.644 12.807-4.702 6.469-15.884 8.633-19.779 8.92-3.231.221-5.702 2.998-5.586 6.234.004.096.279 9.668-5.581 15.105-3.594 3.334-9.081 4.618-16.31 3.812-10.396-1.157-14.168-8.608-15.503-14.656-2.866-12.986 3.348-31.986 18.705-41.303 9.286-5.633 22.592-9.795 39.549-12.39 8.834 4.527 17.392 8.149 24.195 10.777-4.821 2.238-10.136 3.118-12.576 3.277zm158.664 54.066c-4.09.082-10.876.098-19.086.006-.245-7.2-.469-20.067.491-30.758.297-3.301-2.139-6.216-5.438-6.513-3.31-.293-6.217 2.139-6.513 5.439-.999 11.115-.808 24.046-.558 31.635-17.513-.377-38.123-1.208-53.405-2.779-2.004-.206-3.923-.403-5.762-.6-.345-9.252-.76-29.047 1.385-40.147.629-3.253-1.499-6.4-4.752-7.029-3.252-.627-6.401 1.5-7.029 4.753-2.24 11.592-2.011 30.53-1.671 40.871-18.037-3.001-24.57-8.944-24.519-33.16.032-15.31 2.616-26.272 2.642-26.381.042-.174.077-.357.104-.534.017-.111 1.703-11.246 7.378-25.465 8.123-20.356 15.682-24.805 30.282-22.55 10.031 1.72 23.785 5.946 35.098 9.537-4.213 9.395-11.685 27.038-13.945 38.736-1.584 7.605 10.383 9.967 11.781 2.276 2.102-10.878 9.711-28.554 13.602-37.172 22.339 7.716 46.08 17.047 55.167 20.909 3.944 1.688 8.027 3.523 11.658 5.275-2.417 5.437-6.183 14.358-9.38 23.913-2.569 7.326 8.972 11.252 11.379 3.809 2.907-8.685 6.382-16.979 8.702-22.236 22.621 12.396 34.063 24.165 39.828 32.626 2.001 2.938 2.731 6.476 2.058 9.965-.674 3.488-2.671 6.5-5.621 8.48-6.978 4.681-18.341 10.003-36.342 13.463-.116.017-.23.041-.345.065-10.162 1.93-22.415 3.27-37.188 3.566zm117.623-.25h-49.81c5.217-2.279 9.415-4.644 12.747-6.879 5.626-3.775 9.433-9.517 10.718-16.168s-.107-13.398-3.922-18.998c-7.01-10.289-21.207-24.813-49.784-39.457-.061-.032-.117-.068-.18-.098-.019-.009-.038-.015-.057-.024-1.324-.677-2.69-1.354-4.077-2.031 7.148-2.802 16.848-4.994 26.999-2.51 12.117 2.963 22.613 12.114 31.201 27.201.443.91 1.121 1.717 2.007 2.322 2.446 1.672 5.746 1.31 7.769-.854 5.934-6.344 12.358-11.562 19.112-15.623.206-.105.406-.221.598-.349 20.279-11.952 43.478-13.502 65.342-3.651 1.563.704 3.352.707 4.915.007 1.564-.7 2.754-2.035 3.271-3.668.16-.508 4.063-12.426 17.11-11.172 2.97.28 5.72-1.709 6.418-4.618.01-.041 1.005-4.083 4.036-7.582 2.717-3.136 6.158-4.842 10.438-5.153-2.977 60.772-53.354 109.304-114.851 109.304z"/><path d="m455.059 34.781c1.535 0 3.071-.586 4.242-1.757l7.09-7.09c2.344-2.343 2.344-6.142 0-8.485-2.342-2.343-6.143-2.343-8.484 0l-7.09 7.09c-2.344 2.343-2.344 6.142 0 8.485 1.171 1.171 2.707 1.757 4.242 1.757z"/><path d="m434.399 26.224c3.313 0 6-2.687 6-6v-10.027c0-3.313-2.687-6-6-6s-6 2.687-6 6v10.026c0 3.313 2.687 6 6 6z"/><path d="m458.138 49.963c0 3.313 2.687 6 6 6h10.026c3.313 0 6-2.687 6-6s-2.687-6-6-6h-10.026c-3.313 0-6 2.687-6 6z"/><circle cx="483.2" cy="186.344" r="6"/></g></svg>