<svg id="Capa_1" enable-background="new 0 0 497 497" height="512" viewBox="0 0 497 497" width="512" xmlns="http://www.w3.org/2000/svg"><g><path d="m428.5 467v22.5c0 4.142-3.358 7.5-7.5 7.5h-22.5l-60-90z" fill="#ff773d"/><path d="m428.5 7.5v22.5l-90 60 60-90h22.5c4.142 0 7.5 3.358 7.5 7.5z" fill="#ff773d"/><path d="m398.5 347v150h-322.5c-4.142 0-7.5-3.358-7.5-7.5v-22.5z" fill="#ff9147"/><path d="m398.5 0v150l-330-120v-22.5c0-4.142 3.358-7.5 7.5-7.5z" fill="#ff9147"/><path d="m413.5 430.79c0 13.58 5.4 26.61 15 36.21h-30l-45-21.21v-394.58l45-21.21h30c-9.6 9.6-15 22.63-15 36.21z" fill="#fc5b32"/><path d="m68.5 30h330c-9.6 9.6-15 22.63-15 36.21v364.58c0 13.58 5.4 26.61 15 36.21h-330c9.61-9.6 15-22.63 15-36.21v-364.58c0-13.58-5.39-26.61-15-36.21z" fill="#ff773d"/><path d="m143.504 377v-75l30-61-30-46v-75c0-16.569 13.431-30 30-30h150c16.569 0 30 13.431 30 30v75l-30 46 30 61v75c0 16.569-13.431 30-30 30h-150c-16.569 0-30-13.431-30-30z" fill="#ffc159"/><path d="m248.504 392c-49.626 0-90-40.374-90-90v-107c0-49.626 40.374-90 90-90s90 40.374 90 90v107c0 49.626-40.374 90-90 90z" fill="#ffe9c4"/><path d="m248.502 377c-41.35 0-75-33.64-75-75v-61h-30v61c0 57.9 47.1 105 105 105 8.27 0 30-6.73 30-15s-21.73-15-30-15z" fill="#ffd787"/><path d="m353.502 195v107c0 57.9-47.1 105-105 105 8.27 0 15-6.73 15-15s-6.73-15-15-15c41.36 0 75-33.64 75-75v-46-61c0-41.36-33.64-75-75-75-41.35 0-75 33.64-75 75v46c0 8.27-6.73 15-15 15s-15-6.73-15-15v-46c0-57.9 47.1-105 105-105s105 47.1 105 105z" fill="#ffe9c4"/><path d="m248.502 332c-16.542 0-30-13.458-30-30v-107c0-16.542 13.458-30 30-30s30 13.458 30 30v107c0 16.542-13.458 30-30 30z" fill="#ffc159"/><path d="m308.502 226c-8.27 0-15 21.73-15 30v46c0 24.81-20.19 45-45 45s-45-20.19-45-45v-107c0-24.81 20.19-45 45-45v-30c-41.35 0-75 33.64-75 75v107c0 41.36 33.65 75 75 75 41.36 0 75-33.64 75-75v-46c0-8.27-6.73-30-15-30z" fill="#ffc159"/><path d="m323.502 195v61c0-8.27-6.73-15-15-15s-15 6.73-15 15v-61c0-24.81-20.19-45-45-45-8.27 0-15-6.73-15-15s6.73-15 15-15c41.36 0 75 33.64 75 75z" fill="#ffd787"/><path d="m248.502 317c-8.27 0-15-6.73-15-15v-61h-30v61c0 24.81 20.19 45 45 45 8.27 0 22.5-6.73 22.5-15s-14.23-15-22.5-15z" fill="#ffd787"/><path d="m293.502 256v46c0 24.81-20.19 45-45 45 8.27 0 15-6.73 15-15s-6.73-15-15-15c8.27 0 15-6.73 15-15v-107c0-8.27-6.73-15-15-15s-15 6.73-15 15v46c0 8.27-6.73 15-15 15s-15-6.73-15-15v-46c0-24.81 20.19-45 45-45s45 20.19 45 45z" fill="#ffe9c4"/></g></svg>