<svg id="Capa_1" enable-background="new 0 0 512 512" height="512" viewBox="0 0 512 512" width="512" xmlns="http://www.w3.org/2000/svg"><g><path d="m228.453 3.061 4.989 39.984h45.109l4.989-39.984c.203-1.625-1.064-3.061-2.702-3.061h-49.681c-1.639 0-2.906 1.436-2.704 3.061z" fill="#e19974"/><path d="m283.538 3.059-4.985 39.99h-13.641l4.995-39.99c.205-1.62-1.067-3.056-2.708-3.056h13.641c1.631 0 2.903 1.436 2.698 3.056z" fill="#dc8758"/><path d="m278.303 132.648v-27.517l6.616-10.41v-51.676h-28.922-28.922v51.675l4.928 13.399-.227 24.529c0 6.529-2.761 12.753-7.601 17.135l-13.635 12.345c-13.734 12.434-21.568 30.097-21.568 48.623l-.198 287.039c0 3.74 3.032 6.772 6.772 6.772h118.784c3.74 0 6.772-3.032 6.772-6.772v-287.039c0-18.526-7.83-36.189-21.564-48.623l-13.635-12.345c-4.84-4.383-7.6-10.607-7.6-17.135z" fill="#dff6fd"/><path d="m321.102 210.75-.001 294.48c0 3.739-3.031 6.769-6.769 6.769h-13.399c3.744 0 6.769-3.026 6.769-6.769v-284.551c0-7.718-1.047-15.599-3.262-23.068-3.953-13.326-12.671-24.734-24.148-32.575l-7.79-5.322c-4.841-4.379-7.6-10.605-7.6-17.139v-99.526h20.02v51.671l-6.62 10.41v27.518c0 6.523 2.759 12.749 7.6 17.138l13.631 12.338c13.734 12.442 21.569 30.104 21.569 48.626z" fill="#c8effe"/><g><path d="m297.695 50.737h-83.396c-4.249 0-7.692-3.443-7.692-7.692s3.443-7.692 7.692-7.692h83.396c4.249 0 7.692 3.443 7.692 7.692s-3.443 7.692-7.692 7.692z" fill="#99e6fc"/></g><path d="m327.728 210.75v45.312l-10.012 78.561 10.012 64.889v105.718c0 3.743-3.036 6.769-6.78 6.769h-129.907c-3.733 0-6.769-3.026-6.769-6.769v-105.717l13.303-66.669-13.303-76.781v-45.313c0-18.523 7.836-36.184 21.569-48.625l13.631-12.338c4.841-4.39 7.6-10.615 7.6-17.138v-37.929h57.846v37.928c0 6.523 2.759 12.749 7.6 17.138l13.641 12.338c13.733 12.442 21.569 30.104 21.569 48.626z" fill="#fee97d"/><path d="m327.722 210.75v45.312l-10.006 78.561 10.006 64.889v105.718c0 1.867-.759 3.569-1.979 4.79-1.22 1.22-2.913 1.98-4.79 1.98h-20.02c3.744 0 6.769-3.026 6.769-6.769v-284.552c0-7.713-1.046-15.6-3.262-23.067-3.949-13.323-12.677-24.738-24.154-32.574l-7.785-5.323c-4.841-4.379-7.6-10.605-7.6-17.139v-47.856h20.02v37.928c0 6.523 2.759 12.749 7.6 17.138l13.641 12.338c.851.769 1.682 1.569 2.492 2.39 2.441 2.461 4.667 5.087 6.667 7.856 7.991 11.078 12.401 24.493 12.401 38.38z" fill="#fedf30"/><path d="m184.272 256.062h143.45v143.45h-143.45z" fill="#fef1da"/><path d="m307.71 256.062h20.013v143.45h-20.013z" fill="#fddeb0"/></g></svg>