<svg id="Capa_1" enable-background="new 0 0 510 510" height="512" viewBox="0 0 510 510" width="512" xmlns="http://www.w3.org/2000/svg" xmlns:xlink="http://www.w3.org/1999/xlink"><linearGradient id="lg1"><stop offset="0" stop-color="#fef1da"/><stop offset=".1565" stop-color="#feeed4"/><stop offset=".3782" stop-color="#fee7c1"/><stop offset=".6388" stop-color="#fddba3"/><stop offset=".9269" stop-color="#fcca79"/><stop offset="1" stop-color="#fbc56d"/></linearGradient><linearGradient id="SVGID_1_" gradientUnits="userSpaceOnUse" x1="99.471" x2="236.495" xlink:href="#lg1" y1="86.212" y2="86.212"/><linearGradient id="lg2"><stop offset="0" stop-color="#fea95c" stop-opacity="0"/><stop offset=".1763" stop-color="#fea556" stop-opacity=".176"/><stop offset=".4259" stop-color="#fe9b43" stop-opacity=".426"/><stop offset=".7179" stop-color="#fe8a25" stop-opacity=".718"/><stop offset="1" stop-color="#fe7701"/></linearGradient><linearGradient id="SVGID_00000010306988567204044320000005515814688592227473_" gradientUnits="userSpaceOnUse" x1="57.036" x2="212.043" xlink:href="#lg2" y1="-7.338" y2="283.301"/><linearGradient id="SVGID_00000013172180688741425050000005489092012970842551_" gradientUnits="userSpaceOnUse" x1="36.573" x2="191.58" xlink:href="#lg2" y1="3.576" y2="294.214"/><linearGradient id="SVGID_00000003791202237953960720000008451666517421745822_" gradientUnits="userSpaceOnUse" x1="55.84" x2="210.847" xlink:href="#lg2" y1="-6.7" y2="283.939"/><linearGradient id="SVGID_00000011733641297485050590000000469386596034231199_" gradientUnits="userSpaceOnUse" x1="135.972" x2="290.979" xlink:href="#lg2" y1="-49.437" y2="241.201"/><linearGradient id="SVGID_00000021092073780302234770000007965003402100449693_" gradientUnits="userSpaceOnUse" x1="112.228" x2="267.235" xlink:href="#lg2" y1="-36.773" y2="253.865"/><linearGradient id="SVGID_00000072979289819186813280000010237069541780194176_" gradientUnits="userSpaceOnUse" x1="109.196" x2="264.203" xlink:href="#lg2" y1="-35.156" y2="255.482"/><linearGradient id="SVGID_00000165941582923063072180000013144394397954650275_" gradientUnits="userSpaceOnUse" x1="70.029" x2="225.037" xlink:href="#lg2" y1="-14.267" y2="276.371"/><linearGradient id="SVGID_00000047047278748332457980000016976397228442583174_" gradientUnits="userSpaceOnUse" x1="110.148" x2="265.156" xlink:href="#lg2" y1="-35.664" y2="254.974"/><linearGradient id="SVGID_00000167377429575365379050000008543388300805922449_" gradientUnits="userSpaceOnUse" x1="183.095" x2="338.102" xlink:href="#lg2" y1="-74.569" y2="216.069"/><linearGradient id="SVGID_00000134963593220706135750000007314364698872998331_" gradientUnits="userSpaceOnUse" x1="159.35" x2="314.358" xlink:href="#lg2" y1="-61.905" y2="228.733"/><linearGradient id="SVGID_00000112590353719023725930000012209009714159337141_" gradientUnits="userSpaceOnUse" x1="157.271" x2="312.278" xlink:href="#lg2" y1="-60.796" y2="229.842"/><linearGradient id="SVGID_00000146473031100288108390000015852700740987522213_" gradientUnits="userSpaceOnUse" x1="129.415" x2="284.422" xlink:href="#lg2" y1="-45.94" y2="244.699"/><linearGradient id="SVGID_00000032633007578068019930000006222595443782801058_" gradientUnits="userSpaceOnUse" x1="143.605" x2="298.612" xlink:href="#lg2" y1="-53.508" y2="237.131"/><linearGradient id="SVGID_00000155116362739193157080000002069793168314126257_" gradientUnits="userSpaceOnUse" x1="174.852" x2="174.852" xlink:href="#lg2" y1="97.868" y2="166.501"/><linearGradient id="SVGID_00000051344160961577847270000016122941951671235751_" gradientUnits="userSpaceOnUse" x1="142.373" x2="238.561" y1="240.35" y2="418.193"><stop offset="0" stop-color="#f89580"/><stop offset="1" stop-color="#c4573a"/></linearGradient><linearGradient id="lg3"><stop offset="0" stop-color="#c4573a" stop-opacity="0"/><stop offset=".2412" stop-color="#bf5539" stop-opacity=".241"/><stop offset=".5203" stop-color="#b14f36" stop-opacity=".52"/><stop offset=".817" stop-color="#9a4632" stop-opacity=".817"/><stop offset="1" stop-color="#883f2e"/></linearGradient><linearGradient id="SVGID_00000151516983901883024740000005871572649410079672_" gradientUnits="userSpaceOnUse" x1="182.453" x2="188.073" xlink:href="#lg3" y1="339.904" y2="224.996"/><linearGradient id="SVGID_00000078726939017665957390000009685646207610336184_" gradientUnits="userSpaceOnUse" x1="252.402" x2="333.555" xlink:href="#lg3" y1="296.228" y2="296.228"/><linearGradient id="SVGID_00000168086773881103014400000005627932891232483977_" gradientUnits="userSpaceOnUse" x1="178.434" x2="178.434" y1="149.977" y2="234.872"><stop offset="0" stop-color="#ffdfcf"/><stop offset="1" stop-color="#ffa78f"/></linearGradient><linearGradient id="lg4"><stop offset="0" stop-color="#f89580" stop-opacity="0"/><stop offset=".2678" stop-color="#f3917c" stop-opacity=".269"/><stop offset=".5696" stop-color="#e68872" stop-opacity=".571"/><stop offset=".8869" stop-color="#cf7761" stop-opacity=".889"/><stop offset=".9972" stop-color="#c5715a"/></linearGradient><linearGradient id="SVGID_00000155142995249652577050000008596509929332000951_" gradientUnits="userSpaceOnUse" x1="168.847" x2="152.758" xlink:href="#lg4" y1="197.173" y2="259.453"/><linearGradient id="SVGID_00000080176342738515158510000002819530242169182610_" gradientUnits="userSpaceOnUse" x1="178.434" x2="178.434" xlink:href="#lg4" y1="214.815" y2="243.884"/><linearGradient id="SVGID_00000093859769909442474800000004821790995049506727_" gradientUnits="userSpaceOnUse" x1="186.709" x2="204.874" xlink:href="#lg4" y1="183.983" y2="245.225"/><linearGradient id="SVGID_00000163754119010019337130000003388061731826257039_" gradientUnits="userSpaceOnUse" x1="295.998" x2="361.97" xlink:href="#lg4" y1="191.445" y2="191.445"/><linearGradient id="SVGID_00000026133223731292993200000006974834457768001442_" gradientUnits="userSpaceOnUse" x1="178.368" x2="178.368" xlink:href="#lg3" y1="367.055" y2="431.47"/><linearGradient id="SVGID_00000118388239398292835240000003906309874523313087_" gradientUnits="userSpaceOnUse" x1="317.773" x2="424.022" xlink:href="#lg1" y1="403.839" y2="403.839"/><linearGradient id="SVGID_00000020391277570673741970000014156524818193475482_" gradientUnits="userSpaceOnUse" x1="334.117" x2="303.568" xlink:href="#lg2" y1="404.635" y2="374.087"/><linearGradient id="SVGID_00000011024610709863052070000004658971624050257800_" gradientUnits="userSpaceOnUse" x1="258.407" x2="413.414" xlink:href="#lg2" y1="310.289" y2="600.927"/><linearGradient id="SVGID_00000091007776026876076540000005242643938997103529_" gradientUnits="userSpaceOnUse" x1="237.944" x2="392.952" xlink:href="#lg2" y1="321.202" y2="611.841"/><linearGradient id="SVGID_00000044156319054565980410000010114232558063904676_" gradientUnits="userSpaceOnUse" x1="257.211" x2="412.218" xlink:href="#lg2" y1="310.927" y2="601.565"/><linearGradient id="SVGID_00000105426329077855216360000010677054901908493725_" gradientUnits="userSpaceOnUse" x1="337.344" x2="492.351" xlink:href="#lg2" y1="268.189" y2="558.828"/><linearGradient id="SVGID_00000014613378489805041540000016562360696338193563_" gradientUnits="userSpaceOnUse" x1="313.599" x2="468.606" xlink:href="#lg2" y1="280.853" y2="571.492"/><linearGradient id="SVGID_00000013187089908703965640000007594260884979671214_" gradientUnits="userSpaceOnUse" x1="310.567" x2="465.574" xlink:href="#lg2" y1="282.47" y2="573.109"/><linearGradient id="SVGID_00000051351624979538883050000003297026752103942067_" gradientUnits="userSpaceOnUse" x1="271.401" x2="426.408" xlink:href="#lg2" y1="303.359" y2="593.997"/><linearGradient id="SVGID_00000137124118982944153030000012910097393151398843_" gradientUnits="userSpaceOnUse" x1="311.52" x2="466.527" xlink:href="#lg2" y1="281.962" y2="572.6"/><linearGradient id="SVGID_00000016041246964508919540000004492347520259276697_" gradientUnits="userSpaceOnUse" x1="384.467" x2="539.474" xlink:href="#lg2" y1="243.057" y2="533.696"/><linearGradient id="SVGID_00000136406099412406419140000007037628663046686353_" gradientUnits="userSpaceOnUse" x1="360.722" x2="515.729" xlink:href="#lg2" y1="255.721" y2="546.359"/><linearGradient id="SVGID_00000090982269256313948920000012379651676085806221_" gradientUnits="userSpaceOnUse" x1="358.643" x2="513.65" xlink:href="#lg2" y1="256.83" y2="547.468"/><linearGradient id="SVGID_00000153698885549681108730000013467501827987199632_" gradientUnits="userSpaceOnUse" x1="330.787" x2="485.794" xlink:href="#lg2" y1="271.686" y2="562.325"/><linearGradient id="SVGID_00000121241792727080048950000012906960816729329540_" gradientUnits="userSpaceOnUse" x1="344.976" x2="499.984" xlink:href="#lg2" y1="264.119" y2="554.757"/><linearGradient id="SVGID_00000176004190511111746670000012386323854162283173_" gradientUnits="userSpaceOnUse" x1="376.224" x2="376.224" xlink:href="#lg2" y1="415.494" y2="484.128"/><linearGradient id="SVGID_00000008857880121333644250000004761744547950423445_" gradientTransform="matrix(.707 .707 -.707 .707 300.465 -95.882)" gradientUnits="userSpaceOnUse" x1="291.585" x2="325.909" xlink:href="#lg1" y1="178.64" y2="212.964"/><linearGradient id="SVGID_00000006700265206227035530000008404458717143337919_" gradientTransform="matrix(.707 .707 -.707 .707 300.465 -95.882)" gradientUnits="userSpaceOnUse" x1="328.054" x2="280.998" xlink:href="#lg2" y1="185.38" y2="226.207"/><linearGradient id="SVGID_00000142146356439010294340000013177451912637523376_" gradientTransform="matrix(.707 .707 -.707 .707 300.465 -95.882)" gradientUnits="userSpaceOnUse" x1="248.005" x2="296.685" xlink:href="#lg1" y1="248.394" y2="297.073"/><linearGradient id="SVGID_00000172421448386984416690000008217939398114227891_" gradientTransform="matrix(-.707 -.707 -.707 .707 -58.746 -455.092)" gradientUnits="userSpaceOnUse" x1="-796.075" x2="-826.697" xlink:href="#lg2" y1="275.003" y2="279.942"/><linearGradient id="SVGID_00000108275924221490488080000017376750956692222592_" gradientTransform="matrix(.707 .707 -.707 .707 300.465 -95.882)" gradientUnits="userSpaceOnUse" x1="273.828" x2="286.63" xlink:href="#lg2" y1="260.279" y2="321.52"/><linearGradient id="SVGID_00000160182567809974260350000002046947697998109580_" gradientTransform="matrix(.707 .707 -.707 .707 300.465 -95.882)" gradientUnits="userSpaceOnUse" x1="332.695" x2="363.073" xlink:href="#lg1" y1="258.689" y2="289.068"/><linearGradient id="SVGID_00000142159363940292664140000008795276354271118748_" gradientTransform="matrix(.707 .707 -.707 .707 300.465 -95.882)" gradientUnits="userSpaceOnUse" x1="345.452" x2="356.87" xlink:href="#lg2" y1="248.931" y2="317.785"/><linearGradient id="SVGID_00000067959105388108365710000015545694832598333864_" gradientTransform="matrix(.707 .707 -.707 .707 300.465 -95.882)" gradientUnits="userSpaceOnUse" x1="333.683" x2="312.231" xlink:href="#lg2" y1="275.003" y2="278.463"/><linearGradient id="SVGID_00000074438868549233616990000014666311608985990571_" gradientTransform="matrix(.707 .707 -.707 .707 300.465 -95.882)" gradientUnits="userSpaceOnUse" x1="248.005" x2="296.685" xlink:href="#lg1" y1="331.434" y2="380.113"/><linearGradient id="SVGID_00000066502177998808899690000012491220761150233987_" gradientTransform="matrix(-.707 -.707 -.707 .707 -58.746 -455.092)" gradientUnits="userSpaceOnUse" x1="-796.075" x2="-826.697" xlink:href="#lg2" y1="358.042" y2="362.981"/><linearGradient id="SVGID_00000008843518156712428570000008255155541508668348_" gradientTransform="matrix(.707 .707 -.707 .707 300.465 -95.882)" gradientUnits="userSpaceOnUse" x1="273.828" x2="286.63" xlink:href="#lg2" y1="343.318" y2="404.56"/><linearGradient id="SVGID_00000164498569617518896290000004159876049934128557_" gradientTransform="matrix(.707 .707 -.707 .707 300.465 -95.882)" gradientUnits="userSpaceOnUse" x1="332.695" x2="363.073" xlink:href="#lg1" y1="341.729" y2="372.107"/><linearGradient id="SVGID_00000088105084966251032750000006507334178034555553_" gradientTransform="matrix(.707 .707 -.707 .707 300.465 -95.882)" gradientUnits="userSpaceOnUse" x1="345.452" x2="356.87" xlink:href="#lg2" y1="331.97" y2="400.824"/><linearGradient id="SVGID_00000054976056831188961870000000910703133508678835_" gradientTransform="matrix(.707 .707 -.707 .707 300.465 -95.882)" gradientUnits="userSpaceOnUse" x1="333.683" x2="312.231" xlink:href="#lg2" y1="358.042" y2="361.502"/><linearGradient id="SVGID_00000106135487699160153800000016265172955979638658_" gradientTransform="matrix(.707 .707 -.707 .707 300.465 -95.882)" gradientUnits="userSpaceOnUse" x1="248.005" x2="296.685" xlink:href="#lg1" y1="414.473" y2="463.152"/><linearGradient id="SVGID_00000132783968223180513140000010125842847844606363_" gradientTransform="matrix(-.707 -.707 -.707 .707 -58.746 -455.092)" gradientUnits="userSpaceOnUse" x1="-796.075" x2="-826.697" xlink:href="#lg2" y1="441.082" y2="446.021"/><linearGradient id="SVGID_00000109025881077384014260000017512040587026813838_" gradientTransform="matrix(.707 .707 -.707 .707 300.465 -95.882)" gradientUnits="userSpaceOnUse" x1="273.828" x2="286.63" xlink:href="#lg2" y1="426.358" y2="487.6"/><linearGradient id="SVGID_00000165234029275771575700000007575518392308924814_" gradientTransform="matrix(.707 .707 -.707 .707 300.465 -95.882)" gradientUnits="userSpaceOnUse" x1="332.695" x2="363.073" xlink:href="#lg1" y1="424.768" y2="455.147"/><linearGradient id="SVGID_00000058549186450627101960000017849968729954854560_" gradientTransform="matrix(.707 .707 -.707 .707 300.465 -95.882)" gradientUnits="userSpaceOnUse" x1="345.452" x2="356.87" xlink:href="#lg2" y1="415.01" y2="483.864"/><linearGradient id="SVGID_00000080900169952692109740000005828211754090051763_" gradientTransform="matrix(.707 .707 -.707 .707 300.465 -95.882)" gradientUnits="userSpaceOnUse" x1="333.683" x2="312.231" xlink:href="#lg2" y1="441.082" y2="444.542"/><linearGradient id="SVGID_00000058580408189651336440000002163342436279685778_" gradientTransform="matrix(.707 .707 -.707 .707 300.465 -95.882)" gradientUnits="userSpaceOnUse" x1="303.094" x2="318.664" xlink:href="#lg1" y1="369.241" y2="369.241"/><g><g><path d="m347.378 156.623-118.048-118.232c-30.073-30.12-78.882-30.12-108.955 0l-118.048 118.232z" fill="url(#SVGID_1_)"/><g><path d="m131.312 123.963c-4.4 0-7.967 3.567-7.967 7.967s3.567 7.967 7.967 7.967 7.967-3.567 7.967-7.967c-.001-4.4-3.567-7.967-7.967-7.967z" fill="url(#SVGID_00000010306988567204044320000005515814688592227473_)"/><path d="m95.763 106.59c-4.4 0-7.967 3.567-7.967 7.967s3.567 7.967 7.967 7.967 7.967-3.567 7.967-7.967-3.567-7.967-7.967-7.967z" fill="url(#SVGID_00000013172180688741425050000005489092012970842551_)"/><path d="m100.209 70.925c-3.075 0-5.567 2.493-5.567 5.568s2.493 5.567 5.567 5.567c3.075 0 5.567-2.493 5.567-5.567 0-3.075-2.492-5.568-5.567-5.568z" fill="url(#SVGID_00000003791202237953960720000008451666517421745822_)"/><circle cx="208.893" cy="87.29" fill="url(#SVGID_00000011733641297485050590000000469386596034231199_)" r="5.567"/><path d="m189.403 102.363c-3.075 0-5.567 2.493-5.567 5.568s2.493 5.567 5.567 5.567c3.075 0 5.567-2.493 5.567-5.567 0-3.076-2.493-5.568-5.567-5.568z" fill="url(#SVGID_00000021092073780302234770000007965003402100449693_)"/><circle cx="203.326" cy="141.338" fill="url(#SVGID_00000072979289819186813280000010237069541780194176_)" r="5.567"/><path d="m128.912 101.705c3.075 0 5.567-2.493 5.567-5.568s-2.493-5.567-5.567-5.567c-3.075 0-5.567 2.493-5.567 5.567 0 3.076 2.492 5.568 5.567 5.568z" fill="url(#SVGID_00000165941582923063072180000013144394397954650275_)"/><circle cx="170.152" cy="76.844" fill="url(#SVGID_00000047047278748332457980000016976397228442583174_)" r="7.967"/><path d="m280.861 103.175c-3.075 0-5.567 2.493-5.567 5.567 0 3.075 2.493 5.568 5.567 5.568 3.075 0 5.567-2.493 5.567-5.568 0-3.074-2.492-5.567-5.567-5.567z" fill="url(#SVGID_00000167377429575365379050000008543388300805922449_)"/><path d="m261.37 123.815c-3.075 0-5.567 2.493-5.567 5.567 0 3.075 2.493 5.568 5.567 5.568 3.075 0 5.567-2.493 5.567-5.568.001-3.075-2.492-5.567-5.567-5.567z" fill="url(#SVGID_00000134963593220706135750000007314364698872998331_)"/><path d="m242.12 90.329c-4.4 0-7.967 3.567-7.967 7.967s3.567 7.967 7.967 7.967 7.967-3.567 7.967-7.967c0-4.401-3.567-7.967-7.967-7.967z" fill="url(#SVGID_00000112590353719023725930000012209009714159337141_)"/><path d="m174.599 33.212c-3.075 0-5.567 2.493-5.567 5.567 0 3.075 2.493 5.568 5.567 5.568 3.075 0 5.567-2.493 5.567-5.568s-2.493-5.567-5.567-5.567z" fill="url(#SVGID_00000146473031100288108390000015852700740987522213_)"/><path d="m203.302 63.991c3.075 0 5.567-2.493 5.567-5.567s-2.493-5.567-5.567-5.567c-3.075 0-5.567 2.493-5.567 5.567s2.492 5.567 5.567 5.567z" fill="url(#SVGID_00000032633007578068019930000006222595443782801058_)"/></g><path d="m2.327 156.623h345.051l-86.992-87.127h-171.068z" fill="url(#SVGID_00000155116362739193157080000002069793168314126257_)"/><path d="m278.631 420.724c8.639 2.46 17.328 4.866 26.079 6.986 26.004 6.298 49.474-17.169 43.176-43.173-2.086-8.612-4.449-17.165-6.869-25.668-1.478-5.194-1.994-10.617-1.486-15.994 5.308-56.218 1.65-112.209-10.985-168.73-100.214-14.233-200.144-14.232-300.356 0-12.635 56.521-16.293 112.512-10.985 168.73.508 5.377-.008 10.8-1.486 15.994-2.42 8.504-4.783 17.056-6.869 25.668-6.298 26.004 17.172 49.472 43.176 43.173 8.751-2.119 17.44-4.525 26.079-6.986 5.078-1.446 10.373-1.942 15.636-1.52 56.435 4.522 112.819 4.523 169.255 0 5.263-.422 10.557.074 15.635 1.52z" fill="url(#SVGID_00000051344160961577847270000016122941951671235751_)"/><path d="m347.886 384.536c-2.086-8.612-4.449-17.165-6.869-25.668-1.478-5.195-1.994-10.617-1.486-15.994 5.308-56.218 1.65-112.209-10.985-168.73-100.214-14.233-200.144-14.232-300.356 0-4.074 18.223-7.2 36.391-9.408 54.53l193.373 193.373c16.944-.542 33.89-1.484 50.841-2.843 5.263-.422 10.558.074 15.636 1.52 8.639 2.46 17.328 4.866 26.079 6.986 26.003 6.298 49.473-17.169 43.175-43.174z" fill="url(#SVGID_00000151516983901883024740000005871572649410079672_)"/><path d="m341.017 358.868c-1.478-5.195-1.994-10.617-1.486-15.994 5.308-56.218 1.65-112.209-10.985-168.73-42.718-6.067-85.385-9.538-128.043-10.433v258.647c20.827-.437 41.657-1.485 62.493-3.155 5.263-.422 10.558.074 15.636 1.52 8.639 2.46 17.328 4.866 26.079 6.986 26.004 6.298 49.474-17.169 43.176-43.173-2.087-8.612-4.45-17.164-6.87-25.668z" fill="url(#SVGID_00000078726939017665957390000009685646207610336184_)"/><g><path d="m352.835 192.404c-5.39-6.019-5.39-16.031 0-24.575 8.784-13.441 1.493-32.623-16.199-29.156-105.202 21.25-211.338 21.251-316.536 0-17.621-4.146-25.33 16.56-16.199 29.156 5.39 8.544 5.39 18.556 0 24.574-10.205 13.513 1.173 32.839 16.199 36.377 105.198 21.249 211.335 21.252 316.536.001 14.795-2.727 26.796-23.593 16.199-36.377z" fill="url(#SVGID_00000168086773881103014400000005627932891232483977_)"/><path d="m352.835 192.404c-5.39-6.019-5.39-16.031 0-24.575 8.784-13.441 1.493-32.623-16.199-29.156-105.202 21.25-211.338 21.251-316.536 0-17.621-4.146-25.33 16.56-16.199 29.156 5.39 8.544 5.39 18.556 0 24.574-10.205 13.513 1.173 32.839 16.199 36.377 105.198 21.249 211.335 21.252 316.536.001 14.795-2.727 26.796-23.593 16.199-36.377z" fill="url(#SVGID_00000168086773881103014400000005627932891232483977_)"/><path d="m356.561 155.473c0 3.135-.685 6.384-2.117 9.456-.457.986-.997 1.952-1.609 2.896-4.671 7.411-5.294 15.913-1.868 21.974-3.706 4.692-8.823 8.211-14.335 9.228-105.201 21.248-211.336 21.248-316.536 0-5.564-1.308-10.629-4.785-14.272-9.332 1.412-2.543 2.117-5.501 2.117-8.636 0-4.318-1.349-8.958-4.038-13.234-.623-.851-1.163-1.744-1.619-2.657-4.09-8.024-2.418-18.123 3.571-23.407 3.425-3.041 8.262-4.494 14.241-3.083 105.201 21.248 211.336 21.248 316.536 0 6.01-1.173 10.826.259 14.21 3.187 3.716 3.218 5.719 8.242 5.719 13.608z" fill="url(#SVGID_00000155142995249652577050000008596509929332000951_)"/><path d="m352.835 192.405c-.716-.799-1.339-1.671-1.868-2.605-3.706 4.692-8.823 8.211-14.335 9.228-105.201 21.248-211.336 21.248-316.536 0-5.564-1.308-10.629-4.785-14.272-9.332-.54.965-1.173 1.879-1.92 2.709-2.71 3.591-3.904 7.598-3.904 11.605 0 11.065 9.072 22.171 20.096 24.766 105.201 21.258 211.336 21.258 316.536 0 14.802-2.719 26.801-23.593 16.203-36.371z" fill="url(#SVGID_00000080176342738515158510000002819530242169182610_)"/><path d="m331.653 182.528c8.822-1.566 16.367-6.988 21.113-14.588.023-.037.046-.074.07-.111 8.784-13.441 1.493-32.623-16.199-29.156-105.202 21.25-211.338 21.251-316.536 0-17.621-4.146-25.33 16.56-16.199 29.156.024.038.047.075.071.113 4.745 7.6 12.291 13.022 21.113 14.588 101.953 18.094 204.609 18.095 306.567-.002z" fill="url(#SVGID_00000093859769909442474800000004821790995049506727_)"/><path d="m352.835 192.404c-5.39-6.018-5.39-16.03 0-24.575 8.784-13.441 1.493-32.623-16.199-29.156-48.814 9.86-97.83 15.137-146.86 15.847v90.107c49.03-.709 98.045-5.986 146.86-15.847 14.795-2.726 26.796-23.592 16.199-36.376z" fill="url(#SVGID_00000163754119010019337130000003388061731826257039_)"/></g><path d="m341.816 301.315h-326.897c.218 13.847.977 27.696 2.285 41.559.508 5.377-.008 10.8-1.486 15.994-2.42 8.504-4.783 17.056-6.869 25.668-6.298 26.004 17.172 49.472 43.176 43.173 8.751-2.119 17.44-4.526 26.079-6.986 5.078-1.446 10.373-1.942 15.636-1.52 56.435 4.522 112.819 4.523 169.255 0 5.263-.422 10.558.074 15.636 1.52 8.639 2.46 17.328 4.866 26.079 6.986 26.004 6.298 49.474-17.169 43.176-43.173-2.086-8.612-4.449-17.165-6.869-25.668-1.478-5.195-1.994-10.617-1.486-15.994 1.309-13.863 2.067-27.713 2.285-41.559z" fill="url(#SVGID_00000026133223731292993200000006974834457768001442_)"/></g><g><path d="m501.908 427.335-71.207-71.318c-30.073-30.12-78.882-30.12-108.955 0l-71.207 71.318c-17.297 17.324-5.027 46.914 19.454 46.914h212.461c24.481 0 36.751-29.589 19.454-46.914z" fill="url(#SVGID_00000118388239398292835240000003906309874523313087_)"/><path d="m501.908 427.335-71.207-71.318c-30.073-30.12-78.882-30.12-108.955 0l-71.207 71.318c-17.297 17.324-5.027 46.914 19.454 46.914h212.461c24.481 0 36.751-29.589 19.454-46.914z" fill="url(#SVGID_00000020391277570673741970000014156524818193475482_)"/><g><path d="m332.683 441.589c-4.4 0-7.967 3.567-7.967 7.967s3.567 7.967 7.967 7.967 7.967-3.567 7.967-7.967-3.567-7.967-7.967-7.967z" fill="url(#SVGID_00000011024610709863052070000004658971624050257800_)"/><path d="m297.134 424.217c-4.4 0-7.967 3.567-7.967 7.967s3.567 7.967 7.967 7.967 7.967-3.567 7.967-7.967-3.567-7.967-7.967-7.967z" fill="url(#SVGID_00000091007776026876076540000005242643938997103529_)"/><path d="m301.58 388.551c-3.075 0-5.567 2.493-5.567 5.568s2.493 5.567 5.567 5.567c3.075 0 5.567-2.493 5.567-5.567.001-3.075-2.492-5.568-5.567-5.568z" fill="url(#SVGID_00000044156319054565980410000010114232558063904676_)"/><circle cx="410.265" cy="404.917" fill="url(#SVGID_00000105426329077855216360000010677054901908493725_)" r="5.567"/><path d="m390.774 419.989c-3.075 0-5.567 2.493-5.567 5.568s2.493 5.567 5.567 5.567c3.075 0 5.567-2.493 5.567-5.567 0-3.076-2.492-5.568-5.567-5.568z" fill="url(#SVGID_00000014613378489805041540000016562360696338193563_)"/><circle cx="404.698" cy="458.965" fill="url(#SVGID_00000013187089908703965640000007594260884979671214_)" r="5.567"/><path d="m330.284 419.332c3.075 0 5.567-2.493 5.567-5.568s-2.493-5.567-5.567-5.567c-3.075 0-5.567 2.493-5.567 5.567-.001 3.075 2.492 5.568 5.567 5.568z" fill="url(#SVGID_00000051351624979538883050000003297026752103942067_)"/><circle cx="371.524" cy="394.47" fill="url(#SVGID_00000137124118982944153030000012910097393151398843_)" r="7.967"/><path d="m482.233 420.801c-3.075 0-5.567 2.493-5.567 5.567 0 3.075 2.493 5.568 5.567 5.568 3.075 0 5.567-2.493 5.567-5.568 0-3.074-2.493-5.567-5.567-5.567z" fill="url(#SVGID_00000016041246964508919540000004492347520259276697_)"/><path d="m462.742 441.441c-3.075 0-5.567 2.493-5.567 5.567 0 3.075 2.493 5.568 5.567 5.568 3.075 0 5.567-2.493 5.567-5.568s-2.492-5.567-5.567-5.567z" fill="url(#SVGID_00000136406099412406419140000007037628663046686353_)"/><path d="m443.492 407.955c-4.4 0-7.967 3.567-7.967 7.967s3.567 7.967 7.967 7.967 7.967-3.567 7.967-7.967c-.001-4.4-3.567-7.967-7.967-7.967z" fill="url(#SVGID_00000090982269256313948920000012379651676085806221_)"/><path d="m375.97 350.838c-3.075 0-5.567 2.493-5.567 5.567 0 3.075 2.493 5.568 5.567 5.568 3.075 0 5.567-2.493 5.567-5.568.001-3.075-2.492-5.567-5.567-5.567z" fill="url(#SVGID_00000153698885549681108730000013467501827987199632_)"/><path d="m404.673 381.618c3.075 0 5.567-2.493 5.567-5.567s-2.493-5.567-5.567-5.567c-3.075 0-5.567 2.493-5.567 5.567s2.493 5.567 5.567 5.567z" fill="url(#SVGID_00000121241792727080048950000012906960816729329540_)"/></g><path d="m269.993 474.25h212.462c24.481 0 36.751-29.59 19.454-46.914l-40.151-40.213h-171.068l-40.151 40.213c-17.297 17.324-5.027 46.914 19.454 46.914z" fill="url(#SVGID_00000176004190511111746670000012386323854162283173_)"/></g><g><g><path d="m341.472 302.76h24.043c29.642 0 53.671-24.029 53.671-53.671v-12.706c0-6.262-5.076-11.338-11.338-11.338h-12.706c-29.642 0-53.671 24.029-53.671 53.671v24.044z" fill="url(#SVGID_00000008857880121333644250000004761744547950423445_)"/><path d="m419.186 249.089v-12.706c0-3.131-1.269-5.965-3.321-8.017l-74.394 74.394h24.043c29.643 0 53.672-24.029 53.672-53.671z" fill="url(#SVGID_00000006700265206227035530000008404458717143337919_)"/></g><g><path d="m300.19 344.042-17.001-17.001c-20.96-20.96-20.96-54.943 0-75.903l8.984-8.984c4.428-4.428 11.606-4.428 16.034 0l8.984 8.984c20.96 20.96 20.96 54.943 0 75.903z" fill="url(#SVGID_00000142146356439010294340000013177451912637523376_)"/><path d="m321.145 255.562c16.902 21.074 15.59 51.935-3.954 71.479l-17.001 17.001-17.001-17.001c-6.018-6.018-10.299-13.113-12.861-20.662z" fill="url(#SVGID_00000172421448386984416690000008217939398114227891_)"/><path d="m317.19 327.041-4.22 4.22c-23.509-23.509-27.414-60.061-12.947-92.422 2.958-.051 5.93 1.057 8.184 3.31l8.984 8.984c20.962 20.963 20.962 54.946-.001 75.908z" fill="url(#SVGID_00000108275924221490488080000017376750956692222592_)"/></g><g><path d="m300.19 344.042 17.001 17.001c20.96 20.96 54.943 20.96 75.903 0l8.984-8.984c4.428-4.428 4.428-11.606 0-16.034l-8.984-8.984c-20.96-20.96-54.943-20.96-75.903 0z" fill="url(#SVGID_00000160182567809974260350000002046947697998109580_)"/><path d="m405.392 344.209c-32.361 14.467-68.913 10.562-92.422-12.947l4.22-4.22c20.962-20.962 54.945-20.962 75.907 0l8.984 8.984c2.254 2.253 3.362 5.225 3.311 8.183z" fill="url(#SVGID_00000142159363940292664140000008795276354271118748_)"/><path d="m388.67 323.087c-21.074-16.902-51.935-15.59-71.479 3.954l-17.001 17.001 17.001 17.001c6.018 6.018 13.113 10.299 20.662 12.861z" fill="url(#SVGID_00000067959105388108365710000015545694832598333864_)"/></g><g><path d="m241.472 402.76-17.001-17.001c-20.96-20.96-20.96-54.943 0-75.903l8.984-8.984c4.428-4.428 11.606-4.428 16.034 0l8.984 8.984c20.96 20.96 20.96 54.943 0 75.903z" fill="url(#SVGID_00000074438868549233616990000014666311608985990571_)"/><path d="m262.427 314.28c16.902 21.074 15.59 51.935-3.954 71.479l-17.001 17.001-17.001-17.001c-6.018-6.018-10.299-13.113-12.861-20.662z" fill="url(#SVGID_00000066502177998808899690000012491220761150233987_)"/><path d="m258.473 385.759-4.22 4.22c-23.509-23.509-27.414-60.061-12.947-92.422 2.958-.051 5.93 1.057 8.184 3.31l8.984 8.984c20.961 20.963 20.961 54.946-.001 75.908z" fill="url(#SVGID_00000008843518156712428570000008255155541508668348_)"/></g><g><path d="m241.472 402.76 17.001 17.001c20.96 20.96 54.943 20.96 75.902 0l8.984-8.984c4.428-4.428 4.428-11.606 0-16.034l-8.984-8.984c-20.96-20.96-54.943-20.96-75.902 0z" fill="url(#SVGID_00000164498569617518896290000004159876049934128557_)"/><path d="m346.674 402.927c-32.361 14.467-68.913 10.562-92.422-12.947l4.22-4.22c20.962-20.962 54.945-20.962 75.907 0l8.984 8.984c2.254 2.252 3.362 5.225 3.311 8.183z" fill="url(#SVGID_00000088105084966251032750000006507334178034555553_)"/><path d="m329.952 381.805c-21.074-16.902-51.935-15.59-71.479 3.954l-17.001 17.001 17.001 17.001c6.018 6.018 13.113 10.299 20.662 12.861z" fill="url(#SVGID_00000054976056831188961870000000910703133508678835_)"/></g><g><path d="m182.754 461.478-17.001-17.001c-20.96-20.96-20.96-54.943 0-75.903l8.984-8.984c4.428-4.428 11.606-4.428 16.034 0l8.984 8.984c20.96 20.96 20.96 54.943 0 75.903z" fill="url(#SVGID_00000106135487699160153800000016265172955979638658_)"/><path d="m203.709 372.997c16.902 21.074 15.59 51.935-3.954 71.479l-17.001 17.001-17.001-17.001c-6.018-6.018-10.299-13.113-12.861-20.662z" fill="url(#SVGID_00000132783968223180513140000010125842847844606363_)"/><path d="m199.755 444.477-4.22 4.22c-23.509-23.509-27.414-60.061-12.947-92.422 2.958-.051 5.93 1.057 8.184 3.31l8.984 8.984c20.961 20.963 20.961 54.946-.001 75.908z" fill="url(#SVGID_00000109025881077384014260000017512040587026813838_)"/></g><g><path d="m182.754 461.478 17.001 17.001c20.96 20.96 54.943 20.96 75.903 0l8.984-8.984c4.428-4.428 4.428-11.606 0-16.034l-8.984-8.984c-20.96-20.96-54.943-20.96-75.903 0z" fill="url(#SVGID_00000165234029275771575700000007575518392308924814_)"/><path d="m287.956 461.645c-32.361 14.467-68.913 10.562-92.422-12.947l4.22-4.22c20.962-20.962 54.945-20.962 75.907 0l8.984 8.984c2.254 2.252 3.363 5.225 3.311 8.183z" fill="url(#SVGID_00000058549186450627101960000017849968729954854560_)"/><path d="m271.234 440.523c-21.074-16.902-51.935-15.59-71.479 3.954l-17.001 17.001 17.001 17.001c6.018 6.018 13.113 10.299 20.662 12.861z" fill="url(#SVGID_00000080900169952692109740000005828211754090051763_)"/></g><path d="m158.449 485.783c-3.04-3.04-3.04-7.969 0-11.01l190.486-190.486c3.04-3.04 7.969-3.04 11.01 0 3.04 3.04 3.04 7.969 0 11.01l-190.487 190.486c-3.04 3.04-7.969 3.04-11.009 0z" fill="url(#SVGID_00000058580408189651336440000002163342436279685778_)"/></g></g></svg>