<?xml version="1.0" encoding="UTF-8" standalone="no"?>
<!-- Created with Inkscape (http://www.inkscape.org/) -->

<svg
   version="1.1"
   id="svg2907"
   xml:space="preserve"
   width="682.66669"
   height="682.66669"
   viewBox="0 0 682.66669 682.66669"
   xmlns="http://www.w3.org/2000/svg"
   xmlns:svg="http://www.w3.org/2000/svg"><defs
     id="defs2911"><clipPath
       clipPathUnits="userSpaceOnUse"
       id="clipPath2921"><path
         d="M 0,512 H 512 V 0 H 0 Z"
         id="path2919" /></clipPath></defs><g
     id="g2913"
     transform="matrix(1.3333333,0,0,-1.3333333,0,682.66667)"><g
       id="g2915"><g
         id="g2917"
         clip-path="url(#clipPath2921)"><g
           id="g2923"
           transform="translate(354.5,449.5)"><path
             d="M 0,0 C -6.436,0 -12.024,-0.258 -16.998,-0.703 L 0,-442 h 30 c 33.137,0 60,26.863 60,60 v 182.638 c 18.667,21.153 30,48.932 30,79.362 C 120,-53.726 66.274,0 0,0"
             style="fill:#953f56;fill-opacity:1;fill-rule:nonzero;stroke:none"
             id="path2925" /></g><g
           id="g2927"
           transform="translate(337.502,448.7969)"><path
             d="m 0,0 c -33.087,-2.963 -38.688,-14.297 -81.502,-14.297 -49.25,0 -49.25,15 -98.5,15 -66.274,0 -120,-53.725 -120,-120 0,-30.43 11.333,-58.209 30,-79.362 v -182.638 c 0,-33.137 26.863,-60 60,-60 h 227 c 33.137,0 60,26.863 60,60 l -60,262 h 90 C 106.998,-57.417 60.158,-6.483 0,0"
             style="fill:#ca3d44;fill-opacity:1;fill-rule:nonzero;stroke:none"
             id="path2929" /></g><g
           id="g2931"
           transform="translate(354.5,419.5)"><path
             d="M 0,0 C -6.978,0 -12.615,-0.328 -17.477,-0.9 L 0,-382 h 30 c 16.542,0 30,13.458 30,30 v 182.638 c 0,7.31 2.669,14.368 7.506,19.85 C 82.012,-133.075 90,-111.939 90,-90 90,-40.374 49.626,0 0,0"
             style="fill:#ffb13f;fill-opacity:1;fill-rule:nonzero;stroke:none"
             id="path2933" /></g><g
           id="g2935"
           transform="translate(384.5,67.5)"><path
             d="m 0,0 v 182.638 c 0,14.631 5.331,28.73 15.013,39.7 C 24.677,233.29 30,247.375 30,262 c 0,45.374 -33.762,82.983 -77.477,89.1 -9.183,-1.081 -15.597,-3.034 -23.033,-5.298 C -84.055,341.676 -99.408,337 -128.5,337 c -29.092,0 -44.445,4.676 -57.99,8.802 -11.371,3.463 -20.352,6.198 -40.51,6.198 -49.626,0 -90,-40.374 -90,-90 0,-21.939 7.988,-43.075 22.494,-59.512 4.837,-5.482 7.506,-12.54 7.506,-19.85 V 0 c 0,-16.542 13.458,-30 30,-30 h 227 c 16.542,0 30,13.458 30,30"
             style="fill:#ffcf70;fill-opacity:1;fill-rule:nonzero;stroke:none"
             id="path2937" /></g><g
           id="g2939"
           transform="translate(165,67.5)"><path
             d="m 0,0 c 0,-4.142 -3.357,-7.5 -7.5,-7.5 -4.143,0 -7.5,3.358 -7.5,7.5 0,4.142 3.357,7.5 7.5,7.5 C -3.357,7.5 0,4.142 0,0"
             style="fill:#000000;fill-opacity:1;fill-rule:nonzero;stroke:none"
             id="path2941" /></g><g
           id="g2943"
           transform="translate(135,97.5)"><path
             d="m 0,0 c 0,-4.142 -3.357,-7.5 -7.5,-7.5 -4.143,0 -7.5,3.358 -7.5,7.5 0,4.142 3.357,7.5 7.5,7.5 C -3.357,7.5 0,4.142 0,0"
             style="fill:#000000;fill-opacity:1;fill-rule:nonzero;stroke:none"
             id="path2945" /></g><g
           id="g2947"
           transform="translate(263.5,359.5)"><path
             d="m 0,0 c 0,-4.142 -3.357,-7.5 -7.5,-7.5 -4.143,0 -7.5,3.358 -7.5,7.5 0,4.142 3.357,7.5 7.5,7.5 C -3.357,7.5 0,4.142 0,0"
             style="fill:#000000;fill-opacity:1;fill-rule:nonzero;stroke:none"
             id="path2949" /></g><g
           id="g2951"
           transform="translate(165,299.5)"><path
             d="m 0,0 c 0,-4.142 -3.357,-7.5 -7.5,-7.5 -4.143,0 -7.5,3.358 -7.5,7.5 0,4.142 3.357,7.5 7.5,7.5 C -3.357,7.5 0,4.142 0,0"
             style="fill:#000000;fill-opacity:1;fill-rule:nonzero;stroke:none"
             id="path2953" /></g><g
           id="g2955"
           transform="translate(392,359.5)"><path
             d="m 0,0 c 0,-4.142 -3.357,-7.5 -7.5,-7.5 -4.143,0 -7.5,3.358 -7.5,7.5 0,4.142 3.357,7.5 7.5,7.5 C -3.357,7.5 0,4.142 0,0"
             style="fill:#000000;fill-opacity:1;fill-rule:nonzero;stroke:none"
             id="path2957" /></g><g
           id="g2959"
           transform="translate(377,127.5)"><path
             d="m 0,0 c 0,-4.142 -3.357,-7.5 -7.5,-7.5 -4.143,0 -7.5,3.358 -7.5,7.5 0,4.142 3.357,7.5 7.5,7.5 C -3.357,7.5 0,4.142 0,0"
             style="fill:#000000;fill-opacity:1;fill-rule:nonzero;stroke:none"
             id="path2961" /></g><g
           id="g2963"
           transform="translate(278.5,228.5)"><path
             d="M 0,0 C 0,-12.426 -10.073,-22.5 -22.5,-22.5 -34.927,-22.5 -45,-12.426 -45,0 -45,12.426 -34.927,22.5 -22.5,22.5 -10.073,22.5 0,12.426 0,0"
             style="fill:#ffb13f;fill-opacity:1;fill-rule:nonzero;stroke:none"
             id="path2965" /></g><g
           id="g2967"
           transform="translate(127.5,329.5)"><path
             d="m 0,0 c 0,-8.284 -6.716,-15 -15,-15 -8.284,0 -15,6.716 -15,15 0,8.284 6.716,15 15,15 C -6.716,15 0,8.284 0,0"
             style="fill:#ffb13f;fill-opacity:1;fill-rule:nonzero;stroke:none"
             id="path2969" /></g><g
           id="g2971"
           transform="translate(354.5,82.5)"><path
             d="m 0,0 c 0,-8.284 -6.716,-15 -15,-15 -8.284,0 -15,6.716 -15,15 0,8.284 6.716,15 15,15 C -6.716,15 0,8.284 0,0"
             style="fill:#ffb13f;fill-opacity:1;fill-rule:nonzero;stroke:none"
             id="path2973" /></g><g
           id="g2975"
           transform="translate(226,176)"><path
             d="m 0,0 c 0,-8.284 -6.716,-15 -15,-15 -8.284,0 -15,6.716 -15,15 0,8.284 6.716,15 15,15 C -6.716,15 0,8.284 0,0"
             style="fill:#ff893b;fill-opacity:1;fill-rule:nonzero;stroke:none"
             id="path2977" /></g><g
           id="g2979"
           transform="translate(422,329.5)"><path
             d="m 0,0 c 0,-4.142 -3.357,-7.5 -7.5,-7.5 -4.143,0 -7.5,3.358 -7.5,7.5 0,4.142 3.357,7.5 7.5,7.5 C -3.357,7.5 0,4.142 0,0"
             style="fill:#000000;fill-opacity:1;fill-rule:nonzero;stroke:none"
             id="path2981" /></g><g
           id="g2983"
           transform="translate(354.5,449.5)"><path
             d="m 0,0 c -49.25,0 -49.25,-15 -98.5,-15 -49.25,0 -49.25,15 -98.5,15 -66.274,0 -120,-53.726 -120,-120 0,-30.43 11.333,-58.209 30,-79.362 V -382 c 0,-33.137 26.863,-60 60,-60 H 30 c 33.137,0 60,26.863 60,60 v 182.638 c 18.667,21.153 30,48.932 30,79.362 C 120,-53.726 66.274,0 0,0 Z"
             style="fill:none;stroke:#000000;stroke-width:15;stroke-linecap:round;stroke-linejoin:round;stroke-miterlimit:10;stroke-dasharray:none;stroke-opacity:1"
             id="path2985" /></g><g
           id="g2987"
           transform="translate(278.5,228.5)"><path
             d="M 0,0 C 0,-12.426 -10.073,-22.5 -22.5,-22.5 -34.927,-22.5 -45,-12.426 -45,0 -45,12.426 -34.927,22.5 -22.5,22.5 -10.073,22.5 0,12.426 0,0 Z"
             style="fill:none;stroke:#000000;stroke-width:15;stroke-linecap:round;stroke-linejoin:round;stroke-miterlimit:10;stroke-dasharray:none;stroke-opacity:1"
             id="path2989" /></g><g
           id="g2991"
           transform="translate(127.5,329.5)"><path
             d="m 0,0 c 0,-8.284 -6.716,-15 -15,-15 -8.284,0 -15,6.716 -15,15 0,8.284 6.716,15 15,15 C -6.716,15 0,8.284 0,0 Z"
             style="fill:none;stroke:#000000;stroke-width:15;stroke-linecap:round;stroke-linejoin:round;stroke-miterlimit:10;stroke-dasharray:none;stroke-opacity:1"
             id="path2993" /></g><g
           id="g2995"
           transform="translate(354.5,82.5)"><path
             d="m 0,0 c 0,-8.284 -6.716,-15 -15,-15 -8.284,0 -15,6.716 -15,15 0,8.284 6.716,15 15,15 C -6.716,15 0,8.284 0,0 Z"
             style="fill:none;stroke:#000000;stroke-width:15;stroke-linecap:round;stroke-linejoin:round;stroke-miterlimit:10;stroke-dasharray:none;stroke-opacity:1"
             id="path2997" /></g><g
           id="g2999"
           transform="translate(226,176)"><path
             d="m 0,0 c 0,-8.284 -6.716,-15 -15,-15 -8.284,0 -15,6.716 -15,15 0,8.284 6.716,15 15,15 C -6.716,15 0,8.284 0,0 Z"
             style="fill:none;stroke:#000000;stroke-width:15;stroke-linecap:round;stroke-linejoin:round;stroke-miterlimit:10;stroke-dasharray:none;stroke-opacity:1"
             id="path3001" /></g><g
           id="g3003"
           transform="translate(97.5,97.5)"><path
             d="m 0,0 v 152.638 c 0,7.31 -2.669,14.368 -7.506,19.85 C -22.012,188.925 -30,210.061 -30,232 c 0,49.626 40.374,90 90,90 20.158,0 29.139,-2.735 40.51,-6.198 13.545,-4.126 28.898,-8.802 57.99,-8.802 29.092,0 44.445,4.676 57.99,8.802 11.371,3.463 20.352,6.198 40.51,6.198 49.626,0 90,-40.374 90,-90 0,-21.939 -7.988,-43.075 -22.494,-59.512 C 319.669,167.006 317,159.948 317,152.638 V -30 c 0,-16.542 -13.458,-30 -30,-30 H 30 C 13.458,-60 0,-46.542 0,-30"
             style="fill:none;stroke:#000000;stroke-width:15;stroke-linecap:round;stroke-linejoin:round;stroke-miterlimit:10;stroke-dasharray:none;stroke-opacity:1"
             id="path3005" /></g><g
           id="g3007"
           transform="translate(256,489.5)"><path
             d="M 0,0 V 15"
             style="fill:none;stroke:#000000;stroke-width:15;stroke-linecap:round;stroke-linejoin:round;stroke-miterlimit:10;stroke-dasharray:none;stroke-opacity:1"
             id="path3009" /></g><g
           id="g3011"
           transform="translate(213.5732,471.9263)"><path
             d="M 0,0 -10.606,10.607"
             style="fill:none;stroke:#000000;stroke-width:15;stroke-linecap:round;stroke-linejoin:round;stroke-miterlimit:10;stroke-dasharray:none;stroke-opacity:1"
             id="path3013" /></g><g
           id="g3015"
           transform="translate(298.4268,471.9263)"><path
             d="M 0,0 10.606,10.607"
             style="fill:none;stroke:#000000;stroke-width:15;stroke-linecap:round;stroke-linejoin:round;stroke-miterlimit:10;stroke-dasharray:none;stroke-opacity:1"
             id="path3017" /></g></g></g></g></svg>
