<svg id="aa78c269-3119-4144-80f9-d6ae63418fe8" height="512" viewBox="0 0 192 192" width="512" xmlns="http://www.w3.org/2000/svg" data-name="Layer 1"><path d="m36 34h120v144h-120z" fill="#877355"/><path d="m40 18-4 16h120l-4-16z" fill="#927e5e"/><path d="m36 62h120v72h-120z" fill="#f5c939"/><path d="m40 6h112v12h-112z" fill="#877355"/><path d="m40 178h112v8h-112z" fill="#7d6948"/><path d="m57.337 103.663-6.672-22.463h5.519l4.032 15.311 4.032-15.311h5.04l-6.672 22.462v11.138h-5.279z" fill="#514b43"/><path d="m76.68 95.36h7.248v4.8h-7.248v9.84h9.12v4.8h-14.4v-33.6h14.4v4.8h-9.12z" fill="#514b43"/><path d="m106.152 114.8h-5.328l-.912-6.1h-6.48l-.912 6.1h-4.847l5.375-33.6h7.728zm-12.052-10.656h5.088l-2.54-16.992z" fill="#514b43"/><path d="m115.7 80.816c5.136 0 7.776 3.072 7.776 8.448v1.056h-4.992v-1.392c0-2.4-.96-3.312-2.64-3.312s-2.639.912-2.639 3.312c0 6.912 10.319 8.208 10.319 17.807 0 5.377-2.688 8.449-7.872 8.449s-7.872-3.072-7.872-8.449v-2.063h4.993v2.4c0 2.4 1.055 3.263 2.735 3.263s2.736-.864 2.736-3.263c0-6.912-10.32-8.208-10.32-17.808.004-5.376 2.644-8.448 7.776-8.448z" fill="#514b43"/><path d="m125.016 81.2h16.319v4.8h-5.519v28.8h-5.28v-28.8h-5.52z" fill="#514b43"/><g fill="#7d6948"><path d="m51.36 10.8h2.88v7.2h-2.88z"/><path d="m60.96 10.8h2.88v7.2h-2.88z"/><path d="m70.56 10.8h2.88v7.2h-2.88z"/><path d="m80.16 10.8h2.88v7.2h-2.88z"/><path d="m89.76 10.8h2.88v7.2h-2.88z"/><path d="m99.36 10.8h2.88v7.2h-2.88z"/><path d="m108.96 10.8h2.88v7.2h-2.88z"/><path d="m118.56 10.8h2.88v7.2h-2.88z"/><path d="m128.16 10.8h2.88v7.2h-2.88z"/><path d="m137.76 10.8h2.88v7.2h-2.88z"/><path d="m147.36 10.8h2.88v7.2h-2.88z"/><path d="m41.76 10.8h2.88v7.2h-2.88z"/></g></svg>