<svg id="Capa_1" enable-background="new 0 0 512 512" height="512" viewBox="0 0 512 512" width="512" xmlns="http://www.w3.org/2000/svg"><g><path d="m481.431 173.816c2.284-12.759 1.545-25.363-1.647-37.131 0 0-4.688-5.672-5.628-8.186-12.365-33.065-41.278-57.276-79.045-56.901-39.139 0-64.002 27.127-75.219 62.556-7.601 23.264-29.657 82.251-85.22 127.655-47.183 38.556-101.479 51.262-125.55 55.761-48.348 7.25-82.765 44.493-82.765 94.861 0 18.62 9.211 50.133 9.211 50.133 17.474 29.589 49.692 49.436 86.544 49.436 9.071 0 17.859-1.21 26.218-3.464l.001.005c40.82-8.727 105.224-28.411 169.296-76.643 110.053-82.846 148.206-196.523 160.94-246.191 1.242-3.848 2.864-11.891 2.864-11.891z" fill="#4fc660"/><path d="m479.783 136.685c-5.604 1.999-10.621 2.39-13.629 2.39 0 0-.515 0-.773-.01-9.89-.175-18.852-4.553-26.136-12.414-.948-1.02-2.472-1.277-3.698-.618-5.46 2.915-11.239 4.42-17.152 4.42-2.132 0-4.286-.206-6.377-.608-8.066-1.576-14.969-5.81-20.397-12.321-.896-1.071-2.4-1.401-3.657-.814-5.532 2.586-11.167 3.925-16.74 3.925-4.193 0-8.272-.742-12.125-2.225-1.218-.47-2.758-1.136-4.481-2.055-2.226-1.187-5.01-.562-6.523 1.457-6.191 8.264-11.047 17.592-14.236 27.661-4.038 12.352-11.785 33.223-25.899 57.041-14.113 23.818-34.593 50.582-64.108 74.688-50.118 40.96-101.679 54.187-127.248 58.968-25.682 3.853-48.367 16.854-64.633 35.582-16.009 18.43-25.785 42.392-26.084 68.641-2.74-9.127-4.213-18.811-4.213-28.835 0-25.178 9.272-48.202 24.58-65.828 15.308-17.637 36.674-29.875 60.842-33.491 24.065-4.502 72.607-16.957 119.789-55.516 27.774-22.705 47.059-47.883 60.348-70.31 13.289-22.417 20.583-42.073 24.384-53.703 4.656-14.701 13.083-27.712 24.137-37.911 24.929-23.166 65.758-31.59 99.567-13.464 21.665 11.361 38.034 31.666 44.462 55.35z" fill="#3bb74f"/><g fill="#3bb74f"><path d="m163.024 461.346c1.607 3.946-.299 8.458-4.244 10.065-.412.165-29.566 10.559-62.048 10.559-15.7 0-32.173-2.431-46.564-9.612-5.439-2.709-10.302-5.975-14.598-9.797-8.633-14.618-13.67-31.616-13.887-49.778 3.111-8.818 8.149-17.091 15.061-24.766 23.632-26.239 69.486-43.525 119.666-45.122 4.316-.124 7.829 3.214 7.963 7.479.144 4.265-3.204 7.84-7.469 7.974-46.121 1.453-87.771 16.792-108.684 40.012-1.617 1.795-3.103 3.63-4.458 5.502-13.226 18.283-7.17 44.292 12.957 54.495.11.056.219.111.33.166 33.8 16.874 87.442 2.009 95.91-1.432 3.946-1.607 8.458.299 10.065 4.255z"/><path d="m272.007 347.388c-2.575-3.41-1.896-8.252 1.514-10.827 39.662-29.896 73.029-68.6 96.497-111.919 19.553-36.118 32.43-75.162 38.282-116.06l4.522-35.273.01-.103c.546-4.234 4.409-7.222 8.654-6.686 4.224.546 7.222 4.419 6.676 8.643l-.34 2.679-4.203 32.76c0 .041-.01.072-.01.113-6.109 42.732-19.563 83.537-40.002 121.283-24.508 45.256-59.359 85.68-100.782 116.905-1.391 1.051-3.029 1.556-4.646 1.556-2.34-.001-4.658-1.063-6.172-3.071z"/><path d="m470.677 83.353-4.172 25.312-1.339 8.128c-.01.093-.031.175-.041.258-12.764 63.943-43.329 157.133-116.524 237.971-54.393 60.09-107.695 86.514-134.634 96.909-.906.361-1.854.525-2.781.525-3.101 0-6.027-1.875-7.211-4.945-1.535-3.976.443-8.458 4.43-9.993 25.651-9.91 76.491-35.15 128.741-92.871 70.784-78.17 100.401-168.465 112.794-230.492l3.348-20.305 2.143-13.021c.7-4.203 4.667-7.046 8.88-6.356s7.067 4.666 6.366 8.88z"/></g><g fill="#30aa44"><path d="m466.505 108.664v.01l-1.339 8.118c-.01.093-.031.175-.041.258-1.37 6.861-2.946 14.062-4.759 21.551-5.161-.855-10.013-2.915-14.443-6.057 1.514-6.367 2.843-12.506 4.018-18.389l3.348-20.305v-.01c4.933 4.44 9.373 9.416 13.216 14.824z"/><path d="m412.822 73.308c5.182 1.051 10.199 2.575 14.999 4.533v.01l-4.203 32.749c0 .041-.01.072-.01.113-.948 6.614-2.06 13.176-3.358 19.687-.618.031-1.236.052-1.854.052-2.132 0-4.286-.206-6.377-.608-2.441-.474-4.78-1.195-6.995-2.163 1.267-6.315 2.359-12.682 3.276-19.1z"/></g><path d="m490.318 76.591c.411-23.553-14.283-50.923-20.248-61.037-1.502-2.547-4.018-4.324-6.92-4.888l-20.391-3.964-30.716-3.482c-2.902-.564-5.901.142-8.247 1.94-9.32 7.144-32.064 22.865-40.506 44.857-10.584 27.573-9.541 41.635 3.77 46.744 4.993 1.917 16.175-.944 16.175-.944 4.338-2.867 8.712-7.103 12.815-12.416 1.113-1.441 3.394-.853 3.668.947 2.103 13.822 7.88 23.647 16.237 25.271s17.394-5.321 24.521-17.349c.072-.121.249-.443.353-.563 1.233-1.427 4.422-2.438 4.876-.821 1.565 5.577 2.145 12.364 4.572 16.358 4.222 6.946 9.576 11.121 15.461 11.224 14.256.249 24.065-12.347 24.58-41.877z" fill="#a3e5a8"/><path d="m383.071 52.169c-8.437 21.984-7.367 36.199.164 43.647-5.913 3.904-11.764 5.276-16.75 3.36-13.31-5.11-17.688-20.47-7.108-48.037 8.448-21.994 32.317-41.866 41.64-49.006 2.349-1.803 5.347-2.503 8.252-1.947l15.411 2.998c-9.344 7.16-33.172 27.011-41.609 48.985z" fill="#90d196"/><path d="m442.759 6.697-4.389 3.915c-6.428 5.748-12.053 12.321-16.709 19.542-3.358 5.202-6.222 10.776-8.509 16.555-1.205 3.029-4.11 4.873-7.191 4.873-.948 0-1.906-.175-2.843-.546-3.966-1.576-5.903-6.068-4.337-10.034 2.668-6.706 5.996-13.176 9.9-19.223 4.358-6.779 9.467-13.063 15.205-18.749z" fill="#90d196"/><g><path d="m457.192 93.706c-.052.124-.113.237-.165.35l-6.751 13.188c-2.431-3.997-4.478-8.903-6.044-14.476-.494-1.751-2.833-2.06-3.76-.494l1.514-2.843c1.082-2.04 2.05-4.141 2.792-6.325 3.245-9.56 2.812-17.832 2.802-17.925-.278-4.255 2.936-7.932 7.201-8.221 4.234-.299 7.932 2.936 8.221 7.191.041.597.897 14.669-5.81 29.555z" fill="#90d196"/></g></g></svg>