<svg id="Layer_3" height="512" viewBox="0 0 64 64" width="512" xmlns="http://www.w3.org/2000/svg" data-name="Layer 3"><path d="m54 14h-44a8 8 0 0 0 -8 8v8a2 2 0 0 0 2 2h1v25a5 5 0 0 0 5 5h44a5 5 0 0 0 5-5v-25h1a2 2 0 0 0 2-2v-8a8 8 0 0 0 -8-8zm-12 24a10 10 0 1 1 -10-10 10 10 0 0 1 10 10z" fill="#f4b2b0"/><g fill="#b3404a"><path d="m54 13h-3v-6a6.006 6.006 0 0 0 -6-6h-26a6.006 6.006 0 0 0 -6 6v6h-3a9.011 9.011 0 0 0 -9 9v8a3 3 0 0 0 3 3v24a6.006 6.006 0 0 0 6 6h44a6.006 6.006 0 0 0 6-6v-24a3 3 0 0 0 3-3v-8a9.011 9.011 0 0 0 -9-9zm-39-6a4 4 0 0 1 4-4h26a4 4 0 0 1 4 4v6h-2v-5a3 3 0 0 0 -3-3h-24a3 3 0 0 0 -3 3v5h-2zm30 1v5h-26v-5a1 1 0 0 1 1-1h24a1 1 0 0 1 1 1zm13 49a4 4 0 0 1 -4 4h-44a4 4 0 0 1 -4-4v-20h15.045c-.03.329-.045.663-.045 1a11 11 0 0 0 22 0c0-.337-.015-.671-.045-1h15.045zm-52-22v-2h16.2a10.931 10.931 0 0 0 -.788 2zm17 3a9 9 0 1 1 9 9 9.01 9.01 0 0 1 -9-9zm35-3h-15.416a10.931 10.931 0 0 0 -.788-2h16.204zm3-5a1 1 0 0 1 -1 1h-19.521a10.987 10.987 0 0 0 -16.958 0h-19.521a1 1 0 0 1 -1-1v-8a7.008 7.008 0 0 1 7-7h44a7.008 7.008 0 0 1 7 7z"/><path d="m29 41v3a1 1 0 0 0 1 1h4a1 1 0 0 0 1-1v-3h3a1 1 0 0 0 1-1v-4a1 1 0 0 0 -1-1h-3v-3a1 1 0 0 0 -1-1h-4a1 1 0 0 0 -1 1v3h-3a1 1 0 0 0 -1 1v4a1 1 0 0 0 1 1zm-2-4h3a1 1 0 0 0 1-1v-3h2v3a1 1 0 0 0 1 1h3v2h-3a1 1 0 0 0 -1 1v3h-2v-3a1 1 0 0 0 -1-1h-3z"/></g></svg>