<svg id="Layer_1" enable-background="new 0 0 512 512" height="512" viewBox="0 0 512 512" width="512" xmlns="http://www.w3.org/2000/svg"><g><path d="m436.2742 220.6447c-.3577 7.6907-.472 13.5394-.9564 19.3573-.3165 3.801.6157 7.1061 2.3792 10.3994 5.8369 10.8998 11.7241 21.7785 17.2579 32.8326 3.6205 7.2321 6.8291 14.6849 9.9215 22.1632 3.7083 8.968 7.1527 18.0471 10.6007 27.1201 1.8026 4.7433 3.4694 9.5452 4.9867 14.3866.542 1.7295.6245 3.6522.6406 5.4892.0884 10.1149.0569 20.2309.1382 30.346.0398 4.9565.1926 9.9135.3878 14.8665.051 1.2947-.3897 2.189-1.4016 2.8568-6.3549 4.1939-12.6406 8.4992-19.0956 12.5335-9.9131 6.1956-20.2871 11.5747-30.8014 16.667-13.9658 6.7641-28.2024 12.9246-42.9012 17.9113-15.3704 5.2146-30.7915 10.2942-46.2892 15.1153-18.2339 5.6723-36.6939 10.5596-55.2545 15.0595-14.2565 3.4564-28.5873 6.528-43.1211 8.5883-14.607 2.0707-29.2336 3.9293-43.9813 4.7185-6.5967.353-13.1854.8964-19.7663 1.4822-2.0517.1826-3.3434-.4899-4.3646-2.2333-5.8011-9.9037-11.6438-19.7833-17.4964-29.6568-5.422-9.1471-10.8741-18.2765-16.3132-27.4135-3.6059-6.0574-7.2553-12.0894-10.7917-18.1871-1.0364-1.787-2.51-2.9828-4.1522-4.1062-12.5137-8.5603-22.3221-19.5338-29.1383-33.0909-5.7611-11.4586-9.3369-23.5964-10.4716-36.3829-.591-6.6597.0572-13.2925 1.3902-19.8411.5055-2.4834 1.1177-4.9496 1.7986-7.391.4209-1.5092.242-2.7838-.8872-3.8748-3.4438-3.3274-6.7945-6.7607-10.3728-9.9372-5.0831-4.5122-11.0309-7.7925-16.7953-11.3306-6.6904-4.1065-12.853-8.8787-18.0532-14.82-6.7189-7.6763-11.002-16.6013-13.6051-26.3922-2.4698-9.2896-3.6158-18.7524-3.3305-28.3522.2314-7.7881 1.2296-15.5057 3.0822-23.0833 4.7642-19.4868 12.2592-37.9015 22.0536-55.3818 8.3044-14.8209 18.2776-28.4456 29.7789-40.951 10.4457-11.3577 21.9814-21.5039 34.2158-30.8821 8.901-6.823 18.169-13.0972 27.8512-18.7531 12.7229-7.4322 25.9558-13.7932 39.8576-18.7136 14.2941-5.0593 28.946-8.6545 44.0204-10.3856 6.6818-.7673 13.3846-1.4169 20.0954-1.8444 4.2476-.2706 8.5403-.2396 12.7901.0222 7.6753.4729 15.3567 1.0208 22.9932 1.9037 9.3374 1.0796 18.5033 3.129 27.5142 5.8376 13.4628 4.0468 26.1849 9.7273 38.0483 17.2832 14.4234 9.1863 26.5297 20.7873 36.0847 34.9888 5.715 8.4942 10.3659 17.5492 13.7438 27.2263 2.6224 7.5127 4.4062 15.2448 5.6312 23.0979.6077 3.896 1.1496 7.8168 1.4209 11.7471.3655 5.293-.363 10.5363-1.3237 15.7402-.1388.752-.2692 1.5056-.4073 2.2577-.3617 1.9704.049 2.8232 1.8289 3.8702 6.3682 3.7459 12.1172 8.2491 16.8719 13.9419 7.0143 8.3981 11.0594 18.1451 12.5622 28.8964.7456 5.3311.8615 10.7498 1.1258 14.2982zm-322.2928 75.7451c1.2668-1.2328 2.5441-2.4549 3.7979-3.7006 1.9829-1.97 1.9768-1.9771.2422-4.1149-.0441-.0544-.1363-.0697-.2846-.1411-2.396 1.4992-4.1896 3.6167-5.7073 6.0018-.6554.7893-1.3587 1.5443-1.9551 2.3759-.9169 1.2787-1.7604 2.6101-2.6351 3.9191-.4707.3541-1.0948.6119-1.3872 1.0779-1.8121 2.8871-3.819 5.6948-5.2587 8.7645-3.4862 7.4337-5.0343 15.4061-5.3779 23.5562-.1562 3.7047.0315 7.5276.791 11.144 1.2601 6.0002 2.871 11.9542 4.7707 17.7854 2.1727 6.6689 5.2512 12.9666 9.2301 18.7909 2.9401 4.3036 6.4004 8.1254 10.2143 11.675 3.862 3.5942 7.7602 7.1461 12.2449 9.9307 3.5433 2.2 7.1296 4.4585 10.9691 6.0226 5.2272 2.1294 10.68 3.7353 16.1002 5.3505 3.8377 1.1436 7.7636 2.015 11.6832 2.8531 3.7986.8123 7.6257 1.5176 11.4661 2.0995 3.0869.4676 6.2099.9272 9.3211.9574 7.5735.0736 15.152-.0121 22.723-.2271 2.9885-.0848 5.9701-.6311 8.9407-1.0641 2.494-.3636 4.9617-.9038 7.4515-1.3002 2.6098-.4155 5.3204-.4494 7.8321-1.1814 7.4439-2.1692 14.8136-4.5933 22.2083-6.9308 7.1461-2.2589 14.2101-4.7643 20.7456-8.4726 4.2551-2.4144 8.3248-5.1588 12.4424-7.8099 1.0087-.6494 1.8798-1.5124 3.0935-2.5058-3.0562-.5219-5.7367-.9795-8.4171-1.4372-.2739-.155-.5304-.3852-.8244-.453-2.2126-.5103-4.3845-.4375-6.4582.5888-2.3726 1.1742-4.7086 2.4268-7.1122 3.5331-6.8679 3.161-14.0161 5.5114-21.3278 7.4287-7.8485 2.0581-15.854 3.0514-23.8888 3.9348-1.767.1943-3.5074.6311-5.26.9562-4.1863.075-8.3726.2157-12.5587.2087-5.4772-.0092-10.9607.0034-16.4293-.2541-4.4786-.2108-8.9883-.5235-13.3955-1.2966-5.5934-.9811-11.1287-2.3512-16.6312-3.7766-6.4343-1.6668-12.6186-4.0761-18.6098-6.9614-4.7851-2.3044-9.3631-4.949-13.7806-7.9185-5.9259-3.9835-11.4174-8.4315-16.3935-13.5621-3.7452-3.8615-7.0375-8.0402-9.8633-12.6014-4.2442-6.8507-6.4807-14.3418-6.6909-22.3629-.0878-3.3506.235-6.7492.7379-10.0704 1.014-6.6966 3.6713-12.8522 6.6942-18.8659.8394-1.6698 1.462-3.4486 2.1841-5.1775 1.4544-2.2561 2.9088-4.5124 4.3631-6.7687zm175.7279 81.5545c-2.773.3319-5.5473.6543-8.3166 1.0143-.2136.0278-.3929.3196-.5881.4888.2451.2171.4588.5624.7402.6313 2.7928.6844 5.5968 1.3231 8.3976 1.9747 2.3428.408 4.6857.8159 7.0286 1.2239 1.2112.2021 2.419.4289 3.6344.6014 3.2244.4577 6.4521.8919 9.6786 1.3354.1761.0784.3495.2178.5288.2259 2.1172.0963 4.2355.2458 6.3529.2375 3.0816-.0121 6.1624-.156 9.2441-.2157 1.7256-.0334 3.4523-.0103 5.1786-.0127 1.6531-.0077 3.3117.0688 4.9581-.0398 3.959-.2611 7.9125-.6052 11.8677-.9234 2.0379-.1639 4.1089-.1655 6.1054-.5496 6.2152-1.1958 12.4114-2.4958 18.5976-3.8358 8.6697-1.8778 17.1243-4.4422 25.0062-8.5877 3.1573-1.6606 6.2568-3.4852 9.1763-5.5297 3.4054-2.3848 6.771-4.8923 9.8054-7.7204 2.5662-2.3918 4.7572-5.2239 6.8956-8.0279 3.1479-4.1277 5.2416-8.8232 6.7341-13.7841.0973-.3235.0127-.7018.0127-1.0546-.1429-.0393-.2858-.0786-.4288-.118-.3571.5905-.7562 1.16-1.0646 1.7749-2.0328 4.0527-4.6647 7.6938-7.6877 11.0474-3.653 4.0525-7.7942 7.6093-12.3567 10.5459-5.1212 3.2963-10.3988 6.4045-15.8372 9.1397-6.8582 3.4493-14.0175 6.2493-21.3726 8.5269-5.2261 1.6183-10.5341 2.8139-15.9431 3.579-2.4969.3532-4.997.7254-7.5088.9204-1.9453.151-3.9117.0657-5.867.0188-.3033-.0073-.598-.3712-.8967-.5702.3133-.2024.6053-.5287.9435-.5871 2.0904-.3609 4.181-.785 6.2905-.9576 5.2015-.4256 10.1826-1.7794 15.1188-3.3568 3.8671-1.2358 7.7495-2.4309 11.5773-3.7797 2.6844-.9459 5.294-2.1065 7.9219-3.2075.3758-.1574.6661-.519.996-.786 1.6548-.4896 3.416-.7628 4.9427-1.5132 3.3164-1.63 6.5419-3.4532 9.7526-5.2884 6.491-3.7104 12.4564-8.1169 17.7407-13.4394 5.0116-5.0479 9.011-10.7211 10.8166-17.6771.7298-2.8115.9589-5.7529 1.4159-8.6353.4776-4.7357.9551-9.4713 1.4327-14.207.1864-1.4251.5137-2.8485.5313-4.2758.0443-3.5895-.4962-7.1292-1.783-10.4773-1.0865-2.8267-2.4696-5.5395-3.7214-8.3027-.4022-.7837-.7736-1.5851-1.2125-2.3476-1.2578-2.1859-2.5431-4.356-4.0574-6.942-.3088.508-.4732.8831-.728 1.1809-1.9052 2.2271-3.7168 4.5489-5.772 6.6293-2.998 3.0348-6.278 5.8163-10.0521 7.8124-2.2895 1.2108-3.4048 3.0624-4.2772 5.2462-2.4186 6.0547-5.4576 11.7915-8.7778 17.3919-1.4306 2.4132-2.7549 4.8895-4.1275 7.337-.1612.1749-.3316.3423-.4823.5259-3.82 4.657-7.3981 9.5426-11.5282 13.9058-3.6584 3.8649-7.8373 7.2615-11.9531 10.6631-6.3194 5.2228-13.4165 9.272-20.6476 13.0775-8.4842 4.4651-17.3492 8.0655-26.3 11.4649-3.4622 1.2985-6.9245 2.597-10.3867 3.8954-1.3143.3192-2.6394.5998-3.9409.9648-3.9411 1.1057-7.8727 2.2436-11.8078 3.3688zm-107.6407-257.961c1.1158-1.0555 1.0938-1.3327-.0626-2.2248-.6989-.5393-1.359-1.1304-2.0209-1.716-5.0614-4.4784-10.4711-8.4123-16.8635-10.8147-5.9041-2.7454-12.0813-4.5322-18.6083-4.6151-3.9699-.0504-7.9799.1494-11.9131.6759-10.5546 1.4129-20.6092 4.4475-29.6957 10.18-2.934 1.851-5.577 4.079-7.6153 6.941-3.0766 2.8424-5.517 6.2166-7.3697 9.9109-2.6975 5.3788-5.0268 10.9415-7.5536 16.407-.6407 1.3858-.685 2.7839-.4565 4.2369.4594 2.5837.9188 5.1674 1.3781 7.7512.2437.932.4819 1.8654.7318 2.7957 1.6953 6.3112 4.1001 12.289 8.0037 17.609 1.3788 1.8792 3.0888 2.8563 5.4053 2.8679 1.368.0069 2.7351.1144 4.1033.1488 9.5693.2406 19.1093-.1167 28.5401-1.8573 4.6334-.8551 9.2039-2.0467 13.8136-3.0361 2.7111-.5818 5.4432-1.0657 8.339-1.6272-2.0656-3.4878-3.8495-6.9272-2.7515-11.3195.4801.5333.826.852 1.0943 1.2263 1.8539 2.5865 3.7045 5.1756 5.5293 7.7827.9356 1.3367 2.1211 2.1104 3.8056 2.2037 3.1771.176 6.3486.4529 9.5222.6897.8194.0611 1.6384.1286 2.5435.2-.038-.5587-.0646-.9168-.0864-1.2752-.225-3.698-.6244-7.3955-.638-11.0943-.0306-8.3315 1.3817-16.4451 4.3351-24.2525 1.2807-3.3856 2.717-6.7124 4.0825-10.0659 1.4694-2.5763 2.9385-5.1522 4.4077-7.7281zm-80.677 88.5328c.5161-1.268 1.0323-2.5361 1.5484-3.8041.1426.0253.2852.0506.4277.076v4.8246c1.2165-1.5305 2.1682-3.0624 3.0952-4.6091 1.7129-2.858 3.4112-5.7247 5.1156-8.5879 2.3739-2.5231 4.7478-5.0461 7.1216-7.5692-.0601-.1516-.1202-.3031-.1803-.4547-5.6979-.6128-11.4175.2924-17.1207.0439-1.6195-.0209-2.6758.8692-3.4095 2.8734-.1628.1021-.3652.1711-.4826.3113-2.3519 2.8102-3.3525 6.2504-4.0323 9.6996-.7718 3.9163-1.0343 7.9323-1.5367 11.9026-.5648 4.463-.2744 8.92.3159 13.3383.9196 6.8833 3.2825 13.3923 5.5529 19.914.0301.0865.1673.1358.4064.3186.0996-.377.2462-.657.2348-.9305-.1321-3.1677-.3336-6.3332-.4177-9.5018-.04-1.5075.073-3.0264.2213-4.5298.2238-2.2697.5082-4.5346.8226-6.7938.5075-3.6461 1.0706-7.2844 1.59-10.9289.2653-1.861.4864-3.7282.7274-5.5925zm334.9466 76.8677c1.2268 3.421 2.4536 6.8419 3.6804 10.2629.039.3554.0548.7152.1205 1.0657.585 3.1202 1.3253 6.2193 1.7409 9.3616 1.0258 7.7569.7843 15.5022-.4424 23.2352-1.1075 6.9818-3.7167 13.4692-6.3034 19.9733-2.1631 3.146-4.1534 6.429-6.5205 9.4132-8.3007 10.4645-19.0949 17.5716-31.3413 22.5536-17.6844 7.1942-36.1844 10.7449-55.1759 11.9088-9.3372.5722-18.6838.5032-28.0245-.0217-2.4845-.1396-4.9663-.3267-7.4922-.4949-.0638.3267-.139.555-.149.7862-.1433 3.2991-1.6285 5.8037-4.3397 7.6831-6.4902 4.4989-12.9373 9.0175-20.2643 12.1694-9.2239 3.9678-18.491 7.7781-28.1101 10.7003-8.2278 2.4995-16.5798 4.4276-25.1036 5.5385-9.4841 1.2359-19.0177 1.7524-28.5846 1.6164-8.8857-.1263-17.6952-.959-26.4214-2.6825-3.1097-.6142-6.2548-1.0485-9.6968-1.6166 4.0152 5.912 7.8552 11.5661 11.6952 17.2202 1.2288 2.3943 2.4274 4.8051 3.7235 7.1624.167.3038.8702.5214 1.2723.4558 5.6314-.9182 11.257-1.8735 16.8771-2.8591 5.1829-.9089 10.3575-1.8651 15.5358-2.8004 1.1964-.1455 2.4089-.2113 3.5865-.4495 7.6103-1.5397 15.2433-2.9841 22.811-4.7133 11.0653-2.5284 22.0819-5.2699 33.1192-7.9205.5119-.0805 1.04-.1054 1.5332-.2499 5.8384-1.7113 11.6664-3.4584 17.5071-5.1615 19.532-5.6953 39.0307-11.494 58.1853-18.3844 15.6605-5.6335 31.1638-11.673 46.3961-18.3754 11.9439-5.2555 23.8024-10.7079 35.6483-16.1823 6.7258-3.1082 13.3557-6.4245 20.017-9.6713 2.7819-1.3559 5.5332-2.7748 8.2984-4.165 3.7563-1.838 7.5202-3.6607 11.2635-5.525.9002-.4483.9794-1.3321.8064-2.2057-.1166-.5885-.3425-1.1582-.5495-1.7254-2.8706-7.8658-5.6179-15.7797-8.6507-23.5825-4.725-12.1566-9.3542-24.3642-14.5662-36.3137-4.9377-11.3208-10.5722-22.3376-15.9044-33.4861-.1268-.2651-.3023-.5069-.5848-.9741-1.0799 2.3115-2.0633 4.4165-3.0467 6.5214-1.1273 1.6509-2.2546 3.3019-3.3948 4.9718.273.3569.4985.6342.7054.9249 2.0942 2.9426 4.2744 5.8293 6.246 8.8521 1.3099 2.0082 2.32 4.2119 3.4644 6.3281.0859.1565.1718.313.2578.4695.0582.1285.1168.2575.1755.3864zm-355.9923-35.4999c-2.758-2.0121-5.4884-4.0633-8.2797-6.0281-5.6885-4.0042-10.5427-8.8451-14.5288-14.5295-3.2482-4.6322-5.8739-9.6116-7.9152-14.9007-2.8425-7.3651-4.6151-14.9722-5.3723-22.8261-.2043-2.1193-.5013-4.2297-.7558-6.3441-.332.3591-.4973.7202-.5992 1.0983-.9731 3.6113-2.1178 7.1887-2.8576 10.8477-1.082 5.3511-2.0823 10.7367-2.715 16.1546-.458 3.9213-.2992 7.9184-.3504 11.8826-.0737 5.7032.7959 11.3045 2.0062 16.8557 1.4781 6.7795 3.9205 13.1949 7.5268 19.1353 4.0006 6.59 9.5019 11.7405 15.7929 16.0778 2.6105 1.7999 5.3536 3.4074 8.0364 5.1024.1317.1455.2406.3247.3985.4315 2.568 1.7361 5.1684 3.4254 7.7086 5.2011 3.5679 2.4939 6.9649 5.1876 9.7746 8.5614 1.8446 2.215 3.7718 4.3612 5.6841 6.5635.201-.1635.3445-.2442.4402-.3633 4.481-5.5771 8.9151-11.1929 13.4723-16.7068.8871-1.0733.6031-1.6163-.0084-2.6237-2.7087-4.4617-5.4376-8.924-7.8598-13.543-2.1851-4.1667-3.9293-8.5626-5.9921-12.797-.4224-.8671-1.2703-1.7306-2.1373-2.1421-3.7797-1.7938-7.6388-3.4203-11.469-5.1075zm116.8983 149.3694c.4485.0257.8968.0608 1.3457.0755 4.0787.1342 8.1583.3778 12.2362.3536 2.3889-.0142 4.7762-.4485 7.1626-.7089 3.498-.3816 6.9928-.7935 10.4922-1.1611 3.302-.3469 6.6083-.6532 9.9128-.9774.2167.0714.4485.2336.6478.2004 2.4081-.3999 4.8146-.8113 7.2152-1.2537 4.6065-.849 9.225-1.6435 13.8084-2.6043 4.1906-.8784 8.349-1.9166 12.5031-2.9581.7618-.191 1.4351-.7346 2.1493-1.1155 2.1465-.4104 4.2931-.8207 6.4397-1.2311.0318-.1237.0635-.2474.0953-.3711-.4535-.3423-.873-.7467-1.3662-1.0164-2.3272-1.2722-4.7359-2.4067-6.9978-3.7837-2.3202-1.4124-4.7663-1.8135-7.4047-1.599-2.397.1949-4.7978.3706-7.2005.461-2.1347.0804-4.2932-.1464-6.4079.077-4.7192.4986-9.3901-.0368-14.0702-.3957-2.6333-.202-5.2558-.5567-7.8785-.8805-3.3781-.4169-6.8208-.5824-10.1126-1.3703-6.8977-1.6509-13.7411-3.5478-20.5572-5.5152-5.6041-1.6177-11.0541-3.6806-16.1997-6.4854-4.4365-2.4182-8.5085-5.3403-12.1907-8.7874-3.3229-3.1107-6.3148-6.5051-8.9185-10.2683-2.7627-3.9932-5.215-8.1543-6.7755-12.7317-1.8896-5.5428-3.4629-11.1945-5.1212-16.8145-.7611-2.5796-1.3936-5.1969-2.0943-7.7945-.3415-1.2663-.9402-2.3332-2.3645-2.6001-5.5407-1.0386-10.3644-3.643-14.867-6.8916-2.8315-2.0429-5.5615-4.2266-8.3285-6.3583-.5584-.4301-1.0449-.7773-1.5769.0494-1.4999 2.3303-3.1638 4.5666-4.5116 6.9804-2.2526 4.0342-4.4533 8.1102-6.4143 12.2913-2.6062 5.5571-4.3262 11.4341-4.8261 17.5627-.5854 7.176.5027 14.1231 3.8609 20.5828.8935 1.7187 2.038 3.3068 3.0673 4.9549.4504.8506.8021 1.774 1.3672 2.5402 3.5978 4.8783 7.7771 9.2412 12.3998 13.131 7.4468 6.2663 15.5572 11.5157 24.4628 15.535 9.0672 4.0922 18.5042 6.9271 28.2711 8.6756 3.5887.6425 7.2265 1.0241 10.8503 1.4533 2.6248.311 5.2639.5041 7.8967.7497zm188.3196 37.751c3.55-1.2977 7.147-2.4808 10.6402-3.9166 7.5557-3.1057 15.0842-6.2813 22.5721-9.5471 3.9821-1.7368 7.8755-3.682 11.7732-5.6056 3.7502-1.8507 7.485-3.7375 11.1703-5.7131 4.0429-2.1672 8.0392-4.4234 12.0209-6.7018 2.0879-1.1948 4.1011-2.5201 6.1481-3.7864.7368-.4019 1.4831-.7873 2.2086-1.2086 2.7478-1.5955 5.4479-3.2796 8.248-4.7766 1.6646-.8899 2.3945-2.1263 2.388-3.9612-.0307-8.5758-.0338-17.1516-.0454-25.7275-.0027-2.0313-.0004-4.0627-.0004-6.3998-2.4549 1.2793-4.5214 2.3367-6.5694 3.4287-2.264 1.2071-4.511 2.446-6.7653 3.6711-1.2431.5649-2.4978 1.106-3.7274 1.6989-5.5522 2.6773-11.0534 5.4652-16.6547 8.0351-10.3602 4.7533-20.7548 9.4338-31.1781 14.0471-9.1688 4.058-18.3321 8.1409-27.6156 11.9238-9.9903 4.0708-20.0536 7.983-30.2027 11.6378-10.7932 3.8868-21.6803 7.528-32.6088 11.0186-8.9307 2.8526-17.9376 5.4931-26.9917 7.9262-12.0042 3.2259-24.053 6.3038-36.1495 9.1622-7.1943 1.7-14.5051 2.922-21.7856 4.2372-6.6013 1.1924-13.231 2.2281-19.8507 3.3174-4.5984.7567-9.2169 1.4025-13.7979 2.2515-5.2098.9656-10.3878 2.1023-15.5797 3.1646-1.5211.2548-3.0422.5096-4.6147.773.9442 5.0807 1.8654 9.9689 2.7573 14.8626.5612 3.0794 1.075 6.1674 1.6165 9.2504.259 1.4747.5932 1.7993 2.0696 1.7348 3.3736-.1473 6.7464-.3244 10.1165-.5373 4.4084-.2785 8.8171-.5643 13.2198-.9203 3.6806-.2976 7.3667-.5948 11.0252-1.0813 5.7261-.7615 11.4281-1.7015 17.1455-2.5302 4.8046-.6964 9.6657-1.0992 14.4148-2.0611 9.6425-1.9529 19.2571-4.0674 28.8258-6.3552 9.887-2.364 19.765-4.8049 29.5408-7.5853 15.0849-4.2903 30.1071-8.808 45.1019-13.4058 8.845-2.7121 17.5869-5.761 26.3721-8.6677 1.5951-.5275 3.1753-1.1004 4.7624-1.6525zm-305.7978-306.1168c.4372-.8591.8958-1.708 1.3081-2.5788 2.827-5.9718 6.168-11.6283 10.9687-16.2293 7.164-6.866 15.7757-11.3716 25.0383-14.6842 10.6607-3.8126 21.6512-4.8453 32.8837-3.6746 12.2043 1.272 22.8993 5.9657 32.0696 14.1083 1.8219 1.6177 3.5382 3.3542 5.3356 5.0668.2217-.2375.407-.4447.6014-.6429 4.1967-4.2781 8.241-8.7206 12.6312-12.79 5.3139-4.9255 11.3717-8.8582 17.9846-11.8665 6.2117-2.8258 12.67-4.958 19.2746-6.6635 12.0623-3.1147 24.2742-5.1516 36.7679-5.2663 7.5535-.0694 15.0587.4503 22.5251 1.596 7.7408 1.1879 15.3707 2.8436 22.7858 5.391 9.0318 3.1028 17.4654 7.4602 25.6166 12.3858 7.4966 4.53 14.6454 9.5445 21.1605 15.4245 9.4298 8.5108 17.1249 18.3558 22.8589 29.711 2.54 5.0302 4.7163 10.1646 4.9143 15.9234.085 2.4728 1.2248 3.3288 3.87 2.9479-1.1651-5.0659-2.3284-10.1237-3.4916-15.1815-.1967-1.3119-.3802-2.6259-.5923-3.9353-1.3073-8.0748-2.5027-16.1655-4.7857-24.0538-4.2645-14.7342-11.3141-27.9472-21.2792-39.6098-6.0476-7.0778-12.9165-13.2554-20.4042-18.7667-11.6538-8.5777-24.3763-15.04-38.1796-19.3862-10.5204-3.3126-21.2772-5.4933-32.2069-6.9019-10.0979-1.3014-20.2267-1.7173-30.3951-1.2937-9.7622.4067-19.4228 1.6211-28.985 3.6251-3.3835.7091-6.7677 1.4155-10.1515 2.1231-.1987.0102-.4049-.0107-.5952.0349-9.7265 2.3307-19.2957 5.1428-28.5833 8.908-13.5159 5.4793-26.4025 12.1504-38.6785 20.0118-13.3617 8.5567-25.8553 18.2479-37.5707 28.9376-10.289 9.3881-19.6855 19.5957-27.9527 30.8243-4.8297 6.5597-9.2237 13.4017-13.1113 20.5542-2.4961 4.5925-5.1338 9.1608-7.0647 13.9968-3.919 9.8154-5.3707 20.1253-4.7935 30.6858.5789 10.5901 3.4611 20.5683 8.491 29.8785 4.9845 9.2261 12.4209 16.3571 20.3079 23.0607 4.0689 4.3664 8.6056 8.1106 14.2062 10.6319-.1009-1.4143-.1967-2.8152-.7485-4.0046-3.9354-8.4828-6.2113-17.3924-6.5311-26.7109-.1805-5.2586.1043-10.5527.5029-15.8062.3823-5.038 1.5553-9.9495 3.7849-14.5399.6926-1.4261 1.49-2.8013 2.2744-4.2654-2.4637-.8124-4.783-1.7182-6.3528-3.7296-1.4825-1.8995-2.918-3.8594-4.1498-5.9264-3.2691-5.4854-5.1562-11.5048-6.6784-17.6744-1.4008-5.6774-1.3163-11.1836.7941-16.7095 1.6209-4.2433 2.8963-8.6187 4.3253-12.9355zm44.1134 66.2104c-6.3693 6.4478-10.8184 14.0701-13.7924 22.589-2.7142 7.7744-3.7122 15.7441-2.6288 23.9347.9821 7.4253 3.6838 14.245 7.3695 20.7109 2.9728 5.2152 6.1065 10.346 8.8889 15.6607 4.0374 7.7116 10.0902 13.1385 17.8812 16.801 3.1304 1.4716 6.2917 2.9073 9.291 4.6186 2.2395 1.2777 4.2415 2.9714 6.6665 4.7068-3.2104 1.1006-2.8509 2.9566-2.0386 5.3257 2.7425 7.9978 4.9805 16.1756 9.0472 23.6699 5.3319 9.8258 12.6564 17.7226 22.4182 23.2634 8.8678 5.0335 18.6042 7.6288 28.4376 9.8455 10.2097 2.3016 20.5837 3.4019 31.0499 3.6432 8.1963.189 16.358-.2359 24.4922-1.2345 12.364-1.5179 24.4255-4.3682 36.1974-8.4082 14.1799-4.8664 27.8408-10.89 40.6226-18.7826 6.6717-4.1197 12.8528-8.8884 18.3945-14.4557 7.4469-7.4814 13.5163-15.9731 18.4008-25.3123 1.2439-2.3783 2.2746-4.8682 3.4032-7.3068.3215-.5526.6597-1.0962.9615-1.6593.9878-1.8431 1.8723-3.7489 2.9666-5.5258 1.1584-1.8811 2.8581-2.9518 5.1848-3.0447.735-.0293 1.6433-.5085 2.1363-1.0744 5.6053-6.435 11.1581-12.9158 16.6991-19.4065 5.0206-5.8812 8.567-12.5426 9.5848-20.2498.7892-5.9755 1.1508-12.0178 1.467-18.0427.366-6.9722-.0035-13.9293-1.193-20.8268-1.3694-7.9408-4.1745-15.2804-9.0663-21.7524-3.116-4.1226-6.9558-7.4594-11.1297-10.4709-5.1918-3.7461-10.2406-7.7038-16.4656-9.6961-.9975-.3192-1.7342-1.7164-1.5144-2.7565.2661-1.2587.0022-2.3706-.5761-3.4876-1.0175-1.9652-1.9388-3.9801-2.9531-5.9471-2.6012-5.0444-5.013-10.2031-7.901-15.0789-4.2939-7.2495-9.8494-13.5295-16.0705-19.2019-11.9926-10.9348-25.455-19.5579-40.5688-25.5259-13.2094-5.2159-26.9473-7.8563-41.1338-8.2323-12.203-.3235-24.2186 1.0777-36.0398 4.0562-9.0728 2.286-18.0475 4.9021-26.1958 9.6976-3.4382 2.0234-6.7238 4.2698-9.5212 7.1556-1.0899.944-2.1946 1.8714-3.2673 2.8345-12.9931 11.6654-22.1083 25.6608-25.6738 42.952-1.5222 7.3821-1.8294 14.8358-.9752 22.3309.0108.3611.0119.7228.034 1.0832.2518 4.1051.9939 3.1871-2.9517 4.4983-5.945 1.9756-12.1652 2.4127-18.3497 2.8861-6.9351.5309-13.4971 2.2381-19.5826 5.6218-4.5327 2.5205-8.5863 5.6672-12.0056 9.5941zm19.3578 223.2527c-.0513.0707-.1026.1415-.1539.2122l33.8478 52.1214c.0504-1.9694-.1143-3.866-.3451-5.7546-.4378-3.582-.9364-7.1566-1.3662-10.7394-.3492-2.9113-1.0522-5.6632-2.8287-8.0915-2.4193-3.3068-4.7822-6.6565-7.1024-10.0337-2.9129-4.2401-5.7514-8.5312-8.6441-12.7852-.2595-.3816-.6275-.8152-1.0359-.9501-4.1131-1.3592-8.245-2.6611-12.3715-3.9791zm-38.8228-150.3828c-.1343.0806-.2685.1611-.4028.2417.1767.3712.3158.7666.537 1.1091.6969 1.079 1.4179 2.1427 2.1418 3.204 1.6493 2.418 3.3073 4.83 4.9588 7.2465.5808.8497 1.4745.7341 2.1507.4057.2384-.1158.0441-1.1593.0062-1.7767-.0078-.1271-.197-.2442-.305-.3638-2.2348-2.4751-4.4703-4.9498-6.7051-7.425-.7944-.8799-1.5877-1.7609-2.3816-2.6415z" fill="#381a15"/><path d="m206.6516 105.297c2.7974-2.8857 6.0831-5.1322 9.5212-7.1556 8.1483-4.7954 17.1229-7.4116 26.1958-9.6976 11.8212-2.9785 23.8368-4.3797 36.0398-4.0562 14.1865.376 27.9244 3.0164 41.1338 8.2323 15.1139 5.968 28.5762 14.5911 40.5688 25.5259 6.2211 5.6724 11.7766 11.9525 16.0705 19.2019 2.888 4.8758 5.2999 10.0345 7.901 15.0789 1.0143 1.967 1.9356 3.9819 2.9531 5.9471.5783 1.117.8422 2.2289.5761 3.4876-.2198 1.0401.5169 2.4373 1.5144 2.7565 6.225 1.9923 11.2738 5.95 16.4656 9.6961 4.1739 3.0116 8.0137 6.3483 11.1297 10.4709 4.8918 6.472 7.6969 13.8117 9.0663 21.7524 1.1895 6.8975 1.559 13.8545 1.193 20.8268-.3163 6.025-.6779 12.0672-1.467 18.0427-1.0178 7.7071-4.5642 14.3686-9.5848 20.2498-5.541 6.4907-11.0938 12.9716-16.6991 19.4065-.493.5659-1.4013 1.0451-2.1363 1.0744-2.3267.0929-4.0263 1.1636-5.1848 3.0447-1.0943 1.7769-1.9789 3.6826-2.9666 5.5258-.3018.5632-.64 1.1068-.9615 1.6595-.6739.3438-1.368.6532-2.0185 1.0366-4.7931 2.825-9.575 5.6689-14.3693 8.4917-.3737.2201-.8154.3249-1.2254.4832.3052-3.0794.8553-6.1577.8683-9.2383.0347-8.1897-3.0531-15.1165-9.3282-20.4062-3.7498-3.161-7.7787-5.9934-11.7139-8.9312-2.5067-1.8713-3.7324-4.3517-3.8386-7.4432-.0304-.8851-.0909-1.7737-.2215-2.6482-.0437-.2924-.2982-.6352-.555-.7795-.1298-.073-.541.191-.7205.3947-2.3424 2.658-2.9419 6.4919-1.1135 9.5286 1.1194 1.8591 2.5911 3.6216 4.2503 5.0163 3.4767 2.9223 7.1664 5.5934 10.7975 8.3293 3.5661 2.6869 5.9697 6.1434 7.1946 10.4419 1.8778 6.59.9311 13.0829-.6053 19.5621-.4539.1234-.9721.1456-1.3519.3861-3.4574 2.1896-6.88 4.4339-10.3333 6.6301-6.374 4.0536-12.7179 8.157-19.1557 12.107-6.8253 4.1877-13.8856 7.9309-21.2572 11.1082-7.6204 3.2845-15.3149 6.341-23.4338 8.1044-6.2211 1.3511-12.5056 2.4268-18.7854 3.4858-4.656.7851-9.3398 1.4337-14.0309 1.9711-2.3467.2688-4.7594.3831-7.1035.1598-3.9805-.3793-7.9578-.9357-11.8867-1.68-6.3769-1.2081-12.742-2.5074-19.0604-3.9884-8.3348-1.9536-16.0569-5.4374-23.0789-10.3139-3.4513-2.3967-6.8351-4.9936-9.8176-7.9374-4.054-4.0013-7.8863-8.2666-11.4657-12.6997-4.8949-6.0625-9.4989-12.3585-15.0797-17.8383-.1903-.1869-.3354-.4197-.5476-.6898.2325-.1495.3889-.2612.5552-.3554 2.4417-1.3844 4.9497-2.6649 7.3084-4.1784 2.2325-1.4324 2.1228-3.5359-.1324-4.8693-2.3104-1.366-4.6332-2.716-6.9997-3.9811-3.4379-1.8377-6.1076-4.5638-8.7387-7.3459-.1254-.1326-.1488-.3616-.2197-.5458 2.4014.6963 4.8027 1.3925 7.2041 2.0887.0666-.1018.1332-.2035.1998-.3053-.2685-.2538-.4973-.5821-.8117-.7499-3.266-1.7433-6.5331-3.4852-9.8244-5.18-6.4388-3.3156-12.5119-7.1325-17.6496-12.324-3.0121-3.0437-5.0434-6.4969-4.9516-10.8943.0849-4.0647.3074-8.1263.4269-12.1905.0114-.3874-.2792-.7836-.4295-1.1758-.3467.2342-.8202.3901-1.021.7146-2.5791 4.1686-2.6938 8.7804-2.2312 13.4445.3752 3.783 2.0781 7.0665 4.2255 10.1386-2.1621-.1595-3.2517-1.801-4.335-3.3098-2.9619-4.1252-4.1288-8.8714-4.1582-13.8538-.0268-4.5374.1743-9.0837.4726-13.613.1968-2.9881.685-5.9624 1.1505-8.9259.4287-2.7298.908-5.4587 1.5349-8.1483.7264-3.1166 1.6419-6.189 2.4685-9.2824.6187-2.3155 1.4234-4.6104.8424-7.0695 3.4194-3.927 7.473-7.0738 12.006-9.5943 6.0854-3.3837 12.6475-5.0909 19.5826-5.6218 6.1846-.4735 12.4047-.9105 18.3497-2.8861 3.9456-1.3112 3.2035-.3932 2.9517-4.4983-.0221-.3604-.0231-.7221-.0339-1.0831.4586.2402.9088.4984 1.3776.7166 1.0844.5048 3.5418.4142 3.9986-.2683 1.3084-1.9552 2.689-3.8893 3.7419-5.9823 1.7384-3.4558 1.4439-7.3382 1.9621-11.0515.4582-3.2832.8648-6.5904 1.613-9.8129 1.5886-6.8422 4.4346-13.2276 7.534-19.5029 2.5614-5.1859 5.1969-10.3384 7.6091-15.5931.9575-2.0865 1.4018-4.4085 2.0798-6.6232zm185.9388 163.2401c.4388-.1625.8799-.3192 1.3161-.4884 3.4692-1.3458 6.688-3.1392 9.6663-5.3723 5.446-4.0834 9.6834-9.2585 13.4471-14.8609.8813-1.3118 1.7123-2.6573 2.5664-3.9873-.0887-.0958-.1775-.1917-.2662-.2875-.554.3364-1.1574.6123-1.6543 1.0185-5.8227 4.7593-11.6175 9.5525-17.4451 14.3057-2.8392 2.3158-5.7041 4.6141-9.4159 5.429-2.1526-2.0415-4.5517-3.6957-7.5119-4.2628-2.4149-.4626-4.8656-.7386-7.3005-1.0973-2.0804-1.0063-3.4247-2.5987-3.9474-4.876-.2967-1.2927-.6199-2.5817-1.0062-3.8495-.0926-.3041-.4839-.5173-.7378-.7723-.194.2607-.4743.4941-.567.7869-.3994 1.26-.7437 2.5375-1.1081 3.8087-.5637-.0181-1.1414.0376-1.6887-.0665-2.8321-.5387-5.655-1.1258-8.4843-1.679-.9008-.1761-1.8082-.3873-2.719-.4246-1.0169-.0417-1.7233.5726-1.8384 1.5672-.2348 2.0292-.4296 4.0694-.499 6.1099-.0954 2.8086.8794 5.327 2.2301 7.7623 2.6715 4.8168 6.8 7.7075 11.9628 9.2428 4.0123 1.1932 8.1497 1.2254 12.2988 1.2246 3.1887-.0007 6.0323-.9747 8.5965-2.7307 2.2604-1.5479 4.2794-3.3625 4.1057-6.5005zm-46.5545-42.8952c.0985-.0789.1971-.1577.2956-.2366 1.8603-1.6613 3.7377-3.3038 5.5782-4.9868 13.025-11.9101 18.096-26.8175 16.1428-44.1274-1.5056-13.343-6.4619-25.481-14.2086-36.4308-6.4833-9.1638-14.8726-16.1168-25.0956-20.7872-8.3802-3.8285-17.1799-6.1565-26.3304-7.2451-6.4772-.7706-12.9383-.7338-19.4063-.0139-7.4055.8243-14.5607 2.6673-21.5178 5.3173-15.5612 5.9271-29.1222 14.7122-39.7135 27.7497-.7084.2278-1.5485.2846-2.1034.7119-3.1503 2.4259-6.1579 4.9956-8.8347 7.9806-3.4706 3.8702-6.3846 8.101-8.4488 12.8241-2.1838 4.9968-4.1124 10.1198-5.8756 15.2822-2.3898 6.9971-3.1537 14.2303-2.4385 21.6121.3749 3.8688.6395 7.7482.9848 11.62.4447 4.9855 2.0154 9.6613 4.1243 14.1531 3.0339 6.4623 7.3439 11.9605 12.7876 16.5894 3.5762 3.0409 7.4947 5.5896 11.713 7.5594 5.9376 2.7728 12.1682 4.7055 18.63 6.0126 5.807 1.1747 11.6532 1.7744 17.5325 2.0025 6.2659.243 12.5551.2003 18.7848-.6845 4.6743-.6639 9.3636-1.3264 13.971-2.3334 8.7109-1.9037 16.9932-5.0917 25.0327-8.931.7309-.349 1.6136-.38 2.4259-.5587-.6033 1.2912-.3022 1.9866 1.055 2.0309 1.2322.0402 2.5323.0359 3.7001-.3023 13.2925-3.8498 24.2471-11.3361 33.3462-21.6553.3239-.3673.4732-.8885.7039-1.3379-.093-.0686-.1859-.1373-.2789-.2059-.6417.3119-1.3213.5644-1.9196.9447-7.3702 4.6848-14.6898 9.4505-22.1061 14.0608-3.7624 2.3389-7.7621 4.2443-12.1488 5.179.2999-.3474.5418-.7808.909-1.0283 2.3495-1.5835 4.7841-3.0461 7.0824-4.6991 4.7954-3.4489 9.2845-7.268 13.0532-11.8416 1.0424-1.265 1.7333-2.8197 2.5855-4.2416zm25.7426-12.5207c1.4236-.4823 2.4096-1.3556 3.8317-3.4582 2.2282-3.2945 3.7123-6.9435 4.942-10.6984 1.5847-4.8389 2.7385-9.7714 2.7349-14.8968-.0011-1.5697-.0469-3.1915-1.1407-4.7574-4.5627 11.0398-7.0587 22.5099-10.3679 33.8108z" fill="#fefefe"/><path d="m78.339 242.5582c-7.887-6.7036-15.3234-13.8347-20.3079-23.0607-5.0299-9.3102-7.9121-19.2884-8.491-29.8785-.5773-10.5605.8745-20.8704 4.7935-30.6858 1.9309-4.836 4.5686-9.4043 7.0647-13.9968 3.8875-7.1525 8.2816-13.9945 13.1113-20.5542 8.2672-11.2286 17.6637-21.4362 27.9527-30.8243 11.7154-10.6897 24.2091-20.3808 37.5707-28.9376 12.2759-7.8614 25.1626-14.5325 38.6785-20.0118 9.2876-3.7652 18.8568-6.5773 28.5833-8.908.1902-.0456.3964-.0247.5951-.0349.4559.0882.9148.2658 1.3672.2507 4.1365-.1383 8.2709-.3966 12.408-.4462 3.66-.0439 7.3225.1435 10.9842.2108 4.8716.0896 9.7458.0955 14.6147.2611 4.3714.1487 8.7503.3261 13.1017.7431 5.0967.4885 10.2011 1.057 15.2402 1.9434 5.8344 1.0263 11.6451 2.2656 17.384 3.733 4.6943 1.2003 9.3446 2.6703 13.8747 4.389 4.7582 1.8052 9.4743 3.8114 13.9792 6.1684 4.3227 2.2617 8.495 4.8831 12.4744 7.711 5.6746 4.0325 10.8518 8.6843 15.4816 13.9153 3.3285 3.7607 6.8097 7.3946 9.9904 11.2754 3.6064 4.4002 7.0636 8.9341 10.3766 13.5596 2.3777 3.3197 4.5266 6.819 6.5723 10.3569 3.0352 5.2493 5.9606 10.5656 8.7977 15.9249 2.4099 4.5523 4.6007 9.22 6.9467 13.8069.8486 1.6593 1.5706 3.4612 3.3857 4.3958 1.1632 5.0578 2.3265 10.1156 3.4917 15.1815-2.6452.3809-3.785-.4751-3.87-2.9479-.198-5.7588-2.3742-10.8932-4.9143-15.9234-5.7339-11.3551-13.429-21.2002-22.8589-29.711-6.515-5.88-13.6639-10.8946-21.1605-15.4245-8.1512-4.9255-16.5848-9.283-25.6166-12.3858-7.415-2.5473-15.0449-4.2031-22.7858-5.391-7.4663-1.1457-14.9716-1.6654-22.5251-1.596-12.4937.1148-24.7056 2.1516-36.7679 5.2663-6.6046 1.7055-13.063 3.8377-19.2746 6.6635-6.6129 3.0083-12.6707 6.941-17.9846 11.8665-4.3902 4.0694-8.4346 8.5119-12.6312 12.79-.1944.1982-.3797.4054-.6014.6429-1.7974-1.7126-3.5137-3.4492-5.3356-5.0668-9.1703-8.1426-19.8653-12.8364-32.0696-14.1083-11.2326-1.1707-22.223-.138-32.8837 3.6746-9.2626 3.3126-17.8743 7.8182-25.0383 14.6842-4.8007 4.601-8.1417 10.2575-10.9687 16.2293-.4123.8709-.8709 1.7198-1.3082 2.5788-.3952.024-.8567-.0768-1.1744.0924-2.0048 1.0683-4.19 1.9381-5.9178 3.3577-3.841 3.156-6.5598 7.2176-8.6036 11.7664-2.1551 4.7965-3.2363 9.8037-3.3252 15.0307-.0341 2.0037.0145 4.0256.2467 6.0134.3941 3.3733.7732 6.7681 1.5028 10.0779 1.2037 5.4608 3.3644 10.5943 6.7594 15.056 2.0062 2.6365 2.5289 5.2706 1.7484 8.422-.4381 1.769-.5104 3.6502-.5719 5.4868-.1874 5.5901.0975 11.1206 1.368 16.6273 1.4284 6.1913 3.4488 12.1223 6.4315 17.7193.392.7354.4741 1.324.1092 2.0207z" fill="#faedc4"/><path d="m183.2103 455.1803c5.1918-1.0623 10.3699-2.199 15.5797-3.1646 4.581-.849 9.1995-1.4948 13.7979-2.2515 6.6197-1.0893 13.2494-2.1249 19.8507-3.3174 7.2804-1.3152 14.5913-2.5373 21.7856-4.2372 12.0965-2.8584 24.1453-5.9362 36.1495-9.1622 9.0541-2.4331 18.061-5.0736 26.9917-7.9262 10.9284-3.4907 21.8156-7.1318 32.6088-11.0186 10.149-3.6548 20.2124-7.567 30.2027-11.6378 9.2835-3.7829 18.4468-7.8658 27.6156-11.9238 10.4233-4.6133 20.8179-9.2938 31.1781-14.0471 5.6013-2.5699 11.1025-5.3578 16.6547-8.0351 1.2296-.593 2.4843-1.134 3.7276-1.6987.091 2.6078.2274 5.2146.264 7.8229.1076 7.681.1772 15.3625.2578 23.0439.0143 1.3688.0097 2.7379.0139 4.1068-2.047 1.2664-4.0602 2.5917-6.1481 3.7864-3.9817 2.2784-7.978 4.5346-12.0209 6.7018-3.6854 1.9756-7.4202 3.8624-11.1703 5.7131-3.8977 1.9236-7.7911 3.8688-11.7732 5.6056-7.4878 3.2658-15.0163 6.4414-22.5721 9.5471-3.4932 1.4358-7.0902 2.6189-10.6402 3.9167-.38-.1578-.7627-.4548-1.1394-.4474-1.1602.0228-2.3444.0377-3.4723.2773-5.4083 1.1491-10.8006 2.3731-16.1994 3.5667-8.4122 1.8598-16.8156 3.7604-25.2413 5.5571-4.6193.985-9.2698 1.8294-13.9184 2.6698-4.5667.8255-9.1364 1.6512-13.7279 2.3186-4.3146.6271-8.6577 1.0616-12.9914 1.5524-1.9498.2208-3.9091.357-5.8611.5599-2.7457.2855-5.4871.6129-8.2333.8933-2.709.2766-5.4231.504-8.1325.7768-2.9062.2927-5.8064.6484-8.7152.9105-2.4354.2194-4.8797.3375-7.3193.5113-4.3969.3132-8.7921.6522-13.1903.9461-2.8819.1927-5.7669.347-8.6522.4802-5.6163.2594-11.2334.68-16.8508.6906-8.0468.0152-16.0944-.269-24.1411-.4472-1.2009-.0265-2.4146-.0802-3.5957-.2792-3.5109-.5916-7.0095-1.2568-10.5083-1.9171-.1764-.0333-.3101-.2907-.4636-.4438z" fill="#d65727"/><path d="m150.7663 277.7343c.0709.1841.0943.4132.2197.5458 2.6311 2.7821 5.3008 5.5082 8.7387 7.3459 2.3665 1.265 4.6893 2.6151 6.9997 3.9811 2.2552 1.3333 2.3648 3.4368.1324 4.8693-2.3587 1.5134-4.8668 2.794-7.3084 4.1784-.1663.0943-.3228.2059-.5552.3554.2122.27.3573.5029.5476.6898 5.5809 5.4798 10.1848 11.7758 15.0797 17.8383 3.5794 4.4331 7.4117 8.6984 11.4657 12.6997 2.9825 2.9438 6.3663 5.5407 9.8176 7.9374 7.0221 4.8764 14.7441 8.3603 23.0789 10.3139 6.3184 1.481 12.6835 2.7803 19.0604 3.9884 3.9289.7443 7.9062 1.3008 11.8867 1.68 2.3441.2233 4.7568.109 7.1035-.1598 4.6911-.5374 9.3749-1.1859 14.0309-1.9711 6.2798-1.059 12.5643-2.1347 18.7854-3.4858 8.1189-1.7633 15.8134-4.8199 23.4338-8.1044 7.3716-3.1772 14.4319-6.9205 21.2572-11.1082 6.4378-3.95 12.7817-8.0534 19.1557-12.107 3.4533-2.1962 6.8759-4.4405 10.3333-6.6301.3798-.2405.8979-.2627 1.3518-.3861-1.1801 4.2647-2.3601 8.5293-3.597 12.9996.2907-.2272.4005-.2852.4725-.3739.3537-.4356.7086-.8711 1.0429-1.3215 3.3859-4.5618 5.1818-9.8672 7.0673-15.1304.4101-.1584.8517-.2632 1.2254-.4832 4.7943-2.8228 9.5762-5.6668 14.3693-8.4917.6505-.3834 1.3446-.6928 2.0185-1.0366-1.1286 2.4384-2.1593 4.9283-3.4032 7.3066-4.8845 9.3392-10.9539 17.8309-18.4008 25.3123-5.5417 5.5674-11.7228 10.336-18.3945 14.4557-12.7817 7.8926-26.4427 13.9162-40.6226 18.7826-11.772 4.04-23.8334 6.8903-36.1974 8.4082-8.1342.9986-16.296 1.4235-24.4922 1.2345-10.4663-.2413-20.8402-1.3416-31.0499-3.6432-9.8334-2.2167-19.5698-4.812-28.4376-9.8455-9.7618-5.5408-17.0864-13.4376-22.4182-23.2634-4.0667-7.4943-6.3047-15.6721-9.0472-23.6699-.8124-2.3691-1.1718-4.2251 2.0386-5.3257-2.4249-1.7354-4.427-3.4292-6.6665-4.7068-2.9993-1.7112-6.1605-3.1469-9.291-4.6186-7.7911-3.6625-13.8439-9.0894-17.8812-16.801-2.7824-5.3148-5.9161-10.4456-8.8889-15.6607-3.6858-6.4659-6.3874-13.2856-7.3695-20.7109-1.0834-8.1906-.0853-16.1603 2.6288-23.9347 2.9741-8.5189 7.4231-16.1412 13.7924-22.5889.581 2.4592-.2237 4.7541-.8424 7.0696-.8266 3.0934-1.7421 6.1658-2.4685 9.2824-.6269 2.6897-1.1062 5.4186-1.5349 8.1483-.4654 2.9636-.9537 5.9378-1.1505 8.9259-.2983 4.5293-.4994 9.0755-.4726 13.613.0294 4.9824 1.1962 9.7286 4.1582 13.8538 1.0833 1.5088 2.1729 3.1503 4.3349 3.3097 4.0633 4.5706 8.4787 8.7522 13.9797 11.5398 3.5442 1.7959 7.2497 3.2734 10.883 4.8937zm183.0325 59.0161c2.0259-.9619 4.0679-1.8914 6.0723-2.8961 1.4964-.75 2.9442-1.5969 4.4136-2.4006-.0455-.1425-.0909-.2851-.1363-.4276-.4687.1284-.9711.1877-1.4006.3967-2.7123 1.3197-5.4129 2.664-8.1043 4.026-.3247.1643-.5705.4845-.8529.7325-.6641.1387-1.3567.1989-1.9878.4282-6.2828 2.2823-12.5462 4.6182-18.8331 6.889-8.9383 3.2285-17.7637 6.7787-26.9896 9.1778-11.6131 3.02-23.4151 4.4807-35.3983 4.4352-8.8826-.0337-17.6935-.925-26.4338-2.5394-2.0925-.3865-4.2279-.5403-6.3436-.8011-.0172.1131-.0344.2261-.0516.3392 2.2065 1.4283 4.7543 1.8265 7.271 2.2774 8.5403 1.5302 17.1354 2.6134 25.8264 2.4836 5.756-.086 11.5338-.1689 17.2567-.7209 14.5054-1.3992 28.3839-5.401 41.8659-10.8189 5.53-2.2222 11.0054-4.5843 16.4669-6.9713 2.5012-1.0929 4.909-2.3998 7.3591-3.6097zm-152.034 10.1025c-.0661-.4438-.0005-.9713-.2203-1.3175-1.1654-1.8358-2.4474-3.5979-3.6063-5.4377-3.2603-5.1761-6.6875-10.2625-9.6576-15.602-2.952-5.307-5.4232-10.8812-8.1272-16.3273-.1554-.3131-.5093-.5277-.7709-.7881-.1419.3393-.3779.6697-.4108 1.0193-.2762 2.9369.1155 5.7914 1.2335 8.5239.8999 2.1994 1.8233 4.3909 2.8045 6.555 4.2076 9.281 10.0238 17.3148 18.7551 23.3744z" fill="#cfebf4"/><path d="m111.9961 357.1685c-1.0293-1.6481-2.1738-3.2362-3.0673-4.9549-3.3582-6.4597-4.4463-13.4068-3.8609-20.5828.5-6.1286 2.2199-12.0056 4.8261-17.5627 1.9609-4.1811 4.1616-8.2571 6.4143-12.2913 1.3478-2.4138 3.0118-4.6501 4.5116-6.9804.532-.8266 1.0185-.4795 1.5769-.0494 2.767 2.1317 5.497 4.3154 8.3285 6.3583 4.5026 3.2486 9.3263 5.8529 14.867 6.8916 1.4244.2669 2.023 1.3338 2.3645 2.6001.7007 2.5976 1.3331 5.2149 2.0943 7.7945 1.6583 5.6199 3.2316 11.2717 5.1212 16.8145 1.5605 4.5774 4.0128 8.7385 6.7755 12.7317 2.6037 3.7632 5.5956 7.1576 8.9185 10.2683 3.6822 3.4471 7.7542 6.3692 12.1907 8.7874 5.1456 2.8048 10.5956 4.8677 16.1997 6.4854 6.8161 1.9675 13.6595 3.8643 20.5572 5.5152 3.2918.7879 6.7345.9534 10.1126 1.3703 2.6227.3238 5.2453.6785 7.8785.8805 4.6801.3589 9.3509.8943 14.0702.3957 2.1147-.2234 4.2732.0034 6.4079-.077 2.4026-.0904 4.8034-.266 7.2005-.461 2.6385-.2146 5.0845.1865 7.4047 1.599 2.262 1.377 4.6706 2.5115 6.9978 3.7837.4932.2696.9128.674 1.3662 1.0164-.0318.1237-.0635.2474-.0953.3711-2.1465.4103-4.2931.8207-6.4398 1.2309-.2416-.0032-.4909-.0471-.7234-.0031-5.7727 1.0935-11.5511 2.1594-17.3122 3.3115-3.4526.6904-6.8882 1.4747-10.3118 2.2982-2.6744.6433-5.3186 1.4119-7.9762 2.1248-3.3044.3242-6.6107.6305-9.9128.9774-3.4995.3676-6.9942.7795-10.4922 1.1611-2.3864.2603-4.7737.6947-7.1626.7089-4.0779.0242-8.1574-.2193-12.2362-.3536-.4489-.0147-.8971-.0498-1.3456-.0755-.5824-.4785-1.1059-1.0671-1.7579-1.4156-2.263-1.2095-4.5734-2.33-6.8607-3.4946-6.3575-3.2368-12.3669-7.0404-17.9755-11.436-5.7286-4.4897-11.3049-9.1819-16.0004-14.7856-2.9082-3.4707-5.825-6.9646-8.3796-10.6935-3.3171-4.842-6.0006-10.0563-8.0331-15.6039-2.3448-6.4001-3.5258-12.9965-3.6369-19.7786-.0265-1.6183-1.1394-3.2821-2.5943-3.819-5.6985-2.1028-10.9272-5.0603-15.7688-8.7211-.6679-.505-1.4001-.9495-2.1611-1.2917-.2238-.1006-.8718.1725-.9479.4004-.8016 2.3999-1.7804 4.7804-2.2184 7.2534-.8367 4.7243-1.6368 9.4876-1.9348 14.267-.4254 6.8238-.1178 13.6529 1.536 20.3537.5464 2.2142.993 4.4529 1.4853 6.6803z" fill="#9b2820"/><path d="m175.6053 444.0563c-3.84-5.6541-7.6801-11.3082-11.6952-17.2202 3.442.5681 6.5871 1.0024 9.6968 1.6166 8.7262 1.7235 17.5356 2.5561 26.4214 2.6825 9.5669.136 19.1005-.3805 28.5846-1.6164 8.5238-1.1108 16.8759-3.0389 25.1036-5.5385 9.6191-2.9222 18.8862-6.7325 28.1101-10.7003 7.327-3.1519 13.7741-7.6704 20.2643-12.1694 2.7112-1.8793 4.1964-4.3839 4.3397-7.6831.01-.2311.0852-.4595.149-.7862 2.5259.1682 5.0078.3553 7.4922.4949 9.3408.5248 18.6874.5938 28.0245.0217 18.9915-1.1638 37.4915-4.7145 55.1759-11.9088 12.2464-4.982 23.0406-12.0891 31.3413-22.5536 2.3671-2.9842 4.3574-6.2672 6.5205-9.4131.0962.7152.2704 1.4296.2756 2.1453.0266 3.6828-1.0894 7.0501-3.0822 10.1024-3.0108 4.6115-6.8408 8.4898-11.0183 12.0507-3.3731 2.8752-6.9919 5.39-10.8971 7.4698-2.7668 1.4734-5.5907 2.8453-8.4298 4.1755-5.1986 2.4356-10.4136 4.8373-15.6472 7.1967-5.4619 2.4622-10.9342 4.9035-16.4385 7.2687-4.6157 1.9834-9.2499 3.9328-13.9374 5.7373-6.2689 2.4133-12.7035 4.3319-19.3143 5.5471-5.7072 1.049-11.4515 1.8984-17.1836 2.8095-4.1047.6524-8.122.2896-11.9012-1.4851-1.7893-.8403-3.4243-2.0095-5.1736-3.0563-.1114.1481-.2547.2912-.3428.4627-2.3788 4.6284-5.9161 8.2681-9.816 11.618-4.5365 3.8967-9.7937 6.541-15.1837 8.9951-1.5744.7168-3.0126 1.7328-4.5132 2.6118-11.0373 2.6507-22.0539 5.3922-33.1192 7.9205-7.5677 1.7292-15.2007 3.1737-22.811 4.7133-1.1776.2382-2.3901.304-3.5866.4495-.3712-.0891-.7479-.2732-1.1123-.2514-2.037.1216-4.0755.4673-6.1051.4141-5.7342-.1502-11.4661-.4229-17.1951-.7216-1.8716-.0976-3.7297-.4388-5.597-.6411-2.4648-.267-4.9325-.507-7.3991-.7586z" fill="#f7db9c"/><path d="m425.76 283.7703c1.2518 2.7632 2.6349 5.476 3.7214 8.3027 1.2869 3.3481 1.8274 6.8878 1.783 10.4773-.0176 1.4272-.3449 2.8506-.5306 4.2757-.1222-.1439-.3196-.2708-.3569-.4341-.6595-2.8919-1.2971-5.7888-1.9464-8.6831-.115-.5125-.2614-1.0179-.3933-1.5267-.1281-.0037-.2562-.0075-.3844-.0112-.1528.4638-.3597.9174-.4487 1.3932-.2946 1.5741-.4673 3.1745-.829 4.7318-1.4101 6.0703-3.2673 12.0048-5.5031 17.8236-1.5757 4.1007-3.2609 8.1569-5.7009 11.8232-4.6502 6.9875-10.7117 12.5745-17.5688 17.3433-1.8135 1.2613-3.6383 2.5104-5.3909 3.8526-.4609.353-.9266 1.0404-.9112 1.56.0111.3738.8007.7487 1.2775 1.0723.1826.1239.4652.0915.695.1561 3.1633.8888 5.7999-.4379 8.4145-1.9513 3.9043-2.2598 7.5549-4.8597 10.9842-7.7951 4.3755-3.7454 8.221-7.9808 11.0161-12.991 1.9441-3.4848 3.2635-7.3174 4.8803-10.9866.1836-.4167.4856-.7812.7326-1.1699-.457 2.8823-.6861 5.8238-1.4159 8.6353-1.8056 6.956-5.805 12.6292-10.8166 17.6771-5.2843 5.3225-11.2497 9.7291-17.7407 13.4394-3.2107 1.8352-6.4362 3.6584-9.7526 5.2884-1.5267.7504-3.2878 1.0236-4.943 1.5128-3.0379.4962-6.0784.9757-9.1125 1.493-5.9557 1.0155-11.8822 2.2509-17.869 3.0205-5.3157.6834-10.6966.8601-16.0488 1.2587-.2407.0179-.4828.0305-.7239.0257-3.5601-.0702-7.1342.0267-10.676-.2666-3.2199-.2668-6.4275-.8489-9.5955-1.5083-1.6561-.3447-3.6245-.1515-4.7617-1.8933 8.9508-3.3994 17.8157-6.9999 26.3-11.4649 7.2311-3.8056 14.3282-7.8547 20.6476-13.0775 4.1158-3.4016 8.2947-6.7982 11.9531-10.6631 4.1302-4.3632 7.7082-9.2489 11.5282-13.9058.1507-.1836.3211-.351.4825-.5257.5758-.1559 1.1911-.229 1.7206-.4819 3.3378-1.5942 6.7126-3.1239 9.9688-4.873 5.3286-2.8625 10.136-6.4854 14.5691-10.5931 4.5587-4.224 7.6188-9.4644 10.1295-15.0773.8019-1.7926 1.7404-3.5239 2.6164-5.2832z" fill="#bd4b27"/><path d="m109.6184 303.1587c-.7221 1.7288-1.3447 3.5076-2.1841 5.1775-3.0229 6.0137-5.6803 12.1693-6.6942 18.8659-.5029 3.3212-.8257 6.7198-.7379 10.0704.2102 8.0211 2.4467 15.5122 6.6909 22.3629 2.8258 4.5612 6.1181 8.7399 9.8633 12.6014 4.9761 5.1306 10.4675 9.5786 16.3935 13.5621 4.4175 2.9695 8.9955 5.6141 13.7806 7.9185 5.9912 2.8853 12.1755 5.2946 18.6098 6.9614 5.5025 1.4254 11.0378 2.7955 16.6312 3.7766 4.4072.7731 8.9169 1.0857 13.3955 1.2966 5.4685.2574 10.9521.2448 16.4293.2541 4.1861.007 8.3725-.1337 12.5587-.2088 1.9463.4004 3.8839 1.0902 5.8403 1.1487 6.6668.1993 13.3361.0991 19.9561-.9095 3.2809-.4999 6.6041-.7982 9.8404-1.5005 8.8194-1.9139 17.2764-4.7463 24.3897-10.6121 1.6346-1.3479 3.2309-2.7422 4.8448-4.1152 2.6805.4577 5.3609.9153 8.4171 1.4372-1.2137.9935-2.0849 1.8565-3.0935 2.5058-4.1176 2.6511-8.1873 5.3955-12.4424 7.8099-6.5355 3.7082-13.5995 6.2137-20.7456 8.4726-7.3947 2.3375-14.7644 4.7616-22.2083 6.9308-2.5117.7319-5.2224.7659-7.8321 1.1814-2.4898.3964-4.9575.9366-7.4515 1.3002-2.9706.433-5.9522.9793-8.9407 1.0641-7.571.2149-15.1495.3006-22.723.2271-3.1112-.0302-6.2342-.4898-9.3211-.9574-3.8404-.5818-7.6675-1.2872-11.4661-2.0995-3.9196-.8381-7.8456-1.7095-11.6832-2.8531-5.4202-1.6152-10.873-3.2211-16.1002-5.3505-3.8395-1.5641-7.4258-3.8226-10.9691-6.0226-4.4847-2.7846-8.3829-6.3365-12.2449-9.9307-3.8139-3.5496-7.2742-7.3714-10.2143-11.675-3.9789-5.8242-7.0574-12.1219-9.2301-18.7909-1.8997-5.8312-3.5106-11.7852-4.7707-17.7854-.7595-3.6164-.9473-7.4392-.791-11.144.3437-8.1501 1.8917-16.1225 5.3779-23.5562 1.4397-3.0697 3.4465-5.8774 5.2587-8.7645.2924-.466.9165-.7238 1.3873-1.0778.7263.8095 1.4526 1.619 2.1789 2.4285z" fill="#9a2920"/><path d="m183.2103 455.1804c.1535.153.2872.4105.4633.4437 3.4989.6603 6.9975 1.3255 10.5083 1.9171 1.1812.199 2.3949.2527 3.5957.2792 8.0468.1782 16.0943.4624 24.1411.4472 5.6174-.0106 11.2346-.4313 16.8508-.6906 2.8853-.1332 5.7703-.2875 8.6522-.4802 4.3982-.294 8.7934-.6329 13.1903-.9461 2.4396-.1738 4.884-.2918 7.3193-.5113 2.9088-.2621 5.809-.6179 8.7152-.9105 2.7095-.2728 5.4235-.5002 8.1325-.7768 2.7462-.2804 5.4876-.6078 8.2333-.8933 1.952-.2029 3.9113-.3391 5.8611-.5599 4.3337-.4909 8.6768-.9253 12.9914-1.5524 4.5915-.6673 9.1612-1.4931 13.7279-2.3186 4.6486-.8403 9.2992-1.6847 13.9184-2.6698 8.4257-1.7967 16.8291-3.6973 25.2413-5.5571 5.3988-1.1936 10.7911-2.4176 16.1994-3.5667 1.1278-.2396 2.3121-.2545 3.4723-.2773.3767-.0074.7594.2896 1.1394.4474-1.5871.552-3.1672 1.1249-4.7624 1.6527-8.7852 2.9067-17.5271 5.9555-26.3721 8.6677-14.9948 4.5978-30.017 9.1155-45.1019 13.4058-9.7758 2.7804-19.6539 5.2213-29.5408 7.5853-9.5687 2.2878-19.1833 4.4023-28.8258 6.3552-4.7491.9619-9.6103 1.3646-14.4148 2.0611-5.7174.8287-11.4194 1.7687-17.1455 2.5302-3.6585.4865-7.3446.7837-11.0252 1.0813-4.4027.356-8.8114.6418-13.2198.9203-3.3701.2129-6.7429.39-10.1165.5373-1.4764.0645-1.8106-.2602-2.0696-1.7348-.5414-3.083-1.0553-6.171-1.6165-9.2504-.8918-4.8936-1.8131-9.7819-2.7573-14.8626 1.5729-.2636 3.0939-.5183 4.615-.7731z" fill="#c34327"/><path d="m111.9961 357.1685c-.4923-2.2274-.9389-4.4662-1.4854-6.6803-1.6538-6.7008-1.9615-13.5299-1.536-20.3537.298-4.7794 1.0982-9.5427 1.9348-14.267.438-2.473 1.4168-4.8535 2.2184-7.2534.0761-.2279.7241-.501.9479-.4004.761.3422 1.4932.7866 2.1611 1.2917 4.8416 3.6608 10.0704 6.6183 15.7688 8.7211 1.455.5369 2.5678 2.2008 2.5943 3.819.1111 6.7822 1.2921 13.3786 3.6369 19.7786 2.0325 5.5475 4.716 10.7618 8.0331 15.6039 2.5546 3.7289 5.4714 7.2229 8.3796 10.6935 4.6956 5.6038 10.2718 10.296 16.0004 14.7856 5.6086 4.3956 11.618 8.1992 17.9755 11.436 2.2873 1.1645 4.5977 2.285 6.8607 3.4946.6519.3484 1.1755.937 1.7579 1.4156-2.6329-.2456-5.272-.4388-7.8971-.7497-3.6239-.4292-7.2616-.8109-10.8503-1.4533-9.7669-1.7485-19.2039-4.5834-28.2711-8.6756-8.9056-4.0193-17.016-9.2687-24.4628-15.535-4.6226-3.8898-8.802-8.2527-12.3998-13.131-.5648-.7661-.9166-1.6895-1.3669-2.5402z" fill="#bd4b27"/><path d="m177.6613 127.7111c-1.3656 3.3535-2.8019 6.6803-4.0826 10.0659-2.9534 7.8075-4.3657 15.921-4.3351 24.2525.0136 3.6988.413 7.3963.638 11.0943.0218.3584.0484.7165.0864 1.2752-.9052-.0714-1.7241-.1389-2.5435-.2-3.1737-.2367-6.3452-.5137-9.5222-.6897-1.6845-.0933-2.87-.8669-3.8056-2.2037-1.8248-2.6071-3.6754-5.1962-5.5293-7.7827-.2683-.3743-.6142-.6929-1.0943-1.2263-1.0981 4.3923.6859 7.8317 2.7515 11.3195-2.8958.5615-5.6279 1.0453-8.339 1.6272-4.6097.9894-9.1802 2.1809-13.8136 3.0361-9.4309 1.7405-18.9708 2.0979-28.5401 1.8573-1.3682-.0344-2.7354-.142-4.1033-.1488-2.3166-.0116-4.0265-.9887-5.4053-2.8679-3.9036-5.32-6.3084-11.2978-8.0037-17.609-.2499-.9303-.4882-1.8637-.7318-2.7957 1.6729-.0823 3.3476-.1396 5.017-.2668.3607-.0275.7022-.307 1.0525-.4704.7517.3849 1.4902.7986 2.2572 1.1501 7.0441 3.2285 14.4532 5.0205 22.1819 5.326 10.1611.4017 19.9565-1.5688 29.5093-4.9105.3382-.1183.6646-.2701.9965-.4063-2.8899-.0966-5.7062.0098-8.52.1632-6.5946.3594-13.1839.871-19.783 1.0721-5.0806.1549-10.1372-.3641-15.0624-1.7674.4671-.2059.927-.5705 1.4024-.5919 2.9263-.1318 5.856-.1871 8.7846-.2662 6.0181-.1625 12.0357-.3548 18.0546-.4771 5.9471-.1209 11.8957-.1706 17.8437-.2519.1609-.0022.342.038.4793-.0213.7929-.3424 1.8497.0517 2.3832-1.0543.9046-1.8754 1.9474-3.6838 2.8992-5.5372.0872-.1699-.0628-.4616-.1025-.6966.4895-.4106.9961-.8024 1.4653-1.2349 3.939-3.6304 6.7035-8.1967 9.8715-12.4392 2.4738-3.3129 4.8764-6.6789 7.3106-10.0213.9433-.2864 1.8742-.6323 2.8354-.8334.4643-.0971 1.1741-.1115 1.4494.1621 1.4072 1.3978 2.709 2.9019 4.0478 4.369z" fill="#f8d806"/><path d="m394.8693 143.8646c-1.8152-.9345-2.5371-2.7365-3.3858-4.3958-2.346-4.5869-4.5369-9.2546-6.9467-13.8069-2.8371-5.3593-5.7625-10.6756-8.7977-15.9249-2.0457-3.5379-4.1947-7.0372-6.5723-10.3569-3.313-4.6255-6.7702-9.1594-10.3766-13.5596-3.1807-3.8809-6.6619-7.5148-9.9904-11.2754-4.6298-5.2309-9.8071-9.8828-15.4816-13.9153-3.9794-2.8279-8.1517-5.4493-12.4744-7.711-4.5049-2.357-9.221-4.3632-13.9792-6.1684-4.5301-1.7187-9.1804-3.1886-13.8747-4.389-5.739-1.4675-11.5496-2.7067-17.384-3.733-5.0391-.8864-10.1435-1.455-15.2402-1.9434-4.3514-.417-8.7304-.5944-13.1017-.7431-4.8689-.1656-9.743-.1715-14.6147-.2611-3.6617-.0673-7.3242-.2548-10.9842-.2108-4.1371.0496-8.2715.3079-12.408.4462-.4524.0151-.9113-.1625-1.3672-.2507 3.3839-.7076 6.768-1.414 10.1516-2.1231 9.5622-2.004 19.2227-3.2185 28.985-3.6251 10.1684-.4236 20.2972-.0077 30.3951 1.2937 10.9297 1.4086 21.6865 3.5893 32.2069 6.9019 13.8033 4.3462 26.5258 10.8085 38.1796 19.3862 7.4878 5.5113 14.3567 11.6889 20.4042 18.7667 9.9651 11.6626 17.0147 24.8756 21.2792 39.6098 2.2831 7.8883 3.4785 15.979 4.7857 24.0538.2118 1.3093.3954 2.6233.5921 3.9352z" fill="#fcf7eb"/><path d="m79.9095 148.9643c-.2286-1.453-.1843-2.8511.4564-4.237 2.5268-5.4655 4.8561-11.0282 7.5536-16.407 1.8527-3.6942 4.2931-7.0684 7.3695-9.9105.2089.2375.4449.4561.6231.7146 1.5409 2.2355 2.7167 2.507 5.3705 1.6219 3.5338-1.1787 7.0661-2.4694 10.7015-3.2065 3.6751-.7451 7.4671-1.0563 11.2228-1.2261 4.8995-.2215 9.8169-.242 14.7206-.1157 4.5652.1176 9.123.5333 13.6829.835 1.28.0847 2.5559.2304 3.8338.3481-.1799.3556-.3417.7218-.5425 1.0652-2.1911 3.7458-4.4214 7.4691-6.576 11.2357-2.9554 5.1669-5.8703 10.3573-8.7666 15.5577-.6925 1.2433-1.6899 1.888-3.0714 2.0206-.7588.0729-1.5148.186-2.275.2318-5.4927.3309-10.9836.7067-16.4802.9522-4.0208.1796-8.0492.2097-12.0747.2584-8.5827.1038-17.1656.1763-25.7483.2616z" fill="#f9f166"/><path d="m70.3341 282.4098c-2.6828-1.695-5.4259-3.3026-8.0364-5.1024-6.291-4.3373-11.7922-9.4878-15.7929-16.0778-3.6063-5.9404-6.0486-12.3557-7.5268-19.1353-1.2103-5.5513-2.0799-11.1526-2.0062-16.8557.0512-3.9642-.1076-7.9612.3504-11.8826.6328-5.4179 1.633-10.8035 2.715-16.1546.7399-3.659 1.8846-7.2363 2.8576-10.8477.1019-.3781.2672-.7392.5992-1.0983.2545 2.1145.5514 4.2248.7558 6.3441.7572 7.8539 2.5298 15.461 5.3723 22.8261 2.0413 5.2891 4.667 10.2685 7.9152 14.9007 3.9861 5.6844 8.8403 10.5254 14.5288 14.5295 2.7913 1.9648 5.5217 4.016 8.2796 6.0282-.1307 1.0694-.2307 2.1436-.3978 3.2071-.4212 2.6808-.7751 5.3775-1.3378 8.0293-.6453 3.0411-1.3594 6.0804-2.2871 9.0443-.6172 1.972-1.6041 3.8388-2.5282 5.7018-1.0959 2.2096-2.3022 4.3646-3.4607 6.5433z" fill="#d65627"/><path d="m272.5307 432.9317c1.5006-.8789 2.9388-1.895 4.5132-2.6118 5.39-2.4541 10.6472-5.0983 15.1837-8.9951 3.9-3.3499 7.4372-6.9897 9.816-11.618.0881-.1715.2314-.3146.3428-.4627 1.7494 1.0468 3.3843 2.216 5.1736 3.0563 3.7792 1.7747 7.7964 2.1376 11.9012 1.4851 5.7321-.9111 11.4764-1.7605 17.1836-2.8095 6.6108-1.2151 13.0454-3.1337 19.3143-5.5471 4.6876-1.8046 9.3218-3.754 13.9374-5.7373 5.5044-2.3652 10.9767-4.8064 16.4385-7.2687 5.2336-2.3594 10.4486-4.7611 15.6472-7.1967 2.8392-1.3302 5.6631-2.7021 8.4298-4.1755 3.9052-2.0798 7.524-4.5946 10.8971-7.4698 4.1775-3.5609 8.0075-7.4392 11.0183-12.0507 1.9927-3.0522 3.1087-6.4196 3.0822-10.1024-.0052-.7157-.1794-1.4301-.2756-2.1453 2.5867-6.5042 5.1959-12.9916 6.3034-19.9734 1.2267-7.733 1.4682-15.4783.4424-23.2352-.4156-3.1423-1.1559-6.2414-1.7409-9.3616-.0657-.3505-.0815-.7102-.1205-1.0656.3144.3198.7576.5853.9189.9692.4812 1.1453.8516 2.3371 1.2654 3.5106 1.9744 5.5987 3.9239 11.2064 5.93 16.7937 2.1161 5.8939 4.2781 11.7713 6.4358 17.6502 1.217 3.3157 2.4447 6.6279 3.7066 9.9268 1.1667 3.0499 2.3104 6.1581 2.0119 9.4439-.2071 2.28-.4446 4.5234-.1711 6.8007-2.7652 1.3902-5.5164 2.8091-8.2984 4.165-6.6613 3.2468-13.2912 6.5631-20.017 9.6713-11.8459 5.4744-23.7044 10.9268-35.6483 16.1823-15.2323 6.7024-30.7356 12.7419-46.3961 18.3754-19.1547 6.8904-38.6533 12.6891-58.1853 18.3844-5.8408 1.7031-11.6687 3.4503-17.5071 5.1615-.4929.1446-1.0211.1695-1.533.25z" fill="#f9ecc3"/><path d="m78.339 242.5582c.3649-.6966.2828-1.2852-.1092-2.0208-2.9827-5.597-5.0031-11.528-6.4315-17.7193-1.2705-5.5066-1.5554-11.0371-1.368-16.6273.0616-1.8365.1339-3.7178.5719-5.4868.7804-3.1514.2577-5.7855-1.7484-8.422-3.395-4.4617-5.5557-9.5952-6.7594-15.056-.7296-3.3099-1.1087-6.7047-1.5028-10.0779-.2322-1.9878-.2808-4.0097-.2467-6.0134.0889-5.227 1.1702-10.2342 3.3252-15.0307 2.0438-4.5488 4.7625-8.6103 8.6036-11.7664 1.7277-1.4196 3.913-2.2894 5.9178-3.3577.3176-.1693.7792-.0684 1.1744-.0924-1.4289 4.3168-2.7043 8.6922-4.325 12.9358-2.1104 5.5259-2.1949 11.0321-.7941 16.7095 1.5222 6.1696 3.4093 12.189 6.6784 17.6744 1.2319 2.067 2.6673 4.0269 4.1498 5.9264 1.5698 2.0113 3.8892 2.9171 6.3528 3.7296-.7845 1.464-1.5818 2.8393-2.2744 4.2654-2.2296 4.5904-3.4026 9.502-3.7849 14.5399-.3987 5.2535-.6834 10.5476-.5029 15.8062.3199 9.3184 2.5957 18.2281 6.5311 26.7109.5518 1.1894.6476 2.5903.7485 4.0046-5.6006-2.5215-10.1373-6.2656-14.2062-10.632z" fill="#f7db9c"/><path d="m70.3341 282.4098c1.1585-2.1787 2.3648-4.3337 3.4608-6.5434.9241-1.8629 1.911-3.7297 2.5282-5.7018.9277-2.9639 1.6419-6.0032 2.2871-9.0443.5626-2.6518.9165-5.3485 1.3378-8.0293.1671-1.0636.2671-2.1377.3978-3.2071 3.8303 1.6871 7.6893 3.3135 11.469 5.1074.8671.4115 1.7149 1.275 2.1373 2.1421 2.0628 4.2343 3.807 8.6302 5.9921 12.797 2.4223 4.619 5.1512 9.0812 7.8598 13.543.6116 1.0074.8956 1.5504.0084 2.6237-4.5573 5.5139-8.9913 11.1298-13.4723 16.7068-.0957.1191-.2392.1998-.4402.3633-1.9122-2.2024-3.8395-4.3485-5.6841-6.5635-2.8097-3.3738-6.2067-6.0675-9.7746-8.5614-2.5402-1.7756-5.1406-3.465-7.7086-5.2011-.1578-.1067-.2667-.2859-.3985-.4314z" fill="#c34327"/><path d="m315.8443 369.7158c1.1372 1.7418 3.1057 1.5486 4.7617 1.8933 3.168.6594 6.3755 1.2415 9.5955 1.5083 3.5417.2934 7.1159.1965 10.676.2666.2411.0048.4833-.0078.7239-.0257 5.3523-.3987 10.7331-.5753 16.0488-1.2587 5.9868-.7697 11.9133-2.005 17.869-3.0205 3.0341-.5173 6.0746-.9968 9.1125-1.493-.3296.2675-.6199.629-.9957.7864-2.6278 1.1009-5.2375 2.2616-7.9219 3.2075-3.8278 1.3488-7.7103 2.5439-11.5773 3.7797-4.9362 1.5775-9.9173 2.9312-15.1188 3.3568-2.1094.1726-4.2001.5967-6.2905.9576-.3382.0583-.6302.3846-.9435.5871.2987.199.5934.5629.8967.5702 1.9554.0469 3.9217.1322 5.867-.0188 2.5117-.195 5.0118-.5672 7.5088-.9204 5.409-.7651 10.717-1.9608 15.9431-3.579 7.3551-2.2776 14.5145-5.0776 21.3726-8.5269 5.4383-2.7352 10.7159-5.8434 15.8372-9.1397 4.5625-2.9367 8.7037-6.4934 12.3567-10.5459 3.0229-3.3535 5.6549-6.9947 7.6877-11.0474.3085-.6149.7075-1.1844 1.0646-1.7749.1429.0393.2859.0787.4288.118 0 .3528.0846.731-.0127 1.0546-1.4925 4.9609-3.5861 9.6564-6.7341 13.7841-2.1384 2.804-4.3294 5.6361-6.8956 8.0279-3.0344 2.8281-6.4 5.3357-9.8054 7.7204-2.9195 2.0446-6.019 3.8691-9.1763 5.5297-7.8819 4.1455-16.3365 6.7099-25.0062 8.5877-6.1861 1.34-12.3824 2.64-18.5976 3.8358-1.9966.3841-4.0675.3857-6.1054.5496-3.9551.3181-7.9087.6622-11.8677.9234-1.6464.1086-3.305.0322-4.9581.0399.0376-.317.0488-.6399.1172-.9503.4758-2.1611-.4271-3.3705-2.6615-3.3811-1.3983-.0067-2.8183.0449-4.1922.2815-3.3488.5767-6.6924 1.2061-10.0057 1.957-1.5962.3618-3.4008.3667-4.562 1.8578-3.2264-.4435-6.4542-.8777-9.6786-1.3354-1.2155-.1725-2.4232-.3993-3.6344-.6014.5573-.4367 1.1697-.8192 1.662-1.3199 1.966-1.9994 3.8648-4.0655 5.8537-6.0413.6771-.6726 1.1066-1.3416.971-2.305 3.4623-1.2987 6.9245-2.5971 10.3867-3.8956z" fill="#9a2920"/><path d="m460.1161 360.7419c-.2736-2.2773-.036-4.5207.1711-6.8007.2985-3.2858-.8452-6.394-2.0119-9.4439-1.2619-3.2989-2.4896-6.6111-3.7066-9.9268-2.1577-5.8788-4.3197-11.7563-6.4358-17.6502-2.0061-5.5873-3.9556-11.195-5.93-16.7937-.4138-1.1735-.7842-2.3654-1.2654-3.5106-.1613-.3839-.6046-.6495-.9189-.9692-1.2268-3.4211-2.4536-6.842-3.6805-10.2632-.0586-.129-.1172-.2578-.1758-.3865-.0859-.1565-.1718-.313-.2578-.4696.0029-.3617.1029-.7559-.0057-1.0802-2.0562-6.1429-4.1309-12.2797-6.2231-18.4104-.1891-.5543-.5246-1.0586-.7921-1.5861.9834-2.1049 1.9667-4.2099 3.0467-6.5214.2825.4672.458.709.5848.9741 5.3322 11.1486 10.9668 22.1654 15.9044 33.4861 5.2119 11.9495 9.8411 24.1571 14.5662 36.3137 3.0328 7.8028 5.7801 15.7167 8.6507 23.5825.207.5672.433 1.1369.5495 1.7254.173.8737.0938 1.7575-.8064 2.2057-3.7431 1.8642-7.507 3.687-11.2634 5.525z" fill="#fcf7eb"/><path d="m155.444 117.3812c-1.2778-.1177-2.5538-.2634-3.8338-.3481-4.5599-.3017-9.1177-.7174-13.6829-.835-4.9037-.1263-9.8211-.1058-14.7206.1157-3.7558.1698-7.5477.481-11.2228 1.2261-3.6354.7371-7.1677 2.0278-10.7015 3.2065-2.6538.8852-3.8296.6136-5.3705-1.6219-.1781-.2585-.4141-.4771-.6231-.7146 2.0386-2.8624 4.6815-5.0904 7.6155-6.9414 9.0865-5.7324 19.1411-8.7671 29.6957-10.18 3.9332-.5265 7.9432-.7263 11.9131-.6759 6.527.0829 12.7042 1.8697 18.6081 4.615-.3375.9656-.5096 2.0355-1.0417 2.8782-1.9415 3.0749-4.0031 6.0739-6.0195 9.1015-.2051.058-.4105.116-.616.1739z" fill="#f8f5b3"/><path d="m155.444 117.3812c.2054-.058.4109-.1159.6164-.1737.8449.0062 1.6909.0438 2.5343.0128 3.6483-.1343 7.2959-.2886 10.9432-.4354-2.2594 2.8316-4.5491 5.639-6.7711 8.4989-5.2623 6.773-10.5094 13.5582-15.7055 20.3819-.4445.5837-.7883 1.5875-.5996 2.2247.2463.832 1.8072.9191 2.9054.3995.4328-.2048.8756-.3883 1.3138-.5815.0398.2351.1898.5269.1026.6967-.9519 1.8534-1.9946 3.6619-2.8992 5.5372-.5335 1.106-1.5903.7119-2.3832 1.0543-.1373.0593-.3184.0191-.4793.0213-5.948.0813-11.8965.131-17.8437.2519-6.019.1223-12.0365.3146-18.0546.4771-2.9286.0791-5.8583.1344-8.7846.2662-.4754.0214-.9353.386-1.4023.5917-.6254-.1478-1.264-.2544-1.8742-.4497-3.6413-1.1654-7.2731-2.3602-10.9179-3.5143-.3147-.0997-.7001.0239-1.0526.0438.1113.3843.1251.8441.3529 1.1381.5869.7575 1.2685 1.4417 1.9123 2.1552-.3503.1634-.6918.4429-1.0525.4704-1.6694.1272-3.3442.1845-5.017.2668-.4594-2.5837-.9188-5.1674-1.3781-7.7511 8.5828-.0852 17.1656-.1578 25.7482-.2615 4.0256-.0487 8.0539-.0788 12.0747-.2584 5.4966-.2455 10.9875-.6213 16.4802-.9522.7602-.0458 1.5162-.1589 2.275-.2318 1.3815-.1326 2.379-.7772 3.0714-2.0206 2.8963-5.2004 5.8111-10.3907 8.7666-15.5577 2.1545-3.7667 4.3848-7.49 6.576-11.2357.2008-.343.3625-.7092.5424-1.0649z" fill="#f7e412"/><path d="m206.6516 105.297c-.678 2.2147-1.1223 4.5367-2.08 6.623-2.4122 5.2547-5.0477 10.4072-7.6091 15.5931-3.0994 6.2753-5.9454 12.6607-7.534 19.5029-.7482 3.2225-1.1548 6.5297-1.613 9.8129-.5182 3.7133-.2237 7.5957-1.9621 11.0515-1.0529 2.093-2.4335 4.0271-3.7419 5.9823-.4567.6825-2.9142.7731-3.9986.2683-.4688-.2182-.9189-.4765-1.3776-.7166-.8542-7.4953-.547-14.9489.9752-22.3311 3.5655-17.2912 12.6807-31.2866 25.6738-42.952 1.0727-.9629 2.1775-1.8903 3.2673-2.8343z" fill="#cfebf4"/><path d="m425.76 283.7703c-.876 1.7593-1.8146 3.4906-2.6164 5.2831-2.5107 5.6129-5.5708 10.8533-10.1295 15.0773-4.4331 4.1077-9.2404 7.7306-14.5691 10.5931-3.2562 1.7491-6.631 3.2788-9.9688 4.873-.5295.2529-1.1448.326-1.7206.4819 1.3725-2.4478 2.6967-4.9241 4.1273-7.3372 3.3202-5.6004 6.3592-11.3372 8.7778-17.3919.8724-2.1839 1.9877-4.0354 4.2772-5.2462 3.7741-1.996 7.0541-4.7776 10.0521-7.8124 2.0552-2.0804 3.8669-4.4023 5.772-6.6293.2548-.2978.4192-.6729.728-1.1809 1.5143 2.5859 2.7996 4.7561 4.0574 6.942.439.7624.8104 1.5638 1.2126 2.3475z" fill="#9a2920"/><path d="m429.3004 321.0331c-.247.3887-.549.7532-.7326 1.1699-1.6168 3.6692-2.9362 7.5018-4.8803 10.9866-2.795 5.0103-6.6405 9.2456-11.0161 12.991-3.4293 2.9355-7.0799 5.5353-10.9842 7.7951-2.6146 1.5134-5.2512 2.8401-8.4145 1.9513-.2298-.0646-.5124-.0322-.695-.1561-.4768-.3236-1.2664-.6985-1.2775-1.0723-.0155-.5196.4503-1.2071.9112-1.56 1.7526-1.3422 3.5774-2.5913 5.3909-3.8526 6.8571-4.7688 12.9186-10.3558 17.5688-17.3433 2.44-3.6663 4.1252-7.7224 5.7009-11.8232 2.2358-5.8188 4.093-11.7533 5.5031-17.8236.3618-1.5573.5345-3.1577.829-4.7318.089-.4758.2959-.9294.4487-1.3932.1281.0037.2563.0075.3844.0112.1319.5087.2784 1.0142.3933 1.5267.6492 2.8943 1.2868 5.7912 1.9464 8.6831.0372.1633.2346.2902.3569.4341-.4782 4.7357-.9558 9.4714-1.4334 14.2071z" fill="#e87642"/><path d="m459.8886 401.7336c-.0042-1.369.0004-2.738-.0139-4.1068-.0805-7.6814-.1501-15.3629-.2578-23.0439-.0366-2.6082-.173-5.2151-.264-7.8229 2.2542-1.2253 4.5011-2.4642 6.7651-3.6713 2.048-1.092 4.1145-2.1494 6.5694-3.4287 0 2.3372-.0023 4.3685.0004 6.3998.0116 8.5759.0147 17.1517.0454 25.7275.0066 1.8349-.7234 3.0714-2.388 3.9612-2.8002 1.497-5.5002 3.181-8.248 4.7766-.7255.4213-1.4718.8067-2.2086 1.2085z" fill="#f08520"/><path d="m143.2372 420.3506c4.1266 1.318 8.2585 2.6199 12.3714 3.9791.4084.1349.7764.5685 1.0359.9501 2.8927 4.254 5.7312 8.5451 8.6441 12.7852 2.3202 3.3772 4.6832 6.7269 7.1024 10.0337 1.7765 2.4283 2.4794 5.1802 2.8287 8.0915.4298 3.5829.9285 7.1575 1.3662 10.7394.2309 1.8886.3956 3.7852.3451 5.7546-11.2826-17.3738-22.5652-34.7476-33.8478-52.1214.0514-.0707.1027-.1414.154-.2122z" fill="#c34327"/><path d="m101.3992 188.4355c5.7031.2484 11.4227-.6567 17.1207-.0439.0601.1516.1202.3031.1803.4547-2.3739 2.5231-4.7478 5.0461-7.1218 7.5692-3.4956-.9619-6.991-1.9238-10.5539-2.9042-.1276 1.0202-.3448 1.927-.3352 2.8313.0325 3.0476.1137 6.0957.2461 9.1406.0441 1.0157.2982 2.0222.4563 3.033-.241 1.8643-.4621 3.7315-.7273 5.5923-.5194 3.6445-1.0825 7.2828-1.59 10.9289-.3145 2.2592-.5988 4.5241-.8226 6.7938-.1483 1.5034-.2613 3.0223-.2213 4.5298.0841 3.1687.2857 6.3342.4177 9.5018.0114.2735-.1352.5535-.2348.9305-.2391-.1828-.3763-.232-.4064-.3186-2.2704-6.5217-4.6333-13.0307-5.5529-19.914-.5903-4.4183-.8806-8.8753-.3159-13.3383.5024-3.9703.7649-7.9863 1.5367-11.9026.6798-3.4492 1.6805-6.8894 4.0323-9.6996.1173-.1402.3197-.2092.4827-.3111.9161.6253 1.832 1.2503 2.941 2.0071.1717-1.7893.32-3.335.4683-4.8807z" fill="#9a2920"/><path d="m289.2263 389.8087c-1.6139 1.373-3.2102 2.7673-4.8448 4.1152-7.1134 5.8657-15.5703 8.6982-24.3897 10.6121-3.2362.7022-6.5595 1.0006-9.8404 1.5005-6.62 1.0086-13.2892 1.1087-19.9561.9095-1.9565-.0585-3.8941-.7484-5.8403-1.1487 1.7526-.325 3.493-.7618 5.26-.9561 8.0349-.8833 16.0403-1.8766 23.8888-3.9348 7.3117-1.9173 14.4599-4.2677 21.3278-7.4287 2.4036-1.1063 4.7396-2.3589 7.1122-3.5331 2.0737-1.0263 4.2455-1.0991 6.4582-.5888.2939.0678.5505.2979.8243.4529z" fill="#831818"/><path d="m169.5385 116.7847c-3.6478.1471-7.2954.3014-10.9437.4357-.8434.031-1.6893-.0065-2.5343-.0128 2.0162-3.0279 4.0778-6.0269 6.0193-9.1018.5321-.8427.7042-1.9126 1.0417-2.8782 6.3926 2.4025 11.8022 6.3363 16.8637 10.8147.6618.5856 1.3219 1.1768 2.0209 1.716 1.1563.8921 1.1783 1.1693.0622 2.2251-.2029-.1174-.392-.2776-.61-.3459-1.8539-.5811-3.4479.1267-4.9711 1.0672-2.2596 1.3952-3.3061 1.2375-4.8838-.7974.8743-2.2354 1.7485-4.4707 2.6227-6.7061-.1266-.0625-.2532-.1251-.3798-.1876-1.4359 1.2571-2.8719 2.5141-4.3078 3.7711z" fill="#f9f166"/><path d="m175.6053 444.0563c2.4665.2516 4.9343.4916 7.3991.7586 1.8672.2023 3.7253.5435 5.597.6411 5.7289.2987 11.4608.5714 17.1951.7216 2.0296.0532 4.0681-.2924 6.1051-.4141.3644-.0217.7411.1624 1.1123.2514-5.1782.9353-10.3528 1.8914-15.5357 2.8004-5.6201.9856-11.2457 1.9409-16.8771 2.8591-.4021.0656-1.1053-.152-1.2723-.4558-1.296-2.3572-2.4946-4.768-3.7235-7.1623z" fill="#f9ecc3"/><path d="m101.3916 208.5161c-.1581-1.0107-.4122-2.0173-.4563-3.033-.1324-3.0449-.2135-6.093-.2461-9.1406-.0097-.9043.2076-1.8111.3352-2.8313 3.563.9805 7.0584 1.9423 10.5539 2.9042-1.7042 2.8632-3.4025 5.7299-5.1154 8.5879-.927 1.5467-1.8787 3.0786-3.0952 4.6091 0-1.6082 0-3.2164 0-4.8246-.1426-.0253-.2852-.0506-.4277-.076-.5161 1.2682-1.0322 2.5363-1.5484 3.8043z" fill="#bd4b27"/><path d="m305.4576 373.6112c.1356.9633-.2939 1.6324-.971 2.305-1.9889 1.9758-3.8877 4.0419-5.8537 6.0413-.4923.5006-1.1048.8831-1.662 1.3199-2.3429-.408-4.6857-.8159-7.0284-1.2238-.0777-1.3696-.1555-2.7394-.2332-4.1093 3.9352-1.1252 7.8667-2.2631 11.8075-3.3683 1.3014-.365 2.6265-.6456 3.9408-.9648z" fill="#831818"/><path d="m310.2839 385.2141c1.1612-1.4911 2.9659-1.496 4.562-1.8578 3.3133-.751 6.6569-1.3803 10.0057-1.957 1.3739-.2366 2.7939-.2882 4.1922-.2815 2.2345.0106 3.1373 1.2199 2.6615 3.3811-.0683.3104-.0795.6333-.1172.9503-1.7262.0023-3.4529-.0208-5.1786.0126-3.0817.0597-6.1625.2036-9.2441.2157-2.1174.0084-4.2357-.1412-6.3529-.2375-.1791-.0081-.3524-.1474-.5286-.2259z" fill="#831818"/><path d="m428.8837 263.4507c.2675.5275.6029 1.0319.7921 1.5861 2.0922 6.1307 4.1669 12.2675 6.2231 18.4104.1086.3243.0085.7185.0057 1.0802-1.1443-2.1161-2.1545-4.3198-3.4644-6.328-1.9715-3.0227-4.1518-5.9094-6.246-8.8521-.2068-.2907-.4323-.568-.7054-.9249 1.1403-1.6698 2.2676-3.3207 3.3949-4.9717z" fill="#f9ecc3"/><path d="m171.6034 119.9074c1.5777 2.0349 2.6242 2.1925 4.8838.7974 1.5232-.9405 3.1171-1.6483 4.9711-1.0672.218.0683.4071.2286.61.3459-1.4688 2.5757-2.938 5.1516-4.407 7.7275-1.3387-1.467-2.6405-2.9712-4.0478-4.3692-.2754-.2736-.9851-.2592-1.4494-.1621-.9612.201-1.892.547-2.8353.8334.7582-1.3685 1.5164-2.7371 2.2746-4.1057z" fill="#f7e412"/><path d="m238.3936 396.835c2.6576-.7129 5.3018-1.4815 7.9762-2.1248 3.4236-.8235 6.8592-1.6079 10.3118-2.2982 5.7611-1.1521 11.5395-2.218 17.3122-3.3115.2326-.044.4818-.0001.7234.0031-.714.3811-1.3874.9247-2.1491 1.1158-4.1541 1.0415-8.3124 2.0797-12.5031 2.9581-4.5834.9608-9.2019 1.7552-13.8084 2.6043-2.4006.4424-4.8071.8538-7.2152 1.2537-.1993.033-.4311-.1291-.6478-.2005z" fill="#831818"/><path d="m109.6184 303.1587c-.7263-.8095-1.4526-1.619-2.179-2.4285.8746-1.3091 1.7181-2.6405 2.635-3.9192.5964-.8317 1.2997-1.5866 1.9552-2.3759 1.0906.2124 1.5826 1.0221 1.9517 1.9547-1.4542 2.2563-2.9086 4.5126-4.3629 6.7689z" fill="#831818"/><path d="m113.9814 296.3898c-.3691-.9326-.8611-1.7423-1.9517-1.9547 1.5176-2.3852 3.3111-4.5027 5.7072-6.0019.1483.0714.2405.0867.2846.1411 1.7346 2.1377 1.7407 2.1449-.2422 4.1149-1.2538 1.2457-2.5311 2.4678-3.7979 3.7006z" fill="#9a2920"/><path d="m104.4144 269.9678c.7939.8806 1.5872 1.7616 2.3817 2.6415 2.2349 2.4752 4.4703 4.9498 6.7051 7.425.108.1196.2972.2367.305.3638.0378.6174.2321 1.6609-.0062 1.7767-.6762.3284-1.5699.4441-2.1507-.4057-1.6516-2.4164-3.3095-4.8285-4.9588-7.2465-.7239-1.0613-1.4449-2.125-2.1418-3.204-.2212-.3425-.3603-.7379-.537-1.1091.1342-.0805.2684-.1611.4027-.2417z" fill="#9a2920"/><path d="m289.7093 377.9443c.0778 1.3698.1555 2.7396.2332 4.1093-2.801-.6518-5.6049-1.2905-8.3977-1.9749-.2814-.0689-.4951-.4143-.7402-.6313.1952-.1692.3745-.461.5881-.4888 2.7693-.36 5.5435-.6824 8.3166-1.0143z" fill="#9a2920"/><path d="m101.3992 188.4355c-.1483 1.5457-.2966 3.0913-.4684 4.8807-1.109-.7568-2.0249-1.3818-2.941-2.0071.7336-2.0044 1.7898-2.8945 3.4094-2.8736z" fill="#831818"/><path d="m436.1623 284.9971c.0586.1288.1172.2575.1758.3865-.0586-.1287-.1172-.2577-.1758-.3865z" fill="#f9ecc3"/><path d="m221.7803 144.8811c10.5913-13.0375 24.1523-21.8225 39.7135-27.7497 6.9572-2.6499 14.1123-4.493 21.5178-5.3173 6.468-.7199 12.9291-.7567 19.4063.0139 9.1505 1.0886 17.9503 3.4166 26.3304 7.2451 10.2229 4.6704 18.6122 11.6234 25.0956 20.7872 7.7468 10.9498 12.703 23.0878 14.2086 36.4308 1.9532 17.3099-3.1178 32.2174-16.1428 44.1274-1.8405 1.683-3.7179 3.3255-5.5782 4.9868-.0985.0789-.1971.1577-.2956.2365 0 0 .0116-.0169.0116-.0168-.207.1171-.42.2246-.62.3524-4.1046 2.6206-8.0873 5.4596-12.3333 7.8264-14.231 7.9329-29.6443 11.7627-45.8314 12.766-8.3248.516-16.5955.1418-24.7907-1.4348-8.8077-1.6944-17.1425-4.724-24.9798-9.0949-7.1412-3.9827-13.5223-8.8951-18.5235-15.4371-8.1886-10.7115-10.5444-22.955-9.214-36.082.4993-4.9264 1.3486-9.817 2.0237-14.7259.827-6.0142 1.9659-11.91 5.3911-17.1253 1.6544-2.519 3.0809-5.1877 4.6107-7.7887zm48.2726-21.6697c-7.9516 2.5423-15.7369 5.4739-22.8745 9.8931-5.3955 3.3405-10.3954 7.1711-14.604 11.9639-.1315.0907-.2753.1679-.3927.2742-5.0413 4.5686-8.7368 10.0993-11.4565 16.287-2.4867 5.6578-4.5432 11.4589-5.2173 17.662-.5866 5.3985-.3644 10.7921.1309 16.1774.8201 8.9165 4.1311 16.7876 10.2702 23.3402 6.9978 7.4692 15.7039 12.2935 25.2862 15.5468 15.0327 5.1038 30.4642 5.5087 45.9894 3.1095 14.1989-2.1943 27.4353-7.1193 39.2957-15.3573 2.9267-2.0328 5.5437-4.5115 8.303-6.7853 1.3092-1.2966 2.6187-2.5928 3.9275-3.8897 4.532-4.4906 8.1065-9.537 9.2737-15.9803.1227-.2052.2903-.396.3612-.6177 1.4403-4.5015 1.9674-9.1257 1.7401-13.8319-.2879-5.9605-1.6689-11.7046-3.5007-17.3626-2.9959-9.2535-7.5064-17.665-14.3224-24.6404-13.1047-13.4113-29.2842-19.4066-47.883-19.3599-8.2874.0208-16.3028 1.8032-24.3268 3.571z" fill="#381a15"/><path d="m221.7803 144.8811c-1.5297 2.601-2.9563 5.2697-4.6107 7.7888-3.4252 5.2153-4.5641 11.1112-5.3911 17.1253-.675 4.9089-1.5244 9.7995-2.0237 14.7259-1.3305 13.127 1.0254 25.3705 9.214 36.082 5.0012 6.542 11.3823 11.4544 18.5235 15.4371 7.8373 4.371 16.1721 7.4005 24.9798 9.0949 8.1952 1.5765 16.4659 1.9508 24.7907 1.4348 16.1871-1.0033 31.6003-4.8331 45.8314-12.766 4.2459-2.3669 8.2286-5.2058 12.3333-7.8264.2001-.1277.4131-.2353.62-.3524-.8522 1.4217-1.5431 2.9764-2.5855 4.2415-3.7686 4.5736-8.2577 8.3927-13.0532 11.8416-2.2983 1.6529-4.7329 3.1155-7.0824 4.6991-.3672.2475-.6092.6809-.9089 1.0283-.7839.4286-1.5679.8572-2.3519 1.2859-.8122.1787-1.695.2096-2.4259.5587-8.0394 3.8393-16.3218 7.0272-25.0327 8.931-4.6074 1.007-9.2968 1.6695-13.971 2.3334-6.2298.8848-12.519.9276-18.7848.6845-5.8793-.2281-11.7255-.8278-17.5325-2.0025-6.4617-1.3071-12.6923-3.2397-18.63-6.0126-4.2182-1.9699-8.1367-4.5185-11.713-7.5594-5.4437-4.6288-9.7537-10.127-12.7876-16.5894-2.1088-4.4918-3.6796-9.1676-4.1243-14.1531-.3454-3.8718-.61-7.7512-.9848-11.62-.7152-7.3818.0488-14.615 2.4385-21.6121 1.7632-5.1624 3.6918-10.2854 5.8756-15.2822 2.0642-4.7231 4.9783-8.9539 8.4488-12.8241 2.6768-2.985 5.6844-5.5547 8.8347-7.9806.5551-.4274 1.3953-.4842 2.1037-.712zm15.892 102.9029c.3983.6405.5656 1.0043.8159 1.2972 2.3277 2.724 5.1458 4.8052 8.5817 5.8277 14.4431 4.2981 28.6574 3.3995 42.6105-2.1441 2.288-.909 4.4909-2.0324 6.7331-3.0566-.3077-.2616-.5054-.2794-.6992-.2591-7.0128.7361-14.0448 1.3267-21.0333 2.2481-11.9 1.5688-23.5626 1.1486-34.863-3.3384-.5777-.2295-1.2073-.3278-2.1457-.5748zm-32.5575-66.786c-.1792-.0614-.3583-.1228-.5375-.1843-.5911 1.2776-1.4166 2.5009-1.7275 3.8435-.8059 3.4802-1.6279 6.987-2.0064 10.5299-.8968 8.3944.6977 16.367 4.753 23.8069 3.9336 7.2166 9.5704 12.8934 16.116 17.7373 1.2879.9531 2.619 1.848 3.9301 2.7698-.091-.6228-.3501-1.0274-.6334-1.4144-4.4238-6.0447-8.8391-12.0958-13.2802-18.1278-4.6902-6.3705-7.101-13.5349-7.219-21.4074-.0669-4.4621.2327-8.93.3833-13.3947.0469-1.3874.1463-2.7727.2216-4.1588z" fill="#cfebf4"/><path d="m375.9924 258.9339c2.4349.3587 4.8856.6346 7.3005 1.0973 2.9603.5671 5.3593 2.2213 7.5119 4.2627-.6602.8208-1.3206 1.6417-2.1576 2.6823 1.4691.5815 2.7061 1.0712 3.9431 1.5609.1737 3.1381-1.8453 4.9526-4.1057 6.5005-2.5643 1.756-5.4078 2.73-8.5965 2.7307-4.1491.0009-8.2865-.0314-12.2988-1.2246-5.1627-1.5353-9.2912-4.4261-11.9628-9.2428-1.3507-2.4352-2.3255-4.9537-2.2301-7.7623.0694-2.0405.2642-4.0807.499-6.1099.1151-.9946.8215-1.6089 1.8384-1.5672.9108.0374 1.8182.2485 2.719.4246 2.8294.5532 5.6523 1.1404 8.4843 1.679.5473.1041 1.125.0485 1.6887.0664.0118.1598.0207.32.0357.4797.4154 4.4155 2.7576 7.5244 6.4599 8.5428 1.6719.4599 3.1543.0962 4.5579-1.1402-1.279-1.0339-2.4829-2.0069-3.6869-2.9799z" fill="#cfecf6"/><g fill="#381a15"><path d="m370.3673 306.3791c-1.8855 5.2632-3.6814 10.5686-7.0673 15.1304-.3344.4505-.6892.8859-1.0429 1.3215-.072.0887-.1818.1467-.4725.3739 1.2369-4.4703 2.417-8.7349 3.597-12.9996 1.5364-6.4793 2.4831-12.9722.6053-19.5621-1.2249-4.2985-3.6285-7.755-7.1946-10.4419-3.6311-2.7359-7.3208-5.4069-10.7975-8.3293-1.6592-1.3947-3.1309-3.1572-4.2503-5.0163-1.8284-3.0367-1.2289-6.8706 1.1135-9.5286.1795-.2036.5907-.4677.7205-.3947.2567.1443.5113.4871.555.7795.1306.8745.1911 1.7631.2215 2.6482.1062 3.0915 1.332 5.5719 3.8386 7.4432 3.9351 2.9378 7.9641 5.7702 11.7139 8.9312 6.275 5.2896 9.3629 12.2164 9.3282 20.4062-.0132 3.0806-.5632 6.159-.8684 9.2384z"/><path d="m150.7663 277.7343c-3.6333-1.6202-7.3388-3.0977-10.883-4.8937-5.501-2.7876-9.9165-6.9692-13.9797-11.5398-2.1474-3.0721-3.8502-6.3555-4.2254-10.1385-.4626-4.6641-.3479-9.2759 2.2312-13.4445.2008-.3245.6742-.4803 1.021-.7146.1504.3921.4409.7884.4295 1.1758-.1195 4.0642-.342 8.1259-.4269 12.1905-.0918 4.3974 1.9395 7.8506 4.9516 10.8943 5.1376 5.1915 11.2108 9.0084 17.6496 12.324 3.2913 1.6949 6.5584 3.4368 9.8244 5.18.3144.1678.5432.4961.8117.7499-.0666.1018-.1332.2035-.1998.3053-2.4015-.6963-4.8029-1.3925-7.2042-2.0887z"/><path d="m320.0656 248.7214c.784-.4286 1.5681-.8573 2.3519-1.2859 4.3865-.9347 8.3863-2.8401 12.1487-5.179 7.4163-4.6104 14.7359-9.376 22.1061-14.0608.5983-.3803 1.2778-.6328 1.9196-.9447.093.0686.1859.1372.2789.2059-.2307.4494-.38.9706-.7039 1.3379-9.0991 10.3192-20.0536 17.8055-33.3462 21.6553-1.1678.3382-2.468.3425-3.7001.3023-1.3572-.0443-1.6583-.7398-1.055-2.031z"/><path d="m392.5904 268.5371c-1.237-.4897-2.474-.9793-3.9431-1.5609.837-1.0407 1.4973-1.8615 2.1576-2.6823 3.7117-.8148 6.5766-3.1132 9.4159-5.4289 5.8276-4.7532 11.6224-9.5464 17.4451-14.3057.4969-.4062 1.1003-.6821 1.6543-1.0185.0887.0958.1775.1917.2662.2875-.8541 1.33-1.6852 2.6755-2.5664 3.9873-3.7636 5.6023-8.001 10.7774-13.4471 14.8609-2.9783 2.2331-6.197 4.0265-9.6663 5.3723-.4363.1691-.8773.3258-1.3162.4883z"/><path d="m371.7785 213.1212c3.3092-11.3009 5.8052-22.771 10.3679-33.8108 1.0938 1.5659 1.1395 3.1877 1.1407 4.7574.0036 5.1255-1.1502 10.058-2.7349 14.8968-1.2296 3.7549-2.7138 7.4039-4.942 10.6984-1.4221 2.1026-2.4081 2.9758-3.8317 3.4582z"/><path d="m375.9924 258.9339c1.2039.9729 2.4079 1.9459 3.6871 2.9798-1.4037 1.2364-2.886 1.6001-4.5579 1.1402-3.7023-1.0184-6.0445-4.1273-6.4599-8.5428-.015-.1596-.0239-.3198-.0357-.4797.3643-1.271.7086-2.5485 1.1081-3.8085.0928-.2928.373-.5262.567-.7869.2539.255.6451.4682.7378.7723.3863 1.2678.7095 2.5569 1.0062 3.8495.5227 2.2774 1.8669 3.8699 3.9473 4.8761z"/></g><path d="m346.0359 225.6419c.0985-.0788.197-.1577.2956-.2365-.0986.0788-.1971.1576-.2956.2365z" fill="#cfebf4"/><path d="m333.7988 336.7504c-2.4501 1.2099-4.8578 2.5168-7.359 3.6099-5.4615 2.387-10.9369 4.7491-16.4669 6.9713-13.482 5.4179-27.3605 9.4197-41.8659 10.8189-5.7229.552-11.5007.6349-17.2567.7209-8.691.1298-17.2861-.9535-25.8264-2.4836-2.5166-.4509-5.0644-.8491-7.271-2.2774.0172-.1131.0344-.2261.0516-.3392 2.1157.2608 4.2511.4146 6.3436.8011 8.7403 1.6143 17.5512 2.5057 26.4338 2.5394 11.9832.0455 23.7851-1.4153 35.3983-4.4352 9.2259-2.3991 18.0513-5.9494 26.9896-9.1778 6.2869-2.2708 12.5503-4.6067 18.8331-6.889.6311-.2293 1.3238-.2895 1.9877-.4283.0025.1894.0053.3792.0082.569z" fill="#381a15"/><path d="m181.7648 346.8529c-8.7313-6.0596-14.5474-14.0935-18.7551-23.3744-.9811-2.1641-1.9046-4.3556-2.8045-6.555-1.118-2.7325-1.5097-5.587-1.2335-8.5239.0329-.3496.2689-.68.4108-1.0193.2615.2604.6154.475.7709.7881 2.7041 5.4461 5.1752 11.0203 8.1272 16.3273 2.9701 5.3394 6.3972 10.4258 9.6576 15.602 1.1588 1.8398 2.4409 3.6018 3.6063 5.4377.2198.3463.1542.8737.2203 1.3175z" fill="#381a15"/><path d="m333.7988 336.7504c-.0028-.1898-.0057-.3795-.0083-.5692.2826-.2478.5284-.568.8531-.7324 2.6913-1.362 5.3919-2.7063 8.1043-4.026.4295-.209.9319-.2682 1.4006-.3967.0454.1425.0908.285.1363.4276-1.4695.8037-2.9172 1.6506-4.4136 2.4006-2.0046 1.0046-4.0466 1.9342-6.0724 2.8961z" fill="#381a15"/><path d="m87.3571 155.9781c-.6438-.7135-1.3254-1.3976-1.9123-2.1552-.2278-.294-.2416-.7538-.3529-1.1381.3526-.0199.738-.1435 1.0526-.0438 3.6447 1.1542 7.2766 2.349 10.9179 3.5143.6102.1953 1.2488.3019 1.8742.4497 4.925 1.4035 9.9817 1.9225 15.0623 1.7676 6.5991-.2012 13.1884-.7127 19.783-1.0721 2.8138-.1534 5.6301-.2598 8.52-.1632-.3319.1362-.6583.288-.9965.4063-9.5527 3.3416-19.3482 5.3122-29.5093 4.9105-7.7287-.3055-15.1378-2.0975-22.1819-5.326-.7669-.3514-1.5054-.7651-2.2571-1.15z" fill="#381a15"/><path d="m171.6034 119.9074c-.7582 1.3686-1.5164 2.7372-2.2747 4.1058-2.4343 3.3424-4.8369 6.7085-7.3107 10.0213-3.168 4.2425-5.9325 8.8089-9.8715 12.4392-.4692.4324-.9759.8243-1.4653 1.2349-.4384.1931-.8812.3766-1.314.5814-1.0982.5196-2.6591.4325-2.9054-.3995-.1886-.6372.1552-1.641.5996-2.2247 5.1961-6.8237 10.4432-13.6089 15.7055-20.3819 2.222-2.8599 4.5117-5.6673 6.7711-8.4989 1.4365-1.2573 2.8724-2.5144 4.3084-3.7714.1266.0625.2532.1251.3798.1876-.8743 2.2355-1.7485 4.4708-2.6228 6.7062z" fill="#381a15"/><path d="m232.5743 145.0684c4.2086-4.7927 9.2086-8.6234 14.604-11.9639 7.1377-4.4192 14.9229-7.3508 22.8747-9.8929 1.218.6752 2.3941 1.4462 3.6655 1.9977 1.2275.5324 2.5351 1.1067 3.8391 1.1948 4.3245.2922 8.6641.3531 12.9961.543 2.7223.1193 5.4566.1802 8.1586.4972 5.5556.6518 10.7668 2.5361 15.7444 5.0007 7.5766 3.7515 14.1524 8.9482 20.3874 14.5909 3.5881 3.2472 6.6192 6.9982 9.2429 11.0394 3.4252 5.2756 5.9079 11.0199 7.936 16.9695 1.3448 3.9451 2.7846 7.8579 4.1889 11.7826.8685 2.4271 1.5751 4.8823 1.5286 7.4987-.0066.3741.1584.7512.2439 1.1269-1.1672 6.4433-4.7418 11.4897-9.2737 15.9803-1.3088 1.2969-2.6183 2.5932-3.9278 3.8898-2.7158.683-5.4566 1.2794-8.1408 2.0682-4.5439 1.3353-9.021 2.9034-13.5818 4.1741-8.7136 2.4276-17.6518 3.5109-26.6535 4.1387-1.3984.0975-2.7937.2449-4.1931.3237-2.6028.1466-5.2064.3079-7.8119.3673-1.3987.0319-2.8051-.0971-4.2022-.2207-2.6707-.2363-5.3685-.3486-7.9974-.8286-3.3015-.6028-6.5545-1.4857-9.8109-2.3165-3.5293-.9004-6.779-2.4679-9.8654-4.3781-3.207-1.9849-5.9998-4.458-8.2064-7.511-2.3196-3.2093-4.7268-6.3935-6.6642-9.8318-2.8018-4.9724-4.7216-10.339-5.9911-15.9323-1.0508-4.6298-1.7285-9.3018-1.7134-14.043.0099-3.125.1922-6.258.4772-9.371.2695-2.9432.7912-5.8627 1.1697-8.7967.3481-2.6962.6529-5.3978.9766-8.097z" fill="#f8e007"/><path d="m232.5743 145.0684c-.3238 2.6992-.6286 5.4008-.9764 8.0969-.3785 2.9341-.9003 5.8535-1.1697 8.7967-.285 3.1129-.4673 6.246-.4772 9.371-.015 4.7412.6626 9.4132 1.7134 14.043 1.2695 5.5933 3.1893 10.9598 5.9911 15.9323 1.9374 3.4383 4.3446 6.6225 6.6642 9.8318 2.2066 3.053 4.9993 5.5261 8.2064 7.511 3.0864 1.9102 6.3361 3.4776 9.8654 4.3781 3.2564.8308 6.5094 1.7137 9.8109 2.3165 2.6289.48 5.3267.5923 7.9974.8286 1.397.1236 2.8035.2526 4.2022.2207 2.6055-.0594 5.2091-.2207 7.8119-.3673 1.3993-.0788 2.7946-.2261 4.1931-.3237 9.0017-.6278 17.94-1.7112 26.6535-4.1387 4.5608-1.2706 9.038-2.8388 13.5818-4.1741 2.6843-.7888 5.4251-1.3852 8.1408-2.0682-2.759 2.2737-5.376 4.7524-8.3027 6.7852-11.8604 8.238-25.0969 13.163-39.2957 15.3573-15.5251 2.3992-30.9566 1.9943-45.9894-3.1095-9.5823-3.2533-18.2885-8.0776-25.2862-15.5468-6.1391-6.5527-9.4501-14.4238-10.2702-23.3402-.4953-5.3852-.7175-10.7789-.1309-16.1774.6741-6.203 2.7305-12.0042 5.2173-17.662 2.7196-6.1877 6.4152-11.7184 11.4565-16.287.1172-.1063.261-.1835.3925-.2742z" fill="#fbc80b"/><path d="m357.9846 195.4529c-.0855-.3757-.2505-.7528-.2439-1.1269.0465-2.6164-.6601-5.0716-1.5286-7.4987-1.4044-3.9247-2.8441-7.8375-4.1889-11.7826-2.0281-5.9495-4.5108-11.6939-7.936-16.9695-2.6237-4.0412-5.6548-7.7922-9.2429-11.0394-6.235-5.6427-12.8108-10.8394-20.3874-14.5909-4.9776-2.4646-10.1888-4.349-15.7444-5.0007-2.702-.317-5.4363-.3779-8.1586-.4972-4.332-.1899-8.6716-.2508-12.9961-.543-1.304-.0881-2.6116-.6624-3.8391-1.1948-1.2714-.5515-2.4475-1.3225-3.6655-1.9977 8.0238-1.768 16.0392-3.5504 24.3268-3.5712 18.5988-.0467 34.7783 5.9486 47.883 19.3599 6.8159 6.9754 11.3264 15.3869 14.3224 24.6404 1.8318 5.658 3.2128 11.4021 3.5007 17.3626.2273 4.7062-.2998 9.3304-1.7401 13.8319-.0711.2218-.2388.4126-.3614.6178z" fill="#f4ec1d"/><path d="m237.6723 247.784c.9384.247 1.568.3454 2.1456.5747 11.3004 4.487 22.9631 4.9072 34.863 3.3384 6.9884-.9213 14.0205-1.512 21.0333-2.2481.1938-.0203.3916-.0026.6992.2591-2.2422 1.0243-4.4451 2.1476-6.7331 3.0566-13.9531 5.5436-28.1673 6.4422-42.6105 2.1441-3.4359-1.0225-6.254-3.1037-8.5817-5.8277-.2502-.2928-.4175-.6566-.8158-1.2971z" fill="#381a15"/><path d="m205.1148 180.998c-.0753 1.3861-.1747 2.7715-.2215 4.1586-.1505 4.4648-.4502 8.9327-.3833 13.3947.118 7.8725 2.5288 15.0369 7.219 21.4074 4.441 6.0321 8.8563 12.0831 13.2802 18.1278.2832.387.5424.7916.6334 1.4144-1.3112-.9218-2.6422-1.8167-3.9301-2.7698-6.5456-4.8439-12.1824-10.5207-16.116-17.7373-4.0553-7.4399-5.6498-15.4125-4.753-23.8069.3785-3.5429 1.2005-7.0497 2.0064-10.5299.3109-1.3425 1.1364-2.5658 1.7275-3.8435.1791.0616.3582.123.5374.1845z" fill="#381a15"/></g></svg>