<svg xmlns="http://www.w3.org/2000/svg" version="1.1" xmlns:xlink="http://www.w3.org/1999/xlink" xmlns:svgjs="http://svgjs.com/svgjs" width="512" height="512" x="0" y="0" viewBox="0 0 60 60" style="enable-background:new 0 0 512 512" xml:space="preserve" class=""><g><circle cx="30" cy="30" r="29" fill="#f47676" opacity="1" data-original="#d94452" class=""></circle><circle cx="30" cy="30" r="24" fill="#f4f6f8" opacity="1" data-original="#f4f6f8" class=""></circle><path fill="#f47676" d="M33 30a3 3 0 0 1-6 0 2.92 2.92 0 0 1 .44-1.55 2.474 2.474 0 0 1 .28-.38A2.975 2.975 0 0 1 30 27a2.733 2.733 0 0 1 1 .18 2.195 2.195 0 0 1 .44.2A2.985 2.985 0 0 1 33 30z" opacity="1" data-original="#d94452" class=""></path><g fill="#636c77"><path d="M30 14a1 1 0 0 0 1-1v-3a1 1 0 0 0-2 0v3a1 1 0 0 0 1 1zM20.866 12.18a1 1 0 1 0-1.732 1l1.5 2.6a1 1 0 1 0 1.732-1zM15.777 20.634l-2.6-1.5a1 1 0 1 0-1 1.732l2.6 1.5a1 1 0 1 0 1-1.732zM14 30a1 1 0 0 0-1-1h-3a1 1 0 0 0 0 2h3a1 1 0 0 0 1-1zM14.777 37.634l-2.6 1.5a1 1 0 1 0 1 1.732l2.6-1.5a1 1 0 1 0-1-1.732zM22 43.856a1 1 0 0 0-1.366.367l-1.5 2.6a1 1 0 1 0 1.732 1l1.5-2.6A1 1 0 0 0 22 43.856zM30 46a1 1 0 0 0-1 1v3a1 1 0 0 0 2 0v-3a1 1 0 0 0-1-1zM39.366 44.223a1 1 0 1 0-1.732 1l1.5 2.6a1 1 0 1 0 1.732-1zM47.82 39.134l-2.6-1.5a1 1 0 1 0-1 1.732l2.6 1.5a1 1 0 1 0 1-1.732zM50 29h-3a1 1 0 0 0 0 2h3a1 1 0 0 0 0-2zM44.724 22.5a1 1 0 0 0 .5-.134l2.6-1.5a1 1 0 1 0-1-1.732l-2.6 1.5a1 1 0 0 0 .5 1.866zM40.5 11.813a1 1 0 0 0-1.366.367l-1.5 2.6a1 1 0 1 0 1.732 1l1.5-2.6a1 1 0 0 0-.366-1.367zM32.71 19.71a1.014 1.014 0 0 1-1.42 0l-.29-.3v7.77a2.733 2.733 0 0 0-1-.18 2.975 2.975 0 0 0-2.28 1.07l-3.78-6.57a1 1 0 1 1 1.73-1L29 26.27v-6.86l-.29.3a1 1 0 0 1-1.42-1.42l2-2a1.209 1.209 0 0 1 .3-.2l.09-.03a1.193 1.193 0 0 1 .26-.05h.09a.866.866 0 0 1 .32.06.037.037 0 0 1 .03.01.853.853 0 0 1 .3.19c.01.01.02.01.03.02l2 2a1.008 1.008 0 0 1 0 1.42z" fill="#636c77" opacity="1" data-original="#636c77" class=""></path></g></g></svg>