<svg width="800" height="800" viewBox="0 0 800 800" fill="none" xmlns="http://www.w3.org/2000/svg">
<g clip-path="url(#clip0_78_11)">
<path d="M368.162 462.797C451.667 498.928 506.116 381.99 506.116 305.775C506.116 232.192 449.537 189.051 375.999 221.478C382.139 211.222 391.854 196.545 404.13 182.466H404.144C414.538 170.515 434.894 155.172 434.894 155.172C437.954 152.859 437.625 149.639 434.147 148.017L409.539 136.521C406.063 134.892 401.332 136.08 399.029 139.146C399.029 139.146 380.831 165.253 359.413 220.82C293.196 190.866 230.246 232.822 230.246 305.777C230.248 381.992 288.873 497.744 368.162 462.797Z" fill="#2EBA39"/>
<path d="M361.171 196.801C364.998 196.48 368.377 193.091 368.689 189.268C368.689 189.268 371.144 159.47 350.379 138.681C329.544 117.886 299.801 120.363 299.801 120.363C295.973 120.684 292.597 124.072 292.28 127.894C292.28 127.894 289.776 157.708 310.572 178.505C331.359 199.278 361.171 196.801 361.171 196.801Z" fill="#2EBA39"/>
<path d="M792.817 491.243C739.22 480.856 688.29 473.569 637.123 468.962C626.95 468.046 616.646 467.585 606.498 467.585C540.021 467.585 485.739 486.748 433.239 505.279C418.446 510.501 396.837 515.725 373.96 521.254C340.567 529.325 306.038 537.668 289.756 546.865C275.009 555.196 269.454 565.368 273.251 577.102C278.788 594.22 301.658 601.852 347.403 601.852C377.98 601.852 415.748 598.455 455.732 594.86C462.158 594.283 468.69 593.698 475.276 593.116C420.594 607.838 373.942 615.293 336.384 615.293C293.25 615.293 265.113 605.271 257.156 587.069C251.536 574.213 256.858 558.033 272.143 541.517L274.411 539.065L271.17 538.267C269.489 537.851 102.725 496.676 70.7512 489.663C63.7007 488.116 56.5399 487.329 49.4677 487.329C24.0599 487.329 3.41096 497.424 0.370464 511.33C-1.09954 518.05 0.577368 531.225 28.3734 543.992L272.141 646.657C280.28 649.662 288.639 653.142 297.488 656.825C324.553 668.086 352.54 679.736 378.545 679.732C389.365 679.732 399.72 678.605 410.199 676.288C429.071 672.112 476.73 657.995 527.183 643.051C576.298 628.503 627.088 613.458 647.408 608.886C663.355 605.298 679.791 603.552 697.654 603.552C728.451 603.552 758.672 608.729 789.499 614.5L799.998 616.465V492.628L792.817 491.243Z" fill="#2EBA39"/>
</g>
<defs>
<clipPath id="clip0_78_11">
<rect width="800" height="800" fill="white"/>
</clipPath>
</defs>
</svg>
