<svg id="Layer_1" enable-background="new 0 0 512 512" viewBox="0 0 512 512" xmlns="http://www.w3.org/2000/svg"><g><circle cx="267" cy="245" fill="#0055ca" r="245"/><path d="m459.61 311.081-197.99 197.99c-3.905 3.905-10.237 3.905-14.142 0l-197.99-197.99c-3.905-3.905-3.905-10.237 0-14.142l197.99-197.99c3.905-3.905 10.237-3.905 14.142 0l197.99 197.99c3.905 3.905 3.905 10.237 0 14.142z" fill="#00a4fb"/><path d="m509.071 311.081-197.99 197.99c-3.905 3.905-10.237 3.905-14.142 0l-197.99-197.99c-3.905-3.905-3.905-10.237 0-14.142l197.99-197.99c3.905-3.905 10.237-3.905 14.142 0l197.99 197.99c3.905 3.905 3.905 10.237 0 14.142z" fill="#49b6fc"/><path d="m266.858 393.138c-121.857-.002-219.997-98.144-219.997-220.001 0-45.984 14.109-88.673 38.233-123.974.769-1.125-.668-2.442-1.736-1.595-50.786 40.299-83.357 102.56-83.358 172.43-.001 121.235 98.767 220.003 220.003 220.002 69.698-.001 131.825-32.412 172.133-82.985.902-1.131-.497-2.654-1.692-1.84-35.227 23.96-77.771 37.964-123.586 37.963z" fill="#c5d3dd"/><path d="m220 0c-52.212 0-100.176 18.188-137.901 48.574-30.386 37.726-48.575 85.69-48.575 137.902 0 121.503 98.497 220 220 220 52.212 0 100.176-18.188 137.901-48.575 30.387-37.725 48.575-85.689 48.575-137.901 0-121.503-98.497-220-220-220z" fill="#d9e7ec"/><circle cx="220" cy="220" fill="#fff5f5" r="150"/><path d="m243.587 290.17c-7.931-8.928-18.49-13.915-29.356-14.962 7.723-16.645 4.72-37.039-9.01-50.768-17.373-17.373-45.416-17.57-63.033-.594-2.564-6.216-6.58-11.975-12.048-16.756-17.192-15.031-43.38-14.615-60.123.914-18.815 17.451-19.231 46.863-1.25 64.844 9.48 9.48 22.139 13.846 34.546 13.098-11.762 17.495-9.909 41.422 5.559 56.89 14.81 14.81 37.374 17.139 54.622 6.987 4.718-2.777 10.641-1.959 14.503 1.921l.075.075c17.999 18 47.454 17.563 64.898-1.309 15.582-16.857 15.864-43.177.617-60.34z" fill="#00c53b"/><circle cx="277.665" cy="360.465" fill="#4bcd5c" r="15"/><path d="m206.322 68.314c8.063-8.063 7.802-21.297-.782-29.026-7.811-7.033-20.06-6.694-27.496.735-3.324 3.321-5.235 7.519-5.733 11.85-.588 5.11-2.372 10.065-5.813 13.888-.277.308-.549.625-.815.951-7.648 9.367-7.36 23.165.635 32.237 9.633 10.933 26.324 11.328 36.467 1.185 8.554-8.554 9.613-21.764 3.178-31.471.122-.115.241-.231.359-.349z" fill="#ebae56"/><path d="m236.006 151.915c-17.574-17.574-46.066-17.574-63.64 0-.263.263-.522.529-.777.797-17.387-10.963-40.645-8.872-55.791 6.275-17.574 17.574-17.574 46.066 0 63.64 12.314 12.314 29.99 15.999 45.513 11.055-4.944 15.523-1.259 33.199 11.055 45.513 17.574 17.574 46.066 17.574 63.64 0s17.574-46.066 0-63.64c17.573-17.574 17.573-46.066 0-63.64z" fill="#fbc56d"/><path d="m285.229 245.574c6.084-20.021-2.506-42.224-21.615-52.594-21.844-11.854-49.161-3.755-61.015 18.089-10.37 19.109-5.47 42.407 10.543 55.876-6.084 20.021 2.506 42.224 21.615 52.594 21.844 11.854 49.161 3.755 61.015-18.089 10.37-19.109 5.47-42.406-10.543-55.876z" fill="#ffdf8e"/><path d="m265.333 96.242c-3.323-9.975.439-19.595 7.455-25.233.935-.751.694-2.235-.422-2.674l-38.569-15.194c-18.164-7.156-36.421 10.146-30.252 28.668l18.114 54.38 4.192 1.193 3.062 9.192-2.493 3.909 11.529 34.611 2.708 2.323 2.868 8.61-.812 3.372 14.165 42.526 3.593 1.724 2.909 8.732-1.727 3.878 7.87 23.628 4.537 1.368 2.258 6.779-2.004 6.235 8.586 25.776c8.629 25.905 44.565 27.751 55.803 2.867.789-1.746.89-3.725.285-5.543z" fill="#ff544c"/><path d="m367.671 105.881-26.466-10.426-4.12 1.588-6.823-2.688-3.162-4.457-34.436-13.566-5.126 1.837-6.965-2.744-1.917-4.612-5.992-2.361c-12.98-5.113-26.026 7.25-21.617 20.485l77.768 233.466c1.51 4.534 7.857 4.97 9.84.622.017-.037.034-.075.051-.112l18.388-40.714-1.632-4.308 3.92-8.679 4.236-1.459 36.742-81.352c9.557-21.16 5.811-44.819-7.509-61.794-.708-.902-2.739.559-3.5-.304-2.223-2.519-4.671-4.866-7.331-7.006-1.04-.837-.817-3.985-1.921-4.757-3.782-2.642-7.937-4.89-12.428-6.659z" fill="#ff6c55"/><g fill="#ff9084"><path d="m338.978 266.096c-24.225 0-47.728 4.744-69.451 13.791l4.791 14.382c26.269-11.093 54.839-15.116 82.777-12.07l6.524-14.446c-8.1-1.099-16.328-1.657-24.641-1.657z"/><path d="m226.422 150.483c31.602-13.717 56.09-40.84 66.244-74.151l-14.008-5.519c-8.525 29.192-29.617 53.077-56.997 65.376z"/><path d="m392.852 124.608c-3.582-4.565-7.857-8.647-12.752-12.067-12.291 63.442-60.887 114.093-123.219 129.384l4.775 14.335c31.369-7.848 60.126-24.05 83.561-47.485 23.587-23.586 39.845-52.563 47.635-84.167z"/><path d="m341.205 95.455-14.104-5.556c-11.655 44.796-45.556 80.713-89.15 95.197l4.765 14.305c22.161-7.313 42.458-19.757 59.426-36.724 18.938-18.94 32.24-42.026 39.063-67.222z"/></g><circle cx="85.511" cy="288.532" fill="#00b327" r="25.021"/><circle cx="159.186" cy="232.532" fill="#ff7d43" r="15"/><circle cx="212.18" cy="280.183" fill="#ff7d43" r="34.246"/><circle cx="212.18" cy="280.183" fill="#ff6930" r="15"/><circle cx="170.691" cy="148.106" fill="#ff7d43" r="15"/><circle cx="71.156" cy="117.097" fill="#9facba" r="71.156"/><path d="m89.997 149.992c-27.723-1.558-50.177-24.011-51.735-51.734-.568-10.099 1.591-19.647 5.807-27.978.224-.443-.258-.916-.686-.665-16.957 9.94-28.115 28.704-27.17 49.988 1.254 28.247 24.191 51.185 52.439 52.439 21.292.945 40.062-10.222 49.999-27.19.248-.423-.219-.899-.656-.677-8.336 4.222-17.892 6.385-27.998 5.817z" fill="#ff544c"/><path d="m71.156 62.097c-10.28 0-19.902 2.821-28.133 7.73-4.909 8.231-7.73 17.853-7.73 28.133 0 30.376 24.624 55 55 55 10.28 0 19.902-2.821 28.133-7.73 4.909-8.231 7.73-17.853 7.73-28.133 0-30.375-24.624-55-55-55z" fill="#ff6c55"/><ellipse cx="49.102" cy="137.089" fill="#ff9568" rx="8.043" ry="14.107" transform="matrix(.707 -.707 .707 .707 -82.555 74.873)"/><path d="m76.785 137.891c4.172 4.172 11.29.523 10.269-5.288-1.261-7.176-5.357-14.955-11.935-21.532-6.577-6.577-14.356-10.674-21.532-11.935-5.811-1.021-9.46 6.097-5.288 10.269z" fill="#ff9568"/><path d="m99.766 122.716c5.315 5.315 14.384.666 13.083-6.737-1.607-9.142-6.825-19.052-15.205-27.432s-18.29-13.598-27.432-15.205c-7.403-1.301-12.052 7.768-6.737 13.083z" fill="#ff9568"/><path d="m167.156 402.94-7.071-7.071c-1.953-1.953-1.953-5.118 0-7.071l7.071-7.071c1.953-1.953 5.118-1.953 7.071 0l7.071 7.071c1.953 1.953 1.953 5.118 0 7.071l-7.071 7.071c-1.953 1.953-5.118 1.953-7.071 0z" fill="#008d1c"/><path d="m151.679 329.4-7.071-7.071c-1.953-1.953-1.953-5.118 0-7.071l7.071-7.071c1.953-1.953 5.118-1.953 7.071 0l7.071 7.071c1.953 1.953 1.953 5.118 0 7.071l-7.071 7.071c-1.953 1.953-5.119 1.953-7.071 0z" fill="#008d1c"/></g><g/><g/><g/><g/><g/><g/><g/><g/><g/><g/><g/><g/><g/><g/><g/></svg>