<svg width="800" height="800" viewBox="0 0 800 800" fill="none" xmlns="http://www.w3.org/2000/svg">
<path fill-rule="evenodd" clip-rule="evenodd" d="M400 66.6665C584.095 66.6665 733.333 215.905 733.333 400C733.333 584.095 584.095 733.333 400 733.333C215.905 733.333 66.6666 584.095 66.6666 400C66.6666 215.905 215.905 66.6665 400 66.6665ZM599.476 246.359C606.619 221.492 583.245 198.119 558.378 205.262L554.981 206.428L319.279 300.709L315.761 302.36C310.319 305.312 305.81 309.722 302.737 315.085L300.709 319.278L206.428 554.981L205.262 558.378C198.119 583.245 221.492 606.618 246.359 599.475L249.757 598.31L485.459 504.029L488.977 502.378C494.419 499.425 498.928 495.015 502.001 489.652L504.029 485.459L598.31 249.757L599.476 246.359ZM400 333.333C436.819 333.333 466.667 363.181 466.667 400C466.667 436.819 436.819 466.666 400 466.666C363.181 466.666 333.333 436.819 333.333 400C333.333 363.181 363.181 333.333 400 333.333Z" fill="#2EBA39"/>
</svg>
