<svg width="256" height="256" viewBox="0 0 256 256" fill="none" xmlns="http://www.w3.org/2000/svg">
<path d="M128 229.843L252 86.3372L204.636 26.1572H51.364L4 86.3372L128 229.843Z" fill="#FCC24C"/>
<path d="M127.998 229.843L108.839 158.089L89.6797 86.3359H127.998H166.316L147.157 158.089L127.998 229.843Z" fill="#FCC24C"/>
<path d="M89.682 86.3369L128 229.843L4 86.3369H89.682Z" fill="#FCE06A"/>
<path d="M89.6818 86.3372L70.5228 56.2472L51.3638 26.1572H89.6818H128L108.841 56.2472L89.6818 86.3372Z" fill="#FCE06A"/>
<path d="M166.318 86.3372L147.159 56.2472L128 26.1572H166.318H204.636L185.477 56.2472L166.318 86.3372Z" fill="#DEA42E"/>
<path d="M4 86.3372L51.364 26.1572L89.68 86.3362L4 86.3372Z" fill="white"/>
<path d="M166.318 86.3369L128 229.843L252 86.3369H166.318Z" fill="#DEA42E"/>
<path d="M128 231.843C127.419 231.843 126.866 231.59 126.486 231.151L2.48564 87.6452C1.85964 86.9202 1.83564 85.8532 2.42864 85.1002L49.7926 24.9202C50.1716 24.4382 50.7506 24.1572 51.3636 24.1572H204.635C205.248 24.1572 205.827 24.4382 206.206 24.9202L253.57 85.1002C254.163 85.8522 254.138 86.9202 253.512 87.6442L129.512 231.15C129.134 231.59 128.581 231.843 128 231.843ZM6.59164 86.2772L128 226.784L249.408 86.2772L203.665 28.1562H52.3346L6.59164 86.2772Z" fill="#690589"/>
<path d="M89.6818 88.3372C88.9978 88.3372 88.3618 87.9883 87.9938 87.4113L49.6768 27.2313C49.2848 26.6153 49.2598 25.8353 49.6118 25.1943C49.9628 24.5543 50.6338 24.1562 51.3648 24.1562H128C128.73 24.1562 129.402 24.5543 129.753 25.1943C130.105 25.8343 130.079 26.6153 129.688 27.2313L91.3698 87.4113C91.0018 87.9883 90.3648 88.3372 89.6818 88.3372ZM55.0088 28.1572L89.6818 82.6143L124.356 28.1572H55.0088Z" fill="#690589"/>
<path d="M166.318 88.3372C165.634 88.3372 164.998 87.9883 164.63 87.4113L126.312 27.2313C125.92 26.6153 125.895 25.8353 126.247 25.1943C126.598 24.5543 127.269 24.1562 128 24.1562H204.637C205.367 24.1562 206.039 24.5543 206.39 25.1943C206.742 25.8343 206.716 26.6153 206.325 27.2313L168.007 87.4113C167.639 87.9883 167.002 88.3372 166.318 88.3372ZM131.645 28.1572L166.319 82.6143L200.993 28.1572H131.645Z" fill="#690589"/>
<path d="M127.998 231.843C127.092 231.843 126.3 231.234 126.065 230.359L87.7467 86.8519C87.5867 86.2509 87.7147 85.6109 88.0937 85.1179C88.4717 84.6249 89.0587 84.3359 89.6797 84.3359H166.317C166.938 84.3359 167.525 84.6249 167.903 85.1179C168.282 85.6109 168.41 86.2519 168.25 86.8519L129.932 230.359C129.696 231.234 128.904 231.843 127.998 231.843ZM92.2837 88.3359L127.998 222.09L163.712 88.3359H92.2837Z" fill="#690589"/>
<path d="M128 231.843C127.419 231.843 126.866 231.59 126.486 231.151L2.48578 87.6449C1.97378 87.0529 1.85478 86.2169 2.18078 85.5049C2.50678 84.7929 3.21778 84.3369 3.99978 84.3369H252C252.782 84.3369 253.493 84.7939 253.818 85.5049C254.144 86.2159 254.025 87.0519 253.513 87.6449L129.513 231.151C129.134 231.59 128.581 231.843 128 231.843ZM8.37078 88.3369L128 226.784L247.629 88.3369H8.37078Z" fill="#690589"/>
<path d="M183.645 229.844L252 150.736L225.891 117.562H141.4L115.29 150.736L183.645 229.844Z" fill="#7BAC51"/>
<path d="M183.644 229.843L173.083 190.289L162.521 150.735H183.644H204.767L194.206 190.289L183.644 229.843Z" fill="#7BAC51"/>
<path d="M162.523 150.735L183.645 229.843L115.29 150.735H162.523Z" fill="#99CA6F"/>
<path d="M162.523 150.736L151.961 134.149L141.4 117.562H162.523H183.645L173.084 134.149L162.523 150.736Z" fill="#99CA6F"/>
<path d="M204.768 150.736L194.207 134.149L183.645 117.562H204.768H225.891L215.329 134.149L204.768 150.736Z" fill="#5D8E33"/>
<path d="M115.29 150.736L141.4 117.562L162.521 150.736H115.29Z" fill="white"/>
<path d="M204.768 150.735L183.645 229.843L252 150.735H204.768Z" fill="#5D8E33"/>
<path d="M183.646 231.844C183.065 231.844 182.512 231.591 182.132 231.152L113.777 152.044C113.151 151.319 113.127 150.251 113.719 149.499L139.828 116.326C140.207 115.844 140.786 115.562 141.399 115.562H225.89C226.503 115.562 227.082 115.844 227.461 116.326L253.57 149.499C254.163 150.251 254.138 151.32 253.512 152.044L185.158 231.152C184.779 231.591 184.227 231.844 183.646 231.844ZM117.882 150.676L183.646 226.785L249.409 150.676L224.921 119.562H142.371L117.882 150.676Z" fill="#690589"/>
<path d="M162.522 152.736C161.838 152.736 161.202 152.387 160.834 151.81L139.711 118.636C139.319 118.02 139.294 117.24 139.646 116.599C139.997 115.959 140.668 115.561 141.399 115.561H183.645C184.375 115.561 185.047 115.959 185.398 116.599C185.75 117.239 185.724 118.02 185.333 118.636L164.21 151.811C163.843 152.387 163.206 152.736 162.522 152.736ZM145.044 119.563L162.523 147.013L180.002 119.563H145.044Z" fill="#690589"/>
<path d="M204.768 152.736C204.084 152.736 203.448 152.387 203.08 151.81L181.958 118.636C181.566 118.02 181.541 117.24 181.893 116.599C182.244 115.959 182.915 115.561 183.646 115.561H225.891C226.621 115.561 227.293 115.959 227.644 116.599C227.996 117.239 227.97 118.02 227.579 118.636L206.456 151.81C206.088 152.387 205.451 152.736 204.768 152.736ZM187.29 119.563L204.768 147.013L222.247 119.563H187.29Z" fill="#690589"/>
<path d="M183.645 231.843C182.739 231.843 181.947 231.234 181.712 230.359L160.589 151.251C160.429 150.65 160.557 150.01 160.936 149.517C161.314 149.024 161.901 148.735 162.522 148.735H204.767C205.388 148.735 205.975 149.024 206.353 149.517C206.732 150.01 206.86 150.651 206.7 151.251L185.578 230.359C185.343 231.234 184.551 231.843 183.645 231.843ZM165.126 152.735L183.645 222.09L202.163 152.735H165.126Z" fill="#690589"/>
<path d="M183.646 231.843C183.065 231.843 182.512 231.59 182.132 231.151L113.777 152.043C113.265 151.451 113.146 150.615 113.472 149.903C113.797 149.192 114.508 148.735 115.29 148.735H252C252.782 148.735 253.493 149.192 253.818 149.903C254.144 150.614 254.025 151.45 253.513 152.043L185.159 231.151C184.779 231.59 184.227 231.843 183.646 231.843ZM119.661 152.735L183.645 226.784L247.628 152.735H119.661Z" fill="#690589"/>
<path d="M36.5129 114.003C35.9509 114.003 35.3939 113.769 34.9979 113.311L27.8259 105.011C27.1039 104.175 27.1959 102.912 28.0319 102.19C28.8669 101.466 30.1319 101.56 30.8529 102.396L38.0249 110.696C38.7469 111.532 38.6549 112.795 37.8189 113.517C37.4409 113.843 36.9759 114.003 36.5129 114.003Z" fill="#690589"/>
<path d="M58.6019 131.907L65.2589 144.078L77.4299 150.735L65.2589 157.392L58.6019 169.563L51.9449 157.392L39.7739 150.735L51.9449 144.078L58.6019 131.907Z" fill="white"/>
<path d="M58.6029 171.563C57.8719 171.563 57.1989 171.164 56.8479 170.523L50.4719 158.865L38.8149 152.49C38.1729 152.139 37.7749 151.466 37.7749 150.735C37.7749 150.004 38.1729 149.331 38.8149 148.98L50.4719 142.605L56.8479 130.947C57.1989 130.306 57.8709 129.907 58.6029 129.907C59.3339 129.907 60.0069 130.306 60.3579 130.948L66.7329 142.605L78.3899 148.98C79.0319 149.331 79.4299 150.004 79.4299 150.735C79.4299 151.466 79.0319 152.139 78.3899 152.49L66.7329 158.865L60.3579 170.522C60.0069 171.164 59.3339 171.563 58.6029 171.563ZM43.9419 150.735L52.9049 155.637C53.2399 155.821 53.5159 156.096 53.6999 156.432L58.6019 165.395L63.5029 156.432C63.6869 156.096 63.9629 155.82 64.2979 155.637L73.2609 150.735L64.2979 145.834C63.9629 145.65 63.6869 145.375 63.5029 145.039L58.6019 136.076L53.6999 145.039C53.5159 145.374 53.2399 145.65 52.9049 145.834L43.9419 150.735Z" fill="#690589"/>
<path d="M166.316 64.8203L173.923 78.7293L187.833 86.3363L173.923 93.9433L166.316 107.853L158.709 93.9433L144.8 86.3363L158.709 78.7293L166.316 64.8203Z" fill="white"/>
<path d="M166.316 109.853C165.585 109.853 164.912 109.454 164.561 108.812L157.235 95.4173L143.839 88.0913C143.197 87.7403 142.799 87.0673 142.799 86.3363C142.799 85.6053 143.197 84.9323 143.839 84.5813L157.235 77.2553L164.561 63.8603C164.912 63.2183 165.584 62.8193 166.316 62.8193C167.048 62.8193 167.72 63.2183 168.071 63.8603L175.397 77.2553L188.793 84.5813C189.435 84.9323 189.833 85.6053 189.833 86.3363C189.833 87.0673 189.435 87.7403 188.793 88.0913L175.397 95.4173L168.071 108.812C167.721 109.454 167.048 109.853 166.316 109.853ZM148.968 86.3363L159.669 92.1893C160.004 92.3733 160.28 92.6483 160.464 92.9843L166.317 103.685L172.17 92.9843C172.354 92.6483 172.63 92.3723 172.965 92.1893L183.666 86.3363L172.965 80.4843C172.63 80.3003 172.354 80.0253 172.17 79.6893L166.317 68.9883L160.464 79.6893C160.28 80.0253 160.004 80.3013 159.669 80.4843L148.968 86.3363Z" fill="#690589"/>
</svg>
