<svg id="Capa_1" enable-background="new 0 0 512 512" height="512" viewBox="0 0 512 512" width="512" xmlns="http://www.w3.org/2000/svg"><g><path d="m288 256h-64l14.233-128.098c1.006-9.053 8.658-15.902 17.767-15.902 9.109 0 16.761 6.849 17.767 15.902z" fill="#025f80"/><path d="m256.483.001c-70.642-.131-134.833 28.66-181.329 75.153l4.846 36.846 40.122 8.122c34.725-34.719 82.738-56.122 135.879-56.122 53.019 0 101.019 21.49 135.764 56.235l40.235-8.235 5.017-37.018c-46.221-46.221-110.033-74.851-180.534-74.981z" fill="#ffc344"/><path d="m395.81 64.681c13.796 13.796 26.024 29.159 36.396 45.799l4.811-35.497c-37.076-37.077-85.47-62.834-139.557-71.642 37.442 12.768 70.98 33.97 98.35 61.34z" fill="#feb237"/><path d="m256 400h-14.245c-8.837 0-16 7.163-16 16 0 8.244 6.234 15.031 14.245 15.905v24.095c0 13.233-10.767 24-24 24s-24-10.767-24-24v-80c0-13.233 10.767-24 24-24 6.41 0 12.438 2.496 16.97 7.03 6.248 6.249 16.379 6.249 22.628 0 6.249-6.248 6.249-16.379 0-22.628-10.577-10.577-24.64-16.402-39.598-16.402-30.879 0-56 25.122-56 56v80c0 30.878 25.121 56 56 56s56-25.122 56-56v-40c0-8.837-7.163-16-16-16z" fill="#02c7dd"/><path d="m320 512c8.837 0 16-7.163 16-16v-160c0-8.837-7.163-16-16-16s-16 7.163-16 16v160c0 8.836 7.164 16 16 16z" fill="#02c7dd"/><path d="m0 255.816c-.044 62.747 22.487 120.231 59.917 164.777 7.742 9.214 21.759 9.732 30.268 1.222l16.186-16.186c7.549-7.549 8.004-19.55 1.225-27.798-27.655-33.647-44.09-76.865-43.586-123.934.561-52.383 21.879-99.549 56.111-133.775l-44.967-44.968c-46.34 46.337-75.104 110.256-75.154 180.662z" fill="#80d261"/><path d="m437.017 74.982-45.253 45.253c34.746 34.746 56.236 82.746 56.236 135.765 0 46.377-16.443 88.914-43.817 122.098-6.709 8.133-6.009 20.075 1.446 27.531l16.181 16.181c8.549 8.549 22.589 7.937 30.361-1.323 37.341-44.487 59.829-101.861 59.829-164.487 0-70.692-28.656-134.691-74.983-181.018z" fill="#e94444"/><path d="m437.017 74.982-17.283 17.283c32.063 42.757 51.059 95.876 51.059 153.432 0 62.626-22.488 120-59.829 164.487-.119.141-.239.281-.361.418l11.207 11.207c8.549 8.549 22.589 7.937 30.361-1.323 37.341-44.486 59.829-101.86 59.829-164.486 0-70.692-28.656-134.691-74.983-181.018z" fill="#d83131"/><circle cx="256" cy="256" fill="#017297" r="40"/><g><g><circle cx="256" cy="256" fill="#025f80" r="7.5"/></g></g></g></svg>