<svg width="327" height="460" viewBox="0 0 327 460" fill="none" xmlns="http://www.w3.org/2000/svg">
<g clip-path="url(#clip0_108_2)">
<path d="M295.144 212.031H250.353V135.247C250.353 87.4928 211.372 48.6417 163.458 48.6417C115.544 48.6417 76.563 87.4928 76.563 135.247V212.031H31.772V135.247C31.772 62.8771 90.846 4 163.458 4C236.07 4 295.144 62.8771 295.144 135.247V212.031Z" fill="#D3D3D3"/>
<path d="M295.145 135.248V212.032H250.353V179.237C261.161 166.631 287.506 127.096 252.077 72.163C215.396 15.2992 151.137 13.4275 98.3892 21.1746C117.588 10.2501 139.81 4 163.458 4C236.068 4 295.145 62.8791 295.145 135.248Z" fill="#BCBCBC"/>
<path d="M163.458 48.6416C115.546 48.6416 76.5618 87.4947 76.5618 135.247V212.031H43.0498V196.008C77.7278 196.009 31.4918 48.6416 163.458 48.6416Z" fill="#BCBCBC"/>
<path d="M302.914 455.775H24.002C12.956 455.775 4.00195 446.851 4.00195 435.842V215.893C4.00195 204.884 12.956 195.96 24.002 195.96H302.915C313.961 195.96 322.915 204.884 322.915 215.893V435.842C322.914 446.851 313.96 455.775 302.914 455.775Z" fill="#40D04E"/>
<path d="M322.916 215.162V436.577C322.916 447.176 314.285 455.778 303.651 455.778H23.265C12.631 455.778 4 447.176 4 436.577V406.364C8.874 415.466 19.797 429.3 41.124 429.3H201.805C237.552 429.3 266.526 400.421 266.526 364.794V290.43C266.526 243.407 229.787 202.509 183.956 195.961H303.65C314.285 195.961 322.916 204.553 322.916 215.162Z" fill="#2EBA39"/>
<path d="M195.663 366.812C197.096 375.785 190.145 383.901 181.034 383.901H145.882C136.771 383.901 129.82 375.785 131.253 366.812L136.252 335.545C128.727 328.385 124.042 318.296 124.042 307.117C124.042 285.422 141.69 267.833 163.458 267.833C185.226 267.833 202.874 285.422 202.874 307.117C202.874 318.296 198.189 328.385 190.664 335.545L195.663 366.812Z" fill="#88EF92"/>
<path d="M49.7941 219.051H19.9331V358.257H49.7941V219.051Z" fill="#88EF92"/>
<path d="M49.7941 372.658H19.9331V395.699H49.7941V372.658Z" fill="#88EF92"/>
<path d="M138.567 314.114C138.567 325.288 143.248 335.379 150.781 342.541L145.782 373.809C145.194 377.486 146.013 381.019 147.814 383.899H145.878C136.775 383.899 129.821 375.788 131.256 366.811L136.255 335.542C128.722 328.38 124.041 318.3 124.041 307.115C124.041 285.418 141.688 267.83 163.458 267.83C172.513 267.83 180.854 270.872 187.511 275.99C184.458 275.232 181.269 274.828 177.984 274.828C156.214 274.829 138.567 292.417 138.567 314.114Z" fill="#40D04E"/>
<path d="M56.4548 123.046C60.2918 99.9158 72.0058 63.2195 107.589 41.4424L101.809 29.9219C101.809 29.9219 51.4738 55.4036 42.4878 123.046H56.4548Z" fill="white"/>
<path d="M41.52 132.646C41.26 136.369 41.124 140.208 41.124 144.166H54.61C54.61 144.166 54.487 139.766 55.186 132.646H41.52Z" fill="white"/>
<path d="M76.562 195.961V135.248C76.562 87.4957 115.545 48.6416 163.458 48.6416C211.371 48.6416 250.354 87.4947 250.354 135.248V195.961" stroke="#161721" stroke-width="7" stroke-miterlimit="10" stroke-linecap="round" stroke-linejoin="round"/>
<path d="M31.771 195.961V135.248C31.771 62.8801 90.848 4 163.458 4C236.068 4 295.145 62.8801 295.145 135.248V195.961" stroke="#161721" stroke-width="7" stroke-miterlimit="10" stroke-linecap="round" stroke-linejoin="round"/>
<path d="M302.914 455.775H24.002C12.956 455.775 4.00195 446.851 4.00195 435.842V215.893C4.00195 204.884 12.956 195.96 24.002 195.96H302.915C313.961 195.96 322.915 204.884 322.915 215.893V435.842C322.914 446.851 313.96 455.775 302.914 455.775Z" stroke="#161721" stroke-width="7" stroke-miterlimit="10" stroke-linecap="round" stroke-linejoin="round"/>
<path d="M195.663 366.812C197.096 375.785 190.145 383.901 181.034 383.901H145.882C136.771 383.901 129.82 375.785 131.253 366.812L136.252 335.545C128.727 328.385 124.042 318.296 124.042 307.117C124.042 285.422 141.69 267.833 163.458 267.833C185.226 267.833 202.874 285.422 202.874 307.117C202.874 318.296 198.189 328.385 190.664 335.545L195.663 366.812Z" stroke="#161721" stroke-width="7" stroke-miterlimit="10" stroke-linecap="round" stroke-linejoin="round"/>
</g>
<defs>
<clipPath id="clip0_108_2">
<rect width="327" height="460" fill="white"/>
</clipPath>
</defs>
</svg>
