<svg width="512" height="512" viewBox="0 0 512 512" fill="none" xmlns="http://www.w3.org/2000/svg">
<path d="M483.74 440.72L472.83 262.36C472.61 258.71 470.52 255.59 467.54 253.89L467.07 42.6998C467.06 39.4398 465.46 36.3898 462.77 34.5298C460.09 32.6798 456.66 32.2598 453.61 33.4098C441.11 38.1198 431.43 48.5598 427.71 61.3498C419.22 90.5398 412.96 119.59 408.23 152.19C372.61 103.87 316.28 75.2398 256 75.2398C207.64 75.2398 161.63 93.4798 126.43 126.61C125.02 127.94 124.96 130.15 126.28 131.56C127.6 132.97 129.82 133.03 131.23 131.71C165.12 99.8098 209.44 82.2398 256 82.2398C316.49 82.2398 372.85 112.16 406.83 162.29C405.63 171.36 404.53 180.71 403.53 190.44C401.73 207.89 410.67 224.38 426.3 232.45C427.32 232.98 427.95 234.06 427.89 235.21C427.8 237.14 429.28 238.78 431.22 238.88C433.16 238.96 434.79 237.48 434.89 235.55C435.08 231.67 432.97 228.01 429.51 226.22C416.46 219.48 408.99 205.71 410.49 191.15C415.51 142.41 422.89 102.98 434.43 63.2998C437.54 52.6198 445.63 43.8898 456.08 39.9598C457 39.6198 457.99 39.7398 458.8 40.2898C459.61 40.8498 460.07 41.7298 460.07 42.7098L460.54 252.49H432.66C427.12 252.49 422.52 256.82 422.18 262.35L411.27 440.71C410.65 450.81 414.13 460.43 421.06 467.8C427.99 475.17 437.38 479.23 447.5 479.23C457.62 479.23 467.01 475.17 473.94 467.8C480.87 460.43 484.36 450.82 483.74 440.72ZM432.66 259.5H462.35C464.2 259.5 465.73 260.94 465.84 262.79L468.66 308.88C461.58 294.88 447.07 285.37 430.44 285.37C429.48 285.37 428.57 285.58 427.75 285.95L429.17 262.78C429.28 260.94 430.82 259.5 432.66 259.5Z" fill="#424852"/>
<path d="M403.87 376.54C402.35 375.34 400.15 375.6 398.95 377.12C364.16 421.16 312.05 446.41 256 446.41C221.65 446.41 188.19 436.8 159.25 418.61C131.28 401.03 108.62 376.23 93.66 346.85L88.49 262.37C88.27 258.75 86.21 255.65 83.26 253.94L81.29 213.7C80.78 203.23 85.89 193.13 94.63 187.34C108.45 178.19 116.26 162.24 115.02 145.72L107.83 49.65C107.37 43.55 103.4 38.17 97.71 35.93C94.96 34.85 91.87 35.2 89.43 36.86C86.99 38.52 85.53 41.28 85.53 44.23V134.57C85.53 137.31 83.3 139.54 80.56 139.54C77.82 139.54 75.59 137.31 75.59 134.57V45.2C75.59 38.35 70.01 32.77 63.16 32.77C56.31 32.77 50.73 38.35 50.73 45.2V134.56C50.73 137.3 48.5 139.53 45.76 139.53C43.02 139.53 40.79 137.3 40.79 134.56V44.21C40.79 41.26 39.33 38.5 36.9 36.84C34.48 35.19 31.42 34.84 28.69 35.88C28.67 35.89 28.64 35.9 28.62 35.91C22.93 38.15 18.96 43.53 18.5 49.63L11.31 145.7C10.07 162.22 17.89 178.17 31.7 187.32C40.44 193.11 45.56 203.21 45.04 213.69L43.07 253.93C40.12 255.64 38.06 258.74 37.84 262.36L26.94 440.72C26.32 450.82 29.8 460.44 36.73 467.81C43.66 475.18 53.05 479.24 63.17 479.24C73.29 479.24 82.68 475.18 89.61 467.81C96.54 460.44 100.02 450.82 99.4 440.72L94.64 362.89C109.87 387.78 130.67 408.91 155.52 424.53C185.58 443.42 220.32 453.41 256 453.41C314.21 453.41 368.31 427.18 404.44 381.46C405.64 379.94 405.38 377.73 403.87 376.54ZM44.83 262.79C44.94 260.95 46.48 259.5 48.32 259.5H78.01C79.86 259.5 81.39 260.94 81.5 262.79L84.32 308.88C77.23 294.88 62.73 285.37 46.1 285.37C45.14 285.37 44.23 285.58 43.41 285.95L44.83 262.79ZM35.56 181.49C23.85 173.74 17.23 160.23 18.28 146.23L25.47 50.16C25.73 46.74 27.94 43.72 31.12 42.45C31.14 42.44 31.15 42.44 31.17 42.43C31.99 42.11 32.64 42.42 32.95 42.63C33.26 42.84 33.79 43.33 33.79 44.21V134.55C33.79 141.15 39.16 146.52 45.76 146.52C52.36 146.52 57.73 141.15 57.73 134.55V45.2C57.73 42.2 60.17 39.77 63.16 39.77C66.15 39.77 68.59 42.21 68.59 45.2V134.56C68.59 141.16 73.96 146.53 80.56 146.53C87.16 146.53 92.53 141.16 92.53 134.56V44.21C92.53 43.3 93.11 42.8 93.37 42.63C93.62 42.46 94.3 42.09 95.15 42.43C98.36 43.69 100.59 46.72 100.85 50.16L108.04 146.23C109.09 160.23 102.47 173.74 90.76 181.49C79.97 188.64 73.66 201.11 74.29 214.03L76.18 252.5H50.15L52.04 214.03C52.67 201.1 46.36 188.63 35.56 181.49Z" fill="#424852"/>
<path d="M256 132.59C183.24 132.59 124.26 191.57 124.26 264.33C124.26 337.09 183.24 396.06 256 396.06C328.76 396.06 387.74 337.08 387.74 264.32C387.74 191.56 328.76 132.59 256 132.59ZM339.5 193.25C338.83 193.86 337.99 194.16 337.15 194.16C336.2 194.16 335.25 193.77 334.56 193.01C319.28 176.19 299.52 164.91 277.39 160.38C275.5 159.99 274.27 158.14 274.66 156.25C275.05 154.36 276.9 153.13 278.79 153.52C302.38 158.35 323.45 170.37 339.74 188.3C341.03 189.74 340.93 191.95 339.5 193.25ZM361.16 233.19C360.8 233.31 360.42 233.37 360.06 233.37C358.59 233.37 357.22 232.44 356.74 230.97C354.82 225.18 352.38 219.51 349.49 214.12C348.57 212.42 349.21 210.3 350.91 209.38C352.61 208.46 354.74 209.1 355.65 210.8C358.74 216.54 361.34 222.59 363.39 228.76C363.99 230.61 363 232.59 361.16 233.19Z" fill="#2EBA39"/>
<path d="M239.83 96.57C295.07 88.67 341.88 106.14 385.2 150.56C392.46 158.01 395.55 168.56 393.64 178.79C392.82 183.2 392.37 187.83 392.34 192.71C392.31 197.48 386.01 199.19 383.65 195.04C356.85 148.01 312.97 123.39 252.4 120.04C243.87 119.57 236.51 113.88 234 105.71C232.74 101.53 235.5 97.19 239.83 96.57Z" fill="#D4E1E8"/>
</svg>
