<svg id="Layer_1" height="512" viewBox="0 0 512 512" width="512" xmlns="http://www.w3.org/2000/svg" data-name="Layer 1"><path d="m412.275 443.9c-.363 21.371-32.157 21.368-32.518 0 .364-21.37 32.158-21.367 32.518 0z" fill="#733617"/><path d="m458.381 294.805-42.071 68.173c-80.117-26.484-25.467-75.883-30.186-136.858 36.339 23.716 54.679 39 68.611 61.612a59.117 59.117 0 0 1 3.646 7.073z" fill="#77a226"/><path d="m438.675 326.42c0 10.566-11.6 10.032-13.621 2.784-2.613-9.328-8.587-24.423-14.184-33.277-5.054-8.072 7.207-15.835 12.333-7.789 3.252 6.273 15.472 26.706 15.472 38.282z" fill="#679522"/><path d="m458.381 294.805c-11.536 18.73-30.541 49.522-42.071 68.173-3.062-1.021-5.979-2.114-8.6-3.208-6.026-21.588 10.182-39.052 25.811-51.55.437-.437.948-.874 1.385-1.239 7-6.052 14.218-12.176 19.832-19.249a59.117 59.117 0 0 1 3.643 7.073z" fill="#658920"/><path d="m438.7 326.449c.511 9.423-11.021 10.845-13.636 2.77a104.791 104.791 0 0 0 -3.426-10.208c3.719-3.791 7.8-7.363 11.885-10.791 2.839 6.49 5.177 13.198 5.177 18.229z" fill="#567c1c"/><path d="m359.875 234c-7 54.174-78.965 142.472-187.533 170.471-99.549 27.901-143.631-58.382-151.732-112.437l295.809-145.9c11.321 8.772 50.173 56.624 43.456 87.866z" fill="#8c421c"/><path d="m221.194 365.093c-55.786 32.347-122.543 37.053-172.148-1.459-21.582-30.915-27.707-66.788-28.363-71.163 11.739 62.56 92.454 117.1 193.293 59.935 123.953-70.289 138.024-169.815 103.245-205.47 3.719 3.573 19.322 19.031 30.77 39.228 4.228 53.518-31.864 125.046-126.797 178.929z" fill="#733617"/><path d="m213.976 352.406c-100.839 57.164-181.554 2.625-193.293-59.935 0-.146-.073-.292-.073-.437a80.713 80.713 0 0 1 4.01-43.894c30.478-78.236 143.785-25.957 187.1-72.913 43.675-47.321 83.121-50.092 104.7-29.093 36.173 36.092 21.819 135.503-102.444 206.272z" fill="#fd9133"/><path d="m287.181 295.752c-176.381 183.687-335.1 6.141-239.447-78.163-51.777 79.527 49.476 194.511 180.824 120.235a317.843 317.843 0 0 0 58.623-42.072z" fill="#fd8115"/><path d="m130.788 347.319c-47.479 2.242-95.646-42.881-79.023-88.619 18.937-53.344 134.2-7.809 181.371-63.682 32.57-34.219 61.786-44.593 69.731-15.073 8.167 30.946-12.6 95.65-103.267 147.066-23.769 13.476-46.917 20.308-68.812 20.308z" fill="#de4c3c"/><path d="m266.473 275.045c-27.422 31.023-89.342 74.072-135.691 72.257-47.467 2.26-95.662-42.873-79.038-88.589 3.646-9.261 9.041-15.531 17.062-19.833-23.3 39.44 21.531 96.46 76.558 93.839 40.23 1.646 92.536-31.176 121.109-57.674z" fill="#d73624"/><path d="m132.591 277.019c2.854 24.909-46.479 31.957-50.714 7.253-2.854-24.908 46.479-31.957 50.714-7.253z" fill="#e5e5e5"/><path d="m130.49 287.221c-9.26 16.114-45.06 17.937-48.633-2.916-.875-7.729 3.209-13.708 9.406-17.5a15.935 15.935 0 0 0 -2.114 10.208c2.916 17.062 27.415 18.958 41.341 10.208z" fill="#d6d6d6"/><path d="m86.776 186.237a7.291 7.291 0 0 1 -6.486-3.949c-15.48-30.005-7.092-59.647.306-85.8 7.127-25.195 13.286-46.955.114-66.6-5.261-7.877 6.755-16.059 12.119-8.117 32.671 49.605-26.329 103.429.42 153.829a7.336 7.336 0 0 1 -6.473 10.637z" fill="#4398d1"/><path d="m136.669 171.654a7.291 7.291 0 0 1 -6.344-3.681c-30.257-49.682 27.016-98.726.479-137.806-5.641-7.635 6.012-16.35 11.718-8.679 33.145 44.92-25.821 93.652.477 139.265 2.839 4.664-.92 11.047-6.33 10.901z" fill="#4398d1"/><path d="m186.562 156.2a7.289 7.289 0 0 1 -6.145-3.354c-30.582-44.346 26.567-89.86.543-122.346-6.089-7.3 5.071-16.66 11.192-9.341 33.568 40.7-25.089 83.119.541 123.817 3.18 4.64-.563 11.386-6.131 11.224z" fill="#4398d1"/><path d="m362.629 160.653a7.287 7.287 0 0 1 -7.22-6.33c-8.573-64.447-33.616-101.823-76.566-114.265-9.111-2.653-5.143-16.638 4.059-14.006 49.098 14.227 77.541 55.554 86.961 126.348a7.3 7.3 0 0 1 -7.234 8.253z" fill="#679522"/><path d="m360.165 145.155c.319 1.028-29.233-10.318-29.905-10.4-8.934-3.291-4.006-16.921 4.984-13.707l20.485 7.444 13.892-39.468c3.19-8.961 16.889-4.18 13.757 4.842l-16.334 46.414a7.328 7.328 0 0 1 -6.879 4.875z" fill="#679522"/><path d="m348.6 104.7a7.178 7.178 0 0 1 -1.14-.089l-37.724-5.956c-9.409-1.528-7.135-15.847 2.279-14.4l30.312 4.785 4.549-35.424c1.212-9.43 15.643-7.628 14.469 1.859l-5.511 42.868a7.336 7.336 0 0 1 -7.234 6.357z" fill="#679522"/><path d="m328.8 71.213c-.273.06-32.556-1.676-32.875-1.648-9.536-.509-8.751-15.063.741-14.561l24.123 1.214-2.649-29.742c-.813-9.516 13.71-10.765 14.526-1.3l3.4 38.094a7.339 7.339 0 0 1 -7.266 7.943z" fill="#679522"/><g fill="#77a226"><path d="m404.113 211.692a7.305 7.305 0 0 1 -7.235-8.252c9.422-70.795 37.867-112.122 86.962-126.349 9.16-2.583 13.226 11.286 4.06 14.009-42.95 12.443-67.992 49.818-76.565 114.265a7.287 7.287 0 0 1 -7.222 6.327z"/><path d="m406.576 196.2a7.328 7.328 0 0 1 -6.878-4.871l-16.334-46.419c-3.127-9 10.552-13.822 13.756-4.842l13.892 39.468 20.486-7.444c8.979-3.221 13.927 10.415 4.984 13.707-.769.138-30.091 11.352-29.906 10.401z"/><path d="m418.14 155.736a7.336 7.336 0 0 1 -7.234-6.362l-5.512-42.868c-1.182-9.476 13.31-11.306 14.469-1.858l4.55 35.423 30.312-4.785c9.432-1.43 11.684 12.875 2.278 14.405l-37.724 5.956a7.166 7.166 0 0 1 -1.139.089z"/><path d="m437.942 122.253a7.339 7.339 0 0 1 -7.263-7.94l3.4-38.094c.877-9.454 15.332-8.227 14.526 1.3l-2.649 29.742 24.124-1.214c9.626-.576 10.2 14.093.74 14.561-.549-.035-32.351 1.678-32.878 1.645z"/></g><path d="m395.558 396.16c-1.771 61.469-81.82 61.457-83.584 0 1.771-61.469 81.82-61.46 83.584 0z" fill="#679522"/><path d="m385.468 426.632c-21.8 28.29-72.111 18.082-73.5-30.478.51-17.718 7.582-30.332 17.353-37.769-5.906 7.437-9.7 17.645-10.062 30.478 1.241 43.747 42.074 56.361 66.209 37.769z" fill="#567c1c"/><path d="m340.712 416.031a7.3 7.3 0 0 1 -6.842-4.774c-9.435-25.627-.684-38.337 8.316-44.485 7.9-5.322 16.086 6.614 8.231 12.041-2.834 1.933-10.353 7.066-2.862 27.4a7.33 7.33 0 0 1 -6.843 9.818z" fill="#77a226"/><path d="m237.1 467.191c-34.41-59.9 42.244-106.906 80.033-49.1 34.406 59.9-42.248 106.909-80.033 49.1z" fill="#fdb62f"/><path d="m319.044 471.984c-16.114 26.03-57.31 32.884-81.955-4.813-17.134-29.821-6.78-56.435 12.687-68.465-8.6 13.853-10.062 33.1 1.9 53.883 18.953 29.019 47.754 31.644 67.368 19.395z" fill="#fdab11"/><path d="m297.178 456.322a7.3 7.3 0 0 1 -7.291-7.669c.612-11.731-4.337-19.852-15.566-25.566-8.468-4.337-1.922-17.3 6.608-12.994 16.292 8.284 24.423 21.877 23.526 39.315a7.3 7.3 0 0 1 -7.277 6.914z" fill="#fdc04c"/><path d="m431.3 423.513c-.364 21.372-32.157 21.369-32.518 0 .362-21.371 32.156-21.368 32.518 0z" fill="#a64e21"/><path d="m472.765 425.123c-.364 21.372-32.157 21.368-32.518 0 .364-21.372 32.153-21.369 32.518 0z" fill="#733617"/><path d="m467.825 442.582c-.363 21.372-32.157 21.369-32.518 0 .364-21.372 32.158-21.368 32.518 0z" fill="#a64e21"/><path d="m442.834 444.957c-.364 21.371-32.157 21.368-32.518 0 .364-21.372 32.157-21.369 32.518 0z" fill="#c05a26"/><path d="m436.488 393.374c41-6.9 69.491-26.409 31.665-112.683-21.326 41.967-89.338 48.233-31.665 112.683z" fill="#77a226"/><path d="m435.666 402.724c-6.017.192-9.669-7.607-5.5-12.087 13.756-15.761 20.45-32.213 21.055-51.773a7.169 7.169 0 0 1 7.519-7.06c20.682.803-8.457 70.514-23.074 70.92z" fill="#679522"/><path d="m199.164 289.805c11.729 0 11.749-18.228 0-18.228-11.729 0-11.748 18.228 0 18.228z" fill="#8c421c"/><path d="m270.515 213.709c11.729 0 11.748-18.228 0-18.228-11.729 0-11.748 18.228 0 18.228z" fill="#8c421c"/><path d="m436.62 399.435c-.363 21.371-32.157 21.368-32.518 0 .364-21.372 32.158-21.369 32.518 0z" fill="#733617"/><path d="m451.458 419.654c-.364 21.372-32.158 21.369-32.518 0 .36-21.372 32.16-21.368 32.518 0z" fill="#8c421c"/><path d="m468.263 406.773c-.363 21.372-32.157 21.369-32.517 0 .363-21.373 32.154-21.368 32.517 0z" fill="#a64e21"/></svg>