<svg enable-background="new 0 0 512 512" viewBox="0 0 512 512" xmlns="http://www.w3.org/2000/svg"><g id="_x32_9_x2C__cookies_x2C__sweet_x2C__food_x2C__dessert_x2C__bakery_x2C__food_and_restaurant"><g><g><g><path id="XMLID_1013_" d="m152.948 153.185c-11.627 5.48-22.755 12.5-33.986 17.16-21.611 8.965-47.86 11.907-64.146 28.194-16.286 16.286-19.229 42.535-28.194 64.146-8.642 20.841-25.417 41.308-25.417 65.28 0 23.971 16.775 44.438 25.417 65.279 8.965 21.611 11.908 47.86 28.194 64.146s42.535 19.229 64.146 28.194c20.841 8.641 41.308 25.416 65.28 25.416s44.438-16.775 65.279-25.417c21.611-8.965 47.86-11.908 64.146-28.194s19.229-42.535 28.194-64.146c4.659-11.242 11.689-22.36 17.17-33.997z" fill="#f5e3b0"/><path id="XMLID_1012_" d="m488.227 125.48c-24.459 4.077-47.682-9.442-56.752-31.553-57.268 8.691-107.774-35.552-107.877-92.35-22.204 1.768-41.495 17.108-61.12 25.251-21.611 8.954-47.86 11.907-64.146 28.194-16.286 16.276-19.229 42.535-28.194 64.135-8.641 20.87-25.417 41.256-25.417 65.29 0 23.971 16.775 44.438 25.417 65.279 8.965 21.611 11.908 47.86 28.194 64.146s42.535 19.229 64.146 28.194c20.841 8.642 41.308 25.417 65.279 25.417 11.034 0 21.34-3.557 31.272-8.237v-.01c11.637-5.481 22.765-12.511 34.007-17.17 21.611-8.965 47.86-11.908 64.146-28.194s19.229-42.535 28.194-64.146c8.642-20.841 25.417-41.308 25.417-65.279.002-21.548-13.549-40.268-22.566-58.967z" fill="#a5503c"/><path id="XMLID_1011_" d="m420.025 3.023c13.249 5.543 19.489 20.779 13.946 34.018-5.543 13.249-16.764 9.901-30.003 4.358-13.249-5.553-23.503-11.19-17.96-24.429 5.543-13.25 20.778-19.49 34.017-13.947z" fill="#963e29"/><circle id="XMLID_1010_" cx="219.601" cy="209.406" fill="#963e29" r="20.8"/><circle id="XMLID_1009_" cx="385.997" cy="178.207" fill="#963e29" r="31.199"/><circle id="XMLID_1008_" cx="323.599" cy="282.205" fill="#963e29" r="20.8"/><circle id="XMLID_1007_" cx="89.604" cy="349.803" fill="#d7c494" r="25.999"/><circle id="XMLID_1006_" cx="198.801" cy="407.002" fill="#d7c494" r="20.8"/><g fill="#963e29"><path id="XMLID_1005_" d="m222.647 123.163c-4.061-4.061-4.061-10.647 0-14.708l10.4-10.4c4.062-4.06 10.646-4.06 14.708 0 4.061 4.061 4.061 10.647 0 14.708l-10.4 10.4c-4.064 4.061-10.646 4.06-14.708 0z"/><path id="XMLID_1004_" d="m305.845 102.363-10.4-10.4c-4.061-4.061-4.061-10.647 0-14.708 4.062-4.06 10.646-4.06 14.708 0l10.4 10.4c4.061 4.061 4.061 10.647 0 14.708-4.064 4.062-10.646 4.061-14.708 0z"/><path id="XMLID_1003_" d="m482.641 81.563-10.4-10.4c-4.061-4.061-4.061-10.647 0-14.708 4.062-4.06 10.646-4.06 14.708 0l10.4 10.4c4.061 4.061 4.061 10.647 0 14.708-4.064 4.062-10.645 4.061-14.708 0z"/><path id="XMLID_1002_" d="m285.045 195.961c-4.061-4.061-4.061-10.647 0-14.708l10.4-10.4c4.062-4.06 10.646-4.06 14.708 0 4.061 4.061 4.061 10.647 0 14.708l-10.4 10.4c-4.063 4.062-10.645 4.061-14.708 0z"/><path id="XMLID_975_" d="m243.446 299.959-10.4-10.4c-4.061-4.061-4.061-10.647 0-14.708 4.062-4.06 10.646-4.06 14.708 0l10.4 10.4c4.061 4.061 4.061 10.647 0 14.708-4.064 4.061-10.645 4.06-14.708 0z"/></g><path id="XMLID_974_" d="m103.049 279.159-10.4-10.4c-4.061-4.061-4.061-10.647 0-14.708 4.062-4.06 10.646-4.06 14.708 0l10.4 10.4c4.061 4.061 4.061 10.647 0 14.708-4.063 4.062-10.645 4.061-14.708 0z" fill="#d7c494"/><path id="XMLID_973_" d="m269.446 424.756-10.4-10.4c-4.061-4.061-4.061-10.647 0-14.708 4.062-4.06 10.646-4.06 14.708 0l10.4 10.4c4.061 4.061 4.061 10.647 0 14.708-4.064 4.062-10.646 4.061-14.708 0z" fill="#d7c494"/><path id="XMLID_972_" d="m399.443 268.759c-4.061-4.061-4.061-10.647 0-14.708l10.4-10.4c4.062-4.06 10.646-4.06 14.708 0 4.061 4.061 4.061 10.647 0 14.708l-10.4 10.4c-4.064 4.062-10.646 4.061-14.708 0z" fill="#963e29"/><path id="XMLID_971_" d="m103.049 424.756c-4.061-4.061-4.061-10.647 0-14.708l10.4-10.4c4.062-4.06 10.646-4.06 14.708 0 4.061 4.061 4.061 10.647 0 14.708l-10.4 10.4c-4.063 4.062-10.645 4.061-14.708 0z" fill="#d7c494"/></g></g></g></g><g id="Layer_1"/></svg>